<?xml version="1.0" encoding="utf-8"?>
<!-- Generator: Adobe Illustrator 21.0.2, SVG Export Plug-In . SVG Version: 6.00 Build 0)  -->
<svg version="1.1" id="Layer_1" xmlns="http://www.w3.org/2000/svg" xmlns:xlink="http://www.w3.org/1999/xlink" x="0px" y="0px"
	 viewBox="0 0 450 450" style="enable-background:new 0 0 450 450;" xml:space="preserve">
<style type="text/css">
	.st0{fill:url(#SVGID_1_);}
	.st1{fill:#EA7A42;}
	.st2{fill:#EFEFF9;}
	.st3{fill:#FFFFFF;}
	.st4{fill:#AEE0E8;}
	.st5{fill:#747678;}
	.st6{fill:#D85E21;}
	.st7{fill:#D8D6EC;}
	.st8{fill:#75969B;}
	.st9{fill:#F4783B;}
	.st10{fill:#EC148E;}
	.st11{fill:#FBC9C3;}
	.st12{fill:#C1172C;}
	.st13{fill:#666666;}
	.st14{fill:#FFDEC5;}
	.st15{fill:#FFFAC0;}
	.st16{fill:#B2D235;}
	.st17{fill:#0071B5;}
	.st18{fill:#F7941D;stroke:#F7941D;stroke-miterlimit:10;}
	.st19{fill:#FDE92B;}
	.st20{fill:#9E9C97;}
	.st21{fill:none;stroke:#000000;stroke-width:2;stroke-miterlimit:10;}
	.st22{opacity:0.2;fill:#FFFFFF;enable-background:new    ;}
</style>
<linearGradient id="SVGID_1_" gradientUnits="userSpaceOnUse" x1="-163" y1="225" x2="1109" y2="225" gradientTransform="matrix(1 0 0 -1 0 450)">
	<stop  offset="5.618000e-03" style="stop-color:#8AD0C3"/>
	<stop  offset="0.5" style="stop-color:#00B6A9"/>
	<stop  offset="1" style="stop-color:#00A185"/>
</linearGradient>
<rect x="-163" class="st0" width="1272" height="450"/>
<path class="st1" d="M324.3,318.7c0,29.2-11.5,55.5-30.1,74.4c-5.6,5.7-11.8,10.7-18.5,14.9H173.4c-6.7-4.2-12.9-9.2-18.5-14.9
	c-9.5-9.7-17.2-21.4-22.4-34.4v-80.1c8.2-20.6,22.7-37.9,40.9-49.3h102.3C304.9,247.5,324.3,280.7,324.3,318.7z"/>
<path class="st1" d="M124.9,318.7c0-14.2,2.7-27.7,7.7-40.1c8.2-20.6,22.7-37.9,40.9-49.3c5.7-3.5,11.7-6.5,18-8.8
	c10.4-3.8,21.5-5.9,33.1-5.9c18.7,0,36.2,5.4,51.2,14.7c29.1,18.2,48.6,51.4,48.6,89.3H124.9"/>
<path class="st1" d="M124.9,318.7c0-14.2,2.7-27.7,7.7-40.1c8.2-20.6,22.7-37.9,40.9-49.3c5.7-3.5,11.7-6.5,18-8.8h11.9
	c1.1,0,1.9,0.9,1.9,2v153c0,1.1-0.9,2-1.9,2h-61c-3.9-5.9-7.2-12.2-9.8-18.8C127.6,346.4,124.9,332.9,124.9,318.7"/>
<path class="st1" d="M124.9,318.7h199.5c0,29.2-11.5,55.5-30.1,74.4c-5.6,5.7-11.8,10.7-18.5,14.9c-15,9.4-32.5,14.7-51.2,14.7
	s-36.2-5.4-51.2-14.7c-6.7-4.2-12.9-9.2-18.5-14.9c-4.6-4.7-8.9-9.9-12.5-15.5c-3.9-5.9-7.2-12.2-9.8-18.8
	C127.6,346.4,124.9,332.9,124.9,318.7"/>
<g>
	<path class="st2" d="M296.5,369H152.4c-6.6,0-12-5.4-12-12v-79.2c0-6.6,5.4-12,12-12h144.1c6.6,0,12,5.4,12,12V357
		C308.5,363.6,303.1,369,296.5,369z"/>
</g>
<g>
	<rect x="149.4" y="274.8" class="st3" width="150.1" height="69.4"/>
	<path d="M290.5,283.8v51.4H158.4v-51.4h54.8h0.9h0.9H290.5 M305.3,265.8H215c-0.3,0-0.6,0-0.9,0c-0.3,0-0.6,0-0.9,0h-69.6
		c-1.8,0-3.2,1.5-3.2,3.4v84l0,0h168.1v-84C308.5,267.3,307.1,265.8,305.3,265.8L305.3,265.8z"/>
</g>
<g>
	<rect x="197.7" y="270.9" class="st4" width="105.9" height="77.3"/>
</g>
<polygon class="st5" points="197.7,386.7 197.7,389.9 183.9,389.9 "/>
<g>
	<ellipse class="st3" cx="224.5" cy="362.3" rx="2.2" ry="2.3"/>
	<path class="st3" d="M224.5,360.4c0.9,0,1.7,0.8,1.7,1.8s-0.8,1.8-1.7,1.8s-1.7-0.8-1.7-1.8S223.5,360.4,224.5,360.4 M224.5,359.4
		c-1.5,0-2.7,1.3-2.7,2.8s1.2,2.8,2.7,2.8s2.7-1.3,2.7-2.8S226,359.4,224.5,359.4L224.5,359.4z"/>
</g>
<polygon class="st5" points="265.1,389.9 251.5,389.9 251.5,386.7 "/>
<path class="st6" d="M154.9,393.1c18,18.3,42.6,29.6,69.7,29.6s51.7-11.3,69.7-29.6H154.9z"/>
<g>
	<polygon class="st5" points="251.5,386.7 251.5,389.9 197.7,389.9 197.7,386.7 197.8,386.6 251.4,386.6 	"/>
</g>
<g>
	<rect x="183" y="389.9" class="st2" width="82" height="3.4"/>
</g>
<g>
	<polygon class="st2" points="251.4,386.8 197.8,386.8 200.3,371.8 200.4,371.5 200.8,369 200.8,368.7 248.1,368.7 248.2,369 
		248.6,371.5 248.7,371.8 	"/>
</g>
<rect x="145.4" y="271" class="st7" width="52.3" height="77.1"/>
<rect x="204.5" y="276" class="st8" width="28.9" height="24"/>
<rect x="239.1" y="276" class="st8" width="60.8" height="2.5"/>
<rect x="239.1" y="289.2" class="st8" width="60.8" height="2.5"/>
<rect x="239.1" y="284.7" class="st8" width="60.8" height="2.5"/>
<rect x="239.1" y="293.5" class="st8" width="60.8" height="2.5"/>
<rect x="239.1" y="297.4" class="st8" width="60.8" height="2.5"/>
<rect x="204.5" y="305.6" class="st8" width="95.4" height="5.1"/>
<g>
	<rect x="239.1" y="280.2" class="st8" width="60.8" height="2.5"/>
</g>
<rect x="204.5" y="314" class="st8" width="43" height="3.4"/>
<g>
	<rect x="237.7" y="340.8" class="st9" width="60.3" height="2.3"/>
</g>
<g>
	<rect x="237.7" y="326.4" class="st9" width="5.7" height="12.1"/>
</g>
<g>
	<rect x="276.1" y="320.2" class="st10" width="5.7" height="18.3"/>
</g>
<g>
	<rect x="284.2" y="320.2" class="st11" width="5.7" height="18.3"/>
</g>
<g>
	<rect x="292.4" y="327.1" class="st12" width="5.4" height="11.3"/>
	<path class="st13" d="M297.7,327.3v11.1h-5.2v-11.1H297.7 M298,327h-5.7v11.6h5.7V327L298,327z"/>
</g>
<g>
	<rect x="246.6" y="323.6" class="st14" width="5.7" height="14.9"/>
</g>
<g>
	<rect x="256.6" y="320.2" class="st15" width="5.7" height="18.3"/>
</g>
<g>
	<rect x="266.9" y="315.7" class="st16" width="5.7" height="22.8"/>
</g>
<g>
	<path class="st17" d="M219.1,340.6c-2.7,0-5.3-1.3-7-3.5c-1.3-1.7-2-3.8-2-6c0-5.2,4.1-9.5,9.1-9.5c2.9,0,5.7,1.5,7.4,4
		c1.1,1.6,1.7,3.5,1.7,5.5C228.1,336.3,224.1,340.6,219.1,340.6z"/>
	<path class="st13" d="M219.1,321.8c2.9,0,5.6,1.5,7.3,3.9c1.1,1.6,1.7,3.5,1.7,5.4c0,5.1-4,9.3-8.9,9.3c-2.7,0-5.2-1.2-6.9-3.4
		c-1.3-1.7-2-3.8-2-5.9C210.1,326,214.1,321.8,219.1,321.8 M219.1,321.5c-5.1,0-9.2,4.3-9.2,9.6c0,2.3,0.8,4.4,2.1,6.1
		c1.7,2.2,4.2,3.5,7.1,3.5c5.1,0,9.2-4.3,9.2-9.6c0-2.1-0.6-4-1.7-5.6C224.9,323.1,222.2,321.5,219.1,321.5L219.1,321.5z"/>
</g>
<path class="st18" d="M219.1,331.5v-10c-5.1,0-9.2,4.3-9.2,9.6c0,2.3,0.8,4.4,2.1,6.1c1.7,2.2,4.2,3.5,7.1,3.5"/>
<g>
	<path class="st19" d="M219.1,339.7c-2.1,0-4.2-0.9-5.7-2.4l12.9-10.3c0.6,1.2,1,2.6,1,4.1C227.3,335.9,223.6,339.7,219.1,339.7z"/>
	<path class="st19" d="M225.9,328.7c0.3,0.8,0.4,1.6,0.4,2.5c0,4.2-3.2,7.6-7.2,7.6c-1.5,0-2.9-0.5-4.1-1.4l5.4-4.3L225.9,328.7
		 M226.5,325.6l-7.5,6l-7.1,5.7c1.7,2.2,4.2,3.5,7.1,3.5c5.1,0,9.2-4.3,9.2-9.6C228.3,329,227.6,327.1,226.5,325.6L226.5,325.6z"/>
</g>
<polygon class="st20" points="248.7,371.8 200.3,371.8 200.4,371.5 200.8,369 248.2,369 248.6,371.5 "/>
<polygon class="st7" points="195.8,271 195.8,348.2 197.7,348.2 198.7,348.2 198.7,270.9 "/>
<path class="st8" d="M185.8,327.7h-27.2c-2.5,0-4.5-2-4.5-4.5l0,0c0-2.5,2-4.5,4.5-4.5h27.2c2.5,0,4.5,2,4.5,4.5l0,0
	C190.3,325.7,188.2,327.7,185.8,327.7z"/>
<path class="st8" d="M185.8,300.1h-27.2c-2.5,0-4.5-2-4.5-4.5l0,0c0-2.5,2-4.5,4.5-4.5h27.2c2.5,0,4.5,2,4.5,4.5l0,0
	C190.3,298,188.2,300.1,185.8,300.1z"/>
<path class="st8" d="M185.8,313.9h-27.2c-2.5,0-4.5-2-4.5-4.5l0,0c0-2.5,2-4.5,4.5-4.5h27.2c2.5,0,4.5,2,4.5,4.5l0,0
	C190.3,311.9,188.2,313.9,185.8,313.9z"/>
<line class="st21" x1="306.4" y1="270.6" x2="144.4" y2="270.1"/>
<path class="st22" d="M215,265.8c-41.9,48.5-70.7,82-72.7,84.7c-0.2,0.3-1.4,1.8-1.9,1.6c-0.4-0.2-0.3-1.4,0-2.7v-80.2
	c0-1.9,1.5-3.4,3.2-3.4h69.6C213.8,265.8,214.4,265.8,215,265.8z"/>
</svg>
