<?xml version="1.0" encoding="utf-8"?>
<!-- Generator: Adobe Illustrator 21.0.2, SVG Export Plug-In . SVG Version: 6.00 Build 0)  -->
<svg version="1.1" id="Layer_1" xmlns="http://www.w3.org/2000/svg" xmlns:xlink="http://www.w3.org/1999/xlink" x="0px" y="0px"
	 viewBox="0 0 680 400" style="enable-background:new 0 0 680 400;" xml:space="preserve">
<style type="text/css">
	.st0{fill:url(#SVGID_1_);}
	.st1{fill:#EA7A42;}
	.st2{fill:#EFEFF9;}
	.st3{fill:#FFFFFF;}
	.st4{fill:#AEE0E8;}
	.st5{fill:#747678;}
	.st6{fill:#D85E21;}
	.st7{fill:#D8D6EC;}
	.st8{fill:#75969B;}
	.st9{fill:#F4783B;}
	.st10{fill:#EC148E;}
	.st11{fill:#FBC9C3;}
	.st12{fill:#C1172C;}
	.st13{fill:#666666;}
	.st14{fill:#FFDEC5;}
	.st15{fill:#FFFAC0;}
	.st16{fill:#B2D235;}
	.st17{fill:#0071B5;}
	.st18{fill:#F7941D;stroke:#F7941D;stroke-miterlimit:10;}
	.st19{fill:#FDE92B;}
	.st20{fill:#9E9C97;}
	.st21{fill:none;stroke:#000000;stroke-width:2;stroke-miterlimit:10;}
	.st22{opacity:0.2;fill:#FFFFFF;enable-background:new    ;}
</style>
<linearGradient id="SVGID_1_" gradientUnits="userSpaceOnUse" x1="-185.8" y1="400.65" x2="1447.2" y2="400.65" gradientTransform="matrix(1 0 0 1 0 -198)">
	<stop  offset="5.618000e-03" style="stop-color:#8AD0C3"/>
	<stop  offset="0.5" style="stop-color:#00B6A9"/>
	<stop  offset="1" style="stop-color:#00A185"/>
</linearGradient>
<rect x="-185.8" y="-0.1" class="st0" width="1633" height="405.5"/>
<path class="st1" d="M655.5,222.7c0,29.2-11.5,55.5-30.1,74.4c-5.6,5.7-11.8,10.7-18.5,14.9H504.6c-6.7-4.2-12.9-9.2-18.5-14.9
	c-9.5-9.7-17.2-21.4-22.4-34.4v-80.1c8.2-20.6,22.7-37.9,40.9-49.3H607C636.2,151.5,655.5,184.7,655.5,222.7z"/>
<path class="st1" d="M655.5,222.7H456.1c0-14.2,2.7-27.7,7.7-40.1c8.2-20.6,22.7-37.9,40.9-49.3c5.7-3.5,11.7-6.5,18-8.8
	c10.4-3.8,21.5-5.9,33.1-5.9c18.7,0,36.2,5.4,51.2,14.7C636.2,151.5,655.5,184.7,655.5,222.7z"/>
<path class="st1" d="M536.5,126.6v153c0,1.1-0.9,2-1.9,2h-61c-3.9-5.9-7.2-12.2-9.8-18.8c-5-12.3-7.7-25.9-7.7-40.1
	c0-14.2,2.7-27.7,7.7-40.1c8.2-20.6,22.7-37.9,40.9-49.3c5.7-3.5,11.7-6.5,18-8.8h11.9C535.7,124.5,536.5,125.4,536.5,126.6z"/>
<path class="st1" d="M655.5,222.7c0,29.2-11.5,55.5-30.1,74.4c-5.6,5.7-11.8,10.7-18.5,14.9c-15,9.4-32.5,14.7-51.2,14.7
	s-36.2-5.4-51.2-14.7c-6.7-4.2-12.9-9.2-18.5-14.9c-4.6-4.7-8.9-9.9-12.5-15.5c-3.9-5.9-7.2-12.2-9.8-18.8
	c-5-12.3-7.7-25.9-7.7-40.1L655.5,222.7L655.5,222.7z"/>
<g>
	<path class="st2" d="M627.8,273H483.6c-6.6,0-12-5.4-12-12v-79.2c0-6.6,5.4-12,12-12h144.1c6.6,0,12,5.4,12,12V261
		C639.8,267.6,634.3,273,627.8,273z"/>
</g>
<g>
	<rect x="480.6" y="178.8" class="st3" width="150.1" height="69.4"/>
	<path d="M621.8,187.8v51.4H489.6v-51.4h54.8h0.9h0.9L621.8,187.8 M636.5,169.8h-90.3c-0.3,0-0.6,0-0.9,0c-0.3,0-0.6,0-0.9,0h-69.6
		c-1.8,0-3.2,1.5-3.2,3.4v84l0,0h168.1v-84C639.8,171.3,638.3,169.8,636.5,169.8L636.5,169.8z"/>
</g>
<g>
	<rect x="529" y="174.9" class="st4" width="105.9" height="77.3"/>
</g>
<polygon class="st5" points="529,290.7 529,293.9 515.2,293.9 "/>
<g>
	<ellipse class="st3" cx="555.8" cy="266.3" rx="2.2" ry="2.3"/>
	<path class="st3" d="M555.8,264.4c0.9,0,1.7,0.8,1.7,1.8s-0.8,1.8-1.7,1.8s-1.7-0.8-1.7-1.8S554.8,264.4,555.8,264.4 M555.8,263.4
		c-1.5,0-2.7,1.3-2.7,2.8s1.2,2.8,2.7,2.8s2.7-1.3,2.7-2.8S557.2,263.4,555.8,263.4L555.8,263.4z"/>
</g>
<polygon class="st5" points="596.3,293.9 582.8,293.9 582.8,290.7 "/>
<path class="st6" d="M486.1,297.1c18,18.3,42.6,29.6,69.7,29.6s51.7-11.3,69.7-29.6H486.1z"/>
<g>
	<polygon class="st5" points="582.8,290.7 582.8,293.9 529,293.9 529,290.7 529,290.6 582.7,290.6 	"/>
</g>
<g>
	<rect x="514.2" y="293.9" class="st2" width="82" height="3.4"/>
</g>
<g>
	<polygon class="st2" points="582.7,290.8 529,290.8 531.5,275.8 531.7,275.5 532,273 532,272.7 579.3,272.7 579.5,273 579.8,275.5 
		580,275.8 	"/>
</g>
<rect x="476.6" y="175" class="st7" width="52.3" height="77.1"/>
<rect x="535.8" y="180" class="st8" width="28.9" height="24"/>
<rect x="570.3" y="180" class="st8" width="60.8" height="2.5"/>
<rect x="570.3" y="193.2" class="st8" width="60.8" height="2.5"/>
<rect x="570.3" y="188.7" class="st8" width="60.8" height="2.5"/>
<rect x="570.3" y="197.5" class="st8" width="60.8" height="2.5"/>
<rect x="570.3" y="201.4" class="st8" width="60.8" height="2.5"/>
<rect x="535.8" y="209.6" class="st8" width="95.4" height="5.1"/>
<g>
	<rect x="570.3" y="184.2" class="st8" width="60.8" height="2.5"/>
</g>
<rect x="535.8" y="218" class="st8" width="43" height="3.4"/>
<g>
	<rect x="569" y="244.8" class="st9" width="60.3" height="2.3"/>
</g>
<g>
	<rect x="569" y="230.4" class="st9" width="5.7" height="12.1"/>
</g>
<g>
	<rect x="607.3" y="224.2" class="st10" width="5.7" height="18.3"/>
</g>
<g>
	<rect x="615.5" y="224.2" class="st11" width="5.7" height="18.3"/>
</g>
<g>
	<rect x="623.7" y="231.1" class="st12" width="5.4" height="11.3"/>
	<path class="st13" d="M629,231.3v11.1h-5.2v-11.1H629 M629.2,231h-5.7v11.6h5.7V231L629.2,231z"/>
</g>
<g>
	<rect x="577.8" y="227.6" class="st14" width="5.7" height="14.9"/>
</g>
<g>
	<rect x="587.8" y="224.2" class="st15" width="5.7" height="18.3"/>
</g>
<g>
	<rect x="598.2" y="219.7" class="st16" width="5.7" height="22.8"/>
</g>
<g>
	<path class="st17" d="M550.3,244.6c-2.7,0-5.3-1.3-7-3.5c-1.3-1.7-2-3.8-2-6c0-5.2,4.1-9.5,9.1-9.5c2.9,0,5.7,1.5,7.4,4
		c1.1,1.6,1.7,3.5,1.7,5.5C559.3,240.3,555.3,244.6,550.3,244.6z"/>
	<path class="st13" d="M550.3,225.8c2.9,0,5.6,1.5,7.3,3.9c1.1,1.6,1.7,3.5,1.7,5.4c0,5.1-4,9.3-8.9,9.3c-2.7,0-5.2-1.2-6.9-3.4
		c-1.3-1.7-2-3.8-2-5.9C541.3,230,545.3,225.8,550.3,225.8 M550.3,225.5c-5.1,0-9.2,4.3-9.2,9.6c0,2.3,0.8,4.4,2.1,6.1
		c1.7,2.2,4.2,3.5,7.1,3.5c5.1,0,9.2-4.3,9.2-9.6c0-2.1-0.6-4-1.7-5.6C556.2,227.1,553.5,225.5,550.3,225.5L550.3,225.5z"/>
</g>
<path class="st18" d="M550.3,235.5v-10c-5.1,0-9.2,4.3-9.2,9.6c0,2.3,0.8,4.4,2.1,6.1c1.7,2.2,4.2,3.5,7.1,3.5"/>
<g>
	<path class="st19" d="M550.3,243.7c-2.1,0-4.2-0.9-5.7-2.4l12.9-10.3c0.6,1.2,1,2.6,1,4.1C558.5,239.9,554.8,243.7,550.3,243.7z"/>
	<path class="st19" d="M557.2,232.7c0.3,0.8,0.4,1.6,0.4,2.5c0,4.2-3.2,7.6-7.2,7.6c-1.5,0-2.9-0.5-4.1-1.4l5.4-4.3L557.2,232.7
		 M557.8,229.6l-7.5,6l-7.1,5.7c1.7,2.2,4.2,3.5,7.1,3.5c5.1,0,9.2-4.3,9.2-9.6C559.5,233,558.8,231.1,557.8,229.6L557.8,229.6z"/>
</g>
<polygon class="st20" points="580,275.8 531.5,275.8 531.7,275.5 532,273 579.5,273 579.8,275.5 "/>
<polygon class="st7" points="527,175 527,252.2 529,252.2 530,252.2 530,174.9 "/>
<path class="st8" d="M517,231.7h-27.2c-2.5,0-4.5-2-4.5-4.5l0,0c0-2.5,2-4.5,4.5-4.5H517c2.5,0,4.5,2,4.5,4.5l0,0
	C521.5,229.7,519.5,231.7,517,231.7z"/>
<path class="st8" d="M517,204.1h-27.2c-2.5,0-4.5-2-4.5-4.5l0,0c0-2.5,2-4.5,4.5-4.5H517c2.5,0,4.5,2,4.5,4.5l0,0
	C521.5,202,519.5,204.1,517,204.1z"/>
<path class="st8" d="M517,217.9h-27.2c-2.5,0-4.5-2-4.5-4.5l0,0c0-2.5,2-4.5,4.5-4.5H517c2.5,0,4.5,2,4.5,4.5l0,0
	C521.5,215.9,519.5,217.9,517,217.9z"/>
<line class="st21" x1="637.7" y1="174.6" x2="475.6" y2="174.1"/>
<path class="st22" d="M546.2,169.8c-41.9,48.5-70.7,82-72.7,84.7c-0.2,0.3-1.4,1.8-1.9,1.6c-0.4-0.2-0.3-1.4,0-2.7v-80.2
	c0-1.9,1.5-3.4,3.2-3.4h69.6C545,169.8,545.7,169.8,546.2,169.8z"/>
</svg>
