<?xml version="1.0" encoding="utf-8"?>
<!-- Generator: Adobe Illustrator 21.0.2, SVG Export Plug-In . SVG Version: 6.00 Build 0)  -->
<svg version="1.1" id="Layer_1" xmlns="http://www.w3.org/2000/svg" xmlns:xlink="http://www.w3.org/1999/xlink" x="0px" y="0px"
	 viewBox="0 0 450 450" style="enable-background:new 0 0 450 450;" xml:space="preserve">
<style type="text/css">
	.st0{fill:url(#SVGID_1_);}
	.st1{fill:#A9DCDB;}
	.st2{fill:#EFEFF9;}
	.st3{fill:#FFFFFF;}
	.st4{fill:#D8D6EC;}
	.st5{fill:#747678;}
	.st6{fill:#7FA2A8;}
	.st7{fill:#75969B;}
	.st8{fill:#F4783B;}
	.st9{fill:#EC148E;}
	.st10{fill:#FBC9C3;}
	.st11{fill:#C1172C;}
	.st12{fill:#666666;}
	.st13{fill:#FFDEC5;}
	.st14{fill:#FFFAC0;}
	.st15{fill:#B2D235;}
	.st16{fill:#0071B5;}
	.st17{fill:#F7941D;stroke:#F7941D;stroke-miterlimit:10;}
	.st18{fill:#FDE92B;}
	.st19{fill:#9E9C97;}
	.st20{fill:none;stroke:#000000;stroke-width:2;stroke-miterlimit:10;}
	.st21{opacity:0.2;fill:#FFFFFF;enable-background:new    ;}
</style>
<linearGradient id="SVGID_1_" gradientUnits="userSpaceOnUse" x1="-137.9" y1="74.89" x2="1134.1" y2="74.89" gradientTransform="matrix(1 0 0 -1 0 299.89)">
	<stop  offset="5.618000e-03" style="stop-color:#567182"/>
	<stop  offset="0.5" style="stop-color:#465C6A"/>
	<stop  offset="1" style="stop-color:#465C6A"/>
</linearGradient>
<rect x="-137.9" y="0" class="st0" width="1272" height="450"/>
<path class="st1" d="M323.6,270.2c0,29.2-11.5,55.5-30.1,74.4c-5.6,5.7-11.8,10.7-18.5,14.9H172.7c-6.7-4.2-12.9-9.2-18.5-14.9
	c-9.5-9.7-17.2-21.4-22.4-34.4v-80.1c8.2-20.6,22.7-37.9,40.9-49.3H275C304.2,198.9,323.6,232.2,323.6,270.2z"/>
<path class="st1" d="M124.2,270.2c0-14.2,2.7-27.7,7.7-40.1c8.2-20.6,22.7-37.9,40.9-49.3c5.7-3.5,11.7-6.5,18-8.8
	c10.4-3.8,21.5-5.9,33.1-5.9c18.7,0,36.2,5.4,51.2,14.7c29.1,18.2,48.6,51.4,48.6,89.3H124.2"/>
<path class="st1" d="M124.2,270.2c0-14.2,2.7-27.7,7.7-40.1c8.2-20.6,22.7-37.9,40.9-49.3c5.7-3.5,11.7-6.5,18-8.8h11.9
	c1.1,0,1.9,0.9,1.9,2v153c0,1.1-0.9,2-1.9,2h-61c-3.9-5.9-7.2-12.2-9.8-18.8C126.9,297.8,124.2,284.3,124.2,270.2"/>
<path class="st1" d="M124.2,270.2h199.5c0,29.2-11.5,55.5-30.1,74.4c-5.6,5.7-11.8,10.7-18.5,14.9c-15,9.4-32.5,14.7-51.2,14.7
	s-36.2-5.4-51.2-14.7c-6.7-4.2-12.9-9.2-18.5-14.9c-4.6-4.7-8.9-9.9-12.5-15.5c-3.9-5.9-7.2-12.2-9.8-18.8
	C126.9,297.8,124.2,284.3,124.2,270.2"/>
<g>
	<path class="st2" d="M295.8,320.5H151.7c-6.6,0-12-5.4-12-12v-79.2c0-6.6,5.4-12,12-12h144.1c6.6,0,12,5.4,12,12v79.2
		C307.8,315,302.4,320.5,295.8,320.5z"/>
</g>
<g>
	<rect x="148.7" y="226.2" class="st3" width="150.1" height="69.4"/>
	<path d="M289.8,235.2v51.4H157.7v-51.4h54.8h0.9h0.9L289.8,235.2 M304.6,217.2h-90.3c-0.3,0-0.6,0-0.9,0c-0.3,0-0.6,0-0.9,0h-69.6
		c-1.8,0-3.2,1.5-3.2,3.4v84l0,0h168.1v-84C307.8,218.7,306.4,217.2,304.6,217.2L304.6,217.2z"/>
</g>
<g>
	<rect x="197" y="222.3" class="st4" width="105.9" height="77.3"/>
</g>
<polygon class="st5" points="197,338.2 197,341.3 183.2,341.3 "/>
<g>
	<ellipse class="st3" cx="223.8" cy="313.8" rx="2.2" ry="2.3"/>
	<path class="st3" d="M223.8,311.8c0.9,0,1.7,0.8,1.7,1.8s-0.8,1.8-1.7,1.8s-1.7-0.8-1.7-1.8S222.8,311.8,223.8,311.8 M223.8,310.8
		c-1.5,0-2.7,1.3-2.7,2.8s1.2,2.8,2.7,2.8s2.7-1.3,2.7-2.8S225.3,310.8,223.8,310.8L223.8,310.8z"/>
</g>
<polygon class="st5" points="264.4,341.3 250.8,341.3 250.8,338.2 "/>
<path class="st6" d="M154.2,344.5c18,18.3,42.6,29.6,69.7,29.6s51.7-11.3,69.7-29.6H154.2z"/>
<g>
	<polygon class="st5" points="250.8,338.2 250.8,341.3 197,341.3 197,338.2 197.1,338 250.7,338 	"/>
</g>
<g>
	<rect x="182.3" y="341.3" class="st2" width="82" height="3.4"/>
</g>
<g>
	<polygon class="st2" points="250.7,338.2 197.1,338.2 199.6,323.2 199.7,323 200.1,320.5 200.1,320.2 247.4,320.2 247.5,320.5 
		247.9,323 248,323.2 	"/>
</g>
<rect x="144.7" y="222.4" class="st4" width="52.3" height="77.1"/>
<rect x="203.8" y="227.4" class="st7" width="28.9" height="24"/>
<rect x="238.4" y="227.4" class="st7" width="60.8" height="2.5"/>
<rect x="238.4" y="240.7" class="st7" width="60.8" height="2.5"/>
<rect x="238.4" y="236.2" class="st7" width="60.8" height="2.5"/>
<rect x="238.4" y="244.9" class="st7" width="60.8" height="2.5"/>
<rect x="238.4" y="248.8" class="st7" width="60.8" height="2.5"/>
<rect x="203.8" y="257" class="st7" width="95.4" height="5.1"/>
<g>
	<rect x="238.4" y="231.7" class="st7" width="60.8" height="2.5"/>
</g>
<rect x="203.8" y="265.5" class="st7" width="43" height="3.4"/>
<g>
	<rect x="237" y="292.2" class="st8" width="60.3" height="2.3"/>
</g>
<g>
	<rect x="237" y="277.8" class="st8" width="5.7" height="12.1"/>
</g>
<g>
	<rect x="275.4" y="271.7" class="st9" width="5.7" height="18.3"/>
</g>
<g>
	<rect x="283.5" y="271.7" class="st10" width="5.7" height="18.3"/>
</g>
<g>
	<rect x="291.7" y="278.5" class="st11" width="5.4" height="11.3"/>
	<path class="st12" d="M297,278.8v11.1h-5.2v-11.1H297 M297.3,278.5h-5.7V290h5.7V278.5L297.3,278.5z"/>
</g>
<g>
	<rect x="245.9" y="275" class="st13" width="5.7" height="14.9"/>
</g>
<g>
	<rect x="255.9" y="271.7" class="st14" width="5.7" height="18.3"/>
</g>
<g>
	<rect x="266.2" y="267.2" class="st15" width="5.7" height="22.8"/>
</g>
<g>
	<path class="st16" d="M218.4,292c-2.7,0-5.3-1.3-7-3.5c-1.3-1.7-2-3.8-2-6c0-5.2,4.1-9.5,9.1-9.5c2.9,0,5.7,1.5,7.4,4
		c1.1,1.6,1.7,3.5,1.7,5.5C227.4,287.8,223.4,292,218.4,292z"/>
	<path class="st12" d="M218.4,273.2c2.9,0,5.6,1.5,7.3,3.9c1.1,1.6,1.7,3.5,1.7,5.4c0,5.1-4,9.3-8.9,9.3c-2.7,0-5.2-1.2-6.9-3.4
		c-1.3-1.7-2-3.8-2-5.9C209.4,277.5,213.4,273.2,218.4,273.2 M218.4,273c-5.1,0-9.2,4.3-9.2,9.6c0,2.3,0.8,4.4,2.1,6.1
		c1.7,2.2,4.2,3.5,7.1,3.5c5.1,0,9.2-4.3,9.2-9.6c0-2.1-0.6-4-1.7-5.6C224.2,274.5,221.5,273,218.4,273L218.4,273z"/>
</g>
<path class="st17" d="M218.4,283v-10c-5.1,0-9.2,4.3-9.2,9.6c0,2.3,0.8,4.4,2.1,6.1c1.7,2.2,4.2,3.5,7.1,3.5"/>
<g>
	<path class="st18" d="M218.4,291.2c-2.1,0-4.2-0.9-5.7-2.4l12.9-10.3c0.6,1.2,1,2.6,1,4.1C226.6,287.3,222.9,291.2,218.4,291.2z"/>
	<path class="st18" d="M225.2,280.2c0.3,0.8,0.4,1.6,0.4,2.5c0,4.2-3.2,7.6-7.2,7.6c-1.5,0-2.9-0.5-4.1-1.4l5.4-4.3L225.2,280.2
		 M225.8,277l-7.5,6l-7.1,5.7c1.7,2.2,4.2,3.5,7.1,3.5c5.1,0,9.2-4.3,9.2-9.6C227.6,280.5,226.9,278.5,225.8,277L225.8,277z"/>
</g>
<polygon class="st19" points="248,323.2 199.6,323.2 199.7,323 200.1,320.5 247.5,320.5 247.9,323 "/>
<polygon class="st4" points="195.1,222.4 195.1,299.7 197,299.7 198,299.7 198,222.3 "/>
<path class="st7" d="M185.1,279.2h-27.2c-2.5,0-4.5-2-4.5-4.5l0,0c0-2.5,2-4.5,4.5-4.5h27.2c2.5,0,4.5,2,4.5,4.5l0,0
	C189.6,277.2,187.5,279.2,185.1,279.2z"/>
<path class="st7" d="M185.1,251.6h-27.2c-2.5,0-4.5-2-4.5-4.5l0,0c0-2.5,2-4.5,4.5-4.5h27.2c2.5,0,4.5,2,4.5,4.5l0,0
	C189.6,249.4,187.5,251.6,185.1,251.6z"/>
<path class="st7" d="M185.1,265.3h-27.2c-2.5,0-4.5-2-4.5-4.5l0,0c0-2.5,2-4.5,4.5-4.5h27.2c2.5,0,4.5,2,4.5,4.5l0,0
	C189.6,263.3,187.5,265.3,185.1,265.3z"/>
<line class="st20" x1="305.7" y1="222.1" x2="143.7" y2="221.6"/>
<path class="st21" d="M214.3,217.2c-41.9,48.5-70.7,82-72.7,84.7c-0.2,0.3-1.4,1.8-1.9,1.6c-0.4-0.2-0.3-1.4,0-2.7v-80.2
	c0-1.9,1.5-3.4,3.2-3.4h69.6C213.1,217.2,213.7,217.2,214.3,217.2z"/>
</svg>
