<?xml version="1.0" encoding="utf-8"?>
<!-- Generator: Adobe Illustrator 21.0.2, SVG Export Plug-In . SVG Version: 6.00 Build 0)  -->
<svg version="1.1" id="Layer_1" xmlns="http://www.w3.org/2000/svg" xmlns:xlink="http://www.w3.org/1999/xlink" x="0px" y="0px"
	 viewBox="0 0 1000 360" style="enable-background:new 0 0 1000 360;" xml:space="preserve">
<style type="text/css">
	.st0{fill:url(#SVGID_1_);}
	.st1{fill:#EA7A42;}
	.st2{fill:#EFEFF9;}
	.st3{fill:#FFFFFF;}
	.st4{fill:#AEE0E8;}
	.st5{fill:#747678;}
	.st6{fill:#D85E21;}
	.st7{fill:#D8D6EC;}
	.st8{fill:#75969B;}
	.st9{fill:#F4783B;}
	.st10{fill:#EC148E;}
	.st11{fill:#FBC9C3;}
	.st12{fill:#C1172C;}
	.st13{fill:#666666;}
	.st14{fill:#FFDEC5;}
	.st15{fill:#FFFAC0;}
	.st16{fill:#B2D235;}
	.st17{fill:#0071B5;}
	.st18{fill:#F7941D;stroke:#F7941D;stroke-miterlimit:10;}
	.st19{fill:#FDE92B;}
	.st20{fill:#9E9C97;}
	.st21{fill:none;stroke:#000000;stroke-width:2;stroke-miterlimit:10;}
	.st22{opacity:0.2;fill:#FFFFFF;enable-background:new    ;}
</style>
<linearGradient id="SVGID_1_" gradientUnits="userSpaceOnUse" x1="-151" y1="419.7" x2="2219" y2="419.7" gradientTransform="matrix(1 0 0 1 0 -238)">
	<stop  offset="5.618000e-03" style="stop-color:#8AD0C3"/>
	<stop  offset="0.5" style="stop-color:#00B6A9"/>
	<stop  offset="1" style="stop-color:#00A185"/>
</linearGradient>
<rect x="-151" y="1.2" class="st0" width="2370" height="361"/>
<path class="st1" d="M971,219.6c0,29.7-12.2,56.6-31.8,75.8c-5.9,5.8-12.5,10.9-19.6,15.2H811.3c-7.1-4.3-13.7-9.4-19.6-15.2
	c-10.1-9.9-18.2-21.8-23.7-35v-81.6c8.7-21,24-38.6,43.3-50.2h108.3C950.4,147.1,971,180.9,971,219.6z"/>
<path class="st1" d="M971,219.6H759.9c0-14.5,2.9-28.3,8.1-40.8c8.7-21,24-38.6,43.3-50.2c6-3.6,12.4-6.6,19.1-9
	c11-3.9,22.8-6,35.1-6c19.8,0,38.3,5.5,54.2,15C950.4,147.1,971,180.9,971,219.6z"/>
<path class="st1" d="M845,121.7v155.9c0,1.1-0.9,2.1-2.1,2.1h-64.5c-4.1-6-7.6-12.4-10.4-19.2c-5.2-12.6-8.1-26.4-8.1-40.8
	c0-14.5,2.9-28.3,8.1-40.8c8.7-21,24-38.6,43.3-50.2c6-3.6,12.4-6.6,19.1-9H843C844.1,119.6,845,120.5,845,121.7z"/>
<path class="st1" d="M971,219.6c0,29.7-12.2,56.6-31.8,75.8c-5.9,5.8-12.5,10.9-19.6,15.2c-15.8,9.5-34.4,15-54.2,15
	s-38.3-5.5-54.2-15c-7.1-4.3-13.7-9.4-19.6-15.2c-4.9-4.8-9.4-10.1-13.3-15.8c-4.1-6-7.6-12.4-10.4-19.2
	c-5.2-12.6-8.1-26.4-8.1-40.8L971,219.6L971,219.6z"/>
<g>
	<path class="st2" d="M942.3,270.9h-154c-6.6,0-12-5.4-12-12v-81.1c0-6.6,5.4-12,12-12h153.9c6.6,0,12,5.4,12,12v81.1
		C954.3,265.5,948.9,270.9,942.3,270.9z"/>
</g>
<g>
	<rect x="785.3" y="174.7" class="st3" width="159.9" height="71.1"/>
	<path d="M855.3,183.7L855.3,183.7h81v53.1h-142v-53.1h59.1l0,0h0.9L855.3,183.7 M950.8,165.7h-95.5c-0.3,0-0.6,0-0.9,0
		s-0.6,0-0.9,0h-73.6c-1.9,0-3.4,1.6-3.4,3.4v85.6l0,0h177.9v-85.6C954.3,167.3,952.7,165.7,950.8,165.7L950.8,165.7z"/>
</g>
<g>
	<rect x="837" y="170.9" class="st4" width="112.1" height="78.7"/>
</g>
<polygon class="st5" points="837,288.9 837,292.1 822.3,292.1 "/>
<g>
	<ellipse class="st3" cx="865.3" cy="264" rx="2.4" ry="2.4"/>
	<path class="st3" d="M865.3,262.1c1,0,1.9,0.8,1.9,1.9s-0.8,1.9-1.9,1.9c-1,0-1.9-0.8-1.9-1.9S864.3,262.1,865.3,262.1
		 M865.3,261.1c-1.6,0-2.9,1.3-2.9,2.9s1.3,2.9,2.9,2.9c1.6,0,2.9-1.3,2.9-2.9S866.9,261.1,865.3,261.1L865.3,261.1z"/>
</g>
<polygon class="st5" points="908.3,292.1 893.9,292.1 893.9,288.9 "/>
<path class="st6" d="M791.7,295.4c19,18.7,45.1,30.2,73.7,30.2s54.7-11.5,73.7-30.2H791.7z"/>
<g>
	<polygon class="st5" points="893.9,288.9 893.9,292.1 837,292.1 837,288.9 837.1,288.8 893.8,288.8 	"/>
</g>
<g>
	<rect x="821.4" y="292.1" class="st2" width="86.8" height="3.4"/>
</g>
<g>
	<polygon class="st2" points="893.8,289 837.1,289 839.7,273.7 839.8,273.4 840.2,270.9 840.3,270.6 890.3,270.6 890.4,270.9 
		890.8,273.4 890.9,273.7 	"/>
</g>
<rect x="781.6" y="171.1" class="st7" width="55.4" height="78.6"/>
<rect x="844.1" y="176.1" class="st8" width="30.6" height="24.4"/>
<rect x="880.7" y="176.1" class="st8" width="64.4" height="2.6"/>
<rect x="880.7" y="189.6" class="st8" width="64.4" height="2.6"/>
<rect x="880.7" y="185" class="st8" width="64.4" height="2.6"/>
<rect x="880.7" y="193.9" class="st8" width="64.4" height="2.6"/>
<rect x="880.7" y="197.9" class="st8" width="64.4" height="2.6"/>
<rect x="844.1" y="206.2" class="st8" width="101" height="5.2"/>
<g>
	<rect x="880.7" y="180.4" class="st8" width="64.4" height="2.6"/>
</g>
<rect x="844.1" y="214.9" class="st8" width="45.5" height="3.4"/>
<g>
	<rect x="879.3" y="242.2" class="st9" width="63.8" height="2.3"/>
</g>
<g>
	<rect x="879.3" y="227.5" class="st9" width="6" height="12.4"/>
</g>
<g>
	<rect x="919.9" y="221.2" class="st10" width="6" height="18.7"/>
</g>
<g>
	<rect x="928.5" y="221.2" class="st11" width="6" height="18.7"/>
</g>
<g>
	<rect x="937.2" y="228.2" class="st12" width="5.8" height="11.5"/>
	<path class="st13" d="M942.9,228.3v11.3h-5.5v-11.3H942.9 M943.1,228.1h-6v11.8h6V228.1L943.1,228.1z"/>
</g>
<g>
	<rect x="888.8" y="224.6" class="st14" width="6" height="15.2"/>
</g>
<g>
	<rect x="899.3" y="221.2" class="st15" width="6" height="18.7"/>
</g>
<g>
	<rect x="910.2" y="216.6" class="st16" width="6" height="23.3"/>
</g>
<g>
	<path class="st17" d="M859.6,241.9c-2.9,0-5.6-1.3-7.4-3.5c-1.4-1.7-2.2-3.9-2.2-6.1c0-5.3,4.3-9.6,9.6-9.6c3.1,0,6,1.5,7.8,4
		c1.2,1.6,1.8,3.6,1.8,5.6C869.2,237.6,864.9,241.9,859.6,241.9z"/>
	<path class="st13" d="M859.6,222.8c3.1,0,5.9,1.5,7.7,4c1.2,1.6,1.8,3.5,1.8,5.5c0,5.2-4.3,9.5-9.5,9.5c-2.9,0-5.5-1.3-7.3-3.5
		c-1.4-1.7-2.1-3.8-2.1-6C850.1,227,854.4,222.8,859.6,222.8 M859.6,222.5c-5.4,0-9.7,4.4-9.7,9.8c0,2.3,0.8,4.5,2.2,6.2
		c1.8,2.2,4.5,3.6,7.5,3.6c5.4,0,9.7-4.4,9.7-9.8c0-2.1-0.7-4.1-1.8-5.7C865.7,224.1,862.8,222.5,859.6,222.5L859.6,222.5z"/>
</g>
<path class="st18" d="M859.6,232.7v-10.2c-5.4,0-9.7,4.4-9.7,9.8c0,2.3,0.8,4.5,2.2,6.2c1.8,2.2,4.5,3.6,7.5,3.6"/>
<g>
	<path class="st19" d="M859.6,241c-2.3,0-4.4-0.9-6.1-2.5l13.7-10.5c0.7,1.3,1.1,2.7,1.1,4.2C868.3,237.1,864.4,241,859.6,241z"/>
	<path class="st19" d="M866.8,229.6c0.3,0.8,0.5,1.7,0.5,2.6c0,4.3-3.5,7.8-7.7,7.8c-1.6,0-3.2-0.5-4.5-1.4l5.7-4.4L866.8,229.6
		 M867.5,226.6l-7.9,6.1l-7.5,5.8c1.8,2.2,4.5,3.6,7.5,3.6c5.4,0,9.7-4.4,9.7-9.8C869.3,230.2,868.6,228.2,867.5,226.6L867.5,226.6z
		"/>
</g>
<polygon class="st20" points="890.9,273.7 839.7,273.7 839.8,273.4 840.2,270.9 890.4,270.9 890.8,273.4 "/>
<polygon class="st7" points="835,171 835,249.6 837,249.6 838,249.6 838,170.9 "/>
<path class="st8" d="M824.5,228.8h-29.1c-2.5,0-4.6-2.1-4.6-4.6l0,0c0-2.5,2.1-4.6,4.6-4.6h29.1c2.5,0,4.6,2.1,4.6,4.6l0,0
	C829.1,226.7,827,228.8,824.5,228.8z"/>
<path class="st8" d="M824.5,200.6h-29.1c-2.5,0-4.6-2.1-4.6-4.6l0,0c0-2.5,2.1-4.6,4.6-4.6h29.1c2.5,0,4.6,2.1,4.6,4.6l0,0
	C829.1,198.6,827,200.6,824.5,200.6z"/>
<path class="st8" d="M824.5,214.7h-29.1c-2.5,0-4.6-2.1-4.6-4.6l0,0c0-2.5,2.1-4.6,4.6-4.6h29.1c2.5,0,4.6,2.1,4.6,4.6l0,0
	C829.1,212.6,827,214.7,824.5,214.7z"/>
<line class="st21" x1="952" y1="170.6" x2="780.5" y2="170.1"/>
<path class="st22" d="M855.3,165.7c-44.3,49.4-74.8,83.5-77,86.3c-0.2,0.3-1.4,1.9-2,1.6c-0.4-0.2-0.3-1.4,0-2.7v-81.7
	c0-1.9,1.5-3.4,3.4-3.4h73.6C854,165.7,854.6,165.7,855.3,165.7z"/>
</svg>
