<?xml version="1.0" encoding="utf-8"?>
<!-- Generator: Adobe Illustrator 21.0.2, SVG Export Plug-In . SVG Version: 6.00 Build 0)  -->
<svg version="1.1" id="Layer_1" xmlns="http://www.w3.org/2000/svg" xmlns:xlink="http://www.w3.org/1999/xlink" x="0px" y="0px"
	 viewBox="0 0 4450 1308.4" style="enable-background:new 0 0 4450 1308.4;" xml:space="preserve">
<style type="text/css">
	.st0{fill:#A6D2E2;}
	.st1{display:none;}
	.st2{display:inline;enable-background:new    ;}
	.st3{fill:#494F5B;}
	.st4{display:inline;fill:none;stroke:#1E4A5E;stroke-miterlimit:10;}
	.st5{display:inline;}
	.st6{fill:#56310B;}
	.st7{fill:#DDD7BA;stroke:#DDD7BA;stroke-miterlimit:10;}
	.st8{fill:#F2F1E2;stroke:#F2F1E2;stroke-miterlimit:10;}
	.st9{fill:#DDD7BA;}
	.st10{fill:#F2F1E2;}
	.st11{fill:#3297B7;}
	.st12{fill:#757575;}
	.st13{fill:none;stroke:#3297B7;stroke-width:15;stroke-miterlimit:10;}
	.st14{fill:none;stroke:#757575;stroke-width:15;stroke-miterlimit:10;}
	.st15{fill:#A58960;}
	.st16{fill:#1A3380;}
	.st17{fill:#3366FF;}
	.st18{fill:#809FFF;}
	.st19{fill:#456614;}
	.st20{fill:#79B224;}
	.st21{fill:#A5F230;}
	.st22{fill:#662400;}
	.st23{fill:#B33E00;}
	.st24{fill:#F25500;}
</style>
<g id="background">
	<g id="XMLID_1_">
		<g>
			<rect x="0.5" class="st0" width="4450" height="1308.4"/>
		</g>
	</g>
</g>
<g id="text" class="st1">
	<g class="st2">
		<path class="st3" d="M246.9,241.2L212.6,92.9H231l16,75c4,18.5,7.6,37,10,51.3h0.4c2.2-14.7,6.4-32.3,11-51.5l18-74.8h18.2
			l16.4,75.2c3.8,17.6,7.4,35.2,9.4,50.8h0.4c2.8-16.3,6.6-32.8,10.8-51.3l17.8-74.8h17.8l-38.3,148.3h-18.2L304,164
			c-4.2-18.9-7-33.4-8.8-48.4h-0.4c-2.4,14.7-5.4,29.3-10.4,48.4l-19.2,77.2H246.9z"/>
		<path class="st3" d="M392.8,85h17.6v66.4h0.4c2.8-5.5,7.2-10.3,12.6-13.6c5.2-3.3,11.4-5.5,18-5.5c13,0,33.9,8.8,33.9,45.5v63.4
			h-17.6v-61.2c0-17.2-5.8-31.7-22.5-31.7c-11.4,0-20.5,8.8-23.7,19.4c-1,2.6-1.2,5.5-1.2,9.2v64.2h-17.6V85z"/>
		<path class="st3" d="M557.8,241.2l-1.4-13.4h-0.6c-5.4,8.4-15.8,15.8-29.7,15.8c-19.6,0-29.7-15.2-29.7-30.6
			c0-25.7,20.9-39.8,58.3-39.6v-2.2c0-8.8-2.2-24.6-22.1-24.6c-9,0-18.4,3.1-25.3,7.9l-4-12.8c8-5.7,19.6-9.5,31.9-9.5
			c29.7,0,36.9,22.2,36.9,43.6v39.8c0,9.2,0.4,18.3,1.6,25.5H557.8z M555.2,186.9c-19.2-0.4-41.1,3.3-41.1,24
			c0,12.5,7.6,18.5,16.6,18.5c12.6,0,20.7-8.8,23.5-17.8c0.6-2,1-4.2,1-6.2V186.9z"/>
		<path class="st3" d="M621.2,104.2v30.6h25.3v14.7h-25.3v57.4c0,13.2,3.4,20.7,13.2,20.7c4.6,0,8-0.7,10.2-1.3l0.8,14.5
			c-3.4,1.5-8.8,2.6-15.6,2.6c-8.2,0-14.8-2.9-19-8.1c-5-5.7-6.8-15.2-6.8-27.7v-58.1h-15v-14.7h15v-25.5L621.2,104.2z"/>
		<path class="st3" d="M762.5,241.2l-1.4-13.4h-0.6c-5.4,8.4-15.8,15.8-29.7,15.8c-19.6,0-29.7-15.2-29.7-30.6
			c0-25.7,20.9-39.8,58.3-39.6v-2.2c0-8.8-2.2-24.6-22.1-24.6c-9,0-18.4,3.1-25.3,7.9l-4-12.8c8-5.7,19.6-9.5,31.9-9.5
			c29.7,0,36.9,22.2,36.9,43.6v39.8c0,9.2,0.4,18.3,1.6,25.5H762.5z M759.9,186.9c-19.2-0.4-41.1,3.3-41.1,24
			c0,12.5,7.6,18.5,16.6,18.5c12.6,0,20.7-8.8,23.5-17.8c0.6-2,1-4.2,1-6.2V186.9z"/>
		<path class="st3" d="M805.4,168c0-12.5-0.2-23.3-0.8-33.2h15.4l0.6,20.9h0.8c4.4-14.3,15-23.3,26.9-23.3c2,0,3.4,0.2,5,0.7v18.3
			c-1.8-0.4-3.6-0.7-6-0.7c-12.4,0-21.3,10.3-23.7,24.9c-0.4,2.6-0.8,5.7-0.8,9v56.8h-17.4V168z"/>
		<path class="st3" d="M878.8,191.5c0.4,26.2,15.6,37,33.3,37c12.6,0,20.2-2.4,26.9-5.5l3,13.9c-6.2,3.1-16.8,6.6-32.3,6.6
			c-29.9,0-47.7-21.6-47.7-53.7c0-32.1,17.2-57.4,45.5-57.4c31.7,0,40.1,30.6,40.1,50.2c0,4-0.4,7-0.6,9H878.8z M930.5,177.6
			c0.2-12.3-4.6-31.5-24.5-31.5c-17.8,0-25.7,18-27.1,31.5H930.5z"/>
		<path class="st3" d="M1018.4,134.7l21.3,62.9c2.2,7,4.6,15.4,6.2,21.8h0.4c1.8-6.4,3.8-14.5,6.2-22.2l19.2-62.5h18.6l-26.5,75.9
			c-12.6,36.5-21.3,55.2-33.3,66.7c-8.6,8.4-17.2,11.7-21.7,12.5l-4.4-16.3c4.4-1.5,10.2-4.6,15.4-9.5c4.8-4.2,10.8-11.7,14.8-21.6
			c0.8-2,1.4-3.5,1.4-4.6c0-1.1-0.4-2.6-1.2-5.1l-35.9-98.1H1018.4z"/>
		<path class="st3" d="M1192.2,187.1c0,39.4-24.9,56.5-48.3,56.5c-26.3,0-46.5-21.1-46.5-54.8c0-35.6,21.3-56.5,48.1-56.5
			C1173.3,132.3,1192.2,154.5,1192.2,187.1z M1115.2,188.2c0,23.3,12.2,40.9,29.5,40.9c16.8,0,29.5-17.4,29.5-41.4
			c0-18-8.2-40.9-29.1-40.9S1115.2,168,1115.2,188.2z"/>
		<path class="st3" d="M1295.6,212.2c0,11,0.2,20.7,0.8,29h-15.6l-1-17.4h-0.4c-4.6,8.6-14.8,19.8-32.1,19.8
			c-15.2,0-33.5-9.2-33.5-46.6v-62.3h17.6v59c0,20.2,5.6,33.9,21.7,33.9c11.8,0,20.1-9,23.3-17.6c1-2.9,1.6-6.4,1.6-9.9v-65.3h17.6
			V212.2z"/>
	</g>
	<g class="st2">
		<path class="st3" d="M266.7,349h17.6v156.2h-17.6V349z"/>
		<path class="st3" d="M401.8,451.1c0,39.4-24.9,56.5-48.3,56.5c-26.3,0-46.5-21.1-46.5-54.8c0-35.6,21.3-56.5,48.1-56.5
			C383,396.3,401.8,418.6,401.8,451.1z M324.9,452.2c0,23.3,12.2,40.9,29.5,40.9c16.8,0,29.5-17.4,29.5-41.4
			c0-18-8.2-40.9-29.1-40.9C333.9,410.9,324.9,432,324.9,452.2z"/>
		<path class="st3" d="M511.9,451.1c0,39.4-24.9,56.5-48.3,56.5c-26.3,0-46.5-21.1-46.5-54.8c0-35.6,21.3-56.5,48.1-56.5
			C493.1,396.3,511.9,418.6,511.9,451.1z M434.9,452.2c0,23.3,12.2,40.9,29.5,40.9c16.8,0,29.5-17.4,29.5-41.4
			c0-18-8.2-40.9-29.1-40.9C443.9,410.9,434.9,432,434.9,452.2z"/>
		<path class="st3" d="M551.6,447.6h0.4c2.4-3.7,5.8-8.4,8.6-12.1l28.5-36.7h21.3l-37.5,43.8l42.7,62.7h-21.5l-33.5-51l-9,11v40
			h-17.4V349h17.4V447.6z"/>
		<path class="st3" d="M651.3,368.8c0.2,6.6-4.2,11.9-11.2,11.9c-6.2,0-10.6-5.3-10.6-11.9c0-6.8,4.6-12.1,11-12.1
			C647,356.7,651.3,362,651.3,368.8z M631.6,505.2V398.8h17.6v106.5H631.6z"/>
		<path class="st3" d="M678.5,427.6c0-11-0.2-20-0.8-28.8h15.6l1,17.6h0.4c4.8-10.1,16-20,32.1-20c13.4,0,34.3,8.8,34.3,45.3v63.6
			h-17.6v-61.4c0-17.2-5.8-31.5-22.5-31.5c-11.6,0-20.7,9-23.7,19.8c-0.8,2.4-1.2,5.7-1.2,9v64h-17.6V427.6z"/>
		<path class="st3" d="M873.4,398.8c-0.4,7.7-0.8,16.3-0.8,29.3v61.8c0,24.4-4.4,39.4-13.8,48.6c-9.4,9.7-23.1,12.8-35.3,12.8
			c-11.6,0-24.5-3.1-32.3-8.8l4.4-14.7c6.4,4.4,16.4,8.4,28.5,8.4c18,0,31.3-10.3,31.3-37.2V487H855c-5.4,9.9-15.8,17.8-30.9,17.8
			c-24.1,0-41.3-22.4-41.3-51.9c0-36.1,21.5-56.5,43.7-56.5c16.8,0,26.1,9.7,30.3,18.5h0.4l0.8-16.1H873.4z M855.2,440.8
			c0-3.3-0.2-6.2-1-8.8c-3.2-11.2-11.8-20.5-24.7-20.5c-16.8,0-28.9,15.6-28.9,40.3c0,20.9,9.6,38.3,28.7,38.3
			c10.8,0,20.7-7.5,24.5-19.8c1-3.3,1.4-7,1.4-10.3V440.8z"/>
		<path class="st3" d="M946.2,505.2v-91.7h-13.6v-14.7h13.6v-5.1c0-15,3-28.6,11.2-37.2c6.6-7,15.4-9.9,23.7-9.9
			c6.2,0,11.6,1.5,15,3.1l-2.4,15c-2.6-1.3-6.2-2.4-11.2-2.4c-15,0-18.8,14.5-18.8,30.8v5.7h23.5v14.7h-23.5v91.7H946.2z"/>
		<path class="st3" d="M1088.1,451.1c0,39.4-24.9,56.5-48.3,56.5c-26.3,0-46.5-21.1-46.5-54.8c0-35.6,21.3-56.5,48.1-56.5
			C1069.3,396.3,1088.1,418.6,1088.1,451.1z M1011.1,452.2c0,23.3,12.2,40.9,29.5,40.9c16.8,0,29.5-17.4,29.5-41.4
			c0-18-8.2-40.9-29.1-40.9S1011.1,432,1011.1,452.2z"/>
		<path class="st3" d="M1110.4,432c0-12.5-0.2-23.3-0.8-33.2h15.4l0.6,20.9h0.8c4.4-14.3,15-23.3,26.9-23.3c2,0,3.4,0.2,5,0.7v18.3
			c-1.8-0.4-3.6-0.7-6-0.7c-12.4,0-21.3,10.3-23.7,24.9c-0.4,2.6-0.8,5.7-0.8,9v56.8h-17.4V432z"/>
		<path class="st3" d="M1189.6,463.2l-0.4-5.7c-1.2-11.9,2.4-24.9,12.4-38.1c9-11.7,14-20.2,14-30.1c0-11.2-6.4-18.7-19-18.9
			c-7.2,0-15.2,2.6-20.2,6.8l-4.8-13.9c6.6-5.3,18-8.8,28.7-8.8c23.1,0,33.5,15.6,33.5,32.3c0,15-7.6,25.7-17.2,38.3
			c-8.8,11.4-12,21.1-11.4,32.3l0.2,5.7H1189.6z M1185.2,494c0-8.1,5-13.9,12-13.9c7,0,11.8,5.7,11.8,13.9c0,7.7-4.6,13.6-12,13.6
			C1190,507.7,1185.2,501.7,1185.2,494z"/>
	</g>
</g>
<g id="loupe" class="st1">
	<polyline class="st4" points="2225,879.5 2225.2,901.4 2225.5,945 2225.8,984.1 2226.1,1025.4 	"/>
	<g class="st5">
		<path class="st3" d="M1743,811.4L1743,811.4c-24.5,0-44.4-19.9-44.4-44.4V409.3h88.8v357.8C1787.4,791.5,1767.5,811.4,1743,811.4z
			"/>
		<path class="st3" d="M1743,53.4c-107.6,0-194.9,87.6-194.9,195.6c0,91.8,63,168.8,147.9,189.9c15,3.7,30.7,5.7,46.9,5.7
			s31.9-2,46.9-5.7c84.9-21.1,147.9-98.1,147.9-189.9C1937.9,141,1850.6,53.4,1743,53.4z M1743,399.9c-83,0-150.3-67.6-150.3-150.9
			S1660,98.1,1743,98.1s150.3,67.6,150.3,150.9S1826,399.9,1743,399.9z"/>
		<path class="st3" d="M1743,126.5v28c-46.4,0-85,33.7-92.7,78H1622c0.1-0.5,0.1-0.9,0.2-1.4c7.5-51.5,46.9-92.7,97.5-102.5
			C1727.2,127.2,1735,126.5,1743,126.5z"/>
		<path class="st3" d="M1622.2,231.2c-0.1,0.4-0.1,0.9-0.2,1.4h-1.1L1622.2,231.2z"/>
	</g>
</g>
<g id="book">
	<g>
		<path class="st6" d="M2864.8,381.3v588.6H1853.3V381.3h502.6c0.4,2.1,0.6,4.3,0.7,6.4h1.8l0.7,550.9c0,0.8,0,1.4,0,2.1
			c0.1-0.7,0.1-1.4,0.1-2.1l0.7-551.1h1.8c0.1-2,0.3-4.1,0.7-6.3L2864.8,381.3L2864.8,381.3z"/>
		<path class="st6" d="M2358.4,387.8l0.7,550.9c-0.3,1.8-0.5,3.6-0.5,5.4h-2c-1.1-29.5-30.4-53.2-66.7-53.6l0,0h-365.3V351.3h413.3
			c11.2,9.5,18.2,22.4,18.7,36.5L2358.4,387.8L2358.4,387.8z"/>
		<path class="st7" d="M2793.6,334.2v556.3h-365.3l0,0c-36.3,0.4-65.6,24.1-66.7,53.6h-2.6c-0.1-1.1,0-2.2,0-3.2v-0.1
			c0.1-0.7,0.1-1.4,0.1-2.1l0.7-551.1h1.8c0.1-2,0.3-4.1,0.7-6.3c1.4-7.2,4.7-15,9.5-21.2c11.8-15.4,32.6-25.6,56.4-25.8l0,0
			L2793.6,334.2L2793.6,334.2z"/>
		<path class="st8" d="M2359,944.1h-2.4c-1.1-29.5-30.4-53.2-66.7-53.6l0,0h-365.3V334.2h365.3l0,0c18.9,0.2,35.9,6.7,48,17.1
			c9.5,8.1,15.9,18.5,18,30c0.4,2.1,0.6,4.3,0.7,6.4h1.8l0.7,550.9c0,0.8,0,1.4,0,2.1v0.1C2359.1,942,2359.1,943,2359,944.1z"/>
		<polygon class="st6" points="2313.6,957.4 2406.4,957.4 2385.3,1002.5 2334.7,1002.5 		"/>
		<rect x="2359" y="388" class="st9" width="0.9" height="556.1"/>
		<rect x="2358.1" y="388" class="st10" width="0.9" height="556.1"/>
		<path class="st11" d="M2274.6,488.2h-275c-8.9,0-16.1-7.2-16.1-16.1v-68c0-8.9,7.2-16.1,16.1-16.1h275c8.9,0,16.1,7.2,16.1,16.1
			v68C2290.7,481,2283.5,488.2,2274.6,488.2z"/>
		<path class="st3" d="M2282.4,578.4h-290.8c-4.5,0-8.2-3.7-8.2-8.2v-4.4c0-4.5,3.7-8.2,8.2-8.2h290.8c4.5,0,8.2,3.7,8.2,8.2v4.4
			C2290.7,574.7,2287,578.4,2282.4,578.4z"/>
		<path class="st3" d="M2740.4,578.4h-290.8c-4.5,0-8.2-3.7-8.2-8.2v-4.4c0-4.5,3.7-8.2,8.2-8.2h290.8c4.5,0,8.2,3.7,8.2,8.2v4.4
			C2748.6,574.7,2745,578.4,2740.4,578.4z"/>
		<path class="st3" d="M2740.4,613.7h-290.8c-4.5,0-8.2-3.7-8.2-8.2v-4.4c0-4.5,3.7-8.2,8.2-8.2h290.8c4.5,0,8.2,3.7,8.2,8.2v4.4
			C2748.6,610.1,2745,613.7,2740.4,613.7z"/>
		<path class="st3" d="M2740.4,649.1h-290.8c-4.5,0-8.2-3.7-8.2-8.2v-4.4c0-4.5,3.7-8.2,8.2-8.2h290.8c4.5,0,8.2,3.7,8.2,8.2v4.4
			C2748.6,645.4,2745,649.1,2740.4,649.1z"/>
		<path class="st3" d="M2740.4,684.4h-290.8c-4.5,0-8.2-3.7-8.2-8.2v-4.4c0-4.5,3.7-8.2,8.2-8.2h290.8c4.5,0,8.2,3.7,8.2,8.2v4.4
			C2748.6,680.7,2745,684.4,2740.4,684.4z"/>
		<path class="st3" d="M2282.4,614.3h-290.8c-4.5,0-8.2-3.7-8.2-8.2v-4.4c0-4.5,3.7-8.2,8.2-8.2h290.8c4.5,0,8.2,3.7,8.2,8.2v4.4
			C2290.7,610.6,2287,614.3,2282.4,614.3z"/>
		<path class="st3" d="M2282.4,650.2h-290.8c-4.5,0-8.2-3.7-8.2-8.2v-4.4c0-4.5,3.7-8.2,8.2-8.2h290.8c4.5,0,8.2,3.7,8.2,8.2v4.4
			C2290.7,646.5,2287,650.2,2282.4,650.2z"/>
		<path class="st3" d="M2282.4,686.1h-290.8c-4.5,0-8.2-3.7-8.2-8.2v-4.4c0-4.5,3.7-8.2,8.2-8.2h290.8c4.5,0,8.2,3.7,8.2,8.2v4.4
			C2290.7,682.4,2287,686.1,2282.4,686.1z"/>
		<path class="st12" d="M2274.6,818h-104.5c-8.9,0-16.1-7.2-16.1-16.1v-78.8c0-8.9,7.2-16.1,16.1-16.1h104.5
			c8.9,0,16.1,7.2,16.1,16.1v78.8C2290.7,810.8,2283.5,818,2274.6,818z"/>
		<path class="st11" d="M2107.9,818h-108.3c-8.9,0-16.1-7.2-16.1-16.1v-78.8c0-8.9,7.2-16.1,16.1-16.1h108.3
			c8.9,0,16.1,7.2,16.1,16.1v78.8C2124,810.8,2116.8,818,2107.9,818z"/>
		<rect x="2474.3" y="405.6" class="st11" width="44" height="113.6"/>
		<rect x="2539.9" y="424.8" class="st3" width="44" height="94.4"/>
		<rect x="2605.6" y="471.5" class="st3" width="44" height="47.6"/>
		<rect x="2671.2" y="438.1" class="st3" width="44" height="81"/>
		<polyline class="st13" points="2441.4,811.3 2506.1,751.2 2576.3,800.5 2643.8,739.5 2697.2,762.9 2748.6,707 		"/>
		<polyline class="st14" points="2432.6,767.5 2496.3,805.1 2575.8,738.3 2642.3,779.2 2671.4,798.4 2748.2,771.7 		"/>
	</g>
</g>
<g id="Layer_1_1_">
	<rect x="2916.9" y="581.8" class="st7" width="1306.2" height="644.6"/>
	<rect x="2968.9" y="928.3" class="st6" width="253.8" height="253.8"/>
	<rect x="3286.2" y="928.3" class="st6" width="253.8" height="253.8"/>
	<rect x="3603.6" y="928.3" class="st6" width="253.8" height="253.8"/>
	<rect x="3920.5" y="928.3" class="st6" width="253.8" height="253.8"/>
	<rect x="2968.9" y="628.4" class="st15" width="253.8" height="253.8"/>
	<rect x="3286.2" y="628.4" class="st15" width="253.8" height="253.8"/>
	<rect x="3603.6" y="628.4" class="st15" width="253.8" height="253.8"/>
	<rect x="3920.5" y="628.4" class="st15" width="253.8" height="253.8"/>
	<g>
		<rect x="3996.6" y="669.1" class="st16" width="58.6" height="213.1"/>
		<rect x="4055.3" y="669.1" class="st17" width="58.6" height="213.1"/>
		<rect x="4113.9" y="669.1" class="st18" width="58.6" height="213.1"/>
	</g>
	<g>
		<rect x="3680.6" y="669.1" class="st19" width="58.6" height="213.1"/>
		<rect x="3739.2" y="669.1" class="st20" width="58.6" height="213.1"/>
		<rect x="3797.9" y="669.1" class="st21" width="58.6" height="213.1"/>
	</g>
	<g>
		
			<rect x="2944.3" y="742.8" transform="matrix(0.2499 -0.9683 0.9683 0.2499 1540.7511 3533.2041)" class="st22" width="213.1" height="58.6"/>
		<rect x="3105.8" y="669.1" class="st23" width="58.6" height="213.1"/>
		<rect x="3164.5" y="669.1" class="st24" width="58.6" height="213.1"/>
	</g>
	<rect x="3360.5" y="968.6" class="st15" width="105.2" height="44.3"/>
	<rect x="3686.4" y="968.6" class="st15" width="105.2" height="44.3"/>
	<rect x="4002.4" y="968.6" class="st15" width="105.2" height="44.3"/>
	<rect x="3043.2" y="968.6" class="st15" width="105.2" height="44.3"/>
</g>
<g>
	<path class="st3" d="M441.6,426.9l2.2,15l3.2-13.5l22.5-79.4h12.7l22,79.4l3.1,13.8l2.4-15.3l17.7-77.8h15.1l-27.6,113.8h-13.7
		l-23.4-82.9l-1.8-8.7l-1.8,8.7l-24.3,82.9h-13.7L408.6,349h15L441.6,426.9z"/>
	<path class="st3" d="M571.2,388.5c6.4-7.9,14.7-11.8,25-11.8c17.9,0,26.9,10.1,27,30.2v55.9h-14.5v-55.9
		c-0.1-6.1-1.4-10.6-4.2-13.5c-2.7-2.9-7-4.4-12.8-4.4c-4.7,0-8.8,1.2-12.3,3.8c-3.5,2.5-6.3,5.8-8.3,9.8v60.2h-14.5v-120h14.5
		V388.5z"/>
	<path class="st3" d="M644.9,355.8c0-2.3,0.7-4.3,2.1-5.9c1.4-1.6,3.6-2.4,6.4-2.4s4.9,0.8,6.4,2.4c1.5,1.6,2.2,3.6,2.2,5.9
		s-0.7,4.3-2.2,5.9c-1.5,1.6-3.6,2.3-6.4,2.3s-4.9-0.8-6.4-2.3C645.6,360.1,644.9,358.1,644.9,355.8z M660.5,462.7h-14.5v-84.5h14.5
		V462.7z"/>
	<path class="st3" d="M717.6,452.5c5.2,0,9.7-1.6,13.5-4.7c3.9-3.1,6-7,6.4-11.7h13.7c-0.3,4.8-1.9,9.5-5,13.8
		c-3.1,4.4-7.2,7.9-12.3,10.5c-5.1,2.6-10.6,3.9-16.3,3.9c-11.5,0-20.7-3.8-27.5-11.5c-6.8-7.7-10.2-18.2-10.2-31.5v-2.4
		c0-8.2,1.5-15.5,4.5-22c3-6.4,7.4-11.4,13-14.9c5.7-3.5,12.3-5.3,20-5.3c9.5,0,17.4,2.8,23.6,8.5c6.3,5.7,9.6,13,10,22.1h-13.7
		c-0.4-5.5-2.5-10-6.2-13.5c-3.7-3.5-8.3-5.3-13.8-5.3c-7.3,0-13,2.6-17.1,7.9c-4,5.3-6.1,12.9-6.1,22.9v2.7c0,9.7,2,17.2,6,22.5
		C704.4,449.9,710.1,452.5,717.6,452.5z"/>
	<path class="st3" d="M781.9,388.5c6.4-7.9,14.7-11.8,25-11.8c17.9,0,26.9,10.1,27,30.2v55.9h-14.5v-55.9
		c-0.1-6.1-1.4-10.6-4.2-13.5c-2.7-2.9-7-4.4-12.8-4.4c-4.7,0-8.8,1.2-12.3,3.8c-3.5,2.5-6.3,5.8-8.3,9.8v60.2h-14.5v-120h14.5
		V388.5z"/>
	<path class="st3" d="M966.6,421.4c0,12.9-2.9,23.2-8.8,31.1c-5.9,7.9-13.9,11.8-23.9,11.8c-10.3,0-18.3-3.3-24.2-9.8v40.7h-14.5
		v-117h13.2l0.7,9.4c5.9-7.3,14.1-10.9,24.5-10.9c10.2,0,18.2,3.8,24.1,11.5c5.9,7.7,8.9,18.3,8.9,32V421.4z M952.1,419.8
		c0-9.5-2-17.1-6.1-22.6c-4.1-5.5-9.6-8.3-16.7-8.3c-8.8,0-15.3,3.9-19.7,11.6V441c4.3,7.7,10.9,11.6,19.8,11.6
		c6.9,0,12.4-2.7,16.5-8.2C950.1,438.8,952.1,430.6,952.1,419.8z"/>
	<path class="st3" d="M981.1,419.7c0-8.3,1.6-15.7,4.9-22.3c3.3-6.6,7.8-11.7,13.6-15.3c5.8-3.6,12.4-5.4,19.9-5.4
		c11.5,0,20.8,4,27.9,12s10.7,18.6,10.7,31.8v1c0,8.2-1.6,15.6-4.7,22.1c-3.2,6.5-7.7,11.6-13.5,15.3c-5.9,3.6-12.6,5.5-20.2,5.5
		c-11.5,0-20.7-4-27.9-12s-10.7-18.5-10.7-31.6V419.7z M995.6,421.4c0,9.4,2.2,16.9,6.5,22.6c4.3,5.7,10.2,8.5,17.5,8.5
		c7.3,0,13.2-2.9,17.5-8.6c4.3-5.8,6.5-13.8,6.5-24.2c0-9.3-2.2-16.8-6.6-22.5c-4.4-5.8-10.2-8.6-17.5-8.6c-7.1,0-12.9,2.8-17.3,8.5
		C997.8,402.7,995.6,410.8,995.6,421.4z"/>
	<path class="st3" d="M1125.4,440.3c0-3.9-1.5-6.9-4.4-9.1c-2.9-2.2-8.1-4-15.4-5.6c-7.3-1.6-13.1-3.4-17.4-5.6s-7.5-4.8-9.5-7.8
		c-2.1-3-3.1-6.6-3.1-10.8c0-6.9,2.9-12.8,8.8-17.6c5.9-4.8,13.3-7.2,22.5-7.2c9.6,0,17.4,2.5,23.3,7.4c6,4.9,8.9,11.3,8.9,19h-14.5
		c0-4-1.7-7.4-5-10.2c-3.4-2.9-7.6-4.3-12.7-4.3c-5.3,0-9.4,1.1-12.3,3.4c-3,2.3-4.5,5.3-4.5,9c0,3.5,1.4,6.1,4.1,7.9
		c2.8,1.8,7.7,3.5,15,5.1c7.2,1.6,13.1,3.5,17.5,5.8c4.5,2.2,7.8,4.9,10,8.1c2.2,3.2,3.2,7,3.2,11.5c0,7.6-3,13.6-9.1,18.2
		c-6,4.6-13.9,6.8-23.5,6.8c-6.8,0-12.8-1.2-18-3.6c-5.2-2.4-9.3-5.7-12.2-10c-2.9-4.3-4.4-8.9-4.4-13.9h14.5
		c0.3,4.8,2.2,8.7,5.8,11.5c3.6,2.8,8.4,4.3,14.3,4.3c5.5,0,9.9-1.1,13.2-3.3C1123.7,447,1125.4,444,1125.4,440.3z"/>
	<path class="st3" d="M1178.3,357.7v20.5h15.8v11.2h-15.8v52.5c0,3.4,0.7,5.9,2.1,7.6s3.8,2.5,7.2,2.5c1.7,0,4-0.3,6.9-0.9v11.7
		c-3.8,1-7.5,1.6-11.1,1.6c-6.5,0-11.3-2-14.6-5.9s-4.9-9.5-4.9-16.6v-52.4h-15.4v-11.2h15.4v-20.5H1178.3z"/>
	<path class="st3" d="M1302.7,462.7c-0.8-1.7-1.5-4.6-2-8.9c-6.7,7-14.7,10.5-24.1,10.5c-8.3,0-15.2-2.4-20.5-7.1
		c-5.3-4.7-8-10.7-8-17.9c0-8.8,3.3-15.6,10-20.5c6.7-4.9,16.1-7.3,28.2-7.3h14.1v-6.6c0-5.1-1.5-9.1-4.5-12.1
		c-3-3-7.5-4.5-13.4-4.5c-5.2,0-9.5,1.3-13,3.9c-3.5,2.6-5.2,5.8-5.2,9.5h-14.5c0-4.2,1.5-8.3,4.5-12.2c3-3.9,7.1-7,12.2-9.3
		c5.1-2.3,10.8-3.4,16.9-3.4c9.7,0,17.4,2.4,22.9,7.3c5.5,4.9,8.4,11.6,8.6,20.1V443c0,7.8,1,13.9,3,18.5v1.2H1302.7z M1278.7,451.7
		c4.5,0,8.8-1.2,12.9-3.5s7-5.4,8.8-9.1v-17.3h-11.3c-17.7,0-26.6,5.2-26.6,15.5c0,4.5,1.5,8.1,4.5,10.6
		C1270.1,450.5,1274,451.7,1278.7,451.7z"/>
	<path class="st3" d="M1378.4,391.2c-2.2-0.4-4.6-0.5-7.1-0.5c-9.5,0-15.9,4-19.3,12.1v60h-14.5v-84.5h14.1l0.2,9.8
		c4.7-7.6,11.5-11.3,20.2-11.3c2.8,0,4.9,0.4,6.4,1.1V391.2z"/>
	<path class="st3" d="M1425.3,464.3c-11.5,0-20.8-3.8-28-11.3c-7.2-7.5-10.8-17.6-10.8-30.2v-2.7c0-8.4,1.6-15.9,4.8-22.5
		c3.2-6.6,7.7-11.7,13.4-15.5c5.8-3.7,12-5.6,18.7-5.6c11,0,19.5,3.6,25.6,10.9c6.1,7.2,9.1,17.6,9.1,31.1v6H1401
		c0.2,8.3,2.6,15.1,7.3,20.2c4.7,5.1,10.6,7.7,17.8,7.7c5.1,0,9.4-1,13-3.1c3.5-2.1,6.6-4.8,9.3-8.3l8.8,6.9
		C1450.1,458.9,1439.5,464.3,1425.3,464.3z M1423.5,388.5c-5.8,0-10.7,2.1-14.7,6.4c-4,4.2-6.4,10.2-7.3,17.9h42.3v-1.1
		c-0.4-7.3-2.4-13-5.9-17.1C1434.3,390.5,1429.6,388.5,1423.5,388.5z"/>
	<path class="st3" d="M1542.3,441.6l19.7-63.4h15.5l-34,97.6c-5.3,14.1-13.6,21.1-25.1,21.1l-2.7-0.2l-5.4-1v-11.7l3.9,0.3
		c4.9,0,8.7-1,11.4-3c2.7-2,5-5.6,6.8-10.9l3.2-8.6l-30.2-83.6h15.8L1542.3,441.6z"/>
	<path class="st3" d="M1585.3,419.7c0-8.3,1.6-15.7,4.9-22.3c3.3-6.6,7.8-11.7,13.6-15.3c5.8-3.6,12.4-5.4,19.9-5.4
		c11.5,0,20.8,4,27.9,12s10.7,18.6,10.7,31.8v1c0,8.2-1.6,15.6-4.7,22.1c-3.2,6.5-7.7,11.6-13.5,15.3c-5.9,3.6-12.6,5.5-20.2,5.5
		c-11.5,0-20.7-4-27.9-12s-10.7-18.5-10.7-31.6V419.7z M1599.8,421.4c0,9.4,2.2,16.9,6.5,22.6c4.3,5.7,10.2,8.5,17.5,8.5
		c7.3,0,13.2-2.9,17.5-8.6c4.3-5.8,6.5-13.8,6.5-24.2c0-9.3-2.2-16.8-6.6-22.5c-4.4-5.8-10.2-8.6-17.5-8.6c-7.1,0-12.9,2.8-17.3,8.5
		C1602,402.7,1599.8,410.8,1599.8,421.4z"/>
	<path class="st3" d="M1732.6,454.4c-5.6,6.6-13.9,9.9-24.8,9.9c-9,0-15.9-2.6-20.6-7.9c-4.7-5.2-7.1-13-7.1-23.2v-55h14.5v54.6
		c0,12.8,5.2,19.2,15.6,19.2c11,0,18.4-4.1,22-12.3v-61.5h14.5v84.5h-13.8L1732.6,454.4z"/>
	<path class="st3" d="M689.7,655.7h-14.5v-120h14.5V655.7z"/>
	<path class="st3" d="M709,612.7c0-8.3,1.6-15.7,4.9-22.3c3.3-6.6,7.8-11.7,13.6-15.3c5.8-3.6,12.4-5.4,19.9-5.4
		c11.5,0,20.8,4,27.9,12s10.7,18.6,10.7,31.8v1c0,8.2-1.6,15.6-4.7,22.1c-3.2,6.5-7.7,11.6-13.5,15.3c-5.9,3.6-12.6,5.5-20.2,5.5
		c-11.5,0-20.7-4-27.9-12S709,626.8,709,613.7V612.7z M723.5,614.4c0,9.4,2.2,16.9,6.5,22.6c4.3,5.7,10.2,8.5,17.5,8.5
		c7.3,0,13.2-2.9,17.5-8.6c4.3-5.8,6.5-13.8,6.5-24.2c0-9.3-2.2-16.8-6.6-22.5c-4.4-5.8-10.2-8.6-17.5-8.6c-7.1,0-12.9,2.8-17.3,8.5
		C725.7,595.7,723.5,603.8,723.5,614.4z"/>
	<path class="st3" d="M800.2,612.7c0-8.3,1.6-15.7,4.9-22.3c3.3-6.6,7.8-11.7,13.6-15.3c5.8-3.6,12.4-5.4,19.9-5.4
		c11.5,0,20.8,4,27.9,12s10.7,18.6,10.7,31.8v1c0,8.2-1.6,15.6-4.7,22.1c-3.2,6.5-7.7,11.6-13.5,15.3c-5.9,3.6-12.6,5.5-20.2,5.5
		c-11.5,0-20.7-4-27.9-12s-10.7-18.5-10.7-31.6V612.7z M814.8,614.4c0,9.4,2.2,16.9,6.5,22.6c4.3,5.7,10.2,8.5,17.5,8.5
		c7.3,0,13.2-2.9,17.5-8.6c4.3-5.8,6.5-13.8,6.5-24.2c0-9.3-2.2-16.8-6.6-22.5c-4.4-5.8-10.2-8.6-17.5-8.6c-7.1,0-12.9,2.8-17.3,8.5
		C817,595.7,814.8,603.8,814.8,614.4z"/>
	<path class="st3" d="M918.9,616.6l-9.1,9.5v29.7h-14.5v-120h14.5v72.6l7.7-9.3l26.3-27.8h17.6l-32.9,35.3l36.7,49.2h-17
		L918.9,616.6z"/>
	<path class="st3" d="M976.5,548.8c0-2.3,0.7-4.3,2.1-5.9c1.4-1.6,3.6-2.4,6.4-2.4s4.9,0.8,6.4,2.4c1.5,1.6,2.2,3.6,2.2,5.9
		s-0.7,4.3-2.2,5.9c-1.5,1.6-3.6,2.3-6.4,2.3s-4.9-0.8-6.4-2.3C977.2,553.1,976.5,551.1,976.5,548.8z M992.1,655.7h-14.5v-84.5h14.5
		V655.7z"/>
	<path class="st3" d="M1028.9,571.2l0.5,10.6c6.5-8.1,14.9-12.2,25.3-12.2c17.9,0,26.9,10.1,27,30.2v55.9h-14.5v-55.9
		c-0.1-6.1-1.4-10.6-4.2-13.5c-2.7-2.9-7-4.4-12.8-4.4c-4.7,0-8.8,1.2-12.3,3.8c-3.5,2.5-6.3,5.8-8.3,9.8v60.2h-14.5v-84.5H1028.9z"
		/>
	<path class="st3" d="M1100.1,612.8c0-13.2,3-23.7,9.1-31.4c6.1-7.8,14.2-11.7,24.2-11.7c10.3,0,18.4,3.6,24.1,10.9l0.7-9.4h13.2
		v82.5c0,10.9-3.2,19.6-9.7,25.9c-6.5,6.3-15.2,9.5-26.1,9.5c-6.1,0-12.1-1.3-17.9-3.9c-5.8-2.6-10.3-6.2-13.4-10.7l7.5-8.7
		c6.2,7.7,13.8,11.5,22.7,11.5c7,0,12.5-2,16.4-5.9c3.9-4,5.9-9.5,5.9-16.7v-7.3c-5.8,6.7-13.7,10-23.7,10c-9.9,0-17.9-4-24-12
		C1103.1,637.4,1100.1,626.5,1100.1,612.8z M1114.6,614.4c0,9.5,2,17,5.9,22.5c3.9,5.4,9.4,8.2,16.4,8.2c9.1,0,15.8-4.1,20.1-12.4
		V594c-4.4-8.1-11.1-12.1-19.9-12.1c-7,0-12.5,2.7-16.5,8.2C1116.6,595.6,1114.6,603.7,1114.6,614.4z"/>
	<path class="st3" d="M1240,655.7v-73.4h-13.4v-11.2h13.4v-8.7c0-9.1,2.4-16.1,7.3-21c4.8-4.9,11.7-7.4,20.5-7.4
		c3.3,0,6.6,0.4,9.9,1.3l-0.8,11.6c-2.4-0.5-5.1-0.7-7.8-0.7c-4.7,0-8.3,1.4-10.9,4.1c-2.6,2.7-3.8,6.7-3.8,11.8v8.9h18v11.2h-18
		v73.4H1240z"/>
	<path class="st3" d="M1284.6,612.7c0-8.3,1.6-15.7,4.9-22.3c3.3-6.6,7.8-11.7,13.6-15.3c5.8-3.6,12.4-5.4,19.9-5.4
		c11.5,0,20.8,4,27.9,12s10.7,18.6,10.7,31.8v1c0,8.2-1.6,15.6-4.7,22.1c-3.2,6.5-7.7,11.6-13.5,15.3c-5.9,3.6-12.6,5.5-20.2,5.5
		c-11.5,0-20.7-4-27.9-12s-10.7-18.5-10.7-31.6V612.7z M1299.1,614.4c0,9.4,2.2,16.9,6.5,22.6c4.3,5.7,10.2,8.5,17.5,8.5
		c7.3,0,13.2-2.9,17.5-8.6c4.3-5.8,6.5-13.8,6.5-24.2c0-9.3-2.2-16.8-6.6-22.5c-4.4-5.8-10.2-8.6-17.5-8.6c-7.1,0-12.9,2.8-17.3,8.5
		C1301.3,595.7,1299.1,603.8,1299.1,614.4z"/>
	<path class="st3" d="M1420.5,584.2c-2.2-0.4-4.6-0.5-7.1-0.5c-9.5,0-15.9,4-19.3,12.1v60h-14.5v-84.5h14.1l0.2,9.8
		c4.7-7.6,11.5-11.3,20.2-11.3c2.8,0,4.9,0.4,6.4,1.1V584.2z"/>
	<path class="st3" d="M1450.8,623.6c0.1-6.2,0.8-11.1,2.1-14.7c1.3-3.6,4-7.6,8-11.9l10.2-10.5c4.4-4.9,6.6-10.2,6.6-15.9
		c0-5.5-1.4-9.7-4.3-12.8c-2.9-3.1-7-4.6-12.5-4.6c-5.3,0-9.6,1.4-12.8,4.2c-3.2,2.8-4.8,6.6-4.8,11.3h-14.5
		c0.1-8.4,3.1-15.2,9-20.4c5.9-5.2,13.6-7.8,23.1-7.8c9.8,0,17.5,2.6,23,7.9c5.5,5.3,8.2,12.5,8.2,21.7c0,9.1-4.2,18.1-12.7,26.9
		l-8.5,8.4c-3.8,4.2-5.7,10.3-5.7,18.2H1450.8z M1450.2,648.4c0-2.4,0.7-4.4,2.1-6c1.4-1.6,3.6-2.4,6.4-2.4s4.9,0.8,6.4,2.4
		c1.5,1.6,2.2,3.6,2.2,6c0,2.4-0.7,4.3-2.2,5.9c-1.5,1.5-3.6,2.3-6.4,2.3s-4.9-0.8-6.4-2.3C1450.9,652.7,1450.2,650.8,1450.2,648.4z
		"/>
</g>
</svg>
