<?xml version="1.0" encoding="utf-8"?>
<!-- Generator: Adobe Illustrator 21.0.2, SVG Export Plug-In . SVG Version: 6.00 Build 0)  -->
<svg version="1.1" id="Layer_1" xmlns="http://www.w3.org/2000/svg" xmlns:xlink="http://www.w3.org/1999/xlink" x="0px" y="0px"
	 viewBox="0 0 4450 1669.3" style="enable-background:new 0 0 4450 1669.3;" xml:space="preserve">
<style type="text/css">
	.st0{fill:#88BBDC;}
	.st1{fill:#A6D2E2;}
	.st2{display:none;}
	.st3{display:inline;enable-background:new    ;}
	.st4{fill:#494F5B;}
	.st5{display:inline;fill:none;stroke:#1E4A5E;stroke-miterlimit:10;}
	.st6{display:inline;}
	.st7{fill:#56310B;}
	.st8{fill:#DDD7BA;stroke:#DDD7BA;stroke-miterlimit:10;}
	.st9{fill:#F2F1E2;stroke:#F2F1E2;stroke-miterlimit:10;}
	.st10{fill:#DDD7BA;}
	.st11{fill:#F2F1E2;}
	.st12{fill:#3297B7;}
	.st13{fill:#757575;}
	.st14{fill:none;stroke:#3297B7;stroke-width:15;stroke-miterlimit:10;}
	.st15{fill:none;stroke:#757575;stroke-width:15;stroke-miterlimit:10;}
	.st16{fill:#A58960;}
	.st17{fill:#1A3380;}
	.st18{fill:#3366FF;}
	.st19{fill:#809FFF;}
	.st20{fill:#456614;}
	.st21{fill:#79B224;}
	.st22{fill:#A5F230;}
	.st23{fill:#662400;}
	.st24{fill:#B33E00;}
	.st25{fill:#F25500;}
</style>
<g id="vackground">
	<rect x="0.5" y="0" class="st0" width="4450" height="1684.3"/>
</g>
<g id="background">
	<g id="XMLID_1_">
		<g>
			<rect x="0.5" y="0" class="st1" width="4450" height="1669.3"/>
		</g>
	</g>
</g>
<g id="text" class="st2">
	<g class="st3">
		<path class="st4" d="M246.9,421.7l-34.3-148.3H231l16,75c4,18.5,7.6,37,10,51.3h0.4c2.2-14.7,6.4-32.3,11-51.5l18-74.8h18.2
			l16.4,75.2c3.8,17.6,7.4,35.2,9.4,50.8h0.4c2.8-16.3,6.6-32.8,10.8-51.3l17.8-74.8h17.8l-38.3,148.3h-18.2l-17-77.2
			c-4.2-18.9-7-33.4-8.8-48.4h-0.4c-2.4,14.7-5.4,29.3-10.4,48.4l-19.2,77.2L246.9,421.7L246.9,421.7z"/>
		<path class="st4" d="M392.8,265.5h17.6v66.4h0.4c2.8-5.5,7.2-10.3,12.6-13.6c5.2-3.3,11.4-5.5,18-5.5c13,0,33.9,8.8,33.9,45.5
			v63.4h-17.6v-61.2c0-17.2-5.8-31.7-22.5-31.7c-11.4,0-20.5,8.8-23.7,19.4c-1,2.6-1.2,5.5-1.2,9.2v64.2h-17.6V265.5H392.8z"/>
		<path class="st4" d="M557.8,421.7l-1.4-13.4h-0.6c-5.4,8.4-15.8,15.8-29.7,15.8c-19.6,0-29.7-15.2-29.7-30.6
			c0-25.7,20.9-39.8,58.3-39.6v-2.2c0-8.8-2.2-24.6-22.1-24.6c-9,0-18.4,3.1-25.3,7.9l-4-12.8c8-5.7,19.6-9.5,31.9-9.5
			c29.7,0,36.9,22.2,36.9,43.6v39.8c0,9.2,0.4,18.3,1.6,25.5h-15.9V421.7z M555.2,367.4c-19.2-0.4-41.1,3.3-41.1,24
			c0,12.5,7.6,18.5,16.6,18.5c12.6,0,20.7-8.8,23.5-17.8c0.6-2,1-4.2,1-6.2V367.4z"/>
		<path class="st4" d="M621.2,284.6v30.6h25.3V330h-25.3v57.4c0,13.2,3.4,20.7,13.2,20.7c4.6,0,8-0.7,10.2-1.3l0.8,14.5
			c-3.4,1.5-8.8,2.6-15.6,2.6c-8.2,0-14.8-2.9-19-8.1c-5-5.7-6.8-15.2-6.8-27.7V330h-15v-14.7h15v-25.5L621.2,284.6z"/>
		<path class="st4" d="M762.5,421.7l-1.4-13.4h-0.6c-5.4,8.4-15.8,15.8-29.7,15.8c-19.6,0-29.7-15.2-29.7-30.6
			c0-25.7,20.9-39.8,58.3-39.6v-2.2c0-8.8-2.2-24.6-22.1-24.6c-9,0-18.4,3.1-25.3,7.9l-4-12.8c8-5.7,19.6-9.5,31.9-9.5
			c29.7,0,36.9,22.2,36.9,43.6v39.8c0,9.2,0.4,18.3,1.6,25.5h-15.9V421.7z M759.9,367.4c-19.2-0.4-41.1,3.3-41.1,24
			c0,12.5,7.6,18.5,16.6,18.5c12.6,0,20.7-8.8,23.5-17.8c0.6-2,1-4.2,1-6.2V367.4z"/>
		<path class="st4" d="M805.4,348.4c0-12.5-0.2-23.3-0.8-33.2H820l0.6,20.9h0.8c4.4-14.3,15-23.3,26.9-23.3c2,0,3.4,0.2,5,0.7v18.3
			c-1.8-0.4-3.6-0.7-6-0.7c-12.4,0-21.3,10.3-23.7,24.9c-0.4,2.6-0.8,5.7-0.8,9v56.8h-17.4V348.4z"/>
		<path class="st4" d="M878.8,372c0.4,26.2,15.6,37,33.3,37c12.6,0,20.2-2.4,26.9-5.5l3,13.9c-6.2,3.1-16.8,6.6-32.3,6.6
			c-29.9,0-47.7-21.6-47.7-53.7s17.2-57.4,45.5-57.4c31.7,0,40.1,30.6,40.1,50.2c0,4-0.4,7-0.6,9h-68.2V372z M930.5,358.1
			c0.2-12.3-4.6-31.5-24.5-31.5c-17.8,0-25.7,18-27.1,31.5H930.5z"/>
		<path class="st4" d="M1018.4,315.2l21.3,62.9c2.2,7,4.6,15.4,6.2,21.8h0.4c1.8-6.4,3.8-14.5,6.2-22.2l19.2-62.5h18.6l-26.5,75.9
			c-12.6,36.5-21.3,55.2-33.3,66.7c-8.6,8.4-17.2,11.7-21.7,12.5l-4.4-16.3c4.4-1.5,10.2-4.6,15.4-9.5c4.8-4.2,10.8-11.7,14.8-21.6
			c0.8-2,1.4-3.5,1.4-4.6s-0.4-2.6-1.2-5.1l-35.9-98.1h19.5V315.2z"/>
		<path class="st4" d="M1192.2,367.6c0,39.4-24.9,56.5-48.3,56.5c-26.3,0-46.5-21.1-46.5-54.8c0-35.6,21.3-56.5,48.1-56.5
			C1173.3,312.8,1192.2,335,1192.2,367.6z M1115.2,368.7c0,23.3,12.2,40.9,29.5,40.9c16.8,0,29.5-17.4,29.5-41.4
			c0-18-8.2-40.9-29.1-40.9S1115.2,348.4,1115.2,368.7z"/>
		<path class="st4" d="M1295.6,392.7c0,11,0.2,20.7,0.8,29h-15.6l-1-17.4h-0.4c-4.6,8.6-14.8,19.8-32.1,19.8
			c-15.2,0-33.5-9.2-33.5-46.6v-62.3h17.6v59c0,20.2,5.6,33.9,21.7,33.9c11.8,0,20.1-9,23.3-17.6c1-2.9,1.6-6.4,1.6-9.9v-65.3h17.6
			V392.7z"/>
	</g>
	<g class="st3">
		<path class="st4" d="M266.7,529.5h17.6v156.2h-17.6V529.5z"/>
		<path class="st4" d="M401.8,631.6c0,39.4-24.9,56.5-48.3,56.5c-26.3,0-46.5-21.1-46.5-54.8c0-35.6,21.3-56.5,48.1-56.5
			C383,576.8,401.8,599,401.8,631.6z M324.9,632.7c0,23.3,12.2,40.9,29.5,40.9c16.8,0,29.5-17.4,29.5-41.4c0-18-8.2-40.9-29.1-40.9
			S324.9,612.5,324.9,632.7z"/>
		<path class="st4" d="M511.9,631.6c0,39.4-24.9,56.5-48.3,56.5c-26.3,0-46.5-21.1-46.5-54.8c0-35.6,21.3-56.5,48.1-56.5
			C493.1,576.8,511.9,599,511.9,631.6z M434.9,632.7c0,23.3,12.2,40.9,29.5,40.9c16.8,0,29.5-17.4,29.5-41.4
			c0-18-8.2-40.9-29.1-40.9S434.9,612.5,434.9,632.7z"/>
		<path class="st4" d="M551.6,628.1h0.4c2.4-3.7,5.8-8.4,8.6-12.1l28.5-36.7h21.3L572.9,623l42.7,62.7h-21.5l-33.5-51l-9,11v40
			h-17.4V529.5h17.4L551.6,628.1L551.6,628.1z"/>
		<path class="st4" d="M651.3,549.3c0.2,6.6-4.2,11.9-11.2,11.9c-6.2,0-10.6-5.3-10.6-11.9c0-6.8,4.6-12.1,11-12.1
			C647,537.2,651.3,542.5,651.3,549.3z M631.6,685.7V579.2h17.6v106.5H631.6z"/>
		<path class="st4" d="M678.5,608.1c0-11-0.2-20-0.8-28.8h15.6l1,17.6h0.4c4.8-10.1,16-20,32.1-20c13.4,0,34.3,8.8,34.3,45.3v63.6
			h-17.6v-61.4c0-17.2-5.8-31.5-22.5-31.5c-11.6,0-20.7,9-23.7,19.8c-0.8,2.4-1.2,5.7-1.2,9v64h-17.6V608.1z"/>
		<path class="st4" d="M873.4,579.2c-0.4,7.7-0.8,16.3-0.8,29.3v61.8c0,24.4-4.4,39.4-13.8,48.6c-9.4,9.7-23.1,12.8-35.3,12.8
			c-11.6,0-24.5-3.1-32.3-8.8l4.4-14.7c6.4,4.4,16.4,8.4,28.5,8.4c18,0,31.3-10.3,31.3-37.2v-11.9H855c-5.4,9.9-15.8,17.8-30.9,17.8
			c-24.1,0-41.3-22.4-41.3-51.9c0-36.1,21.5-56.5,43.7-56.5c16.8,0,26.1,9.7,30.3,18.5h0.4l0.8-16.1L873.4,579.2L873.4,579.2z
			 M855.2,621.3c0-3.3-0.2-6.2-1-8.8c-3.2-11.2-11.8-20.5-24.7-20.5c-16.8,0-28.9,15.6-28.9,40.3c0,20.9,9.6,38.3,28.7,38.3
			c10.8,0,20.7-7.5,24.5-19.8c1-3.3,1.4-7,1.4-10.3V621.3z"/>
		<path class="st4" d="M946.2,685.7V594h-13.6v-14.7h13.6v-5.1c0-15,3-28.6,11.2-37.2c6.6-7,15.4-9.9,23.7-9.9
			c6.2,0,11.6,1.5,15,3.1l-2.4,15c-2.6-1.3-6.2-2.4-11.2-2.4c-15,0-18.8,14.5-18.8,30.8v5.7h23.5V594h-23.5v91.7H946.2z"/>
		<path class="st4" d="M1088.1,631.6c0,39.4-24.9,56.5-48.3,56.5c-26.3,0-46.5-21.1-46.5-54.8c0-35.6,21.3-56.5,48.1-56.5
			C1069.3,576.8,1088.1,599,1088.1,631.6z M1011.1,632.7c0,23.3,12.2,40.9,29.5,40.9c16.8,0,29.5-17.4,29.5-41.4
			c0-18-8.2-40.9-29.1-40.9S1011.1,612.5,1011.1,632.7z"/>
		<path class="st4" d="M1110.4,612.5c0-12.5-0.2-23.3-0.8-33.2h15.4l0.6,20.9h0.8c4.4-14.3,15-23.3,26.9-23.3c2,0,3.4,0.2,5,0.7
			v18.3c-1.8-0.4-3.6-0.7-6-0.7c-12.4,0-21.3,10.3-23.7,24.9c-0.4,2.6-0.8,5.7-0.8,9v56.8h-17.4V612.5z"/>
		<path class="st4" d="M1189.6,643.7l-0.4-5.7c-1.2-11.9,2.4-24.9,12.4-38.1c9-11.7,14-20.2,14-30.1c0-11.2-6.4-18.7-19-18.9
			c-7.2,0-15.2,2.6-20.2,6.8l-4.8-13.9c6.6-5.3,18-8.8,28.7-8.8c23.1,0,33.5,15.6,33.5,32.3c0,15-7.6,25.7-17.2,38.3
			c-8.8,11.4-12,21.1-11.4,32.3l0.2,5.7h-15.8V643.7z M1185.2,674.5c0-8.1,5-13.9,12-13.9s11.8,5.7,11.8,13.9
			c0,7.7-4.6,13.6-12,13.6C1190,688.1,1185.2,682.2,1185.2,674.5z"/>
	</g>
</g>
<g id="loupe" class="st2">
	<polyline class="st5" points="2225,1060 2225.2,1081.9 2225.5,1125.5 2225.8,1164.6 2226.1,1205.9 	"/>
	<g class="st6">
		<path class="st4" d="M1743,991.9L1743,991.9c-24.5,0-44.4-19.9-44.4-44.4V589.8h88.8v357.8C1787.4,972,1767.5,991.9,1743,991.9z"
			/>
		<path class="st4" d="M1743,233.9c-107.6,0-194.9,87.6-194.9,195.6c0,91.8,63,168.8,147.9,189.9c15,3.7,30.7,5.7,46.9,5.7
			s31.9-2,46.9-5.7c84.9-21.1,147.9-98.1,147.9-189.9C1937.9,321.5,1850.6,233.9,1743,233.9z M1743,580.4
			c-83,0-150.3-67.6-150.3-150.9S1660,278.6,1743,278.6s150.3,67.6,150.3,150.9S1826,580.4,1743,580.4z"/>
		<path class="st4" d="M1743,307v28c-46.4,0-85,33.7-92.7,78H1622c0.1-0.5,0.1-0.9,0.2-1.4c7.5-51.5,46.9-92.7,97.5-102.5
			C1727.2,307.7,1735,307,1743,307z"/>
		<path class="st4" d="M1622.2,411.7c-0.1,0.4-0.1,0.9-0.2,1.4h-1.1L1622.2,411.7z"/>
	</g>
</g>
<g id="book">
	<g>
		<path class="st7" d="M1842.5,873.5V1462H831V873.5h502.6c0.4,2.1,0.6,4.3,0.7,6.4h1.8l0.7,550.9c0,0.8,0,1.4,0,2.1
			c0.1-0.7,0.1-1.4,0.1-2.1l0.7-551.1h1.8c0.1-2,0.3-4.1,0.7-6.3L1842.5,873.5L1842.5,873.5z"/>
		<path class="st7" d="M1336.1,880l0.7,550.9c-0.3,1.8-0.5,3.6-0.5,5.4h-2c-1.1-29.5-30.4-53.2-66.7-53.6l0,0H902.3V843.4h413.3
			c11.2,9.5,18.2,22.4,18.7,36.5L1336.1,880L1336.1,880z"/>
		<path class="st8" d="M1771.3,826.2v556.4H1406l0,0c-36.3,0.4-65.6,24.1-66.7,53.6h-2.6c-0.1-1.1,0-2.2,0-3.2v-0.1
			c0.1-0.7,0.1-1.4,0.1-2.1l0.7-551.1h1.8c0.1-2,0.3-4.1,0.7-6.3c1.4-7.2,4.7-15,9.5-21.2c11.8-15.4,32.6-25.6,56.4-25.8l0,0
			L1771.3,826.2L1771.3,826.2z"/>
		<path class="st9" d="M1336.7,1436.2h-2.4c-1.1-29.5-30.4-53.2-66.7-53.6l0,0H902.3V826.4h365.3l0,0c18.9,0.2,35.9,6.7,48,17.1
			c9.5,8.1,15.9,18.5,18,30c0.4,2.1,0.6,4.3,0.7,6.4h1.8l0.7,550.9c0,0.8,0,1.4,0,2.1v0.1
			C1336.8,1434.2,1336.8,1435.2,1336.7,1436.2z"/>
		<polygon class="st7" points="1291.3,1449.6 1384.1,1449.6 1363,1494.7 1312.4,1494.7 		"/>
		<rect x="1336.7" y="880.2" class="st10" width="0.9" height="556.1"/>
		<rect x="1335.8" y="880.2" class="st11" width="0.9" height="556.1"/>
		<path class="st12" d="M1252.3,980.4h-275c-8.9,0-16.1-7.2-16.1-16.1v-68c0-8.9,7.2-16.1,16.1-16.1h275c8.9,0,16.1,7.2,16.1,16.1
			v68C1268.4,973.2,1261.2,980.4,1252.3,980.4z"/>
		<path class="st4" d="M1260.1,1070.4H969.3c-4.5,0-8.2-3.7-8.2-8.2v-4.4c0-4.5,3.7-8.2,8.2-8.2h290.8c4.5,0,8.2,3.7,8.2,8.2v4.4
			C1268.4,1066.8,1264.7,1070.4,1260.1,1070.4z"/>
		<path class="st4" d="M1718.1,1070.4h-290.8c-4.5,0-8.2-3.7-8.2-8.2v-4.4c0-4.5,3.7-8.2,8.2-8.2h290.8c4.5,0,8.2,3.7,8.2,8.2v4.4
			C1726.3,1066.8,1722.7,1070.4,1718.1,1070.4z"/>
		<path class="st4" d="M1718.1,1105.8h-290.8c-4.5,0-8.2-3.7-8.2-8.2v-4.4c0-4.5,3.7-8.2,8.2-8.2h290.8c4.5,0,8.2,3.7,8.2,8.2v4.4
			C1726.3,1102.2,1722.7,1105.8,1718.1,1105.8z"/>
		<path class="st4" d="M1718.1,1141.2h-290.8c-4.5,0-8.2-3.7-8.2-8.2v-4.4c0-4.5,3.7-8.2,8.2-8.2h290.8c4.5,0,8.2,3.7,8.2,8.2v4.4
			C1726.3,1137.6,1722.7,1141.2,1718.1,1141.2z"/>
		<path class="st4" d="M1718.1,1176.6h-290.8c-4.5,0-8.2-3.7-8.2-8.2v-4.4c0-4.5,3.7-8.2,8.2-8.2h290.8c4.5,0,8.2,3.7,8.2,8.2v4.4
			C1726.3,1172.8,1722.7,1176.6,1718.1,1176.6z"/>
		<path class="st4" d="M1260.1,1106.4H969.3c-4.5,0-8.2-3.7-8.2-8.2v-4.4c0-4.5,3.7-8.2,8.2-8.2h290.8c4.5,0,8.2,3.7,8.2,8.2v4.4
			C1268.4,1102.8,1264.7,1106.4,1260.1,1106.4z"/>
		<path class="st4" d="M1260.1,1142.3H969.3c-4.5,0-8.2-3.7-8.2-8.2v-4.5c0-4.5,3.7-8.2,8.2-8.2h290.8c4.5,0,8.2,3.7,8.2,8.2v4.4
			C1268.4,1138.7,1264.7,1142.3,1260.1,1142.3z"/>
		<path class="st4" d="M1260.1,1178.2H969.3c-4.5,0-8.2-3.7-8.2-8.2v-4.4c0-4.5,3.7-8.2,8.2-8.2h290.8c4.5,0,8.2,3.7,8.2,8.2v4.4
			C1268.4,1174.6,1264.7,1178.2,1260.1,1178.2z"/>
		<path class="st13" d="M1252.3,1310.2h-104.5c-8.9,0-16.1-7.2-16.1-16.1v-78.8c0-8.9,7.2-16.1,16.1-16.1h104.5
			c8.9,0,16.1,7.2,16.1,16.1v78.8C1268.4,1302.9,1261.2,1310.2,1252.3,1310.2z"/>
		<path class="st12" d="M1085.6,1310.2H977.3c-8.9,0-16.1-7.2-16.1-16.1v-78.8c0-8.9,7.2-16.1,16.1-16.1h108.3
			c8.9,0,16.1,7.2,16.1,16.1v78.8C1101.7,1302.9,1094.5,1310.2,1085.6,1310.2z"/>
		<rect x="1452" y="897.7" class="st12" width="44" height="113.6"/>
		<rect x="1517.6" y="916.9" class="st4" width="44" height="94.4"/>
		<rect x="1583.3" y="963.7" class="st4" width="44" height="47.6"/>
		<rect x="1648.9" y="930.2" class="st4" width="44" height="81"/>
		<polyline class="st14" points="1419.1,1303.4 1483.8,1243.3 1554,1292.7 1621.5,1231.7 1674.9,1255.1 1726.3,1199.2 		"/>
		<polyline class="st15" points="1410.3,1259.7 1474,1297.2 1553.5,1230.4 1620,1271.3 1649.1,1290.6 1725.9,1263.8 		"/>
	</g>
</g>
<g id="Layer_1_1_">
	<rect x="1918.4" y="987.9" class="st8" width="1306.2" height="644.6"/>
	<rect x="1970.4" y="1334.4" class="st7" width="253.8" height="253.8"/>
	<rect x="2287.7" y="1334.4" class="st7" width="253.8" height="253.8"/>
	<rect x="2605.1" y="1334.4" class="st7" width="253.8" height="253.8"/>
	<rect x="2922" y="1334.4" class="st7" width="253.8" height="253.8"/>
	<rect x="1970.4" y="1034.5" class="st16" width="253.8" height="253.8"/>
	<rect x="2287.7" y="1034.5" class="st16" width="253.8" height="253.8"/>
	<rect x="2605.1" y="1034.5" class="st16" width="253.8" height="253.8"/>
	<rect x="2922" y="1034.5" class="st16" width="253.8" height="253.8"/>
	<g>
		<rect x="2998.1" y="1075.2" class="st17" width="58.6" height="213.1"/>
		<rect x="3056.8" y="1075.2" class="st18" width="58.6" height="213.1"/>
		<rect x="3115.4" y="1075.2" class="st19" width="58.6" height="213.1"/>
	</g>
	<g>
		<rect x="2682.1" y="1075.2" class="st20" width="58.6" height="213.1"/>
		<rect x="2740.7" y="1075.2" class="st21" width="58.6" height="213.1"/>
		<rect x="2799.4" y="1075.2" class="st22" width="58.6" height="213.1"/>
	</g>
	<g>
		
			<rect x="1945.8" y="1148.8" transform="matrix(0.2499 -0.9683 0.9683 0.2499 398.8018 2870.896)" class="st23" width="213.1" height="58.6"/>
		<rect x="2107.3" y="1075.2" class="st24" width="58.6" height="213.1"/>
		<rect x="2166" y="1075.2" class="st25" width="58.6" height="213.1"/>
	</g>
	<rect x="2362" y="1374.7" class="st16" width="105.2" height="44.3"/>
	<rect x="2687.9" y="1374.7" class="st16" width="105.2" height="44.3"/>
	<rect x="3003.9" y="1374.7" class="st16" width="105.2" height="44.3"/>
	<rect x="2044.7" y="1374.7" class="st16" width="105.2" height="44.3"/>
</g>
<g>
	<path class="st4" d="M334.5,397.5l3.3,22.6l4.8-20.4l33.9-119.7h19.1l33.2,119.7l4.7,20.8l3.6-23.1l26.7-117.3h22.8L445,451.8
		h-20.7l-35.3-125l-2.7-13.1l-2.7,13.1l-36.6,125h-20.7l-41.5-171.6h22.6L334.5,397.5z"/>
	<path class="st4" d="M529.9,339.5c9.6-11.9,22.2-17.8,37.7-17.8c27,0,40.6,15.2,40.7,45.5v84.3h-21.9v-84.3
		c-0.2-9.2-2.1-16-6.3-20.4c-4.1-4.4-10.6-6.6-19.3-6.6c-7.1,0-13.3,1.8-18.5,5.7c-5.3,3.8-9.5,8.7-12.5,14.8v90.8h-21.9V270.6h21.9
		v68.9H529.9z"/>
	<path class="st4" d="M641,290.3c0-3.5,1.1-6.5,3.2-8.9c2.1-2.4,5.4-3.6,9.6-3.6s7.4,1.2,9.6,3.6c2.3,2.4,3.3,5.4,3.3,8.9
		s-1.1,6.5-3.3,8.9c-2.3,2.4-5.4,3.5-9.6,3.5s-7.4-1.2-9.6-3.5C642.1,296.8,641,293.8,641,290.3z M664.6,451.5h-21.9V324.1h21.9
		V451.5z"/>
	<path class="st4" d="M750.7,436.1c7.8,0,14.6-2.4,20.4-7.1c5.9-4.7,9-10.6,9.6-17.6h20.7c-0.5,7.2-2.9,14.3-7.5,20.8
		c-4.7,6.6-10.9,11.9-18.5,15.8c-7.7,3.9-16,5.9-24.6,5.9c-17.3,0-31.2-5.7-41.5-17.3s-15.4-27.4-15.4-47.5v-3.6
		c0-12.4,2.3-23.4,6.8-33.2c4.5-9.6,11.2-17.2,19.6-22.5c8.6-5.3,18.5-8,30.2-8c14.3,0,26.2,4.2,35.6,12.8
		c9.5,8.6,14.5,19.6,15.1,33.3h-20.7c-0.6-8.3-3.8-15.1-9.3-20.4c-5.6-5.3-12.5-8-20.8-8c-11,0-19.6,3.9-25.8,11.9
		c-6,8-9.2,19.5-9.2,34.5v4.1c0,14.6,3,25.9,9,33.9C730.8,432.2,739.4,436.1,750.7,436.1z"/>
	<path class="st4" d="M847.6,339.5c9.6-11.9,22.2-17.8,37.7-17.8c27,0,40.6,15.2,40.7,45.5v84.3h-21.9v-84.3
		c-0.2-9.2-2.1-16-6.3-20.4c-4.1-4.4-10.6-6.6-19.3-6.6c-7.1,0-13.3,1.8-18.5,5.7c-5.3,3.8-9.5,8.7-12.5,14.8v90.8h-21.9V270.6h21.9
		v68.9H847.6z"/>
	<path class="st4" d="M1126.1,389.2c0,19.5-4.4,35-13.3,46.9c-8.9,11.9-21,17.8-36,17.8c-15.5,0-27.6-5-36.5-14.8v61.4h-21.9V324.1
		h19.9l1.1,14.2c8.9-11,21.3-16.4,36.9-16.4c15.4,0,27.4,5.7,36.3,17.3c8.9,11.6,13.4,27.6,13.4,48.2V389.2z M1104.2,386.8
		c0-14.3-3-25.8-9.2-34.1s-14.5-12.5-25.2-12.5c-13.3,0-23.1,5.9-29.7,17.5v60.9c6.5,11.6,16.4,17.5,29.9,17.5
		c10.4,0,18.7-4.1,24.9-12.4C1101.2,415.4,1104.2,403.1,1104.2,386.8z"/>
	<path class="st4" d="M1148,386.7c0-12.5,2.4-23.7,7.4-33.6c5-10,11.8-17.6,20.5-23.1s18.7-8.1,30-8.1c17.3,0,31.4,6,42.1,18.1
		c10.7,12.1,16.1,28,16.1,47.9v1.5c0,12.4-2.4,23.5-7.1,33.3c-4.8,9.8-11.6,17.5-20.4,23.1c-8.9,5.4-19,8.3-30.5,8.3
		c-17.3,0-31.2-6-42.1-18.1c-10.9-12.1-16.1-27.9-16.1-47.6V386.7z M1169.8,389.2c0,14.2,3.3,25.5,9.8,34.1
		c6.5,8.6,15.4,12.8,26.4,12.8c11,0,19.9-4.4,26.4-13c6.5-8.7,9.8-20.8,9.8-36.5c0-14-3.3-25.3-10-33.9c-6.6-8.7-15.4-13-26.4-13
		c-10.7,0-19.5,4.2-26.1,12.8C1173.1,361,1169.8,373.2,1169.8,389.2z"/>
	<path class="st4" d="M1365.5,417.7c0-5.9-2.3-10.4-6.6-13.7c-4.4-3.3-12.2-6-23.2-8.4c-11-2.4-19.8-5.1-26.2-8.4
		s-11.3-7.2-14.3-11.8c-3.2-4.5-4.7-10-4.7-16.3c0-10.4,4.4-19.3,13.3-26.5s20.1-10.9,33.9-10.9c14.5,0,26.2,3.8,35.1,11.2
		c9,7.4,13.4,17,13.4,28.6h-21.9c0-6-2.6-11.2-7.5-15.4c-5.1-4.4-11.5-6.5-19.1-6.5c-8,0-14.2,1.7-18.5,5.1c-4.5,3.5-6.8,8-6.8,13.6
		c0,5.3,2.1,9.2,6.2,11.9c4.2,2.7,11.6,5.3,22.6,7.7c10.9,2.4,19.8,5.3,26.4,8.7c6.8,3.3,11.8,7.4,15.1,12.2
		c3.3,4.8,4.8,10.6,4.8,17.3c0,11.5-4.5,20.5-13.7,27.4c-9,6.9-21,10.3-35.4,10.3c-10.3,0-19.3-1.8-27.1-5.4
		c-7.8-3.6-14-8.6-18.4-15.1c-4.4-6.5-6.6-13.4-6.6-21h21.9c0.5,7.2,3.3,13.1,8.7,17.3c5.4,4.2,12.7,6.5,21.6,6.5
		c8.3,0,14.9-1.7,19.9-5C1363,427.8,1365.5,423.3,1365.5,417.7z"/>
	<path class="st4" d="M1445.3,293.2v30.9h23.8V341h-23.8v79.2c0,5.1,1.1,8.9,3.2,11.5c2.1,2.6,5.7,3.8,10.9,3.8
		c2.6,0,6-0.5,10.4-1.4v17.6c-5.7,1.5-11.3,2.4-16.7,2.4c-9.8,0-17-3-22-8.9s-7.4-14.3-7.4-25v-79h-23.2v-16.9h23.2v-30.9h21.7
		V293.2z"/>
	<path class="st4" d="M1632.9,451.5c-1.2-2.6-2.3-6.9-3-13.4c-10.1,10.6-22.2,15.8-36.3,15.8c-12.5,0-22.9-3.6-30.9-10.7
		c-8-7.1-12.1-16.1-12.1-27c0-13.3,5-23.5,15.1-30.9s24.3-11,42.5-11h21.3v-10c0-7.7-2.3-13.7-6.8-18.2c-4.5-4.5-11.3-6.8-20.2-6.8
		c-7.8,0-14.3,2-19.6,5.9c-5.3,3.9-7.8,8.7-7.8,14.3h-21.9c0-6.3,2.3-12.5,6.8-18.4c4.5-5.9,10.7-10.6,18.4-14
		c7.7-3.5,16.3-5.1,25.5-5.1c14.6,0,26.2,3.6,34.5,11c8.3,7.4,12.7,17.5,13,30.3v58.7c0,11.8,1.5,21,4.5,27.9v1.8h-22.9V451.5z
		 M1596.7,434.9c6.8,0,13.3-1.8,19.5-5.3c6.2-3.5,10.6-8.1,13.3-13.7v-26.1h-17c-26.7,0-40.1,7.8-40.1,23.4c0,6.8,2.3,12.2,6.8,16
		C1583.7,432.9,1589.6,434.9,1596.7,434.9z"/>
	<path class="st4" d="M1747,343.7c-3.3-0.6-6.9-0.8-10.7-0.8c-14.3,0-24,6-29.1,18.2v90.5h-21.9V324.2h21.3l0.3,14.8
		c7.1-11.5,17.3-17,30.5-17c4.2,0,7.4,0.6,9.6,1.7L1747,343.7L1747,343.7z"/>
	<path class="st4" d="M1817.7,453.9c-17.3,0-31.4-5.7-42.2-17s-16.3-26.5-16.3-45.5v-4.1c0-12.7,2.4-24,7.2-33.9
		c4.8-10,11.6-17.6,20.2-23.4c8.7-5.6,18.1-8.4,28.2-8.4c16.6,0,29.4,5.4,38.6,16.4c9.2,10.9,13.7,26.5,13.7,46.9v9h-86.1
		c0.3,12.5,3.9,22.8,11,30.5c7.1,7.7,16,11.6,26.8,11.6c7.7,0,14.2-1.5,19.6-4.7c5.3-3.2,10-7.2,14-12.5l13.3,10.4
		C1855.1,445.8,1839.1,453.9,1817.7,453.9z M1815,339.6c-8.7,0-16.1,3.2-22.2,9.6c-6,6.3-9.6,15.4-11,27h63.8v-1.7
		c-0.6-11-3.6-19.6-8.9-25.8C1831.3,342.6,1824.2,339.6,1815,339.6z"/>
	<path class="st4" d="M1994.1,419.7l29.7-95.6h23.4l-51.3,147.2c-8,21.3-20.5,31.8-37.8,31.8l-4.1-0.3l-8.1-1.5v-17.6l5.9,0.5
		c7.4,0,13.1-1.5,17.2-4.5c4.1-3,7.5-8.4,10.3-16.4l4.8-13l-45.5-126.1h23.8L1994.1,419.7z"/>
	<path class="st4" d="M2059,386.7c0-12.5,2.4-23.7,7.4-33.6c5-10,11.8-17.6,20.5-23.1c8.7-5.4,18.7-8.1,30-8.1
		c17.3,0,31.4,6,42.1,18.1c10.7,12.1,16.1,28,16.1,47.9v1.5c0,12.4-2.4,23.5-7.1,33.3c-4.8,9.8-11.6,17.5-20.4,23.1
		c-8.9,5.4-19,8.3-30.5,8.3c-17.3,0-31.2-6-42.1-18.1c-10.9-12.1-16.1-27.9-16.1-47.6L2059,386.7L2059,386.7z M2080.8,389.2
		c0,14.2,3.3,25.5,9.8,34.1c6.5,8.6,15.4,12.8,26.4,12.8s19.9-4.4,26.4-13c6.5-8.7,9.8-20.8,9.8-36.5c0-14-3.3-25.3-10-33.9
		c-6.6-8.7-15.4-13-26.4-13c-10.7,0-19.5,4.2-26.1,12.8C2084.1,361,2080.8,373.2,2080.8,389.2z"/>
	<path class="st4" d="M2281.1,439c-8.4,10-21,14.9-37.4,14.9c-13.6,0-24-3.9-31.1-11.9c-7.1-7.8-10.7-19.6-10.7-35v-82.9h21.9v82.3
		c0,19.3,7.8,28.9,23.5,28.9c16.6,0,27.7-6.2,33.2-18.5v-92.7h21.9v127.4h-20.8L2281.1,439z"/>
	<path class="st4" d="M708.6,742.5h-21.9V561.6h21.9V742.5z"/>
	<path class="st4" d="M737.7,677.7c0-12.5,2.4-23.7,7.4-33.6c5-10,11.8-17.6,20.5-23.1c8.7-5.4,18.7-8.1,30-8.1
		c17.3,0,31.4,6,42.1,18.1c10.7,12.1,16.1,28,16.1,47.9v1.5c0,12.4-2.4,23.5-7.1,33.3c-4.8,9.8-11.6,17.5-20.4,23.1
		c-8.9,5.4-19,8.3-30.5,8.3c-17.3,0-31.2-6-42.1-18.1s-16.1-28-16.1-47.8V677.7z M759.6,680.2c0,14.2,3.3,25.5,9.8,34.1
		c6.5,8.6,15.4,12.8,26.4,12.8c11,0,19.9-4.4,26.4-13c6.5-8.7,9.8-20.8,9.8-36.5c0-14-3.3-25.3-10-33.9c-6.6-8.7-15.4-13-26.4-13
		c-10.7,0-19.5,4.2-26.1,12.8C762.9,652,759.6,664.2,759.6,680.2z"/>
	<path class="st4" d="M875.2,677.7c0-12.5,2.4-23.7,7.4-33.6c5-10,11.8-17.6,20.5-23.1c8.7-5.4,18.7-8.1,30-8.1
		c17.3,0,31.4,6,42.1,18.1c10.7,12.1,16.1,28,16.1,47.9v1.5c0,12.4-2.4,23.5-7.1,33.3c-4.8,9.8-11.6,17.5-20.4,23.1
		c-8.9,5.4-19,8.3-30.5,8.3c-17.3,0-31.2-6-42.1-18.1c-10.9-12.1-16.1-27.9-16.1-47.6V677.7z M897.2,680.2c0,14.2,3.3,25.5,9.8,34.1
		c6.5,8.6,15.4,12.8,26.4,12.8c11,0,19.9-4.4,26.4-13c6.5-8.7,9.8-20.8,9.8-36.5c0-14-3.3-25.3-10-33.9c-6.6-8.7-15.4-13-26.4-13
		c-10.7,0-19.5,4.2-26.1,12.8C900.5,652,897.2,664.2,897.2,680.2z"/>
	<path class="st4" d="M1054.2,683.5l-13.7,14.3v44.8h-21.9V561.7h21.9v109.5l11.6-14l39.7-41.9h26.5l-49.5,53.1l55.3,74.2h-25.6
		L1054.2,683.5z"/>
	<path class="st4" d="M1141,581.3c0-3.5,1.1-6.5,3.2-8.9c2.1-2.4,5.4-3.6,9.6-3.6c4.2,0,7.4,1.2,9.6,3.6c2.3,2.4,3.3,5.4,3.3,8.9
		c0,3.5-1.1,6.5-3.3,8.9c-2.3,2.4-5.4,3.5-9.6,3.5c-4.2,0-7.4-1.2-9.6-3.5C1142.1,587.8,1141,584.8,1141,581.3z M1164.5,742.5h-21.9
		V615.1h21.9V742.5z"/>
	<path class="st4" d="M1220,615.1l0.8,16c9.8-12.2,22.5-18.4,38.1-18.4c27,0,40.6,15.2,40.7,45.5v84.3h-21.9v-84.3
		c-0.2-9.2-2.1-16-6.3-20.4c-4.1-4.4-10.6-6.6-19.3-6.6c-7.1,0-13.3,1.8-18.5,5.7c-5.3,3.8-9.5,8.7-12.5,14.8v90.8h-21.9V615.1
		L1220,615.1L1220,615.1z"/>
	<path class="st4" d="M1327.4,677.8c0-19.9,4.5-35.7,13.7-47.3c9.2-11.8,21.4-17.6,36.5-17.6c15.5,0,27.7,5.4,36.3,16.4l1.1-14.2
		h19.9v124.4c0,16.4-4.8,29.6-14.6,39.1c-9.8,9.5-22.9,14.3-39.4,14.3c-9.2,0-18.2-2-27-5.9c-8.7-3.9-15.5-9.3-20.2-16.1l11.3-13.1
		c9.3,11.6,20.8,17.3,34.2,17.3c10.6,0,18.8-3,24.7-8.9c5.9-6,8.9-14.3,8.9-25.2v-11c-8.7,10.1-20.7,15.1-35.7,15.1
		c-14.9,0-27-6-36.2-18.1C1331.9,714.9,1327.4,698.5,1327.4,677.8z M1349.3,680.2c0,14.3,3,25.6,8.9,33.9
		c5.9,8.1,14.2,12.4,24.7,12.4c13.7,0,23.8-6.2,30.3-18.7v-58.2c-6.6-12.2-16.7-18.2-30-18.2c-10.6,0-18.8,4.1-24.9,12.4
		C1352.3,651.9,1349.3,664.1,1349.3,680.2z"/>
	<path class="st4" d="M1538.3,742.5V631.8h-20.2v-16.9h20.2v-13c0-13.7,3.6-24.3,11-31.7c7.2-7.4,17.6-11.2,30.9-11.2
		c5,0,10,0.6,14.9,2l-1.2,17.5c-3.6-0.8-7.7-1.1-11.8-1.1c-7.1,0-12.5,2.1-16.4,6.2c-3.9,4.1-5.7,10.1-5.7,17.8v13.4h27.1v16.9H1560
		v110.7L1538.3,742.5L1538.3,742.5z"/>
	<path class="st4" d="M1605.6,677.7c0-12.5,2.4-23.7,7.4-33.6c5-10,11.8-17.6,20.5-23.1c8.7-5.4,18.7-8.1,30-8.1
		c17.3,0,31.4,6,42.1,18.1c10.7,12.1,16.1,28,16.1,47.9v1.5c0,12.4-2.4,23.5-7.1,33.3c-4.8,9.8-11.6,17.5-20.4,23.1
		c-8.9,5.4-19,8.3-30.5,8.3c-17.3,0-31.2-6-42.1-18.1c-10.9-12.1-16.1-27.9-16.1-47.6L1605.6,677.7L1605.6,677.7z M1627.4,680.2
		c0,14.2,3.3,25.5,9.8,34.1c6.5,8.6,15.4,12.8,26.4,12.8c11,0,19.9-4.4,26.4-13c6.5-8.7,9.8-20.8,9.8-36.5c0-14-3.3-25.3-10-33.9
		c-6.6-8.7-15.4-13-26.4-13c-10.7,0-19.5,4.2-26.1,12.8C1630.8,652,1627.4,664.2,1627.4,680.2z"/>
	<path class="st4" d="M1810.5,634.7c-3.3-0.6-6.9-0.8-10.7-0.8c-14.3,0-24,6-29.1,18.2v90.5h-21.9V615.2h21.3l0.3,14.8
		c7.1-11.5,17.3-17,30.5-17c4.2,0,7.4,0.6,9.6,1.7L1810.5,634.7L1810.5,634.7z"/>
	<path class="st4" d="M1856.2,694.1c0.2-9.3,1.2-16.7,3.2-22.2c2-5.4,6-11.5,12.1-17.9l15.4-15.8c6.6-7.4,10-15.4,10-24
		c0-8.3-2.1-14.6-6.5-19.3c-4.4-4.7-10.6-6.9-18.8-6.9c-8,0-14.5,2.1-19.3,6.3c-4.8,4.2-7.2,10-7.2,17H1823
		c0.2-12.7,4.7-22.9,13.6-30.8c8.9-7.8,20.5-11.8,34.8-11.8c14.8,0,26.4,3.9,34.7,11.9c8.3,8,12.4,18.8,12.4,32.7
		c0,13.7-6.3,27.3-19.1,40.6l-12.8,12.7c-5.7,6.3-8.6,15.5-8.6,27.4L1856.2,694.1L1856.2,694.1z M1855.3,731.5c0-3.6,1.1-6.6,3.2-9
		c2.1-2.4,5.4-3.6,9.6-3.6s7.4,1.2,9.6,3.6c2.3,2.4,3.3,5.4,3.3,9s-1.1,6.5-3.3,8.9c-2.3,2.3-5.4,3.5-9.6,3.5s-7.4-1.2-9.6-3.5
		C1856.3,738,1855.3,735.1,1855.3,731.5z"/>
</g>
</svg>
