<?xml version="1.0" encoding="utf-8"?>
<!-- Generator: Adobe Illustrator 21.0.2, SVG Export Plug-In . SVG Version: 6.00 Build 0)  -->
<svg version="1.1" id="Layer_1" xmlns="http://www.w3.org/2000/svg" xmlns:xlink="http://www.w3.org/1999/xlink" x="0px" y="0px"
	 viewBox="0 0 4459.7 1308.5" style="enable-background:new 0 0 4459.7 1308.5;" xml:space="preserve">
<style type="text/css">
	.st0{display:none;}
	.st1{fill:#EFB081;}
	.st2{fill:#4BA2D8;}
	.st3{fill:#9AA2A5;}
	.st4{fill:#90CCE9;}
	.st5{fill:#F7F7F7;}
	.st6{fill:none;stroke:#3F3E3A;stroke-width:7;stroke-miterlimit:10;}
	.st7{fill:none;stroke:#3F3E3A;stroke-width:8;stroke-miterlimit:10;}
	.st8{fill:none;stroke:#000000;stroke-miterlimit:10;}
	.st9{fill:#D74B82;stroke:#3F3E3A;stroke-width:10;stroke-miterlimit:10;}
	.st10{fill:#3F3E3A;}
	.st11{fill:#60B574;}
	.st12{fill:none;stroke:#3F3E3A;stroke-width:10;stroke-miterlimit:10;}
	.st13{fill:#3F3E3A;stroke:#3F3E3A;stroke-miterlimit:10;}
	.st14{fill:none;stroke:#3F3E3A;stroke-width:37;stroke-miterlimit:10;}
	.st15{fill:none;stroke:#3F3E3A;stroke-width:37;stroke-miterlimit:10;stroke-dasharray:70.0221,69.0218;}
	.st16{opacity:0.5;fill:#FFFFFF;}
	.st17{font-family:'Seravek';}
	.st18{font-size:165px;}
</style>
<g id="xqt582.tif" class="st0">
	
		<image style="display:inline;overflow:visible;" width="700" height="351" id="Layer_0_1_" xlink:href="416B1BE1FE4ABB1E.png"  transform="matrix(1 0 0 1 2024 480.2)">
	</image>
</g>
<g id="vackground">
	<rect y="-0.7" class="st1" width="4459.7" height="1309.2"/>
</g>
<g id="XMLID_3_">
	<g>
		<path class="st2" d="M1440,774.4c14.2,35.9,21.9,75.1,21.9,116c0,145.2-97.3,267.7-230.3,305.8c41.7-48.1,72.7-104.1,90.8-164.1
			c8-26.3,13.5-53.4,16.4-80.9c2.8-27.4,3-55.3,0.5-83.3c-3.2-33.7-10.1-64.9-19.8-93.6H1440z"/>
		<path class="st3" d="M1440,774.4h-120.6c-16.7-49.3-41.5-91.3-68.8-126.3h99.2C1389.5,681.8,1420.8,725.1,1440,774.4z"/>
		<path class="st4" d="M1339.2,868c2.6,28,2.4,55.9-0.5,83.3c-2.9,27.5-8.4,54.6-16.4,80.9c-18.2,60-49.2,116-90.8,164.1
			c-27.9,8-57.3,12.2-87.8,12.2c-175.6,0-318-142.4-318-318.1c0-40.9,7.7-80.1,21.9-116h471.7C1329.1,803.1,1336.1,834.2,1339.2,868
			z"/>
		<path class="st5" d="M1319.4,774.4H847.7c19.3-49.3,50.5-92.6,90.1-126.3h312.7C1277.9,683.1,1302.7,725.1,1319.4,774.4z"/>
	</g>
	<g>
		<path class="st6" d="M847.7,774.4c19.3-49.3,50.5-92.6,90.1-126.3h312.7h99.2c39.7,33.7,71,77,90.2,126.3"/>
		<path class="st6" d="M1440,774.4c14.2,35.9,21.9,75.1,21.9,116c0,145.2-97.3,267.7-230.3,305.8c-27.9,8-57.3,12.2-87.8,12.2
			c-175.6,0-318-142.4-318-318.1c0-40.9,7.7-80.1,21.9-116"/>
	</g>
</g>
<g id="XMLID_4_">
	<g>
		<path class="st2" d="M3793.5,648.1c21.8,49,34,103.1,34,160.1c0,194.7-142.2,357-330.8,392.9c39.1-59.8,68.4-128.8,85.9-202.5
			c8-33.6,13.5-68.2,16.4-103.4c2.8-35.1,3-70.8,0.5-106.6c-3.2-43.1-10.1-83-19.8-119.6c-1.9-7-3.9-14-5.9-20.8H3793.5z"/>
		<path class="st3" d="M3793.5,648.1h-219.8c-16.4-54.2-38.6-101-62.9-140.8h177.3C3733.1,545.8,3769.2,593.8,3793.5,648.1z"/>
		<path class="st4" d="M3599.5,788.5c2.6,35.9,2.4,71.5-0.5,106.6c-2.9,35.2-8.4,69.8-16.4,103.4c-17.4,73.7-46.7,142.7-85.9,202.5
			c-25.6,4.9-52,7.5-78.9,7.5c-226.3,0-409.8-179.3-409.8-400.4c0-56.9,12.2-111.1,34.1-160.1h531.5c2.1,6.8,4.1,13.8,5.9,20.8
			C3589.4,705.5,3596.3,745.4,3599.5,788.5z"/>
		<path class="st5" d="M3573.7,648.1h-531.5c24.2-54.3,60.5-102.3,105.4-140.8h363.2C3535.1,547.1,3557.4,593.9,3573.7,648.1z"/>
	</g>
	<g>
		<path class="st7" d="M3793.5,648.1c21.8,49,34,103.1,34,160.1c0,194.7-142.2,357-330.8,392.9c-25.6,4.9-52,7.5-78.9,7.5
			c-226.3,0-409.8-179.3-409.8-400.4c0-56.9,12.2-111.1,34.1-160.1"/>
		<path class="st7" d="M3042.2,648.1c24.2-54.3,60.5-102.3,105.4-140.8h363.2h177.3c44.9,38.5,81.1,86.5,105.4,140.8"/>
	</g>
</g>
<line class="st8" x1="1349.8" y1="648.1" x2="937.9" y2="648.1"/>
<line class="st8" x1="3688.1" y1="507.3" x2="3147.6" y2="507.3"/>
<g>
	<path class="st9" d="M3439.6,803.6c-2.1,30.8-59.9,56.5-107.8,51.1c-29.5-3.3-62.5-19.4-78.4-39.3c-6.6-8.2-10.2-17-9.5-25.9
		c0.4-5.3,2.4-10.4,5.6-15.2c14.9-22.2,56.6-36.9,90.8-35.9C3388.2,739.9,3441.7,772.9,3439.6,803.6z"/>
	<path class="st9" d="M3253.5,815.3c-8.7,4.3-16.4,7.7-22.8,10.2c-20.4,8.2-34.6,13.7-53.6,13.8c-2.5,0-33.4,0-36.2-9.2
		c-1-3.3,0.1-12.7,46.3-34.4c-46.2-21.6-47.3-31-46.3-34.3c2.8-9.3,33.7-9.3,36.2-9.3c19,0.1,33.2,5.7,53.6,13.8
		c5.4,2.2,11.8,4.9,18.9,8.2c-3.2,4.8-5.2,9.9-5.6,15.2C3243.2,798.3,3246.9,807.1,3253.5,815.3z"/>
	<circle class="st10" cx="3372.2" cy="782.3" r="14.4"/>
</g>
<g>
	<g id="XMLID_1_">
		<g>
			<path class="st11" d="M3412.3,1073.9c22.7,11.3,46.2,24.7,42.3,30.9c-2.1,3.5-11.8,3.6-24.1,3.7c-14.2,0.1-35.7-1-61.7-7.2
				c-6.6-18.3-9.5-35-9.5-35s4.4-9.3,11.8-20.9c28.5-7.4,44.3-6.8,59.5-6.7c12.2,0.1,22,0.2,24.1,3.7c4.1,6.6-18.4,19.6-42.2,31.3
				L3412.3,1073.9z"/>
			<path class="st11" d="M3318,1001.6h98.1c-17.8,5.2-34.4,26.8-45.1,43.7c-7.3,11.6-11.8,20.9-11.8,20.9s2.9,16.7,9.5,35
				c6.2,17.3,15.8,36.3,29.4,44.2l-10.2-0.3h-88.3c-27.6-16.2-42.9-47.5-38.4-78.9C3265.6,1035.4,3287.9,1010.1,3318,1001.6z
				 M3318.4,1046c0-8-6.4-14.4-14.4-14.4s-14.4,6.4-14.4,14.4s6.4,14.4,14.4,14.4S3318.4,1054,3318.4,1046z"/>
			<path class="st10" d="M3304,1031.6c8,0,14.4,6.4,14.4,14.4s-6.4,14.4-14.4,14.4s-14.4-6.4-14.4-14.4S3296,1031.6,3304,1031.6z"/>
		</g>
		<g>
			<path class="st12" d="M3300.3,1145.6c-0.3-0.1-0.5-0.3-0.7-0.5c-27.6-16.2-42.9-47.5-38.4-78.9c4.4-30.8,26.7-56.1,56.8-64.6
				c0.2-0.1,0.5-0.1,0.6-0.2"/>
			<path class="st12" d="M3398.4,1145.6c-0.1-0.1-0.2-0.1-0.3-0.1c-13.5-7.9-23.1-26.9-29.4-44.2c-6.6-18.3-9.5-35-9.5-35
				s4.4-9.3,11.8-20.9c10.6-16.9,27.2-38.5,45.1-43.7c0.2-0.1,0.4-0.1,0.6-0.2"/>
			<path class="st12" d="M3409.8,1072.7c1.2,0.6,0.6,0.3,1.8,0.9c0.2,0.1,0.5,0.2,0.6,0.3c22.7,11.3,46.2,24.7,42.3,30.9
				c-2.1,3.5-11.8,3.6-24.1,3.7c-14.2,0.1-35.7-1-61.7-7.2"/>
			<path class="st12" d="M3371,1045.3c28.5-7.4,44.3-6.8,59.5-6.7c12.2,0.1,22,0.2,24.1,3.7c4.1,6.6-18.4,19.6-42.2,31.3"/>
			<polyline class="st12" points="3317.6,1001.6 3318,1001.6 3416.1,1001.6 3416.6,1001.6 3417.9,1001.6 			"/>
			<polyline class="st12" points="3298.7,1145.2 3299.6,1145.2 3387.9,1145.2 3398.1,1145.5 3401.3,1145.5 			"/>
		</g>
	</g>
</g>
<g>
	<g id="XMLID_2_">
		<g>
			<path class="st11" d="M3640.2,911.8c22.7,11.3,46.2,24.7,42.3,30.9c-2.1,3.5-11.8,3.6-24.1,3.7c-14.2,0.1-35.7-1-61.7-7.2
				c-6.6-18.4-9.5-35-9.5-35s4.4-9.3,11.8-20.9c28.5-7.4,44.3-6.8,59.5-6.7c12.2,0.1,22,0.2,24.1,3.7c4.1,6.6-18.4,19.6-42.2,31.3
				L3640.2,911.8z"/>
			<path class="st11" d="M3545.9,839.5h98.1c-17.8,5.2-34.4,26.8-45.1,43.7c-7.3,11.6-11.8,20.9-11.8,20.9s2.9,16.7,9.5,35
				c6.2,17.3,15.8,36.3,29.4,44.2l-10.2-0.3h-88.3c-27.6-16.2-42.9-47.5-38.4-78.9C3493.5,873.3,3515.9,848,3545.9,839.5z
				 M3546.3,883.9c0-8-6.4-14.4-14.4-14.4s-14.4,6.4-14.4,14.4s6.4,14.4,14.4,14.4S3546.3,891.9,3546.3,883.9z"/>
			<path class="st10" d="M3531.9,869.5c8,0,14.4,6.4,14.4,14.4s-6.4,14.4-14.4,14.4s-14.4-6.4-14.4-14.4S3523.9,869.5,3531.9,869.5z
				"/>
		</g>
		<g>
			<path class="st12" d="M3528.2,983.5c-0.3-0.1-0.5-0.3-0.7-0.5c-27.6-16.2-42.9-47.5-38.4-78.9c4.4-30.8,26.7-56.1,56.8-64.6
				c0.2-0.1,0.5-0.1,0.6-0.2"/>
			<path class="st12" d="M3626.3,983.5c-0.1-0.1-0.2-0.1-0.3-0.1c-13.5-7.9-23.1-26.9-29.4-44.2c-6.6-18.4-9.5-35-9.5-35
				s4.4-9.3,11.8-20.9c10.6-16.9,27.2-38.5,45.1-43.7c0.2-0.1,0.4-0.1,0.6-0.2"/>
			<path class="st12" d="M3637.7,910.5c1.2,0.6,0.6,0.3,1.8,0.9c0.2,0.1,0.5,0.2,0.6,0.3c22.7,11.3,46.2,24.7,42.3,30.9
				c-2.1,3.5-11.8,3.6-24.1,3.7c-14.2,0.1-35.7-1-61.7-7.2"/>
			<path class="st12" d="M3598.9,883.2c28.5-7.4,44.3-6.8,59.5-6.7c12.2,0.1,22,0.2,24.1,3.7c4.1,6.6-18.4,19.6-42.2,31.3"/>
			<polyline class="st12" points="3545.5,839.5 3545.9,839.5 3644,839.5 3644.6,839.5 3645.9,839.5 			"/>
			<polyline class="st12" points="3526.6,983 3527.5,983 3615.8,983 3626,983.4 3629.2,983.4 			"/>
		</g>
	</g>
</g>
<path class="st13" d="M3009.6,1208.5h816.5c0.8,0,1.5,0.7,1.5,1.5v16c0,0.8-0.7,1.5-1.5,1.5h-816.5c-0.8,0-1.5-0.7-1.5-1.5v-16
	C3008.1,1209.2,3008.8,1208.5,3009.6,1208.5z"/>
<path class="st13" d="M827.2,1208.5h633.2c0.8,0,1.5,0.7,1.5,1.5v16c0,0.8-0.7,1.5-1.5,1.5H827.2c-0.8,0-1.5-0.7-1.5-1.5v-16
	C825.8,1209.2,826.4,1208.5,827.2,1208.5z"/>
<g>
	<path class="st9" d="M1352.4,405.5c13.2,27.9,76.3,30.9,119,8.3c26.2-13.9,51.2-40.9,58.7-65.2c3.1-10,3.3-19.6-0.5-27.6
		c-2.3-4.8-6-8.8-10.7-12.1c-21.9-15.3-66.1-13.8-97.6-0.4C1377.2,327.4,1339.3,377.6,1352.4,405.5z"/>
	<path class="st9" d="M1530.1,348.7c9.7,0.9,18.1,1.2,24.9,1.2c22,0.2,37.2,0.2,54.9-6.6c2.3-0.9,31.1-12.2,30.4-21.8
		c-0.2-3.4-4.7-11.9-55.6-15.2c35.2-37,32.8-46.1,30.6-48.8c-6-7.6-34.8,3.6-37.1,4.6c-17.6,7-28.8,17.3-44.9,32.4
		c-4.2,4-9.2,8.8-14.6,14.5c4.7,3.3,8.4,7.3,10.7,12.1C1533.4,329.1,1533.2,338.6,1530.1,348.7z"/>
	
		<ellipse transform="matrix(0.9314 -0.3639 0.3639 0.9314 -34.8929 536.9965)" class="st10" cx="1407.5" cy="361.1" rx="14.4" ry="14.4"/>
</g>
<g>
	<path class="st9" d="M1089.7,996c1.4,30.8,58.6,57.8,106.6,53.4c29.6-2.7,62.9-18.1,79.2-37.6c6.7-8,10.6-16.8,10.1-25.7
		c-0.3-5.4-2.2-10.5-5.3-15.3c-14.4-22.5-55.8-38.1-90-37.8C1142.5,933.4,1088.3,965.3,1089.7,996z"/>
	<path class="st9" d="M1275.5,1011.8c8.6,4.5,16.2,8,22.6,10.7c20.2,8.6,34.3,14.5,53.3,15c2.5,0.1,33.4,0.7,36.4-8.4
		c1.1-3.3,0.2-12.7-45.5-35.4c46.7-20.6,48-30,47-33.3c-2.6-9.3-33.5-10-36-10.1c-19-0.3-33.3,4.9-53.9,12.7
		c-5.5,2.1-11.9,4.6-19,7.8c3.1,4.8,5,10,5.3,15.3C1286.1,995.1,1282.2,1003.8,1275.5,1011.8z"/>
	
		<ellipse transform="matrix(2.193933e-02 -0.9998 0.9998 2.193933e-02 156.1712 2112.0737)" class="st10" cx="1157.6" cy="976.2" rx="14.4" ry="14.4"/>
</g>
<g>
	<g>
		<path class="st14" d="M1663.9,271c9.4-3.6,20.5-7.5,33-11.7"/>
		<path class="st15" d="M1762.8,238.9c202.1-58.2,590.7-135,920-67c227.2,46.9,402.3,138,519,213.5"/>
		<path class="st14" d="M3230.6,404.5c10.1,6.9,19.7,13.5,28.7,20"/>
	</g>
</g>
<circle class="st16" cx="995.1" cy="883.9" r="33.9"/>
<circle class="st16" cx="3197.1" cy="976.2" r="33.9"/>
<circle class="st16" cx="3517.5" cy="752.2" r="44.7"/>
<circle class="st16" cx="3629.2" cy="1046" r="26.7"/>
<circle class="st16" cx="1123.5" cy="1108.5" r="23.9"/>
<g>
	<path class="st10" d="M1904.6,759.4c-0.6,12.3-3.9,23.2-10,32.6c-6.1,9.4-14.6,16.8-25.6,21.9c-11,5.2-23.5,7.8-37.6,7.8
		c-23.3,0-41.6-7.6-55-22.7c-13.4-15.2-20.1-36.6-20.1-64.2v-8.8c0-17.3,3-32.5,9.1-45.5c6-13,14.7-23.1,26.1-30.2
		c11.3-7.1,24.5-10.6,39.4-10.6c21.5,0,38.7,5.7,51.8,17c13,11.3,20.5,26.9,22.2,46.7h-42.6c-0.3-10.8-3-18.5-8.1-23.2
		c-5.1-4.7-12.9-7.1-23.3-7.1c-10.6,0-18.4,4-23.3,11.9c-4.9,7.9-7.5,20.6-7.8,38.1v12.5c0,18.9,2.4,32.4,7.1,40.5
		c4.7,8.1,12.9,12.2,24.5,12.2c9.8,0,17.3-2.3,22.5-6.9c5.2-4.6,7.9-12,8.3-22H1904.6z"/>
	<path class="st10" d="M2072.8,819.3h-42.4v-73.9h-62.9v73.9h-42.7v-177h42.7v70.3h62.9v-70.3h42.4V819.3z"/>
	<path class="st10" d="M2238.6,642.3v115.9c0,13.1-2.8,24.5-8.4,34.1c-5.6,9.6-13.6,16.9-24.1,21.9c-10.5,5-22.8,7.5-37.1,7.5
		c-21.6,0-38.5-5.6-50.9-16.8s-18.7-26.5-19-46V642.3h42.9v117.6c0.5,19.4,9.5,29.1,27,29.1c8.8,0,15.5-2.4,20.1-7.3
		s6.8-12.8,6.8-23.7V642.3H2238.6z"/>
	<path class="st10" d="M2331,756.7h-23.1v62.6h-42.7v-177h69.7c21,0,37.4,4.7,49.2,14c11.8,9.3,17.8,22.5,17.8,39.5
		c0,12.3-2.5,22.5-7.5,30.6c-5,8.1-12.8,14.7-23.4,19.7l37,71.5v1.8h-45.7L2331,756.7z M2307.9,723.9h27c8.1,0,14.2-2.1,18.3-6.4
		c4.1-4.3,6.1-10.2,6.1-17.9c0-7.6-2.1-13.6-6.2-18c-4.1-4.3-10.2-6.5-18.2-6.5h-27V723.9z"/>
	<path class="st10" d="M2575.5,819.3h-42.4l-62.7-110.2v110.2h-42.7v-177h42.7l62.6,110.2V642.3h42.6V819.3z"/>
	<path class="st10" d="M2663.7,801c0-6,2.2-10.9,6.5-14.8c4.3-3.8,9.7-5.8,16.2-5.8c6.5,0,11.9,1.9,16.2,5.8
		c4.3,3.9,6.5,8.8,6.5,14.8c0,6-2.2,10.9-6.5,14.8c-4.3,3.8-9.7,5.8-16.2,5.8c-6.5,0-11.9-1.9-16.2-5.8
		C2665.8,811.9,2663.7,807,2663.7,801z M2703.3,763.3h-33.2l-5.2-121h43.6L2703.3,763.3z"/>
</g>
<text transform="matrix(1 0 0 1 1998.8079 1019.3566)" class="st10 st17 st18">PART 1</text>
</svg>
