<?xml version="1.0" encoding="utf-8"?>
<!-- Generator: Adobe Illustrator 21.0.2, SVG Export Plug-In . SVG Version: 6.00 Build 0)  -->
<svg version="1.1" id="illustration" xmlns="http://www.w3.org/2000/svg" xmlns:xlink="http://www.w3.org/1999/xlink" x="0px"
	 y="0px" viewBox="0 0 700 200" style="enable-background:new 0 0 700 200;" xml:space="preserve">
<style type="text/css">
	.st0{fill:#56658F;}
	.st1{fill:#CCDFE6;}
	.st2{fill:#C6905E;}
	.st3{fill:#CC1F3B;}
	.st4{fill:#D84748;}
	.st5{fill:#BC1F3F;}
	.st6{fill:#70C1CA;}
	.st7{fill:#FFFFFF;}
	.st8{fill:#231F20;}
	.st9{fill:#AC9CFF;}
	.st10{fill:#522A00;}
	.st11{fill:#A38416;}
	.st12{fill:#894F21;}
	.st13{fill:#FAC826;}
	.st14{fill:#B373A2;}
	.st15{fill:#505050;}
	.st16{fill:#B0B0B0;}
	.st17{fill:#505050;stroke:#B0B0B0;stroke-width:0.25;stroke-miterlimit:10;}
	.st18{fill:#4589C8;}
	.st19{fill:#DB393A;}
	.st20{display:none;fill:#CC1F3B;}
	.st21{display:none;fill:#D84748;}
</style>
<g id="vackground_1_">
	<rect y="-4.1" class="st0" width="700" height="205.5"/>
</g>
<g>
	<circle class="st1" cx="437.2" cy="98.1" r="64.7"/>
	<g id="seat_1_">
		<polygon class="st2" points="433.5,115.6 433.5,118.3 433.5,137.2 433.5,143.1 441.8,143.1 441.8,137.2 441.8,118.3 441.8,115.6 
					"/>
		<rect x="403.1" y="137.2" class="st2" width="69.2" height="5.9"/>
		<path class="st3" d="M415.1,47.8h44.8c3.2,0,5.8,2.6,5.8,5.8v61.9h-56.5V53.6C409.2,50.4,411.9,47.8,415.1,47.8z"/>
		<g>
			<rect x="397.2" y="83.7" class="st4" width="21.4" height="9.8"/>
			<rect x="403.1" y="93.5" class="st4" width="9.7" height="22"/>
		</g>
		<g>
			<rect x="455.7" y="83.7" class="st4" width="21.4" height="9.8"/>
			<rect x="461.6" y="93.5" class="st4" width="9.7" height="22"/>
		</g>
		<path class="st5" d="M461.5,115.6h-48.7v-13.2c16.5-4.9,32.7-5.1,48.7,0V115.6z"/>
	</g>
</g>
<circle class="st6" cx="96" cy="97.4" r="64.7"/>
<g>
	<rect x="82.9" y="52.4" class="st7" width="30.5" height="93.9"/>
	<rect x="79.6" y="63" class="st8" width="38" height="3.9"/>
	<rect x="79.6" y="93.4" class="st8" width="38" height="3.9"/>
	<rect x="79.6" y="123.8" class="st8" width="38" height="3.9"/>
	<polygon class="st8" points="117.6,148.7 113.4,148.7 113.4,50.9 117.6,50.9 117.6,97.4 	"/>
	<polygon class="st8" points="82.9,148.7 78.8,148.7 78.8,50.9 82.9,50.9 82.9,97.4 	"/>
</g>
<g>
	<rect x="79.6" y="52.6" class="st7" width="2.5" height="3.8"/>
	<rect x="79.6" y="59.5" class="st7" width="2.5" height="3.8"/>
	<rect x="79.6" y="66.4" class="st7" width="2.5" height="3.8"/>
	<rect x="79.6" y="73.3" class="st7" width="2.5" height="3.8"/>
	<rect x="79.6" y="80.2" class="st7" width="2.5" height="3.8"/>
	<rect x="79.6" y="87.1" class="st7" width="2.5" height="3.8"/>
	<rect x="79.6" y="94" class="st7" width="2.5" height="3.8"/>
	<rect x="79.6" y="100.9" class="st7" width="2.5" height="3.8"/>
	<rect x="79.6" y="107.8" class="st7" width="2.5" height="3.8"/>
	<rect x="79.6" y="114.7" class="st7" width="2.5" height="3.8"/>
	<rect x="79.6" y="121.6" class="st7" width="2.5" height="3.8"/>
	<rect x="79.6" y="128.5" class="st7" width="2.5" height="3.8"/>
	<rect x="79.6" y="128.5" class="st7" width="2.5" height="3.8"/>
	<rect x="79.6" y="135.3" class="st7" width="2.5" height="3.8"/>
	<rect x="79.6" y="142.2" class="st7" width="2.5" height="3.8"/>
</g>
<g>
	<rect x="114.3" y="52.6" class="st7" width="2.5" height="3.8"/>
	<rect x="114.3" y="59.5" class="st7" width="2.5" height="3.8"/>
	<rect x="114.3" y="66.4" class="st7" width="2.5" height="3.8"/>
	<rect x="114.3" y="73.3" class="st7" width="2.5" height="3.8"/>
	<rect x="114.3" y="80.2" class="st7" width="2.5" height="3.8"/>
	<rect x="114.3" y="87.1" class="st7" width="2.5" height="3.8"/>
	<rect x="114.3" y="94" class="st7" width="2.5" height="3.8"/>
	<rect x="114.3" y="100.9" class="st7" width="2.5" height="3.8"/>
	<rect x="114.3" y="107.8" class="st7" width="2.5" height="3.8"/>
	<rect x="114.3" y="114.7" class="st7" width="2.5" height="3.8"/>
	<rect x="114.3" y="121.6" class="st7" width="2.5" height="3.8"/>
	<rect x="114.3" y="128.5" class="st7" width="2.5" height="3.8"/>
	<rect x="114.3" y="128.5" class="st7" width="2.5" height="3.8"/>
	<rect x="114.3" y="135.3" class="st7" width="2.5" height="3.8"/>
	<rect x="114.3" y="142.2" class="st7" width="2.5" height="3.8"/>
</g>
<g>
	<circle class="st9" cx="607.8" cy="98.1" r="64.7"/>
	<g id="XMLID_1_">
		<g>
			<polygon class="st10" points="635,142.1 635,150.6 608,150.6 608,142.1 630.2,142.1 			"/>
			<polygon class="st10" points="630.2,125.5 630.2,142.1 608,142.1 608,125.5 625.5,125.5 			"/>
			<path class="st11" d="M608,125.5V56.4c1,0,1.8-0.3,2.6-0.9c0.1,0.5,0.2,1.1,0.4,1.3c0.7,1,2.5,0.4,4.6,1.2c2.8,1,4.5,3.9,4.6,6.2
				c0,0.1,0,0.5,0,0.5c0.1,2.5,0.1,5.8-0.8,8c-0.1,0.1-0.1,0.3-0.2,0.4c-1.1,2.2-3.1,2.6-4,4c-0.8,1.2-0.4,2.5-0.2,3.6
				c1.1,4.9,1.3,15,0.2,21.5c-1.1,7.2-1.7,10.8-2.5,12.7c-0.5,1.3-1.7,3.7-0.4,4.8c0.7,0.6,1.5,0.5,4.2,0.5c4.8,0.1,7.2,0.2,8.4,1.3
				c1.1,1,1.1,2.7,0.7,3.7v0.1H608V125.5z"/>
			<path class="st11" d="M610.5,55.5c-0.7,0.6-1.6,0.9-2.6,0.9V44.1c2.7,0,4.9,2.7,4.9,6.1C612.9,52.5,612,54.4,610.5,55.5z"/>
			<polygon class="st12" points="608,142.1 608,150.6 580.6,150.6 580.6,142.1 585.5,142.1 			"/>
			<polygon class="st12" points="608,125.5 608,142.1 585.5,142.1 585.5,125.5 590.7,125.5 			"/>
			<path class="st13" d="M605.6,55.7c-1.6-1-2.6-3.1-2.6-5.4c0-3.4,2.2-6.1,4.9-6.1v12.3C607.1,56.4,606.3,56.1,605.6,55.7
				L605.6,55.7z"/>
			<path class="st13" d="M608,125.5h-17.2v-0.1c-0.5-1-0.4-2.7,0.6-3.7c1.2-1.1,3.6-1.2,8.4-1.3c2.7-0.1,3.6,0.1,4.2-0.5
				c1.3-1.1,0.1-3.6-0.4-4.8c-0.8-1.9-1.4-5.5-2.5-12.7c-1-6.5-0.8-16.6,0.2-21.5c0.2-1.1,0.6-2.4-0.2-3.6c-0.9-1.3-2.9-1.7-4-4
				c-0.1-0.2-0.1-0.3-0.2-0.4c-1-2.2-1-5.6-0.8-8c0,0,0-0.3,0-0.5c0.1-2.3,1.8-5.2,4.6-6.2c2.2-0.8,4-0.2,4.6-1.2
				c0.2-0.3,0.3-0.7,0.4-1.1c0.7,0.5,1.5,0.7,2.3,0.7L608,125.5L608,125.5z"/>
		</g>
	</g>
</g>
<g>
	<circle class="st14" cx="266.6" cy="98.1" r="64.7"/>
	<g>
		<path class="st15" d="M218.1,93.5c13.1-5.7,26.2-11.5,39.3-17.2l9.3-4c1.7-0.8,3.4-1.5,5.1-2.2s3.4-1.5,5.1-2.2l3.1-1.1h0.2
			c0.3,0,0.9-0.1,1.6-0.1c1.9,0,4.6,0.4,6.7,2.5c2.5,2.4,3.1,6.1,2.6,7.9c-0.1,0.5-0.3,0.9-0.6,1h-0.1c-0.6,0-1.8-1-4.7-5.6
			l-0.1-0.1h-0.1c-0.1,0-8.4,3-8.7,3.1l-0.3,0.1c-0.3,0.1-0.6,0.2-1,0.4c-2.1,0.8-5.1,2.1-8.9,3.9c-6.8,3.1-16.3,7.7-28.2,13.7
			h-20.3V93.5z"/>
		<path class="st16" d="M281.7,66.4v0.2c1.9,0,4.5,0.4,6.6,2.4c2.5,2.4,3,6,2.6,7.8c-0.1,0.6-0.3,0.8-0.5,0.9h-0.1
			c-0.4,0-1.6-0.7-4.6-5.5l-0.1-0.2l-0.2,0.1c-0.1,0-8.4,3-8.7,3.2l-0.3,0.1c-0.3,0.1-0.6,0.2-1,0.4c-2.1,0.8-5.1,2.1-8.9,3.9
			c-6.8,3.1-16.3,7.7-28.2,13.7h-19.7c13.1-5.7,26.3-11.5,39.1-17.2l4.2-1.8l4.7-2c1.7-0.8,3.4-1.5,5.1-2.2s3.4-1.5,5.1-2.2l3.1-1.1
			c0,0,0.1,0,0.2,0c0.3,0,0.9-0.1,1.6-0.1L281.7,66.4 M281.7,66.4c-0.9,0-1.5,0.1-1.8,0.1l-3.1,1.1c-3.4,1.5-6.8,3-10.2,4.5
			c-3,1.3-5.9,2.6-8.9,3.9c-13.4,5.9-26.8,11.8-40.2,17.6h20.9c13.1-6.6,22-10.9,28.2-13.7c4-1.9,6.9-3.1,8.9-3.9
			c0.5-0.2,0.9-0.4,1.3-0.5s8.7-3.1,8.7-3.1c2.9,4.5,4.2,5.6,4.8,5.6c0.1,0,0.1,0,0.2,0c1.2-0.4,1.4-5.8-2-9.1
			C286.3,66.8,283.6,66.4,281.7,66.4L281.7,66.4z"/>
	</g>
	<g>
		<path class="st15" d="M294.8,93.5c-11.8-6-21.3-10.6-28.1-13.7c-4.1-1.9-6.9-3.1-8.9-3.9c-0.4-0.2-0.7-0.3-1-0.4l-0.3-0.1
			c-0.4-0.1-8.6-3.1-8.7-3.1h-0.1l-0.1,0.1c-2.9,4.6-4.2,5.6-4.7,5.6h-0.1c-0.2-0.1-0.4-0.4-0.6-1c-0.4-1.8,0.1-5.5,2.6-7.9
			c2.1-2,4.8-2.5,6.7-2.5c0.7,0,1.2,0.1,1.6,0.1h0.2l3.1,1.1c1.7,0.7,3.4,1.5,5.1,2.2s3.4,1.5,5.1,2.2l9.5,4.2
			c13,5.7,26,11.4,39,17.1L294.8,93.5L294.8,93.5z"/>
		<path class="st16" d="M251.5,66.4v0.2c0.7,0,1.2,0.1,1.6,0.1c0.1,0,0.1,0,0.2,0l3.1,1.1c1.7,0.7,3.4,1.5,5.1,2.2s3.4,1.5,5.1,2.2
			l4.7,2.1l4.1,1.8c12.8,5.6,26.1,11.4,39.1,17.1h-19.7c-11.9-6-21.3-10.6-28.2-13.7c-4.1-1.9-6.9-3.1-8.9-3.9
			c-0.4-0.2-0.7-0.3-1-0.4l-0.3-0.1c-0.4-0.1-8.6-3.1-8.7-3.1l-0.2-0.1l-0.1,0.2c-3,4.8-4.2,5.5-4.6,5.5h-0.1
			c-0.1,0-0.4-0.3-0.5-0.9c-0.4-1.8,0.1-5.4,2.6-7.8C246.9,66.9,249.5,66.5,251.5,66.4L251.5,66.4 M251.5,66.4
			c-1.8,0-4.6,0.4-6.8,2.5c-3.4,3.3-3.2,8.7-2,9.1c0.1,0,0.1,0,0.2,0c0.7,0,2-1.1,4.8-5.6c0,0,8.4,3,8.7,3.1
			c0.4,0.1,0.8,0.3,1.3,0.5c2,0.8,4.8,2,8.9,3.9c6.2,2.8,15.1,7.2,28.2,13.7h20.9c-13.4-5.9-26.8-11.7-40.2-17.6
			c-3-1.3-5.9-2.6-8.9-3.9c-3.4-1.5-6.8-3-10.2-4.5l-3.1-1.1C253,66.5,252.4,66.4,251.5,66.4L251.5,66.4z"/>
	</g>
	<polygon class="st17" points="315.7,93.7 315.7,121.6 271.8,121.6 268.7,104.8 264.6,104.8 261.4,121.6 217.5,121.6 217.5,93.7 	
		"/>
	<rect x="226.1" y="98" class="st18" width="26.7" height="19.3"/>
	<rect x="280.4" y="98" class="st19" width="26.7" height="19.3"/>
</g>
<path class="st20" d="M364.3,343v1.3c0,0.2,0.2,0.4,0.4,0.4h1.7h0.6h1.7c0.2,0,0.4-0.2,0.4-0.4V343v-0.7h-0.4h-3.9h-0.5"/>
<rect x="363.9" y="342.3" class="st21" width="5.6" height="0.7"/>
</svg>
