<?xml version="1.0" encoding="utf-8"?>
<!-- Generator: Adobe Illustrator 21.0.2, SVG Export Plug-In . SVG Version: 6.00 Build 0)  -->
<svg version="1.1" id="Layer_1" xmlns="http://www.w3.org/2000/svg" xmlns:xlink="http://www.w3.org/1999/xlink" x="0px" y="0px"
	 viewBox="0 0 700 200" style="enable-background:new 0 0 700 200;" xml:space="preserve">
<style type="text/css">
	.st0{fill:none;}
	.st1{fill:#FCE3EE;}
	.st2{fill:none;stroke:#7F5B65;stroke-width:7;stroke-miterlimit:10;}
	.st3{fill:#7F5B65;}
	.st4{fill:#7F5C65;stroke:#AAAAAA;stroke-width:5;stroke-miterlimit:10;}
	.st5{fill:#7F5C65;stroke:#7F5C65;stroke-miterlimit:10;}
	.st6{opacity:0.43;fill:#AAAAAA;enable-background:new    ;}
</style>
<g id="illustration">
	<g id="background_1_">
		<polygon class="st0" points="54.3,175.2 11.6,175.2 11.6,108.7 		"/>
		<polyline class="st0" points="291.6,144.9 283.8,140.6 268.8,132.2 168,75.8 79.9,163.1 75.1,167.9 67.8,175.1 82.6,175.1 
			688.1,175.1 700,175.1 709.8,175.1 709.8,0 700,0 575.6,0 597.8,34.5 513.3,111.6 495.9,99.3 402.5,33.4 370.2,68.6 360,79.8 
			358.5,81.4 		"/>
		<g id="background_2_">
			<path class="st1" d="M291.6,144.9l-7.8-4.3l-15-8.4L168,75.8l-88.1,87.3l-4.8,4.8l0,0l-7.3,7.3H57.2h-2.9l-42.7-66.5l-6.1-9.5
				l6.1-3.9V0H0v200h70.2H700v-6.3v-18.5V0H575.6l22.2,34.5l-84.5,77.1l-17.4-12.3l0,0l-93.4-65.9l-32.3,35.2L360,79.8l0,0l-1.5,1.7
				L291.6,144.9z"/>
			<polygon class="st1" points="291.6,144.9 283.8,140.6 268.8,132.2 168,75.8 79.9,163.1 75.1,167.9 75.1,167.9 67.8,175.1 
				57.2,175.1 54.3,175.1 11.6,108.7 5.5,99.1 11.6,95.2 11.6,0 575.6,0 597.8,34.5 513.3,111.6 495.9,99.3 495.9,99.3 402.5,33.4 
				370.2,68.6 360,79.8 360,79.8 358.5,81.4 			"/>
		</g>
	</g>
</g>
<g id="graph1">
	<g>
		<g>
			<polyline class="st2" points="69.9,171.6 168.8,100 278.5,144.8 308.4,121 367.6,73.7 461.5,122.2 556.5,58.9 			"/>
			<g>
				<polygon class="st3" points="597.6,31.5 555.4,93.8 553.4,60.9 523.9,46.4 				"/>
			</g>
		</g>
	</g>
	<circle class="st4" cx="69.9" cy="171.6" r="13.2"/>
	<circle class="st5" cx="367.4" cy="77.8" r="9.6"/>
	<circle class="st5" cx="169.3" cy="103" r="9.6"/>
	<circle class="st4" cx="462.1" cy="118" r="13.2"/>
	<circle class="st4" cx="279.2" cy="140.4" r="13.2"/>
	<polygon class="st6" points="360,79.8 360,79.8 360,79.8 367.6,73.7 372.7,76.4 381.8,81.1 397.9,89.4 419.7,100.6 431.2,106.5 
		439.6,110.9 444.3,113.3 448.1,115.3 455.3,129.5 470.4,129.2 477.4,111.7 485.9,106 493,101.2 500.5,96.2 596.8,33.1 688.1,175.1 
		700,193.7 700,200 70.2,200 59.5,183.3 54.3,175.1 57.2,175.1 63.8,183.6 74.7,183.6 78.9,181.3 82.5,176.7 82.6,168.2 79.9,163.1 
		168.8,100 228.8,124.5 240.9,129.5 248,132.4 255.7,135.5 263.1,138.5 268.6,151.3 274.4,152.3 282.2,153.6 291.6,144.9 
		291.1,134.8 294.2,132.3 298.6,128.8 304.9,123.8 323.3,109 	"/>
	<g>
		<path class="st0" d="M694,6v188H6V6H694 M700,0H0v200h700V0L700,0z"/>
	</g>
</g>
<g id="graph2">
</g>
<g id="graph3">
</g>
<g id="graph4">
</g>
</svg>
