<?xml version="1.0" encoding="utf-8"?>
<!-- Generator: Adobe Illustrator 21.0.2, SVG Export Plug-In . SVG Version: 6.00 Build 0)  -->
<svg version="1.1" xmlns="http://www.w3.org/2000/svg" xmlns:xlink="http://www.w3.org/1999/xlink" x="0px" y="0px"
	 viewBox="0 0 4450 1692.3" style="enable-background:new 0 0 4450 1692.3;" xml:space="preserve">
<style type="text/css">
	.st0{fill:#88BBDC;}
	.st1{opacity:0.46;stroke:#000000;stroke-miterlimit:10;enable-background:new    ;}
	.st2{fill:#9B9A98;stroke:#000000;stroke-miterlimit:10;}
	.st3{fill:none;stroke:#44423D;stroke-width:0.5;stroke-miterlimit:10;}
	.st4{fill:#282827;}
	.st5{fill:#7C7C7B;stroke:#60605F;stroke-miterlimit:10;}
	.st6{fill:#FFFFFF;fill-opacity:0.2;}
	.st7{fill:#A0591F;}
	.st8{fill:#F7D374;}
	.st9{fill:#EA9E4B;}
	.st10{fill:#FFFFFF;}
	.st11{fill:none;stroke:#FFFFFF;stroke-miterlimit:10;}
	.st12{fill:#D86552;}
	.st13{enable-background:new    ;}
	.st14{fill:#54AF7E;}
	.st15{fill:#172F72;}
	.st16{fill:#EFB783;}
	.st17{fill:#795738;}
	.st18{fill:#795738;stroke:#795738;stroke-width:0.5;stroke-miterlimit:10;}
	.st19{fill:#231F20;stroke:#231F20;stroke-width:0.5;stroke-miterlimit:10;}
	.st20{fill:#F7F7F7;}
	.st21{fill:#666262;}
	.st22{fill:#EDD043;}
	.st23{fill:#E03838;}
	.st24{fill:#FCFBFA;}
	.st25{fill:#3A3939;}
	.st26{fill:none;}
	.st27{display:none;fill:#861600;}
	.st28{display:none;opacity:0.97;fill:#F76126;enable-background:new    ;}
</style>
<g id="Layer_2">
</g>
<g id="Layer_1">
	<g id="vackground">
		<rect class="st0" width="4450" height="1684.3"/>
	</g>
	<g id="Layer_3">
	</g>
	<g>
		<path class="st1" d="M1757.4,817.3h227.8c26.5,0,48.1,21,48.1,46.9v485.4c0,25.9-21.6,46.9-48.1,46.9h-227.8
			c-26.5,0-48.1-21-48.1-46.9V864.2C1709.3,838.3,1730.9,817.3,1757.4,817.3z"/>
		<path d="M1989.6,815.6v495.7c0,12.4-5.5,23.2-13.8,31.3c-7.7,6.5-17.7,10.8-28.7,10.8h-238.3c-23.8,0-43.1-18.9-43.1-42.1V815.6
			c0-2.2,0-3.8,0.6-5.9c2.8-20.5,21-36.1,42.6-36.1h237.7C1970.3,774.1,1989.6,792.5,1989.6,815.6z"/>
		<rect x="1681.7" y="838.3" class="st2" width="291.3" height="450.4"/>
		<ellipse class="st3" cx="1827.6" cy="1322.1" rx="21" ry="20.5"/>
		<path class="st4" d="M1801.1,813h53.1c3.9,0,6.6,2.7,6.6,6.5l0,0c0,3.8-2.8,6.5-6.6,6.5h-53.1c-3.9,0-6.6-2.7-6.6-6.5l0,0
			C1794.5,815.6,1797.2,813,1801.1,813z"/>
		<ellipse class="st5" cx="1829.8" cy="792.5" rx="6.1" ry="5.9"/>
		<path class="st6" d="M1989.6,1315.7l-324-502.7c0-20.5,21.6-40.5,45.3-38.8h237.7c23.8,0,40.9,17.8,40.9,38.8l2.2,452.5"/>
	</g>
	<g>
		<polygon class="st7" points="3412.6,1054.1 3458.5,1054.1 3458.5,1105.3 		"/>
		<polygon class="st7" points="3924.5,1054.1 3869.8,1115 3869.8,1054.1 		"/>
		<g id="XMLID_3_">
			<g>
				<polygon class="st8" points="3924.5,1394.9 3412.6,1394.9 3548,1302.2 3601.1,1266 3605.5,1262.8 3731,1262.8 3736,1266 
					3788.5,1302.2 				"/>
			</g>
		</g>
		<polyline class="st9" points="3605.5,1262.8 3548,1302.2 3412.6,1394.9 3412.6,1054.1 3458.5,1105.3 3605.5,1262.8 		"/>
		<g id="XMLID_2_">
			<g>
				<polygon class="st9" points="3869.8,1115 3924.5,1054.1 3924.5,1394.9 3788.5,1302.2 3731,1262.8 				"/>
			</g>
		</g>
		<polyline class="st7" points="3412.6,1054.1 3412.6,1040 3412.6,1021.7 3431.9,1008.2 3458.5,990.4 3458.5,1054.1 		"/>
		<g id="XMLID_5_">
			<g>
				<path class="st7" d="M3869.8,983.9l54.7,37.8v32.4c-1.7,0-52.5,2.7-54.7,2.7C3869.8,1056.2,3869.8,984.5,3869.8,983.9z"/>
			</g>
		</g>
		<g id="XMLID_4_">
			<g>
				<polygon class="st10" points="3869.8,900.9 3869.8,1115 3731,1262.8 3605.5,1262.8 3458.5,1105.3 3458.5,1054.1 3458.5,990.4 
					3458.5,900.9 3587.8,900.9 3749.3,900.9 				"/>
				<polygon class="st7" points="3749.3,900.9 3587.8,900.9 3668.5,844.8 				"/>
			</g>
			<g>
				<polygon class="st11" points="3749.3,900.9 3869.8,900.9 3869.8,1115 3731,1262.8 3605.5,1262.8 3458.5,1105.3 3458.5,1054.1 
					3458.5,990.4 3458.5,900.9 3587.8,900.9 				"/>
			</g>
		</g>
		<g>
			<rect x="3519.3" y="959.7" class="st12" width="144.8" height="15.1"/>
			<rect x="3519.3" y="990.4" class="st12" width="289.1" height="15.1"/>
			<rect x="3519.3" y="1017.9" class="st12" width="289.1" height="15.1"/>
			<rect x="3519.3" y="1045.4" class="st12" width="289.1" height="15.1"/>
			<rect x="3519.3" y="1072.9" class="st12" width="289.1" height="15.1"/>
			<rect x="3519.3" y="1101" class="st12" width="289.1" height="15.1"/>
			<rect x="3519.3" y="1128.5" class="st12" width="289.1" height="15.1"/>
		</g>
	</g>
	<g>
		<g>
			<ellipse class="st12" cx="3668.5" cy="641.1" rx="135.4" ry="157.1"/>
		</g>
		<g class="st13">
			<path class="st10" d="M3698.1,720.1c-10.5,6.4-21.1,8.8-33.9,8.8c-31.2,0-57.7-26.5-57.7-68.9c0-45.5,27.2-84.8,69.5-84.8
				c33.1,0,55.4,26.9,55.4,63.8c0,33.1-16,52.5-33.9,52.5c-7.6,0-14.7-6-14.1-19.4h-0.8c-6.7,13-15.4,19.4-26.8,19.4
				c-11,0-20.6-10.4-20.6-27.8c0-27.4,18.7-52.3,45.1-52.3c8.2,0,15.4,2,20.4,4.6l-6.5,40c-2.9,16.8-0.6,24.5,5.7,24.7
				c9.7,0.2,20.6-14.8,20.6-40.4c0-32-16.6-55-46.1-55c-31,0-57.1,28.5-57.1,73.3c0,36.9,20.8,59.6,48.9,59.6
				c10.9,0,20.9-2.6,28.7-7.7L3698.1,720.1z M3687.6,624.7c-1.9-0.7-5.1-1.5-9.5-1.5c-16.8,0-30.3,18.3-30.3,39.7
				c0,9.7,4.2,16.8,12.6,16.8c11,0,21.1-16.3,23.2-30L3687.6,624.7z"/>
		</g>
	</g>
	<g>
		<path class="st14" d="M2548,546.2v253.2c0,26.9-18.8,49.4-42.6,49.4h-295.8l-96.7,87.2v-87.2H1973c-23.2,0-42.6-21.8-42.6-49.4
			V546.2c0-26.9,18.8-49.4,42.6-49.4h531.8C2529.2,496.8,2548,519.3,2548,546.2z"/>
		<path class="st10" d="M2168.7,673.1c0,43-18.8,80.8-47.5,103.2c-17.1,13.5-38.1,21.2-60.3,21.2c-22.7,0-43.7-8.3-61.4-22.4
			c-28.2-22.4-46.4-60.3-46.4-102.6c0-68.6,48.1-125,107.8-125S2168.7,603.9,2168.7,673.1z"/>
		<g id="Bruno_1_">
			<g id="Bruno_3_">
				<g>
					<path class="st15" d="M2121.2,776.3c-17.1,13.5-38.1,21.2-60.3,21.2c-22.7,0-43.7-8.3-61.4-22.4c11.1-10.9,8.8-12.8,13.8-14.7
						c8.3-3.2,17.1,0,27.6-3.8l0,0c0.6,7.7,8.8,14.1,18.2,14.1c9.4,0,17.7-6.4,18.2-14.1l0,0c11.1,3.8,19.9,0.6,28.7,4.5
						C2112.3,763.5,2111.8,766.7,2121.2,776.3z"/>
					<path class="st16" d="M2099.6,609c2.8,1.9,4.4,6.4,6.6,15.4c-1.7,0.6-3.9,0.6-5.5,0.6c-7.2,0-13.3-6.4-13.3-14.7c0,0,0,0,0-0.6
						c1.7-1.3,4.4-3.2,6.1-4.5C2096.3,606.5,2098.5,608.4,2099.6,609z"/>
					<path class="st16" d="M2119,661.6c1.1,2.6,0,4.5-1.1,9.6s-1.1,7.7-1.1,10.3c0,1.3,0,3.2-0.6,5.1c0,0.6-1.1,1.9-2.8,2.6
						c-0.6,0-1.1,0-2.2,0c0.6-13.5,1.7-23.1,1.7-32.1c1.1,0,2.2,0.6,3.3,1.3C2116.8,658.4,2118.4,659.7,2119,661.6z"/>
					<path class="st17" d="M2113.4,606.5c0,1.9,0,4.5,0,7.7c-1.1,4.5-3.9,8.3-8.3,10.3c-1.7-9-4.4-12.2-7.2-14.1
						c-0.6-0.6-2.8-1.9-5.5-3.2c3.9-3.2,5.5-6.4,6.1-10.3h1.1C2106.8,596.2,2111.8,600.7,2113.4,606.5z"/>
					<path class="st16" d="M2110.7,659c0-1.9,0-12.8-1.7-26.9c-0.6-3.2-1.7-5.8-2.3-8.3c0-0.6,0-0.6-0.6-1.3v-0.6h-0.6l0,0
						c-1.1,0.6-1.7,0.6-3.4,0.6c-6.8,0-12.5-5.8-13.6-12.8V609c0-0.6,0-1.3,0-1.9l0,0l0,0c0,0,0,0,0-0.6h-0.6l0,0
						c-0.6,0.6-1.1,0.6-1.7,0.6c-1.1,0.6-2.8,1.3-4,1.3l0,0c-3.4,0.6-7.4,1.3-11.4,1.3c-5.1,0-10.2-0.6-14.2-2.6
						c-4.5,0.6-9.1-0.6-11.4-1.3c-0.6,0-1.1-0.6-1.7-0.6c-4.5-1.9-7.4-3.8-10.8-4.5c-0.6,0-1.1,0-1.7,0c-5.1,0-9.1,3.2-9.7,3.8
						c-4,3.2-6.8,8.3-9.1,26.3c-0.6,3.8-0.6,7.1-1.1,9.6c0,0,0,0,0,0.6c-0.6,5.8-0.6,10.3-0.6,13.5c0,0.6,0,0.6,0,1.3
						c0,0.6,0,1.3,0,1.9c0,2.6,0,4.5,0,6.4c0.6,22.4,3.4,31.4,5.1,35.9c4.5,10.3,8.5,12.2,10.2,12.8c1.7,0,5.7,0,8.5-2.6
						c0.6-0.6,1.1-1.9,2.8-3.2c1.1-1.3,1.1-0.6,2.8-1.9c1.7-1.3,2.3-1.9,4-3.2c0.6,0,1.1-0.6,2.3-0.6s1.7,0,2.3,0
						c1.1,0,1.1,1.9,2.3,2.6c1.1,0.6,2.3,0,4,0c1.1,0,1.1,0.6,2.3,0.6c1.1,0,2.3,0.6,4,0c1.7,0.6,2.8,0,4.5,0c1.1,0,1.1-0.6,2.3-0.6
						c1.7-0.6,2.8,0.6,4,0s1.1-1.9,2.3-2.6c0.6,0,1.1,0,2.3,0c1.1,0,1.7,0.6,2.3,0.6c1.7,0.6,2.3,1.9,4,3.2s1.7,1.3,2.8,1.9
						c1.7,1.3,2.3,2.6,2.8,3.2c2.3,2.6,6.8,2.6,8.5,2.6c2.3,0,5.7-1.9,10.2-12.8C2107.3,696.8,2110.7,685.9,2110.7,659z"/>
					<path class="st17" d="M2114,614.1c0,0,0-1.3-0.6-2.6l0,0c-0.6-2.6-0.6-5.8-0.6-5.8c-1.1,4.5-3.3,13.5-6.6,16h-0.6l0,0v0.6v0.6
						c0.6,2.6,1.1,6.4,1.7,9.6c1.7,12.8,1.7,22.4,1.7,24.4c0,24.4-3.3,34-5,37.8c-4.4,9.6-7.7,10.9-10,11.5c-1.7,0-5.5,0-8.3-1.9
						c-0.6-0.6-1.1-1.9-2.8-3.2c-1.1-0.6-1.1-0.6-2.8-1.9c-1.7-1.3-2.2-1.9-3.9-2.6c-0.6,0-1.1-0.6-2.2-0.6c-0.6,0-1.7,0-2.2,0
						c-1.1,0-1.1,1.9-2.2,1.9c-1.1,0.6-2.2,0-3.9,0c-1.1,0-1.1,0.6-2.2,0.6s-2.2,0.6-3.9,0c-1.7,0-2.8,0-3.9,0
						c-1.1,0-1.1-0.6-2.2-0.6c-1.7-0.6-2.8,0.6-3.9,0s-1.1-1.9-2.2-1.9c-0.6,0-1.1,0-2.2,0c-1.1,0-1.7,0.6-2.2,0.6
						c-1.7,0.6-2.2,1.3-3.9,2.6c-1.7,1.3-1.7,0.6-2.8,1.9c-1.7,1.3-2.2,1.9-2.8,3.2c-2.2,2.6-6.6,2.6-8.3,1.9
						c-1.7,0-5.5-1.9-10-11.5c-1.7-3.8-4.4-11.5-5-30.8c0-1.9,0-4.5,0-6.4c0-0.6,0-0.6,0-1.9c0-0.6,0-0.6,0-1.3
						c0-3.2,0-7.7,0.6-13.5c0,0,0,0,0-0.6c0-2.6,0.6-5.1,1.1-7.7c2.2-16,5-21.2,8.8-23.7c0.6-0.6,4.4-3.2,8.8-3.8
						c5,0,7.7,2.6,13.8,4.5c1.7,0.6,3.3,0.6,6.1,1.3l0,0c1.1,0,2.8,0,4.4,0c-4.4-1.3-8.8-3.8-11.6-6.4c-3.3-3.2-5.5-7.1-5.5-11.5
						c0-11.5,13.8-20.5,31-20.5c1.7,0,3.9,0,5.5,0.6c0,0,0,0,0.6,0c2.2,0,3.9,0.6,6.1,1.3c-5-1.9-9.4-3.2-12.2-3.8
						c-3.9-0.6-6.6-1.3-8.3-1.9h-1.1c-2.2,0-5,0.6-8.3,1.9c-8.8,1.9-34.3,8.3-42.6,26.3c-1.7,3.8-1.7,5.8-2.2,17.3
						c-0.6,18.6-0.6,30.1,0,41.7l0,0v0.6c0.6,9,1.1,18.6,1.7,31.4v0.6c0.6,5.1,0.6,10.3,1.1,16c0,3.2,0.6,7.7,2.8,14.1
						c5,13.5,16,20.5,19.9,23.1c3.9,2.6,8.3,4.5,11.6,5.8c0.6,0,0.6,0,1.1,0c1.1-1.9,2.8-3.2,4.4-4.5c0,0,0,0,0.6,0c0,0,0,0,0.6,0
						c2.8-1.9,6.6-3.2,11.6-2.6c4.4,0,8.3,1.3,11.6,3.2c0,0,0.6,0,0.6,0.6c0,0,0,0,0.6,0c1.1,1.3,2.8,2.6,3.3,3.8
						c0.6,0,0.6,0,1.1-0.6c3.3-1.3,7.2-2.6,10.5-5.1c3.9-2.6,14.4-9.6,19.9-23.1c2.2-5.8,2.8-10.9,2.8-14.1c0.6-6.4,0.6-11.5,1.1-16
						v-0.6c0.6-12.8,1.7-22.4,1.7-31.4c0-0.6,0-0.6,0-1.3C2114.5,644.9,2114.5,633.4,2114,614.1z M2072.5,707.1
						c1.1,0,1.7,1.3,1.7,1.9c0,0,0,1.3-6.1,3.2c-2.2,0.6-5,1.3-8.8,1.3s-6.6-0.6-8.8-1.3c-5.5-1.3-6.1-2.6-6.1-3.2l0,0l0,0l0,0v-0.6
						c0-0.6,1.1-1.3,1.7-1.3c0.6,0,0.8,0.4,2.5,1c1,0.7,1.9,0.9,1.9,0.9h0.6c0.6,0,1.7,0,2.8,0c1.7,0,3.3,0,5.5,0l0,0
						c2.2,0,4.4,0,5.5,0c2.2,0,3.9,0.2,4.5-0.4"/>
					<path class="st18" d="M2106.3,646.2c0.6,1.3-1.1,3.8-2.8,4.5c-1.1,0-1.7-0.6-2.8-1.3c-2.8-1.9-5.5-1.9-11.6-1.9
						c-3.9,0-5.5,0-7.2,0.6c-2.8,1.3-2.8,3.2-4.4,3.2c-2.2,0-3.9-3.2-3.9-5.1c0-0.6,0-1.3,0-1.9c0,0,0.6-0.6,2.2-0.6
						s2.2-0.6,2.2-0.6c2.8-0.6,3.3-0.6,5-1.3c2.2,0,3.9,0,6.1,0c3.9,0,6.1,0.6,10,1.9C2105.1,644.9,2105.7,645.6,2106.3,646.2z"/>
					<path class="st17" d="M2100.2,593.6c0,0.6,0,1.9,0,3.2c-5.5,0-10.5,4.5-12.2,9.6c-4.4,0-6.6,2.6-12.2,4.5
						c-3.3,0.6-8.3,1.9-14.9,0.6c-1.7,0-6.6,0-8.3,0c-10-3.2-22.7-10.3-22.7-18.6c0-10.9,13.3-22.4,30.4-22.4
						c4.4,0,17.7,2.6,21.6,3.8c2.8,0.6,5.5,1.9,8.3,3.2C2095.7,582.1,2100.2,587.9,2100.2,593.6z"/>
					<path class="st17" d="M2099.6,596.8c-0.6,3.8-3.3,7.1-7.2,10.3c-1.1,0-2.8,0-3.9,0c-0.6,0-1.1,0-1.7,0
						C2089.1,600.7,2094.1,596.8,2099.6,596.8z"/>
					<path class="st16" d="M2092.4,607.1c-1.7,1.3-3.9,2.6-5.5,3.2c0-1.3,0-2.6,0.6-3.8c0.6,0,1.7,0,2.2,0
						C2090.8,606.5,2091.3,606.5,2092.4,607.1z"/>
					<ellipse class="st19" cx="2088.6" cy="660.9" rx="5.5" ry="5.8"/>
					<path class="st16" d="M2087.5,606.5c-0.6,1.3-0.6,2.6-0.6,4.5c-5,1.9-11.1,3.8-17.7,3.8c-5,0-9.4-0.6-13.8-1.9
						c1.7,0,3.3,0,4.4,0c6.6,0.6,11.6,0,14.9-0.6C2080.3,609,2083,606.5,2087.5,606.5z"/>
					<path class="st16" d="M2077.5,756.5C2078.1,756.5,2078.1,757.1,2077.5,756.5c0,8.3-8.3,13.5-17.7,14.7
						c-9.4,0.6-18.2-5.1-18.8-14.1c0.6,0,1.7,0,2.2-0.6c1.1-0.6,3.3-1.3,4.4-3.8c0.6-0.6,1.1-1.9,1.1-3.2c4.4,0.6,7.7,0.6,10,1.3
						c2.8,0,7.2,0,12.2-1.3c0,1.3,0.6,2.6,1.7,3.8C2074.7,755.2,2076.4,756.5,2077.5,756.5z"/>
					<path class="st16" d="M2073.6,706.6c0.6,0,1.7,1.5,1.7,2.9c0,0,0,2.2-6.3,4.4c-2.3,0.7-5.2,1.5-9.2,2.2c-4,0-6.9-1.5-9.2-2.2
						c-6.3-2.2-6.3-3.7-6.3-4.4c0-1.5,0.6-2.9,1.7-2.9c1.1,0,1.7,0,3.4,1.5c0.6,0,2.3,0,4.6,0.7c1.7,0,3.4,0,5.7,0l0,0
						c2.3,0,4.6,0,5.7,0c2.9,0,4,0,4.6-0.7C2071.8,707.3,2072.4,706.6,2073.6,706.6z"/>
					<path class="st17" d="M2073.6,742.4c2.2,1.3,3.9,3.2,5,5.1c-1.7,0.6-3.3,1.3-5,1.9C2073.1,746.8,2073.1,744.9,2073.6,742.4z"/>
					<path class="st17" d="M2073.6,749.4c-5.5,1.3-10,1.9-13.8,1.9c-2.8,0-6.6,0-11.1-1.3c0.6-2.6,0-5.8,0-7.7
						c3.9-1.9,7.7-3.8,12.2-3.8c5,0,9.4,1.3,13.3,4.5C2073.6,744.3,2073.6,746.8,2073.6,749.4z"/>
					<path class="st17" d="M2049.3,741.7c0,1.9,0.6,5.1,0,7.7c-1.7,0-3.9-1.3-6.1-1.9C2044.9,745.6,2047.1,743.6,2049.3,741.7z"/>
					<path class="st18" d="M2048.8,645.6c0.6,0.6,0,1.3,0,1.9c0,1.9-1.7,4.5-3.9,5.1c-1.7,0-2.2-1.9-4.4-3.2
						c-1.7-0.6-3.3-0.6-7.2-0.6c-6.1,0-8.8,0-11.6,1.9c-1.1,0.6-1.7,1.3-2.8,1.3c-1.7,0-2.8-2.6-2.8-4.5c0-0.6,0.6-1.3,6.6-3.2
						c3.9-1.3,6.1-1.9,10-1.9c2.2,0,3.9,0,6.1,0c1.7,0,2.8,0.6,5,1.3c0.6,0,1.1,0,2.2,0.6C2048.2,645.6,2048.8,645.6,2048.8,645.6z"
						/>
					<ellipse class="st19" cx="2033.3" cy="660.9" rx="5.5" ry="5.8"/>
					<path class="st16" d="M2008.4,689.1c-0.6,0-1.1,0-1.7,0c-1.7-0.6-2.2-1.9-2.8-2.6c-1.1-1.9-0.6-3.8-0.6-5.1
						c0-2.6,0-5.1-1.1-10.3s-2.2-7.1-1.1-9.6c0.6-1.9,1.7-3.2,2.2-3.2c1.1-0.6,2.2-1.3,3.3-1.3
						C2006.7,666.1,2007.3,675.7,2008.4,689.1z"/>
				</g>
			</g>
		</g>
		<rect x="2185.3" y="596.2" class="st10" width="324.5" height="25.6"/>
		<rect x="2185.3" y="655.8" class="st10" width="324.5" height="25.6"/>
		<rect x="2185.3" y="715.4" class="st10" width="324.5" height="25.6"/>
	</g>
	<g>
		<g>
			<rect x="2602.7" y="549.2" class="st20" width="688.8" height="831.7"/>
			<rect x="2602.7" y="545.4" class="st12" width="688.8" height="194.7"/>
			<rect x="2698.3" y="978.5" class="st21" width="498.1" height="60.9"/>
			<rect x="2696.1" y="1102.6" class="st21" width="211.7" height="45.8"/>
			<rect x="2696.1" y="1179.2" class="st21" width="211.7" height="45.8"/>
			<rect x="2696.1" y="1255.8" class="st21" width="211.7" height="47.5"/>
			<rect x="2958.2" y="914.4" class="st21" width="231.6" height="15.1"/>
			<rect x="2958.2" y="883.6" class="st21" width="231.6" height="15.1"/>
			<rect x="2958.2" y="853.4" class="st21" width="231.6" height="15.1"/>
			<rect x="2958.2" y="822.7" class="st21" width="231.6" height="15.1"/>
			<rect x="2958.2" y="791.9" class="st21" width="231.6" height="15.1"/>
			<rect x="2698.3" y="914.4" class="st21" width="231.6" height="15.1"/>
			<rect x="2698.3" y="883.6" class="st21" width="231.6" height="15.1"/>
			<rect x="2698.3" y="853.4" class="st21" width="231.6" height="15.1"/>
			<rect x="2698.3" y="822.7" class="st21" width="231.6" height="15.1"/>
			<rect x="2698.3" y="791.9" class="st21" width="231.6" height="15.1"/>
			<g>
				<g id="XMLID_1_">
					<g>
						<polygon class="st0" points="3063.2,1129 2980.3,1166.2 2980.3,1102.6 3034.4,1102.6 						"/>
						<polygon class="st0" points="3088.6,1102.6 3190.3,1102.6 3190.3,1193.2 3137.8,1160.9 						"/>
						<polygon class="st22" points="3087.5,1155.5 2980.3,1213.7 2980.3,1166.2 3063.2,1129 3034.4,1102.6 3088.6,1102.6 
							3137.8,1160.9 3190.3,1193.2 3190.3,1247.7 3153.9,1219.1 3087.5,1297.9 3026.7,1297.9 3120.7,1200.2 						"/>
						<polygon class="st0" points="3087.5,1155.5 3120.7,1200.2 3026.7,1297.9 2980.3,1297.9 2980.3,1213.7 						"/>
						<polygon class="st0" points="3190.3,1247.7 3190.3,1297.9 3087.5,1297.9 3153.9,1219.1 						"/>
					</g>
				</g>
				<g>
					<ellipse class="st23" cx="3120.7" cy="1154.4" rx="22.7" ry="25.4"/>
					<polygon class="st23" points="3120.7,1213.7 3143.4,1160.9 3098.6,1160.9 					"/>
					<ellipse class="st10" cx="3120.7" cy="1154.4" rx="10.5" ry="11.9"/>
				</g>
			</g>
		</g>
		<g class="st13">
			<path class="st24" d="M2719.3,688.4c-3.4,1.7-10.2,3.4-18.9,3.4c-20.2,0-35.4-12.9-35.4-36.5c0-22.6,15.2-37.9,37.4-37.9
				c8.9,0,14.6,1.9,17,3.2l-2.2,7.6c-3.5-1.7-8.5-3-14.5-3c-16.8,0-28,10.8-28,29.8c0,17.7,10.1,29,27.5,29c5.6,0,11.4-1.2,15.1-3
				L2719.3,688.4z"/>
			<path class="st24" d="M2789.9,653.9c0,24.9-15,38-33.3,38c-18.9,0-32.2-14.8-32.2-36.7c0-22.9,14.1-37.9,33.3-37.9
				C2777.3,617.4,2789.9,632.5,2789.9,653.9z M2734.3,655.1c0,15.4,8.3,29.3,22.9,29.3c14.7,0,23-13.6,23-30
				c0-14.4-7.4-29.4-22.9-29.4C2742,625,2734.3,639.2,2734.3,655.1z"/>
			<path class="st24" d="M2801.9,690.8v-72.2h10.1l23,36.5c5.3,8.5,9.5,16.1,12.9,23.5l0.2-0.1c-0.9-9.6-1.1-18.4-1.1-29.7v-30.2
				h8.7v72.2h-9.4l-22.8-36.6c-5-8-9.8-16.3-13.4-24.1l-0.3,0.1c0.5,9.1,0.7,17.8,0.7,29.8v30.9H2801.9z"/>
			<path class="st24" d="M2885.5,626.5h-21.8v-7.9h53v7.9h-21.9v64.3h-9.4V626.5z"/>
			<path class="st24" d="M2928.4,668.1l-7.4,22.7h-9.6l24.3-72.2h11.2l24.4,72.2h-9.9l-7.6-22.7H2928.4z M2951.8,660.8l-7-20.8
				c-1.6-4.7-2.7-9-3.7-13.2h-0.2c-1.1,4.3-2.2,8.7-3.6,13.1l-7,20.9H2951.8z"/>
			<path class="st24" d="M3030.3,688.4c-3.4,1.7-10.2,3.4-18.9,3.4c-20.2,0-35.4-12.9-35.4-36.5c0-22.6,15.2-37.9,37.4-37.9
				c8.9,0,14.6,1.9,17,3.2l-2.2,7.6c-3.5-1.7-8.5-3-14.5-3c-16.8,0-28,10.8-28,29.8c0,17.7,10.1,29,27.5,29c5.6,0,11.4-1.2,15.1-3
				L3030.3,688.4z"/>
			<path class="st24" d="M3058.5,626.5h-21.8v-7.9h53v7.9h-21.9v64.3h-9.4V626.5z"/>
			<path class="st24" d="M3129.5,618.5v42.8c0,16.2,7.1,23,16.7,23c10.6,0,17.4-7.1,17.4-23v-42.8h9.4v42.1
				c0,22.2-11.6,31.3-27.1,31.3c-14.7,0-25.7-8.5-25.7-30.9v-42.5H3129.5z"/>
			<path class="st24" d="M3187.8,679.4c4.1,2.6,10.2,4.7,16.6,4.7c9.5,0,15-5,15-12.3c0-6.8-3.8-10.6-13.5-14.4
				c-11.7-4.2-18.9-10.3-18.9-20.5c0-11.3,9.2-19.6,23.2-19.6c7.3,0,12.6,1.7,15.8,3.5l-2.6,7.6c-2.3-1.3-7.1-3.4-13.6-3.4
				c-9.8,0-13.5,5.9-13.5,10.8c0,6.8,4.4,10.1,14.2,13.9c12.1,4.7,18.3,10.6,18.3,21.2c0,11.1-8.2,20.8-25.1,20.8
				c-6.9,0-14.5-2-18.3-4.6L3187.8,679.4z"/>
		</g>
	</g>
	<g>
		<path class="st25" d="M299.4,406.2h90.4v20.6H274.1V236h25.3V406.2z"/>
		<path class="st25" d="M473.5,429.4c-19.2,0-34.9-6.3-46.9-18.9c-12.1-12.6-18.1-29.5-18.1-50.6v-4.5c0-14.1,2.7-26.6,8.1-37.7
			c5.4-11,12.9-19.7,22.5-25.9c9.7-6.2,20.1-9.4,31.4-9.4c18.4,0,32.8,6.1,43,18.2c10.2,12.1,15.3,29.5,15.3,52.2v10.1h-96
			c0.3,14,4.4,25.3,12.3,33.9c7.8,8.6,17.8,12.9,29.8,12.9c8.6,0,15.8-1.7,21.8-5.2c5.9-3.5,11.1-8.1,15.6-13.9L527,402
			C515.1,420.2,497.3,429.4,473.5,429.4z M470.5,302.3c-9.8,0-18,3.6-24.6,10.7c-6.6,7.1-10.7,17.1-12.3,29.9h71v-1.8
			c-0.7-12.3-4-21.9-10-28.6C488.7,305.7,480.6,302.3,470.5,302.3z"/>
		<path class="st25" d="M589.7,250.6V285h26.5v18.7h-26.5v88c0,5.7,1.2,10,3.5,12.8c2.4,2.8,6.4,4.3,12.1,4.3
			c2.8,0,6.6-0.5,11.5-1.6v19.5c-6.4,1.7-12.6,2.6-18.6,2.6c-10.8,0-19-3.3-24.5-9.8c-5.5-6.6-8.3-15.9-8.3-27.9v-87.9h-25.8V285
			h25.8v-34.3H589.7z"/>
		<path class="st25" d="M646.2,289.7l-13.8-9.4c8.1-11.4,12.3-23.3,12.6-35.9v-18.9h24v17c-0.1,8.7-2.3,17.5-6.5,26.1
			C658.3,277.4,652.8,284.4,646.2,289.7z"/>
		<path class="st25" d="M766,389.1c0-6.6-2.5-11.6-7.4-15.3c-4.9-3.6-13.5-6.7-25.8-9.4c-12.3-2.6-22-5.8-29.2-9.4
			c-7.2-3.7-12.5-8-16-13.1c-3.5-5.1-5.2-11.1-5.2-18.1c0-11.6,4.9-21.4,14.7-29.5c9.8-8,22.4-12.1,37.7-12.1
			c16.1,0,29.1,4.2,39.1,12.4c10,8.3,15,18.9,15,31.8h-24.4c0-6.6-2.8-12.4-8.5-17.2c-5.6-4.8-12.7-7.2-21.3-7.2
			c-8.8,0-15.7,1.9-20.7,5.8c-5,3.8-7.5,8.9-7.5,15.1c0,5.9,2.3,10.3,6.9,13.2c4.6,3,13,5.8,25.1,8.5c12.1,2.7,21.9,5.9,29.4,9.7
			c7.5,3.8,13.1,8.3,16.7,13.6c3.6,5.3,5.4,11.7,5.4,19.3c0,12.7-5.1,22.8-15.2,30.5c-10.1,7.6-23.3,11.5-39.4,11.5
			c-11.4,0-21.4-2-30.1-6c-8.7-4-15.6-9.6-20.5-16.8c-4.9-7.2-7.4-15-7.4-23.4h24.2c0.4,8.1,3.7,14.6,9.8,19.3
			c6.1,4.8,14.1,7.1,24,7.1c9.2,0,16.5-1.9,22.1-5.6C763.2,400.3,766,395.3,766,389.1z"/>
		<path class="st25" d="M970.8,389.1c0-6.6-2.5-11.6-7.4-15.3c-4.9-3.6-13.5-6.7-25.8-9.4c-12.3-2.6-22-5.8-29.2-9.4
			c-7.2-3.7-12.5-8-16-13.1c-3.5-5.1-5.2-11.1-5.2-18.1c0-11.6,4.9-21.4,14.7-29.5c9.8-8,22.4-12.1,37.7-12.1
			c16.1,0,29.1,4.2,39.1,12.4c10,8.3,15,18.9,15,31.8h-24.4c0-6.6-2.8-12.4-8.5-17.2c-5.6-4.8-12.7-7.2-21.3-7.2
			c-8.8,0-15.7,1.9-20.7,5.8c-5,3.8-7.5,8.9-7.5,15.1c0,5.9,2.3,10.3,6.9,13.2c4.6,3,13,5.8,25.1,8.5c12.1,2.7,21.9,5.9,29.4,9.7
			c7.5,3.8,13.1,8.3,16.7,13.6c3.6,5.3,5.4,11.7,5.4,19.3c0,12.7-5.1,22.8-15.2,30.5c-10.1,7.6-23.3,11.5-39.4,11.5
			c-11.4,0-21.4-2-30.1-6c-8.7-4-15.6-9.6-20.5-16.8c-4.9-7.2-7.4-15-7.4-23.4h24.2c0.4,8.1,3.7,14.6,9.8,19.3
			c6.1,4.8,14.1,7.1,24,7.1c9.2,0,16.5-1.9,22.1-5.6C968,400.3,970.8,395.3,970.8,389.1z"/>
		<path class="st25" d="M1059.5,250.6V285h26.5v18.7h-26.5v88c0,5.7,1.2,10,3.5,12.8c2.4,2.8,6.4,4.3,12.1,4.3
			c2.8,0,6.6-0.5,11.5-1.6v19.5c-6.4,1.7-12.6,2.6-18.6,2.6c-10.8,0-19-3.3-24.5-9.8c-5.5-6.6-8.3-15.9-8.3-27.9v-87.9h-25.8V285
			h25.8v-34.3H1059.5z"/>
		<path class="st25" d="M1201.8,426.8c-1.4-2.8-2.5-7.8-3.4-14.9c-11.3,11.7-24.7,17.6-40.4,17.6c-14,0-25.4-4-34.4-11.9
			c-9-7.9-13.4-17.9-13.4-30.1c0-14.8,5.6-26.2,16.8-34.4c11.2-8.2,27-12.3,47.4-12.3h23.6v-11.1c0-8.5-2.5-15.2-7.6-20.2
			c-5.1-5-12.5-7.5-22.4-7.5c-8.6,0-15.9,2.2-21.8,6.6c-5.9,4.4-8.8,9.7-8.8,15.9h-24.4c0-7.1,2.5-13.9,7.5-20.5
			c5-6.6,11.8-11.8,20.4-15.7c8.6-3.8,18.1-5.8,28.4-5.8c16.3,0,29.1,4.1,38.4,12.3c9.3,8.2,14.1,19.4,14.4,33.7v65.3
			c0,13,1.7,23.4,5,31.1v2.1H1201.8z M1161.6,408.3c7.6,0,14.8-2,21.6-5.9c6.8-3.9,11.7-9,14.8-15.3V358h-19
			c-29.7,0-44.6,8.7-44.6,26.1c0,7.6,2.5,13.5,7.6,17.8C1147.1,406.1,1153.6,408.3,1161.6,408.3z"/>
		<path class="st25" d="M1304.6,391.2l33-106.3h25.9l-57,163.7c-8.8,23.6-22.8,35.4-42.1,35.4l-4.6-0.4l-9-1.7v-19.7l6.6,0.5
			c8.2,0,14.6-1.7,19.2-5c4.6-3.3,8.4-9.4,11.3-18.2l5.4-14.4L1242.8,285h26.5L1304.6,391.2z"/>
		<path class="st25" d="M1451.8,247.4c0-3.9,1.2-7.2,3.6-10c2.4-2.7,6-4.1,10.7-4.1c4.7,0,8.3,1.4,10.7,4.1c2.4,2.7,3.7,6,3.7,10
			s-1.2,7.2-3.7,9.8c-2.4,2.6-6,3.9-10.7,3.9c-4.7,0-8.3-1.3-10.7-3.9C1453,254.6,1451.8,251.3,1451.8,247.4z M1478,426.8h-24.2V285
			h24.2V426.8z"/>
		<path class="st25" d="M1539.7,285l0.8,17.8c10.8-13.6,25-20.4,42.5-20.4c30,0,45.1,16.9,45.3,50.7v93.7H1604v-93.8
			c-0.1-10.2-2.4-17.8-7-22.7c-4.6-4.9-11.7-7.3-21.4-7.3c-7.9,0-14.8,2.1-20.7,6.3c-5.9,4.2-10.6,9.7-13.9,16.5v101h-24.2V285
			H1539.7z"/>
		<path class="st25" d="M1764.2,250.6V285h26.5v18.7h-26.5v88c0,5.7,1.2,10,3.5,12.8c2.4,2.8,6.4,4.3,12.1,4.3
			c2.8,0,6.6-0.5,11.5-1.6v19.5c-6.4,1.7-12.6,2.6-18.6,2.6c-10.8,0-19-3.3-24.5-9.8c-5.5-6.6-8.3-15.9-8.3-27.9v-87.9h-25.8V285
			h25.8v-34.3H1764.2z"/>
		<path class="st25" d="M1809.9,354.6c0-13.9,2.7-26.4,8.2-37.5c5.5-11.1,13.1-19.7,22.8-25.7c9.7-6,20.9-9,33.3-9
			c19.3,0,34.9,6.7,46.8,20c11.9,13.4,17.9,31.1,17.9,53.3v1.7c0,13.8-2.6,26.2-7.9,37.1c-5.3,11-12.8,19.5-22.7,25.6
			c-9.8,6.1-21.1,9.2-33.9,9.2c-19.2,0-34.8-6.7-46.7-20c-11.9-13.4-17.9-31.1-17.9-53.1V354.6z M1834.3,357.4
			c0,15.7,3.6,28.3,10.9,37.9c7.3,9.5,17.1,14.3,29.3,14.3c12.3,0,22.1-4.8,29.4-14.5c7.2-9.7,10.9-23.2,10.9-40.6
			c0-15.5-3.7-28.1-11.1-37.8c-7.4-9.7-17.2-14.5-29.4-14.5c-12,0-21.6,4.8-29,14.3C1837.9,326.1,1834.3,339.7,1834.3,357.4z"/>
		<path class="st25" d="M2056.9,412.7c-9.4,11.1-23.3,16.6-41.5,16.6c-15.1,0-26.6-4.4-34.5-13.2c-7.9-8.8-11.9-21.8-12-39V285h24.2
			v91.6c0,21.5,8.7,32.2,26.2,32.2c18.5,0,30.8-6.9,37-20.7V285h24.2v141.8h-23.1L2056.9,412.7z"/>
		<path class="st25" d="M2174.2,409.6c8.6,0,16.2-2.6,22.7-7.9c6.5-5.2,10-11.8,10.7-19.7h22.9c-0.4,8.1-3.2,15.9-8.4,23.2
			c-5.2,7.3-12,13.2-20.6,17.6c-8.6,4.4-17.7,6.6-27.3,6.6c-19.3,0-34.7-6.4-46.1-19.3c-11.4-12.9-17.1-30.5-17.1-52.9v-4.1
			c0-13.8,2.5-26.1,7.6-36.8c5.1-10.7,12.3-19.1,21.8-25c9.5-5.9,20.7-8.9,33.6-8.9c15.9,0,29.1,4.8,39.6,14.3
			c10.5,9.5,16.1,21.9,16.8,37.1h-22.9c-0.7-9.2-4.2-16.7-10.4-22.6c-6.2-5.9-14-8.8-23.1-8.8c-12.3,0-21.9,4.4-28.6,13.3
			c-6.8,8.9-10.2,21.7-10.2,38.5v4.6c0,16.3,3.4,28.9,10.1,37.7C2152.1,405.2,2161.7,409.6,2174.2,409.6z"/>
		<path class="st25" d="M2282,302.1c10.7-13.2,24.7-19.8,41.9-19.8c30,0,45.1,16.9,45.3,50.7v93.7H2345v-93.8
			c-0.1-10.2-2.4-17.8-7-22.7c-4.6-4.9-11.7-7.3-21.4-7.3c-7.9,0-14.8,2.1-20.7,6.3c-5.9,4.2-10.6,9.7-13.9,16.5v101h-24.2V225.5
			h24.2V302.1z"/>
		<path class="st25" d="M2408.2,414.4c0-4,1.2-7.3,3.6-10c2.4-2.7,6-4,10.7-4c4.7,0,8.3,1.3,10.7,4c2.4,2.7,3.7,6,3.7,10
			c0,4-1.2,7.3-3.7,9.9c-2.4,2.6-6,3.9-10.7,3.9c-4.7,0-8.3-1.3-10.7-3.9C2409.4,421.7,2408.2,418.4,2408.2,414.4z M2432.7,372.7
			h-21.9l-1.7-136.7h25.4L2432.7,372.7z"/>
	</g>
	<g id="illustration">
		<g id="background_1_">
			<rect x="3790.8" y="187.6" class="st26" width="4439.4" height="1144"/>
			<rect x="3716.8" y="1380.9" class="st27" width="4451.6" height="120.3"/>
		</g>
		<rect x="3716.8" y="1242.4" class="st28" width="4451.6" height="251.6"/>
	</g>
</g>
</svg>
