<?xml version="1.0" encoding="utf-8"?>
<!-- Generator: Adobe Illustrator 21.0.2, SVG Export Plug-In . SVG Version: 6.00 Build 0)  -->
<svg version="1.1" id="Layer_1" xmlns="http://www.w3.org/2000/svg" xmlns:xlink="http://www.w3.org/1999/xlink" x="0px" y="0px"
	 viewBox="0 0 4450 1317.2" style="enable-background:new 0 0 4450 1317.2;" xml:space="preserve">
<style type="text/css">
	.st0{fill:#88BBDC;}
	.st1{opacity:0.46;stroke:#000000;stroke-miterlimit:10;enable-background:new    ;}
	.st2{fill:#9B9A98;stroke:#000000;stroke-miterlimit:10;}
	.st3{fill:none;stroke:#44423D;stroke-width:0.5;stroke-miterlimit:10;}
	.st4{fill:#282827;}
	.st5{fill:#7C7C7B;stroke:#60605F;stroke-miterlimit:10;}
	.st6{fill:#FFFFFF;fill-opacity:0.2;}
	.st7{fill:#A0591F;}
	.st8{fill:#F7D374;}
	.st9{fill:#EA9E4B;}
	.st10{fill:#FFFFFF;}
	.st11{fill:none;stroke:#FFFFFF;stroke-miterlimit:10;}
	.st12{fill:#D86552;}
	.st13{enable-background:new    ;}
	.st14{fill:#F7F7F7;}
	.st15{fill:#666262;}
	.st16{fill:#EDD043;}
	.st17{fill:#E03838;}
	.st18{fill:#FCFBFA;}
	.st19{fill:#3A3939;}
	.st20{fill:none;}
	.st21{display:none;fill:#861600;}
	.st22{display:none;opacity:0.97;fill:#F76126;enable-background:new    ;}
	.st23{fill:#54AF7E;}
	.st24{fill:#172F72;}
	.st25{fill:#EFB783;}
	.st26{fill:#795738;}
	.st27{fill:#795738;stroke:#795738;stroke-width:0.5;stroke-miterlimit:10;}
	.st28{fill:#231F20;stroke:#231F20;stroke-width:0.5;stroke-miterlimit:10;}
</style>
<g id="Layer_2">
</g>
<g id="Layer_1_1_">
	<g id="vackground">
		<rect y="0" class="st0" width="4450" height="1309.2"/>
	</g>
	<g id="Layer_3">
	</g>
	<g>
		<path class="st1" d="M1757.4,629.7h227.8c26.5,0,48.1,21,48.1,46.9V1162c0,25.9-21.6,46.9-48.1,46.9h-227.8
			c-26.5,0-48.1-21-48.1-46.9V676.6C1709.3,650.7,1730.9,629.7,1757.4,629.7z"/>
		<path d="M1989.6,628.1v495.7c0,12.4-5.5,23.2-13.8,31.3c-7.7,6.5-17.7,10.8-28.7,10.8h-238.3c-23.8,0-43.1-18.9-43.1-42.1V628.1
			c0-2.2,0-3.8,0.6-5.9c2.8-20.5,21-36.1,42.6-36.1h237.7C1970.3,586.5,1989.6,604.9,1989.6,628.1z"/>
		<rect x="1681.7" y="650.7" class="st2" width="291.3" height="450.4"/>
		<ellipse class="st3" cx="1827.6" cy="1134.5" rx="21" ry="20.5"/>
		<path class="st4" d="M1801.1,625.4h53.1c3.9,0,6.6,2.7,6.6,6.5l0,0c0,3.8-2.8,6.5-6.6,6.5h-53.1c-3.9,0-6.6-2.7-6.6-6.5l0,0
			C1794.5,628.1,1797.2,625.4,1801.1,625.4z"/>
		<ellipse class="st5" cx="1829.8" cy="604.9" rx="6.1" ry="5.9"/>
		<path class="st6" d="M1989.6,1128.1l-324-502.7c0-20.5,21.6-40.5,45.3-38.8h237.7c23.8,0,40.9,17.8,40.9,38.8l2.2,452.5"/>
	</g>
	<g>
		<polygon class="st7" points="3412.6,866.5 3458.5,866.5 3458.5,917.7 		"/>
		<polygon class="st7" points="3924.5,866.5 3869.8,927.4 3869.8,866.5 		"/>
		<g id="XMLID_3_">
			<g>
				<polygon class="st8" points="3924.5,1207.4 3412.6,1207.4 3548,1114.6 3601.1,1078.5 3605.5,1075.2 3731,1075.2 3736,1078.5 
					3788.5,1114.6 				"/>
			</g>
		</g>
		<polyline class="st9" points="3605.5,1075.2 3548,1114.6 3412.6,1207.4 3412.6,866.5 3458.5,917.7 3605.5,1075.2 		"/>
		<g id="XMLID_2_">
			<g>
				<polygon class="st9" points="3869.8,927.4 3924.5,866.5 3924.5,1207.4 3788.5,1114.6 3731,1075.2 				"/>
			</g>
		</g>
		<polyline class="st7" points="3412.6,866.5 3412.6,852.5 3412.6,834.1 3431.9,820.6 3458.5,802.8 3458.5,866.5 		"/>
		<g id="XMLID_5_">
			<g>
				<path class="st7" d="M3869.8,796.4l54.7,37.8v32.4c-1.7,0-52.5,2.7-54.7,2.7C3869.8,868.6,3869.8,796.9,3869.8,796.4z"/>
			</g>
		</g>
		<g id="XMLID_4_">
			<g>
				<polygon class="st10" points="3869.8,713.3 3869.8,927.4 3731,1075.2 3605.5,1075.2 3458.5,917.7 3458.5,866.5 3458.5,802.8 
					3458.5,713.3 3587.8,713.3 3749.3,713.3 				"/>
				<polygon class="st7" points="3749.3,713.3 3587.8,713.3 3668.5,657.2 				"/>
			</g>
			<g>
				<polygon class="st11" points="3749.3,713.3 3869.8,713.3 3869.8,927.4 3731,1075.2 3605.5,1075.2 3458.5,917.7 3458.5,866.5 
					3458.5,802.8 3458.5,713.3 3587.8,713.3 				"/>
			</g>
		</g>
		<g>
			<rect x="3519.3" y="772.1" class="st12" width="144.8" height="15.1"/>
			<rect x="3519.3" y="802.8" class="st12" width="289.1" height="15.1"/>
			<rect x="3519.3" y="830.3" class="st12" width="289.1" height="15.1"/>
			<rect x="3519.3" y="857.8" class="st12" width="289.1" height="15.1"/>
			<rect x="3519.3" y="885.4" class="st12" width="289.1" height="15.1"/>
			<rect x="3519.3" y="913.4" class="st12" width="289.1" height="15.1"/>
			<rect x="3519.3" y="940.9" class="st12" width="289.1" height="15.1"/>
		</g>
	</g>
	<g>
		<g>
			<ellipse class="st12" cx="3668.5" cy="453.5" rx="135.4" ry="157.1"/>
		</g>
		<g class="st13">
			<path class="st10" d="M3698.1,532.5c-10.5,6.4-21.1,8.8-33.9,8.8c-31.2,0-57.7-26.5-57.7-68.9c0-45.5,27.2-84.8,69.5-84.8
				c33.1,0,55.4,26.9,55.4,63.8c0,33.1-16,52.5-33.9,52.5c-7.6,0-14.7-6-14.1-19.4h-0.8c-6.7,13-15.4,19.4-26.8,19.4
				c-11,0-20.6-10.4-20.6-27.8c0-27.4,18.7-52.3,45.1-52.3c8.2,0,15.4,2,20.4,4.6l-6.5,40c-2.9,16.8-0.6,24.5,5.7,24.7
				c9.7,0.2,20.6-14.8,20.6-40.4c0-32-16.6-55-46.1-55c-31,0-57.1,28.5-57.1,73.3c0,36.9,20.8,59.6,48.9,59.6
				c10.9,0,20.9-2.6,28.7-7.7L3698.1,532.5z M3687.6,437.1c-1.9-0.7-5.1-1.5-9.5-1.5c-16.8,0-30.3,18.3-30.3,39.7
				c0,9.7,4.2,16.8,12.6,16.8c11,0,21.1-16.3,23.2-30L3687.6,437.1z"/>
		</g>
	</g>
	<g>
		<g>
			<rect x="2602.7" y="361.6" class="st14" width="688.8" height="831.7"/>
			<rect x="2602.7" y="357.8" class="st12" width="688.8" height="194.7"/>
			<rect x="2698.3" y="791" class="st15" width="498.1" height="60.9"/>
			<rect x="2696.1" y="915" class="st15" width="211.7" height="45.8"/>
			<rect x="2696.1" y="991.6" class="st15" width="211.7" height="45.8"/>
			<rect x="2696.1" y="1068.2" class="st15" width="211.7" height="47.5"/>
			<rect x="2958.2" y="726.8" class="st15" width="231.6" height="15.1"/>
			<rect x="2958.2" y="696" class="st15" width="231.6" height="15.1"/>
			<rect x="2958.2" y="665.8" class="st15" width="231.6" height="15.1"/>
			<rect x="2958.2" y="635.1" class="st15" width="231.6" height="15.1"/>
			<rect x="2958.2" y="604.3" class="st15" width="231.6" height="15.1"/>
			<rect x="2698.3" y="726.8" class="st15" width="231.6" height="15.1"/>
			<rect x="2698.3" y="696" class="st15" width="231.6" height="15.1"/>
			<rect x="2698.3" y="665.8" class="st15" width="231.6" height="15.1"/>
			<rect x="2698.3" y="635.1" class="st15" width="231.6" height="15.1"/>
			<rect x="2698.3" y="604.3" class="st15" width="231.6" height="15.1"/>
			<g>
				<g id="XMLID_1_">
					<g>
						<polygon class="st0" points="3063.2,941.4 2980.3,978.7 2980.3,915 3034.4,915 						"/>
						<polygon class="st0" points="3088.6,915 3190.3,915 3190.3,1005.6 3137.8,973.3 						"/>
						<polygon class="st16" points="3087.5,967.9 2980.3,1026.1 2980.3,978.7 3063.2,941.4 3034.4,915 3088.6,915 3137.8,973.3 
							3190.3,1005.6 3190.3,1060.1 3153.9,1031.5 3087.5,1110.3 3026.7,1110.3 3120.7,1012.6 						"/>
						<polygon class="st0" points="3087.5,967.9 3120.7,1012.6 3026.7,1110.3 2980.3,1110.3 2980.3,1026.1 						"/>
						<polygon class="st0" points="3190.3,1060.1 3190.3,1110.3 3087.5,1110.3 3153.9,1031.5 						"/>
					</g>
				</g>
				<g>
					<ellipse class="st17" cx="3120.7" cy="966.8" rx="22.7" ry="25.4"/>
					<polygon class="st17" points="3120.7,1026.1 3143.4,973.3 3098.6,973.3 					"/>
					<ellipse class="st10" cx="3120.7" cy="966.8" rx="10.5" ry="11.9"/>
				</g>
			</g>
		</g>
		<g class="st13">
			<path class="st18" d="M2719.3,500.8c-3.4,1.7-10.2,3.4-18.9,3.4c-20.2,0-35.4-12.9-35.4-36.5c0-22.6,15.2-37.9,37.4-37.9
				c8.9,0,14.6,1.9,17,3.2l-2.2,7.6c-3.5-1.7-8.5-3-14.5-3c-16.8,0-28,10.8-28,29.8c0,17.7,10.1,29,27.5,29c5.6,0,11.4-1.2,15.1-3
				L2719.3,500.8z"/>
			<path class="st18" d="M2789.9,466.3c0,24.9-15,38-33.3,38c-18.9,0-32.2-14.8-32.2-36.7c0-22.9,14.1-37.9,33.3-37.9
				C2777.3,429.8,2789.9,444.9,2789.9,466.3z M2734.3,467.5c0,15.4,8.3,29.3,22.9,29.3c14.7,0,23-13.6,23-30
				c0-14.4-7.4-29.4-22.9-29.4C2742,437.4,2734.3,451.6,2734.3,467.5z"/>
			<path class="st18" d="M2801.9,503.2V431h10.1l23,36.5c5.3,8.5,9.5,16.1,12.9,23.5l0.2-0.1c-0.9-9.6-1.1-18.4-1.1-29.7V431h8.7
				v72.2h-9.4l-22.8-36.6c-5-8-9.8-16.3-13.4-24.1l-0.3,0.1c0.5,9.1,0.7,17.8,0.7,29.8v30.9L2801.9,503.2L2801.9,503.2z"/>
			<path class="st18" d="M2885.5,438.9h-21.8V431h53v7.9h-21.9v64.3h-9.4L2885.5,438.9L2885.5,438.9z"/>
			<path class="st18" d="M2928.4,480.5l-7.4,22.7h-9.6l24.3-72.2h11.2l24.4,72.2h-9.9l-7.6-22.7H2928.4z M2951.8,473.2l-7-20.8
				c-1.6-4.7-2.7-9-3.7-13.2h-0.2c-1.1,4.3-2.2,8.7-3.6,13.1l-7,20.9H2951.8z"/>
			<path class="st18" d="M3030.3,500.8c-3.4,1.7-10.2,3.4-18.9,3.4c-20.2,0-35.4-12.9-35.4-36.5c0-22.6,15.2-37.9,37.4-37.9
				c8.9,0,14.6,1.9,17,3.2l-2.2,7.6c-3.5-1.7-8.5-3-14.5-3c-16.8,0-28,10.8-28,29.8c0,17.7,10.1,29,27.5,29c5.6,0,11.4-1.2,15.1-3
				L3030.3,500.8z"/>
			<path class="st18" d="M3058.5,438.9h-21.8V431h53v7.9h-21.9v64.3h-9.4L3058.5,438.9L3058.5,438.9z"/>
			<path class="st18" d="M3129.5,431v42.8c0,16.2,7.1,23,16.7,23c10.6,0,17.4-7.1,17.4-23V431h9.4v42.1c0,22.2-11.6,31.3-27.1,31.3
				c-14.7,0-25.7-8.5-25.7-30.9V431H3129.5z"/>
			<path class="st18" d="M3187.8,491.8c4.1,2.6,10.2,4.7,16.6,4.7c9.5,0,15-5,15-12.3c0-6.8-3.8-10.6-13.5-14.4
				c-11.7-4.2-18.9-10.3-18.9-20.5c0-11.3,9.2-19.6,23.2-19.6c7.3,0,12.6,1.7,15.8,3.5l-2.6,7.6c-2.3-1.3-7.1-3.4-13.6-3.4
				c-9.8,0-13.5,5.9-13.5,10.8c0,6.8,4.4,10.1,14.2,13.9c12.1,4.7,18.3,10.6,18.3,21.2c0,11.1-8.2,20.8-25.1,20.8
				c-6.9,0-14.5-2-18.3-4.6L3187.8,491.8z"/>
		</g>
	</g>
	<g>
		<path class="st19" d="M431,366h53.9v12.3h-69V264.5H431V366z"/>
		<path class="st19" d="M534.8,379.9c-11.5,0-20.8-3.8-28-11.3S496,351,496,338.4v-2.7c0-8.4,1.6-15.9,4.8-22.5
			c3.2-6.6,7.7-11.7,13.4-15.5c5.8-3.7,12-5.6,18.7-5.6c11,0,19.5,3.6,25.6,10.9c6.1,7.2,9.1,17.6,9.1,31.1v6h-57.3
			c0.2,8.3,2.6,15.1,7.3,20.2s10.6,7.7,17.8,7.7c5.1,0,9.4-1,13-3.1c3.5-2.1,6.6-4.8,9.3-8.3l8.8,6.9
			C559.6,374.4,549,379.9,534.8,379.9z M533,304.1c-5.8,0-10.7,2.1-14.7,6.4c-4,4.2-6.4,10.2-7.3,17.9h42.3v-1.1
			c-0.4-7.3-2.4-13-5.9-17.1C543.8,306.1,539,304.1,533,304.1z"/>
		<path class="st19" d="M604.1,273.3v20.5h15.8V305h-15.8v52.5c0,3.4,0.7,5.9,2.1,7.6s3.8,2.5,7.2,2.5c1.7,0,4-0.3,6.9-0.9v11.7
			c-3.8,1-7.5,1.6-11.1,1.6c-6.5,0-11.3-2-14.6-5.9s-4.9-9.5-4.9-16.6v-52.4h-15.4v-11.2h15.4v-20.5h14.4V273.3z"/>
		<path class="st19" d="M637.8,296.6l-8.2-5.6c4.8-6.8,7.3-13.9,7.5-21.4v-11.2h14.3v10.2c-0.1,5.2-1.3,10.4-3.9,15.6
			C645,289.2,641.7,293.4,637.8,296.6z"/>
		<path class="st19" d="M709.2,355.9c0-3.9-1.5-6.9-4.4-9.1s-8.1-4-15.4-5.6c-7.3-1.6-13.1-3.4-17.4-5.6s-7.5-4.8-9.5-7.8
			c-2.1-3-3.1-6.6-3.1-10.8c0-6.9,2.9-12.8,8.8-17.6c5.9-4.8,13.3-7.2,22.5-7.2c9.6,0,17.4,2.5,23.3,7.4c6,4.9,8.9,11.3,8.9,19
			h-14.5c0-4-1.7-7.4-5-10.2c-3.4-2.9-7.6-4.3-12.7-4.3c-5.3,0-9.4,1.1-12.3,3.4c-3,2.3-4.5,5.3-4.5,9c0,3.5,1.4,6.1,4.1,7.9
			c2.8,1.8,7.7,3.5,15,5.1c7.2,1.6,13.1,3.5,17.5,5.8c4.5,2.2,7.8,4.9,10,8.1s3.2,7,3.2,11.5c0,7.6-3,13.6-9.1,18.2
			c-6,4.6-13.9,6.8-23.5,6.8c-6.8,0-12.8-1.2-18-3.6s-9.3-5.7-12.2-10s-4.4-8.9-4.4-13.9H671c0.3,4.8,2.2,8.7,5.8,11.5
			s8.4,4.3,14.3,4.3c5.5,0,9.9-1.1,13.2-3.3C707.5,362.5,709.2,359.6,709.2,355.9z"/>
		<path class="st19" d="M831.3,355.9c0-3.9-1.5-6.9-4.4-9.1s-8.1-4-15.4-5.6c-7.3-1.6-13.1-3.4-17.4-5.6s-7.5-4.8-9.5-7.8
			c-2.1-3-3.1-6.6-3.1-10.8c0-6.9,2.9-12.8,8.8-17.6c5.9-4.8,13.3-7.2,22.5-7.2c9.6,0,17.4,2.5,23.3,7.4c6,4.9,8.9,11.3,8.9,19
			h-14.5c0-4-1.7-7.4-5-10.2c-3.4-2.9-7.6-4.3-12.7-4.3c-5.3,0-9.4,1.1-12.3,3.4c-3,2.3-4.5,5.3-4.5,9c0,3.5,1.4,6.1,4.1,7.9
			c2.8,1.8,7.7,3.5,15,5.1c7.2,1.6,13.1,3.5,17.5,5.8c4.5,2.2,7.8,4.9,10,8.1s3.2,7,3.2,11.5c0,7.6-3,13.6-9.1,18.2
			c-6,4.6-13.9,6.8-23.5,6.8c-6.8,0-12.8-1.2-18-3.6s-9.3-5.7-12.2-10s-4.4-8.9-4.4-13.9H793c0.3,4.8,2.2,8.7,5.8,11.5
			s8.4,4.3,14.3,4.3c5.5,0,9.9-1.1,13.2-3.3C829.6,362.5,831.3,359.6,831.3,355.9z"/>
		<path class="st19" d="M884.2,273.3v20.5H900V305h-15.8v52.5c0,3.4,0.7,5.9,2.1,7.6s3.8,2.5,7.2,2.5c1.7,0,4-0.3,6.9-0.9v11.7
			c-3.8,1-7.5,1.6-11.1,1.6c-6.5,0-11.3-2-14.6-5.9s-4.9-9.5-4.9-16.6v-52.4h-15.4v-11.2h15.4v-20.5h14.4V273.3z"/>
		<path class="st19" d="M969,378.3c-0.8-1.7-1.5-4.6-2-8.9c-6.7,7-14.7,10.5-24.1,10.5c-8.3,0-15.2-2.4-20.5-7.1s-8-10.7-8-17.9
			c0-8.8,3.3-15.6,10-20.5s16.1-7.3,28.2-7.3h14.1v-6.6c0-5.1-1.5-9.1-4.5-12.1s-7.5-4.5-13.4-4.5c-5.2,0-9.5,1.3-13,3.9
			s-5.2,5.8-5.2,9.5h-14.5c0-4.2,1.5-8.3,4.5-12.2c3-3.9,7.1-7,12.2-9.3c5.1-2.3,10.8-3.4,16.9-3.4c9.7,0,17.4,2.4,22.9,7.3
			s8.4,11.6,8.6,20.1v38.9c0,7.8,1,13.9,3,18.5v1.2H969V378.3z M945,367.3c4.5,0,8.8-1.2,12.9-3.5s7-5.4,8.8-9.1v-17.3h-11.3
			c-17.7,0-26.6,5.2-26.6,15.5c0,4.5,1.5,8.1,4.5,10.6C936.4,366,940.3,367.3,945,367.3z"/>
		<path class="st19" d="M1030.3,357.1l19.7-63.4h15.5l-34,97.6c-5.3,14.1-13.6,21.1-25.1,21.1l-2.7-0.2l-5.4-1v-11.7l3.9,0.3
			c4.9,0,8.7-1,11.4-3s5-5.6,6.8-10.9l3.2-8.6l-30.2-83.6h15.8L1030.3,357.1z"/>
		<path class="st19" d="M1118.1,271.3c0-2.3,0.7-4.3,2.1-5.9s3.6-2.4,6.4-2.4s4.9,0.8,6.4,2.4s2.2,3.6,2.2,5.9s-0.7,4.3-2.2,5.9
			s-3.6,2.3-6.4,2.3s-4.9-0.8-6.4-2.3C1118.8,275.6,1118.1,273.7,1118.1,271.3z M1133.7,378.3h-14.5v-84.5h14.5V378.3z"/>
		<path class="st19" d="M1170.5,293.8l0.5,10.6c6.5-8.1,14.9-12.2,25.3-12.2c17.9,0,26.9,10.1,27,30.2v55.9h-14.5v-55.9
			c-0.1-6.1-1.4-10.6-4.2-13.5c-2.7-2.9-7-4.4-12.8-4.4c-4.7,0-8.8,1.2-12.3,3.8c-3.5,2.5-6.3,5.8-8.3,9.8v60.2h-14.5v-84.5H1170.5z
			"/>
		<path class="st19" d="M1304.3,273.3v20.5h15.8V305h-15.8v52.5c0,3.4,0.7,5.9,2.1,7.6s3.8,2.5,7.2,2.5c1.7,0,4-0.3,6.9-0.9v11.7
			c-3.8,1-7.5,1.6-11.1,1.6c-6.5,0-11.3-2-14.6-5.9s-4.9-9.5-4.9-16.6v-52.4h-15.4v-11.2h15.4v-20.5h14.4V273.3z"/>
		<path class="st19" d="M1331.6,335.3c0-8.3,1.6-15.7,4.9-22.3c3.3-6.6,7.8-11.7,13.6-15.3c5.8-3.6,12.4-5.4,19.9-5.4
			c11.5,0,20.8,4,27.9,12s10.7,18.6,10.7,31.8v1c0,8.2-1.6,15.6-4.7,22.1c-3.2,6.5-7.7,11.6-13.5,15.3c-5.9,3.6-12.6,5.5-20.2,5.5
			c-11.5,0-20.7-4-27.9-12s-10.7-18.5-10.7-31.6L1331.6,335.3L1331.6,335.3z M1346.1,337c0,9.4,2.2,16.9,6.5,22.6s10.2,8.5,17.5,8.5
			s13.2-2.9,17.5-8.6c4.3-5.8,6.5-13.8,6.5-24.2c0-9.3-2.2-16.8-6.6-22.5c-4.4-5.8-10.2-8.6-17.5-8.6c-7.1,0-12.9,2.8-17.3,8.5
			C1348.3,318.3,1346.1,326.4,1346.1,337z"/>
		<path class="st19" d="M1478.9,369.9c-5.6,6.6-13.9,9.9-24.8,9.9c-9,0-15.9-2.6-20.6-7.9c-4.7-5.2-7.1-13-7.1-23.2v-55h14.5v54.6
			c0,12.8,5.2,19.2,15.6,19.2c11,0,18.4-4.1,22-12.3v-61.5h14.5v84.5h-13.8L1478.9,369.9z"/>
		<path class="st19" d="M1548.8,368.1c5.2,0,9.7-1.6,13.5-4.7c3.9-3.1,6-7,6.4-11.7h13.7c-0.3,4.8-1.9,9.5-5,13.8
			c-3.1,4.4-7.2,7.9-12.3,10.5c-5.1,2.6-10.6,3.9-16.3,3.9c-11.5,0-20.7-3.8-27.5-11.5s-10.2-18.2-10.2-31.5v-2.4
			c0-8.2,1.5-15.5,4.5-22c3-6.4,7.4-11.4,13-14.9c5.7-3.5,12.3-5.3,20-5.3c9.5,0,17.4,2.8,23.6,8.5c6.3,5.7,9.6,13,10,22.1h-13.7
			c-0.4-5.5-2.5-10-6.2-13.5s-8.3-5.3-13.8-5.3c-7.3,0-13,2.6-17.1,7.9c-4,5.3-6.1,12.9-6.1,22.9v2.7c0,9.7,2,17.2,6,22.5
			C1535.6,365.4,1541.3,368.1,1548.8,368.1z"/>
		<path class="st19" d="M1613.1,304c6.4-7.9,14.7-11.8,25-11.8c17.9,0,26.9,10.1,27,30.2v55.9h-14.5v-55.9
			c-0.1-6.1-1.4-10.6-4.2-13.5c-2.7-2.9-7-4.4-12.8-4.4c-4.7,0-8.8,1.2-12.3,3.8c-3.5,2.5-6.3,5.8-8.3,9.8v60.2h-14.5v-120h14.5V304
			H1613.1z"/>
		<path class="st19" d="M1688.3,371c0-2.4,0.7-4.4,2.1-6s3.6-2.4,6.4-2.4s4.9,0.8,6.4,2.4s2.2,3.6,2.2,6s-0.7,4.3-2.2,5.9
			s-3.6,2.3-6.4,2.3s-4.9-0.8-6.4-2.3C1689,375.3,1688.3,373.3,1688.3,371z M1702.9,346.1h-13l-1-81.5h15.2L1702.9,346.1z"/>
	</g>
	<g id="illustration">
		<g id="background_1_">
			<rect x="3790.8" y="0" class="st20" width="4439.4" height="1144"/>
			<rect x="3716.8" y="1193.4" class="st21" width="4451.6" height="120.3"/>
		</g>
		<rect x="3716.8" y="1054.8" class="st22" width="4451.6" height="251.6"/>
	</g>
</g>
<g>
	<path class="st23" d="M2446.8,308.3v253.2c0,26.9-18.8,49.4-42.6,49.4h-295.8l-96.7,87.2v-87.2h-139.9c-23.2,0-42.6-21.8-42.6-49.4
		V308.3c0-26.9,18.8-49.4,42.6-49.4h531.8C2428,258.9,2446.8,281.3,2446.8,308.3z"/>
	<path class="st10" d="M2067.6,435.2c0,43-18.8,80.8-47.5,103.2c-17.1,13.5-38.1,21.2-60.3,21.2c-22.7,0-43.7-8.3-61.4-22.4
		c-28.2-22.4-46.4-60.3-46.4-102.6c0-68.6,48.1-125,107.8-125C2019.5,309.5,2067.6,365.9,2067.6,435.2z"/>
	<g id="Bruno_1_">
		<g id="Bruno_3_">
			<g>
				<path class="st24" d="M2020,538.4c-17.1,13.5-38.1,21.2-60.3,21.2c-22.7,0-43.7-8.3-61.4-22.4c11.1-10.9,8.8-12.8,13.8-14.7
					c8.3-3.2,17.1,0,27.6-3.8l0,0c0.6,7.7,8.8,14.1,18.2,14.1s17.7-6.4,18.2-14.1l0,0c11.1,3.8,19.9,0.6,28.7,4.5
					C2011.2,525.6,2010.6,528.8,2020,538.4z"/>
				<path class="st25" d="M1998.5,371.1c2.8,1.9,4.4,6.4,6.6,15.4c-1.7,0.6-3.9,0.6-5.5,0.6c-7.2,0-13.3-6.4-13.3-14.7
					c0,0,0,0,0-0.6c1.7-1.3,4.4-3.2,6.1-4.5C1995.2,368.5,1997.4,370.4,1998.5,371.1z"/>
				<path class="st25" d="M2017.8,423.6c1.1,2.6,0,4.5-1.1,9.6s-1.1,7.7-1.1,10.3c0,1.3,0,3.2-0.6,5.1c0,0.6-1.1,1.9-2.8,2.6
					c-0.6,0-1.1,0-2.2,0c0.6-13.5,1.7-23.1,1.7-32.1c1.1,0,2.2,0.6,3.3,1.3C2015.6,420.4,2017.3,421.7,2017.8,423.6z"/>
				<path class="st26" d="M2012.3,368.5c0,1.9,0,4.5,0,7.7c-1.1,4.5-3.9,8.3-8.3,10.3c-1.7-9-4.4-12.2-7.2-14.1
					c-0.6-0.6-2.8-1.9-5.5-3.2c3.9-3.2,5.5-6.4,6.1-10.3h1.1C2005.7,358.3,2010.6,362.7,2012.3,368.5z"/>
				<path class="st25" d="M2009.5,421.1c0-1.9,0-12.8-1.7-26.9c-0.6-3.2-1.7-5.8-2.3-8.3c0-0.6,0-0.6-0.6-1.3v-0.6h-0.6l0,0
					c-1.1,0.6-1.7,0.6-3.4,0.6c-6.8,0-12.5-5.8-13.6-12.8v-0.6c0-0.6,0-1.3,0-1.9l0,0l0,0c0,0,0,0,0-0.6h-0.6l0,0
					c-0.6,0.6-1.1,0.6-1.7,0.6c-1.1,0.6-2.8,1.3-4,1.3l0,0c-3.4,0.6-7.4,1.3-11.4,1.3c-5.1,0-10.2-0.6-14.2-2.6
					c-4.5,0.6-9.1-0.6-11.4-1.3c-0.6,0-1.1-0.6-1.7-0.6c-4.5-1.9-7.4-3.8-10.8-4.5c-0.6,0-1.1,0-1.7,0c-5.1,0-9.1,3.2-9.7,3.8
					c-4,3.2-6.8,8.3-9.1,26.3c-0.6,3.8-0.6,7.1-1.1,9.6c0,0,0,0,0,0.6c-0.6,5.8-0.6,10.3-0.6,13.5c0,0.6,0,0.6,0,1.3
					c0,0.6,0,1.3,0,1.9c0,2.6,0,4.5,0,6.4c0.6,22.4,3.4,31.4,5.1,35.9c4.5,10.3,8.5,12.2,10.2,12.8c1.7,0,5.7,0,8.5-2.6
					c0.6-0.6,1.1-1.9,2.8-3.2c1.1-1.3,1.1-0.6,2.8-1.9c1.7-1.3,2.3-1.9,4-3.2c0.6,0,1.1-0.6,2.3-0.6s1.7,0,2.3,0
					c1.1,0,1.1,1.9,2.3,2.6c1.1,0.6,2.3,0,4,0c1.1,0,1.1,0.6,2.3,0.6c1.1,0,2.3,0.6,4,0c1.7,0.6,2.8,0,4.5,0c1.1,0,1.1-0.6,2.3-0.6
					c1.7-0.6,2.8,0.6,4,0c1.1-0.6,1.1-1.9,2.3-2.6c0.6,0,1.1,0,2.3,0c1.1,0,1.7,0.6,2.3,0.6c1.7,0.6,2.3,1.9,4,3.2
					c1.7,1.3,1.7,1.3,2.8,1.9c1.7,1.3,2.3,2.6,2.8,3.2c2.3,2.6,6.8,2.6,8.5,2.6c2.3,0,5.7-1.9,10.2-12.8
					C2006.1,458.9,2009.5,448,2009.5,421.1z"/>
				<path class="st26" d="M2012.8,376.2c0,0,0-1.3-0.6-2.6l0,0c-0.6-2.6-0.6-5.8-0.6-5.8c-1.1,4.5-3.3,13.5-6.6,16h-0.6l0,0v0.6v0.6
					c0.6,2.6,1.1,6.4,1.7,9.6c1.7,12.8,1.7,22.4,1.7,24.4c0,24.4-3.3,34-5,37.8c-4.4,9.6-7.7,10.9-10,11.5c-1.7,0-5.5,0-8.3-1.9
					c-0.6-0.6-1.1-1.9-2.8-3.2c-1.1-0.6-1.1-0.6-2.8-1.9c-1.7-1.3-2.2-1.9-3.9-2.6c-0.6,0-1.1-0.6-2.2-0.6c-0.6,0-1.7,0-2.2,0
					c-1.1,0-1.1,1.9-2.2,1.9c-1.1,0.6-2.2,0-3.9,0c-1.1,0-1.1,0.6-2.2,0.6c-1.1,0-2.2,0.6-3.9,0c-1.7,0-2.8,0-3.9,0
					s-1.1-0.6-2.2-0.6c-1.7-0.6-2.8,0.6-3.9,0s-1.1-1.9-2.2-1.9c-0.6,0-1.1,0-2.2,0c-1.1,0-1.7,0.6-2.2,0.6
					c-1.7,0.6-2.2,1.3-3.9,2.6c-1.7,1.3-1.7,0.6-2.8,1.9c-1.7,1.3-2.2,1.9-2.8,3.2c-2.2,2.6-6.6,2.6-8.3,1.9c-1.7,0-5.5-1.9-10-11.5
					c-1.7-3.8-4.4-11.5-5-30.8c0-1.9,0-4.5,0-6.4c0-0.6,0-0.6,0-1.9c0-0.6,0-0.6,0-1.3c0-3.2,0-7.7,0.6-13.5c0,0,0,0,0-0.6
					c0-2.6,0.6-5.1,1.1-7.7c2.2-16,5-21.2,8.8-23.7c0.6-0.6,4.4-3.2,8.8-3.8c5,0,7.7,2.6,13.8,4.5c1.7,0.6,3.3,0.6,6.1,1.3l0,0
					c1.1,0,2.8,0,4.4,0c-4.4-1.3-8.8-3.8-11.6-6.4c-3.3-3.2-5.5-7.1-5.5-11.5c0-11.5,13.8-20.5,31-20.5c1.7,0,3.9,0,5.5,0.6
					c0,0,0,0,0.6,0c2.2,0,3.9,0.6,6.1,1.3c-5-1.9-9.4-3.2-12.2-3.8c-3.9-0.6-6.6-1.3-8.3-1.9h-1.1c-2.2,0-5,0.6-8.3,1.9
					c-8.8,1.9-34.3,8.3-42.6,26.3c-1.7,3.8-1.7,5.8-2.2,17.3c-0.6,18.6-0.6,30.1,0,41.7l0,0v0.6c0.6,9,1.1,18.6,1.7,31.4v0.6
					c0.6,5.1,0.6,10.3,1.1,16c0,3.2,0.6,7.7,2.8,14.1c5,13.5,16,20.5,19.9,23.1c3.9,2.6,8.3,4.5,11.6,5.8c0.6,0,0.6,0,1.1,0
					c1.1-1.9,2.8-3.2,4.4-4.5c0,0,0,0,0.6,0c0,0,0,0,0.6,0c2.8-1.9,6.6-3.2,11.6-2.6c4.4,0,8.3,1.3,11.6,3.2c0,0,0.6,0,0.6,0.6
					c0,0,0,0,0.6,0c1.1,1.3,2.8,2.6,3.3,3.8c0.6,0,0.6,0,1.1-0.6c3.3-1.3,7.2-2.6,10.5-5.1c3.9-2.6,14.4-9.6,19.9-23.1
					c2.2-5.8,2.8-10.9,2.8-14.1c0.6-6.4,0.6-11.5,1.1-16v-0.6c0.6-12.8,1.7-22.4,1.7-31.4c0-0.6,0-0.6,0-1.3
					C2013.4,407,2013.4,395.4,2012.8,376.2z M1971.4,469.2c1.1,0,1.7,1.3,1.7,1.9c0,0,0,1.3-6.1,3.2c-2.2,0.6-5,1.3-8.8,1.3
					s-6.6-0.6-8.8-1.3c-5.5-1.3-6.1-2.6-6.1-3.2l0,0l0,0l0,0v-0.6c0-0.6,1.1-1.3,1.7-1.3c0.6,0,0.8,0.4,2.5,1c1,0.7,1.9,0.9,1.9,0.9
					h0.6c0.6,0,1.7,0,2.8,0c1.7,0,3.3,0,5.5,0l0,0c2.2,0,4.4,0,5.5,0c2.2,0,3.9,0.2,4.5-0.4"/>
				<path class="st27" d="M2005.1,408.3c0.6,1.3-1.1,3.8-2.8,4.5c-1.1,0-1.7-0.6-2.8-1.3c-2.8-1.9-5.5-1.9-11.6-1.9
					c-3.9,0-5.5,0-7.2,0.6c-2.8,1.3-2.8,3.2-4.4,3.2c-2.2,0-3.9-3.2-3.9-5.1c0-0.6,0-1.3,0-1.9c0,0,0.6-0.6,2.2-0.6
					c1.7,0,2.2-0.6,2.2-0.6c2.8-0.6,3.3-0.6,5-1.3c2.2,0,3.9,0,6.1,0c3.9,0,6.1,0.6,10,1.9C2004,407,2004.5,407.6,2005.1,408.3z"/>
				<path class="st26" d="M1999,355.7c0,0.6,0,1.9,0,3.2c-5.5,0-10.5,4.5-12.2,9.6c-4.4,0-6.6,2.6-12.2,4.5
					c-3.3,0.6-8.3,1.9-14.9,0.6c-1.7,0-6.6,0-8.3,0c-10-3.2-22.7-10.3-22.7-18.6c0-10.9,13.3-22.4,30.4-22.4
					c4.4,0,17.7,2.6,21.6,3.8c2.8,0.6,5.5,1.9,8.3,3.2C1994.6,344.2,1999,349.9,1999,355.7z"/>
				<path class="st26" d="M1998.5,358.9c-0.6,3.8-3.3,7.1-7.2,10.3c-1.1,0-2.8,0-3.9,0c-0.6,0-1.1,0-1.7,0
					C1988,362.7,1992.9,358.9,1998.5,358.9z"/>
				<path class="st25" d="M1991.3,369.2c-1.7,1.3-3.9,2.6-5.5,3.2c0-1.3,0-2.6,0.6-3.8c0.6,0,1.7,0,2.2,0
					C1989.6,368.5,1990.2,368.5,1991.3,369.2z"/>
				<ellipse class="st28" cx="1987.4" cy="423" rx="5.5" ry="5.8"/>
				<path class="st25" d="M1986.3,368.5c-0.6,1.3-0.6,2.6-0.6,4.5c-5,1.9-11.1,3.8-17.7,3.8c-5,0-9.4-0.6-13.8-1.9
					c1.7,0,3.3,0,4.4,0c6.6,0.6,11.6,0,14.9-0.6C1979.1,371.1,1981.9,368.5,1986.3,368.5z"/>
				<path class="st25" d="M1976.4,518.5C1976.9,518.5,1976.9,519.2,1976.4,518.5c0,8.3-8.3,13.5-17.7,14.7
					c-9.4,0.6-18.2-5.1-18.8-14.1c0.6,0,1.7,0,2.2-0.6c1.1-0.6,3.3-1.3,4.4-3.8c0.6-0.6,1.1-1.9,1.1-3.2c4.4,0.6,7.7,0.6,10,1.3
					c2.8,0,7.2,0,12.2-1.3c0,1.3,0.6,2.6,1.7,3.8C1973.6,517.2,1975.2,518.5,1976.4,518.5z"/>
				<path class="st25" d="M1972.4,468.6c0.6,0,1.7,1.5,1.7,2.9c0,0,0,2.2-6.3,4.4c-2.3,0.7-5.2,1.5-9.2,2.2c-4,0-6.9-1.5-9.2-2.2
					c-6.3-2.2-6.3-3.7-6.3-4.4c0-1.5,0.6-2.9,1.7-2.9c1.1,0,1.7,0,3.4,1.5c0.6,0,2.3,0,4.6,0.7c1.7,0,3.4,0,5.7,0l0,0
					c2.3,0,4.6,0,5.7,0c2.9,0,4,0,4.6-0.7C1970.7,469.4,1971.3,468.6,1972.4,468.6z"/>
				<path class="st26" d="M1972.5,504.4c2.2,1.3,3.9,3.2,5,5.1c-1.7,0.6-3.3,1.3-5,1.9C1971.9,508.9,1971.9,507,1972.5,504.4z"/>
				<path class="st26" d="M1972.5,511.5c-5.5,1.3-10,1.9-13.8,1.9c-2.8,0-6.6,0-11.1-1.3c0.6-2.6,0-5.8,0-7.7
					c3.9-1.9,7.7-3.8,12.2-3.8c5,0,9.4,1.3,13.3,4.5C1972.5,506.3,1972.5,508.9,1972.5,511.5z"/>
				<path class="st26" d="M1948.2,503.8c0,1.9,0.6,5.1,0,7.7c-1.7,0-3.9-1.3-6.1-1.9C1943.7,507.6,1946,505.7,1948.2,503.8z"/>
				<path class="st27" d="M1947.6,407.6c0.6,0.6,0,1.3,0,1.9c0,1.9-1.7,4.5-3.9,5.1c-1.7,0-2.2-1.9-4.4-3.2
					c-1.7-0.6-3.3-0.6-7.2-0.6c-6.1,0-8.8,0-11.6,1.9c-1.1,0.6-1.7,1.3-2.8,1.3c-1.7,0-2.8-2.6-2.8-4.5c0-0.6,0.6-1.3,6.6-3.2
					c3.9-1.3,6.1-1.9,10-1.9c2.2,0,3.9,0,6.1,0c1.7,0,2.8,0.6,5,1.3c0.6,0,1.1,0,2.2,0.6C1947.1,407.6,1947.6,407.6,1947.6,407.6z"
					/>
				<ellipse class="st28" cx="1932.1" cy="423" rx="5.5" ry="5.8"/>
				<path class="st25" d="M1907.3,451.2c-0.6,0-1.1,0-1.7,0c-1.7-0.6-2.2-1.9-2.8-2.6c-1.1-1.9-0.6-3.8-0.6-5.1
					c0-2.6,0-5.1-1.1-10.3c-1.1-5.1-2.2-7.1-1.1-9.6c0.6-1.9,1.7-3.2,2.2-3.2c1.1-0.6,2.2-1.3,3.3-1.3
					C1905.6,428.1,1906.1,437.7,1907.3,451.2z"/>
			</g>
		</g>
	</g>
	<rect x="2084.2" y="358.3" class="st10" width="324.5" height="25.6"/>
	<rect x="2084.2" y="417.9" class="st10" width="324.5" height="25.6"/>
	<rect x="2084.2" y="477.5" class="st10" width="324.5" height="25.6"/>
</g>
</svg>
