<?xml version="1.0" encoding="utf-8"?>
<!-- Generator: Adobe Illustrator 21.0.2, SVG Export Plug-In . SVG Version: 6.00 Build 0)  -->
<svg version="1.1" id="Layer_1" xmlns="http://www.w3.org/2000/svg" xmlns:xlink="http://www.w3.org/1999/xlink" x="0px" y="0px"
	 viewBox="0 0 700 200" style="enable-background:new 0 0 700 200;" xml:space="preserve">
<style type="text/css">
	.st0{fill:#F7E6B5;}
	.st1{fill:#E2E3E4;}
	.st2{fill:#FFFFFF;stroke:#3FA9F5;stroke-miterlimit:10;}
	.st3{fill:#00A9A3;}
	.st4{fill:#C1C4C6;}
	.st5{fill:#BC9F77;}
	.st6{fill:#A38664;}
	.st7{fill:#322FC9;}
	.st8{font-family:'AvantGBold';}
	.st9{font-size:36.9196px;}
	.st10{fill:none;stroke:#6664D7;stroke-miterlimit:10;}
	.st11{fill:#F4783B;}
	.st12{fill:#70573E;}
	.st13{fill:#F7F5ED;}
	.st14{fill:#B2A54D;}
	.st15{fill:#D3CEAF;}
</style>
<rect class="st0" width="700" height="200"/>
<path class="st1" d="M430.3,35.2v76.2c0,3.4-2.7,6.2-6.1,6.2H274.8c-3.4,0-6.1-2.8-6.1-6.2V35.2c0-3.4,2.7-6.2,6.1-6.2h149.4
	C427.6,29,430.3,31.8,430.3,35.2z"/>
<path class="st2" d="M279.8,35.1v76.4c0,0,0,0,0,0h140c0,0,0,0,0,0V35.1c0,0,0,0,0,0L279.8,35.1C279.8,35.1,279.8,35.1,279.8,35.1z
	 M313.1,98c-0.3,0-0.6,0-0.9,0c-5.5,0-10.5-1.8-14.5-4.9c-6-4.5-9.9-11.8-9.9-20c0-13.8,10.9-24.9,24.5-24.9c1.1,0,2.2,0.1,3.3,0.2
	c5.6,0.8,10.7,3.5,14.4,7.5c4.2,4.5,6.8,10.5,6.8,17.2C336.6,86.6,326.2,97.5,313.1,98z M386.5,98c-1.1,0-2.1-0.1-3.2-0.3
	c-5.6-0.9-10.6-3.7-14.3-7.8c-4-4.4-6.5-10.4-6.5-16.9c0-13.3,10.2-24.2,23.1-24.9c0.5,0,0.9,0,1.4,0c5.3,0,10.2,1.7,14.2,4.6
	c6,4.3,9.9,11.4,10.2,19.3C412,86.5,400.6,98.3,386.5,98z"/>
<path class="st3" d="M279.8,35.1v76.4c0,0,0,0,0,0h140c0,0,0,0,0,0V35.1c0,0,0,0,0,0L279.8,35.1C279.8,35.1,279.8,35.1,279.8,35.1z
	 M313.1,98c-0.3,0-0.6,0-0.9,0c-5.5,0-10.5-1.8-14.5-4.9c-6-4.5-9.9-11.8-9.9-20c0-13.8,10.9-24.9,24.5-24.9c1.1,0,2.2,0.1,3.3,0.2
	c5.6,0.8,10.7,3.5,14.4,7.5c4.2,4.5,6.4,10.5,6.8,17.2C337.3,85.8,326.9,96.8,313.1,98z M386.5,98c-1.1,0-2.1-0.1-3.2-0.3
	c-5.6-0.9-10.6-3.7-14.3-7.8c-4-4.4-6.5-10.4-6.5-16.9c0-13.3,10.2-24.2,23.1-24.9c0.5,0,0.9,0,1.4,0c5.3,0,10.2,1.7,14.2,4.6
	c6,4.3,9.9,11.4,10.2,19.3C412,86.5,400.6,98.3,386.5,98z"/>
<polygon class="st4" points="354.4,117.5 354.4,129.1 354.4,129.1 344.8,129.1 344.8,129.1 344.8,117.5 344.8,117.5 354.4,117.5 "/>
<path class="st1" d="M377.4,134h-55.6c-1.2,0-1.9-1.3-1.3-2.3l1.2-1.9c0.4-0.2,0.8-0.5,1.3-0.7h53.2c0.4,0.2,0.8,0.5,1.3,0.7
	l1.2,1.9C379.3,132.7,378.6,134,377.4,134z"/>
<polygon class="st5" points="485,134 485,142.5 485,142.5 214,142.5 214,142.5 214,134 214,134 485,134 "/>
<polygon class="st6" points="475.6,142.5 475.6,192 475.6,192 223.8,192 223.8,192 223.8,142.5 223.8,142.5 475.6,142.5 "/>
<text transform="matrix(0.9813 0 0 1 367.9946 85.3218)" class="st7 st8 st9">d3</text>
<text transform="matrix(0.9813 0 0 1 301.6943 85.3218)" class="st7 st8 st9">R</text>
<g>
	<path class="st10" d="M356.1,61.6"/>
</g>
<polygon class="st11" points="355.1,56.9 355.1,58.4 337.4,58.4 337.4,52.8 355.1,52.8 "/>
<polygon class="st11" points="355.1,60.7 355.1,58.4 355.1,58.4 355.1,56.9 355.2,50.2 364.1,55.5 "/>
<polygon class="st11" points="344,93.5 344,94.9 361.7,94.9 361.7,89.4 344,89.4 "/>
<polygon class="st11" points="344,97.3 344,94.9 344,94.9 344,93.5 343.9,86.8 335,92.1 "/>
<path class="st6" d="M249.1,150.4"/>
<path class="st6" d="M849,239.5"/>
<path class="st12" d="M475.3,142.8c-167.6-1-251.4-0.8-251.4,0.4c0,1.2,83.9,3.5,251.8,6.8"/>
<rect x="141.2" y="19.6" class="st13" width="87.2" height="48.2"/>
<rect x="143.5" y="21.4" class="st14" width="15.6" height="6.7"/>
<rect x="165.6" y="21.4" class="st15" width="15.6" height="6.7"/>
<rect x="187.6" y="21.4" class="st14" width="15.6" height="6.7"/>
<rect x="209.7" y="21.4" class="st14" width="15.6" height="6.7"/>
<rect x="143.9" y="30.9" class="st14" width="15.6" height="6.7"/>
<rect x="165.9" y="30.9" class="st14" width="15.6" height="6.7"/>
<rect x="188" y="30.9" class="st14" width="15.6" height="6.7"/>
<rect x="210" y="30.9" class="st15" width="15.6" height="6.7"/>
<rect x="143.9" y="40.3" class="st15" width="15.6" height="6.7"/>
<rect x="165.9" y="40.3" class="st14" width="15.6" height="6.7"/>
<rect x="188" y="40.3" class="st14" width="15.6" height="6.7"/>
<rect x="210" y="40.3" class="st14" width="15.6" height="6.7"/>
<rect x="143.9" y="49.8" class="st14" width="15.6" height="6.7"/>
<rect x="165.9" y="49.8" class="st14" width="15.6" height="6.7"/>
<rect x="188" y="49.8" class="st15" width="15.6" height="6.7"/>
<rect x="210" y="49.8" class="st14" width="15.6" height="6.7"/>
<rect x="143.9" y="59.3" class="st14" width="15.6" height="6.7"/>
<rect x="165.9" y="59.3" class="st14" width="15.6" height="6.7"/>
<rect x="188" y="59.3" class="st14" width="15.6" height="6.7"/>
<rect x="210" y="59.3" class="st14" width="15.6" height="6.7"/>
</svg>
