<svg id="Layer_1" data-name="Layer 1" xmlns="http://www.w3.org/2000/svg" viewBox="0 0 709.8 200"><defs><style>.cls-1,.cls-10,.cls-9{fill:none;}.cls-2{fill:#fffac0;}.cls-3{fill:#c29257;}.cls-4{fill:#ccb152;}.cls-5{fill:#6bc265;}.cls-6{fill:#769b84;}.cls-7{fill:#818ccc;}.cls-8{fill:#59779b;}.cls-10,.cls-9{stroke:#aaa;stroke-miterlimit:10;stroke-width:4px;}.cls-10{stroke-dasharray:12.62 12.62;}.cls-11{fill:#ff5757;}.cls-12{fill:#cc8183;}</style></defs><title>ggplot2_purr</title><g id="illustration"><g id="background"><rect class="cls-1" x="11.6" width="698.2" height="175.1"/><g id="background-2" data-name="background"><rect class="cls-2" width="700" height="200"/></g></g></g><g id="graph1"><rect class="cls-3" x="84.4" y="45.2" width="12.7" height="115.7"/><rect class="cls-4" x="99.9" y="103" width="12.7" height="58"/><rect class="cls-4" x="115.3" y="129.4" width="12.7" height="31.7"/><rect class="cls-4" x="130.8" y="140.4" width="12.7" height="20.6"/><rect class="cls-4" x="146.3" y="100.4" width="12.7" height="60.6"/><rect class="cls-4" x="161.8" y="140.4" width="12.7" height="20.6"/></g><g id="graph2"><rect class="cls-5" x="238.6" y="45.2" width="12.7" height="115.7"/><rect class="cls-6" x="254" y="103" width="12.7" height="58"/><rect class="cls-6" x="269.5" y="129.4" width="12.7" height="31.7"/><rect class="cls-6" x="285" y="140.4" width="12.7" height="20.6"/><rect class="cls-6" x="300.5" y="100.4" width="12.7" height="60.6"/><rect class="cls-6" x="316" y="70.8" width="12.7" height="90.2"/></g><g id="graph3"><rect class="cls-7" x="392.8" y="123.6" width="12.7" height="37.3"/><rect class="cls-8" x="408.2" y="103" width="12.7" height="58"/><rect class="cls-8" x="423.7" y="82" width="12.7" height="79"/><rect class="cls-8" x="439.2" y="67.3" width="12.7" height="93.8"/><rect class="cls-8" x="454.7" y="100.4" width="12.7" height="60.6"/><rect class="cls-8" x="470.1" y="140.4" width="12.7" height="20.6"/><line class="cls-9" x1="361.2" y1="187" x2="361.2" y2="181"/><line class="cls-10" x1="361.1" y1="168.4" x2="360.3" y2="23.2"/><line class="cls-9" x1="360.2" y1="16.9" x2="360.2" y2="10.9"/><line class="cls-9" x1="207" y1="187" x2="207" y2="181"/><line class="cls-10" x1="206.9" y1="168.4" x2="206.1" y2="23.2"/><line class="cls-9" x1="206" y1="16.9" x2="206" y2="10.9"/><line class="cls-9" x1="515.4" y1="187" x2="515.4" y2="181"/><line class="cls-10" x1="515.3" y1="168.4" x2="514.5" y2="23.2"/><line class="cls-9" x1="514.4" y1="16.9" x2="514.4" y2="10.9"/></g><g id="graph4"><rect class="cls-11" x="546.9" y="123.6" width="12.7" height="37.3"/><rect class="cls-12" x="562.4" y="114.1" width="12.7" height="46.9"/><rect class="cls-12" x="577.9" y="130.7" width="12.7" height="30.3"/><rect class="cls-12" x="593.4" y="119.7" width="12.7" height="41.3"/><rect class="cls-12" x="608.8" y="82" width="12.7" height="79"/><rect class="cls-12" x="624.3" y="45.2" width="12.7" height="115.8"/></g></svg>