<?xml version="1.0" encoding="utf-8"?>
<!-- Generator: Adobe Illustrator 21.0.2, SVG Export Plug-In . SVG Version: 6.00 Build 0)  -->
<svg version="1.1" id="Layer_1" xmlns="http://www.w3.org/2000/svg" xmlns:xlink="http://www.w3.org/1999/xlink" x="0px" y="0px"
	 viewBox="0 0 700 200" style="enable-background:new 0 0 700 200;" xml:space="preserve">
<style type="text/css">
	.st0{fill:#EDE9E2;}
	.st1{fill:#EEDFAC;}
	.st2{fill:#75D9C7;}
	.st3{fill:#3DA587;}
	.st4{font-family:'Oxygen-Regular';}
	.st5{font-size:13.6534px;}
	.st6{font-family:'Oxygen-Bold';}
</style>
<rect class="st0" width="700" height="200"/>
<path class="st1" d="M316.1,165.8L316.1,165.8c-4.9,0-8.9-4-8.9-8.9V49.4c0-4.9,4-8.9,8.9-8.9l0,0c4.9,0,8.9,4,8.9,8.9V157
	C325,161.8,321,165.8,316.1,165.8z"/>
<path class="st1" d="M280.3,165.8L280.3,165.8c-4.9,0-8.9-4-8.9-8.9V49.4c0-4.9,4-8.9,8.9-8.9l0,0c4.9,0,8.9,4,8.9,8.9V157
	C289.2,161.8,285.2,165.8,280.3,165.8z"/>
<path class="st2" d="M316.1,165.8L316.1,165.8c-4.9,0-8.9-4-8.9-8.9V92.8c0-4.9,4-8.9,8.9-8.9l0,0c4.9,0,8.9,4,8.9,8.9v64.1
	C325,161.9,321,165.8,316.1,165.8z"/>
<path class="st2" d="M280.3,165.8L280.3,165.8c-4.9,0-8.9-4-8.9-8.9v-53.3c0-4.9,4-8.9,8.9-8.9l0,0c4.9,0,8.9,4,8.9,8.9v53.3
	C289.2,161.9,285.2,165.8,280.3,165.8z"/>
<path class="st2" d="M351.9,165.8L351.9,165.8c-4.9,0-8.9-4-8.9-8.9V49.4c0-4.9,4-8.9,8.9-8.9l0,0c4.9,0,8.9,4,8.9,8.9V157
	C360.8,161.9,356.8,165.8,351.9,165.8z"/>
<path class="st1" d="M387.7,165.8L387.7,165.8c-4.9,0-8.9-4-8.9-8.9V49.4c0-4.9,4-8.9,8.9-8.9l0,0c4.9,0,8.9,4,8.9,8.9V157
	C396.6,161.8,392.6,165.8,387.7,165.8z"/>
<path class="st1" d="M423.5,165.8L423.5,165.8c-4.9,0-8.9-4-8.9-8.9V49.4c0-4.9,4-8.9,8.9-8.9l0,0c4.9,0,8.9,4,8.9,8.9V157
	C432.4,161.8,428.5,165.8,423.5,165.8z"/>
<path class="st1" d="M459.4,165.8L459.4,165.8c-4.9,0-8.9-4-8.9-8.9V49.4c0-4.9,4-8.9,8.9-8.9l0,0c4.9,0,8.9,4,8.9,8.9V157
	C468.3,161.8,464.3,165.8,459.4,165.8z"/>
<path class="st1" d="M495,165.8L495,165.8c-4.9,0-8.9-4-8.9-8.9V49.4c0-4.9,4-8.9,8.9-8.9l0,0c4.9,0,8.9,4,8.9,8.9V157
	C503.9,161.8,499.9,165.8,495,165.8z"/>
<path class="st2" d="M387.7,165.8L387.7,165.8c-4.9,0-8.9-4-8.9-8.9V71.1c0-4.9,4-8.9,8.9-8.9l0,0c4.9,0,8.9,4,8.9,8.9v85.8
	C396.6,161.9,392.6,165.8,387.7,165.8z"/>
<path class="st2" d="M423.5,165.8L423.5,165.8c-4.9,0-8.9-4-8.9-8.9V82c0-4.9,4-8.9,8.9-8.9l0,0c4.9,0,8.9,4,8.9,8.9v75
	C432.4,161.9,428.4,165.8,423.5,165.8z"/>
<path class="st2" d="M459.2,165.8L459.2,165.8c-4.9,0-8.9-4-8.9-8.9v-42.4c0-4.9,4-8.9,8.9-8.9l0,0c4.9,0,8.9,4,8.9,8.9v42.4
	C468.1,161.9,464.2,165.8,459.2,165.8z"/>
<path class="st2" d="M495,165.8L495,165.8c-4.9,0-8.9-4-8.9-8.9v-31.5c0-4.9,4-8.9,8.9-8.9l0,0c4.9,0,8.9,4,8.9,8.9v31.5
	C503.9,161.9,499.9,165.8,495,165.8z"/>
<path class="st3" d="M95,8c-7.4,0-14.4,2-20.5,5.5l7.8,11.7c3.8-2,8.1-3.1,12.7-3.1c8.9,0,16.8,4.2,22,10.8l11.2-8
	C120.6,14.6,108.5,8,95,8z"/>
<path class="st2" d="M137,51.5c0,24-18.8,43.5-42,43.5S53,75.5,53,51.5c0-8.8,2.5-17.1,6.9-23.9l8.7,13.1c-1.3,3.4-2,7-2,10.9
	C66.6,67.8,79.3,81,95,81c15.1,0,27.4-12.2,28.3-27.6l13-9.3C136.8,46.4,137,48.9,137,51.5z"/>
<path class="st2" d="M123.3,53.2c0-0.6,0-1.2,0-1.7c0-7-2.4-13.5-6.4-18.6l11.2-8c4.1,5.5,6.9,11.9,8.1,19L123.3,53.2z"/>
<path class="st2" d="M82.3,25.2c-6.2,3.2-11.1,8.7-13.7,15.4l-8.7-13.1c3.7-5.8,8.7-10.6,14.6-14L82.3,25.2z"/>
<text transform="matrix(1.085 0 0 1 271.3076 183.2773)" class="st4 st5">MO</text>
<text transform="matrix(1.085 0 0 1 307.1265 183.2773)" class="st4 st5">TU</text>
<text transform="matrix(1.085 0 0 1 342.9458 183.2773)" class="st4 st5">WE</text>
<text transform="matrix(1.085 0 0 1 378.7656 183.2773)" class="st4 st5">TH</text>
<text transform="matrix(1.085 0 0 1 452.4746 183.2773)" class="st4 st5">SA</text>
<text transform="matrix(1.085 0 0 1 486.2236 183.2773)" class="st4 st5">SU</text>
<text transform="matrix(1.085 0 0 1 141.9897 27.7622)" class="st6 st5">From Last Month</text>
<text transform="matrix(1.085 0 0 1 176.3828 49.5942)" class="st6 st5">+ 745</text>
<text transform="matrix(1.085 0 0 1 414.585 183.2773)" class="st4 st5">FR</text>
</svg>
