<?xml version="1.0" encoding="utf-8"?>
<!-- Generator: Adobe Illustrator 21.0.2, SVG Export Plug-In . SVG Version: 6.00 Build 0)  -->
<svg version="1.1" id="Layer_1" xmlns="http://www.w3.org/2000/svg" xmlns:xlink="http://www.w3.org/1999/xlink" x="0px" y="0px"
	 viewBox="0 0 700 200" style="enable-background:new 0 0 700 200;" xml:space="preserve">
<style type="text/css">
	.st0{fill:#E2EDC1;}
	.st1{fill:#519D3D;}
	.st2{fill:#995C37;stroke:#995C37;stroke-miterlimit:10;}
	.st3{fill:#E7685D;}
	.st4{fill:none;stroke:#98A6E3;stroke-width:7;stroke-miterlimit:10;}
	.st5{opacity:0.26;fill:#CE400F;stroke:#CE400F;stroke-width:5;stroke-miterlimit:10;enable-background:new    ;}
	.st6{fill:#EFE8E8;}
	.st7{fill:#5A5D93;}
	.st8{fill:#5A5D93;stroke:#5A5D93;stroke-miterlimit:10;}
	.st9{fill:#BFCDDD;stroke:#BFCDDD;stroke-width:5;stroke-miterlimit:10;}
	.st10{fill:#F5846F;}
	.st11{fill:#635227;}
	.st12{fill:#B78509;}
	.st13{opacity:0.4;fill:#9A77E5;stroke:#9A77E5;stroke-width:5;stroke-miterlimit:10;enable-background:new    ;}
	.st14{fill:#E2DBCF;}
	.st15{fill:#E56B28;}
	.st16{fill:#82BC61;}
	.st17{fill:#DD629F;}
	.st18{fill:#BF9D60;}
	.st19{fill:none;stroke:#E56B28;stroke-miterlimit:10;}
	.st20{fill:none;stroke:#BF9D60;stroke-miterlimit:10;}
	.st21{fill:none;stroke:#5A5D93;stroke-miterlimit:10;}
	.st22{fill:none;stroke:#DD629F;stroke-miterlimit:10;}
	.st23{fill:none;stroke:#82BC61;stroke-miterlimit:10;}
	.st24{fill:#565A5E;}
</style>
<g id="background">
	<rect y="-2.9" class="st0" width="700" height="205.9"/>
</g>
<g id="shortcut">
	<g id="icon3">
		<circle class="st1" cx="624.9" cy="73.9" r="5.4"/>
		<circle class="st1" cx="624.9" cy="89.1" r="5.4"/>
		<circle class="st1" cx="610" cy="89.1" r="5.4"/>
		<circle class="st1" cx="601.1" cy="75.9" r="5.4"/>
		<circle class="st1" cx="603.2" cy="61.8" r="5.4"/>
		<circle class="st1" cx="617.9" cy="61.8" r="5.4"/>
		<circle class="st1" cx="613" cy="75.4" r="5.4"/>
		<polygon class="st2" points="584.8,105.4 576.9,105.6 569.1,105.7 572.9,98.8 576.8,91.8 580.8,98.7 		"/>
		<polygon class="st2" points="604.1,108.6 596.2,108.7 588.2,108.8 592.2,101.8 596.1,94.9 600.1,101.8 		"/>
		<polygon class="st2" points="595.1,91.7 587.2,91.8 579.2,91.8 583.2,84.9 586.9,77.9 591.1,84.8 		"/>
		<polygon class="st2" points="579.2,84.8 571.2,84.8 563.3,84.9 567.2,77.9 571.2,71.1 575.2,77.9 		"/>
		<rect x="597.5" y="113.8" class="st3" width="9.6" height="9.6"/>
		<rect x="622.5" y="113.8" class="st3" width="9.6" height="9.6"/>
		<rect x="610.6" y="113.8" class="st3" width="9.6" height="9.6"/>
		<rect x="603.4" y="125.9" class="st3" width="9.6" height="9.6"/>
		<rect x="617.7" y="125.9" class="st3" width="9.6" height="9.6"/>
		<line class="st4" x1="554.6" y1="153.5" x2="555.1" y2="40.6"/>
		<line class="st4" x1="651.5" y1="150.2" x2="551.4" y2="150.2"/>
	</g>
	<g id="Layer_3">
		<g>
			<path class="st5" d="M653.5,58.6v89.3c0,12.9-10.5,23.4-23.4,23.4h-81.4c-12.9,0-23.4-10.5-23.4-23.4V58.6
				c0-12.9,10.5-23.4,23.4-23.4h81.4C643.1,35.2,653.5,45.7,653.5,58.6z"/>
			<rect x="502.4" y="140" class="st6" width="45.8" height="45.8"/>
			<path class="st7" d="M546.2,142v41.8h-41.8V142H546.2 M548.2,140h-45.8v45.8h45.8V140L548.2,140z"/>
			<path class="st8" d="M538.3,147c-7.5,0-15,0-22.6,0c7,7,7,7,7,7c-1.6,1.1-4.1,3.1-6.2,6.5c-3.2,5.1-2.8,12.9,1.2,17
				c2.6,2.7,6.6,3.6,7.1,2.9c0.4-0.6-2-2-2.3-4.8c-0.3-2,0.5-3.8,1.7-5.4c2.1-2.8,4.8-5.3,7.5-7.5c2.2,2.3,4.4,4.6,6.6,6.9
				C538.3,162.1,538.3,154.5,538.3,147z"/>
		</g>
	</g>
</g>
<g id="icon2">
	<path class="st9" d="M412.8,58.6v89.3c0,12.9-10.5,23.4-23.4,23.4H308c-12.9,0-23.4-10.5-23.4-23.4V58.6
		c0-12.9,10.5-23.4,23.4-23.4h81.4C402.4,35.2,412.8,45.7,412.8,58.6z"/>
	<rect x="293.7" y="92" class="st10" width="33" height="69.8"/>
	<rect x="332.7" y="54.9" class="st11" width="33" height="106.9"/>
	<rect x="371.7" y="73.9" class="st12" width="33" height="87.9"/>
	<g>
		<rect x="262" y="140.9" class="st6" width="45.8" height="45.8"/>
		<path class="st7" d="M305.8,142.9v41.8H264v-41.8H305.8 M307.8,140.9H262v45.8h45.8V140.9L307.8,140.9z"/>
	</g>
	<path class="st8" d="M296.8,147c-7.5,0-15,0-22.6,0c7,7,7,7,7,7c-1.6,1.1-4.1,3.1-6.2,6.5c-3.2,5.1-2.8,12.9,1.2,17
		c2.6,2.7,6.6,3.6,7.1,2.9c0.4-0.6-2-2-2.3-4.8c-0.3-2,0.5-3.8,1.7-5.4c2.1-2.8,4.8-5.3,7.5-7.5c2.2,2.3,4.4,4.6,6.6,6.9
		C296.8,162.1,296.8,154.5,296.8,147z"/>
</g>
<g id="icon1_1_">
	<path class="st13" d="M189.7,58.6v89.3c0,12.9-10.5,23.4-23.4,23.4H84.9c-12.9,0-23.4-10.5-23.4-23.4V58.6
		c0-12.9,10.5-23.4,23.4-23.4h81.4C179.3,35.2,189.7,45.7,189.7,58.6z"/>
	<g id="plot">
		<g>
			<path class="st14" d="M125.3,99.9l-1.5-1.4c0.3-0.4,0.8-0.7,1.4-0.8l0,0L125.3,99.9L125.3,99.9z"/>
			<path class="st7" d="M166.9,124.9c-8.5,14.1-23.9,23.5-41.5,23.5c-1.7,0-3.4-0.1-5.1-0.3l4.9-46.4c0.1,0,0.1,0,0.2,0
				c0.7,0,1.2-0.3,1.6-0.8l13.5,8.1l1.8,1.1l8,4.8L166.9,124.9z"/>
			<path class="st14" d="M125.4,100l-0.2,1.7c-0.7-0.1-1.4-0.5-1.7-1.2L125.4,100z"/>
			<path class="st15" d="M124.3,87.3l0.9,10.5l0,0L124.3,87.3z"/>
			<path class="st16" d="M94.1,71.2l0.1-0.5l0,0l0.1,0.1l0.2-0.2l9.8,9.3l8.3,7.9l11.1,10.6c-0.3,0.3-0.4,0.8-0.4,1.2
				c0,0.3,0.1,0.6,0.2,0.8l-15,4.5l-11,3.3l-13.2,4c-0.2-0.3-0.3-0.7-0.5-1.1l4.8-18.8l4-15.4L94.1,71.2z"/>
			<path class="st14" d="M123.8,98.5l1.5,1.4l0.1,0.1l-1.8,0.6c-0.1-0.2-0.2-0.5-0.2-0.8C123.3,99.3,123.5,98.8,123.8,98.5z"/>
			<path class="st14" d="M125.4,100l1.6,0.9l0,0c-0.4,0.5-1,0.8-1.6,0.8c0,0-0.1,0-0.2,0L125.4,100L125.4,100z"/>
			<path class="st15" d="M124.3,87.3l0.9,10.5c-0.6,0-1.1,0.3-1.4,0.8L112.7,88c2.9-3,6.8-5,11.2-5.4L124.3,87.3z"/>
			<path class="st14" d="M125.7,99.8l-0.3,0.2l0,0l-0.2-2.2c0.1,0,0.1,0,0.2,0c0.8,0,1.4,0.4,1.8,1.1L125.7,99.8z"/>
			<path class="st17" d="M125.2,101.7l-4.9,46.4l-1.4,13.2c-13.3-1.4-25.3-7-34.7-15.5c-2.1-1.8-4-3.8-5.8-5.9
				c-5.4-6.4-9.6-13.9-12.1-22.1L79,114l0,0l3.5-1.1l0.4-0.1l1.3-0.4l13.2-4l11-3.3l15-4.5C123.8,101.2,124.4,101.7,125.2,101.7z"/>
			<path class="st14" d="M125.7,99.8l1.4-1l0,0c0.2,0.3,0.2,0.6,0.2,1s-0.1,0.9-0.4,1.2l-1.6-0.9L125.7,99.8z"/>
			<path class="st18" d="M149.2,83.3l-7.2,5l-2.3,1.6L127,98.8l0,0c-0.3-0.6-1-1.1-1.8-1.1c-0.1,0-0.1,0-0.2,0l-0.9-10.5l-0.4-4.8
				l-0.3-4.1l-0.6-7.4c0.8-0.1,1.6-0.1,2.5-0.1C135.2,70.9,143.9,75.8,149.2,83.3z"/>
			<path class="st15" d="M139.8,89.9c2,2.9,3.2,6.3,3.2,10.1c0,3.3-0.9,6.4-2.5,9.1L127,101l0,0c0.3-0.3,0.4-0.8,0.4-1.2
				c0-0.3-0.1-0.7-0.2-1L139.8,89.9z"/>
			<path class="st16" d="M94.1,71.2L93.9,71c0.1-0.1,0.2-0.2,0.3-0.3L94.1,71.2z"/>
			<path class="st16" d="M94.1,71.2L92.6,77l-4,15.4l-4.8,18.8c-0.5-1.1-0.9-2.5-1.3-4.1c-0.2-0.8-0.8-3.6-0.8-7.6
				c0.1-6.5,1.8-11.7,2.3-13.1c2.6-7.3,6.9-12.5,9.9-15.5L94.1,71.2z"/>
			<path class="st16" d="M94.5,70.6l-0.2,0.2l-0.1-0.1C94.3,70.6,94.4,70.6,94.5,70.6L94.5,70.6z"/>
			<path class="st16" d="M94.2,70.2c-0.1,0-0.1,0.1-0.2,0.1l0.5-0.5l0.4,0.4l-0.3,0.4l-0.1-0.1c-0.1,0.1-0.1,0.1-0.2,0.2l0.1-0.3
				L94.2,70.2z"/>
			<path class="st16" d="M84.1,86.5c-0.5,1.4-2.2,6.6-2.3,13.1c0,4,0.6,6.8,0.8,7.6c0.4,1.6,0.8,3,1.3,4.1l-0.2,0.8
				c-1.1-1.9-6.2-11.8-2.8-23.9c3-10.5,10.4-16.1,13.1-17.8l0.3,0.4l0,0c-0.1,0.1-0.2,0.2-0.3,0.3C90.9,74,86.6,79.2,84.1,86.5z"/>
			<path class="st16" d="M94.3,70.7L94,70.3c0.1,0,0.1-0.1,0.2-0.1l0.2,0.2L94.3,70.7z"/>
			<path class="st14" d="M125.4,100L125.4,100L125.4,100z"/>
			<polygon class="st14" points="125.4,100 125.4,100 125.3,99.9 			"/>
			<path class="st6" d="M84.2,145.9v25.4c-3.5-0.1-6.9-0.9-9.8-2.4c-0.5-0.2-0.9-0.5-1.4-0.8l0,0c-2.2-1.2-4.2-2.9-5.9-4.8
				c-3.6-4.1-5.8-9.5-5.8-15.4V140h17.2C80.2,142.1,82.1,144,84.2,145.9z"/>
		</g>
		<g>
			<path class="st19" d="M139.8,89.9c2,2.9,3.2,6.3,3.2,10.1c0,3.3-0.9,6.4-2.5,9.1"/>
			<path class="st20" d="M123.5,78.4l-0.6-7.4c0.8-0.1,1.6-0.1,2.5-0.1c9.9,0,18.6,4.9,23.8,12.4l-7.2,5"/>
			<path class="st19" d="M112.6,87.9c2.9-3,6.8-5,11.2-5.4"/>
			<path class="st21" d="M84.3,112.4c-0.2-0.3-0.3-0.7-0.5-1.1"/>
			<path class="st22" d="M120.3,148.1l-1.4,13.2c-13.3-1.4-25.3-7-34.7-15.5c-2.1-1.8-4-3.8-5.8-5.9c-5.4-6.4-9.6-13.9-12.1-22.1
				L79,114l0,0l3.5-1.1"/>
			<path class="st21" d="M142.3,110.2l8,4.8l16.5,9.9c-8.5,14.1-23.9,23.5-41.5,23.5c-1.7,0-3.4-0.1-5.1-0.3"/>
			<polyline class="st23" points="94.5,70.6 104.3,79.9 112.6,87.9 123.8,98.5 			"/>
			<polyline class="st22" points="82.6,112.9 83,112.8 84.3,112.4 97.5,108.4 108.5,105.1 123.5,100.6 			"/>
			<polyline class="st20" points="142,88.3 139.8,89.9 127.1,98.8 			"/>
			<polyline class="st20" points="123.5,78.4 123.9,82.5 124.3,87.3 125.2,97.7 			"/>
			<polyline class="st21" points="142.3,110.2 140.5,109.1 126.9,100.9 			"/>
			<polyline class="st23" points="96.1,73.1 94.1,71.2 93.9,71 93.9,71 			"/>
		</g>
	</g>
	<g>
		<rect x="39.5" y="138.9" class="st6" width="45.8" height="45.8"/>
		<path class="st7" d="M83.3,140.9v41.8H41.5v-41.8H83.3 M85.3,138.9H39.5v45.8h45.8V138.9L85.3,138.9z"/>
	</g>
	<path class="st8" d="M74.3,147c-7.5,0-15,0-22.6,0c7,7,7,7,7,7c-1.6,1.1-4.1,3.1-6.2,6.5c-3.2,5.1-2.8,12.9,1.2,17
		c2.6,2.7,6.6,3.6,7.1,2.9c0.4-0.6-2-2-2.3-4.8c-0.3-2,0.5-3.8,1.7-5.4c2.1-2.8,4.8-5.3,7.5-7.5c2.2,2.3,4.4,4.6,6.6,6.9
		C74.3,162.1,74.3,154.5,74.3,147z"/>
</g>
<g id="pointer">
	<polyline class="st24" points="424.7,188.1 404.7,131.6 404.7,131.6 404.7,131.6 404.7,131.6 461.3,151.5 436.7,163.6 424.7,188.1 
			"/>
	<path class="st24" d="M405.3,103.2L405.3,103.2c1.2,0,2.3,1,2.3,2.3v20.1c0,1.3-1,2.3-2.3,2.3l0,0c-1.3,0-2.3-1-2.3-2.3v-20.1
		C403,104.3,404.1,103.2,405.3,103.2L405.3,103.2z M405.3,145.8L405.3,145.8c1.2,0,2.3,1,2.3,2.3v20.1c0,1.2-1,2.3-2.3,2.3l0,0
		c-1.3,0-2.3-1-2.3-2.3v-20.1C403,146.8,404.1,145.8,405.3,145.8L405.3,145.8z M396.4,136.8L396.4,136.8c0,1.3-1,2.3-2.3,2.3H374
		c-1.2,0-2.3-1-2.3-2.3l0,0c0-1.2,1-2.3,2.3-2.3h20.1C395.4,134.6,396.4,135.6,396.4,136.8L396.4,136.8z M429.1,113.1L429.1,113.1
		c0.9,0.9,0.9,2.3,0,3.2l-14.2,14.2c-0.9,0.9-2.3,0.9-3.2,0l0,0c-0.9-0.9-0.9-2.3,0-3.2l14.2-14.2
		C426.7,112.2,428.2,112.2,429.1,113.1L429.1,113.1z M399,143.2L399,143.2c0.9,0.9,0.9,2.3,0,3.2l-14.2,14.2c-0.9,0.9-2.3,0.9-3.2,0
		l0,0c-0.9-0.9-0.9-2.3,0-3.2l14.2-14.2C396.7,142.3,398.1,142.3,399,143.2L399,143.2z M399,130.5L399,130.5c-0.9,0.9-2.3,0.9-3.2,0
		l-14.2-14.2c-0.9-0.9-0.9-2.3,0-3.2l0,0c0.9-0.9,2.3-0.9,3.2,0l14.2,14.2C399.9,128.2,399.9,129.6,399,130.5L399,130.5z"/>
</g>
</svg>
