<?xml version="1.0" encoding="utf-8"?>
<!-- Generator: Adobe Illustrator 21.0.2, SVG Export Plug-In . SVG Version: 6.00 Build 0)  -->
<svg version="1.1" id="Layer_1" xmlns="http://www.w3.org/2000/svg" xmlns:xlink="http://www.w3.org/1999/xlink" x="0px" y="0px"
	 viewBox="0 0 700 200" style="enable-background:new 0 0 700 200;" xml:space="preserve">
<style type="text/css">
	.st0{fill:#C3E0B8;}
	.st1{fill:#807ABF;}
	.st2{fill:#0020A0;}
	.st3{fill:#60A2B3;stroke:#60A2B3;stroke-width:0.5;stroke-miterlimit:10;}
	.st4{fill:#41A1DA;}
	.st5{fill:#FEFEFE;}
	.st6{fill:#D8484A;stroke:#D8484A;stroke-width:5.000000e-02;stroke-miterlimit:10;}
	.st7{fill:#D8484A;}
	.st8{fill:#DF88D2;}
	.st9{fill:none;stroke:#D8484A;stroke-width:5.000000e-02;stroke-miterlimit:10;}
	.st10{fill:#DF88D2;stroke:#DF88D2;stroke-width:0.5;stroke-miterlimit:10;}
	.st11{fill:#60A2B3;}
	.st12{fill:none;stroke:#807ABF;stroke-width:19;stroke-miterlimit:10;}
</style>
<g id="background_2_">
	<rect y="-0.1" class="st0" width="700" height="200"/>
</g>
<g>
	<path class="st1" d="M441.1,57.2c-3.7-0.8-16.4,0-16.4,0c-6.2,3.9-12.5,7.8-18.7,11.8c-1.5,4.7-3.2,9.4-4.7,14.1c0,0,7,0,8.2,0
		s2.4-7.1,2.4-7.1h8.2c0,0-1.1,4.1-2.4,6c-4.1,5.5-9.9,9-10.5,10.6c-0.7,2.7-0.2,5,1.1,5.9c1.1,0.7,2.4,0.4,3.5,0
		c4-1.4,6.8-5,10.5-8.3c5.9-5.1,8-5.2,10.5-9.4c1.1-1.8,1.5-2.2,3.5-4.7c1.7-2.2,3.4-3.8,4.7-4.7"/>
	<rect x="444.6" y="50.1" class="st1" width="37.4" height="24.8"/>
	<path class="st1" d="M440,84.1v44.6h-54V84.1h26.6c-5,4.2-9.4,7.1-10.1,8.8c-1,4-0.3,7.5,2,8.8c1.7,1,3.8,0.7,5.7,0
		c6.5-2.1,11-7.4,17.3-12.3c2.8-2.3,5.2-3.8,7.2-5.2L440,84.1L440,84.1z"/>
	<polygon class="st1" points="480.2,145.5 345.8,145.5 358.8,112 381.8,112 381.8,123.2 376.6,123.2 373.5,131.6 452.4,131.6 
		449.2,123.2 444.1,123.2 444.1,112 466.3,112 	"/>
	<rect x="345.8" y="149.7" class="st1" width="135.8" height="29.3"/>
</g>
<g id="candidate">
	<g id="Layer_3">
	</g>
	<g id="man_maire_1_">
		<g>
			<path class="st2" d="M580.5,44.1c-0.2,0-0.6,0-0.8,0.1c-0.2,0-0.6,0-0.8-0.1H580.5z"/>
			<path class="st3" d="M598.3,171.3c0.1,0.9-0.5,1.6-0.8,2h-13.2v-6c0-1.8,0-2.7,0-4c0.1-3.7-0.5-7.9-1.4-15.1c0,0-2.5-20.3-2-22.5
				h-2.7c0.6,2.1-2,22.5-2,22.5c-0.9,7.1-1.4,11.4-1.4,15.1c0,1.4,0,2.2,0,4v6h-13.2c-0.3-0.4-0.9-1.2-0.8-2
				c0.1-1.4,1.8-2.3,2.5-2.7c2.4-1.2,4-0.3,5-1.6c0.5-0.6,0.6-1.5,0.6-2c-0.8-34-0.8-34.5-0.8-34.5c0.1-7.6,0.3-8.9-0.2-12.4
				c-0.5-2.9-1.1-4.9-1.9-6.6c-0.2-0.6-0.6-1.3-0.8-1.8c-0.4-0.8-0.8-1.6-1.2-2.3c-0.3-0.7-0.6-1.4-0.9-2.1l-0.2-0.5
				c-0.3-1.1-0.7-2.3-0.8-3.7c-0.4-3,1.6-8.3,3.3-19.8c0.6-3.7,0.7-6.3,2.5-7.4c2.9-1.6,7.9,0,8.9-2.2c0.6-1.2,0.6-3,0-4
				c-0.9-1.6-2.6-0.8-4-2.5c-1-1.3-1-3-1.1-5.3c-0.1-3.1,0.6-3.4,0.6-6.7c0-3.4-0.7-4.1-0.2-5.4c0.4-1.4,2.1-3.2,7.7-3.6
				c5.6,0.5,7.2,2.2,7.7,3.6c0.4,1.4-0.3,1.9-0.2,5.4c0,3.3,0.7,3.7,0.6,6.7c-0.1,2.4-0.2,4.2-1.1,5.3c-1.4,1.7-3.1,0.8-4,2.5
				c-0.6,1.1-0.6,2.8,0,4c0.2,0.6,0.9,0.9,1.6,1.1h0.2c0.7,0.1,1.6,0.2,2.5,0.2c0.7,0,1.6,0.1,2.4,0.2c0.7,0.1,1.3,0.3,1.9,0.5
				c0.1,0,0.2,0.1,0.3,0.2c1.8,1.1,2,3.7,2.5,7.4c1.7,11.4,3.7,16.8,3.3,19.8c-1,7.5-4.2,7.9-5.8,17.1c-0.6,3.4-0.4,4.8-0.2,12.4
				c0,0,0,0.5-0.8,34.5c0,0.5,0.1,1.4,0.6,2c1,1.4,2.5,0.5,5,1.6C596.5,168.9,598.3,169.9,598.3,171.3z"/>
		</g>
		<path class="st4" d="M589.4,73.2c-0.7-0.1-1.6-0.2-2.4-0.2c-0.9,0-1.8-0.1-2.5-0.2h-0.2c0,0.1-0.1,0.2-0.2,0.3
			c-1.9,3.5-3.8,6.9-5.9,10.2c-4.7,7.6-9.7,14.7-15.2,21.5l0.2,0.5c0.2,0.7,0.6,1.4,0.9,2.1c0.4,0.8,0.8,1.6,1.2,2.3
			c0.2,0.5,0.6,1.2,0.8,1.8c9.5-11.3,18-23.9,25.2-37.7C590.7,73.4,590,73.2,589.4,73.2z"/>
		<g>
			<path class="st5" d="M589.4,73.2c-6.9,13.4-15,25.6-24.1,36.6c-0.4-0.8-0.8-1.6-1.2-2.3c-0.3-0.7-0.6-1.4-0.9-2.1
				c5.5-6.8,10.5-14,15.2-21.6c2.1-3.4,4.1-7,6-10.6c0-0.1,0.1-0.2,0.2-0.3c0.7,0.1,1.6,0.2,2.5,0.2C587.8,73,588.5,73,589.4,73.2z"
				/>
			<path class="st6" d="M584.5,72.8c0.7,0.1,1.6,0.2,2.5,0.2c-2,3.6-4,7.2-6.1,10.7l0,0l0,0l0,0c-0.5,0.8-1.1,1.7-1.6,2.5
				c-4.7,7.5-9.8,14.5-15.3,21c-0.3-0.7-0.6-1.4-0.9-2.1l-0.2-0.4c5.5-6.8,10.5-13.9,15.2-21.5c2-3.3,4-6.8,5.9-10.2
				c0-0.1,0.1-0.2,0.2-0.3"/>
		</g>
	</g>
	<g id="woman_maire_1_">
		<g>
			<g id="XMLID_3_">
				<g>
					<path class="st7" d="M664.6,19.9L664.6,19.9c0,0.1,0,0.3-0.1,0.4l0,0L664.6,19.9z"/>
					<path class="st8" d="M646.8,91.2c0.2,3.3,0.7,4.6,0.2,7.1c-0.2,1.1-0.4,1.8-0.6,2.3c-1.6,5.1-4.2,6.4-4.7,9.9
						c-0.2,1.9,0.2,3.4,0.7,4.8c3.3,10.2,5.4,30.8,1.4,32.8c-0.2,0.1-1.4,0.2-3.7,0.2c-3.1,0-3.5-0.2-4.2,0.3
						c-1.3,1-0.6,3.4-0.7,7.5c-0.2,7.3-3.2,11.4-1.5,13.1c0.1,0.1,0.9,0.3,2.5,0.8c0.7,0.3,3.8,1.1,4.7,2.3c0.1,0.1,0.2,0.4,0.2,0.5
						c-0.2,0.3-0.7,0.3-0.9,0.3c-2.5-0.2-7.4,1.9-9.3-0.4c-0.3-0.5-0.4-0.8-0.4-1.9c0-0.7,0-1.8,0.1-3.3c0.2-8-0.1-6.5,0.2-9.5
						c0.5-5.8,1.4-8.5,0.2-9.5c-0.5-0.4-1.3-0.4-1.8,0c-1.2,0.9-0.3,3.6,0.2,9.5c0.2,2.9-0.1,1.4,0.2,9.5c0,1.5,0.1,2.6,0.1,3.3
						c0,1.2-0.1,1.5-0.4,1.9c-1.9,2.3-6.8,0.3-9.3,0.4c-0.2,0-0.7,0.1-0.9-0.3c-0.1-0.2,0.1-0.5,0.2-0.5c0.8-1.3,3.9-2.2,4.7-2.3
						c1.6-0.5,2.5-0.7,2.5-0.8c1.7-1.7-1.2-5.7-1.5-13.1c-0.2-4.1,0.7-6.5-0.7-7.5c-0.6-0.5-1.1-0.3-4.2-0.3c-2.3,0-3.4,0-3.7-0.2
						c-4-2-2-22.6,1.4-32.8c0.4-1.4,1-2.8,0.7-4.8c-0.1-0.7-0.3-1.4-0.6-2c0.9-0.8,1.7-1.7,2.5-2.5c0.1,0,0.2-0.1,0.2-0.3
						c8.4-8.6,16.1-18.1,23-28.4c0.5,0.5,1.1,1.1,1.6,1.9c0.7,1.1,0.9,2.2,1.1,4.3C646.8,87.4,646.5,87.7,646.8,91.2z M641.6,103.6
						c1-2.3,0.7-4.4,0.7-5.1c-0.7-8,0.2-14.1-0.7-14.3c-0.2,0-0.5,0.4-0.7,0.8c-2,3.7-1.9,7.9-1.8,12.3c0.1,6.8,0.1,8.6,0.7,8.8
						C640.5,106.2,641.5,103.9,641.6,103.6z"/>
					<path class="st8" d="M644.3,60.7c0.7-0.8-1.2,2.7-2.5,2.8c-1.1,0.1-1.7-0.7-2.1-0.4c-0.3,0.3-0.3,1.1,0,1.6
						c0.5,0.7,1.7,1.1,2.2,1c-0.9,1-1.7,1.5-2.2,1.8c-0.2,0.1-1.1,0.5-1.9,0.6c-0.1,0-0.7,0.1-1.3,0.2c-0.2,0-0.3,0-0.4,0.1
						c-0.7,0.2-1.3,0.3-1.7,0.5c-0.9,0.5-1.2-0.2-1.8,0.3c-0.5,0.4-0.5,1.4-0.3,2c0.2,0.8,0.7,1.2,2.1,2.3c1.5,1.2,2.1,1.8,2.5,2
						c0,0,0.1,0,0.2,0c-0.2,0.2-0.2,0.4-0.4,0.5c-2,3-4.2,6-6.5,8.8c-2.9,3.7-5.8,7.2-8.9,10.7c0-3.6-0.2-7.2-1.8-10.4
						c-0.2-0.5-0.5-0.8-0.7-0.8c-1,0.1-0.1,6.2-0.7,14.3c0,0.1,0,0.3,0,0.5c-0.8,0.9-1.7,1.8-2.5,2.6c-0.3,0.3-0.6,0.6-0.9,0.9
						c-0.2-0.5-0.4-1.2-0.7-1.8c-0.2-0.5-0.4-1.3-0.6-2.3c-0.4-2.5,0-3.9,0.2-7.1c0.2-3.4,0-3.8,0.3-7.5c0.2-2.2,0.4-3.3,1.1-4.3
						c0.2-0.5,1.1-2,2.9-2.8c0.2-0.1,0.3-0.1,2.8-0.5c2.5-0.5,2.6-0.5,2.9-0.6c0.4-0.2,1.1-0.7,2.5-2c1.6-1.4,2-1.7,2.1-2.3
						s0.1-1.6-0.3-2c-0.6-0.5-0.2,0.2-1.1-0.3c-0.4-0.2-1.8-0.3-2.5-0.5c0,0-0.2,0-0.4-0.1c-0.7-0.1-1.2-0.2-1.3-0.2
						c-0.9-0.1-1.7-0.5-1.9-0.6c-1-0.3-1.9-1.4-2.2-1.8c0.6,0.1,1.8-0.3,2.2-1c0.3-0.5,0.3-1.3,0-1.6c-0.4-0.4-1.1,0.5-2.1,0.4
						c-1.3-0.1-3.3-3.6-2.5-2.8c0.7,0.8,4-1.7,3.9-2.3c0-0.7-3.9-1.6-3.9-1.6s1.9-1.2,3.6-3.2c2.3-2.7,1.4-5.1,3.2-7.5
						c0.9-1.2,3.4-2.6,7.2-2.8h0.4c3.8,0.2,6.2,1.6,7.2,2.8c1.8,2.3,0.9,4.9,3.3,7.5c1.7,2,3.6,3.2,3.6,3.2s-3.9,0.9-3.9,1.6
						C640.3,59,643.6,61.5,644.3,60.7z"/>
					<path class="st4" d="M642.5,76.5c0.2,0.1,0.7,0.4,1.3,0.8c-6.9,10.3-14.6,19.8-23,28.4c0.2-0.4,0.2-1.3,0.3-3
						c7.7-8,14.7-16.9,21.1-26.4C642.3,76.4,642.4,76.4,642.5,76.5z"/>
					<path class="st5" d="M639.7,76c1.5,0.3,2,0.4,2.4,0.5c-6.4,9.5-13.4,18.3-21.1,26.4c0-1,0.1-2.3,0.1-3.9
						c6.6-7.1,12.7-14.8,18.5-23C639.6,76,639.7,76,639.7,76z"/>
					<path class="st7" d="M637.2,75.5c0.3,0.1,0.9,0.2,2.4,0.5c-5.6,8.2-11.8,15.9-18.5,23c0-0.5,0-1.1,0-1.6c0-0.5,0-0.9,0-1.3
						c3.1-3.5,6.2-7.2,9.1-10.9c2.3-2.9,4.5-6,6.6-9.1C637,75.8,637.1,75.6,637.2,75.5z"/>
					<path class="st8" d="M637.2,75.5c-0.1,0.2-0.2,0.3-0.3,0.5c-2.1,3.2-4.3,6.1-6.6,9.1c-2.9,3.8-6,7.5-9.1,10.9
						c0-0.3,0-0.5,0-0.6c3.1-3.4,6-7,8.9-10.7c2.2-2.9,4.3-5.8,6.5-8.8c0.2-0.2,0.2-0.4,0.4-0.5C637,75.5,637.1,75.5,637.2,75.5z"/>
					<path class="st7" d="M636.9,75.4l0.3,0.1C637.1,75.5,637,75.5,636.9,75.4z"/>
					<path class="st8" d="M620.5,106.1L620.5,106.1c-0.8,0.8-1.7,1.7-2.5,2.5c-0.2-0.5-0.6-1.1-0.9-1.6c0.7-0.7,1.5-1.4,2.2-2.2
						C619.6,105.3,620.1,106.1,620.5,106.1z"/>
					<path class="st8" d="M618.7,103.6c0,0.1,0.2,0.5,0.5,1.1c-0.7,0.7-1.5,1.4-2.2,2.2c-0.4-0.7-0.9-1.4-1.4-2.3
						c0.8-0.8,1.7-1.7,2.5-2.5c0,0,0.1,0,0.1-0.1C618.3,102.5,618.5,103.1,618.7,103.6z"/>
					<path class="st8" d="M618.1,102.1C618.1,102.1,618.1,102.2,618.1,102.1c-0.9,0.9-1.7,1.7-2.6,2.6c-0.3-0.5-0.7-1.1-0.9-1.7
						c0.4-0.5,0.9-0.9,1.4-1.4c0.7-0.6,1.2-1.3,1.9-1.9C617.9,100.3,618,101.1,618.1,102.1z"/>
					<path class="st8" d="M617.9,98.9c0,0.2,0,0.4,0,0.6c-0.7,0.6-1.2,1.3-1.9,1.9c-0.4,0.5-0.9,0.9-1.4,1.4l-0.2-0.5
						c0.3-0.3,0.6-0.6,0.9-0.9C616.3,100.7,617.1,99.8,617.9,98.9z"/>
				</g>
				<g>
					<path class="st9" d="M639.6,76c-5.6,8.2-11.8,15.9-18.5,23c0-0.5,0-1.1,0-1.6c0-0.5,0-0.9,0-1.3c0-0.3,0-0.5,0-0.6"/>
				</g>
			</g>
		</g>
	</g>
</g>
<g id="municipality">
</g>
<g id="votant">
	<g id="woman_12_">
		<path class="st10" d="M195.8,58.9c0-2,1.4-3.8,3.4-4.5c2-0.7,4.3,0,5.6,1.5c1.3,1.5,1.5,3.7,0.4,5.5c-1.1,1.7-3.2,2.6-5.3,2.2
			C197.6,63.2,195.8,61.2,195.8,58.9z"/>
		<path class="st10" d="M206,71.4c2.3,7.3,4.6,14.5,6.8,21.8c-1.8,0-3.5,0-5.3,0c-0.2,0-0.4,0-0.6,0c-0.1,0-0.3,0-0.4,0
			c-0.2,0-0.1,0-0.2,0.1c-0.1,0.2,0,0.5,0,0.7c0,0.2,0,0.5,0,0.7c0,0.8,0,1.6,0,2.4c0,3.4,0,6.8,0,10.1c0,0.9,0,1.7,0,2.6
			c0,0.6-0.2,1.1-0.7,1.5c-0.7,0.6-2,0.9-2.9,0.5c-1.5-0.6-1.2-2.2-1.2-3.4c0-1.7,0-3.4,0-5.1c0-1.9,0-3.7,0-5.6c0-0.9,0-1.9,0-2.8
			c0-0.4,0-1,0-1.5c0-0.4,0-0.1-0.1-0.2c-0.1,0-0.3,0-0.4,0c-0.3,0-0.5,0-0.8,0c0,3.6,0,7.2,0.1,10.8c0,1.8,0,3.6,0,5.4
			c0,1.1-0.5,2.2-1.8,2.4c-1.1,0.2-2.2-0.1-2.8-1c-0.3-0.5-0.3-1.1-0.4-1.7c-0.1-1.8-0.1-3.7-0.1-5.5c0-3.5,0.1-7,0.2-10.5
			c-2.2,0-4.4,0-6.6,0c2.3-7.3,4.6-14.5,6.8-21.8c-0.2,0-0.5,0-0.8,0c-0.3,0-0.4,0-0.4,0.2c-0.1,0.4-0.3,0.9-0.4,1.4
			c-0.2,0.8-0.5,1.6-0.7,2.4c-0.4,1.4-0.9,2.8-1.3,4.2c-0.5,1.6-1,3.4-1.8,4.9c-0.4,0.8-1.3,1.3-2.2,1.1c-0.5-0.1-1.1-0.4-1.3-0.9
			c-0.4-0.7-0.2-1.4,0.1-2.2c1.1-3.5,2.2-7,3.4-10.6c0.3-0.9,0.6-1.8,0.8-2.6c0.2-0.7,0.4-1.2,0.8-1.8c0.9-1.2,2.1-2.2,3.6-2.6
			c0.4-0.1,0.9-0.1,1.3-0.1c0.5,0,1,0,1.5,0c1,0,2,0,3,0s2,0,3,0c0.7,0,1.4,0,2.1,0.2c1.5,0.4,2.8,1.3,3.6,2.6
			c0.4,0.6,0.6,1.3,0.8,2c0.3,0.9,0.6,1.8,0.8,2.6c1.1,3.5,2.2,7.1,3.4,10.6c0.2,0.6,0.4,1.1,0.2,1.6s-0.7,0.9-1.3,1.1
			c-0.7,0.2-1.4,0.1-1.9-0.3c-0.6-0.4-0.7-1.1-0.8-1.8c-1.1-3.5-2.2-7.1-3.3-10.6c-0.1-0.4-0.2-0.8-0.4-1.2c0,0-0.1-0.3-0.1-0.4
			c0,0-0.4,0-0.4,0C206.6,71.4,206.3,71.4,206,71.4z"/>
	</g>
	<g id="Man">
		<g>
			<ellipse class="st11" cx="234.2" cy="59.4" rx="5.4" ry="4.8"/>
			<path class="st11" d="M234.2,64.2c3,0,5.4-2.2,5.4-4.8s-2.4-4.8-5.4-4.8s-5.4,2.2-5.4,4.8C228.8,62.1,231.2,64.2,234.2,64.2z
				 M234.2,54.7c2.9,0,5.3,2.1,5.3,4.7c0,2.6-2.4,4.7-5.3,4.7s-5.3-2.1-5.3-4.7C228.9,56.8,231.3,54.7,234.2,54.7z"/>
		</g>
		<g>
			<path class="st11" d="M241,72.9c0,5.2,0,10.5,0,15.7c0,4.6,0,9.2,0,13.9c0,2.4,0,4.7,0,7.1c0,0.9-0.4,1.7-1.3,2.2
				c-0.6,0.3-1.2,0.4-1.8,0.3c-0.9,0-1.7-0.2-2.3-0.8c-0.7-0.6-0.7-1.2-0.7-2c0-2.3,0-4.6,0-7c0-4.6,0-9.3,0.1-14
				c-0.2,0-0.5,0-0.8,0c-0.1,0-0.3,0-0.4,0c-0.2,0-0.1,0-0.2,0.1c-0.1,0.2,0,0.5,0,0.7c0,0.2,0,0.4,0,0.7c0,0.9,0,1.7,0,2.5
				c0,3.5,0,7.1,0,10.6c0,1.8,0,3.5,0,5.3c0,0.5,0,1,0,1.5c0,0.3,0,0.7-0.1,1c-0.2,0.6-0.8,1.1-1.4,1.4c-0.8,0.3-1.8,0.3-2.6,0.1
				c-0.7-0.2-1.4-0.7-1.8-1.2c-0.4-0.6-0.3-1.3-0.3-2c0-3.5,0-7.1,0-10.6c0-7.1,0-14.2-0.1-21.3c0-0.9,0-1.8,0-2.6
				c0-0.2,0-0.5,0-0.7c0-0.2,0.1-0.5,0-0.7c-0.1-0.1-0.1-0.1-0.3-0.1c-0.1,0-0.2,0-0.3,0c-0.1,0-0.2,0-0.4,0c-0.2,0-0.1,0-0.2,0.1
				c-0.1,0.2,0,0.5,0,0.7s0,0.4,0,0.6c0,0.4,0,0.9,0,1.3c0,0.9,0,1.8,0,2.7c0,1.8,0,3.5,0,5.2c0,0.9,0,1.8,0,2.6
				c0,0.5-0.1,1-0.5,1.4c-0.7,0.7-2.4,0.9-3.3,0.2c-0.5-0.3-0.7-0.8-0.7-1.3c0-0.8,0-1.6,0-2.4c0-3.5,0-7,0-10.5c0-0.9,0-1.8,0-2.7
				c0-0.4,0-0.9,0.1-1.3c0.2-0.4,0.3-0.7,0.5-1.1c0.7-1.2,1.8-2.1,3.3-2.6c1.6-0.6,3.3-0.4,5-0.4c2,0,3.9,0,5.9,0c1,0,2,0,3.1,0
				c0.9,0,1.9-0.1,2.7,0.1c1.5,0.4,2.5,1.2,3.6,2.2c0.5,0.5,0.9,1.1,1.1,1.8c0.2,0.7,0.2,1.5,0.2,2.2c0,1.8,0,3.5,0,5.3
				c0,1.8,0,3.5,0,5.3c0,0.9,0,1.8,0,2.6c0,0.7,0.2,1.4-0.1,2c-0.4,1.1-1.7,1.4-2.9,1.2c-0.8-0.2-1.5-0.7-1.6-1.5c-0.1-1,0-2,0-3
				c0-1.7,0-3.4,0-5.1c0-1.5,0-2.9,0-4.4c0-0.3,0.1-0.8,0-1.1c-0.1-0.2,0.1,0-0.1-0.1C241.8,72.9,241.3,72.9,241,72.9z"/>
			<path class="st11" d="M230.4,112.2c0.5,0,1.1-0.1,1.5-0.3c0.7-0.3,1.2-0.8,1.5-1.4c0.1-0.3,0.1-0.5,0.1-0.8c0-0.1,0-0.1,0-0.2
				l0.1-20.5c0,0,0-0.1,0-0.2c0-0.2,0-0.3,0-0.4c0,0,0,0,0,0c0,0,0.1,0,0.1,0c0.1,0,0.2,0,0.2,0c0,0,0.1,0,0.1,0h0.7l-0.1,20.9
				c0,0.8,0,1.4,0.7,2.1c0.6,0.5,1.4,0.8,2.4,0.9c0.8,0,1.3-0.1,1.8-0.3c0.9-0.4,1.4-1.2,1.4-2.2l0-36.6c0.1,0,0.2,0,0.3,0
				c0.2,0,0.6,0,0.7,0c0,0,0,0,0.1,0v0c0.1,0.2,0,0.4,0,0.7c0,0.1,0,0.2,0,0.3v9.5c0,0.3,0,0.7,0,1c0,0.7,0,1.3,0,2
				c0.1,0.8,0.9,1.3,1.7,1.5c1.1,0.2,2.5,0,2.9-1.2c0.2-0.4,0.1-1,0.1-1.5c0-0.2,0-0.4,0-0.6V71.6c0-0.1,0-0.3,0-0.4
				c0-0.6,0-1.2-0.2-1.8c-0.2-0.7-0.6-1.3-1.2-1.8c-1.1-1.1-2.2-1.8-3.6-2.2c-0.6-0.2-1.3-0.1-2-0.1c-0.3,0-0.5,0-0.8,0h-8.8
				c-0.3,0-0.6,0-0.8,0c-1.4,0-2.9,0-4.2,0.5c-1.5,0.6-2.6,1.5-3.3,2.7c-0.2,0.4-0.4,0.7-0.5,1.1c-0.1,0.4-0.1,0.7-0.1,1.1
				c0,0.1,0,0.1,0,0.2V84c0,0.3,0,0.5,0,0.8c0,0.5,0,1.1,0,1.6c0,0.6,0.3,1.1,0.8,1.4c0.9,0.6,2.6,0.5,3.3-0.2
				c0.4-0.4,0.5-0.9,0.5-1.4l0-12.4c0,0,0-0.1,0-0.2c0-0.2,0-0.4,0-0.5c0,0,0,0,0,0c0,0,0,0,0.1,0c0,0,0.2,0,0.2,0c0,0,0.1,0,0.1,0
				h0.3c0,0,0.1,0,0.1,0c0.1,0,0.1,0,0.1,0.1c0,0.1,0,0.3,0,0.4c0,0.1,0,0.1,0,0.2l0.1,35.2c0,0.1,0,0.2,0,0.3c0,0.6,0,1.1,0.3,1.6
				c0.4,0.6,1,1.1,1.8,1.3C229.6,112.2,230,112.2,230.4,112.2z M226.9,72.8L226.9,72.8c-0.1,0-0.1,0-0.1,0h-0.3c0,0-0.1,0-0.1,0
				c-0.1,0-0.2,0-0.3,0s-0.1,0-0.1,0c-0.1,0-0.1,0-0.1,0s0,0,0,0c-0.1,0.1,0,0.3,0,0.5c0,0.1,0,0.2,0,0.2l0,12.4
				c0,0.5-0.1,0.9-0.5,1.3c-0.7,0.7-2.3,0.8-3.2,0.2c-0.4-0.3-0.7-0.7-0.7-1.3c0-0.5,0-1.1,0-1.6c0-0.3,0-0.5,0-0.8V70.8
				c0-0.1,0-0.1,0-0.2c0-0.4,0-0.7,0.1-1.1c0.1-0.4,0.3-0.7,0.5-1.1c0.7-1.2,1.8-2.1,3.2-2.6c1.3-0.5,2.7-0.5,4.2-0.5
				c0.3,0,0.6,0,0.8,0h8.9c0.2,0,0.5,0,0.8,0c0.7,0,1.3,0,1.9,0.1c1.4,0.4,2.4,1.1,3.5,2.2c0.5,0.5,0.9,1.1,1.1,1.8
				c0.2,0.6,0.2,1.2,0.2,1.8c0,0.1,0,0.3,0,0.4v13.2c0,0.2,0,0.4,0,0.6c0,0.5,0.1,1-0.1,1.4c-0.4,1.2-1.8,1.3-2.8,1.1
				c-0.7-0.1-1.5-0.7-1.6-1.4c-0.1-0.7,0-1.3,0-2c0-0.3,0-0.7,0-1V74c0-0.1,0-0.2,0-0.3c0-0.3,0-0.6,0-0.8v0l0,0l-0.1-0.1h0
				c0,0,0,0-0.1,0c-0.2-0.1-0.5,0-0.8,0c-0.1,0-0.2,0-0.3,0h0l0,36.7c0,0.9-0.4,1.7-1.3,2.1c-0.5,0.2-1.1,0.3-1.8,0.3
				c-0.9,0-1.7-0.3-2.3-0.8c-0.7-0.7-0.7-1.3-0.7-2l0.1-21h-0.8c0,0-0.1,0-0.1,0c-0.1,0-0.2,0-0.3,0c-0.1,0-0.1,0-0.1,0
				c-0.1,0-0.1,0-0.1,0.1c0,0,0,0,0,0c-0.1,0.1,0,0.3,0,0.5c0,0.1,0,0.1,0,0.2l-0.1,20.5c0,0.1,0,0.1,0,0.2c0,0.3,0,0.5-0.1,0.8
				c-0.2,0.6-0.7,1.1-1.4,1.4c-0.7,0.3-1.7,0.3-2.6,0.1c-0.7-0.2-1.3-0.6-1.7-1.2c-0.3-0.5-0.3-1-0.3-1.6c0-0.1,0-0.2,0-0.3
				l-0.1-35.2c0,0,0-0.1,0-0.2C227.1,73.1,227.1,72.9,226.9,72.8C227.1,72.9,227,72.8,226.9,72.8z"/>
		</g>
		<g>
			<ellipse class="st11" cx="172.3" cy="59" rx="5.4" ry="4.8"/>
			<path class="st11" d="M172.3,63.8c3,0,5.4-2.2,5.4-4.8s-2.4-4.8-5.4-4.8s-5.4,2.2-5.4,4.8C166.9,61.7,169.3,63.8,172.3,63.8z
				 M172.3,54.3c2.9,0,5.3,2.1,5.3,4.7c0,2.6-2.4,4.7-5.3,4.7c-2.9,0-5.3-2.1-5.3-4.7C167,56.4,169.4,54.3,172.3,54.3z"/>
		</g>
		<g>
			<path class="st11" d="M179.1,72.9c0,5.2,0,10.5,0,15.7c0,4.6,0,9.2,0,13.9c0,2.4,0,4.7,0,7.1c0,0.9-0.4,1.7-1.3,2.2
				c-0.6,0.3-1.2,0.4-1.8,0.3c-0.9,0-1.7-0.2-2.3-0.8c-0.7-0.6-0.7-1.2-0.7-2c0-2.3,0-4.6,0-7c0-4.6,0-9.3,0.1-14
				c-0.2,0-0.5,0-0.8,0c-0.1,0-0.3,0-0.4,0c-0.2,0-0.1,0-0.2,0.1c-0.1,0.2,0,0.5,0,0.7c0,0.2,0,0.4,0,0.7c0,0.9,0,1.7,0,2.5
				c0,3.5,0,7.1,0,10.6c0,1.8,0,3.5,0,5.3c0,0.5,0,1,0,1.5c0,0.3,0,0.7-0.1,1c-0.2,0.6-0.8,1.1-1.4,1.4c-0.8,0.3-1.8,0.3-2.6,0.1
				c-0.7-0.2-1.4-0.7-1.8-1.2c-0.4-0.6-0.3-1.3-0.3-2c0-3.5,0-7.1,0-10.6c0-7.1,0-14.2-0.1-21.3c0-0.9,0-1.8,0-2.6
				c0-0.2,0-0.5,0-0.7c0-0.2,0.1-0.5,0-0.7c-0.1-0.1-0.1-0.1-0.3-0.1c-0.1,0-0.2,0-0.3,0s-0.2,0-0.4,0c-0.2,0-0.1,0-0.2,0.1
				c-0.1,0.2,0,0.5,0,0.7s0,0.4,0,0.6c0,0.4,0,0.9,0,1.3c0,0.9,0,1.8,0,2.7c0,1.8,0,3.5,0,5.2c0,0.9,0,1.8,0,2.6
				c0,0.5-0.1,1-0.5,1.4c-0.7,0.7-2.4,0.9-3.3,0.2c-0.5-0.3-0.7-0.8-0.7-1.3c0-0.8,0-1.6,0-2.4c0-3.5,0-7,0-10.5c0-0.9,0-1.8,0-2.7
				c0-0.4,0-0.9,0.1-1.3c0.2-0.4,0.3-0.7,0.5-1.1c0.7-1.2,1.8-2.1,3.3-2.6c1.6-0.6,3.3-0.4,5-0.4c2,0,3.9,0,5.9,0c1,0,2,0,3.1,0
				c0.9,0,1.9-0.1,2.7,0.1c1.5,0.4,2.5,1.2,3.6,2.2c0.5,0.5,0.9,1.1,1.1,1.8c0.2,0.7,0.2,1.5,0.2,2.2c0,1.8,0,3.5,0,5.3
				c0,1.8,0,3.5,0,5.3c0,0.9,0,1.8,0,2.6c0,0.7,0.2,1.4-0.1,2c-0.4,1.1-1.7,1.4-2.9,1.2c-0.8-0.2-1.5-0.7-1.6-1.5c-0.1-1,0-2,0-3
				c0-1.7,0-3.4,0-5.1c0-1.5,0-2.9,0-4.4c0-0.3,0.1-0.8,0-1.1c-0.1-0.2,0.1,0-0.1-0.1C179.9,72.9,179.4,72.9,179.1,72.9z"/>
			<path class="st11" d="M168.5,112.2c0.5,0,1.1-0.1,1.5-0.3c0.7-0.3,1.2-0.8,1.5-1.4c0.1-0.3,0.1-0.5,0.1-0.8c0-0.1,0-0.1,0-0.2
				l0.1-20.5c0,0,0-0.1,0-0.2c0-0.2,0-0.3,0-0.4c0,0,0,0,0,0c0,0,0.1,0,0.1,0c0.1,0,0.2,0,0.2,0c0,0,0.1,0,0.1,0h0.7l-0.1,20.9
				c0,0.8,0,1.4,0.7,2.1c0.6,0.5,1.4,0.8,2.4,0.9c0.8,0,1.3-0.1,1.8-0.3c0.9-0.4,1.4-1.2,1.4-2.2l0-36.6c0.1,0,0.2,0,0.3,0
				c0.2,0,0.6,0,0.7,0c0,0,0,0,0.1,0v0c0.1,0.2,0,0.4,0,0.7c0,0.1,0,0.2,0,0.3v9.5c0,0.3,0,0.7,0,1c0,0.7,0,1.3,0,2
				c0.1,0.8,0.9,1.3,1.7,1.5c1.1,0.2,2.5,0,2.9-1.2c0.2-0.4,0.1-1,0.1-1.5c0-0.2,0-0.4,0-0.6V71.6c0-0.1,0-0.3,0-0.4
				c0-0.6,0-1.2-0.2-1.8c-0.2-0.7-0.6-1.3-1.2-1.8c-1.1-1.1-2.2-1.8-3.6-2.2c-0.6-0.2-1.3-0.1-2-0.1c-0.3,0-0.5,0-0.8,0h-8.8
				c-0.3,0-0.6,0-0.8,0c-1.4,0-2.9,0-4.2,0.5c-1.5,0.6-2.6,1.5-3.3,2.7c-0.2,0.4-0.4,0.7-0.5,1.1c-0.1,0.4-0.1,0.7-0.1,1.1
				c0,0.1,0,0.1,0,0.2V84c0,0.3,0,0.5,0,0.8c0,0.5,0,1.1,0,1.6c0,0.6,0.3,1.1,0.8,1.4c0.9,0.6,2.6,0.5,3.3-0.2
				c0.4-0.4,0.5-0.9,0.5-1.4l0-12.4c0,0,0-0.1,0-0.2c0-0.2,0-0.4,0-0.5c0,0,0,0,0,0c0,0,0,0,0.1,0c0,0,0.2,0,0.2,0c0,0,0.1,0,0.1,0
				h0.3c0,0,0.1,0,0.1,0c0.1,0,0.1,0,0.1,0.1c0,0.1,0,0.3,0,0.4c0,0.1,0,0.1,0,0.2l0.1,35.2c0,0.1,0,0.2,0,0.3c0,0.6,0,1.1,0.3,1.6
				c0.4,0.6,1,1.1,1.8,1.3C167.7,112.2,168.1,112.2,168.5,112.2z M165,72.8L165,72.8c-0.1,0-0.1,0-0.1,0h-0.3c0,0-0.1,0-0.1,0
				c-0.1,0-0.2,0-0.3,0c-0.1,0-0.1,0-0.1,0c-0.1,0-0.1,0-0.1,0s0,0,0,0c-0.1,0.1,0,0.3,0,0.5c0,0.1,0,0.2,0,0.2l0,12.4
				c0,0.5-0.1,0.9-0.5,1.3c-0.7,0.7-2.3,0.8-3.2,0.2c-0.4-0.3-0.7-0.7-0.7-1.3c0-0.5,0-1.1,0-1.6c0-0.3,0-0.5,0-0.8V70.8
				c0-0.1,0-0.1,0-0.2c0-0.4,0-0.7,0.1-1.1c0.1-0.4,0.3-0.7,0.5-1.1c0.7-1.2,1.8-2.1,3.2-2.6c1.3-0.5,2.7-0.5,4.2-0.5
				c0.3,0,0.6,0,0.8,0h8.9c0.2,0,0.5,0,0.8,0c0.7,0,1.3,0,1.9,0.1c1.4,0.4,2.4,1.1,3.5,2.2c0.5,0.5,0.9,1.1,1.1,1.8
				c0.2,0.6,0.2,1.2,0.2,1.8c0,0.1,0,0.3,0,0.4v13.2c0,0.2,0,0.4,0,0.6c0,0.5,0.1,1-0.1,1.4c-0.4,1.2-1.8,1.3-2.8,1.1
				c-0.7-0.1-1.5-0.7-1.6-1.4c-0.1-0.7,0-1.3,0-2c0-0.3,0-0.7,0-1V74c0-0.1,0-0.2,0-0.3c0-0.3,0-0.6,0-0.8v0l0,0l-0.1-0.1h0
				c0,0,0,0-0.1,0c-0.2-0.1-0.5,0-0.8,0c-0.1,0-0.2,0-0.3,0h0l0,36.7c0,0.9-0.4,1.7-1.3,2.1c-0.5,0.2-1.1,0.3-1.8,0.3
				c-0.9,0-1.7-0.3-2.3-0.8c-0.7-0.7-0.7-1.3-0.7-2l0.1-21h-0.8c0,0-0.1,0-0.1,0c-0.1,0-0.2,0-0.3,0c-0.1,0-0.1,0-0.1,0
				c-0.1,0-0.1,0-0.1,0.1c0,0,0,0,0,0c-0.1,0.1,0,0.3,0,0.5c0,0.1,0,0.1,0,0.2l-0.1,20.5c0,0.1,0,0.1,0,0.2c0,0.3,0,0.5-0.1,0.8
				c-0.2,0.6-0.7,1.1-1.4,1.4c-0.7,0.3-1.7,0.3-2.6,0.1c-0.7-0.2-1.3-0.6-1.7-1.2c-0.3-0.5-0.3-1-0.3-1.6c0-0.1,0-0.2,0-0.3
				l-0.1-35.2c0,0,0-0.1,0-0.2C165.2,73.1,165.2,72.9,165,72.8C165.2,72.9,165.1,72.8,165,72.8z"/>
		</g>
		<g>
			<ellipse class="st11" cx="172.3" cy="125.8" rx="5.4" ry="4.8"/>
			<path class="st11" d="M172.3,130.6c3,0,5.4-2.2,5.4-4.8s-2.4-4.8-5.4-4.8s-5.4,2.2-5.4,4.8C166.9,128.4,169.3,130.6,172.3,130.6z
				 M172.3,121.1c2.9,0,5.3,2.1,5.3,4.7s-2.4,4.7-5.3,4.7c-2.9,0-5.3-2.1-5.3-4.7C167,123.2,169.4,121.1,172.3,121.1z"/>
		</g>
		<g>
			<path class="st11" d="M179.1,139.7c0,5.2,0,10.5,0,15.7c0,4.6,0,9.2,0,13.9c0,2.4,0,4.7,0,7.1c0,0.9-0.4,1.7-1.3,2.2
				c-0.6,0.3-1.2,0.4-1.8,0.3c-0.9,0-1.7-0.2-2.3-0.8c-0.7-0.6-0.7-1.2-0.7-2c0-2.3,0-4.6,0-7c0-4.6,0-9.3,0.1-14
				c-0.2,0-0.5,0-0.8,0c-0.1,0-0.3,0-0.4,0c-0.2,0-0.1,0-0.2,0.1c-0.1,0.2,0,0.5,0,0.7c0,0.2,0,0.4,0,0.7c0,0.9,0,1.7,0,2.5
				c0,3.5,0,7.1,0,10.6c0,1.8,0,3.5,0,5.3c0,0.5,0,1,0,1.5c0,0.3,0,0.7-0.1,1c-0.2,0.6-0.8,1.1-1.4,1.4c-0.8,0.3-1.8,0.3-2.6,0.1
				c-0.7-0.2-1.4-0.7-1.8-1.2c-0.4-0.6-0.3-1.3-0.3-2c0-3.5,0-7.1,0-10.6c0-7.1,0-14.2-0.1-21.3c0-0.9,0-1.8,0-2.6
				c0-0.2,0-0.5,0-0.7c0-0.2,0.1-0.5,0-0.7c-0.1-0.1-0.1-0.1-0.3-0.1c-0.1,0-0.2,0-0.3,0s-0.2,0-0.4,0c-0.2,0-0.1,0-0.2,0.1
				c-0.1,0.2,0,0.5,0,0.7c0,0.2,0,0.4,0,0.6c0,0.4,0,0.9,0,1.3c0,0.9,0,1.8,0,2.7c0,1.8,0,3.5,0,5.2c0,0.9,0,1.8,0,2.6
				c0,0.5-0.1,1-0.5,1.4c-0.7,0.7-2.4,0.9-3.3,0.2c-0.5-0.3-0.7-0.8-0.7-1.3c0-0.8,0-1.6,0-2.4c0-3.5,0-7,0-10.5c0-0.9,0-1.8,0-2.7
				c0-0.4,0-0.9,0.1-1.3c0.2-0.4,0.3-0.7,0.5-1.1c0.7-1.2,1.8-2.1,3.3-2.6c1.6-0.6,3.3-0.4,5-0.4c2,0,3.9,0,5.9,0c1,0,2,0,3.1,0
				c0.9,0,1.9-0.1,2.7,0.1c1.5,0.4,2.5,1.2,3.6,2.2c0.5,0.5,0.9,1.1,1.1,1.8c0.2,0.7,0.2,1.5,0.2,2.2c0,1.8,0,3.5,0,5.3
				c0,1.8,0,3.5,0,5.3c0,0.9,0,1.8,0,2.6c0,0.7,0.2,1.4-0.1,2c-0.4,1.1-1.7,1.4-2.9,1.2c-0.8-0.2-1.5-0.7-1.6-1.5c-0.1-1,0-2,0-3
				c0-1.7,0-3.4,0-5.1c0-1.5,0-2.9,0-4.4c0-0.3,0.1-0.8,0-1.1c-0.1-0.2,0.1,0-0.1-0.1C179.9,139.6,179.4,139.7,179.1,139.7z"/>
			<path class="st11" d="M168.5,179c0.5,0,1.1-0.1,1.5-0.3c0.7-0.3,1.2-0.8,1.5-1.4c0.1-0.3,0.1-0.5,0.1-0.8c0-0.1,0-0.1,0-0.2
				l0.1-20.5c0,0,0-0.1,0-0.2c0-0.2,0-0.3,0-0.4c0,0,0,0,0,0c0,0,0.1,0,0.1,0c0.1,0,0.2,0,0.2,0c0,0,0.1,0,0.1,0h0.7l-0.1,20.9
				c0,0.8,0,1.4,0.7,2.1c0.6,0.5,1.4,0.8,2.4,0.9c0.8,0,1.3-0.1,1.8-0.3c0.9-0.4,1.4-1.2,1.4-2.2l0-36.6c0.1,0,0.2,0,0.3,0
				c0.2,0,0.6,0,0.7,0c0,0,0,0,0.1,0v0c0.1,0.2,0,0.4,0,0.7c0,0.1,0,0.2,0,0.3v9.5c0,0.3,0,0.7,0,1c0,0.7,0,1.3,0,2
				c0.1,0.8,0.9,1.3,1.7,1.5c1.1,0.2,2.5,0,2.9-1.2c0.2-0.4,0.1-1,0.1-1.5c0-0.2,0-0.4,0-0.6v-13.3c0-0.1,0-0.3,0-0.4
				c0-0.6,0-1.2-0.2-1.8c-0.2-0.7-0.6-1.3-1.2-1.8c-1.1-1.1-2.2-1.8-3.6-2.2c-0.6-0.2-1.3-0.1-2-0.1c-0.3,0-0.5,0-0.8,0h-8.8
				c-0.3,0-0.6,0-0.8,0c-1.4,0-2.9,0-4.2,0.5c-1.5,0.6-2.6,1.5-3.3,2.7c-0.2,0.4-0.4,0.7-0.5,1.1s-0.1,0.7-0.1,1.1
				c0,0.1,0,0.1,0,0.2v13.2c0,0.3,0,0.5,0,0.8c0,0.5,0,1.1,0,1.6c0,0.6,0.3,1.1,0.8,1.4c0.9,0.6,2.6,0.5,3.3-0.2
				c0.4-0.4,0.5-0.9,0.5-1.4l0-12.4c0,0,0-0.1,0-0.2c0-0.2,0-0.4,0-0.5c0,0,0,0,0,0c0,0,0,0,0.1,0c0,0,0.2,0,0.2,0c0,0,0.1,0,0.1,0
				h0.3c0,0,0.1,0,0.1,0c0.1,0,0.1,0,0.1,0.1c0,0.1,0,0.3,0,0.4c0,0.1,0,0.1,0,0.2l0.1,35.2c0,0.1,0,0.2,0,0.3c0,0.6,0,1.1,0.3,1.6
				c0.4,0.6,1,1.1,1.8,1.3C167.7,178.9,168.1,179,168.5,179z M165,139.6L165,139.6c-0.1,0-0.1,0-0.1,0h-0.3c0,0-0.1,0-0.1,0
				c-0.1,0-0.2,0-0.3,0c-0.1,0-0.1,0-0.1,0c-0.1,0-0.1,0-0.1,0s0,0,0,0c-0.1,0.1,0,0.3,0,0.5c0,0.1,0,0.2,0,0.2l0,12.4
				c0,0.5-0.1,0.9-0.5,1.3c-0.7,0.7-2.3,0.8-3.2,0.2c-0.4-0.3-0.7-0.7-0.7-1.3c0-0.5,0-1.1,0-1.6c0-0.3,0-0.5,0-0.8v-13.1
				c0-0.1,0-0.1,0-0.2c0-0.4,0-0.7,0.1-1.1s0.3-0.7,0.5-1.1c0.7-1.2,1.8-2.1,3.2-2.6c1.3-0.5,2.7-0.5,4.2-0.5c0.3,0,0.6,0,0.8,0h8.9
				c0.2,0,0.5,0,0.8,0c0.7,0,1.3,0,1.9,0.1c1.4,0.4,2.4,1.1,3.5,2.2c0.5,0.5,0.9,1.1,1.1,1.8c0.2,0.6,0.2,1.2,0.2,1.8
				c0,0.1,0,0.3,0,0.4v13.2c0,0.2,0,0.4,0,0.6c0,0.5,0.1,1-0.1,1.4c-0.4,1.2-1.8,1.3-2.8,1.1c-0.7-0.1-1.5-0.7-1.6-1.4
				c-0.1-0.7,0-1.3,0-2c0-0.3,0-0.7,0-1v-9.5c0-0.1,0-0.2,0-0.3c0-0.3,0-0.6,0-0.8v0l0,0l-0.1-0.1h0c0,0,0,0-0.1,0
				c-0.2-0.1-0.5,0-0.8,0c-0.1,0-0.2,0-0.3,0h0l0,36.7c0,0.9-0.4,1.7-1.3,2.1c-0.5,0.2-1.1,0.3-1.8,0.3c-0.9,0-1.7-0.3-2.3-0.8
				c-0.7-0.7-0.7-1.3-0.7-2l0.1-21h-0.8c0,0-0.1,0-0.1,0c-0.1,0-0.2,0-0.3,0c-0.1,0-0.1,0-0.1,0c-0.1,0-0.1,0-0.1,0.1c0,0,0,0,0,0
				c-0.1,0.1,0,0.3,0,0.5c0,0.1,0,0.1,0,0.2l-0.1,20.5c0,0.1,0,0.1,0,0.2c0,0.3,0,0.5-0.1,0.8c-0.2,0.6-0.7,1.1-1.4,1.4
				c-0.7,0.3-1.7,0.3-2.6,0.1c-0.7-0.2-1.3-0.6-1.7-1.2c-0.3-0.5-0.3-1-0.3-1.6c0-0.1,0-0.2,0-0.3l-0.1-35.2c0,0,0-0.1,0-0.2
				C165.2,139.9,165.2,139.7,165,139.6C165.2,139.6,165.1,139.6,165,139.6z"/>
		</g>
		<g>
			<ellipse class="st11" cx="234.2" cy="125.8" rx="5.4" ry="4.8"/>
			<path class="st11" d="M234.2,130.6c3,0,5.4-2.2,5.4-4.8s-2.4-4.8-5.4-4.8s-5.4,2.2-5.4,4.8C228.8,128.4,231.2,130.6,234.2,130.6z
				 M234.2,121.1c2.9,0,5.3,2.1,5.3,4.7s-2.4,4.7-5.3,4.7s-5.3-2.1-5.3-4.7C228.9,123.2,231.3,121.1,234.2,121.1z"/>
		</g>
		<g>
			<path class="st11" d="M241,139.3c0,5.2,0,10.5,0,15.7c0,4.6,0,9.2,0,13.9c0,2.4,0,4.7,0,7.1c0,0.9-0.4,1.7-1.3,2.2
				c-0.6,0.3-1.2,0.4-1.8,0.3c-0.9,0-1.7-0.2-2.3-0.8c-0.7-0.6-0.7-1.2-0.7-2c0-2.3,0-4.6,0-7c0-4.6,0-9.3,0.1-14
				c-0.2,0-0.5,0-0.8,0c-0.1,0-0.3,0-0.4,0c-0.2,0-0.1,0-0.2,0.1c-0.1,0.2,0,0.5,0,0.7c0,0.2,0,0.4,0,0.7c0,0.9,0,1.7,0,2.5
				c0,3.5,0,7.1,0,10.6c0,1.8,0,3.5,0,5.3c0,0.5,0,1,0,1.5c0,0.3,0,0.7-0.1,1c-0.2,0.6-0.8,1.1-1.4,1.4c-0.8,0.3-1.8,0.3-2.6,0.1
				c-0.7-0.2-1.4-0.7-1.8-1.2c-0.4-0.6-0.3-1.3-0.3-2c0-3.5,0-7.1,0-10.6c0-7.1,0-14.2-0.1-21.3c0-0.9,0-1.8,0-2.6
				c0-0.2,0-0.5,0-0.7c0-0.2,0.1-0.5,0-0.7c-0.1-0.1-0.1-0.1-0.3-0.1c-0.1,0-0.2,0-0.3,0c-0.1,0-0.2,0-0.4,0c-0.2,0-0.1,0-0.2,0.1
				c-0.1,0.2,0,0.5,0,0.7c0,0.2,0,0.4,0,0.6c0,0.4,0,0.9,0,1.3c0,0.9,0,1.8,0,2.7c0,1.8,0,3.5,0,5.2c0,0.9,0,1.8,0,2.6
				c0,0.5-0.1,1-0.5,1.4c-0.7,0.7-2.4,0.9-3.3,0.2c-0.5-0.3-0.7-0.8-0.7-1.3c0-0.8,0-1.6,0-2.4c0-3.5,0-7,0-10.5c0-0.9,0-1.8,0-2.7
				c0-0.4,0-0.9,0.1-1.3c0.2-0.4,0.3-0.7,0.5-1.1c0.7-1.2,1.8-2.1,3.3-2.6c1.6-0.6,3.3-0.4,5-0.4c2,0,3.9,0,5.9,0c1,0,2,0,3.1,0
				c0.9,0,1.9-0.1,2.7,0.1c1.5,0.4,2.5,1.2,3.6,2.2c0.5,0.5,0.9,1.1,1.1,1.8c0.2,0.7,0.2,1.5,0.2,2.2c0,1.8,0,3.5,0,5.3
				c0,1.8,0,3.5,0,5.3c0,0.9,0,1.8,0,2.6c0,0.7,0.2,1.4-0.1,2c-0.4,1.1-1.7,1.4-2.9,1.2c-0.8-0.2-1.5-0.7-1.6-1.5c-0.1-1,0-2,0-3
				c0-1.7,0-3.4,0-5.1c0-1.5,0-2.9,0-4.4c0-0.3,0.1-0.8,0-1.1c-0.1-0.2,0.1,0-0.1-0.1C241.8,139.2,241.3,139.3,241,139.3z"/>
			<path class="st11" d="M230.4,178.6c0.5,0,1.1-0.1,1.5-0.3c0.7-0.3,1.2-0.8,1.5-1.4c0.1-0.3,0.1-0.5,0.1-0.8c0-0.1,0-0.1,0-0.2
				l0.1-20.5c0,0,0-0.1,0-0.2c0-0.2,0-0.3,0-0.4c0,0,0,0,0,0c0,0,0.1,0,0.1,0c0.1,0,0.2,0,0.2,0c0,0,0.1,0,0.1,0h0.7l-0.1,20.9
				c0,0.8,0,1.4,0.7,2.1c0.6,0.5,1.4,0.8,2.4,0.9c0.8,0,1.3-0.1,1.8-0.3c0.9-0.4,1.4-1.2,1.4-2.2l0-36.6c0.1,0,0.2,0,0.3,0
				c0.2,0,0.6,0,0.7,0c0,0,0,0,0.1,0v0c0.1,0.2,0,0.4,0,0.7c0,0.1,0,0.2,0,0.3v9.5c0,0.3,0,0.7,0,1c0,0.7,0,1.3,0,2
				c0.1,0.8,0.9,1.3,1.7,1.5c1.1,0.2,2.5,0,2.9-1.2c0.2-0.4,0.1-1,0.1-1.5c0-0.2,0-0.4,0-0.6V138c0-0.1,0-0.3,0-0.4
				c0-0.6,0-1.2-0.2-1.8c-0.2-0.7-0.6-1.3-1.2-1.8c-1.1-1.1-2.2-1.8-3.6-2.2c-0.6-0.2-1.3-0.1-2-0.1c-0.3,0-0.5,0-0.8,0h-8.8
				c-0.3,0-0.6,0-0.8,0c-1.4,0-2.9,0-4.2,0.5c-1.5,0.6-2.6,1.5-3.3,2.7c-0.2,0.4-0.4,0.7-0.5,1.1s-0.1,0.7-0.1,1.1
				c0,0.1,0,0.1,0,0.2v13.2c0,0.3,0,0.5,0,0.8c0,0.5,0,1.1,0,1.6c0,0.6,0.3,1.1,0.8,1.4c0.9,0.6,2.6,0.5,3.3-0.2
				c0.4-0.4,0.5-0.9,0.5-1.4l0-12.4c0,0,0-0.1,0-0.2c0-0.2,0-0.4,0-0.5c0,0,0,0,0,0c0,0,0,0,0.1,0c0,0,0.2,0,0.2,0c0,0,0.1,0,0.1,0
				h0.3c0,0,0.1,0,0.1,0c0.1,0,0.1,0,0.1,0.1c0,0.1,0,0.3,0,0.4c0,0.1,0,0.1,0,0.2l0.1,35.2c0,0.1,0,0.2,0,0.3c0,0.6,0,1.1,0.3,1.6
				c0.4,0.6,1,1.1,1.8,1.3C229.6,178.5,230,178.6,230.4,178.6z M226.9,139.2L226.9,139.2c-0.1,0-0.1,0-0.1,0h-0.3c0,0-0.1,0-0.1,0
				c-0.1,0-0.2,0-0.3,0s-0.1,0-0.1,0c-0.1,0-0.1,0-0.1,0s0,0,0,0c-0.1,0.1,0,0.3,0,0.5c0,0.1,0,0.2,0,0.2l0,12.4
				c0,0.5-0.1,0.9-0.5,1.3c-0.7,0.7-2.3,0.8-3.2,0.2c-0.4-0.3-0.7-0.7-0.7-1.3c0-0.5,0-1.1,0-1.6c0-0.3,0-0.5,0-0.8v-13.1
				c0-0.1,0-0.1,0-0.2c0-0.4,0-0.7,0.1-1.1c0.1-0.4,0.3-0.7,0.5-1.1c0.7-1.2,1.8-2.1,3.2-2.6c1.3-0.5,2.7-0.5,4.2-0.5
				c0.3,0,0.6,0,0.8,0h8.9c0.2,0,0.5,0,0.8,0c0.7,0,1.3,0,1.9,0.1c1.4,0.4,2.4,1.1,3.5,2.2c0.5,0.5,0.9,1.1,1.1,1.8
				c0.2,0.6,0.2,1.2,0.2,1.8c0,0.1,0,0.3,0,0.4v13.2c0,0.2,0,0.4,0,0.6c0,0.5,0.1,1-0.1,1.4c-0.4,1.2-1.8,1.3-2.8,1.1
				c-0.7-0.1-1.5-0.7-1.6-1.4c-0.1-0.7,0-1.3,0-2c0-0.3,0-0.7,0-1v-9.5c0-0.1,0-0.2,0-0.3c0-0.3,0-0.6,0-0.8v0l0,0l-0.1-0.1h0
				c0,0,0,0-0.1,0c-0.2-0.1-0.5,0-0.8,0c-0.1,0-0.2,0-0.3,0h0l0,36.7c0,0.9-0.4,1.7-1.3,2.1c-0.5,0.2-1.1,0.3-1.8,0.3
				c-0.9,0-1.7-0.3-2.3-0.8c-0.7-0.7-0.7-1.3-0.7-2l0.1-21h-0.8c0,0-0.1,0-0.1,0c-0.1,0-0.2,0-0.3,0c-0.1,0-0.1,0-0.1,0
				c-0.1,0-0.1,0-0.1,0.1c0,0,0,0,0,0c-0.1,0.1,0,0.3,0,0.5c0,0.1,0,0.1,0,0.2l-0.1,20.5c0,0.1,0,0.1,0,0.2c0,0.3,0,0.5-0.1,0.8
				c-0.2,0.6-0.7,1.1-1.4,1.4c-0.7,0.3-1.7,0.3-2.6,0.1c-0.7-0.2-1.3-0.6-1.7-1.2c-0.3-0.5-0.3-1-0.3-1.6c0-0.1,0-0.2,0-0.3
				l-0.1-35.2c0,0,0-0.1,0-0.2C227.1,139.5,227.1,139.3,226.9,139.2C227.1,139.2,227,139.2,226.9,139.2z"/>
		</g>
		<g>
			<ellipse class="st11" cx="172.3" cy="125.8" rx="5.4" ry="4.8"/>
			<path class="st11" d="M172.3,130.6c3,0,5.4-2.2,5.4-4.8s-2.4-4.8-5.4-4.8s-5.4,2.2-5.4,4.8C166.9,128.4,169.3,130.6,172.3,130.6z
				 M172.3,121.1c2.9,0,5.3,2.1,5.3,4.7s-2.4,4.7-5.3,4.7c-2.9,0-5.3-2.1-5.3-4.7C167,123.2,169.4,121.1,172.3,121.1z"/>
		</g>
		<g>
			<path class="st11" d="M179.1,139.3c0,5.2,0,10.5,0,15.7c0,4.6,0,9.2,0,13.9c0,2.4,0,4.7,0,7.1c0,0.9-0.4,1.7-1.3,2.2
				c-0.6,0.3-1.2,0.4-1.8,0.3c-0.9,0-1.7-0.2-2.3-0.8c-0.7-0.6-0.7-1.2-0.7-2c0-2.3,0-4.6,0-7c0-4.6,0-9.3,0.1-14
				c-0.2,0-0.5,0-0.8,0c-0.1,0-0.3,0-0.4,0c-0.2,0-0.1,0-0.2,0.1c-0.1,0.2,0,0.5,0,0.7c0,0.2,0,0.4,0,0.7c0,0.9,0,1.7,0,2.5
				c0,3.5,0,7.1,0,10.6c0,1.8,0,3.5,0,5.3c0,0.5,0,1,0,1.5c0,0.3,0,0.7-0.1,1c-0.2,0.6-0.8,1.1-1.4,1.4c-0.8,0.3-1.8,0.3-2.6,0.1
				c-0.7-0.2-1.4-0.7-1.8-1.2c-0.4-0.6-0.3-1.3-0.3-2c0-3.5,0-7.1,0-10.6c0-7.1,0-14.2-0.1-21.3c0-0.9,0-1.8,0-2.6
				c0-0.2,0-0.5,0-0.7c0-0.2,0.1-0.5,0-0.7c-0.1-0.1-0.1-0.1-0.3-0.1c-0.1,0-0.2,0-0.3,0s-0.2,0-0.4,0c-0.2,0-0.1,0-0.2,0.1
				c-0.1,0.2,0,0.5,0,0.7c0,0.2,0,0.4,0,0.6c0,0.4,0,0.9,0,1.3c0,0.9,0,1.8,0,2.7c0,1.8,0,3.5,0,5.2c0,0.9,0,1.8,0,2.6
				c0,0.5-0.1,1-0.5,1.4c-0.7,0.7-2.4,0.9-3.3,0.2c-0.5-0.3-0.7-0.8-0.7-1.3c0-0.8,0-1.6,0-2.4c0-3.5,0-7,0-10.5c0-0.9,0-1.8,0-2.7
				c0-0.4,0-0.9,0.1-1.3c0.2-0.4,0.3-0.7,0.5-1.1c0.7-1.2,1.8-2.1,3.3-2.6c1.6-0.6,3.3-0.4,5-0.4c2,0,3.9,0,5.9,0c1,0,2,0,3.1,0
				c0.9,0,1.9-0.1,2.7,0.1c1.5,0.4,2.5,1.2,3.6,2.2c0.5,0.5,0.9,1.1,1.1,1.8c0.2,0.7,0.2,1.5,0.2,2.2c0,1.8,0,3.5,0,5.3
				c0,1.8,0,3.5,0,5.3c0,0.9,0,1.8,0,2.6c0,0.7,0.2,1.4-0.1,2c-0.4,1.1-1.7,1.4-2.9,1.2c-0.8-0.2-1.5-0.7-1.6-1.5c-0.1-1,0-2,0-3
				c0-1.7,0-3.4,0-5.1c0-1.5,0-2.9,0-4.4c0-0.3,0.1-0.8,0-1.1c-0.1-0.2,0.1,0-0.1-0.1C179.9,139.2,179.4,139.3,179.1,139.3z"/>
			<path class="st11" d="M168.5,178.6c0.5,0,1.1-0.1,1.5-0.3c0.7-0.3,1.2-0.8,1.5-1.4c0.1-0.3,0.1-0.5,0.1-0.8c0-0.1,0-0.1,0-0.2
				l0.1-20.5c0,0,0-0.1,0-0.2c0-0.2,0-0.3,0-0.4c0,0,0,0,0,0c0,0,0.1,0,0.1,0c0.1,0,0.2,0,0.2,0c0,0,0.1,0,0.1,0h0.7l-0.1,20.9
				c0,0.8,0,1.4,0.7,2.1c0.6,0.5,1.4,0.8,2.4,0.9c0.8,0,1.3-0.1,1.8-0.3c0.9-0.4,1.4-1.2,1.4-2.2l0-36.6c0.1,0,0.2,0,0.3,0
				c0.2,0,0.6,0,0.7,0c0,0,0,0,0.1,0v0c0.1,0.2,0,0.4,0,0.7c0,0.1,0,0.2,0,0.3v9.5c0,0.3,0,0.7,0,1c0,0.7,0,1.3,0,2
				c0.1,0.8,0.9,1.3,1.7,1.5c1.1,0.2,2.5,0,2.9-1.2c0.2-0.4,0.1-1,0.1-1.5c0-0.2,0-0.4,0-0.6V138c0-0.1,0-0.3,0-0.4
				c0-0.6,0-1.2-0.2-1.8c-0.2-0.7-0.6-1.3-1.2-1.8c-1.1-1.1-2.2-1.8-3.6-2.2c-0.6-0.2-1.3-0.1-2-0.1c-0.3,0-0.5,0-0.8,0h-8.8
				c-0.3,0-0.6,0-0.8,0c-1.4,0-2.9,0-4.2,0.5c-1.5,0.6-2.6,1.5-3.3,2.7c-0.2,0.4-0.4,0.7-0.5,1.1s-0.1,0.7-0.1,1.1
				c0,0.1,0,0.1,0,0.2v13.2c0,0.3,0,0.5,0,0.8c0,0.5,0,1.1,0,1.6c0,0.6,0.3,1.1,0.8,1.4c0.9,0.6,2.6,0.5,3.3-0.2
				c0.4-0.4,0.5-0.9,0.5-1.4l0-12.4c0,0,0-0.1,0-0.2c0-0.2,0-0.4,0-0.5c0,0,0,0,0,0c0,0,0,0,0.1,0c0,0,0.2,0,0.2,0c0,0,0.1,0,0.1,0
				h0.3c0,0,0.1,0,0.1,0c0.1,0,0.1,0,0.1,0.1c0,0.1,0,0.3,0,0.4c0,0.1,0,0.1,0,0.2l0.1,35.2c0,0.1,0,0.2,0,0.3c0,0.6,0,1.1,0.3,1.6
				c0.4,0.6,1,1.1,1.8,1.3C167.7,178.5,168.1,178.6,168.5,178.6z M165,139.2L165,139.2c-0.1,0-0.1,0-0.1,0h-0.3c0,0-0.1,0-0.1,0
				c-0.1,0-0.2,0-0.3,0c-0.1,0-0.1,0-0.1,0c-0.1,0-0.1,0-0.1,0s0,0,0,0c-0.1,0.1,0,0.3,0,0.5c0,0.1,0,0.2,0,0.2l0,12.4
				c0,0.5-0.1,0.9-0.5,1.3c-0.7,0.7-2.3,0.8-3.2,0.2c-0.4-0.3-0.7-0.7-0.7-1.3c0-0.5,0-1.1,0-1.6c0-0.3,0-0.5,0-0.8v-13.1
				c0-0.1,0-0.1,0-0.2c0-0.4,0-0.7,0.1-1.1c0.1-0.4,0.3-0.7,0.5-1.1c0.7-1.2,1.8-2.1,3.2-2.6c1.3-0.5,2.7-0.5,4.2-0.5
				c0.3,0,0.6,0,0.8,0h8.9c0.2,0,0.5,0,0.8,0c0.7,0,1.3,0,1.9,0.1c1.4,0.4,2.4,1.1,3.5,2.2c0.5,0.5,0.9,1.1,1.1,1.8
				c0.2,0.6,0.2,1.2,0.2,1.8c0,0.1,0,0.3,0,0.4v13.2c0,0.2,0,0.4,0,0.6c0,0.5,0.1,1-0.1,1.4c-0.4,1.2-1.8,1.3-2.8,1.1
				c-0.7-0.1-1.5-0.7-1.6-1.4c-0.1-0.7,0-1.3,0-2c0-0.3,0-0.7,0-1v-9.5c0-0.1,0-0.2,0-0.3c0-0.3,0-0.6,0-0.8v0l0,0l-0.1-0.1h0
				c0,0,0,0-0.1,0c-0.2-0.1-0.5,0-0.8,0c-0.1,0-0.2,0-0.3,0h0l0,36.7c0,0.9-0.4,1.7-1.3,2.1c-0.5,0.2-1.1,0.3-1.8,0.3
				c-0.9,0-1.7-0.3-2.3-0.8c-0.7-0.7-0.7-1.3-0.7-2l0.1-21h-0.8c0,0-0.1,0-0.1,0c-0.1,0-0.2,0-0.3,0c-0.1,0-0.1,0-0.1,0
				c-0.1,0-0.1,0-0.1,0.1c0,0,0,0,0,0c-0.1,0.1,0,0.3,0,0.5c0,0.1,0,0.1,0,0.2l-0.1,20.5c0,0.1,0,0.1,0,0.2c0,0.3,0,0.5-0.1,0.8
				c-0.2,0.6-0.7,1.1-1.4,1.4c-0.7,0.3-1.7,0.3-2.6,0.1c-0.7-0.2-1.3-0.6-1.7-1.2c-0.3-0.5-0.3-1-0.3-1.6c0-0.1,0-0.2,0-0.3
				l-0.1-35.2c0,0,0-0.1,0-0.2C165.2,139.5,165.2,139.3,165,139.2C165.2,139.2,165.1,139.2,165,139.2z"/>
		</g>
		<g>
			<ellipse class="st11" cx="172.3" cy="59.4" rx="5.4" ry="4.8"/>
			<path class="st11" d="M172.3,64.2c3,0,5.4-2.2,5.4-4.8s-2.4-4.8-5.4-4.8s-5.4,2.2-5.4,4.8C166.9,62.1,169.3,64.2,172.3,64.2z
				 M172.3,54.7c2.9,0,5.3,2.1,5.3,4.7c0,2.6-2.4,4.7-5.3,4.7c-2.9,0-5.3-2.1-5.3-4.7C167,56.8,169.4,54.7,172.3,54.7z"/>
		</g>
		<g>
			<path class="st11" d="M179.1,72.9c0,5.2,0,10.5,0,15.7c0,4.6,0,9.2,0,13.9c0,2.4,0,4.7,0,7.1c0,0.9-0.4,1.7-1.3,2.2
				c-0.6,0.3-1.2,0.4-1.8,0.3c-0.9,0-1.7-0.2-2.3-0.8c-0.7-0.6-0.7-1.2-0.7-2c0-2.3,0-4.6,0-7c0-4.6,0-9.3,0.1-14
				c-0.2,0-0.5,0-0.8,0c-0.1,0-0.3,0-0.4,0c-0.2,0-0.1,0-0.2,0.1c-0.1,0.2,0,0.5,0,0.7c0,0.2,0,0.4,0,0.7c0,0.9,0,1.7,0,2.5
				c0,3.5,0,7.1,0,10.6c0,1.8,0,3.5,0,5.3c0,0.5,0,1,0,1.5c0,0.3,0,0.7-0.1,1c-0.2,0.6-0.8,1.1-1.4,1.4c-0.8,0.3-1.8,0.3-2.6,0.1
				c-0.7-0.2-1.4-0.7-1.8-1.2c-0.4-0.6-0.3-1.3-0.3-2c0-3.5,0-7.1,0-10.6c0-7.1,0-14.2-0.1-21.3c0-0.9,0-1.8,0-2.6
				c0-0.2,0-0.5,0-0.7c0-0.2,0.1-0.5,0-0.7c-0.1-0.1-0.1-0.1-0.3-0.1c-0.1,0-0.2,0-0.3,0s-0.2,0-0.4,0c-0.2,0-0.1,0-0.2,0.1
				c-0.1,0.2,0,0.5,0,0.7s0,0.4,0,0.6c0,0.4,0,0.9,0,1.3c0,0.9,0,1.8,0,2.7c0,1.8,0,3.5,0,5.2c0,0.9,0,1.8,0,2.6
				c0,0.5-0.1,1-0.5,1.4c-0.7,0.7-2.4,0.9-3.3,0.2c-0.5-0.3-0.7-0.8-0.7-1.3c0-0.8,0-1.6,0-2.4c0-3.5,0-7,0-10.5c0-0.9,0-1.8,0-2.7
				c0-0.4,0-0.9,0.1-1.3c0.2-0.4,0.3-0.7,0.5-1.1c0.7-1.2,1.8-2.1,3.3-2.6c1.6-0.6,3.3-0.4,5-0.4c2,0,3.9,0,5.9,0c1,0,2,0,3.1,0
				c0.9,0,1.9-0.1,2.7,0.1c1.5,0.4,2.5,1.2,3.6,2.2c0.5,0.5,0.9,1.1,1.1,1.8c0.2,0.7,0.2,1.5,0.2,2.2c0,1.8,0,3.5,0,5.3
				c0,1.8,0,3.5,0,5.3c0,0.9,0,1.8,0,2.6c0,0.7,0.2,1.4-0.1,2c-0.4,1.1-1.7,1.4-2.9,1.2c-0.8-0.2-1.5-0.7-1.6-1.5c-0.1-1,0-2,0-3
				c0-1.7,0-3.4,0-5.1c0-1.5,0-2.9,0-4.4c0-0.3,0.1-0.8,0-1.1c-0.1-0.2,0.1,0-0.1-0.1C179.9,72.9,179.4,72.9,179.1,72.9z"/>
			<path class="st11" d="M168.5,112.2c0.5,0,1.1-0.1,1.5-0.3c0.7-0.3,1.2-0.8,1.5-1.4c0.1-0.3,0.1-0.5,0.1-0.8c0-0.1,0-0.1,0-0.2
				l0.1-20.5c0,0,0-0.1,0-0.2c0-0.2,0-0.3,0-0.4c0,0,0,0,0,0c0,0,0.1,0,0.1,0c0.1,0,0.2,0,0.2,0c0,0,0.1,0,0.1,0h0.7l-0.1,20.9
				c0,0.8,0,1.4,0.7,2.1c0.6,0.5,1.4,0.8,2.4,0.9c0.8,0,1.3-0.1,1.8-0.3c0.9-0.4,1.4-1.2,1.4-2.2l0-36.6c0.1,0,0.2,0,0.3,0
				c0.2,0,0.6,0,0.7,0c0,0,0,0,0.1,0v0c0.1,0.2,0,0.4,0,0.7c0,0.1,0,0.2,0,0.3v9.5c0,0.3,0,0.7,0,1c0,0.7,0,1.3,0,2
				c0.1,0.8,0.9,1.3,1.7,1.5c1.1,0.2,2.5,0,2.9-1.2c0.2-0.4,0.1-1,0.1-1.5c0-0.2,0-0.4,0-0.6V71.6c0-0.1,0-0.3,0-0.4
				c0-0.6,0-1.2-0.2-1.8c-0.2-0.7-0.6-1.3-1.2-1.8c-1.1-1.1-2.2-1.8-3.6-2.2c-0.6-0.2-1.3-0.1-2-0.1c-0.3,0-0.5,0-0.8,0h-8.8
				c-0.3,0-0.6,0-0.8,0c-1.4,0-2.9,0-4.2,0.5c-1.5,0.6-2.6,1.5-3.3,2.7c-0.2,0.4-0.4,0.7-0.5,1.1c-0.1,0.4-0.1,0.7-0.1,1.1
				c0,0.1,0,0.1,0,0.2V84c0,0.3,0,0.5,0,0.8c0,0.5,0,1.1,0,1.6c0,0.6,0.3,1.1,0.8,1.4c0.9,0.6,2.6,0.5,3.3-0.2
				c0.4-0.4,0.5-0.9,0.5-1.4l0-12.4c0,0,0-0.1,0-0.2c0-0.2,0-0.4,0-0.5c0,0,0,0,0,0c0,0,0,0,0.1,0c0,0,0.2,0,0.2,0c0,0,0.1,0,0.1,0
				h0.3c0,0,0.1,0,0.1,0c0.1,0,0.1,0,0.1,0.1c0,0.1,0,0.3,0,0.4c0,0.1,0,0.1,0,0.2l0.1,35.2c0,0.1,0,0.2,0,0.3c0,0.6,0,1.1,0.3,1.6
				c0.4,0.6,1,1.1,1.8,1.3C167.7,112.2,168.1,112.2,168.5,112.2z M165,72.8L165,72.8c-0.1,0-0.1,0-0.1,0h-0.3c0,0-0.1,0-0.1,0
				c-0.1,0-0.2,0-0.3,0c-0.1,0-0.1,0-0.1,0c-0.1,0-0.1,0-0.1,0s0,0,0,0c-0.1,0.1,0,0.3,0,0.5c0,0.1,0,0.2,0,0.2l0,12.4
				c0,0.5-0.1,0.9-0.5,1.3c-0.7,0.7-2.3,0.8-3.2,0.2c-0.4-0.3-0.7-0.7-0.7-1.3c0-0.5,0-1.1,0-1.6c0-0.3,0-0.5,0-0.8V70.8
				c0-0.1,0-0.1,0-0.2c0-0.4,0-0.7,0.1-1.1c0.1-0.4,0.3-0.7,0.5-1.1c0.7-1.2,1.8-2.1,3.2-2.6c1.3-0.5,2.7-0.5,4.2-0.5
				c0.3,0,0.6,0,0.8,0h8.9c0.2,0,0.5,0,0.8,0c0.7,0,1.3,0,1.9,0.1c1.4,0.4,2.4,1.1,3.5,2.2c0.5,0.5,0.9,1.1,1.1,1.8
				c0.2,0.6,0.2,1.2,0.2,1.8c0,0.1,0,0.3,0,0.4v13.2c0,0.2,0,0.4,0,0.6c0,0.5,0.1,1-0.1,1.4c-0.4,1.2-1.8,1.3-2.8,1.1
				c-0.7-0.1-1.5-0.7-1.6-1.4c-0.1-0.7,0-1.3,0-2c0-0.3,0-0.7,0-1V74c0-0.1,0-0.2,0-0.3c0-0.3,0-0.6,0-0.8v0l0,0l-0.1-0.1h0
				c0,0,0,0-0.1,0c-0.2-0.1-0.5,0-0.8,0c-0.1,0-0.2,0-0.3,0h0l0,36.7c0,0.9-0.4,1.7-1.3,2.1c-0.5,0.2-1.1,0.3-1.8,0.3
				c-0.9,0-1.7-0.3-2.3-0.8c-0.7-0.7-0.7-1.3-0.7-2l0.1-21h-0.8c0,0-0.1,0-0.1,0c-0.1,0-0.2,0-0.3,0c-0.1,0-0.1,0-0.1,0
				c-0.1,0-0.1,0-0.1,0.1c0,0,0,0,0,0c-0.1,0.1,0,0.3,0,0.5c0,0.1,0,0.1,0,0.2l-0.1,20.5c0,0.1,0,0.1,0,0.2c0,0.3,0,0.5-0.1,0.8
				c-0.2,0.6-0.7,1.1-1.4,1.4c-0.7,0.3-1.7,0.3-2.6,0.1c-0.7-0.2-1.3-0.6-1.7-1.2c-0.3-0.5-0.3-1-0.3-1.6c0-0.1,0-0.2,0-0.3
				l-0.1-35.2c0,0,0-0.1,0-0.2C165.2,73.1,165.2,72.9,165,72.8C165.2,72.9,165.1,72.8,165,72.8z"/>
		</g>
	</g>
	<g id="woman_11_">
		<path class="st10" d="M257.7,59.3c0-2,1.4-3.8,3.4-4.5c2-0.7,4.3,0,5.6,1.5c1.3,1.5,1.5,3.7,0.4,5.5c-1.1,1.7-3.2,2.6-5.3,2.2
			C259.5,63.6,257.7,61.6,257.7,59.3z"/>
		<path class="st10" d="M267.9,71.8c2.3,7.3,4.6,14.5,6.8,21.8c-1.8,0-3.5,0-5.3,0c-0.2,0-0.4,0-0.6,0c-0.1,0-0.3,0-0.4,0
			c-0.2,0-0.1,0-0.2,0.1c-0.1,0.2,0,0.5,0,0.7c0,0.2,0,0.5,0,0.7c0,0.8,0,1.6,0,2.4c0,3.4,0,6.8,0,10.1c0,0.9,0,1.7,0,2.6
			c0,0.6-0.2,1.1-0.7,1.5c-0.7,0.6-2,0.9-2.9,0.5c-1.5-0.6-1.2-2.2-1.2-3.4c0-1.7,0-3.4,0-5.1c0-1.9,0-3.7,0-5.6c0-0.9,0-1.9,0-2.8
			c0-0.4,0-1,0-1.5c0-0.4,0-0.1-0.1-0.2c-0.1,0-0.3,0-0.4,0c-0.3,0-0.5,0-0.8,0c0,3.6,0,7.2,0.1,10.8c0,1.8,0,3.6,0,5.4
			c0,1.1-0.5,2.2-1.8,2.4c-1.1,0.2-2.2-0.1-2.8-1c-0.3-0.5-0.3-1.1-0.4-1.7c-0.1-1.8-0.1-3.7-0.1-5.5c0-3.5,0.1-7,0.2-10.5
			c-2.2,0-4.4,0-6.6,0c2.3-7.3,4.6-14.5,6.8-21.8c-0.2,0-0.5,0-0.8,0c-0.3,0-0.4,0-0.4,0.2c-0.1,0.4-0.3,0.9-0.4,1.4
			c-0.2,0.8-0.5,1.6-0.7,2.4c-0.4,1.4-0.9,2.8-1.3,4.2c-0.5,1.6-1,3.4-1.8,4.9c-0.4,0.8-1.3,1.3-2.2,1.1c-0.5-0.1-1.1-0.4-1.3-0.9
			c-0.4-0.7-0.2-1.4,0.1-2.2c1.1-3.5,2.2-7,3.4-10.6c0.3-0.9,0.6-1.8,0.8-2.6c0.2-0.7,0.4-1.2,0.8-1.8c0.9-1.2,2.1-2.2,3.6-2.6
			c0.4-0.1,0.9-0.1,1.3-0.1c0.5,0,1,0,1.5,0c1,0,2,0,3,0c1,0,2,0,3,0c0.7,0,1.4,0,2.1,0.2c1.5,0.4,2.8,1.3,3.6,2.6
			c0.4,0.6,0.6,1.3,0.8,2c0.3,0.9,0.6,1.8,0.8,2.6c1.1,3.5,2.2,7.1,3.4,10.6c0.2,0.6,0.4,1.1,0.2,1.6s-0.7,0.9-1.3,1.1
			c-0.7,0.2-1.4,0.1-1.9-0.3c-0.6-0.4-0.7-1.1-0.8-1.8c-1.1-3.5-2.2-7.1-3.3-10.6c-0.1-0.4-0.2-0.8-0.4-1.2c0,0-0.1-0.3-0.1-0.4
			c0,0-0.4,0-0.4,0C268.5,71.8,268.2,71.8,267.9,71.8z"/>
	</g>
	<g id="woman_10_">
		<path class="st10" d="M195.8,125.3c0-2,1.4-3.8,3.4-4.5c2-0.7,4.3,0,5.6,1.5c1.3,1.5,1.5,3.7,0.4,5.5c-1.1,1.7-3.2,2.6-5.3,2.2
			C197.6,129.5,195.8,127.5,195.8,125.3z"/>
		<path class="st10" d="M206,137.7c2.3,7.3,4.6,14.5,6.8,21.8c-1.8,0-3.5,0-5.3,0c-0.2,0-0.4,0-0.6,0c-0.1,0-0.3,0-0.4,0
			c-0.2,0-0.1,0-0.2,0.1c-0.1,0.2,0,0.5,0,0.7c0,0.2,0,0.5,0,0.7c0,0.8,0,1.6,0,2.4c0,3.4,0,6.8,0,10.1c0,0.9,0,1.7,0,2.6
			c0,0.6-0.2,1.1-0.7,1.5c-0.7,0.6-2,0.9-2.9,0.5c-1.5-0.6-1.2-2.2-1.2-3.4c0-1.7,0-3.4,0-5.1c0-1.9,0-3.7,0-5.6c0-0.9,0-1.9,0-2.8
			c0-0.4,0-1,0-1.5c0-0.4,0-0.1-0.1-0.2c-0.1,0-0.3,0-0.4,0c-0.3,0-0.5,0-0.8,0c0,3.6,0,7.2,0.1,10.8c0,1.8,0,3.6,0,5.4
			c0,1.1-0.5,2.2-1.8,2.4c-1.1,0.2-2.2-0.1-2.8-1c-0.3-0.5-0.3-1.1-0.4-1.7c-0.1-1.8-0.1-3.7-0.1-5.5c0-3.5,0.1-7,0.2-10.5
			c-2.2,0-4.4,0-6.6,0c2.3-7.3,4.6-14.5,6.8-21.8c-0.2,0-0.5,0-0.8,0c-0.3,0-0.4,0-0.4,0.2c-0.1,0.4-0.3,0.9-0.4,1.4
			c-0.2,0.8-0.5,1.6-0.7,2.4c-0.4,1.4-0.9,2.8-1.3,4.2c-0.5,1.6-1,3.4-1.8,4.9c-0.4,0.8-1.3,1.3-2.2,1.1c-0.5-0.1-1.1-0.4-1.3-0.9
			c-0.4-0.7-0.2-1.4,0.1-2.2c1.1-3.5,2.2-7,3.4-10.6c0.3-0.9,0.6-1.8,0.8-2.6c0.2-0.7,0.4-1.2,0.8-1.8c0.9-1.2,2.1-2.2,3.6-2.6
			c0.4-0.1,0.9-0.1,1.3-0.1c0.5,0,1,0,1.5,0c1,0,2,0,3,0s2,0,3,0c0.7,0,1.4,0,2.1,0.2c1.5,0.4,2.8,1.3,3.6,2.6
			c0.4,0.6,0.6,1.3,0.8,2c0.3,0.9,0.6,1.8,0.8,2.6c1.1,3.5,2.2,7.1,3.4,10.6c0.2,0.6,0.4,1.1,0.2,1.6c-0.2,0.6-0.7,0.9-1.3,1.1
			c-0.7,0.2-1.4,0.1-1.9-0.3c-0.6-0.4-0.7-1.1-0.8-1.8c-1.1-3.5-2.2-7.1-3.3-10.6c-0.1-0.4-0.2-0.8-0.4-1.2c0,0-0.1-0.3-0.1-0.4
			c0,0-0.4,0-0.4,0C206.6,137.7,206.3,137.7,206,137.7z"/>
	</g>
	<g id="woman_9_">
		<path class="st10" d="M133.9,125.3c0-2,1.4-3.8,3.4-4.5c2-0.7,4.3,0,5.6,1.5c1.3,1.5,1.5,3.7,0.4,5.5c-1.1,1.7-3.2,2.6-5.3,2.2
			C135.7,129.5,133.9,127.5,133.9,125.3z"/>
		<path class="st10" d="M144.2,137.7c2.3,7.3,4.6,14.5,6.8,21.8c-1.8,0-3.5,0-5.3,0c-0.2,0-0.4,0-0.6,0c-0.1,0-0.3,0-0.4,0
			c-0.2,0-0.1,0-0.2,0.1c-0.1,0.2,0,0.5,0,0.7c0,0.2,0,0.5,0,0.7c0,0.8,0,1.6,0,2.4c0,3.4,0,6.8,0,10.1c0,0.9,0,1.7,0,2.6
			c0,0.6-0.2,1.1-0.7,1.5c-0.7,0.6-2,0.9-2.9,0.5c-1.5-0.6-1.2-2.2-1.2-3.4c0-1.7,0-3.4,0-5.1c0-1.9,0-3.7,0-5.6c0-0.9,0-1.9,0-2.8
			c0-0.4,0-1,0-1.5c0-0.4,0-0.1-0.1-0.2c-0.1,0-0.3,0-0.4,0c-0.3,0-0.5,0-0.8,0c0,3.6,0,7.2,0.1,10.8c0,1.8,0,3.6,0,5.4
			c0,1.1-0.5,2.2-1.8,2.4c-1.1,0.2-2.2-0.1-2.8-1c-0.3-0.5-0.3-1.1-0.4-1.7c-0.1-1.8-0.1-3.7-0.1-5.5c0-3.5,0.1-7,0.2-10.5
			c-2.2,0-4.4,0-6.6,0c2.3-7.3,4.6-14.5,6.8-21.8c-0.2,0-0.5,0-0.8,0c-0.3,0-0.4,0-0.4,0.2c-0.1,0.4-0.3,0.9-0.4,1.4
			c-0.2,0.8-0.5,1.6-0.7,2.4c-0.4,1.4-0.9,2.8-1.3,4.2c-0.5,1.6-1,3.4-1.8,4.9c-0.4,0.8-1.3,1.3-2.2,1.1c-0.5-0.1-1.1-0.4-1.3-0.9
			c-0.4-0.7-0.2-1.4,0.1-2.2c1.1-3.5,2.2-7,3.4-10.6c0.3-0.9,0.6-1.8,0.8-2.6c0.2-0.7,0.4-1.2,0.8-1.8c0.9-1.2,2.1-2.2,3.6-2.6
			c0.4-0.1,0.9-0.1,1.3-0.1c0.5,0,1,0,1.5,0c1,0,2,0,3,0c1,0,2,0,3,0c0.7,0,1.4,0,2.1,0.2c1.5,0.4,2.8,1.3,3.6,2.6
			c0.4,0.6,0.6,1.3,0.8,2c0.3,0.9,0.6,1.8,0.8,2.6c1.1,3.5,2.2,7.1,3.4,10.6c0.2,0.6,0.4,1.1,0.2,1.6c-0.2,0.6-0.7,0.9-1.3,1.1
			c-0.7,0.2-1.4,0.1-1.9-0.3c-0.6-0.4-0.7-1.1-0.8-1.8c-1.1-3.5-2.2-7.1-3.3-10.6c-0.1-0.4-0.2-0.8-0.4-1.2c0,0-0.1-0.3-0.1-0.4
			c0,0-0.4,0-0.4,0C144.7,137.7,144.4,137.7,144.2,137.7z"/>
	</g>
	<g id="woman_2_">
		<path class="st10" d="M133.9,58.9c0-2,1.4-3.8,3.4-4.5c2-0.7,4.3,0,5.6,1.5c1.3,1.5,1.5,3.7,0.4,5.5c-1.1,1.7-3.2,2.6-5.3,2.2
			C135.7,63.2,133.9,61.2,133.9,58.9z"/>
		<path class="st10" d="M144.2,71.4c2.3,7.3,4.6,14.5,6.8,21.8c-1.8,0-3.5,0-5.3,0c-0.2,0-0.4,0-0.6,0c-0.1,0-0.3,0-0.4,0
			c-0.2,0-0.1,0-0.2,0.1c-0.1,0.2,0,0.5,0,0.7c0,0.2,0,0.5,0,0.7c0,0.8,0,1.6,0,2.4c0,3.4,0,6.8,0,10.1c0,0.9,0,1.7,0,2.6
			c0,0.6-0.2,1.1-0.7,1.5c-0.7,0.6-2,0.9-2.9,0.5c-1.5-0.6-1.2-2.2-1.2-3.4c0-1.7,0-3.4,0-5.1c0-1.9,0-3.7,0-5.6c0-0.9,0-1.9,0-2.8
			c0-0.4,0-1,0-1.5c0-0.4,0-0.1-0.1-0.2c-0.1,0-0.3,0-0.4,0c-0.3,0-0.5,0-0.8,0c0,3.6,0,7.2,0.1,10.8c0,1.8,0,3.6,0,5.4
			c0,1.1-0.5,2.2-1.8,2.4c-1.1,0.2-2.2-0.1-2.8-1c-0.3-0.5-0.3-1.1-0.4-1.7c-0.1-1.8-0.1-3.7-0.1-5.5c0-3.5,0.1-7,0.2-10.5
			c-2.2,0-4.4,0-6.6,0c2.3-7.3,4.6-14.5,6.8-21.8c-0.2,0-0.5,0-0.8,0c-0.3,0-0.4,0-0.4,0.2c-0.1,0.4-0.3,0.9-0.4,1.4
			c-0.2,0.8-0.5,1.6-0.7,2.4c-0.4,1.4-0.9,2.8-1.3,4.2c-0.5,1.6-1,3.4-1.8,4.9c-0.4,0.8-1.3,1.3-2.2,1.1c-0.5-0.1-1.1-0.4-1.3-0.9
			c-0.4-0.7-0.2-1.4,0.1-2.2c1.1-3.5,2.2-7,3.4-10.6c0.3-0.9,0.6-1.8,0.8-2.6c0.2-0.7,0.4-1.2,0.8-1.8c0.9-1.2,2.1-2.2,3.6-2.6
			c0.4-0.1,0.9-0.1,1.3-0.1c0.5,0,1,0,1.5,0c1,0,2,0,3,0c1,0,2,0,3,0c0.7,0,1.4,0,2.1,0.2c1.5,0.4,2.8,1.3,3.6,2.6
			c0.4,0.6,0.6,1.3,0.8,2c0.3,0.9,0.6,1.8,0.8,2.6c1.1,3.5,2.2,7.1,3.4,10.6c0.2,0.6,0.4,1.1,0.2,1.6c-0.2,0.6-0.7,0.9-1.3,1.1
			c-0.7,0.2-1.4,0.1-1.9-0.3c-0.6-0.4-0.7-1.1-0.8-1.8c-1.1-3.5-2.2-7.1-3.3-10.6c-0.1-0.4-0.2-0.8-0.4-1.2c0,0-0.1-0.3-0.1-0.4
			c0,0-0.4,0-0.4,0C144.7,71.4,144.4,71.4,144.2,71.4z"/>
	</g>
	<g id="woman_1_">
		<path class="st10" d="M257.7,125.7c0-2,1.4-3.8,3.4-4.5c2-0.7,4.3,0,5.6,1.5c1.3,1.5,1.5,3.7,0.4,5.5c-1.1,1.7-3.2,2.6-5.3,2.2
			C259.5,130,257.7,128,257.7,125.7z"/>
		<path class="st10" d="M267.9,138.1c2.3,7.3,4.6,14.5,6.8,21.8c-1.8,0-3.5,0-5.3,0c-0.2,0-0.4,0-0.6,0c-0.1,0-0.3,0-0.4,0
			c-0.2,0-0.1,0-0.2,0.1c-0.1,0.2,0,0.5,0,0.7c0,0.2,0,0.5,0,0.7c0,0.8,0,1.6,0,2.4c0,3.4,0,6.8,0,10.1c0,0.9,0,1.7,0,2.6
			c0,0.6-0.2,1.1-0.7,1.5c-0.7,0.6-2,0.9-2.9,0.5c-1.5-0.6-1.2-2.2-1.2-3.4c0-1.7,0-3.4,0-5.1c0-1.9,0-3.7,0-5.6c0-0.9,0-1.9,0-2.8
			c0-0.4,0-1,0-1.5c0-0.4,0-0.1-0.1-0.2c-0.1,0-0.3,0-0.4,0c-0.3,0-0.5,0-0.8,0c0,3.6,0,7.2,0.1,10.8c0,1.8,0,3.6,0,5.4
			c0,1.1-0.5,2.2-1.8,2.4c-1.1,0.2-2.2-0.1-2.8-1c-0.3-0.5-0.3-1.1-0.4-1.7c-0.1-1.8-0.1-3.7-0.1-5.5c0-3.5,0.1-7,0.2-10.5
			c-2.2,0-4.4,0-6.6,0c2.3-7.3,4.6-14.5,6.8-21.8c-0.2,0-0.5,0-0.8,0c-0.3,0-0.4,0-0.4,0.2c-0.1,0.4-0.3,0.9-0.4,1.4
			c-0.2,0.8-0.5,1.6-0.7,2.4c-0.4,1.4-0.9,2.8-1.3,4.2c-0.5,1.6-1,3.4-1.8,4.9c-0.4,0.8-1.3,1.3-2.2,1.1c-0.5-0.1-1.1-0.4-1.3-0.9
			c-0.4-0.7-0.2-1.4,0.1-2.2c1.1-3.5,2.2-7,3.4-10.6c0.3-0.9,0.6-1.8,0.8-2.6c0.2-0.7,0.4-1.2,0.8-1.8c0.9-1.2,2.1-2.2,3.6-2.6
			c0.4-0.1,0.9-0.1,1.3-0.1c0.5,0,1,0,1.5,0c1,0,2,0,3,0c1,0,2,0,3,0c0.7,0,1.4,0,2.1,0.2c1.5,0.4,2.8,1.3,3.6,2.6
			c0.4,0.6,0.6,1.3,0.8,2c0.3,0.9,0.6,1.8,0.8,2.6c1.1,3.5,2.2,7.1,3.4,10.6c0.2,0.6,0.4,1.1,0.2,1.6c-0.2,0.6-0.7,0.9-1.3,1.1
			c-0.7,0.2-1.4,0.1-1.9-0.3c-0.6-0.4-0.7-1.1-0.8-1.8c-1.1-3.5-2.2-7.1-3.3-10.6c-0.1-0.4-0.2-0.8-0.4-1.2c0,0-0.1-0.3-0.1-0.4
			c0,0-0.4,0-0.4,0C268.5,138.1,268.2,138.1,267.9,138.1z"/>
	</g>
</g>
<g>
	<g>
		<line class="st12" x1="287" y1="116.6" x2="323" y2="116.6"/>
		<g>
			<polygon class="st1" points="318,133.6 347.6,116.6 318,99.5 			"/>
		</g>
	</g>
</g>
<g>
	<g>
		<line class="st12" x1="488.6" y1="116.6" x2="524.6" y2="116.6"/>
		<g>
			<polygon class="st1" points="519.6,133.6 549.1,116.6 519.6,99.5 			"/>
		</g>
	</g>
</g>
</svg>
