<?xml version="1.0" encoding="utf-8"?>
<!-- Generator: Adobe Illustrator 21.0.2, SVG Export Plug-In . SVG Version: 6.00 Build 0)  -->
<svg version="1.1" id="Layer_1" xmlns="http://www.w3.org/2000/svg" xmlns:xlink="http://www.w3.org/1999/xlink" x="0px" y="0px"
	 viewBox="0 0 700 200" style="enable-background:new 0 0 700 200;" xml:space="preserve">
<style type="text/css">
	.st0{fill:#F4D09F;}
	.st1{fill:#D87754;}
	.st2{fill:#0020A0;}
	.st3{fill:#60A2B3;stroke:#60A2B3;stroke-width:0.5;stroke-miterlimit:10;}
	.st4{fill:#41A1DA;}
	.st5{fill:#FEFEFE;}
	.st6{fill:#D8484A;stroke:#D8484A;stroke-width:5.000000e-02;stroke-miterlimit:10;}
	.st7{fill:#D8484A;}
	.st8{fill:#DF88D2;}
	.st9{fill:none;stroke:#D8484A;stroke-width:5.000000e-02;stroke-miterlimit:10;}
	.st10{fill:#933416;}
</style>
<g id="background_2_">
	<rect y="-0.1" class="st0" width="700" height="200"/>
</g>
<g>
	<path class="st1" d="M321.3,65.3c-4.6-0.8-20.1,0-20.1,0c-7.6,4.1-15.4,8.1-23,12.3c-1.9,4.9-3.9,9.8-5.8,14.7c0,0,8.6,0,10.1,0
		s2.9-7.4,2.9-7.4h10.1c0,0-1.3,4.3-2.9,6.2c-5,5.7-12.2,9.4-12.9,11c-0.8,2.8-0.2,5.2,1.4,6.1c1.3,0.7,2.9,0.4,4.3,0
		c4.9-1.5,8.3-5.2,12.9-8.6c7.2-5.3,9.8-5.4,12.9-9.8c1.4-1.9,1.9-2.3,4.3-4.9c2.1-2.3,4.2-3.9,5.8-4.9"/>
	<rect x="325.6" y="57.9" class="st1" width="46" height="25.8"/>
	<path class="st1" d="M319.9,93.2v46.4h-66.4V93.2h32.7c-6.1,4.4-11.6,7.4-12.4,9.1c-1.2,4.2-0.4,7.8,2.4,9.1c2.1,1,4.7,0.7,7,0
		c8-2.2,13.5-7.7,21.2-12.8c3.5-2.4,6.4-4,8.8-5.4L319.9,93.2L319.9,93.2z"/>
	<polygon class="st1" points="369.3,157.1 204.2,157.1 220.2,122.2 248.5,122.2 248.5,133.9 242.1,133.9 238.2,142.6 335.2,142.6 
		331.3,133.9 325,133.9 325,122.2 352.3,122.2 	"/>
	<rect x="204.2" y="161.4" class="st1" width="166.8" height="30.5"/>
</g>
<g id="candidate">
	<g id="Layer_3">
	</g>
	<g id="man_maire_1_">
		<g>
			<path class="st2" d="M439.5,16.8c-0.3,0-0.7,0-1,0.1c-0.3,0-0.7,0-1-0.1H439.5z"/>
			<path class="st3" d="M461.3,157.7c0.1,1-0.6,1.8-1,2.2h-16.1v-6.7c0-2,0-3,0-4.4c0.1-4.1-0.6-8.8-1.7-16.7c0,0-3.1-22.5-2.4-24.9
				h-3.3c0.7,2.3-2.4,24.9-2.4,24.9c-1.1,7.9-1.7,12.6-1.7,16.7c0,1.5,0,2.4,0,4.4v6.7h-16.1c-0.4-0.4-1.1-1.3-1-2.2
				c0.1-1.6,2.2-2.6,3-3c2.9-1.3,4.9-0.3,6.1-1.8c0.6-0.7,0.7-1.7,0.7-2.2c-1-37.7-1-38.2-1-38.2c0.1-8.4,0.4-9.9-0.3-13.7
				c-0.6-3.2-1.4-5.4-2.3-7.3c-0.3-0.7-0.7-1.4-1-2c-0.5-0.9-1-1.8-1.5-2.6c-0.4-0.8-0.7-1.5-1.1-2.3l-0.2-0.5
				c-0.4-1.2-0.8-2.5-1-4.1c-0.5-3.3,1.9-9.2,4-21.9c0.7-4.1,0.8-7,3-8.2c3.5-1.8,9.7,0,10.9-2.4c0.7-1.3,0.7-3.3,0-4.4
				c-1.1-1.8-3.2-0.9-4.9-2.8c-1.2-1.4-1.2-3.3-1.4-5.9c-0.1-3.4,0.7-3.8,0.7-7.4c0-3.8-0.8-4.5-0.3-6c0.5-1.6,2.6-3.5,9.4-4
				c6.8,0.5,8.8,2.4,9.4,4c0.5,1.5-0.4,2.1-0.3,6c0,3.6,0.8,4.1,0.7,7.4c-0.1,2.7-0.2,4.6-1.4,5.9c-1.7,1.9-3.8,0.9-4.9,2.8
				c-0.7,1.2-0.7,3.1,0,4.4c0.3,0.7,1.1,1,2,1.2l0.3,0c0.9,0.1,2,0.2,3.1,0.2c0.9,0,2,0.1,2.9,0.2c0.8,0.1,1.6,0.3,2.3,0.6
				c0.1,0,0.2,0.1,0.4,0.2c2.2,1.2,2.4,4.1,3,8.2c2.1,12.6,4.5,18.6,4,21.9c-1.2,8.3-5.2,8.8-7.1,18.9c-0.7,3.8-0.5,5.3-0.3,13.7
				c0,0,0,0.5-1,38.2c0,0.5,0.1,1.5,0.7,2.2c1.2,1.5,3.1,0.5,6.1,1.8C459.1,155.1,461.2,156.1,461.3,157.7z"/>
		</g>
		<path class="st4" d="M450.3,49c-0.9-0.1-1.9-0.2-2.9-0.2c-1.1,0-2.2-0.1-3.1-0.2l-0.3,0c0,0.1-0.1,0.2-0.2,0.3
			c-2.3,3.9-4.7,7.6-7.2,11.3c-5.7,8.4-11.9,16.3-18.6,23.8l0.2,0.5c0.3,0.8,0.7,1.6,1.1,2.3c0.5,0.9,1,1.8,1.5,2.6
			c0.3,0.6,0.7,1.3,1,2c11.6-12.5,22-26.5,30.8-41.8C451.9,49.3,451.1,49.1,450.3,49z"/>
		<g>
			<path class="st5" d="M450.3,49c-8.5,14.8-18.4,28.3-29.5,40.5c-0.5-0.9-1-1.8-1.5-2.6c-0.4-0.8-0.7-1.5-1.1-2.3
				c6.7-7.5,12.9-15.5,18.6-23.9c2.6-3.8,5-7.7,7.4-11.7c0-0.1,0.1-0.2,0.2-0.3c0.9,0.1,2,0.2,3.1,0.2
				C448.4,48.8,449.3,48.8,450.3,49z"/>
			<path class="st6" d="M444.3,48.6c0.9,0.1,2,0.2,3.1,0.2c-2.4,4-4.9,8-7.5,11.8l0,0l0,0l0,0c-0.6,0.9-1.3,1.9-1.9,2.8
				c-5.8,8.3-12,16.1-18.7,23.3c-0.4-0.8-0.7-1.5-1.1-2.3L418,84c6.7-7.5,12.9-15.4,18.6-23.8c2.5-3.7,4.9-7.5,7.2-11.3
				c0-0.1,0.1-0.2,0.2-0.3"/>
		</g>
	</g>
	<g id="woman_maire_1_">
		<g>
			<g id="XMLID_3_">
				<g>
					<path class="st7" d="M188.2-9L188.2-9c0,0.1,0,0.3-0.1,0.4h0L188.2-9z"/>
					<path class="st8" d="M166.4,69.9c0.3,3.6,0.8,5.1,0.3,7.9c-0.2,1.2-0.5,2-0.7,2.6c-1.9,5.7-5.1,7.1-5.7,11
						c-0.3,2.1,0.3,3.8,0.9,5.3c4,11.3,6.6,34.1,1.7,36.3c-0.3,0.1-1.7,0.2-4.5,0.2c-3.8,0-4.3-0.2-5.1,0.3
						c-1.6,1.1-0.7,3.8-0.9,8.3c-0.3,8.1-3.9,12.6-1.8,14.5c0.1,0.1,1.1,0.3,3.1,0.9c0.9,0.3,4.7,1.2,5.7,2.6
						c0.1,0.1,0.3,0.4,0.2,0.6c-0.2,0.3-0.9,0.3-1.1,0.3c-3-0.2-9.1,2.1-11.4-0.4c-0.4-0.5-0.5-0.9-0.5-2.1c0-0.8,0-2,0.1-3.7
						c0.3-8.9-0.1-7.2,0.2-10.5c0.6-6.4,1.7-9.4,0.2-10.5c-0.6-0.4-1.6-0.4-2.2,0c-1.5,1-0.4,4,0.2,10.5c0.3,3.2-0.1,1.6,0.2,10.5
						c0,1.7,0.1,2.9,0.1,3.7c0,1.3-0.1,1.7-0.5,2.1c-2.3,2.5-8.3,0.3-11.4,0.4c-0.2,0-0.9,0.1-1.1-0.3c-0.1-0.2,0.1-0.5,0.2-0.6
						c1-1.4,4.8-2.4,5.7-2.6c2-0.5,3-0.8,3.1-0.9c2.1-1.9-1.5-6.3-1.8-14.5c-0.2-4.5,0.8-7.2-0.9-8.3c-0.7-0.5-1.3-0.3-5.1-0.3
						c-2.8,0-4.2,0-4.5-0.2c-4.9-2.2-2.4-25,1.7-36.3c0.5-1.5,1.2-3.1,0.9-5.3c-0.1-0.8-0.4-1.6-0.7-2.2c1.1-0.9,2.1-1.9,3.1-2.8
						c0.1,0,0.2-0.1,0.3-0.3c10.3-9.5,19.7-20,28.2-31.4c0.6,0.5,1.3,1.2,2,2.1c0.8,1.2,1.1,2.4,1.3,4.8
						C166.4,65.7,166,66.1,166.4,69.9z M160,83.7c1.2-2.5,0.9-4.9,0.9-5.7c-0.8-8.9,0.3-15.6-0.9-15.8c-0.3,0-0.6,0.4-0.9,0.9
						c-2.4,4.1-2.3,8.8-2.2,13.6c0.1,7.5,0.1,9.5,0.9,9.7C158.7,86.5,159.9,84,160,83.7z"/>
					<path class="st8" d="M163.3,36.2c0.9-0.9-1.5,3-3.1,3.1c-1.3,0.1-2.1-0.8-2.6-0.4c-0.4,0.3-0.4,1.2,0,1.8
						c0.6,0.8,2.1,1.2,2.7,1.1c-1.1,1.1-2.1,1.7-2.7,2c-0.2,0.1-1.3,0.5-2.3,0.7c-0.1,0-0.8,0.1-1.6,0.2c-0.3,0-0.4,0-0.5,0.1
						c-0.8,0.2-1.6,0.3-2.1,0.5c-1.1,0.5-1.5-0.2-2.2,0.3c-0.6,0.4-0.6,1.5-0.4,2.2c0.3,0.9,0.9,1.3,2.6,2.6c1.8,1.3,2.6,2,3.1,2.2
						c0,0,0.1,0,0.2,0c-0.2,0.2-0.3,0.4-0.5,0.6c-2.5,3.3-5.2,6.6-7.9,9.7c-3.5,4.1-7.1,8-10.9,11.8c0-4-0.2-8-2.2-11.5
						c-0.3-0.5-0.6-0.9-0.9-0.9c-1.2,0.1-0.1,6.9-0.9,15.8c0,0.1,0,0.3,0,0.5c-1,1-2.1,2-3.1,2.9c-0.4,0.3-0.7,0.7-1.1,1
						c-0.3-0.6-0.5-1.3-0.8-2c-0.2-0.5-0.5-1.4-0.7-2.6c-0.5-2.8,0-4.3,0.3-7.9c0.3-3.8,0-4.2,0.4-8.3c0.3-2.4,0.5-3.6,1.3-4.8
						c0.3-0.5,1.4-2.2,3.5-3.1c0.3-0.1,0.4-0.1,3.4-0.6c3-0.5,3.2-0.5,3.6-0.7c0.5-0.2,1.3-0.8,3.1-2.2c2-1.6,2.4-1.9,2.6-2.6
						c0.2-0.7,0.1-1.8-0.4-2.2c-0.7-0.5-0.2,0.2-1.3-0.3c-0.5-0.2-2.2-0.3-3-0.5c0,0-0.2,0-0.5-0.1c-0.8-0.1-1.5-0.2-1.6-0.2
						c-1.1-0.1-2.1-0.6-2.3-0.7c-1.2-0.3-2.3-1.5-2.7-2c0.7,0.1,2.2-0.3,2.7-1.1c0.4-0.5,0.4-1.4,0-1.8c-0.5-0.4-1.4,0.5-2.6,0.4
						c-1.6-0.1-4-4-3.1-3.1c0.9,0.9,4.9-1.9,4.8-2.6c0-0.8-4.8-1.8-4.8-1.8s2.3-1.3,4.4-3.5c2.8-3,1.7-5.7,3.9-8.3
						c1.1-1.3,4.2-2.9,8.8-3.1h0.5c4.6,0.2,7.6,1.8,8.8,3.1c2.2,2.6,1.1,5.4,4,8.3c2.1,2.2,4.4,3.5,4.4,3.5s-4.8,1-4.8,1.8
						C158.4,34.3,162.4,37,163.3,36.2z"/>
					<path class="st4" d="M161.1,53.7c0.2,0.1,0.8,0.4,1.6,0.9C154.2,66,144.8,76.5,134.5,86c0.2-0.4,0.3-1.4,0.4-3.3
						c9.4-8.9,18-18.7,25.8-29.2C160.9,53.6,161,53.6,161.1,53.7z"/>
					<path class="st5" d="M157.7,53.1c1.8,0.3,2.5,0.4,2.9,0.5c-7.8,10.5-16.4,20.3-25.8,29.2c0-1.1,0.1-2.5,0.1-4.3
						c8.1-7.9,15.6-16.4,22.6-25.5C157.6,53.1,157.7,53.1,157.7,53.1z"/>
					<path class="st7" d="M154.6,52.6c0.4,0.1,1.1,0.2,2.9,0.5c-6.9,9.1-14.4,17.6-22.6,25.5c0-0.5,0-1.2,0-1.8c0-0.5,0-1,0-1.4
						c3.8-3.9,7.6-8,11.1-12.1c2.8-3.2,5.5-6.6,8.1-10.1C154.4,52.9,154.5,52.7,154.6,52.6z"/>
					<path class="st8" d="M154.6,52.6c-0.1,0.2-0.3,0.3-0.4,0.5c-2.6,3.5-5.3,6.8-8.1,10.1c-3.6,4.2-7.3,8.3-11.1,12.1
						c0-0.3,0-0.5,0-0.7c3.8-3.8,7.4-7.7,10.9-11.8c2.7-3.2,5.3-6.4,7.9-9.7c0.2-0.2,0.3-0.4,0.5-0.6
						C154.4,52.5,154.5,52.5,154.6,52.6z"/>
					<path class="st7" d="M154.3,52.4l0.4,0.1C154.5,52.5,154.4,52.5,154.3,52.4z"/>
					<path class="st8" d="M134.2,86.4L134.2,86.4c-1,0.9-2.1,1.9-3.1,2.8c-0.3-0.6-0.7-1.2-1.1-1.8c0.9-0.8,1.8-1.6,2.7-2.4
						C133.1,85.6,133.7,86.4,134.2,86.4z"/>
					<path class="st8" d="M132,83.7c0,0.1,0.3,0.6,0.6,1.2c-0.9,0.8-1.8,1.6-2.7,2.4c-0.5-0.8-1.1-1.6-1.7-2.5
						c1-0.9,2.1-1.9,3.1-2.8c0,0,0.1,0,0.1-0.1C131.5,82.5,131.7,83.1,132,83.7z"/>
					<path class="st8" d="M131.3,82C131.3,82,131.2,82.1,131.3,82c-1.1,1-2.1,1.9-3.2,2.9c-0.4-0.6-0.8-1.2-1.1-1.9
						c0.5-0.5,1.1-1,1.7-1.5c0.8-0.7,1.5-1.4,2.3-2.1C131,80,131.1,80.9,131.3,82z"/>
					<path class="st8" d="M131,78.5c0,0.2,0,0.4,0,0.7c-0.8,0.7-1.5,1.4-2.3,2.1c-0.5,0.5-1.1,1-1.7,1.5l-0.2-0.5
						c0.4-0.3,0.7-0.7,1.1-1C129,80.5,130,79.5,131,78.5z"/>
				</g>
				<g>
					<path class="st9" d="M157.5,53.1c-6.9,9.1-14.4,17.6-22.6,25.5c0-0.5,0-1.2,0-1.8c0-0.5,0-1,0-1.4c0-0.3,0-0.5,0-0.7"/>
				</g>
			</g>
		</g>
	</g>
</g>
<g id="municipality">
</g>
<g>
	<g>
		<path class="st10" d="M493.2,163.3c1.2,3.3,1.8,6.3,1.9,9s-0.3,5.1-1,7.1c-0.7,2-1.8,3.7-3.1,5c-1.3,1.3-1.3,1.3-1.3,1.3
			c-1.8,0.9-5.6,2.5-8.5,3.5s-5.4,1.4-5.6,0.9s0-1.1,0.4-1.3c0,0,0,0,0.5-0.3c0.5-0.3,0.5-0.3,0.5-0.3c0.2-0.2,0.6-0.8,0.9-1.2
			c0,0,0,0,0-0.5c0-0.5,0-0.5,0-0.5c-0.2-0.7-2.6-7.5-5.4-15.2s-5.3-14.5-5.5-15.1c0,0,0,0-0.3-0.4c-0.3-0.4-0.7-0.7-1.2-0.9
			c-0.5-0.1-0.9-0.2-1.4-0.2c-0.5,0-0.5,0-0.5,0c-0.4,0.1-0.9-0.3-1.1-0.8s2.1-1.9,5.1-3s6.9-2.3,8.6-2.7c0,0,0,0,1.7,0.2
			c1.7,0.2,3.4,0.7,4.9,1.5c2.1,1.1,4,2.8,5.8,5.1C490.4,156.8,491.9,159.7,493.2,163.3z M488.9,164.9c-0.9-2.6-2-4.9-3.2-6.8
			c-1.2-1.9-2.5-3.5-4-4.8c-1.4-1.2-2.8-2-4.3-2.4s-1.5-0.4-1.5-0.4c-1.6,0.3-3.4,0.8-4,1c0,0,0,0-0.6,0.2c-0.6,0.2-0.6,0.2-0.6,0.2
			c-0.4,0.2,1.7,7,4.6,15.2s6,16.1,6.7,17.6c0,0,0,0,0.9,0.4c0.9,0.4,1.9,0.4,3.2-0.1c1.5-0.5,2.7-1.4,3.5-2.6
			c0.8-1.2,1.3-2.7,1.5-4.4c0.2-1.8,0.1-3.8-0.3-5.9C490.5,169.9,489.8,167.5,488.9,164.9z"/>
		<path class="st10" d="M495.4,141.4c0.4,1,0.5,2,0.3,3c-0.2,0.9-0.6,1.5-1.2,1.8c-0.6,0.2-1.3,0-2-0.5c-0.7-0.6-1.2-1.3-1.6-2.3
			c-0.4-1-0.5-2-0.3-2.9c0.2-0.9,0.6-1.5,1.2-1.7c0.7-0.2,1.4-0.1,2,0.5C494.5,139.7,495,140.4,495.4,141.4z M510.9,177.5
			c0.2,0.5-1.6,1.6-3.9,2.4s-4.4,1.1-4.5,0.6s-0.1-1,0.2-1.2c0,0,0,0,0.3-0.1c0.3-0.1,0.3-0.1,0.3-0.1c0.2-0.2,0.6-0.6,0.8-1
			c0,0,0,0,0-0.5c0-0.5,0-0.5,0-0.5c-0.2-0.7-1.7-4.9-3.3-9.5s-3.2-8.8-3.5-9.4c0,0,0,0-0.3-0.4c-0.3-0.4-0.7-0.7-1.2-1
			c-0.3-0.1-0.7-0.2-1.2-0.2c-0.5,0-0.5,0-0.5,0c-0.4,0.1-0.9-0.3-1.1-0.8s1-1.5,2.6-2.3s3.1-1.3,3.2-1.3s2,5.1,4.2,11.1
			s4.2,11.5,4.5,12.1c0,0,0,0,0.3,0.4s0.7,0.6,1.1,0.7c0.3,0.1,0.6,0.1,0.9,0.1c0.3,0,0.3,0,0.3,0
			C510.3,176.6,510.7,177,510.9,177.5z"/>
		<path class="st10" d="M532.1,169.3c0.2,0.5-1,1.5-2.6,2.3s-3,1.3-3.2,1.3s-0.4-0.7-0.7-1.4s-0.5-1.3-0.5-1.3s-0.4,1.1-0.8,2.4
			c0,0,0,0-0.7,1c-0.7,1-1.5,1.7-2.4,2c-1,0.4-2.1,0.4-3.2,0c-1.2-0.3-2.3-1-3.5-2c-1.1-1-2.2-2.3-3.3-3.9s-2-3.5-2.7-5.6
			c-0.7-1.9-1.2-3.9-1.3-5.8c-0.2-1.9-0.1-3.6,0.1-5.2c0.3-1.5,0.8-2.8,1.6-3.9c0.8-1.1,1.7-1.9,2.8-2.2c0.8-0.3,1.7-0.4,2.6-0.4
			c0.9,0,0.9,0,0.9,0c0.9,0.2,0.8-1.7-0.1-4.2s-2-5.3-2.3-6.1c0,0,0,0-0.4-0.6c-0.4-0.6-0.8-1-1.2-1.2c-0.5-0.2-1-0.3-1.6-0.3
			c-0.6,0-0.6,0-0.6,0c-0.7,0.1-1.5-0.1-1.6-0.6s1.3-1.6,3.2-2.4c1.9-0.9,3.6-1.5,3.7-1.4s3.2,8.3,6.8,18.3s6.8,18.6,7.1,19.3
			c0,0,0,0,0.3,0.4s0.7,0.7,1.1,0.9c0.3,0.1,0.7,0.2,1.1,0.1c0.4-0.1,0.4-0.1,0.4-0.1C531.4,168.5,531.9,168.8,532.1,169.3z
			 M523.8,169.6c0.2-1-0.9-5.3-2.4-9.7s-3.1-8.3-3.4-8.8c0,0,0,0-0.4-0.5c-0.4-0.5-0.9-0.9-1.3-1.2c-0.5-0.3-1-0.6-1.6-0.7
			c-0.6-0.1-1.2-0.1-1.8,0.1c-0.7,0.3-1.3,0.8-1.6,1.6c-0.4,0.8-0.6,1.8-0.7,3c-0.1,1.2,0.1,2.6,0.4,4.3s0.8,3.5,1.5,5.4
			c0.6,1.5,1.1,2.9,1.8,4.1c0.6,1.2,1.4,2.2,2.2,3.1c0.8,0.9,1.6,1.5,2.5,1.9c0.9,0.4,1.7,0.4,2.6,0.1c0.9-0.3,1.6-0.9,2-1.8
			C523.8,169.6,523.8,169.6,523.8,169.6z"/>
		<path class="st10" d="M544.9,176.2c-0.3-0.9-0.4-1.7-0.3-2.4c0.1-0.7,0.4-1.1,0.9-1.3c0.4-0.1,0.7-0.1,1.1,0
			c0.3,0.1,0.7,0.3,1,0.6c0.3,0.2,0.6,0.5,1,0.9c0.4,0.4,0.4,0.4,0.4,0.4c0.3,0.3,0.8-0.4,1.2-1.6c0,0,0,0,0.1-2.4
			c0.1-2.4,0.1-2.4,0.1-2.4c-0.1-2-2.6-7-5.3-11.1c0,0,0,0-2.1-3.1c-2.1-3.1-2.1-3.1-2.1-3.1c-2.5-3.5-5-7-5.7-7.7c0,0,0,0-0.7-0.3
			c-0.7-0.3-0.7-0.3-0.7-0.3c-0.7,0-1.4-0.4-1.5-0.9s1.5-1.5,3.7-2.3s4.1-1,4.3-0.5s0,1.1-0.4,1.4c0,0,0,0-0.4,0.4
			c-0.4,0.4-0.4,0.4-0.4,0.4c0,0.3,0,0.7,0.1,0.9c0,0,0,0,0.1,0.2c0.1,0.2,0.1,0.2,0.1,0.2c0.2,0.3,1.6,2.3,3,4.5c0,0,0,0,2.1,3.1
			c2.1,3.1,2.1,3.1,2.1,3.1c1.6,2.4,2.8,2.3,2.6,0c0,0,0,0-0.2-2.3c-0.2-2.3-0.2-2.3-0.2-2.3c-0.3-3.2-0.6-6.2-0.7-6.7
			c0,0,0,0-0.1-0.7c-0.1-0.7-0.2-1.2-0.3-1.7c-0.2-0.5-0.6-0.8-1.3-1c-0.7-0.2-0.7-0.2-0.7-0.2c-0.6,0-1.3-0.4-1.4-0.9
			s1.1-1.4,2.9-2s3.4-0.8,3.6-0.3s0,1.2-0.4,1.5c0,0,0,0-0.4,0.7c-0.4,0.7-0.4,0.7-0.4,0.7c0,1.1,0.3,6.7,0.7,12.6c0,0,0,0,0.4,4.5
			s0.7,7.9,0.8,10c0.2,2.8,0.2,5,0.2,6.7c-0.1,1.6-0.2,3-0.5,4c-0.3,1-0.6,1.7-0.9,2.1c-0.3,0.4-0.3,0.4-0.3,0.4
			c-0.5,0.3-1.7,0.6-2.7,0.7c0,0,0,0-0.8-0.5C545.7,177.7,545.2,177,544.9,176.2z"/>
		<path class="st10" d="M569.4,133.3c1.9,4,4.1,9,4.7,11.1c0,0,0,0,0.3,2c0.3,2,0.3,3.7,0,5.3c-0.3,1.8-0.8,3.2-1.7,4.3
			c-0.8,1.1-1.9,1.9-3.2,2.4c-1.1,0.4-2.3,0.5-3.5,0.2c-1.2-0.3-2.5-0.9-3.7-1.9c-1.2-0.9-2.4-2.2-3.4-3.8c-1.1-1.6-1.1-1.6-1.1-1.6
			c-1-2.2-2.6-7.6-3.7-12c0,0,0,0,0.6-3.2c0.6-3.2,2.2-5.3,4.8-6.3c2.4-0.9,4.9-0.3,7.4,1.6C569.4,133.3,569.4,133.3,569.4,133.3z
			 M571.4,149c-1.1-3.9-2.6-8.3-3.2-9.8c0,0,0,0-0.7-1.5s-1.5-2.6-2.2-3.6c-0.8-1-1.6-1.7-2.5-2.2c-0.9-0.5-1.7-0.5-2.6-0.2
			c-0.9,0.3-1.6,1-2,1.9c-0.4,0.9-0.6,2.1-0.5,3.4c0,1.2,0.2,2.6,0.6,4.1c0.4,1.5,0.8,2.9,1.3,4.2c0.6,1.7,1.3,3.3,2,4.7
			s1.5,2.6,2.3,3.6c0.8,1,1.7,1.7,2.5,2.2c0.8,0.4,0.8,0.4,0.8,0.4c1-0.1,2.8-1.2,4-2.3c0,0,0,0,0.1-2.5
			C571.4,149,571.4,149,571.4,149z"/>
		<path class="st10" d="M598.7,145.2c0.2,0.5-0.9,1.5-2.4,2.2s-2.8,1.3-2.9,1.2s-0.5-0.9-0.8-1.8s-0.6-1.7-0.7-1.7s-0.2,0.5-0.3,1.2
			c0,0,0,0-0.2,0.6c-0.2,0.6-0.4,1.3-0.7,1.8c-0.4,0.7-0.7,1.2-1.1,1.7c-0.4,0.4-0.4,0.4-0.4,0.4c-0.9,0.4-2.9,0.8-4.6,0.9
			c0,0,0,0-1.4-1.3c-1.4-1.3-1.4-1.3-1.4-1.3c-1.3-2.8-3.3-8-4.6-11.5s-2.6-7-2.8-7.6c0,0,0,0-0.3-0.4c-0.3-0.4-0.7-0.7-1.1-0.9
			c-0.3-0.1-0.6-0.2-1-0.2s-0.4,0-0.4,0c-0.4,0.1-0.9-0.3-1.1-0.8s0.9-1.5,2.5-2.3s2.9-1.3,3-1.2s1.7,4.3,3.6,9.5s4.1,10.8,4.9,12.6
			c0,0,0,0,0.9,0.8s1.8,1,2.6,0.7c0.6-0.2,1.2-0.6,1.6-1.1s0.7-1,0.9-1.6c0.2-0.5,0.3-1,0.4-1.5c0.1-0.5,0.1-0.5,0.1-0.5
			c0-0.5-1.2-4.3-2.7-8.5s-3-8.1-3.2-8.7c0,0,0,0-0.3-0.4c-0.3-0.4-0.7-0.7-1.1-0.9c-0.3-0.1-0.7-0.2-1.1-0.1
			c-0.4,0.1-0.4,0.1-0.4,0.1c-0.6,0.2-1.2-0.1-1.3-0.6s1.1-1.6,2.7-2.4s3.2-1.4,3.3-1.3s1.9,4.9,4.1,10.8s4.1,11.2,4.4,11.8
			c0,0,0,0,0.3,0.4s0.7,0.7,1.1,0.9c0.3,0.1,0.6,0.2,0.9,0.1c0.3,0,0.3,0,0.3,0C598,144.4,598.5,144.7,598.7,145.2z"/>
		<path class="st10" d="M617.9,110.4c0.2,0.5-0.1,1.2-0.6,1.6c0,0,0,0-0.3,0.6c-0.3,0.6-0.4,1.6-0.4,2.8c0.2,2.7,0.4,5.5,0.6,8.4
			c0.2,2.9,0.4,6,0.7,9.2c0.1,0.9,0.2,2,0.3,3.2c0.1,1.2,0.1,1.2,0.1,1.2c0.2,1.3,0,2.4-0.4,2.6s-3-3.1-5.8-7.1c0,0,0,0-2.2-3.2
			c-2.2-3.2-2.2-3.2-2.2-3.2c-2.5-3.6-5.2-7.1-5.8-7.8c0,0,0,0-0.7-0.3c-0.7-0.3-0.7-0.3-0.7-0.3c-0.7,0-1.4-0.4-1.5-0.9
			s1.5-1.6,3.7-2.4s4.2-1,4.4-0.5s0,1.1-0.4,1.4c0,0,0,0-0.5,0.4c-0.5,0.4-0.5,0.4-0.5,0.4c0,0.4,0,0.8,0.1,0.9c0,0,0,0,0.1,0.2
			c0.1,0.2,0.1,0.2,0.1,0.2c0.2,0.3,1.6,2.3,3.1,4.5c0,0,0,0,2.1,3c2.1,3,2.1,3,2.1,3c1.6,2.3,2.8,2.5,2.7,0.4c0,0,0,0-0.2-2.6
			c-0.2-2.6-0.2-2.6-0.2-2.6c-0.3-3.3-0.6-6.5-0.7-7c0,0,0,0,0-0.5c0-0.5-0.2-0.9-0.3-1.4c-0.1-0.3-0.3-0.5-0.6-0.7
			c-0.3-0.2-0.6-0.3-0.9-0.4c-0.3-0.1-0.7-0.1-0.9-0.1c-0.3,0-0.3,0-0.3,0c-0.2,0-0.6-0.4-0.7-0.8s1.2-1.4,3-2.1
			S617.7,109.9,617.9,110.4z"/>
		<path class="st10" d="M636.6,109c1.9,4,4.1,9,4.7,11.1c0,0,0,0,0.3,2c0.3,2,0.3,3.7,0,5.3c-0.3,1.8-0.8,3.2-1.7,4.3
			c-0.8,1.1-1.9,1.9-3.2,2.4c-1.1,0.4-2.3,0.5-3.5,0.2c-1.2-0.3-2.5-0.9-3.7-1.9c-1.2-0.9-2.4-2.2-3.4-3.8c-1.1-1.6-1.1-1.6-1.1-1.6
			c-1-2.2-2.6-7.6-3.7-12c0,0,0,0,0.6-3.2c0.6-3.2,2.2-5.3,4.8-6.3c2.4-0.9,4.9-0.3,7.4,1.6C636.6,109,636.6,109,636.6,109z
			 M638.6,124.7c-1.1-3.9-2.6-8.3-3.2-9.8c0,0,0,0-0.7-1.5c-0.7-1.5-1.5-2.6-2.2-3.6c-0.8-1-1.6-1.7-2.5-2.2
			c-0.9-0.5-1.7-0.5-2.6-0.2c-0.9,0.3-1.6,1-2,1.9c-0.4,0.9-0.6,2.1-0.5,3.4c0,1.2,0.2,2.6,0.6,4.1c0.4,1.5,0.8,2.9,1.3,4.2
			c0.6,1.7,1.3,3.3,2,4.7c0.7,1.4,1.5,2.6,2.3,3.7c0.8,1,1.7,1.7,2.5,2.2c0.8,0.4,0.8,0.4,0.8,0.4c1-0.1,2.8-1.2,4-2.3
			c0,0,0,0,0.1-2.5C638.6,124.7,638.6,124.7,638.6,124.7z"/>
		<path class="st10" d="M657.7,123c0.2,0.5-0.2,1.6-0.8,2.4c0,0,0,0-0.6,0.6c-0.6,0.6-1.3,1.1-2.3,1.4c-1.5,0.5-2.7,0.3-3.7-0.6
			c-1-0.9-1-0.9-1-0.9c-0.9-2-3.1-7.7-4.9-12.7s-4-8.9-4.9-8.5s-1.8,0-2.1-0.7s0.3-1.6,1.1-1.9s0.9-2.5,0.1-4.8s-0.8-4.4,0.1-4.8
			s2.3,1.3,3.1,3.6s2.6,3.8,4,3.3s2.7-0.3,3,0.4s-0.6,1.7-2,2.2s-1.3,4.3,0.2,8.4s3.1,8.4,3.5,9.6c0,0,0,0,0.3,0.7
			c0.3,0.7,0.7,1.3,1.1,1.8c0.4,0.5,0.8,0.8,1.3,0.9s0.5,0.1,0.5,0.1c0.7-0.2,1.5-0.4,1.9-0.6c0,0,0,0,0.5-0.3
			c0.5-0.3,0.5-0.3,0.5-0.3C657.1,122.2,657.5,122.4,657.7,123z"/>
		<path class="st10" d="M672.6,112.2c0.5,0.2,0.7,2.4,0.5,4.8c0,0,0,0-0.8,1.7c-0.8,1.7-2,2.9-3.5,3.4c-1.4,0.5-2.8,0.6-4.1,0.2
			c-1.3-0.4-2.6-1.1-3.7-2.2c-1.2-1.1-2.2-2.4-3.2-4c-1-1.6-1.8-3.4-2.5-5.4c-0.6-1.7-1.1-3.5-1.3-5.3c-0.2-1.8-0.3-3.5-0.1-5.1
			c0.2-1.5,0.7-2.9,1.4-4c0.7-1.2,1.7-2,2.9-2.4c1.3-0.5,2.5-0.5,3.6-0.3s2.2,0.9,3.1,1.7c0.9,0.8,1.8,1.9,2.5,3.2
			c0.8,1.3,0.8,1.3,0.8,1.3c0.7,1.7,1.4,3.5,1.6,4s-2.3,1.8-5.5,3s-5.2,3.6-4.5,5.4c0,0,0,0,0.7,1.4c0.7,1.4,1.5,2.5,2.4,3.4
			c0.8,0.9,1.7,1.5,2.7,1.8s2,0.3,3,0c1.1-0.4,1.8-1.1,2.3-2.1c0.5-1,0.5-1,0.5-1C671.7,113.6,672.1,112,672.6,112.2z M661.8,105.2
			c2.2-0.8,3.7-2.4,3.2-3.5c0,0,0,0-0.5-1.1c-0.5-1.1-1.1-2-1.6-2.7c-0.6-0.7-1.2-1.3-1.9-1.6c-0.7-0.4-0.7-0.4-0.7-0.4
			c-0.8,0.1-2.3,1-3.4,1.8c0,0,0,0-0.2,1.9c-0.2,1.9-0.2,1.9-0.2,1.9C657.1,104.3,659.5,106,661.8,105.2z"/>
		<path class="st10" d="M685.8,74.3c1,0.8,1.9,1.8,2.7,3c0.8,1.2,0.8,1.2,0.8,1.2c0.7,1.6,1.9,5.8,2.8,9.3c0,0,0,0-0.6,2.6
			c-0.6,2.6-0.6,2.6-0.6,2.6c-2,1.8-3.2,4.6-2.6,6.3s0.7,3.1,0.3,3.3s-1.7-2-2.7-4.9s-1.2-5.5-0.5-6c0,0,0,0,0.6-0.5
			c0.6-0.5,1.1-1.2,1.5-2.1c0.4-0.9,0.5-1.9,0.5-3c0-1.1-0.3-2.5-0.9-4.2c-1-2.7-2.1-4.7-3.4-5.9c-1.3-1.2-1.3-1.2-1.3-1.2
			c-1.5,0.1-3.2,0.4-3.8,0.7c0,0,0,0-0.3,0.4c-0.3,0.4-0.3,0.4-0.3,0.4c-0.2,0.3-0.1,1.1,0.2,1.6c0,0,0,0,0.4,0.8
			c0.4,0.8,0.7,1.4,0.8,1.8c0.2,0.7,0.3,1.4,0.1,2c-0.2,0.7-0.6,1.2-1.3,1.4c-0.6,0.2-1.2,0.1-1.7-0.5c-0.5-0.6-0.9-1.3-1.3-2.2
			c-0.3-0.7-0.4-1.5-0.4-2.3c0-0.8,0.2-1.6,0.5-2.5c0.3-0.8,0.7-1.5,1.4-2.2c0.7-0.7,1.4-1.2,2.3-1.5c1.3-0.5,2.5-0.5,3.7-0.3
			C683.7,73,684.8,73.5,685.8,74.3z M693.5,108.9c0.4,1,0.4,2,0.2,2.9c-0.2,0.9-0.7,1.5-1.3,1.7c-0.7,0.2-1.4,0.1-2.1-0.5
			c-0.7-0.5-1.3-1.3-1.7-2.3c-0.4-1-0.4-2-0.2-2.9c0.2-0.9,0.6-1.5,1.3-1.7c0.7-0.2,1.4-0.1,2.1,0.5
			C692.6,107.1,693.1,107.9,693.5,108.9z"/>
	</g>
</g>
<g>
	<g>
		<path class="st1" d="M491.6,163.6c1.2,3.3,1.8,6.3,1.9,9s-0.3,5.1-1,7.1c-0.7,2-1.8,3.7-3.1,5c-1.3,1.3-1.3,1.3-1.3,1.3
			c-1.8,0.9-5.6,2.5-8.5,3.5s-5.4,1.4-5.6,0.9s0-1.1,0.4-1.3c0,0,0,0,0.5-0.3c0.5-0.3,0.5-0.3,0.5-0.3c0.2-0.2,0.6-0.8,0.9-1.2
			c0,0,0,0,0-0.5c0-0.5,0-0.5,0-0.5c-0.2-0.7-2.6-7.5-5.4-15.2s-5.3-14.5-5.5-15.1c0,0,0,0-0.3-0.4c-0.3-0.4-0.7-0.7-1.2-0.9
			c-0.5-0.1-0.9-0.2-1.4-0.2c-0.5,0-0.5,0-0.5,0c-0.4,0.1-0.9-0.3-1.1-0.8s2.1-1.9,5.1-3s6.9-2.3,8.6-2.7c0,0,0,0,1.7,0.2
			c1.7,0.2,3.4,0.7,4.9,1.5c2.1,1.1,4,2.8,5.8,5.1C488.8,157.1,490.3,160.1,491.6,163.6z M487.3,165.2c-0.9-2.6-2-4.9-3.2-6.8
			c-1.2-1.9-2.5-3.5-4-4.8c-1.4-1.2-2.8-2-4.3-2.4c-1.5-0.4-1.5-0.4-1.5-0.4c-1.6,0.3-3.4,0.8-4,1c0,0,0,0-0.6,0.2
			c-0.6,0.2-0.6,0.2-0.6,0.2c-0.4,0.2,1.7,7,4.6,15.2s6,16.1,6.7,17.6c0,0,0,0,0.9,0.4c0.9,0.4,1.9,0.4,3.2-0.1
			c1.5-0.5,2.7-1.4,3.5-2.6c0.8-1.2,1.3-2.7,1.5-4.4c0.2-1.8,0.1-3.8-0.3-5.9C488.9,170.2,488.2,167.8,487.3,165.2z"/>
		<path class="st1" d="M493.8,141.7c0.4,1,0.5,2,0.3,3c-0.2,0.9-0.6,1.5-1.2,1.8c-0.6,0.2-1.3,0-2-0.5c-0.7-0.6-1.2-1.3-1.6-2.3
			c-0.4-1-0.5-2-0.3-2.9c0.2-0.9,0.6-1.5,1.2-1.7c0.7-0.2,1.4-0.1,2,0.5S493.4,140.8,493.8,141.7z M509.3,177.8
			c0.2,0.5-1.6,1.6-3.9,2.4s-4.4,1.1-4.5,0.6s-0.1-1,0.2-1.2c0,0,0,0,0.3-0.1c0.3-0.1,0.3-0.1,0.3-0.1c0.2-0.2,0.6-0.6,0.8-1
			c0,0,0,0,0-0.5s0-0.5,0-0.5c-0.2-0.7-1.7-4.9-3.3-9.5s-3.2-8.8-3.5-9.4c0,0,0,0-0.3-0.4c-0.3-0.4-0.7-0.7-1.2-1
			c-0.3-0.1-0.7-0.2-1.2-0.2c-0.5,0-0.5,0-0.5,0c-0.4,0.1-0.9-0.3-1.1-0.8s1-1.5,2.6-2.3s3.1-1.3,3.2-1.3s2,5.1,4.2,11.1
			s4.2,11.5,4.5,12.1c0,0,0,0,0.3,0.4c0.3,0.4,0.7,0.6,1.1,0.7c0.3,0.1,0.6,0.1,0.9,0.1c0.3,0,0.3,0,0.3,0
			C508.7,177,509.2,177.3,509.3,177.8z"/>
		<path class="st1" d="M530.5,169.6c0.2,0.5-1,1.5-2.6,2.3s-3,1.3-3.2,1.3s-0.4-0.7-0.7-1.4s-0.5-1.3-0.5-1.3s-0.4,1.1-0.8,2.4
			c0,0,0,0-0.7,1c-0.7,1-1.5,1.7-2.4,2c-1,0.4-2.1,0.4-3.2,0c-1.2-0.3-2.3-1-3.5-2c-1.1-1-2.2-2.3-3.3-3.9s-2-3.5-2.7-5.6
			c-0.7-1.9-1.2-3.9-1.3-5.8c-0.2-1.9-0.1-3.6,0.1-5.2c0.3-1.5,0.8-2.8,1.6-3.9c0.8-1.1,1.7-1.9,2.8-2.2c0.8-0.3,1.7-0.4,2.6-0.4
			c0.9,0,0.9,0,0.9,0c0.9,0.2,0.8-1.7-0.1-4.2s-2-5.3-2.3-6.1c0,0,0,0-0.4-0.6c-0.4-0.6-0.8-1-1.2-1.2c-0.5-0.2-1-0.3-1.6-0.3
			c-0.6,0-0.6,0-0.6,0c-0.7,0.1-1.5-0.1-1.6-0.6s1.3-1.6,3.2-2.4s3.6-1.5,3.7-1.4s3.2,8.3,6.8,18.3s6.8,18.6,7.1,19.3
			c0,0,0,0,0.3,0.4s0.7,0.7,1.1,0.9c0.3,0.1,0.7,0.2,1.1,0.1c0.4-0.1,0.4-0.1,0.4-0.1C529.8,168.8,530.3,169.1,530.5,169.6z
			 M522.2,169.9c0.2-1-0.9-5.3-2.4-9.7s-3.1-8.3-3.4-8.8c0,0,0,0-0.4-0.5s-0.9-0.9-1.3-1.2c-0.5-0.3-1-0.6-1.6-0.7
			c-0.6-0.1-1.2-0.1-1.8,0.1c-0.7,0.3-1.3,0.8-1.6,1.6c-0.4,0.8-0.6,1.8-0.7,3c-0.1,1.2,0.1,2.6,0.4,4.3c0.3,1.7,0.8,3.5,1.5,5.4
			c0.6,1.5,1.1,2.9,1.8,4.1c0.6,1.2,1.4,2.2,2.2,3.1c0.8,0.9,1.6,1.5,2.5,1.9c0.9,0.4,1.7,0.4,2.6,0.1c0.9-0.3,1.6-0.9,2-1.8
			C522.2,169.9,522.2,169.9,522.2,169.9z"/>
		<path class="st1" d="M543.3,176.5c-0.3-0.9-0.4-1.7-0.3-2.4c0.1-0.7,0.4-1.1,0.9-1.3c0.4-0.1,0.7-0.1,1.1,0c0.3,0.1,0.7,0.3,1,0.6
			c0.3,0.2,0.6,0.5,1,0.9c0.4,0.4,0.4,0.4,0.4,0.4c0.3,0.3,0.8-0.4,1.2-1.6c0,0,0,0,0.1-2.4c0.1-2.4,0.1-2.4,0.1-2.4
			c-0.1-2-2.6-7-5.3-11.1c0,0,0,0-2.1-3.1C539,151,539,151,539,151c-2.5-3.5-5-7-5.7-7.7c0,0,0,0-0.7-0.3c-0.7-0.3-0.7-0.3-0.7-0.3
			c-0.7,0-1.4-0.4-1.5-0.9s1.5-1.5,3.7-2.3s4.1-1,4.3-0.5s0,1.1-0.4,1.4c0,0,0,0-0.4,0.4c-0.4,0.4-0.4,0.4-0.4,0.4
			c0,0.3,0,0.7,0.1,0.9c0,0,0,0,0.1,0.2c0.1,0.2,0.1,0.2,0.1,0.2c0.2,0.3,1.6,2.3,3,4.5c0,0,0,0,2.1,3.1c2.1,3.1,2.1,3.1,2.1,3.1
			c1.6,2.4,2.8,2.3,2.6,0c0,0,0,0-0.2-2.3s-0.2-2.3-0.2-2.3c-0.3-3.2-0.6-6.2-0.7-6.7c0,0,0,0-0.1-0.7c-0.1-0.7-0.2-1.2-0.3-1.7
			c-0.2-0.5-0.6-0.8-1.3-1c-0.7-0.2-0.7-0.2-0.7-0.2c-0.6,0-1.3-0.4-1.4-0.9s1.1-1.4,2.9-2s3.4-0.8,3.6-0.3s0,1.2-0.4,1.5
			c0,0,0,0-0.4,0.7S548,138,548,138c0,1.1,0.3,6.7,0.7,12.6c0,0,0,0,0.4,4.5c0.4,4.5,0.7,7.9,0.8,10c0.2,2.8,0.2,5,0.2,6.7
			c-0.1,1.6-0.2,3-0.5,4c-0.3,1-0.6,1.7-0.9,2.1s-0.3,0.4-0.3,0.4c-0.5,0.3-1.7,0.6-2.7,0.7c0,0,0,0-0.8-0.5
			C544.1,178,543.6,177.4,543.3,176.5z"/>
		<path class="st1" d="M567.8,133.6c1.9,4,4.1,9,4.7,11.1c0,0,0,0,0.3,2c0.3,2,0.3,3.7,0,5.3c-0.3,1.8-0.8,3.2-1.7,4.3
			c-0.8,1.1-1.9,1.9-3.2,2.4c-1.1,0.4-2.3,0.5-3.5,0.2c-1.2-0.3-2.5-0.9-3.7-1.9c-1.2-0.9-2.4-2.2-3.4-3.8s-1.1-1.6-1.1-1.6
			c-1-2.2-2.6-7.6-3.7-12c0,0,0,0,0.6-3.2c0.6-3.2,2.2-5.3,4.8-6.3c2.4-0.9,4.9-0.3,7.4,1.6C567.8,133.6,567.8,133.6,567.8,133.6z
			 M569.8,149.3c-1.1-3.9-2.6-8.3-3.2-9.8c0,0,0,0-0.7-1.5c-0.7-1.5-1.5-2.6-2.2-3.6c-0.8-1-1.6-1.7-2.5-2.2
			c-0.9-0.5-1.7-0.5-2.6-0.2c-0.9,0.3-1.6,1-2,1.9c-0.4,0.9-0.6,2.1-0.5,3.4c0,1.2,0.2,2.6,0.6,4.1c0.4,1.5,0.8,2.9,1.3,4.2
			c0.6,1.7,1.3,3.3,2,4.7c0.7,1.4,1.5,2.6,2.3,3.7c0.8,1,1.7,1.7,2.5,2.2c0.8,0.4,0.8,0.4,0.8,0.4c1-0.1,2.8-1.2,4-2.3
			c0,0,0,0,0.1-2.5C569.8,149.3,569.8,149.3,569.8,149.3z"/>
		<path class="st1" d="M597.1,145.5c0.2,0.5-0.9,1.5-2.4,2.2s-2.8,1.3-2.9,1.2s-0.5-0.9-0.8-1.8s-0.6-1.7-0.7-1.7s-0.2,0.5-0.3,1.2
			c0,0,0,0-0.2,0.6c-0.2,0.6-0.4,1.3-0.7,1.8c-0.4,0.7-0.7,1.2-1.1,1.7c-0.4,0.4-0.4,0.4-0.4,0.4c-0.9,0.4-2.9,0.8-4.6,0.9
			c0,0,0,0-1.4-1.3c-1.4-1.3-1.4-1.3-1.4-1.3c-1.3-2.8-3.3-8-4.6-11.5s-2.6-7-2.8-7.6c0,0,0,0-0.3-0.4c-0.3-0.4-0.3-0.4-0.3-0.4
			c-0.4-0.3-1.1-0.6-1.4-0.7c0,0,0,0-0.4,0c-0.4,0-0.4,0-0.4,0c-0.4,0.1-0.9-0.3-1.1-0.8s0.9-1.5,2.5-2.3s2.9-1.3,3-1.2
			s1.7,4.3,3.6,9.5s4.1,10.8,4.9,12.6c0,0,0,0,0.9,0.8s1.8,1,2.6,0.7c0.6-0.2,1.2-0.6,1.6-1.1s0.7-1,0.9-1.6c0.2-0.5,0.3-1,0.4-1.5
			c0.1-0.5,0.1-0.5,0.1-0.5c0-0.5-1.2-4.3-2.7-8.5s-3-8.1-3.2-8.7c0,0,0,0-0.3-0.4c-0.3-0.4-0.7-0.7-1.1-0.9
			c-0.3-0.1-0.7-0.2-1.1-0.1c-0.4,0.1-0.4,0.1-0.4,0.1c-0.6,0.2-1.2-0.1-1.3-0.6s1.1-1.6,2.7-2.4s3.2-1.4,3.3-1.3s1.9,4.9,4.1,10.8
			s4.1,11.2,4.4,11.8c0,0,0,0,0.3,0.4c0.3,0.4,0.3,0.4,0.3,0.4c0.4,0.3,1,0.6,1.4,0.7c0,0,0,0,0.3,0c0.3,0,0.3,0,0.3,0
			C596.4,144.7,596.9,145,597.1,145.5z"/>
		<path class="st1" d="M616.3,110.7c0.2,0.5-0.1,1.2-0.6,1.6c0,0,0,0-0.3,0.6c-0.3,0.6-0.4,1.6-0.4,2.8c0.2,2.7,0.4,5.5,0.6,8.4
			c0.2,2.9,0.4,6,0.7,9.2c0.1,0.9,0.2,2,0.3,3.2c0.1,1.2,0.1,1.2,0.1,1.2c0.2,1.3,0,2.4-0.4,2.6s-3-3.1-5.8-7.1c0,0,0,0-2.2-3.2
			c-2.2-3.2-2.2-3.2-2.2-3.2c-2.5-3.6-5.2-7.1-5.8-7.8c0,0,0,0-0.7-0.3s-0.7-0.3-0.7-0.3c-0.7,0-1.4-0.4-1.5-0.9s1.5-1.6,3.7-2.4
			s4.2-1,4.4-0.5s0,1.1-0.4,1.4c0,0,0,0-0.5,0.4c-0.5,0.4-0.5,0.4-0.5,0.4c0,0.4,0,0.8,0.1,0.9c0,0,0,0,0.1,0.2s0.1,0.2,0.1,0.2
			c0.2,0.3,1.6,2.3,3.1,4.5c0,0,0,0,2.1,3c2.1,3,2.1,3,2.1,3c1.6,2.3,2.8,2.5,2.7,0.4c0,0,0,0-0.2-2.6c-0.2-2.6-0.2-2.6-0.2-2.6
			c-0.3-3.3-0.6-6.5-0.7-7c0,0,0,0,0-0.5c0-0.5-0.2-0.9-0.3-1.4c-0.1-0.3-0.3-0.5-0.6-0.7c-0.3-0.2-0.6-0.3-0.9-0.4
			c-0.3-0.1-0.7-0.1-0.9-0.1c-0.3,0-0.3,0-0.3,0c-0.2,0-0.6-0.4-0.7-0.8s1.2-1.4,3-2.1S616.2,110.2,616.3,110.7z"/>
		<path class="st1" d="M635,109.3c1.9,4,4.1,9,4.7,11.1c0,0,0,0,0.3,2c0.3,2,0.3,3.7,0,5.3c-0.3,1.8-0.8,3.2-1.7,4.3
			c-0.8,1.1-1.9,1.9-3.2,2.4c-1.1,0.4-2.3,0.5-3.5,0.2c-1.2-0.3-2.5-0.9-3.7-1.9c-1.2-0.9-2.4-2.2-3.4-3.8c-1.1-1.6-1.1-1.6-1.1-1.6
			c-1-2.2-2.6-7.6-3.7-12c0,0,0,0,0.6-3.2c0.6-3.2,2.2-5.3,4.8-6.3c2.4-0.9,4.9-0.3,7.4,1.6C635,109.3,635,109.3,635,109.3z
			 M637,125c-1.1-3.9-2.6-8.3-3.2-9.8c0,0,0,0-0.7-1.5c-0.7-1.5-1.5-2.6-2.2-3.6c-0.8-1-1.6-1.7-2.5-2.2c-0.9-0.5-1.7-0.5-2.6-0.2
			c-0.9,0.3-1.6,1-2,1.9c-0.4,0.9-0.6,2.1-0.5,3.4c0,1.2,0.2,2.6,0.6,4.1c0.4,1.5,0.8,2.9,1.3,4.2c0.6,1.7,1.3,3.3,2,4.7
			c0.7,1.4,1.5,2.6,2.3,3.7c0.8,1,1.7,1.7,2.5,2.2c0.8,0.4,0.8,0.4,0.8,0.4c1-0.1,2.8-1.2,4-2.3c0,0,0,0,0.1-2.5S637,125,637,125z"
			/>
		<path class="st1" d="M656.1,123.3c0.2,0.5-0.2,1.6-0.8,2.4c0,0,0,0-0.6,0.6c-0.6,0.6-1.3,1.1-2.3,1.4c-1.5,0.5-2.7,0.3-3.7-0.6
			c-1-0.9-1-0.9-1-0.9c-0.9-2-3.1-7.7-4.9-12.7s-4-8.9-4.9-8.5s-1.8,0-2.1-0.7s0.3-1.6,1.1-1.9s0.9-2.5,0.1-4.8s-0.8-4.4,0.1-4.8
			s2.3,1.3,3.1,3.6s2.6,3.8,4,3.3s2.7-0.3,3,0.4s-0.6,1.7-2,2.2s-1.3,4.3,0.2,8.4s3.1,8.4,3.5,9.6c0,0,0,0,0.3,0.7
			c0.3,0.7,0.7,1.3,1.1,1.8c0.4,0.5,0.8,0.8,1.3,0.9s0.5,0.1,0.5,0.1c0.7-0.2,1.5-0.4,1.9-0.6c0,0,0,0,0.5-0.3
			c0.5-0.3,0.5-0.3,0.5-0.3C655.5,122.5,655.9,122.8,656.1,123.3z"/>
		<path class="st1" d="M671,112.6c0.5,0.2,0.7,2.4,0.5,4.8c0,0,0,0-0.8,1.7c-0.8,1.7-2,2.9-3.5,3.4c-1.4,0.5-2.8,0.6-4.1,0.2
			c-1.3-0.4-2.6-1.1-3.7-2.2c-1.2-1.1-2.2-2.4-3.2-4c-1-1.6-1.8-3.4-2.5-5.4c-0.6-1.7-1.1-3.5-1.3-5.3c-0.2-1.8-0.3-3.5-0.1-5.1
			c0.2-1.5,0.7-2.9,1.4-4c0.7-1.2,1.7-2,2.9-2.4c1.3-0.5,2.5-0.5,3.6-0.3s2.2,0.9,3.1,1.7c0.9,0.8,1.8,1.9,2.5,3.2
			c0.8,1.3,0.8,1.3,0.8,1.3c0.7,1.7,1.4,3.5,1.6,4s-2.3,1.8-5.5,3s-5.2,3.6-4.5,5.4c0,0,0,0,0.7,1.4c0.7,1.4,1.5,2.5,2.4,3.4
			c0.8,0.9,1.7,1.5,2.7,1.8c1,0.3,2,0.3,3,0c1.1-0.4,1.8-1.1,2.3-2.1c0.5-1,0.5-1,0.5-1C670.1,113.9,670.5,112.4,671,112.6z
			 M660.2,105.5c2.2-0.8,3.7-2.4,3.2-3.5c0,0,0,0-0.5-1.1c-0.5-1.1-1.1-2-1.6-2.7c-0.6-0.7-1.2-1.3-1.9-1.6
			c-0.7-0.4-0.7-0.4-0.7-0.4c-0.8,0.1-2.3,1-3.4,1.8c0,0,0,0-0.2,1.9c-0.2,1.9-0.2,1.9-0.2,1.9C655.5,104.7,657.9,106.3,660.2,105.5
			z"/>
		<path class="st1" d="M684.2,74.6c1,0.8,1.9,1.8,2.7,3c0.8,1.2,0.8,1.2,0.8,1.2c0.7,1.6,1.9,5.8,2.8,9.3c0,0,0,0-0.6,2.6
			c-0.6,2.6-0.6,2.6-0.6,2.6c-2,1.8-3.2,4.6-2.6,6.3s0.7,3.1,0.3,3.3s-1.7-2-2.7-4.9s-1.2-5.5-0.5-6c0,0,0,0,0.6-0.5
			c0.6-0.5,1.1-1.2,1.5-2.1c0.4-0.9,0.5-1.9,0.5-3c0-1.1-0.3-2.5-0.9-4.2c-1-2.7-2.1-4.7-3.4-5.9c-1.3-1.2-1.3-1.2-1.3-1.2
			c-1.5,0.1-3.2,0.4-3.8,0.7c0,0,0,0-0.3,0.4c-0.3,0.4-0.3,0.4-0.3,0.4c-0.2,0.3-0.1,1.1,0.2,1.6c0,0,0,0,0.4,0.8
			c0.4,0.8,0.7,1.4,0.8,1.8c0.2,0.7,0.3,1.4,0.1,2c-0.2,0.7-0.6,1.2-1.3,1.4c-0.6,0.2-1.2,0.1-1.7-0.5c-0.5-0.6-0.9-1.3-1.3-2.2
			c-0.3-0.7-0.4-1.5-0.4-2.3c0-0.8,0.2-1.6,0.5-2.5c0.3-0.8,0.7-1.5,1.4-2.2c0.7-0.7,1.4-1.2,2.3-1.5c1.3-0.5,2.5-0.5,3.7-0.3
			C682.1,73.3,683.2,73.8,684.2,74.6z M691.9,109.3c0.4,1,0.4,2,0.2,2.9s-0.7,1.5-1.3,1.7c-0.7,0.2-1.4,0.1-2.1-0.5
			c-0.7-0.5-1.3-1.3-1.7-2.3c-0.4-1-0.4-2-0.2-2.9c0.2-0.9,0.6-1.5,1.3-1.7c0.7-0.2,1.4-0.1,2.1,0.5
			C691,107.5,691.5,108.3,691.9,109.3z"/>
	</g>
</g>
</svg>
