<?xml version="1.0" encoding="utf-8"?>
<!-- Generator: Adobe Illustrator 21.0.2, SVG Export Plug-In . SVG Version: 6.00 Build 0)  -->
<svg version="1.1" id="Layer_1" xmlns="http://www.w3.org/2000/svg" xmlns:xlink="http://www.w3.org/1999/xlink" x="0px" y="0px"
	 viewBox="0 0 700 200" style="enable-background:new 0 0 700 200;" xml:space="preserve">
<style type="text/css">
	.st0{fill:#C3E0B8;}
	.st1{fill:#D98273;}
	.st2{fill:#0020A0;}
	.st3{fill:#60A2B3;stroke:#60A2B3;stroke-width:0.5;stroke-miterlimit:10;}
	.st4{fill:#41A1DA;}
	.st5{fill:#FEFEFE;}
	.st6{fill:#D8484A;stroke:#D8484A;stroke-width:5.000000e-02;stroke-miterlimit:10;}
	.st7{fill:#D8484A;}
	.st8{fill:#DF88D2;}
	.st9{fill:none;stroke:#D8484A;stroke-width:5.000000e-02;stroke-miterlimit:10;}
	.st10{fill:#DF88D2;stroke:#DF88D2;stroke-width:0.5;stroke-miterlimit:10;}
	.st11{fill:#60A2B3;}
	.st12{fill:none;stroke:#807ABF;stroke-width:19;stroke-miterlimit:10;}
	.st13{fill:#807ABF;}
	.st14{display:none;fill:#D98273;}
</style>
<g id="background_2_">
	<g>
		<rect x="3" y="2.9" class="st0" width="694" height="194"/>
		<path class="st1" d="M694,5.9v188H6V5.9H694 M700-0.1H0v200h700V-0.1L700-0.1z"/>
	</g>
</g>
<g>
	<path class="st1" d="M445.4,51.8c-2.9-0.6-12.8,0-12.8,0c-4.8,3.2-9.8,6.3-14.6,9.6c-1.2,3.8-2.5,7.6-3.7,11.4c0,0,5.5,0,6.4,0
		s1.8-5.7,1.8-5.7h6.4c0,0-0.8,3.3-1.8,4.8c-3.2,4.4-7.7,7.3-8.2,8.5c-0.5,2.2-0.1,4,0.9,4.7c0.8,0.5,1.8,0.3,2.7,0
		c3.1-1.2,5.3-4,8.2-6.7c4.6-4.1,6.2-4.2,8.2-7.6c0.9-1.5,1.2-1.8,2.7-3.8c1.3-1.8,2.7-3,3.7-3.8"/>
	<rect x="448.1" y="46" class="st1" width="29.2" height="20"/>
	<path class="st1" d="M444.5,73.4v36h-42.2v-36h20.8c-3.9,3.4-7.4,5.7-7.9,7.1c-0.8,3.3-0.3,6.1,1.5,7.1c1.3,0.8,3,0.5,4.4,0
		c5.1-1.7,8.6-6,13.5-9.9c2.2-1.9,4.1-3.1,5.6-4.2L444.5,73.4L444.5,73.4z"/>
	<polygon class="st1" points="475.9,123.1 371,123.1 381.2,96 399.2,96 399.2,105.1 395.1,105.1 392.6,111.8 454.2,111.8 
		451.7,105.1 447.7,105.1 447.7,96 465.1,96 	"/>
	<rect x="371" y="126.4" class="st1" width="105.9" height="23.7"/>
</g>
<g id="candidate">
	<g id="Layer_3">
	</g>
	<g id="man_maire_1_">
		<g>
			<path class="st2" d="M581.7,30.7c-0.2,0-0.6,0-0.8,0.1c-0.2,0-0.6,0-0.8-0.1H581.7z"/>
			<path class="st3" d="M599.5,157.9c0.1,0.9-0.5,1.6-0.8,2h-13.2v-6c0-1.8,0-2.7,0-4c0.1-3.7-0.5-7.9-1.4-15.1c0,0-2.5-20.3-2-22.5
				h-2.7c0.6,2.1-2,22.5-2,22.5c-0.9,7.1-1.4,11.4-1.4,15.1c0,1.4,0,2.2,0,4v6H563c-0.3-0.4-0.9-1.2-0.8-2c0.1-1.4,1.8-2.3,2.5-2.7
				c2.4-1.2,4-0.3,5-1.6c0.5-0.6,0.6-1.5,0.6-2c-0.8-34-0.8-34.5-0.8-34.5c0.1-7.6,0.3-8.9-0.2-12.4c-0.5-2.9-1.1-4.9-1.9-6.6
				c-0.2-0.6-0.6-1.3-0.8-1.8c-0.4-0.8-0.8-1.6-1.2-2.3c-0.3-0.7-0.6-1.4-0.9-2.1l-0.2-0.5c-0.3-1.1-0.7-2.3-0.8-3.7
				c-0.4-3,1.6-8.3,3.3-19.8c0.6-3.7,0.7-6.3,2.5-7.4c2.9-1.6,7.9,0,8.9-2.2c0.6-1.2,0.6-3,0-4c-0.9-1.6-2.6-0.8-4-2.5
				c-1-1.3-1-3-1.1-5.3c-0.1-3.1,0.6-3.4,0.6-6.7c0-3.4-0.7-4.1-0.2-5.4c0.4-1.4,2.1-3.2,7.7-3.6c5.6,0.5,7.2,2.2,7.7,3.6
				c0.4,1.4-0.3,1.9-0.2,5.4c0,3.3,0.7,3.7,0.6,6.7c-0.1,2.4-0.2,4.2-1.1,5.3c-1.4,1.7-3.1,0.8-4,2.5c-0.6,1.1-0.6,2.8,0,4
				c0.2,0.6,0.9,0.9,1.6,1.1h0.2c0.7,0.1,1.6,0.2,2.5,0.2c0.7,0,1.6,0.1,2.4,0.2c0.7,0.1,1.3,0.3,1.9,0.5c0.1,0,0.2,0.1,0.3,0.2
				c1.8,1.1,2,3.7,2.5,7.4c1.7,11.4,3.7,16.8,3.3,19.8c-1,7.5-4.2,7.9-5.8,17.1c-0.6,3.4-0.4,4.8-0.2,12.4c0,0,0,0.5-0.8,34.5
				c0,0.5,0.1,1.4,0.6,2c1,1.4,2.5,0.5,5,1.6C597.7,155.6,599.4,156.5,599.5,157.9z"/>
		</g>
		<path class="st4" d="M590.5,59.8c-0.7-0.1-1.6-0.2-2.4-0.2c-0.9,0-1.8-0.1-2.5-0.2h-0.2c0,0.1-0.1,0.2-0.2,0.3
			c-1.9,3.5-3.8,6.9-5.9,10.2c-4.7,7.6-9.7,14.7-15.2,21.5l0.2,0.5c0.2,0.7,0.6,1.4,0.9,2.1c0.4,0.8,0.8,1.6,1.2,2.3
			c0.2,0.5,0.6,1.2,0.8,1.8c9.5-11.3,18-23.9,25.2-37.7C591.8,60.1,591.2,59.9,590.5,59.8z"/>
		<g>
			<path class="st5" d="M590.5,59.8c-6.9,13.4-15,25.6-24.1,36.6c-0.4-0.8-0.8-1.6-1.2-2.3c-0.3-0.7-0.6-1.4-0.9-2.1
				c5.5-6.8,10.5-14,15.2-21.6c2.1-3.4,4.1-7,6-10.6c0-0.1,0.1-0.2,0.2-0.3c0.7,0.1,1.6,0.2,2.5,0.2C589,59.6,589.7,59.6,590.5,59.8
				z"/>
			<path class="st6" d="M585.6,59.4c0.7,0.1,1.6,0.2,2.5,0.2c-2,3.6-4,7.2-6.1,10.7l0,0l0,0l0,0c-0.5,0.8-1.1,1.7-1.6,2.5
				c-4.7,7.5-9.8,14.5-15.3,21c-0.3-0.7-0.6-1.4-0.9-2.1l-0.2-0.4c5.5-6.8,10.5-13.9,15.2-21.5c2-3.3,4-6.8,5.9-10.2
				c0-0.1,0.1-0.2,0.2-0.3"/>
		</g>
	</g>
	<g id="woman_maire_1_">
		<g>
			<g id="XMLID_3_">
				<g>
					<path class="st7" d="M665.8,6.6L665.8,6.6c0,0.1,0,0.3-0.1,0.4l0,0L665.8,6.6z"/>
					<path class="st8" d="M648,77.8c0.2,3.3,0.7,4.6,0.2,7.1c-0.2,1.1-0.4,1.8-0.6,2.3c-1.6,5.1-4.2,6.4-4.7,9.9
						c-0.2,1.9,0.2,3.4,0.7,4.8c3.3,10.2,5.4,30.8,1.4,32.8c-0.2,0.1-1.4,0.2-3.7,0.2c-3.1,0-3.5-0.2-4.2,0.3
						c-1.3,1-0.6,3.4-0.7,7.5c-0.2,7.3-3.2,11.4-1.5,13.1c0.1,0.1,0.9,0.3,2.5,0.8c0.7,0.3,3.8,1.1,4.7,2.3c0.1,0.1,0.2,0.4,0.2,0.5
						c-0.2,0.3-0.7,0.3-0.9,0.3c-2.5-0.2-7.4,1.9-9.3-0.4c-0.3-0.5-0.4-0.8-0.4-1.9c0-0.7,0-1.8,0.1-3.3c0.2-8-0.1-6.5,0.2-9.5
						c0.5-5.8,1.4-8.5,0.2-9.5c-0.5-0.4-1.3-0.4-1.8,0c-1.2,0.9-0.3,3.6,0.2,9.5c0.2,2.9-0.1,1.4,0.2,9.5c0,1.5,0.1,2.6,0.1,3.3
						c0,1.2-0.1,1.5-0.4,1.9c-1.9,2.3-6.8,0.3-9.3,0.4c-0.2,0-0.7,0.1-0.9-0.3c-0.1-0.2,0.1-0.5,0.2-0.5c0.8-1.3,3.9-2.2,4.7-2.3
						c1.6-0.5,2.5-0.7,2.5-0.8c1.7-1.7-1.2-5.7-1.5-13.1c-0.2-4.1,0.7-6.5-0.7-7.5c-0.6-0.5-1.1-0.3-4.2-0.3c-2.3,0-3.4,0-3.7-0.2
						c-4-2-2-22.6,1.4-32.8c0.4-1.4,1-2.8,0.7-4.8c-0.1-0.7-0.3-1.4-0.6-2c0.9-0.8,1.7-1.7,2.5-2.5c0.1,0,0.2-0.1,0.2-0.3
						c8.4-8.6,16.1-18.1,23-28.4c0.5,0.5,1.1,1.1,1.6,1.9c0.7,1.1,0.9,2.2,1.1,4.3C648,74,647.7,74.4,648,77.8z M642.8,90.3
						c1-2.3,0.7-4.4,0.7-5.1c-0.7-8,0.2-14.1-0.7-14.3c-0.2,0-0.5,0.4-0.7,0.8c-2,3.7-1.9,7.9-1.8,12.3c0.1,6.8,0.1,8.6,0.7,8.8
						C641.7,92.8,642.7,90.5,642.8,90.3z"/>
					<path class="st8" d="M645.4,47.4c0.7-0.8-1.2,2.7-2.5,2.8c-1.1,0.1-1.7-0.7-2.1-0.4c-0.3,0.3-0.3,1.1,0,1.6
						c0.5,0.7,1.7,1.1,2.2,1c-0.9,1-1.7,1.5-2.2,1.8c-0.2,0.1-1.1,0.5-1.9,0.6c-0.1,0-0.7,0.1-1.3,0.2c-0.2,0-0.3,0-0.4,0.1
						c-0.7,0.2-1.3,0.3-1.7,0.5c-0.9,0.5-1.2-0.2-1.8,0.3c-0.5,0.4-0.5,1.4-0.3,2c0.2,0.8,0.7,1.2,2.1,2.3c1.5,1.2,2.1,1.8,2.5,2
						c0,0,0.1,0,0.2,0c-0.2,0.2-0.2,0.4-0.4,0.5c-2,3-4.2,6-6.5,8.8c-2.9,3.7-5.8,7.2-8.9,10.7c0-3.6-0.2-7.2-1.8-10.4
						c-0.2-0.5-0.5-0.8-0.7-0.8c-1,0.1-0.1,6.2-0.7,14.3c0,0.1,0,0.3,0,0.5c-0.8,0.9-1.7,1.8-2.5,2.6c-0.3,0.3-0.6,0.6-0.9,0.9
						c-0.2-0.5-0.4-1.2-0.7-1.8c-0.2-0.5-0.4-1.3-0.6-2.3c-0.4-2.5,0-3.9,0.2-7.1c0.2-3.4,0-3.8,0.3-7.5c0.2-2.2,0.4-3.3,1.1-4.3
						c0.2-0.5,1.1-2,2.9-2.8c0.2-0.1,0.3-0.1,2.8-0.5c2.5-0.5,2.6-0.5,2.9-0.6c0.4-0.2,1.1-0.7,2.5-2c1.6-1.4,2-1.7,2.1-2.3
						c0.2-0.6,0.1-1.6-0.3-2c-0.6-0.5-0.2,0.2-1.1-0.3c-0.4-0.2-1.8-0.3-2.5-0.5c0,0-0.2,0-0.4-0.1c-0.7-0.1-1.2-0.2-1.3-0.2
						c-0.9-0.1-1.7-0.5-1.9-0.6c-1-0.3-1.9-1.4-2.2-1.8c0.6,0.1,1.8-0.3,2.2-1c0.3-0.5,0.3-1.3,0-1.6c-0.4-0.4-1.1,0.5-2.1,0.4
						c-1.3-0.1-3.3-3.6-2.5-2.8c0.7,0.8,4-1.7,3.9-2.3c0-0.7-3.9-1.6-3.9-1.6s1.9-1.2,3.6-3.2c2.3-2.7,1.4-5.1,3.2-7.5
						c0.9-1.2,3.4-2.6,7.2-2.8h0.4c3.8,0.2,6.2,1.6,7.2,2.8c1.8,2.3,0.9,4.9,3.3,7.5c1.7,2,3.6,3.2,3.6,3.2s-3.9,0.9-3.9,1.6
						C641.4,45.7,644.7,48.1,645.4,47.4z"/>
					<path class="st4" d="M643.6,63.2c0.2,0.1,0.7,0.4,1.3,0.8c-6.9,10.3-14.6,19.8-23,28.4c0.2-0.4,0.2-1.3,0.3-3
						c7.7-8,14.7-16.9,21.1-26.4C643.5,63.1,643.6,63.1,643.6,63.2z"/>
					<path class="st5" d="M640.9,62.6c1.5,0.3,2,0.4,2.4,0.5c-6.4,9.5-13.4,18.3-21.1,26.4c0-1,0.1-2.3,0.1-3.9
						c6.6-7.1,12.7-14.8,18.5-23C640.8,62.6,640.9,62.6,640.9,62.6z"/>
					<path class="st7" d="M638.3,62.2c0.3,0.1,0.9,0.2,2.4,0.5c-5.6,8.2-11.8,15.9-18.5,23c0-0.5,0-1.1,0-1.6c0-0.5,0-0.9,0-1.3
						c3.1-3.5,6.2-7.2,9.1-10.9c2.3-2.9,4.5-6,6.6-9.1C638.2,62.4,638.3,62.3,638.3,62.2z"/>
					<path class="st8" d="M638.3,62.2c-0.1,0.2-0.2,0.3-0.3,0.5c-2.1,3.2-4.3,6.1-6.6,9.1c-2.9,3.8-6,7.5-9.1,10.9
						c0-0.3,0-0.5,0-0.6c3.1-3.4,6-7,8.9-10.7c2.2-2.9,4.3-5.8,6.5-8.8c0.2-0.2,0.2-0.4,0.4-0.5C638.2,62.1,638.3,62.1,638.3,62.2z"
						/>
					<path class="st7" d="M638.1,62l0.3,0.1C638.3,62.1,638.2,62.1,638.1,62z"/>
					<path class="st8" d="M621.7,92.7L621.7,92.7c-0.8,0.8-1.7,1.7-2.5,2.5c-0.2-0.5-0.6-1.1-0.9-1.6c0.7-0.7,1.5-1.4,2.2-2.2
						C620.8,92,621.3,92.7,621.7,92.7z"/>
					<path class="st8" d="M619.9,90.3c0,0.1,0.2,0.5,0.5,1.1c-0.7,0.7-1.5,1.4-2.2,2.2c-0.4-0.7-0.9-1.4-1.4-2.3
						c0.8-0.8,1.7-1.7,2.5-2.5c0,0,0.1,0,0.1-0.1C619.5,89.2,619.6,89.7,619.9,90.3z"/>
					<path class="st8" d="M619.3,88.7C619.3,88.7,619.2,88.8,619.3,88.7c-0.9,0.9-1.7,1.7-2.6,2.6c-0.3-0.5-0.7-1.1-0.9-1.7
						c0.4-0.5,0.9-0.9,1.4-1.4c0.7-0.6,1.2-1.3,1.9-1.9C619,86.9,619.1,87.7,619.3,88.7z"/>
					<path class="st8" d="M619,85.6c0,0.2,0,0.4,0,0.6c-0.7,0.6-1.2,1.3-1.9,1.9c-0.4,0.5-0.9,0.9-1.4,1.4l-0.2-0.5
						c0.3-0.3,0.6-0.6,0.9-0.9C617.4,87.4,618.2,86.5,619,85.6z"/>
				</g>
				<g>
					<path class="st9" d="M640.7,62.6c-5.6,8.2-11.8,15.9-18.5,23c0-0.5,0-1.1,0-1.6c0-0.5,0-0.9,0-1.3c0-0.3,0-0.5,0-0.6"/>
				</g>
			</g>
		</g>
	</g>
</g>
<g id="municipality">
</g>
<g id="votant">
	<g id="woman_12_">
		<path class="st10" d="M206.5,51.6c0-1.6,1.2-3.1,3-3.6c1.7-0.5,3.7,0,4.9,1.2c1.2,1.2,1.3,3,0.4,4.4c-1,1.4-2.8,2.1-4.6,1.8
			C208,55,206.5,53.4,206.5,51.6z"/>
		<path class="st10" d="M215.4,61.6c2,5.9,4,11.7,6,17.6c-1.6,0-3.1,0-4.7,0c-0.2,0-0.3,0-0.5,0c-0.1,0-0.2,0-0.3,0
			c-0.2,0-0.1,0-0.2,0.1c-0.1,0.1,0,0.4,0,0.5c0,0.2,0,0.4,0,0.6c0,0.7,0,1.3,0,2c0,2.7,0,5.4,0,8.1c0,0.7,0,1.4,0,2.1
			c0,0.5-0.2,0.9-0.6,1.2c-0.6,0.5-1.7,0.7-2.5,0.4c-1.3-0.5-1.1-1.7-1.1-2.8c0-1.4,0-2.7,0-4.1c0-1.5,0-3,0-4.5c0-0.8,0-1.5,0-2.3
			c0-0.4,0-0.8,0-1.2c0-0.3,0-0.1-0.1-0.1c-0.1,0-0.2,0-0.3,0c-0.2,0-0.5,0-0.7,0c0,2.9,0,5.8,0.1,8.7c0,1.4,0,2.9,0,4.3
			c0,0.9-0.4,1.8-1.6,2c-0.9,0.1-2-0.1-2.4-0.8c-0.2-0.4-0.3-0.9-0.3-1.3c-0.1-1.5-0.1-3-0.1-4.4c0-2.8,0.1-5.6,0.2-8.4
			c-1.9,0-3.8,0-5.8,0c2-5.9,4-11.7,6-17.6c-0.2,0-0.5,0-0.7,0c-0.3,0-0.3,0-0.4,0.2c-0.1,0.4-0.2,0.7-0.4,1.1
			c-0.2,0.7-0.4,1.3-0.6,1.9c-0.4,1.1-0.7,2.3-1.1,3.4c-0.5,1.3-0.9,2.7-1.5,4c-0.4,0.7-1.1,1.1-2,0.9c-0.5-0.1-0.9-0.4-1.2-0.7
			c-0.4-0.6-0.1-1.1,0.1-1.7c1-2.9,2-5.7,2.9-8.5c0.2-0.7,0.5-1.4,0.7-2.1c0.2-0.5,0.4-1,0.7-1.4c0.7-1,1.8-1.7,3.1-2.1
			c0.4-0.1,0.7-0.1,1.1-0.1c0.4,0,0.9,0,1.3,0c0.9,0,1.7,0,2.6,0c0.9,0,1.7,0,2.6,0c0.6,0,1.2,0,1.8,0.1c1.3,0.3,2.4,1.1,3.2,2.1
			c0.4,0.5,0.5,1.1,0.7,1.6c0.2,0.7,0.5,1.4,0.7,2.1c1,2.9,2,5.7,2.9,8.6c0.1,0.5,0.3,0.9,0.1,1.3s-0.6,0.7-1.2,0.9
			c-0.6,0.2-1.2,0.1-1.7-0.3c-0.5-0.3-0.6-0.9-0.7-1.4c-1-2.9-2-5.7-2.9-8.6c-0.1-0.3-0.2-0.7-0.3-1c0,0-0.1-0.3-0.1-0.3
			c0,0-0.3,0-0.3,0C215.8,61.6,215.6,61.6,215.4,61.6z"/>
	</g>
	<g id="Man">
		<g>
			<ellipse class="st11" cx="239.9" cy="52" rx="4.7" ry="3.8"/>
			<path class="st11" d="M239.9,55.9c2.6,0,4.7-1.7,4.7-3.9c0-2.1-2.1-3.9-4.7-3.9c-2.6,0-4.7,1.7-4.7,3.9
				C235.2,54.1,237.3,55.9,239.9,55.9z M239.9,48.2c2.6,0,4.6,1.7,4.6,3.8c0,2.1-2.1,3.8-4.6,3.8s-4.6-1.7-4.6-3.8
				C235.3,49.9,237.4,48.2,239.9,48.2z"/>
		</g>
		<g>
			<path class="st11" d="M245.9,62.9c0,4.2,0,8.4,0,12.6c0,3.7,0,7.5,0,11.2c0,1.9,0,3.8,0,5.7c0,0.7-0.4,1.4-1.2,1.7
				c-0.5,0.2-1,0.3-1.6,0.3c-0.8,0-1.5-0.2-2-0.7c-0.6-0.5-0.6-1-0.6-1.6c0-1.9,0-3.7,0-5.6c0-3.7,0-7.5,0.1-11.3
				c-0.2,0-0.5,0-0.7,0c-0.1,0-0.2,0-0.3,0c-0.2,0-0.1,0-0.2,0.1c-0.1,0.1,0,0.4,0,0.5c0,0.2,0,0.3,0,0.5c0,0.7,0,1.4,0,2
				c0,2.9,0,5.7,0,8.6c0,1.4,0,2.8,0,4.2c0,0.4,0,0.8,0,1.2c0,0.3,0,0.5-0.1,0.8c-0.2,0.5-0.7,0.9-1.2,1.1c-0.7,0.3-1.6,0.3-2.3,0.1
				c-0.6-0.2-1.2-0.5-1.5-1c-0.4-0.5-0.2-1-0.2-1.6c0-2.9,0-5.7,0-8.6c0-5.7,0-11.4-0.1-17.1c0-0.7,0-1.4,0-2.1c0-0.2,0-0.4,0-0.6
				c0-0.1,0.1-0.4,0-0.5c-0.1-0.1-0.1-0.1-0.2-0.1c-0.1,0-0.1,0-0.2,0c-0.1,0-0.2,0-0.3,0c-0.2,0-0.1,0-0.1,0.1
				c-0.1,0.1,0,0.4,0,0.6s0,0.3,0,0.5c0,0.3,0,0.7,0,1c0,0.7,0,1.4,0,2.2c0,1.4,0,2.8,0,4.2c0,0.7,0,1.4,0,2.1
				c0,0.4-0.1,0.8-0.5,1.1c-0.6,0.6-2.1,0.7-2.8,0.2c-0.4-0.3-0.6-0.7-0.6-1.1c0-0.7,0-1.3,0-1.9c0-2.8,0-5.6,0-8.4
				c0-0.7,0-1.4,0-2.2c0-0.4,0-0.7,0.1-1c0.1-0.3,0.3-0.6,0.4-0.9c0.6-1,1.6-1.7,2.8-2.1c1.4-0.5,2.9-0.4,4.4-0.4c1.7,0,3.4,0,5.1,0
				c0.9,0,1.8,0,2.7,0c0.7,0,1.6-0.1,2.4,0.1c1.3,0.3,2.2,1,3.1,1.7c0.5,0.4,0.8,0.9,1,1.4c0.2,0.6,0.1,1.2,0.1,1.8
				c0,1.4,0,2.8,0,4.2c0,1.4,0,2.9,0,4.3c0,0.7,0,1.4,0,2.1c0,0.5,0.1,1.1-0.1,1.6c-0.4,0.9-1.5,1.1-2.5,1c-0.7-0.1-1.3-0.6-1.4-1.2
				c-0.1-0.8,0-1.6,0-2.4c0-1.4,0-2.8,0-4.1c0-1.2,0-2.4,0-3.5c0-0.2,0.1-0.6,0-0.9c-0.1-0.1,0.1,0-0.1-0.1
				C246.6,62.8,246.1,62.9,245.9,62.9z"/>
			<path class="st11" d="M236.6,94.5c0.5,0,0.9-0.1,1.3-0.2c0.6-0.2,1.1-0.7,1.3-1.1c0.1-0.2,0.1-0.4,0.1-0.7c0-0.1,0-0.1,0-0.2
				l0.1-16.5c0,0,0-0.1,0-0.2c0-0.1,0-0.3,0-0.3c0,0,0,0,0,0c0,0,0.1,0,0.1,0c0.1,0,0.1,0,0.2,0c0,0,0.1,0,0.1,0h0.6l-0.1,16.8
				c0,0.6,0,1.1,0.6,1.7c0.5,0.4,1.2,0.7,2.1,0.7c0.7,0,1.2-0.1,1.6-0.3c0.8-0.4,1.2-1,1.2-1.8l0-29.5c0.1,0,0.1,0,0.2,0
				c0.2,0,0.5,0,0.6,0c0,0,0,0,0.1,0v0c0.1,0.1,0,0.4,0,0.6c0,0.1,0,0.2,0,0.3v7.7c0,0.3,0,0.5,0,0.8c0,0.5,0,1.1,0,1.6
				c0.1,0.6,0.8,1.1,1.5,1.2c1,0.2,2.2,0,2.6-1c0.1-0.4,0.1-0.8,0.1-1.2c0-0.2,0-0.3,0-0.5V61.9c0-0.1,0-0.2,0-0.3
				c0-0.5,0-1-0.1-1.5c-0.2-0.6-0.5-1.1-1-1.5c-1-0.9-1.9-1.5-3.1-1.8c-0.5-0.1-1.1-0.1-1.7-0.1c-0.2,0-0.5,0-0.7,0h-7.6
				c-0.2,0-0.5,0-0.7,0c-1.2,0-2.5,0-3.7,0.4c-1.3,0.5-2.3,1.2-2.8,2.2c-0.2,0.3-0.3,0.6-0.4,0.9c-0.1,0.3-0.1,0.6-0.1,0.9
				c0,0.1,0,0.1,0,0.2v10.6c0,0.2,0,0.4,0,0.7c0,0.4,0,0.9,0,1.3c0,0.5,0.2,0.9,0.7,1.1c0.8,0.5,2.3,0.4,2.9-0.2
				c0.4-0.4,0.5-0.7,0.5-1.1l0-10c0,0,0-0.1,0-0.2c0-0.1,0-0.3,0-0.4c0,0,0,0,0,0c0,0,0,0,0.1,0c0,0,0.1,0,0.2,0c0,0,0.1,0,0.1,0
				h0.2c0,0,0.1,0,0.1,0c0.1,0,0.1,0,0.1,0.1c0,0.1,0,0.2,0,0.3c0,0.1,0,0.1,0,0.2l0.1,28.4c0,0.1,0,0.2,0,0.3c0,0.5,0,0.9,0.3,1.3
				c0.3,0.5,0.9,0.9,1.6,1C235.9,94.5,236.3,94.5,236.6,94.5z M233.6,62.8L233.6,62.8c-0.1,0-0.1,0-0.1,0h-0.2c0,0-0.1,0-0.1,0
				c-0.1,0-0.2,0-0.2,0s-0.1,0-0.1,0c-0.1,0-0.1,0-0.1,0s0,0,0,0c-0.1,0.1,0,0.3,0,0.4c0,0.1,0,0.1,0,0.2l0,10
				c0,0.4-0.1,0.8-0.4,1.1c-0.6,0.6-2,0.7-2.8,0.2c-0.4-0.2-0.6-0.6-0.6-1.1c0-0.4,0-0.9,0-1.3c0-0.2,0-0.4,0-0.7V61.2
				c0-0.1,0-0.1,0-0.2c0-0.3,0-0.6,0.1-0.9c0.1-0.3,0.3-0.6,0.4-0.9c0.6-1,1.5-1.7,2.8-2.1c1.2-0.4,2.3-0.4,3.6-0.4
				c0.2,0,0.5,0,0.7,0h7.8c0.2,0,0.4,0,0.7,0c0.6,0,1.2,0,1.7,0.1c1.2,0.3,2.1,0.9,3.1,1.7c0.5,0.4,0.8,0.9,1,1.4
				c0.2,0.5,0.1,1,0.1,1.5c0,0.1,0,0.2,0,0.3v10.6c0,0.1,0,0.3,0,0.5c0,0.4,0.1,0.8-0.1,1.1c-0.4,1-1.6,1.1-2.4,0.9
				c-0.6-0.1-1.3-0.6-1.4-1.1c-0.1-0.5,0-1.1,0-1.6c0-0.3,0-0.5,0-0.8v-7.7c0-0.1,0-0.2,0-0.3c0-0.2,0-0.5,0-0.6v0l0,0l-0.1-0.1h0
				c0,0,0,0-0.1,0c-0.2-0.1-0.5,0-0.7,0c-0.1,0-0.2,0-0.3,0h0l0,29.6c0,0.8-0.4,1.3-1.1,1.7c-0.4,0.2-0.9,0.3-1.6,0.3
				c-0.8,0-1.5-0.2-2-0.7c-0.6-0.5-0.6-1-0.6-1.6l0.1-16.9h-0.7c0,0-0.1,0-0.1,0c-0.1,0-0.2,0-0.2,0s-0.1,0-0.1,0
				c-0.1,0-0.1,0-0.1,0.1c0,0,0,0,0,0c-0.1,0.1,0,0.3,0,0.4c0,0.1,0,0.1,0,0.1l-0.1,16.5c0,0.1,0,0.1,0,0.2c0,0.2,0,0.4-0.1,0.6
				c-0.2,0.5-0.6,0.9-1.2,1.1c-0.6,0.2-1.5,0.3-2.3,0.1c-0.6-0.2-1.2-0.5-1.5-1c-0.3-0.4-0.3-0.8-0.2-1.3c0-0.1,0-0.2,0-0.3
				l-0.1-28.4c0,0,0-0.1,0-0.1C233.7,63,233.7,62.9,233.6,62.8C233.7,62.8,233.7,62.8,233.6,62.8z"/>
		</g>
		<g>
			<ellipse class="st11" cx="186" cy="51.7" rx="4.7" ry="3.8"/>
			<path class="st11" d="M186,55.6c2.6,0,4.7-1.7,4.7-3.9c0-2.1-2.1-3.9-4.7-3.9c-2.6,0-4.7,1.7-4.7,3.9
				C181.2,53.8,183.3,55.6,186,55.6z M186,47.9c2.6,0,4.6,1.7,4.6,3.8c0,2.1-2.1,3.8-4.6,3.8c-2.6,0-4.6-1.7-4.6-3.8
				C181.3,49.6,183.4,47.9,186,47.9z"/>
		</g>
		<g>
			<path class="st11" d="M191.9,62.9c0,4.2,0,8.4,0,12.6c0,3.7,0,7.5,0,11.2c0,1.9,0,3.8,0,5.7c0,0.7-0.4,1.4-1.2,1.7
				c-0.5,0.2-1,0.3-1.6,0.3c-0.8,0-1.5-0.2-2-0.7c-0.6-0.5-0.6-1-0.6-1.6c0-1.9,0-3.7,0-5.6c0-3.7,0-7.5,0.1-11.3
				c-0.2,0-0.5,0-0.7,0c-0.1,0-0.2,0-0.3,0c-0.2,0-0.1,0-0.2,0.1c-0.1,0.1,0,0.4,0,0.5c0,0.2,0,0.3,0,0.5c0,0.7,0,1.4,0,2
				c0,2.9,0,5.7,0,8.6c0,1.4,0,2.8,0,4.2c0,0.4,0,0.8,0,1.2c0,0.3,0,0.5-0.1,0.8c-0.2,0.5-0.7,0.9-1.2,1.1c-0.7,0.3-1.6,0.3-2.3,0.1
				c-0.6-0.2-1.2-0.5-1.5-1c-0.4-0.5-0.2-1-0.2-1.6c0-2.9,0-5.7,0-8.6c0-5.7,0-11.4-0.1-17.1c0-0.7,0-1.4,0-2.1c0-0.2,0-0.4,0-0.6
				c0-0.1,0.1-0.4,0-0.5c-0.1-0.1-0.1-0.1-0.2-0.1c-0.1,0-0.1,0-0.2,0s-0.2,0-0.3,0c-0.2,0-0.1,0-0.1,0.1c-0.1,0.1,0,0.4,0,0.6
				s0,0.3,0,0.5c0,0.3,0,0.7,0,1c0,0.7,0,1.4,0,2.2c0,1.4,0,2.8,0,4.2c0,0.7,0,1.4,0,2.1c0,0.4-0.1,0.8-0.5,1.1
				c-0.6,0.6-2.1,0.7-2.8,0.2c-0.4-0.3-0.6-0.7-0.6-1.1c0-0.7,0-1.3,0-1.9c0-2.8,0-5.6,0-8.4c0-0.7,0-1.4,0-2.2c0-0.4,0-0.7,0.1-1
				c0.1-0.3,0.3-0.6,0.4-0.9c0.6-1,1.6-1.7,2.8-2.1c1.4-0.5,2.9-0.4,4.4-0.4c1.7,0,3.4,0,5.1,0c0.9,0,1.8,0,2.7,0
				c0.7,0,1.6-0.1,2.4,0.1c1.3,0.3,2.2,1,3.1,1.7c0.5,0.4,0.8,0.9,1,1.4c0.2,0.6,0.1,1.2,0.1,1.8c0,1.4,0,2.8,0,4.2
				c0,1.4,0,2.9,0,4.3c0,0.7,0,1.4,0,2.1c0,0.5,0.1,1.1-0.1,1.6c-0.4,0.9-1.5,1.1-2.5,1c-0.7-0.1-1.3-0.6-1.4-1.2
				c-0.1-0.8,0-1.6,0-2.4c0-1.4,0-2.8,0-4.1c0-1.2,0-2.4,0-3.5c0-0.2,0.1-0.6,0-0.9c-0.1-0.1,0.1,0-0.1-0.1
				C192.6,62.8,192.2,62.9,191.9,62.9z"/>
			<path class="st11" d="M182.7,94.5c0.5,0,0.9-0.1,1.3-0.2c0.6-0.2,1.1-0.7,1.3-1.1c0.1-0.2,0.1-0.4,0.1-0.7c0-0.1,0-0.1,0-0.2
				l0.1-16.5c0,0,0-0.1,0-0.2c0-0.1,0-0.3,0-0.3c0,0,0,0,0,0c0,0,0.1,0,0.1,0c0.1,0,0.1,0,0.2,0c0,0,0.1,0,0.1,0h0.6l-0.1,16.8
				c0,0.6,0,1.1,0.6,1.7c0.5,0.4,1.2,0.7,2.1,0.7c0.7,0,1.2-0.1,1.6-0.3c0.8-0.4,1.2-1,1.2-1.8l0-29.5c0.1,0,0.1,0,0.2,0
				c0.2,0,0.5,0,0.6,0c0,0,0,0,0.1,0v0c0.1,0.1,0,0.4,0,0.6c0,0.1,0,0.2,0,0.3v7.7c0,0.3,0,0.5,0,0.8c0,0.5,0,1.1,0,1.6
				c0.1,0.6,0.8,1.1,1.5,1.2c1,0.2,2.2,0,2.6-1c0.1-0.4,0.1-0.8,0.1-1.2c0-0.2,0-0.3,0-0.5V61.9c0-0.1,0-0.2,0-0.3
				c0-0.5,0-1-0.1-1.5c-0.2-0.6-0.5-1.1-1-1.5c-1-0.9-1.9-1.5-3.1-1.8c-0.5-0.1-1.1-0.1-1.7-0.1c-0.2,0-0.5,0-0.7,0h-7.6
				c-0.2,0-0.5,0-0.7,0c-1.2,0-2.5,0-3.7,0.4c-1.3,0.5-2.3,1.2-2.8,2.2c-0.2,0.3-0.3,0.6-0.4,0.9c-0.1,0.3-0.1,0.6-0.1,0.9
				c0,0.1,0,0.1,0,0.2v10.6c0,0.2,0,0.4,0,0.7c0,0.4,0,0.9,0,1.3c0,0.5,0.2,0.9,0.7,1.1c0.8,0.5,2.3,0.4,2.9-0.2
				c0.4-0.4,0.5-0.7,0.5-1.1l0-10c0,0,0-0.1,0-0.2c0-0.1,0-0.3,0-0.4c0,0,0,0,0,0c0,0,0,0,0.1,0c0,0,0.1,0,0.2,0c0,0,0.1,0,0.1,0
				h0.2c0,0,0.1,0,0.1,0c0.1,0,0.1,0,0.1,0.1s0,0.2,0,0.3c0,0.1,0,0.1,0,0.2l0.1,28.4c0,0.1,0,0.2,0,0.3c0,0.5,0,0.9,0.3,1.3
				c0.3,0.5,0.9,0.9,1.6,1C182,94.5,182.3,94.5,182.7,94.5z M179.6,62.8L179.6,62.8c-0.1,0-0.1,0-0.1,0h-0.2c0,0-0.1,0-0.1,0
				c-0.1,0-0.2,0-0.2,0c-0.1,0-0.1,0-0.1,0c-0.1,0-0.1,0-0.1,0s0,0,0,0c-0.1,0.1,0,0.3,0,0.4c0,0.1,0,0.1,0,0.2l0,10
				c0,0.4-0.1,0.8-0.4,1.1c-0.6,0.6-2,0.7-2.8,0.2c-0.4-0.2-0.6-0.6-0.6-1.1c0-0.4,0-0.9,0-1.3c0-0.2,0-0.4,0-0.7V61.2
				c0-0.1,0-0.1,0-0.2c0-0.3,0-0.6,0.1-0.9c0.1-0.3,0.3-0.6,0.4-0.9c0.6-1,1.5-1.7,2.8-2.1c1.2-0.4,2.3-0.4,3.6-0.4
				c0.2,0,0.5,0,0.7,0h7.8c0.2,0,0.4,0,0.7,0c0.6,0,1.2,0,1.7,0.1c1.2,0.3,2.1,0.9,3.1,1.7c0.5,0.4,0.8,0.9,1,1.4
				c0.2,0.5,0.1,1,0.1,1.5c0,0.1,0,0.2,0,0.3v10.6c0,0.1,0,0.3,0,0.5c0,0.4,0.1,0.8-0.1,1.1c-0.4,1-1.6,1.1-2.4,0.9
				c-0.6-0.1-1.3-0.6-1.4-1.1c-0.1-0.5,0-1.1,0-1.6c0-0.3,0-0.5,0-0.8v-7.7c0-0.1,0-0.2,0-0.3c0-0.2,0-0.5,0-0.6v0l0,0l-0.1-0.1h0
				c0,0,0,0-0.1,0c-0.2-0.1-0.5,0-0.7,0c-0.1,0-0.2,0-0.3,0h0l0,29.6c0,0.8-0.4,1.3-1.1,1.7c-0.4,0.2-0.9,0.3-1.6,0.3
				c-0.8,0-1.5-0.2-2-0.7c-0.6-0.5-0.6-1-0.6-1.6l0.1-16.9h-0.7c0,0-0.1,0-0.1,0c-0.1,0-0.2,0-0.2,0c-0.1,0-0.1,0-0.1,0
				c-0.1,0-0.1,0-0.1,0.1c0,0,0,0,0,0c-0.1,0.1,0,0.3,0,0.4c0,0.1,0,0.1,0,0.1l-0.1,16.5c0,0.1,0,0.1,0,0.2c0,0.2,0,0.4-0.1,0.6
				c-0.2,0.5-0.6,0.9-1.2,1.1c-0.6,0.2-1.5,0.3-2.3,0.1c-0.6-0.2-1.2-0.5-1.5-1c-0.3-0.4-0.3-0.8-0.2-1.3c0-0.1,0-0.2,0-0.3
				l-0.1-28.4c0,0,0-0.1,0-0.1C179.7,63,179.8,62.9,179.6,62.8C179.7,62.8,179.7,62.8,179.6,62.8z"/>
		</g>
		<g>
			<ellipse class="st11" cx="186" cy="105.5" rx="4.7" ry="3.8"/>
			<path class="st11" d="M186,109.4c2.6,0,4.7-1.7,4.7-3.9s-2.1-3.9-4.7-3.9c-2.6,0-4.7,1.7-4.7,3.9
				C181.2,107.6,183.3,109.4,186,109.4z M186,101.7c2.6,0,4.6,1.7,4.6,3.8s-2.1,3.8-4.6,3.8c-2.6,0-4.6-1.7-4.6-3.8
				C181.3,103.4,183.4,101.7,186,101.7z"/>
		</g>
		<g>
			<path class="st11" d="M191.9,116.7c0,4.2,0,8.4,0,12.6c0,3.7,0,7.5,0,11.2c0,1.9,0,3.8,0,5.7c0,0.7-0.4,1.4-1.2,1.7
				c-0.5,0.2-1,0.3-1.6,0.3c-0.8,0-1.5-0.2-2-0.7c-0.6-0.5-0.6-1-0.6-1.6c0-1.9,0-3.7,0-5.6c0-3.7,0-7.5,0.1-11.3
				c-0.2,0-0.5,0-0.7,0c-0.1,0-0.2,0-0.3,0c-0.2,0-0.1,0-0.2,0.1c-0.1,0.1,0,0.4,0,0.5c0,0.2,0,0.3,0,0.5c0,0.7,0,1.4,0,2
				c0,2.9,0,5.7,0,8.6c0,1.4,0,2.8,0,4.2c0,0.4,0,0.8,0,1.2c0,0.3,0,0.5-0.1,0.8c-0.2,0.5-0.7,0.9-1.2,1.1c-0.7,0.3-1.6,0.3-2.3,0.1
				c-0.6-0.2-1.2-0.5-1.5-1c-0.4-0.5-0.2-1-0.2-1.6c0-2.9,0-5.7,0-8.6c0-5.7,0-11.4-0.1-17.1c0-0.7,0-1.4,0-2.1c0-0.2,0-0.4,0-0.6
				c0-0.1,0.1-0.4,0-0.5c-0.1-0.1-0.1-0.1-0.2-0.1c-0.1,0-0.1,0-0.2,0s-0.2,0-0.3,0c-0.2,0-0.1,0-0.1,0.1c-0.1,0.1,0,0.4,0,0.6
				s0,0.3,0,0.5c0,0.3,0,0.7,0,1c0,0.7,0,1.4,0,2.2c0,1.4,0,2.8,0,4.2c0,0.7,0,1.4,0,2.1c0,0.4-0.1,0.8-0.5,1.1
				c-0.6,0.6-2.1,0.7-2.8,0.2c-0.4-0.3-0.6-0.7-0.6-1.1c0-0.7,0-1.3,0-1.9c0-2.8,0-5.6,0-8.4c0-0.7,0-1.4,0-2.2c0-0.4,0-0.7,0.1-1
				c0.1-0.3,0.3-0.6,0.4-0.9c0.6-1,1.6-1.7,2.8-2.1c1.4-0.5,2.9-0.4,4.4-0.4c1.7,0,3.4,0,5.1,0c0.9,0,1.8,0,2.7,0
				c0.7,0,1.6-0.1,2.4,0.1c1.3,0.3,2.2,1,3.1,1.7c0.5,0.4,0.8,0.9,1,1.4c0.2,0.6,0.1,1.2,0.1,1.8c0,1.4,0,2.8,0,4.2
				c0,1.4,0,2.9,0,4.3c0,0.7,0,1.4,0,2.1c0,0.5,0.1,1.1-0.1,1.6c-0.4,0.9-1.5,1.1-2.5,1c-0.7-0.1-1.3-0.6-1.4-1.2
				c-0.1-0.8,0-1.6,0-2.4c0-1.4,0-2.8,0-4.1c0-1.2,0-2.4,0-3.5c0-0.2,0.1-0.6,0-0.9c-0.1-0.1,0.1,0-0.1-0.1
				C192.6,116.7,192.2,116.7,191.9,116.7z"/>
			<path class="st11" d="M182.7,148.4c0.5,0,0.9-0.1,1.3-0.2c0.6-0.2,1.1-0.7,1.3-1.1c0.1-0.2,0.1-0.4,0.1-0.7c0-0.1,0-0.1,0-0.2
				l0.1-16.5c0,0,0-0.1,0-0.2c0-0.1,0-0.3,0-0.3c0,0,0,0,0,0c0,0,0.1,0,0.1,0c0.1,0,0.1,0,0.2,0c0,0,0.1,0,0.1,0h0.6l-0.1,16.8
				c0,0.6,0,1.1,0.6,1.7c0.5,0.4,1.2,0.7,2.1,0.7c0.7,0,1.2-0.1,1.6-0.3c0.8-0.4,1.2-1,1.2-1.8l0-29.5c0.1,0,0.1,0,0.2,0
				c0.2,0,0.5,0,0.6,0c0,0,0,0,0.1,0v0c0.1,0.1,0,0.4,0,0.6c0,0.1,0,0.2,0,0.3v7.7c0,0.3,0,0.5,0,0.8c0,0.5,0,1.1,0,1.6
				c0.1,0.6,0.8,1.1,1.5,1.2c1,0.2,2.2,0,2.6-1c0.1-0.4,0.1-0.8,0.1-1.2c0-0.2,0-0.3,0-0.5v-10.7c0-0.1,0-0.2,0-0.3
				c0-0.5,0-1-0.1-1.5c-0.2-0.6-0.5-1.1-1-1.5c-1-0.9-1.9-1.5-3.1-1.8c-0.5-0.1-1.1-0.1-1.7-0.1c-0.2,0-0.5,0-0.7,0h-7.6
				c-0.2,0-0.5,0-0.7,0c-1.2,0-2.5,0-3.7,0.4c-1.3,0.5-2.3,1.2-2.8,2.2c-0.2,0.3-0.3,0.6-0.4,0.9s-0.1,0.6-0.1,0.9
				c0,0.1,0,0.1,0,0.2v10.6c0,0.2,0,0.4,0,0.7c0,0.4,0,0.9,0,1.3c0,0.5,0.2,0.9,0.7,1.1c0.8,0.5,2.3,0.4,2.9-0.2
				c0.4-0.4,0.5-0.7,0.5-1.1l0-10c0,0,0-0.1,0-0.2c0-0.1,0-0.3,0-0.4c0,0,0,0,0,0c0,0,0,0,0.1,0c0,0,0.1,0,0.2,0c0,0,0.1,0,0.1,0
				h0.2c0,0,0.1,0,0.1,0c0.1,0,0.1,0,0.1,0.1c0,0.1,0,0.2,0,0.3c0,0.1,0,0.1,0,0.2l0.1,28.4c0,0.1,0,0.2,0,0.3c0,0.5,0,0.9,0.3,1.3
				c0.3,0.5,0.9,0.9,1.6,1C182,148.3,182.3,148.4,182.7,148.4z M179.6,116.6L179.6,116.6c-0.1,0-0.1,0-0.1,0h-0.2c0,0-0.1,0-0.1,0
				c-0.1,0-0.2,0-0.2,0c-0.1,0-0.1,0-0.1,0c-0.1,0-0.1,0-0.1,0s0,0,0,0c-0.1,0.1,0,0.3,0,0.4c0,0.1,0,0.1,0,0.2l0,10
				c0,0.4-0.1,0.8-0.4,1.1c-0.6,0.6-2,0.7-2.8,0.2c-0.4-0.2-0.6-0.6-0.6-1.1c0-0.4,0-0.9,0-1.3c0-0.2,0-0.4,0-0.7V115
				c0-0.1,0-0.1,0-0.2c0-0.3,0-0.6,0.1-0.9c0.1-0.3,0.3-0.6,0.4-0.9c0.6-1,1.5-1.7,2.8-2.1c1.2-0.4,2.3-0.4,3.6-0.4
				c0.2,0,0.5,0,0.7,0h7.8c0.2,0,0.4,0,0.7,0c0.6,0,1.2,0,1.7,0.1c1.2,0.3,2.1,0.9,3.1,1.7c0.5,0.4,0.8,0.9,1,1.4
				c0.2,0.5,0.1,1,0.1,1.5c0,0.1,0,0.2,0,0.3v10.6c0,0.1,0,0.3,0,0.5c0,0.4,0.1,0.8-0.1,1.1c-0.4,1-1.6,1.1-2.4,0.9
				c-0.6-0.1-1.3-0.6-1.4-1.1c-0.1-0.5,0-1.1,0-1.6c0-0.3,0-0.5,0-0.8v-7.7c0-0.1,0-0.2,0-0.3c0-0.2,0-0.5,0-0.6v0l0,0l-0.1-0.1h0
				c0,0,0,0-0.1,0c-0.2-0.1-0.5,0-0.7,0c-0.1,0-0.2,0-0.3,0h0l0,29.6c0,0.8-0.4,1.3-1.1,1.7c-0.4,0.2-0.9,0.3-1.6,0.3
				c-0.8,0-1.5-0.2-2-0.7c-0.6-0.5-0.6-1-0.6-1.6l0.1-16.9h-0.7c0,0-0.1,0-0.1,0c-0.1,0-0.2,0-0.2,0c-0.1,0-0.1,0-0.1,0
				c-0.1,0-0.1,0-0.1,0.1c0,0,0,0,0,0c-0.1,0.1,0,0.3,0,0.4c0,0.1,0,0.1,0,0.1l-0.1,16.5c0,0.1,0,0.1,0,0.2c0,0.2,0,0.4-0.1,0.6
				c-0.2,0.5-0.6,0.9-1.2,1.1c-0.6,0.2-1.5,0.3-2.3,0.1c-0.6-0.2-1.2-0.5-1.5-1c-0.3-0.4-0.3-0.8-0.2-1.3c0-0.1,0-0.2,0-0.3
				l-0.1-28.4c0,0,0-0.1,0-0.1C179.7,116.9,179.8,116.7,179.6,116.6C179.7,116.7,179.7,116.6,179.6,116.6z"/>
		</g>
		<g>
			<ellipse class="st11" cx="239.9" cy="105.5" rx="4.7" ry="3.8"/>
			<path class="st11" d="M239.9,109.4c2.6,0,4.7-1.7,4.7-3.9s-2.1-3.9-4.7-3.9c-2.6,0-4.7,1.7-4.7,3.9
				C235.2,107.6,237.3,109.4,239.9,109.4z M239.9,101.7c2.6,0,4.6,1.7,4.6,3.8s-2.1,3.8-4.6,3.8s-4.6-1.7-4.6-3.8
				C235.3,103.4,237.4,101.7,239.9,101.7z"/>
		</g>
		<g>
			<path class="st11" d="M245.9,116.4c0,4.2,0,8.4,0,12.6c0,3.7,0,7.5,0,11.2c0,1.9,0,3.8,0,5.7c0,0.7-0.4,1.4-1.2,1.7
				c-0.5,0.2-1,0.3-1.6,0.3c-0.8,0-1.5-0.2-2-0.7c-0.6-0.5-0.6-1-0.6-1.6c0-1.9,0-3.7,0-5.6c0-3.7,0-7.5,0.1-11.3
				c-0.2,0-0.5,0-0.7,0c-0.1,0-0.2,0-0.3,0c-0.2,0-0.1,0-0.2,0.1c-0.1,0.1,0,0.4,0,0.5c0,0.2,0,0.3,0,0.5c0,0.7,0,1.4,0,2
				c0,2.9,0,5.7,0,8.6c0,1.4,0,2.8,0,4.2c0,0.4,0,0.8,0,1.2c0,0.3,0,0.5-0.1,0.8c-0.2,0.5-0.7,0.9-1.2,1.1c-0.7,0.3-1.6,0.3-2.3,0.1
				c-0.6-0.2-1.2-0.5-1.5-1c-0.4-0.5-0.2-1-0.2-1.6c0-2.9,0-5.7,0-8.6c0-5.7,0-11.4-0.1-17.1c0-0.7,0-1.4,0-2.1c0-0.2,0-0.4,0-0.6
				c0-0.1,0.1-0.4,0-0.5c-0.1-0.1-0.1-0.1-0.2-0.1c-0.1,0-0.1,0-0.2,0c-0.1,0-0.2,0-0.3,0c-0.2,0-0.1,0-0.1,0.1
				c-0.1,0.1,0,0.4,0,0.6s0,0.3,0,0.5c0,0.3,0,0.7,0,1c0,0.7,0,1.4,0,2.2c0,1.4,0,2.8,0,4.2c0,0.7,0,1.4,0,2.1
				c0,0.4-0.1,0.8-0.5,1.1c-0.6,0.6-2.1,0.7-2.8,0.2c-0.4-0.3-0.6-0.7-0.6-1.1c0-0.7,0-1.3,0-1.9c0-2.8,0-5.6,0-8.4
				c0-0.7,0-1.4,0-2.2c0-0.4,0-0.7,0.1-1c0.1-0.3,0.3-0.6,0.4-0.9c0.6-1,1.6-1.7,2.8-2.1c1.4-0.5,2.9-0.4,4.4-0.4c1.7,0,3.4,0,5.1,0
				c0.9,0,1.8,0,2.7,0c0.7,0,1.6-0.1,2.4,0.1c1.3,0.3,2.2,1,3.1,1.7c0.5,0.4,0.8,0.9,1,1.4c0.2,0.6,0.1,1.2,0.1,1.8
				c0,1.4,0,2.8,0,4.2c0,1.4,0,2.9,0,4.3c0,0.7,0,1.4,0,2.1c0,0.5,0.1,1.1-0.1,1.6c-0.4,0.9-1.5,1.1-2.5,1c-0.7-0.1-1.3-0.6-1.4-1.2
				c-0.1-0.8,0-1.6,0-2.4c0-1.4,0-2.8,0-4.1c0-1.2,0-2.4,0-3.5c0-0.2,0.1-0.6,0-0.9c-0.1-0.1,0.1,0-0.1-0.1
				C246.6,116.3,246.1,116.4,245.9,116.4z"/>
			<path class="st11" d="M236.6,148c0.5,0,0.9-0.1,1.3-0.2c0.6-0.2,1.1-0.7,1.3-1.1c0.1-0.2,0.1-0.4,0.1-0.7c0-0.1,0-0.1,0-0.2
				l0.1-16.5c0,0,0-0.1,0-0.2c0-0.1,0-0.3,0-0.3c0,0,0,0,0,0c0,0,0.1,0,0.1,0c0.1,0,0.1,0,0.2,0c0,0,0.1,0,0.1,0h0.6l-0.1,16.8
				c0,0.6,0,1.1,0.6,1.7c0.5,0.4,1.2,0.7,2.1,0.7c0.7,0,1.2-0.1,1.6-0.3c0.8-0.4,1.2-1,1.2-1.8l0-29.5c0.1,0,0.1,0,0.2,0
				c0.2,0,0.5,0,0.6,0c0,0,0,0,0.1,0v0c0.1,0.1,0,0.4,0,0.6c0,0.1,0,0.2,0,0.3v7.7c0,0.3,0,0.5,0,0.8c0,0.5,0,1.1,0,1.6
				c0.1,0.6,0.8,1.1,1.5,1.2c1,0.2,2.2,0,2.6-1c0.1-0.4,0.1-0.8,0.1-1.2c0-0.2,0-0.3,0-0.5v-10.7c0-0.1,0-0.2,0-0.3
				c0-0.5,0-1-0.1-1.5c-0.2-0.6-0.5-1.1-1-1.5c-1-0.9-1.9-1.5-3.1-1.8c-0.5-0.1-1.1-0.1-1.7-0.1c-0.2,0-0.5,0-0.7,0h-7.6
				c-0.2,0-0.5,0-0.7,0c-1.2,0-2.5,0-3.7,0.4c-1.3,0.5-2.3,1.2-2.8,2.2c-0.2,0.3-0.3,0.6-0.4,0.9s-0.1,0.6-0.1,0.9
				c0,0.1,0,0.1,0,0.2v10.6c0,0.2,0,0.4,0,0.7c0,0.4,0,0.9,0,1.3c0,0.5,0.2,0.9,0.7,1.1c0.8,0.5,2.3,0.4,2.9-0.2
				c0.4-0.4,0.5-0.7,0.5-1.1l0-10c0,0,0-0.1,0-0.2c0-0.1,0-0.3,0-0.4c0,0,0,0,0,0c0,0,0,0,0.1,0c0,0,0.1,0,0.2,0c0,0,0.1,0,0.1,0
				h0.2c0,0,0.1,0,0.1,0c0.1,0,0.1,0,0.1,0.1c0,0.1,0,0.2,0,0.3c0,0.1,0,0.1,0,0.2l0.1,28.4c0,0.1,0,0.2,0,0.3c0,0.5,0,0.9,0.3,1.3
				c0.3,0.5,0.9,0.9,1.6,1C235.9,148,236.3,148,236.6,148z M233.6,116.3L233.6,116.3c-0.1,0-0.1,0-0.1,0h-0.2c0,0-0.1,0-0.1,0
				c-0.1,0-0.2,0-0.2,0s-0.1,0-0.1,0c-0.1,0-0.1,0-0.1,0s0,0,0,0c-0.1,0.1,0,0.3,0,0.4c0,0.1,0,0.1,0,0.2l0,10
				c0,0.4-0.1,0.8-0.4,1.1c-0.6,0.6-2,0.7-2.8,0.2c-0.4-0.2-0.6-0.6-0.6-1.1c0-0.4,0-0.9,0-1.3c0-0.2,0-0.4,0-0.7v-10.6
				c0-0.1,0-0.1,0-0.2c0-0.3,0-0.6,0.1-0.9c0.1-0.3,0.3-0.6,0.4-0.9c0.6-1,1.5-1.7,2.8-2.1c1.2-0.4,2.3-0.4,3.6-0.4
				c0.2,0,0.5,0,0.7,0h7.8c0.2,0,0.4,0,0.7,0c0.6,0,1.2,0,1.7,0.1c1.2,0.3,2.1,0.9,3.1,1.7c0.5,0.4,0.8,0.9,1,1.4
				c0.2,0.5,0.1,1,0.1,1.5c0,0.1,0,0.2,0,0.3v10.6c0,0.1,0,0.3,0,0.5c0,0.4,0.1,0.8-0.1,1.1c-0.4,1-1.6,1.1-2.4,0.9
				c-0.6-0.1-1.3-0.6-1.4-1.1c-0.1-0.5,0-1.1,0-1.6c0-0.3,0-0.5,0-0.8v-7.7c0-0.1,0-0.2,0-0.3c0-0.2,0-0.5,0-0.6v0l0,0l-0.1-0.1h0
				c0,0,0,0-0.1,0c-0.2-0.1-0.5,0-0.7,0c-0.1,0-0.2,0-0.3,0h0l0,29.6c0,0.8-0.4,1.3-1.1,1.7c-0.4,0.2-0.9,0.3-1.6,0.3
				c-0.8,0-1.5-0.2-2-0.7c-0.6-0.5-0.6-1-0.6-1.6l0.1-16.9h-0.7c0,0-0.1,0-0.1,0c-0.1,0-0.2,0-0.2,0s-0.1,0-0.1,0
				c-0.1,0-0.1,0-0.1,0.1c0,0,0,0,0,0c-0.1,0.1,0,0.3,0,0.4c0,0.1,0,0.1,0,0.1l-0.1,16.5c0,0.1,0,0.1,0,0.2c0,0.2,0,0.4-0.1,0.6
				c-0.2,0.5-0.6,0.9-1.2,1.1c-0.6,0.2-1.5,0.3-2.3,0.1c-0.6-0.2-1.2-0.5-1.5-1c-0.3-0.4-0.3-0.8-0.2-1.3c0-0.1,0-0.2,0-0.3
				l-0.1-28.4c0,0,0-0.1,0-0.1C233.7,116.5,233.7,116.4,233.6,116.3C233.7,116.3,233.7,116.3,233.6,116.3z"/>
		</g>
		<g>
			<ellipse class="st11" cx="186" cy="105.5" rx="4.7" ry="3.8"/>
			<path class="st11" d="M186,109.4c2.6,0,4.7-1.7,4.7-3.9s-2.1-3.9-4.7-3.9c-2.6,0-4.7,1.7-4.7,3.9
				C181.2,107.6,183.3,109.4,186,109.4z M186,101.7c2.6,0,4.6,1.7,4.6,3.8s-2.1,3.8-4.6,3.8c-2.6,0-4.6-1.7-4.6-3.8
				C181.3,103.4,183.4,101.7,186,101.7z"/>
		</g>
		<g>
			<path class="st11" d="M191.9,116.4c0,4.2,0,8.4,0,12.6c0,3.7,0,7.5,0,11.2c0,1.9,0,3.8,0,5.7c0,0.7-0.4,1.4-1.2,1.7
				c-0.5,0.2-1,0.3-1.6,0.3c-0.8,0-1.5-0.2-2-0.7c-0.6-0.5-0.6-1-0.6-1.6c0-1.9,0-3.7,0-5.6c0-3.7,0-7.5,0.1-11.3
				c-0.2,0-0.5,0-0.7,0c-0.1,0-0.2,0-0.3,0c-0.2,0-0.1,0-0.2,0.1c-0.1,0.1,0,0.4,0,0.5c0,0.2,0,0.3,0,0.5c0,0.7,0,1.4,0,2
				c0,2.9,0,5.7,0,8.6c0,1.4,0,2.8,0,4.2c0,0.4,0,0.8,0,1.2c0,0.3,0,0.5-0.1,0.8c-0.2,0.5-0.7,0.9-1.2,1.1c-0.7,0.3-1.6,0.3-2.3,0.1
				c-0.6-0.2-1.2-0.5-1.5-1c-0.4-0.5-0.2-1-0.2-1.6c0-2.9,0-5.7,0-8.6c0-5.7,0-11.4-0.1-17.1c0-0.7,0-1.4,0-2.1c0-0.2,0-0.4,0-0.6
				c0-0.1,0.1-0.4,0-0.5c-0.1-0.1-0.1-0.1-0.2-0.1c-0.1,0-0.1,0-0.2,0s-0.2,0-0.3,0c-0.2,0-0.1,0-0.1,0.1c-0.1,0.1,0,0.4,0,0.6
				s0,0.3,0,0.5c0,0.3,0,0.7,0,1c0,0.7,0,1.4,0,2.2c0,1.4,0,2.8,0,4.2c0,0.7,0,1.4,0,2.1c0,0.4-0.1,0.8-0.5,1.1
				c-0.6,0.6-2.1,0.7-2.8,0.2c-0.4-0.3-0.6-0.7-0.6-1.1c0-0.7,0-1.3,0-1.9c0-2.8,0-5.6,0-8.4c0-0.7,0-1.4,0-2.2c0-0.4,0-0.7,0.1-1
				c0.1-0.3,0.3-0.6,0.4-0.9c0.6-1,1.6-1.7,2.8-2.1c1.4-0.5,2.9-0.4,4.4-0.4c1.7,0,3.4,0,5.1,0c0.9,0,1.8,0,2.7,0
				c0.7,0,1.6-0.1,2.4,0.1c1.3,0.3,2.2,1,3.1,1.7c0.5,0.4,0.8,0.9,1,1.4c0.2,0.6,0.1,1.2,0.1,1.8c0,1.4,0,2.8,0,4.2
				c0,1.4,0,2.9,0,4.3c0,0.7,0,1.4,0,2.1c0,0.5,0.1,1.1-0.1,1.6c-0.4,0.9-1.5,1.1-2.5,1c-0.7-0.1-1.3-0.6-1.4-1.2
				c-0.1-0.8,0-1.6,0-2.4c0-1.4,0-2.8,0-4.1c0-1.2,0-2.4,0-3.5c0-0.2,0.1-0.6,0-0.9c-0.1-0.1,0.1,0-0.1-0.1
				C192.6,116.3,192.2,116.4,191.9,116.4z"/>
			<path class="st11" d="M182.7,148c0.5,0,0.9-0.1,1.3-0.2c0.6-0.2,1.1-0.7,1.3-1.1c0.1-0.2,0.1-0.4,0.1-0.7c0-0.1,0-0.1,0-0.2
				l0.1-16.5c0,0,0-0.1,0-0.2c0-0.1,0-0.3,0-0.3c0,0,0,0,0,0c0,0,0.1,0,0.1,0c0.1,0,0.1,0,0.2,0c0,0,0.1,0,0.1,0h0.6l-0.1,16.8
				c0,0.6,0,1.1,0.6,1.7c0.5,0.4,1.2,0.7,2.1,0.7c0.7,0,1.2-0.1,1.6-0.3c0.8-0.4,1.2-1,1.2-1.8l0-29.5c0.1,0,0.1,0,0.2,0
				c0.2,0,0.5,0,0.6,0c0,0,0,0,0.1,0v0c0.1,0.1,0,0.4,0,0.6c0,0.1,0,0.2,0,0.3v7.7c0,0.3,0,0.5,0,0.8c0,0.5,0,1.1,0,1.6
				c0.1,0.6,0.8,1.1,1.5,1.2c1,0.2,2.2,0,2.6-1c0.1-0.4,0.1-0.8,0.1-1.2c0-0.2,0-0.3,0-0.5v-10.7c0-0.1,0-0.2,0-0.3
				c0-0.5,0-1-0.1-1.5c-0.2-0.6-0.5-1.1-1-1.5c-1-0.9-1.9-1.5-3.1-1.8c-0.5-0.1-1.1-0.1-1.7-0.1c-0.2,0-0.5,0-0.7,0h-7.6
				c-0.2,0-0.5,0-0.7,0c-1.2,0-2.5,0-3.7,0.4c-1.3,0.5-2.3,1.2-2.8,2.2c-0.2,0.3-0.3,0.6-0.4,0.9s-0.1,0.6-0.1,0.9
				c0,0.1,0,0.1,0,0.2v10.6c0,0.2,0,0.4,0,0.7c0,0.4,0,0.9,0,1.3c0,0.5,0.2,0.9,0.7,1.1c0.8,0.5,2.3,0.4,2.9-0.2
				c0.4-0.4,0.5-0.7,0.5-1.1l0-10c0,0,0-0.1,0-0.2c0-0.1,0-0.3,0-0.4c0,0,0,0,0,0c0,0,0,0,0.1,0c0,0,0.1,0,0.2,0c0,0,0.1,0,0.1,0
				h0.2c0,0,0.1,0,0.1,0c0.1,0,0.1,0,0.1,0.1s0,0.2,0,0.3c0,0.1,0,0.1,0,0.2l0.1,28.4c0,0.1,0,0.2,0,0.3c0,0.5,0,0.9,0.3,1.3
				c0.3,0.5,0.9,0.9,1.6,1C182,148,182.3,148,182.7,148z M179.6,116.3L179.6,116.3c-0.1,0-0.1,0-0.1,0h-0.2c0,0-0.1,0-0.1,0
				c-0.1,0-0.2,0-0.2,0c-0.1,0-0.1,0-0.1,0c-0.1,0-0.1,0-0.1,0s0,0,0,0c-0.1,0.1,0,0.3,0,0.4c0,0.1,0,0.1,0,0.2l0,10
				c0,0.4-0.1,0.8-0.4,1.1c-0.6,0.6-2,0.7-2.8,0.2c-0.4-0.2-0.6-0.6-0.6-1.1c0-0.4,0-0.9,0-1.3c0-0.2,0-0.4,0-0.7v-10.6
				c0-0.1,0-0.1,0-0.2c0-0.3,0-0.6,0.1-0.9c0.1-0.3,0.3-0.6,0.4-0.9c0.6-1,1.5-1.7,2.8-2.1c1.2-0.4,2.3-0.4,3.6-0.4
				c0.2,0,0.5,0,0.7,0h7.8c0.2,0,0.4,0,0.7,0c0.6,0,1.2,0,1.7,0.1c1.2,0.3,2.1,0.9,3.1,1.7c0.5,0.4,0.8,0.9,1,1.4
				c0.2,0.5,0.1,1,0.1,1.5c0,0.1,0,0.2,0,0.3v10.6c0,0.1,0,0.3,0,0.5c0,0.4,0.1,0.8-0.1,1.1c-0.4,1-1.6,1.1-2.4,0.9
				c-0.6-0.1-1.3-0.6-1.4-1.1c-0.1-0.5,0-1.1,0-1.6c0-0.3,0-0.5,0-0.8v-7.7c0-0.1,0-0.2,0-0.3c0-0.2,0-0.5,0-0.6v0l0,0l-0.1-0.1h0
				c0,0,0,0-0.1,0c-0.2-0.1-0.5,0-0.7,0c-0.1,0-0.2,0-0.3,0h0l0,29.6c0,0.8-0.4,1.3-1.1,1.7c-0.4,0.2-0.9,0.3-1.6,0.3
				c-0.8,0-1.5-0.2-2-0.7c-0.6-0.5-0.6-1-0.6-1.6l0.1-16.9h-0.7c0,0-0.1,0-0.1,0c-0.1,0-0.2,0-0.2,0c-0.1,0-0.1,0-0.1,0
				c-0.1,0-0.1,0-0.1,0.1c0,0,0,0,0,0c-0.1,0.1,0,0.3,0,0.4c0,0.1,0,0.1,0,0.1l-0.1,16.5c0,0.1,0,0.1,0,0.2c0,0.2,0,0.4-0.1,0.6
				c-0.2,0.5-0.6,0.9-1.2,1.1c-0.6,0.2-1.5,0.3-2.3,0.1c-0.6-0.2-1.2-0.5-1.5-1c-0.3-0.4-0.3-0.8-0.2-1.3c0-0.1,0-0.2,0-0.3
				l-0.1-28.4c0,0,0-0.1,0-0.1C179.7,116.5,179.8,116.4,179.6,116.3C179.7,116.3,179.7,116.3,179.6,116.3z"/>
		</g>
		<g>
			<ellipse class="st11" cx="186" cy="52" rx="4.7" ry="3.8"/>
			<path class="st11" d="M186,55.9c2.6,0,4.7-1.7,4.7-3.9c0-2.1-2.1-3.9-4.7-3.9c-2.6,0-4.7,1.7-4.7,3.9
				C181.2,54.1,183.3,55.9,186,55.9z M186,48.2c2.6,0,4.6,1.7,4.6,3.8c0,2.1-2.1,3.8-4.6,3.8c-2.6,0-4.6-1.7-4.6-3.8
				C181.3,49.9,183.4,48.2,186,48.2z"/>
		</g>
		<g>
			<path class="st11" d="M191.9,62.9c0,4.2,0,8.4,0,12.6c0,3.7,0,7.5,0,11.2c0,1.9,0,3.8,0,5.7c0,0.7-0.4,1.4-1.2,1.7
				c-0.5,0.2-1,0.3-1.6,0.3c-0.8,0-1.5-0.2-2-0.7c-0.6-0.5-0.6-1-0.6-1.6c0-1.9,0-3.7,0-5.6c0-3.7,0-7.5,0.1-11.3
				c-0.2,0-0.5,0-0.7,0c-0.1,0-0.2,0-0.3,0c-0.2,0-0.1,0-0.2,0.1c-0.1,0.1,0,0.4,0,0.5c0,0.2,0,0.3,0,0.5c0,0.7,0,1.4,0,2
				c0,2.9,0,5.7,0,8.6c0,1.4,0,2.8,0,4.2c0,0.4,0,0.8,0,1.2c0,0.3,0,0.5-0.1,0.8c-0.2,0.5-0.7,0.9-1.2,1.1c-0.7,0.3-1.6,0.3-2.3,0.1
				c-0.6-0.2-1.2-0.5-1.5-1c-0.4-0.5-0.2-1-0.2-1.6c0-2.9,0-5.7,0-8.6c0-5.7,0-11.4-0.1-17.1c0-0.7,0-1.4,0-2.1c0-0.2,0-0.4,0-0.6
				c0-0.1,0.1-0.4,0-0.5c-0.1-0.1-0.1-0.1-0.2-0.1c-0.1,0-0.1,0-0.2,0s-0.2,0-0.3,0c-0.2,0-0.1,0-0.1,0.1c-0.1,0.1,0,0.4,0,0.6
				s0,0.3,0,0.5c0,0.3,0,0.7,0,1c0,0.7,0,1.4,0,2.2c0,1.4,0,2.8,0,4.2c0,0.7,0,1.4,0,2.1c0,0.4-0.1,0.8-0.5,1.1
				c-0.6,0.6-2.1,0.7-2.8,0.2c-0.4-0.3-0.6-0.7-0.6-1.1c0-0.7,0-1.3,0-1.9c0-2.8,0-5.6,0-8.4c0-0.7,0-1.4,0-2.2c0-0.4,0-0.7,0.1-1
				c0.1-0.3,0.3-0.6,0.4-0.9c0.6-1,1.6-1.7,2.8-2.1c1.4-0.5,2.9-0.4,4.4-0.4c1.7,0,3.4,0,5.1,0c0.9,0,1.8,0,2.7,0
				c0.7,0,1.6-0.1,2.4,0.1c1.3,0.3,2.2,1,3.1,1.7c0.5,0.4,0.8,0.9,1,1.4c0.2,0.6,0.1,1.2,0.1,1.8c0,1.4,0,2.8,0,4.2
				c0,1.4,0,2.9,0,4.3c0,0.7,0,1.4,0,2.1c0,0.5,0.1,1.1-0.1,1.6c-0.4,0.9-1.5,1.1-2.5,1c-0.7-0.1-1.3-0.6-1.4-1.2
				c-0.1-0.8,0-1.6,0-2.4c0-1.4,0-2.8,0-4.1c0-1.2,0-2.4,0-3.5c0-0.2,0.1-0.6,0-0.9c-0.1-0.1,0.1,0-0.1-0.1
				C192.6,62.8,192.2,62.9,191.9,62.9z"/>
			<path class="st11" d="M182.7,94.5c0.5,0,0.9-0.1,1.3-0.2c0.6-0.2,1.1-0.7,1.3-1.1c0.1-0.2,0.1-0.4,0.1-0.7c0-0.1,0-0.1,0-0.2
				l0.1-16.5c0,0,0-0.1,0-0.2c0-0.1,0-0.3,0-0.3c0,0,0,0,0,0c0,0,0.1,0,0.1,0c0.1,0,0.1,0,0.2,0c0,0,0.1,0,0.1,0h0.6l-0.1,16.8
				c0,0.6,0,1.1,0.6,1.7c0.5,0.4,1.2,0.7,2.1,0.7c0.7,0,1.2-0.1,1.6-0.3c0.8-0.4,1.2-1,1.2-1.8l0-29.5c0.1,0,0.1,0,0.2,0
				c0.2,0,0.5,0,0.6,0c0,0,0,0,0.1,0v0c0.1,0.1,0,0.4,0,0.6c0,0.1,0,0.2,0,0.3v7.7c0,0.3,0,0.5,0,0.8c0,0.5,0,1.1,0,1.6
				c0.1,0.6,0.8,1.1,1.5,1.2c1,0.2,2.2,0,2.6-1c0.1-0.4,0.1-0.8,0.1-1.2c0-0.2,0-0.3,0-0.5V61.9c0-0.1,0-0.2,0-0.3
				c0-0.5,0-1-0.1-1.5c-0.2-0.6-0.5-1.1-1-1.5c-1-0.9-1.9-1.5-3.1-1.8c-0.5-0.1-1.1-0.1-1.7-0.1c-0.2,0-0.5,0-0.7,0h-7.6
				c-0.2,0-0.5,0-0.7,0c-1.2,0-2.5,0-3.7,0.4c-1.3,0.5-2.3,1.2-2.8,2.2c-0.2,0.3-0.3,0.6-0.4,0.9c-0.1,0.3-0.1,0.6-0.1,0.9
				c0,0.1,0,0.1,0,0.2v10.6c0,0.2,0,0.4,0,0.7c0,0.4,0,0.9,0,1.3c0,0.5,0.2,0.9,0.7,1.1c0.8,0.5,2.3,0.4,2.9-0.2
				c0.4-0.4,0.5-0.7,0.5-1.1l0-10c0,0,0-0.1,0-0.2c0-0.1,0-0.3,0-0.4c0,0,0,0,0,0c0,0,0,0,0.1,0c0,0,0.1,0,0.2,0c0,0,0.1,0,0.1,0
				h0.2c0,0,0.1,0,0.1,0c0.1,0,0.1,0,0.1,0.1s0,0.2,0,0.3c0,0.1,0,0.1,0,0.2l0.1,28.4c0,0.1,0,0.2,0,0.3c0,0.5,0,0.9,0.3,1.3
				c0.3,0.5,0.9,0.9,1.6,1C182,94.5,182.3,94.5,182.7,94.5z M179.6,62.8L179.6,62.8c-0.1,0-0.1,0-0.1,0h-0.2c0,0-0.1,0-0.1,0
				c-0.1,0-0.2,0-0.2,0c-0.1,0-0.1,0-0.1,0c-0.1,0-0.1,0-0.1,0s0,0,0,0c-0.1,0.1,0,0.3,0,0.4c0,0.1,0,0.1,0,0.2l0,10
				c0,0.4-0.1,0.8-0.4,1.1c-0.6,0.6-2,0.7-2.8,0.2c-0.4-0.2-0.6-0.6-0.6-1.1c0-0.4,0-0.9,0-1.3c0-0.2,0-0.4,0-0.7V61.2
				c0-0.1,0-0.1,0-0.2c0-0.3,0-0.6,0.1-0.9c0.1-0.3,0.3-0.6,0.4-0.9c0.6-1,1.5-1.7,2.8-2.1c1.2-0.4,2.3-0.4,3.6-0.4
				c0.2,0,0.5,0,0.7,0h7.8c0.2,0,0.4,0,0.7,0c0.6,0,1.2,0,1.7,0.1c1.2,0.3,2.1,0.9,3.1,1.7c0.5,0.4,0.8,0.9,1,1.4
				c0.2,0.5,0.1,1,0.1,1.5c0,0.1,0,0.2,0,0.3v10.6c0,0.1,0,0.3,0,0.5c0,0.4,0.1,0.8-0.1,1.1c-0.4,1-1.6,1.1-2.4,0.9
				c-0.6-0.1-1.3-0.6-1.4-1.1c-0.1-0.5,0-1.1,0-1.6c0-0.3,0-0.5,0-0.8v-7.7c0-0.1,0-0.2,0-0.3c0-0.2,0-0.5,0-0.6v0l0,0l-0.1-0.1h0
				c0,0,0,0-0.1,0c-0.2-0.1-0.5,0-0.7,0c-0.1,0-0.2,0-0.3,0h0l0,29.6c0,0.8-0.4,1.3-1.1,1.7c-0.4,0.2-0.9,0.3-1.6,0.3
				c-0.8,0-1.5-0.2-2-0.7c-0.6-0.5-0.6-1-0.6-1.6l0.1-16.9h-0.7c0,0-0.1,0-0.1,0c-0.1,0-0.2,0-0.2,0c-0.1,0-0.1,0-0.1,0
				c-0.1,0-0.1,0-0.1,0.1c0,0,0,0,0,0c-0.1,0.1,0,0.3,0,0.4c0,0.1,0,0.1,0,0.1l-0.1,16.5c0,0.1,0,0.1,0,0.2c0,0.2,0,0.4-0.1,0.6
				c-0.2,0.5-0.6,0.9-1.2,1.1c-0.6,0.2-1.5,0.3-2.3,0.1c-0.6-0.2-1.2-0.5-1.5-1c-0.3-0.4-0.3-0.8-0.2-1.3c0-0.1,0-0.2,0-0.3
				l-0.1-28.4c0,0,0-0.1,0-0.1C179.7,63,179.8,62.9,179.6,62.8C179.7,62.8,179.7,62.8,179.6,62.8z"/>
		</g>
	</g>
	<g id="woman_11_">
		<path class="st10" d="M260.4,51.9c0-1.6,1.2-3.1,3-3.6c1.7-0.5,3.7,0,4.9,1.2c1.2,1.2,1.3,3,0.4,4.4c-1,1.4-2.8,2.1-4.6,1.8
			C262,55.4,260.4,53.8,260.4,51.9z"/>
		<path class="st10" d="M269.3,62c2,5.9,4,11.7,6,17.6c-1.6,0-3.1,0-4.7,0c-0.2,0-0.3,0-0.5,0c-0.1,0-0.2,0-0.3,0
			c-0.2,0-0.1,0-0.2,0.1c-0.1,0.1,0,0.4,0,0.5c0,0.2,0,0.4,0,0.6c0,0.7,0,1.3,0,2c0,2.7,0,5.4,0,8.1c0,0.7,0,1.4,0,2.1
			c0,0.5-0.2,0.9-0.6,1.2c-0.6,0.5-1.7,0.7-2.5,0.4c-1.3-0.5-1.1-1.7-1.1-2.8c0-1.4,0-2.7,0-4.1c0-1.5,0-3,0-4.5c0-0.8,0-1.5,0-2.3
			c0-0.4,0-0.8,0-1.2c0-0.3,0-0.1-0.1-0.1c-0.1,0-0.2,0-0.3,0c-0.2,0-0.5,0-0.7,0c0,2.9,0,5.8,0.1,8.7c0,1.4,0,2.9,0,4.3
			c0,0.9-0.4,1.8-1.6,2c-0.9,0.1-2-0.1-2.4-0.8c-0.2-0.4-0.3-0.9-0.3-1.3c-0.1-1.5-0.1-3-0.1-4.4c0-2.8,0.1-5.6,0.2-8.4
			c-1.9,0-3.8,0-5.8,0c2-5.9,4-11.7,6-17.6c-0.2,0-0.5,0-0.7,0c-0.3,0-0.3,0-0.4,0.2c-0.1,0.4-0.2,0.7-0.4,1.1
			c-0.2,0.7-0.4,1.3-0.6,1.9c-0.4,1.1-0.7,2.3-1.1,3.4c-0.5,1.3-0.9,2.7-1.5,4c-0.4,0.7-1.1,1.1-2,0.9c-0.5-0.1-0.9-0.4-1.2-0.7
			c-0.4-0.6-0.1-1.1,0.1-1.7c1-2.9,2-5.7,2.9-8.5c0.2-0.7,0.5-1.4,0.7-2.1c0.2-0.5,0.4-1,0.7-1.4c0.7-1,1.8-1.7,3.1-2.1
			c0.4-0.1,0.7-0.1,1.1-0.1c0.4,0,0.9,0,1.3,0c0.9,0,1.7,0,2.6,0s1.7,0,2.6,0c0.6,0,1.2,0,1.8,0.1c1.3,0.3,2.4,1.1,3.2,2.1
			c0.4,0.5,0.5,1.1,0.7,1.6c0.2,0.7,0.5,1.4,0.7,2.1c1,2.9,2,5.7,2.9,8.6c0.1,0.5,0.3,0.9,0.1,1.3c-0.2,0.5-0.6,0.7-1.2,0.9
			c-0.6,0.2-1.2,0.1-1.7-0.3c-0.5-0.3-0.6-0.9-0.7-1.4c-1-2.9-2-5.7-2.9-8.6c-0.1-0.3-0.2-0.7-0.3-1c0,0-0.1-0.3-0.1-0.3
			c0,0-0.3,0-0.3,0C269.8,62,269.6,62,269.3,62z"/>
	</g>
	<g id="woman_10_">
		<path class="st10" d="M206.5,105.1c0-1.6,1.2-3.1,3-3.6c1.7-0.5,3.7,0,4.9,1.2c1.2,1.2,1.3,3,0.4,4.4c-1,1.4-2.8,2.1-4.6,1.8
			C208,108.5,206.5,106.9,206.5,105.1z"/>
		<path class="st10" d="M215.4,115.1c2,5.9,4,11.7,6,17.6c-1.6,0-3.1,0-4.7,0c-0.2,0-0.3,0-0.5,0c-0.1,0-0.2,0-0.3,0
			c-0.2,0-0.1,0-0.2,0.1c-0.1,0.1,0,0.4,0,0.5c0,0.2,0,0.4,0,0.6c0,0.7,0,1.3,0,2c0,2.7,0,5.4,0,8.1c0,0.7,0,1.4,0,2.1
			c0,0.5-0.2,0.9-0.6,1.2c-0.6,0.5-1.7,0.7-2.5,0.4c-1.3-0.5-1.1-1.7-1.1-2.8c0-1.4,0-2.7,0-4.1c0-1.5,0-3,0-4.5c0-0.8,0-1.5,0-2.3
			c0-0.4,0-0.8,0-1.2c0-0.3,0-0.1-0.1-0.1c-0.1,0-0.2,0-0.3,0c-0.2,0-0.5,0-0.7,0c0,2.9,0,5.8,0.1,8.7c0,1.4,0,2.9,0,4.3
			c0,0.9-0.4,1.8-1.6,2c-0.9,0.1-2-0.1-2.4-0.8c-0.2-0.4-0.3-0.9-0.3-1.3c-0.1-1.5-0.1-3-0.1-4.4c0-2.8,0.1-5.6,0.2-8.4
			c-1.9,0-3.8,0-5.8,0c2-5.9,4-11.7,6-17.6c-0.2,0-0.5,0-0.7,0c-0.3,0-0.3,0-0.4,0.2c-0.1,0.4-0.2,0.7-0.4,1.1
			c-0.2,0.7-0.4,1.3-0.6,1.9c-0.4,1.1-0.7,2.3-1.1,3.4c-0.5,1.3-0.9,2.7-1.5,4c-0.4,0.7-1.1,1.1-2,0.9c-0.5-0.1-0.9-0.4-1.2-0.7
			c-0.4-0.6-0.1-1.1,0.1-1.7c1-2.9,2-5.7,2.9-8.5c0.2-0.7,0.5-1.4,0.7-2.1c0.2-0.5,0.4-1,0.7-1.4c0.7-1,1.8-1.7,3.1-2.1
			c0.4-0.1,0.7-0.1,1.1-0.1c0.4,0,0.9,0,1.3,0c0.9,0,1.7,0,2.6,0c0.9,0,1.7,0,2.6,0c0.6,0,1.2,0,1.8,0.1c1.3,0.3,2.4,1.1,3.2,2.1
			c0.4,0.5,0.5,1.1,0.7,1.6c0.2,0.7,0.5,1.4,0.7,2.1c1,2.9,2,5.7,2.9,8.6c0.1,0.5,0.3,0.9,0.1,1.3s-0.6,0.7-1.2,0.9
			c-0.6,0.2-1.2,0.1-1.7-0.3c-0.5-0.3-0.6-0.9-0.7-1.4c-1-2.9-2-5.7-2.9-8.6c-0.1-0.3-0.2-0.7-0.3-1c0,0-0.1-0.3-0.1-0.3
			s-0.3,0-0.3,0C215.8,115.1,215.6,115.1,215.4,115.1z"/>
	</g>
	<g id="woman_9_">
		<path class="st10" d="M152.5,105.1c0-1.6,1.2-3.1,3-3.6c1.7-0.5,3.7,0,4.9,1.2c1.2,1.2,1.3,3,0.4,4.4c-1,1.4-2.8,2.1-4.6,1.8
			C154,108.5,152.5,106.9,152.5,105.1z"/>
		<path class="st10" d="M161.4,115.1c2,5.9,4,11.7,6,17.6c-1.6,0-3.1,0-4.7,0c-0.2,0-0.3,0-0.5,0c-0.1,0-0.2,0-0.3,0
			c-0.2,0-0.1,0-0.2,0.1c-0.1,0.1,0,0.4,0,0.5c0,0.2,0,0.4,0,0.6c0,0.7,0,1.3,0,2c0,2.7,0,5.4,0,8.1c0,0.7,0,1.4,0,2.1
			c0,0.5-0.2,0.9-0.6,1.2c-0.6,0.5-1.7,0.7-2.5,0.4c-1.3-0.5-1.1-1.7-1.1-2.8c0-1.4,0-2.7,0-4.1c0-1.5,0-3,0-4.5c0-0.8,0-1.5,0-2.3
			c0-0.4,0-0.8,0-1.2c0-0.3,0-0.1-0.1-0.1c-0.1,0-0.2,0-0.3,0c-0.2,0-0.5,0-0.7,0c0,2.9,0,5.8,0.1,8.7c0,1.4,0,2.9,0,4.3
			c0,0.9-0.4,1.8-1.6,2c-0.9,0.1-2-0.1-2.4-0.8c-0.2-0.4-0.3-0.9-0.3-1.3c-0.1-1.5-0.1-3-0.1-4.4c0-2.8,0.1-5.6,0.2-8.4
			c-1.9,0-3.8,0-5.8,0c2-5.9,4-11.7,6-17.6c-0.2,0-0.5,0-0.7,0c-0.3,0-0.3,0-0.4,0.2c-0.1,0.4-0.2,0.7-0.4,1.1
			c-0.2,0.7-0.4,1.3-0.6,1.9c-0.4,1.1-0.7,2.3-1.1,3.4c-0.5,1.3-0.9,2.7-1.5,4c-0.4,0.7-1.1,1.1-2,0.9c-0.5-0.1-0.9-0.4-1.2-0.7
			c-0.4-0.6-0.1-1.1,0.1-1.7c1-2.9,2-5.7,2.9-8.5c0.2-0.7,0.5-1.4,0.7-2.1c0.2-0.5,0.4-1,0.7-1.4c0.7-1,1.8-1.7,3.1-2.1
			c0.4-0.1,0.7-0.1,1.1-0.1c0.4,0,0.9,0,1.3,0c0.9,0,1.7,0,2.6,0s1.7,0,2.6,0c0.6,0,1.2,0,1.8,0.1c1.3,0.3,2.4,1.1,3.2,2.1
			c0.4,0.5,0.5,1.1,0.7,1.6c0.2,0.7,0.5,1.4,0.7,2.1c1,2.9,2,5.7,2.9,8.6c0.1,0.5,0.3,0.9,0.1,1.3s-0.6,0.7-1.2,0.9
			c-0.6,0.2-1.2,0.1-1.7-0.3c-0.5-0.3-0.6-0.9-0.7-1.4c-1-2.9-2-5.7-2.9-8.6c-0.1-0.3-0.2-0.7-0.3-1c0,0-0.1-0.3-0.1-0.3
			c0,0-0.3,0-0.3,0C161.9,115.1,161.7,115.1,161.4,115.1z"/>
	</g>
	<g id="woman_2_">
		<path class="st10" d="M152.5,51.6c0-1.6,1.2-3.1,3-3.6c1.7-0.5,3.7,0,4.9,1.2c1.2,1.2,1.3,3,0.4,4.4c-1,1.4-2.8,2.1-4.6,1.8
			C154,55,152.5,53.4,152.5,51.6z"/>
		<path class="st10" d="M161.4,61.6c2,5.9,4,11.7,6,17.6c-1.6,0-3.1,0-4.7,0c-0.2,0-0.3,0-0.5,0c-0.1,0-0.2,0-0.3,0
			c-0.2,0-0.1,0-0.2,0.1c-0.1,0.1,0,0.4,0,0.5c0,0.2,0,0.4,0,0.6c0,0.7,0,1.3,0,2c0,2.7,0,5.4,0,8.1c0,0.7,0,1.4,0,2.1
			c0,0.5-0.2,0.9-0.6,1.2c-0.6,0.5-1.7,0.7-2.5,0.4c-1.3-0.5-1.1-1.7-1.1-2.8c0-1.4,0-2.7,0-4.1c0-1.5,0-3,0-4.5c0-0.8,0-1.5,0-2.3
			c0-0.4,0-0.8,0-1.2c0-0.3,0-0.1-0.1-0.1c-0.1,0-0.2,0-0.3,0c-0.2,0-0.5,0-0.7,0c0,2.9,0,5.8,0.1,8.7c0,1.4,0,2.9,0,4.3
			c0,0.9-0.4,1.8-1.6,2c-0.9,0.1-2-0.1-2.4-0.8c-0.2-0.4-0.3-0.9-0.3-1.3c-0.1-1.5-0.1-3-0.1-4.4c0-2.8,0.1-5.6,0.2-8.4
			c-1.9,0-3.8,0-5.8,0c2-5.9,4-11.7,6-17.6c-0.2,0-0.5,0-0.7,0c-0.3,0-0.3,0-0.4,0.2c-0.1,0.4-0.2,0.7-0.4,1.1
			c-0.2,0.7-0.4,1.3-0.6,1.9c-0.4,1.1-0.7,2.3-1.1,3.4c-0.5,1.3-0.9,2.7-1.5,4c-0.4,0.7-1.1,1.1-2,0.9c-0.5-0.1-0.9-0.4-1.2-0.7
			c-0.4-0.6-0.1-1.1,0.1-1.7c1-2.9,2-5.7,2.9-8.5c0.2-0.7,0.5-1.4,0.7-2.1c0.2-0.5,0.4-1,0.7-1.4c0.7-1,1.8-1.7,3.1-2.1
			c0.4-0.1,0.7-0.1,1.1-0.1c0.4,0,0.9,0,1.3,0c0.9,0,1.7,0,2.6,0s1.7,0,2.6,0c0.6,0,1.2,0,1.8,0.1c1.3,0.3,2.4,1.1,3.2,2.1
			c0.4,0.5,0.5,1.1,0.7,1.6c0.2,0.7,0.5,1.4,0.7,2.1c1,2.9,2,5.7,2.9,8.6c0.1,0.5,0.3,0.9,0.1,1.3s-0.6,0.7-1.2,0.9
			c-0.6,0.2-1.2,0.1-1.7-0.3c-0.5-0.3-0.6-0.9-0.7-1.4c-1-2.9-2-5.7-2.9-8.6c-0.1-0.3-0.2-0.7-0.3-1c0,0-0.1-0.3-0.1-0.3
			c0,0-0.3,0-0.3,0C161.9,61.6,161.7,61.6,161.4,61.6z"/>
	</g>
	<g id="woman_1_">
		<path class="st10" d="M260.4,105.4c0-1.6,1.2-3.1,3-3.6c1.7-0.5,3.7,0,4.9,1.2c1.2,1.2,1.3,3,0.4,4.4c-1,1.4-2.8,2.1-4.6,1.8
			C262,108.9,260.4,107.3,260.4,105.4z"/>
		<path class="st10" d="M269.3,115.5c2,5.9,4,11.7,6,17.6c-1.6,0-3.1,0-4.7,0c-0.2,0-0.3,0-0.5,0c-0.1,0-0.2,0-0.3,0
			c-0.2,0-0.1,0-0.2,0.1c-0.1,0.1,0,0.4,0,0.5c0,0.2,0,0.4,0,0.6c0,0.7,0,1.3,0,2c0,2.7,0,5.4,0,8.1c0,0.7,0,1.4,0,2.1
			c0,0.5-0.2,0.9-0.6,1.2c-0.6,0.5-1.7,0.7-2.5,0.4c-1.3-0.5-1.1-1.7-1.1-2.8c0-1.4,0-2.7,0-4.1c0-1.5,0-3,0-4.5c0-0.8,0-1.5,0-2.3
			c0-0.4,0-0.8,0-1.2c0-0.3,0-0.1-0.1-0.1c-0.1,0-0.2,0-0.3,0c-0.2,0-0.5,0-0.7,0c0,2.9,0,5.8,0.1,8.7c0,1.4,0,2.9,0,4.3
			c0,0.9-0.4,1.8-1.6,2c-0.9,0.1-2-0.1-2.4-0.8c-0.2-0.4-0.3-0.9-0.3-1.3c-0.1-1.5-0.1-3-0.1-4.4c0-2.8,0.1-5.6,0.2-8.4
			c-1.9,0-3.8,0-5.8,0c2-5.9,4-11.7,6-17.6c-0.2,0-0.5,0-0.7,0c-0.3,0-0.3,0-0.4,0.2c-0.1,0.4-0.2,0.7-0.4,1.1
			c-0.2,0.7-0.4,1.3-0.6,1.9c-0.4,1.1-0.7,2.3-1.1,3.4c-0.5,1.3-0.9,2.7-1.5,4c-0.4,0.7-1.1,1.1-2,0.9c-0.5-0.1-0.9-0.4-1.2-0.7
			c-0.4-0.6-0.1-1.1,0.1-1.7c1-2.9,2-5.7,2.9-8.5c0.2-0.7,0.5-1.4,0.7-2.1c0.2-0.5,0.4-1,0.7-1.4c0.7-1,1.8-1.7,3.1-2.1
			c0.4-0.1,0.7-0.1,1.1-0.1c0.4,0,0.9,0,1.3,0c0.9,0,1.7,0,2.6,0s1.7,0,2.6,0c0.6,0,1.2,0,1.8,0.1c1.3,0.3,2.4,1.1,3.2,2.1
			c0.4,0.5,0.5,1.1,0.7,1.6c0.2,0.7,0.5,1.4,0.7,2.1c1,2.9,2,5.7,2.9,8.6c0.1,0.5,0.3,0.9,0.1,1.3c-0.2,0.5-0.6,0.7-1.2,0.9
			c-0.6,0.2-1.2,0.1-1.7-0.3c-0.5-0.3-0.6-0.9-0.7-1.4c-1-2.9-2-5.7-2.9-8.6c-0.1-0.3-0.2-0.7-0.3-1c0,0-0.1-0.3-0.1-0.3
			c0,0-0.3,0-0.3,0C269.8,115.5,269.6,115.5,269.3,115.5z"/>
	</g>
</g>
<g>
	<g>
		<line class="st12" x1="298.6" y1="100" x2="334.6" y2="100"/>
		<g>
			<polygon class="st13" points="329.6,117.1 359.1,100 329.6,82.9 			"/>
		</g>
	</g>
</g>
<g>
	<g>
		<line class="st12" x1="488.6" y1="99.9" x2="524.6" y2="99.9"/>
		<g>
			<polygon class="st13" points="519.6,117 549.1,99.9 519.6,82.8 			"/>
		</g>
	</g>
</g>
<rect x="378.3" y="54.7" class="st14" width="54" height="24.2"/>
</svg>
