<?xml version="1.0" encoding="utf-8"?>
<!-- Generator: Adobe Illustrator 21.0.2, SVG Export Plug-In . SVG Version: 6.00 Build 0)  -->
<svg version="1.1" xmlns="http://www.w3.org/2000/svg" xmlns:xlink="http://www.w3.org/1999/xlink" x="0px" y="0px"
	 viewBox="0 0 700 200" style="enable-background:new 0 0 700 200;" xml:space="preserve">
<style type="text/css">
	.st0{fill:#3C5EA5;}
	.st1{opacity:0.25;fill:#E0D4CA;}
	.st2{opacity:0.35;fill:#737170;}
	.st3{display:none;}
	.st4{display:inline;}
	.st5{display:inline;fill:#4D2810;stroke:#231F20;stroke-miterlimit:10;}
	.st6{display:inline;fill:#FFFFFF;stroke:#FFFFFF;stroke-miterlimit:10;}
	.st7{display:inline;fill:#22275A;}
	.st8{display:inline;fill:#C5BCA7;}
	.st9{display:inline;fill:#FFFFFF;stroke:#A03323;stroke-miterlimit:10;}
	.st10{display:inline;fill:#C5BCA7;stroke:#A03323;stroke-miterlimit:10;}
	.st11{display:inline;fill:#A03323;stroke:#A03323;stroke-miterlimit:10;}
	.st12{display:inline;fill:#4F9142;stroke:#4F9142;stroke-miterlimit:10;}
	.st13{display:inline;fill:#C99261;}
	.st14{display:inline;fill:#EEE6DD;stroke:#EEE6DD;stroke-width:0.25;stroke-miterlimit:10;}
	.st15{display:inline;opacity:0.35;fill:#E0D4CA;}
	.st16{fill:#CDB092;stroke:#CDB092;stroke-width:0.25;stroke-miterlimit:10;}
	.st17{fill:#482C14;stroke:#231F20;stroke-miterlimit:10;}
	.st18{fill:#FFFFFF;stroke:#231F20;stroke-miterlimit:10;}
	.st19{fill:#FFFFFF;stroke:#231F20;stroke-width:3;stroke-miterlimit:10;}
	.st20{fill:#EEE6DD;stroke:#EEE6DD;stroke-width:0.25;stroke-miterlimit:10;}
	.st21{fill:#CE4131;}
	.st22{fill:#FFFFFF;}
	.st23{fill:#422C1A;stroke:#CDB092;stroke-width:0.25;stroke-miterlimit:10;}
	.st24{fill:#422C1A;}
	.st25{fill:#4D4C4D;stroke:#231F20;stroke-miterlimit:10;}
	.st26{fill:#EEE6DD;}
	.st27{fill:none;stroke:#CE4131;stroke-miterlimit:10;}
	.st28{fill:#1A3D6D;stroke:#231F20;stroke-miterlimit:10;}
</style>
<g id="background">
	<rect y="0" class="st0" width="701.3" height="200"/>
	<polygon class="st1" points="701.3,71.8 701.3,200 0,200 0,74.7 44.6,74.7 44.6,47.8 76.8,47.8 76.8,77.3 82.8,77.3 82.9,58.9 
		100.5,58.9 100.5,85.3 113.8,85.3 111.9,25.5 130.4,11.2 149.9,11.2 149.9,35.4 171.1,34.8 173.2,70.5 173.8,82 182.5,82.4 
		182.5,65.1 185.6,57.8 186.5,55.8 190.7,46.2 208.3,46.2 208.3,63.5 227.2,63.5 227.2,74.7 332.8,74.7 332.8,63.4 388.8,63.4 
		388.8,78.6 399.7,78.6 399.7,49.9 413.5,49.9 413.5,85.3 430.1,85.3 430.1,24 447,10.9 468.5,10.9 468.5,39.7 499.5,39.7 499.5,61 
		529.3,61 529.3,82 559,82 559,39.5 577,39.5 577,10.4 608.6,10.4 608.6,47.8 655.8,47.8 655.8,71.8 	"/>
	<polygon class="st2" points="701.3,83.9 701.3,200 0,200 0,38.9 40,38.9 43,74.7 44.2,89.8 119.8,89.8 119.8,77.3 134.1,77.3 
		134.1,90.7 150.2,90.7 150.2,70.5 178.7,70.5 178.7,57.8 213.3,57.8 213.3,74.2 225.7,74.2 225.7,61.6 245.5,47.2 260.3,47.2 
		260.3,98.8 273.3,98.8 273.3,61.6 282.8,61.6 282.8,70.5 298.3,70.5 298.3,55.1 314.1,55.1 314.1,70.5 329.5,70.5 329.5,75.9 
		341.5,75.9 341.5,70 355.2,70 355.2,56 369.3,56 369.3,35.3 384.2,35.3 398.7,45.9 398.7,76.2 406.7,76.2 406.7,61.6 418.3,61.6 
		430.1,70.1 431.9,71.4 431.9,84 445.7,84 445.7,56 477.1,56 477.1,76.2 514.3,76.2 514.3,95.8 551.4,95.8 551.4,71.9 591.7,71.9 
		591.7,52 628.9,52 628.9,75.1 658.9,75.1 658.9,83.9 	"/>
</g>
<g id="urne" class="st3">
	<g id="Layer_2_1_" class="st4">
	</g>
	<rect x="309.9" y="102.2" class="st5" width="78" height="11.6"/>
	<rect x="314" y="113.8" class="st5" width="69.8" height="30.9"/>
	<rect x="375.8" y="41.5" class="st6" width="3.1" height="14.7"/>
	<path class="st7" d="M422.2,57.9h-43.4V37.9h30.8C414.8,43.8,419.1,50.6,422.2,57.9z"/>
	<rect x="333.1" y="64.6" class="st8" width="42.2" height="36.8"/>
	<rect x="337.9" y="78.4" class="st9" width="6.4" height="3.9"/>
	<rect x="337.9" y="78.4" class="st10" width="6.4" height="3.9"/>
	<rect x="347.5" y="78.4" class="st9" width="23.8" height="3.9"/>
	<rect x="347.5" y="78.4" class="st11" width="23.8" height="3.9"/>
	<rect x="337.9" y="87.4" class="st9" width="6.4" height="4.1"/>
	<rect x="337.9" y="87.4" class="st10" width="6.4" height="4.1"/>
	<rect x="347.5" y="87.4" class="st9" width="23.8" height="4.1"/>
	<rect x="347.5" y="87.4" class="st11" width="23.8" height="4.1"/>
	<rect x="337.9" y="96.2" class="st9" width="6.4" height="4.1"/>
	<rect x="337.9" y="96.2" class="st10" width="6.4" height="4.1"/>
	<rect x="347.5" y="96.2" class="st9" width="23.8" height="4.1"/>
	<rect x="347.5" y="96.2" class="st11" width="23.8" height="4.1"/>
	<path class="st12" d="M345.2,86.6l-4.8,4.9c-1-0.9-4.5-3.2-3.1-2.7c4.1,1.6,3.8,1.2,3.8,1.2L345.2,86.6z"/>
	<path class="st12" d="M345.2,86.6l-4.8,4.9c-1-0.9-4.5-3.2-3.1-2.7c4.1,1.6,3.8,1.2,3.8,1.2L345.2,86.6z"/>
	<path class="st13" d="M376.1,43.6c-2.9-0.6-12.8,0-12.8,0c-4.8,3.2-9.8,6.3-14.6,9.6c-1.2,3.8-2.5,7.6-3.7,11.4c0,0,5.5,0,6.4,0
		s1.8-5.7,1.8-5.7h6.4c0,0-0.8,3.3-1.8,4.8c-3.2,4.4-7.7,7.3-8.2,8.5c-0.5,2.2-0.1,4,0.9,4.7c0.8,0.5,1.8,0.3,2.7,0
		c3.1-1.2,5.3-4,8.2-6.7c4.6-4.1,6.2-4.2,8.2-7.6c0.9-1.5,1.2-1.8,2.7-3.8c1.3-1.8,2.7-3,3.7-3.8"/>
	<path class="st14" d="M351.1,75.7c-0.6-0.6-0.5-1.6-0.2-2.2c0.4-0.8,1.3-1.5,2.3-1.4c1.1,0.1,2.1,1.1,2,2.1
		c-0.1,1.2-1.6,1.8-2.5,1.9C352.4,76.2,351.6,76.3,351.1,75.7z"/>
	<path class="st15" d="M428.8,89.4c0,43.6-35.4,79-79,79s-79-35.4-79-79s35.4-79,79-79c23.9,0,45.4,10.7,59.9,27.5
		c5.2,6,9.4,12.7,12.6,20.1C426.4,67.6,428.8,78.2,428.8,89.4z"/>
</g>
<g id="VOTE">
	<g id="vote1">
		<g>
			<path class="st16" d="M349,130.3c-1.4,2.6-1.1,4.5-0.6,7.7c0.5,3.5,0.8,5.2,2.6,6.3c2,1.1,4.5,0.9,7.5,0.6
				c3.7-0.4,9.4-0.9,12.2-3.5c6-5.5-1.8-19.2-10.1-18.7c-2.5,0.2-5.7,1.7-7.9,3.4C352,126.6,350.2,128.1,349,130.3z"/>
			<path class="st16" d="M348.4,130.6c-0.8,2.3-0.3,4.2,0.3,7.1c0.8,3.2,1.1,4.8,2.6,5.8c1.6,1.1,3.5,0.9,5.8,0.6
				c2.8-0.3,7.1-0.8,8.9-3.1c4-5-3.4-17.7-9.7-17.2c-1.9,0.1-4.2,1.5-5.7,3C350.3,127.2,349.1,128.6,348.4,130.6z"/>
			<polygon class="st17" points="380.8,200 357.2,200 350.8,149.8 374.1,146.9 			"/>
			
				<rect x="351.7" y="142.7" transform="matrix(0.9921 -0.1257 0.1257 0.9921 -15.4211 46.5615)" class="st18" width="18.9" height="5.5"/>
			<polygon class="st17" points="493.2,150.4 485,200 461.2,200 470.2,146.6 470.3,146.6 491.9,150.2 			"/>
			
				<rect x="470.5" y="144.4" transform="matrix(0.9863 0.1648 -0.1648 0.9863 30.7543 -77.3318)" class="st18" width="21.9" height="4.5"/>
			
				<rect x="349.2" y="52.3" transform="matrix(0.9993 3.655601e-02 -3.655601e-02 0.9993 3.8456 -15.3286)" class="st19" width="143.9" height="90.5"/>
			<g>
				<g>
					<path class="st16" d="M344.4,137.7l7.9,4.6c1,0.6,2.4,0.2,3-0.8l0,0c0.6-1,0.2-2.4-0.8-3l-7.9-4.6c-1-0.6-2.4-0.2-3,0.8l0,0
						C343,135.8,343.3,137.1,344.4,137.7z"/>
					<path class="st20" d="M351.9,140.8c0.2,0.5,1,0.6,1.4,0.5c0.2,0,0.8-0.1,1-0.6c0.2-0.4-0.1-0.8-0.2-1c-0.1-0.1-0.4-0.6-0.8-0.7
						C352.5,138.9,351.6,140.1,351.9,140.8z"/>
				</g>
				<g>
					<path class="st16" d="M341.1,130.2l9.9,5.7c1,0.6,2.4,0.2,3-0.8l0,0c0.6-1,0.2-2.4-0.8-3l-9.9-5.7c-1-0.6-2.4-0.2-3,0.8v0
						C339.7,128.2,340.1,129.6,341.1,130.2z"/>
					<path class="st20" d="M351,134.7c0.3,0.4,1,0.5,1.5,0.4c0.2,0,0.8-0.2,0.9-0.7c0.1-0.4-0.2-0.8-0.3-1c-0.1-0.1-0.4-0.6-0.9-0.6
						C351.4,132.9,350.6,134.1,351,134.7z"/>
				</g>
				<g>
					<path class="st16" d="M339.7,123.6l11.3,6.5c1,0.6,2.4,0.2,3-0.8c0.6-1,0.2-2.4-0.8-3l-11.3-6.5c-1-0.6-2.4-0.2-3,0.8
						C338.3,121.6,338.6,123,339.7,123.6z"/>
					<path class="st20" d="M351,128.8c0.3,0.4,1,0.5,1.5,0.3c0.2,0,0.8-0.2,0.9-0.7c0.1-0.4-0.2-0.8-0.3-1c-0.1-0.1-0.5-0.6-0.9-0.6
						C351.4,126.9,350.6,128.2,351,128.8z"/>
				</g>
				<g>
					<path class="st16" d="M343.1,117.8l6.5,5.6c0.9,0.8,2.3,0.7,3.1-0.2l0,0c0.8-0.9,0.7-2.3-0.2-3.1l-6.5-5.6
						c-0.9-0.8-2.3-0.7-3.1,0.2l0,0C342.1,115.6,342.2,117,343.1,117.8z"/>
					<path class="st20" d="M349.6,122.1c0.1,0.5,0.8,0.7,1.3,0.8c0.2,0,0.8,0,1.1-0.4c0.2-0.4,0-0.8,0-1c-0.1-0.2-0.3-0.7-0.7-0.8
						C350.5,120.4,349.4,121.4,349.6,122.1z"/>
				</g>
			</g>
			<g>
				<g>
					<path class="st16" d="M497.3,140.3l-7.9,4.6c-1,0.6-2.4,0.2-3-0.8l0,0c-0.6-1-0.2-2.4,0.8-3l7.9-4.6c1-0.6,2.4-0.2,3,0.8l0,0
						C498.7,138.4,498.4,139.7,497.3,140.3z"/>
					<path class="st20" d="M489.8,143.4c-0.2,0.5-1,0.6-1.4,0.5c-0.2,0-0.8-0.1-1-0.6c-0.2-0.4,0.1-0.8,0.2-1
						c0.1-0.1,0.4-0.6,0.8-0.7C489.2,141.5,490.1,142.7,489.8,143.4z"/>
				</g>
				<g>
					<path class="st16" d="M500.6,132.8l-9.9,5.7c-1,0.6-2.4,0.2-3-0.8l0,0c-0.6-1-0.2-2.4,0.8-3l9.9-5.7c1-0.6,2.4-0.2,3,0.8v0
						C502,130.8,501.6,132.2,500.6,132.8z"/>
					<path class="st20" d="M490.7,137.3c-0.3,0.4-1,0.5-1.5,0.4c-0.2,0-0.8-0.2-0.9-0.7c-0.1-0.4,0.2-0.8,0.3-1
						c0.1-0.1,0.4-0.6,0.9-0.6C490.3,135.4,491.1,136.7,490.7,137.3z"/>
				</g>
				<g>
					<path class="st16" d="M502,126.1l-11.3,6.5c-1,0.6-2.4,0.2-3-0.8c-0.6-1-0.2-2.4,0.8-3l11.3-6.5c1-0.6,2.4-0.2,3,0.8
						C503.4,124.2,503.1,125.5,502,126.1z"/>
					<path class="st20" d="M490.7,131.4c-0.3,0.4-1,0.5-1.5,0.3c-0.2,0-0.8-0.2-0.9-0.7c-0.1-0.4,0.2-0.8,0.3-1
						c0.1-0.1,0.5-0.6,0.9-0.6C490.3,129.5,491.1,130.8,490.7,131.4z"/>
				</g>
				<g>
					<path class="st16" d="M498.6,120.4l-6.5,5.6c-0.9,0.8-2.3,0.7-3.1-0.2v0c-0.8-0.9-0.7-2.3,0.2-3.1l6.5-5.6
						c0.9-0.8,2.3-0.7,3.1,0.2v0C499.6,118.2,499.5,119.6,498.6,120.4z"/>
					<path class="st20" d="M492.1,124.7c-0.1,0.5-0.8,0.7-1.3,0.8c-0.2,0-0.8,0-1.1-0.4c-0.2-0.4,0-0.8,0-1c0.1-0.2,0.3-0.7,0.7-0.8
						C491.2,123,492.3,124,492.1,124.7z"/>
				</g>
			</g>
			<g>
				<g>
					
						<rect x="456.2" y="73.1" transform="matrix(0.9976 6.862210e-02 -6.862210e-02 0.9976 7.2911 -31.4806)" class="st21" width="11.3" height="34.5"/>
					
						<rect x="456.2" y="73.1" transform="matrix(0.9976 6.862210e-02 -6.862210e-02 0.9976 7.2911 -31.4806)" class="st21" width="11.3" height="34.5"/>
					
						<rect x="468.3" y="73.9" transform="matrix(0.9976 6.862210e-02 -6.862210e-02 0.9976 6.5497 -32.3126)" class="st21" width="10.6" height="10.5"/>
					
						<rect x="468.3" y="73.9" transform="matrix(0.9976 6.862210e-02 -6.862210e-02 0.9976 6.5497 -32.3126)" class="st21" width="10.6" height="10.5"/>
					
						<rect x="466.7" y="97.8" transform="matrix(0.9976 6.862210e-02 -6.862210e-02 0.9976 8.187 -32.1433)" class="st21" width="10.6" height="10.5"/>
					
						<rect x="466.7" y="97.8" transform="matrix(0.9976 6.862210e-02 -6.862210e-02 0.9976 8.187 -32.1433)" class="st21" width="10.6" height="10.5"/>
					
						<rect x="454.6" y="97.1" transform="matrix(0.9976 6.862210e-02 -6.862210e-02 0.9976 8.9284 -31.3113)" class="st21" width="11.3" height="34.5"/>
					
						<rect x="454.6" y="97.1" transform="matrix(0.9976 6.862210e-02 -6.862210e-02 0.9976 8.9284 -31.3113)" class="st21" width="11.3" height="34.5"/>
					
						<rect x="465" y="121.7" transform="matrix(0.9976 6.862210e-02 -6.862210e-02 0.9976 9.8244 -31.9741)" class="st21" width="10.6" height="10.5"/>
					
						<rect x="465" y="121.7" transform="matrix(0.9976 6.862210e-02 -6.862210e-02 0.9976 9.8244 -31.9741)" class="st21" width="10.6" height="10.5"/>
				</g>
				<g>
					<path class="st21" d="M433.7,82.2l-9-0.6c0,0,0,0,0,0l0.7-10.4c0,0,0,0,0,0l9,0.6c0,0,0,0,0,0L433.7,82.2
						C433.8,82.2,433.8,82.2,433.7,82.2z"/>
					<path class="st21" d="M433.7,82.2l-9-0.6c0,0,0,0,0,0l0.7-10.4c0,0,0,0,0,0l9,0.6c0,0,0,0,0,0L433.7,82.2
						C433.8,82.2,433.8,82.2,433.7,82.2z"/>
					
						<rect x="433.3" y="72" transform="matrix(0.9976 6.862210e-02 -6.862210e-02 0.9976 7.1598 -29.8557)" class="st21" width="9.7" height="34.5"/>
					
						<rect x="433.3" y="72" transform="matrix(0.9976 6.862210e-02 -6.862210e-02 0.9976 7.1598 -29.8557)" class="st21" width="9.7" height="34.5"/>
					
						<rect x="443.8" y="72.7" transform="matrix(0.9976 6.862210e-02 -6.862210e-02 0.9976 6.4074 -30.5804)" class="st21" width="9.1" height="10.5"/>
					
						<rect x="443.8" y="72.7" transform="matrix(0.9976 6.862210e-02 -6.862210e-02 0.9976 6.4074 -30.5804)" class="st21" width="9.1" height="10.5"/>
					
						<rect x="431.7" y="96" transform="matrix(0.9976 6.862210e-02 -6.862210e-02 0.9976 8.7972 -29.6865)" class="st21" width="9.7" height="34.5"/>
					
						<rect x="431.7" y="96" transform="matrix(0.9976 6.862210e-02 -6.862210e-02 0.9976 8.7972 -29.6865)" class="st21" width="9.7" height="34.5"/>
				</g>
				<g>
					<g id="XMLID_1_">
						<g>
							<path class="st21" d="M412.5,70.2c4.7,0.3,8.2,5.9,7.8,12.5l-2.3,33.7l2.3-32.9c0.5-6.9-4.7-13-11.6-13.6L412.5,70.2z"/>
							<path class="st21" d="M408.6,70c6.9,0.6,12.1,6.6,11.6,13.6l-2.3,32.9c-0.5,7-6.6,12.3-13.6,11.8c-7-0.5-12.3-6.6-11.8-13.6
								l2.3-32.9c0.5-6.7,6.1-11.9,12.7-11.9c0.2,0,0.5,0,0.7,0l0.1,0L408.6,70z M409,116l2.3-33.2l-7.4-0.5l-2.3,33.2L409,116z"/>
							<path class="st21" d="M418,116.4l-0.1,0.8c-0.5,6.6-4.7,11.7-9.4,11.3l-4.2-0.3C411.4,128.8,417.5,123.5,418,116.4z"/>
							
								<rect x="389.7" y="95.4" transform="matrix(6.845176e-02 -0.9977 0.9977 6.845176e-02 279.6805 497.7625)" class="st22" width="33.3" height="7.5"/>
							<path class="st21" d="M408.6,70l-0.3,0c0,0,0.1,0,0.1,0C408.5,69.9,408.5,70,408.6,70z"/>
							<path class="st21" d="M408.2,69.9c-0.2,0-0.5,0-0.7,0c-6.6,0-12.3,5.2-12.7,11.9l0.1-0.8c0.5-6.6,4.7-11.7,9.4-11.3
								L408.2,69.9z"/>
							<path class="st21" d="M404.4,128.3l-4.1-0.3c-4.7-0.3-8.2-5.9-7.8-12.5l2.3-33.7l-2.3,32.9
								C392,121.7,397.4,127.8,404.4,128.3z"/>
						</g>
						<g>
						</g>
					</g>
				</g>
				<g>
					<polygon class="st21" points="392,68.8 385.3,93.6 382.9,102.8 363.9,101.5 363.2,96.3 362.7,92.1 359.5,66.6 369.5,67.3 
						372.3,89.1 372.6,91.5 373.6,99.4 373.6,99.4 373.6,99.4 375.6,91.7 376.3,89.4 382,68.1 					"/>
					<polygon class="st21" points="392,68.8 385.3,93.6 382.9,102.8 363.9,101.5 363.2,96.3 362.7,92.1 359.5,66.6 369.5,67.3 
						372.3,89.1 372.6,91.5 373.6,99.4 373.6,99.4 373.6,99.4 375.6,91.7 376.3,89.4 382,68.1 					"/>
					<polygon class="st21" points="378.6,91.9 376.5,126.4 367,125.7 366.7,123.9 369,91.3 372.6,91.5 373.6,99.4 373.6,99.4 
						373.6,99.4 375.6,91.7 					"/>
					<polygon class="st21" points="378.6,91.9 376.5,126.4 367,125.7 366.7,123.9 369,91.3 372.6,91.5 373.6,99.4 373.6,99.4 
						373.6,99.4 375.6,91.7 					"/>
					<g>
						<polygon class="st21" points="392,68.8 385.3,93.6 382.9,102.8 382.6,103.6 380.5,102.6 378,101.5 373.6,99.4 375.6,91.7 
							376.3,89.4 382,68.1 						"/>
						<polygon class="st21" points="392,68.8 385.3,93.6 382.9,102.8 382.6,103.6 380.5,102.6 378,101.5 373.6,99.4 375.6,91.7 
							376.3,89.4 382,68.1 						"/>
						<polygon class="st21" points="385.3,93.6 382.9,102.8 382.6,103.6 376.5,126.4 376.3,126.3 371.9,124.2 367.4,122.2 
							372.8,102.1 373.6,99.4 373.6,99.4 375.6,91.7 376.3,89.4 						"/>
						<polygon class="st21" points="385.3,93.6 382.9,102.8 382.6,103.6 376.5,126.4 376.3,126.3 371.9,124.2 367.4,122.2 
							372.8,102.1 373.6,99.4 373.6,99.4 375.6,91.7 376.3,89.4 						"/>
						<polygon class="st21" points="373.6,99.4 368.3,101 366.3,101.6 364,102.3 363.9,101.5 363.9,101.5 363.2,96.3 362.7,92.1 
							359.5,66.6 369.5,67.3 372.3,89.1 372.6,91.5 						"/>
						<polygon class="st21" points="373.6,99.4 368.3,101 366.3,101.6 364,102.3 363.9,101.5 363.9,101.5 363.2,96.3 362.7,92.1 
							359.5,66.6 369.5,67.3 372.3,89.1 372.6,91.5 						"/>
						<polygon class="st21" points="376.5,122.8 371.9,124.2 367,125.7 366.7,123.9 364,102.3 363.9,101.5 363.2,96.3 362.7,92.1 
							372.3,89.1 372.6,91.5 373.6,99.4 373.6,99.4 373.9,102.2 						"/>
						<polygon class="st21" points="376.5,122.8 371.9,124.2 367,125.7 366.7,123.9 364,102.3 363.9,101.5 363.2,96.3 362.7,92.1 
							372.3,89.1 372.6,91.5 373.6,99.4 373.6,99.4 373.9,102.2 						"/>
					</g>
				</g>
			</g>
		</g>
	</g>
	<g id="vote2">
		<g>
			<path class="st23" d="M310.7,124.3c-1.4,1.9-1.5,3.8-1.8,6.8c-0.3,3.3-0.5,4.9,0.5,6.3c1.1,1.5,2.8,2,4.8,2.5
				c2.5,0.6,6.3,1.6,8.6,0c4.9-3.4,2.4-17.8-3.2-19.4c-1.6-0.5-4,0-5.8,1C313.4,121.7,311.9,122.6,310.7,124.3z"/>
			<path class="st24" d="M219.5,122.2c-1.4,1.9-1.5,3.8-1.8,6.8c-0.3,3.3-0.5,4.9,0.5,6.3c1.1,1.5,2.8,2,4.8,2.5
				c2.5,0.6,6.3,1.6,8.6,0c4.9-3.4,2.4-17.8-3.2-19.4c-1.6-0.5-4,0-5.8,1C222.2,119.7,220.7,120.5,219.5,122.2z"/>
			<polygon class="st25" points="326.4,144.2 317.1,200 295.8,200 305.8,140.7 			"/>
			
				<rect x="307.7" y="136.9" transform="matrix(0.9863 0.1648 -0.1648 0.9863 27.3278 -50.2054)" class="st18" width="17.1" height="5.5"/>
			<polygon class="st25" points="245.5,200 224.4,200 217.2,143.6 238,140.9 			"/>
			
				<rect x="217.7" y="137.2" transform="matrix(0.9921 -0.1257 0.1257 0.9921 -15.7486 29.6174)" class="st18" width="18.2" height="4.8"/>
			
				<rect x="213.6" y="63.4" transform="matrix(0.9975 -7.010026e-02 7.010026e-02 0.9975 -6.1731 19.0933)" class="st19" width="110.7" height="68.1"/>
			<g>
				<g>
					<path class="st24" d="M212.4,133.9l8,4.3c1.1,0.6,2.4,0.2,3-0.9v0c0.6-1.1,0.2-2.4-0.9-3l-8-4.3c-1.1-0.6-2.4-0.2-3,0.9l0,0
						C210.9,132,211.3,133.3,212.4,133.9z"/>
					<path class="st26" d="M220,136.7c0.2,0.5,1,0.5,1.4,0.5c0.2,0,0.8-0.1,1-0.6c0.1-0.4-0.1-0.8-0.3-1c-0.1-0.1-0.4-0.6-0.9-0.6
						C220.5,134.8,219.7,136,220,136.7z"/>
				</g>
				<g>
					<path class="st24" d="M210.6,128.5l9.9,5.7c1,0.6,2.4,0.2,3-0.8v0c0.6-1,0.2-2.4-0.8-3l-9.9-5.7c-1-0.6-2.4-0.2-3,0.8v0
						C209.2,126.5,209.5,127.9,210.6,128.5z"/>
					<path class="st26" d="M220.5,133.1c0.3,0.4,1,0.5,1.5,0.4c0.2,0,0.8-0.2,0.9-0.7c0.1-0.4-0.2-0.8-0.3-1
						c-0.1-0.1-0.4-0.6-0.9-0.6C220.9,131.2,220.1,132.4,220.5,133.1z"/>
				</g>
				<g>
					<path class="st24" d="M209.1,123l11.3,6.5c1,0.6,2.4,0.2,3-0.8c0.6-1,0.2-2.4-0.8-3l-11.3-6.5c-1-0.6-2.4-0.2-3,0.8
						C207.7,121,208.1,122.4,209.1,123z"/>
					<path class="st26" d="M220.5,128.2c0.3,0.4,1,0.5,1.5,0.3c0.2,0,0.8-0.2,0.9-0.7c0.1-0.4-0.2-0.8-0.3-1
						c-0.1-0.1-0.5-0.6-0.9-0.6C220.9,126.3,220.1,127.6,220.5,128.2z"/>
				</g>
				<g>
					<path class="st24" d="M211.9,118.7l6.5,5.6c0.9,0.8,2.3,0.7,3.1-0.2l0,0c0.8-0.9,0.7-2.3-0.2-3.1l-6.5-5.6
						c-0.9-0.8-2.3-0.7-3.1,0.2v0C210.9,116.5,211,117.9,211.9,118.7z"/>
					<path class="st26" d="M218.5,122.9c0.1,0.5,0.8,0.7,1.3,0.8c0.2,0,0.8,0,1.1-0.4c0.2-0.4,0-0.8,0-1c-0.1-0.2-0.3-0.7-0.7-0.8
						C219.4,121.2,218.3,122.2,218.5,122.9z"/>
				</g>
			</g>
			<g>
				<g>
					<path class="st24" d="M330.1,132.4l-7.7,4.9c-1,0.6-2.4,0.4-3-0.7c-0.6-1-0.4-2.4,0.7-3l7.7-4.9c1-0.6,2.4-0.4,3,0.7v0
						C331.5,130.4,331.2,131.8,330.1,132.4z"/>
					<path class="st26" d="M322.8,135.8c-0.2,0.5-0.9,0.6-1.4,0.6c-0.2,0-0.8-0.1-1-0.5c-0.2-0.4,0.1-0.8,0.2-1
						c0.1-0.1,0.4-0.6,0.8-0.7C322.1,134,323,135.1,322.8,135.8z"/>
				</g>
				<g>
					<path class="st24" d="M332.7,126.4l-9.9,5.7c-1,0.6-2.4,0.2-3-0.8l0,0c-0.6-1-0.2-2.4,0.8-3l9.9-5.7c1-0.6,2.4-0.2,3,0.8l0,0
						C334.1,124.5,333.7,125.8,332.7,126.4z"/>
					<path class="st26" d="M322.8,131c-0.3,0.4-1,0.5-1.5,0.4c-0.2,0-0.8-0.2-0.9-0.7c-0.1-0.4,0.2-0.8,0.3-1
						c0.1-0.1,0.4-0.6,0.9-0.6C322.4,129.1,323.1,130.3,322.8,131z"/>
				</g>
				<g>
					<path class="st24" d="M334.5,120.7l-11.3,6.5c-1,0.6-2.4,0.2-3-0.8c-0.6-1-0.2-2.4,0.8-3l11.3-6.5c1-0.6,2.4-0.2,3,0.8
						C335.9,118.8,335.5,120.1,334.5,120.7z"/>
					<path class="st26" d="M323.1,125.9c-0.3,0.4-1,0.5-1.5,0.3c-0.2,0-0.8-0.2-0.9-0.7c-0.1-0.4,0.2-0.8,0.3-1
						c0.1-0.1,0.5-0.6,0.9-0.6C322.8,124,323.5,125.3,323.1,125.9z"/>
				</g>
				<g>
					<path class="st24" d="M331.1,115l-6.5,5.6c-0.9,0.8-2.3,0.7-3.1-0.2v0c-0.8-0.9-0.7-2.3,0.2-3.1l6.5-5.6
						c0.9-0.8,2.3-0.7,3.1,0.2v0C332.1,112.8,332,114.2,331.1,115z"/>
					<path class="st26" d="M324.6,119.2c-0.1,0.5-0.8,0.7-1.3,0.8c-0.2,0-0.8,0-1.1-0.4c-0.2-0.4,0-0.8,0-1c0.1-0.2,0.3-0.7,0.7-0.8
						C323.7,117.5,324.8,118.5,324.6,119.2z"/>
				</g>
			</g>
			<g>
				<g>
					<g id="XMLID_4_">
						<g>
							<polygon class="st21" points="317.3,110.9 318.1,118.5 309.8,119.3 309.1,111.7 							"/>
							
								<rect x="307.8" y="93.8" transform="matrix(0.9955 -9.487042e-02 9.487042e-02 0.9955 -7.857 30.0322)" class="st21" width="8.3" height="7.7"/>
							
								<rect x="306.1" y="76.3" transform="matrix(0.9955 -9.487042e-02 9.487042e-02 0.9955 -6.208 29.7965)" class="st21" width="8.3" height="7.7"/>
							<polygon class="st21" points="309.1,111.7 309.8,119.3 301,120.2 299.3,102.7 308.2,101.9 							"/>
							
								<rect x="298.9" y="94.6" transform="matrix(0.9955 -9.487042e-02 9.487042e-02 0.9955 -7.9723 29.2257)" class="st21" width="8.9" height="7.7"/>
							<polygon class="st21" points="306.5,84.4 307.4,94.2 298.6,95 299.3,102.7 299.3,102.7 296.9,77.6 305.8,76.7 306.5,84.4 
															"/>
							<polygon class="st21" points="305.8,76.7 306.5,84.4 306.5,84.4 							"/>
							
								<rect x="287" y="78.6" transform="matrix(0.9955 -9.487042e-02 9.487042e-02 0.9955 -6.5118 27.9358)" class="st21" width="7.1" height="7.7"/>
							<polygon class="st21" points="289,104.1 290.7,121.5 283.1,122.2 281.5,104.8 							"/>
							<polygon class="st21" points="288.3,96.4 289,104.1 281.5,104.8 280.7,97.1 							"/>
							<path class="st21" d="M287.4,86.6l0.9,9.8l-7.6,0.7l-0.9-9.8v0l-0.7-7.6c0,0,0,0,0,0v0l7.6-0.7L287.4,86.6z"/>
							<path class="st21" d="M279.1,79.7l0.7,7.6L279.1,79.7C279.1,79.7,279.1,79.7,279.1,79.7z"/>
							<path class="st21" d="M279.8,87.3L279.8,87.3C279.8,87.3,279.8,87.3,279.8,87.3l-7,0.7c0,0,0,0,0,0l-0.7-7.6c0,0,0,0,0,0
								l7-0.7c0,0,0,0,0,0L279.8,87.3z"/>
							<path class="st21" d="M271.8,114.5c0.5,4.8-2.2,9-5.9,9.3l-3.2,0.3c5.5-0.5,9.5-5.4,9-10.9L271.8,114.5z"/>
							<path class="st21" d="M271.7,113.3c0.5,5.5-3.5,10.4-9,10.9c-5.5,0.5-10.4-3.5-10.9-9l-1.1-11.3L249.6,92v0
								c0-0.2,0-0.3,0-0.4c0-5.1,3.9-9.5,9.1-9.9c5.5-0.5,10.3,3.5,10.9,8.9L271.7,113.3z M264.7,114.8l-2.3-24.3l-5.8,0.6l2.3,24.3
								L264.7,114.8z"/>
							<path class="st21" d="M269.4,89.4l0.1,1.2c-0.5-5.5-5.4-9.5-10.9-8.9l3.2-0.3C265.6,80.9,269,84.6,269.4,89.4z"/>
							<polygon class="st22" points="262.4,90.5 264.7,114.8 258.9,115.3 256.6,91 							"/>
							<path class="st21" d="M262.7,124.2l-3.2,0.3c-3.7,0.3-7.1-3.3-7.5-8.1l-1.2-12.6l1.1,11.3
								C252.3,120.7,257.2,124.7,262.7,124.2z"/>
							<path class="st21" d="M255.4,81.9l3.3-0.3c-5.2,0.5-9.1,4.8-9.1,9.9c0,0.2,0,0.3,0,0.4l-0.1-0.7
								C249.1,86.5,251.7,82.3,255.4,81.9z"/>
							<path class="st21" d="M249.6,92l1.1,11.8l-1.1-11.3C249.6,92.3,249.6,92.2,249.6,92z"/>
							<polygon class="st21" points="245.9,82.8 243.7,101.5 236.2,99.6 238,83.6 							"/>
							<polygon class="st21" points="243.7,101.5 242.9,108.4 241.1,108.6 241.1,108.6 239,108.1 238.3,101.2 236,101.4 236.2,99.6 
															"/>
							<polygon class="st21" points="242.9,108.4 242.9,109.1 241.1,108.6 							"/>
							<polygon class="st21" points="242.9,109.1 240.9,126.3 240.6,123.6 239.1,108.8 241.1,108.6 241.1,108.6 							"/>
							<polygon class="st21" points="241.1,108.6 239.1,108.8 239,108.1 							"/>
							<polygon class="st21" points="240.6,123.6 240.9,126.3 240.7,126.2 237,125.3 240.5,123.7 							"/>
							<polygon class="st21" points="240.9,126.3 233.4,127 237,125.3 240.7,126.2 							"/>
							<polygon class="st21" points="239.1,108.8 240.6,123.6 240.5,123.7 235.9,109.1 							"/>
							<polygon class="st21" points="235.9,109.1 240.5,123.7 237,125.3 233.4,124.3 235.1,109.2 235.1,109.2 							"/>
							<polygon class="st21" points="239,108.1 239.1,108.8 235.9,109.1 235.3,107.2 235.3,107.2 239,108.1 							"/>
							<polygon class="st21" points="238.3,101.2 239,108.1 239,108.1 235.3,107.2 236,101.4 							"/>
							<polygon class="st21" points="237,125.3 233.4,127 233,125.7 232.9,124.4 233.4,124.3 							"/>
							<polygon class="st21" points="235.3,107.2 235.9,109.1 235.1,109.2 							"/>
							<polygon class="st21" points="235.3,107.2 235.3,107.2 235.1,109.2 231.5,109.5 231.5,109 							"/>
							<polygon class="st21" points="233.6,101.6 235.3,107.2 231.5,109 230.8,101.9 							"/>
							<polygon class="st21" points="235.1,109.2 235.1,109.2 233.4,124.3 232.9,124.4 231.5,109.5 							"/>
							<polygon class="st21" points="233.1,99.9 233.6,101.6 230.8,101.9 231.5,109 230,109.7 228.1,109.9 226.9,106.2 226,103.2 
															"/>
							<polygon class="st21" points="228.2,84.5 233.1,99.9 226,103.2 220.4,85.2 							"/>
							<polygon class="st21" points="232.9,124.4 233,125.7 228.3,110.5 230,109.7 230,109.7 231.5,109.5 							"/>
							<polygon class="st21" points="231.5,109 231.5,109.5 230,109.7 							"/>
							<polygon class="st21" points="230,109.7 230,109.7 228.3,110.5 228.1,109.9 							"/>
						</g>
						<g>
							<polyline class="st27" points="308.2,101.9 299.3,102.7 299.3,102.7 296.9,77.6 305.8,76.7 306.5,84.4 307.4,94.2 							"/>
							<polygon class="st27" points="305.8,76.7 306.5,84.4 306.5,84.4 314.8,83.6 314,76 							"/>
							<polyline class="st27" points="308.2,101.9 316.4,101.1 315.7,93.4 307.4,94.2 							"/>
							<polyline class="st27" points="309.8,119.3 301,120.2 299.3,102.7 298.6,95 307.4,94.2 308.2,101.9 309.1,111.7 							"/>
							<polygon class="st27" points="309.8,119.3 318.1,118.5 317.3,110.9 309.1,111.7 							"/>
							<path class="st27" d="M279.8,87.3C279.8,87.3,279.8,87.3,279.8,87.3l-7,0.7c0,0,0,0,0,0l-0.7-7.6c0,0,0,0,0,0l7-0.7
								c0,0,0,0,0,0c0,0,0,0,0,0L279.8,87.3"/>
							<line class="st27" x1="287.4" y1="86.6" x2="288.3" y2="96.4"/>
							<polyline class="st27" points="280.7,97.1 279.8,87.3 279.8,87.3 279.1,79.7 279.1,79.7 286.6,79 							"/>
							<line class="st27" x1="289" y1="104.1" x2="281.5" y2="104.8"/>
							
								<rect x="287" y="78.6" transform="matrix(0.9955 -9.434393e-02 9.434393e-02 0.9955 -6.483 27.7787)" class="st27" width="7.1" height="7.7"/>
							<polygon class="st27" points="289,104.1 290.7,121.5 283.1,122.2 281.5,104.8 280.7,97.1 288.3,96.4 							"/>
							<path class="st27" d="M249.6,92c0,0.2,0,0.3,0,0.5l1.1,11.3l1.1,11.3c0.5,5.5,5.4,9.5,10.9,9c5.5-0.5,9.5-5.4,9-10.9"/>
							<path class="st27" d="M269.6,90.5c-0.5-5.5-5.4-9.5-10.9-8.9c-5.2,0.5-9.1,4.8-9.1,9.9c0,0.2,0,0.3,0,0.4"/>
							<polygon class="st27" points="262.4,90.5 264.7,114.8 258.9,115.3 256.6,91 							"/>
							<path class="st27" d="M269.6,90.5l-0.1-1.2c-0.5-4.8-3.8-8.4-7.5-8.1l-3.2,0.3l-3.3,0.3c-3.7,0.3-6.3,4.5-5.9,9.3l0.1,0.7v0
								l1.1,11.8l1.2,12.6c0.5,4.8,3.8,8.4,7.5,8.1l3.2-0.3l3.2-0.3c3.7-0.3,6.3-4.5,5.9-9.3l-0.1-1.2L269.6,90.5z"/>
							<polyline class="st27" points="241.1,108.6 239.1,108.8 235.9,109.1 235.1,109.2 231.5,109.5 230,109.7 228.1,109.9 							
								"/>
							<line class="st27" x1="242.9" y1="108.4" x2="241.1" y2="108.6"/>
							<polyline class="st27" points="233,125.7 232.9,124.4 231.5,109.5 231.5,109 230.8,101.9 233.6,101.6 							"/>
							<polyline class="st27" points="236,101.4 238.3,101.2 239,108.1 239.1,108.8 240.6,123.6 240.9,126.3 233.4,127 							"/>
							<polyline class="st27" points="242.9,109.1 241.1,108.6 241.1,108.6 239,108.1 239,108.1 235.3,107.2 							"/>
							<polyline class="st27" points="236.2,99.6 238,83.6 245.9,82.8 243.7,101.5 							"/>
							<polygon class="st27" points="243.7,101.5 242.9,108.4 242.9,109.1 240.9,126.3 240.7,126.2 237,125.3 233.4,124.3 
								235.1,109.2 235.1,109.2 235.3,107.2 235.3,107.2 236,101.4 236.2,99.6 							"/>
							<polyline class="st27" points="226,103.2 220.4,85.2 228.2,84.5 233.1,99.9 							"/>
							<polyline class="st27" points="235.3,107.2 231.5,109 230,109.7 230,109.7 228.3,110.5 							"/>
							<polygon class="st27" points="240.5,123.7 237,125.3 233.4,127 233,125.7 228.3,110.5 228.1,109.9 226.9,106.2 226,103.2 
								233.1,99.9 233.6,101.6 235.3,107.2 235.3,107.2 235.9,109.1 							"/>
						</g>
					</g>
				</g>
			</g>
		</g>
	</g>
	<g id="vote3">
		<g>
			<path class="st16" d="M603.8,124.5c-1.3,2.1-1.2,4-1.1,7c0.1,3.3,0.2,4.9,1.4,6.2c1.4,1.3,3.4,1.5,5.8,1.7
				c2.9,0.2,7.4,0.6,9.8-1.4c5.1-4.2,0.2-18-6.3-18.7c-1.9-0.2-4.6,0.7-6.5,1.9C606.5,121.6,604.9,122.6,603.8,124.5z"/>
			
				<rect x="508.5" y="65.3" transform="matrix(0.9975 -7.010026e-02 7.010026e-02 0.9975 -5.5793 39.7699)" class="st19" width="110.7" height="68.1"/>
			<polygon class="st28" points="621.9,144 612.5,200 590.1,200 600.1,140.3 			"/>
			
				<rect x="602.5" y="136.6" transform="matrix(0.9863 0.1648 -0.1648 0.9863 31.3379 -98.995)" class="st18" width="19.4" height="5.5"/>
			<polygon class="st28" points="539.4,200 517.1,200 509.9,143.7 531.9,140.9 			"/>
			
				<rect x="510.8" y="137.2" transform="matrix(0.9921 -0.1257 0.1257 0.9921 -13.397 66.5576)" class="st18" width="19.5" height="4.4"/>
			<g>
				<g>
					<path class="st16" d="M508.9,135.8l7.9,4.6c1,0.6,2.4,0.2,3-0.8l0,0c0.6-1,0.2-2.4-0.8-3l-7.9-4.6c-1-0.6-2.4-0.2-3,0.8l0,0
						C507.5,133.8,507.9,135.2,508.9,135.8z"/>
					<path class="st20" d="M516.5,138.8c0.2,0.5,1,0.6,1.4,0.5c0.2,0,0.8-0.1,1-0.6c0.2-0.4-0.1-0.8-0.2-1c-0.1-0.1-0.4-0.6-0.8-0.7
						C517,137,516.2,138.2,516.5,138.8z"/>
				</g>
				<g>
					<path class="st16" d="M505.6,128.2l9.9,5.7c1,0.6,2.4,0.2,3-0.8l0,0c0.6-1,0.2-2.4-0.8-3l-9.9-5.7c-1-0.6-2.4-0.2-3,0.8v0
						C504.2,126.3,504.6,127.6,505.6,128.2z"/>
					<path class="st20" d="M515.5,132.8c0.3,0.4,1,0.5,1.5,0.4c0.2,0,0.8-0.2,0.9-0.7c0.1-0.4-0.2-0.8-0.3-1
						c-0.1-0.1-0.4-0.6-0.9-0.6C516,130.9,515.2,132.2,515.5,132.8z"/>
				</g>
				<g>
					<path class="st16" d="M504.2,121.6l11.3,6.5c1,0.6,2.4,0.2,3-0.8c0.6-1,0.2-2.4-0.8-3l-11.3-6.5c-1-0.6-2.4-0.2-3,0.8
						C502.8,119.7,503.2,121,504.2,121.6z"/>
					<path class="st20" d="M515.6,126.9c0.3,0.4,1,0.5,1.5,0.3c0.2,0,0.8-0.2,0.9-0.7c0.1-0.4-0.2-0.8-0.3-1
						c-0.1-0.1-0.5-0.6-0.9-0.6C515.9,125,515.2,126.2,515.6,126.9z"/>
				</g>
				<g>
					<path class="st16" d="M507.6,115.9l6.5,5.6c0.9,0.8,2.3,0.7,3.1-0.2l0,0c0.8-0.9,0.7-2.3-0.2-3.1l-6.5-5.6
						c-0.9-0.8-2.3-0.7-3.1,0.2v0C506.6,113.7,506.7,115.1,507.6,115.9z"/>
					<path class="st20" d="M514.1,120.2c0.1,0.5,0.8,0.7,1.3,0.8c0.2,0,0.8,0,1.1-0.4c0.2-0.4,0-0.8,0-1c-0.1-0.2-0.3-0.7-0.7-0.8
						C515,118.4,513.9,119.4,514.1,120.2z"/>
				</g>
			</g>
			<g>
				<g>
					<path class="st16" d="M624.2,132.9L617,137c-0.9,0.5-2.2,0.2-2.7-0.7h0c-0.5-0.9-0.2-2.2,0.7-2.7l7.2-4.2
						c0.9-0.5,2.2-0.2,2.7,0.7l0,0C625.5,131.1,625.2,132.3,624.2,132.9z"/>
					<path class="st20" d="M617.4,135.6c-0.2,0.4-0.9,0.5-1.3,0.5c-0.1,0-0.7-0.1-0.9-0.5c-0.1-0.4,0.1-0.7,0.2-0.9
						c0.1-0.1,0.4-0.6,0.8-0.6C616.8,134,617.7,135,617.4,135.6z"/>
				</g>
				<g>
					<path class="st16" d="M627.2,126l-9,5.2c-0.9,0.5-2.2,0.2-2.7-0.7l0,0c-0.5-0.9-0.2-2.2,0.7-2.7l9-5.2c0.9-0.5,2.2-0.2,2.7,0.7
						l0,0C628.5,124.2,628.2,125.5,627.2,126z"/>
					<path class="st20" d="M618.2,130.2c-0.2,0.4-0.9,0.4-1.3,0.3c-0.1,0-0.7-0.2-0.8-0.6c-0.1-0.4,0.2-0.7,0.3-0.9
						c0.1-0.1,0.4-0.5,0.8-0.5C617.8,128.4,618.5,129.6,618.2,130.2z"/>
				</g>
				<g>
					<path class="st16" d="M628.5,120l-10.3,6c-0.9,0.5-2.2,0.2-2.7-0.7c-0.5-0.9-0.2-2.2,0.7-2.7l10.3-6c0.9-0.5,2.2-0.2,2.7,0.7
						C629.8,118.2,629.5,119.4,628.5,120z"/>
					<path class="st20" d="M618.2,124.8c-0.2,0.4-0.9,0.4-1.3,0.3c-0.1,0-0.7-0.2-0.8-0.6c-0.1-0.4,0.2-0.7,0.3-0.9
						c0.1-0.1,0.4-0.5,0.8-0.5C617.9,123,618.5,124.2,618.2,124.8z"/>
				</g>
				<g>
					<path class="st16" d="M625.4,114.8l-5.9,5.1c-0.8,0.7-2.1,0.6-2.8-0.2l0,0c-0.7-0.8-0.6-2.1,0.2-2.8l5.9-5.1
						c0.8-0.7,2.1-0.6,2.8,0.2l0,0C626.3,112.8,626.3,114.1,625.4,114.8z"/>
					<path class="st20" d="M619.5,118.7c-0.1,0.4-0.8,0.7-1.2,0.7c-0.1,0-0.7,0-1-0.4c-0.2-0.3,0-0.7,0-0.9c0.1-0.1,0.2-0.6,0.6-0.7
						C618.7,117.1,619.7,118,619.5,118.7z"/>
				</g>
			</g>
			<g>
				<g>
					<g id="XMLID_3_">
						<g>
							
								<rect x="605.7" y="108.2" transform="matrix(0.994 -0.1093 0.1093 0.994 -8.5891 67.3336)" class="st21" width="8.6" height="7.6"/>
							<polygon class="st21" points="612,90.6 612.9,98.1 604.3,99.1 603.5,91.5 							"/>
							
								<rect x="602" y="73.8" transform="matrix(0.994 -0.1093 0.1093 0.994 -4.8516 66.7145)" class="st21" width="8.6" height="7.6"/>
							<polygon class="st21" points="605.3,108.7 606.2,116.3 597,117.3 595.1,100.1 604.3,99.1 							"/>
							<polygon class="st21" points="603.5,91.5 604.3,99.1 595.1,100.1 594.3,92.5 							"/>
							<polygon class="st21" points="602.4,81.9 603.5,91.5 594.3,92.5 592.4,75.3 601.6,74.3 							"/>
							<polygon class="st21" points="589.1,76.1 589.9,83.6 582.5,84.4 581.7,76.9 							"/>
							<polygon class="st21" points="584.4,101.6 586.3,118.8 578.5,119.7 576.6,102.5 							"/>
							<polygon class="st21" points="583.6,94.1 584.4,101.6 576.6,102.5 575.8,94.9 							"/>
							<polygon class="st21" points="582.5,84.4 583.6,94.1 575.8,94.9 573.9,77.8 573.9,77.7 581.7,76.9 							"/>
							<path class="st21" d="M573.9,77.8l0.8,7.5c0,0,0,0,0,0l-7.3,0.8c0,0,0,0,0,0l-0.8-7.5c0,0,0,0,0,0L573.9,77.8
								C573.9,77.7,573.9,77.8,573.9,77.8z"/>
							<path class="st21" d="M566.7,112.3c0.5,4.7-2.2,8.9-6,9.3l-3.3,0.4c5.7-0.6,9.8-5.8,9.2-11.5l-2.3-21.3L566.7,112.3z"/>
							<path class="st21" d="M566.5,110.6c0.6,5.7-3.5,10.8-9.2,11.5h0c-5.7,0.6-10.8-3.5-11.5-9.2l-2.3-21.3c0-0.4-0.1-0.7-0.1-1.1
								c0-5.2,3.9-9.7,9.3-10.3c5.7-0.6,10.8,3.5,11.5,9.2L566.5,110.6z M559.3,112.7l-2.6-23.9l-6,0.7l2.6,23.9L559.3,112.7z"/>
							<path class="st21" d="M563.9,87.5l0.2,1.7c-0.6-5.7-5.8-9.8-11.5-9.2l3.4-0.4C559.9,79.3,563.4,82.8,563.9,87.5z"/>
							<polygon class="st22" points="556.7,88.8 559.3,112.7 553.3,113.3 550.6,89.4 							"/>
							<path class="st21" d="M557.3,122l-3.4,0.4c-3.8,0.4-7.4-3.1-7.9-7.8l-0.2-1.7C546.4,118.5,551.6,122.7,557.3,122z"/>
							<path class="st21" d="M549.3,80.4l3.4-0.4c-5.3,0.6-9.3,5.1-9.3,10.3c0,0.4,0,0.7,0.1,1.1l-0.2-1.7
								C542.8,85.1,545.5,80.9,549.3,80.4z"/>
							<polygon class="st21" points="539.4,81.5 537.3,100.1 529.5,98.3 531.2,82.4 							"/>
							<polygon class="st21" points="537.3,100.1 536.6,106.9 534.6,107.1 532.5,106.6 531.7,99.8 529.3,100.1 529.5,98.3 							
								"/>
							<polygon class="st21" points="536.6,106.9 536.5,107.5 534.6,107.1 534.6,107.1 							"/>
							<polygon class="st21" points="536.5,107.5 534.6,124.5 534.3,122 532.6,107.3 534.6,107.1 534.6,107.1 							"/>
							<polygon class="st21" points="534.3,122 534.6,124.5 534.5,124.5 530.6,123.6 534.2,122 							"/>
							<polygon class="st21" points="534.6,124.5 526.9,125.4 530.6,123.6 534.5,124.5 							"/>
							<polygon class="st21" points="532.5,106.6 534.6,107.1 532.6,107.3 							"/>
							<polygon class="st21" points="532.6,107.3 534.3,122 534.2,122 529.3,107.7 							"/>
							<polygon class="st21" points="529.3,107.7 534.2,122 530.6,123.6 526.8,122.8 528.4,107.8 							"/>
							<polygon class="st21" points="532.5,106.6 532.6,107.3 529.3,107.7 528.7,105.8 528.7,105.8 532.5,106.6 							"/>
							<polygon class="st21" points="531.7,99.8 532.5,106.6 532.5,106.6 528.7,105.8 529.3,100.1 							"/>
							<polygon class="st21" points="530.6,123.6 526.9,125.4 526.5,124.2 524.7,108.2 528.4,107.8 526.8,122.8 							"/>
							<polygon class="st21" points="528.7,105.8 529.3,107.7 528.4,107.8 							"/>
							<polygon class="st21" points="528.7,105.8 528.7,105.8 528.4,107.8 524.7,108.2 524.7,107.7 							"/>
							<polygon class="st21" points="526.8,100.3 528.7,105.8 524.7,107.7 523.9,100.7 							"/>
							<polygon class="st21" points="526.2,98.7 526.8,100.3 523.9,100.7 524.7,107.7 523.1,108.4 523.1,108.4 521.2,108.6 
								519.9,105 519,102.1 							"/>
							<polygon class="st21" points="524.7,108.2 526.5,124.2 521.4,109.2 523.1,108.4 523.1,108.4 							"/>
							<polygon class="st21" points="521.1,83.5 526.2,98.7 519,102.1 512.9,84.4 							"/>
							<polygon class="st21" points="524.7,107.7 524.7,108.2 523.1,108.4 							"/>
							<polygon class="st21" points="523.1,108.4 521.4,109.2 521.2,108.6 							"/>
							<polygon class="st21" points="519.9,105 521.2,108.6 521.2,108.6 							"/>
						</g>
						<g>
							<line class="st27" x1="602.4" y1="81.9" x2="603.5" y2="91.5"/>
							<polyline class="st27" points="594.3,92.5 592.4,75.3 601.6,74.3 							"/>
							<line class="st27" x1="604.3" y1="99.1" x2="595.1" y2="100.1"/>
							
								<rect x="602" y="73.8" transform="matrix(0.994 -0.109 0.109 0.994 -4.8489 66.5643)" class="st27" width="8.6" height="7.6"/>
							<polyline class="st27" points="604.3,99.1 612.9,98.1 612,90.6 603.5,91.5 							"/>
							<polyline class="st27" points="606.2,116.3 597,117.3 595.1,100.1 594.3,92.5 603.5,91.5 604.3,99.1 605.3,108.7 							"/>
							
								<rect x="605.7" y="108.2" transform="matrix(0.994 -0.109 0.109 0.994 -8.5781 67.1815)" class="st27" width="8.6" height="7.6"/>
							<path class="st27" d="M574.7,85.3l-7.3,0.8c0,0,0,0,0,0l-0.8-7.5c0,0,0,0,0,0l7.3-0.8c0,0,0,0,0,0L574.7,85.3
								C574.7,85.3,574.7,85.3,574.7,85.3z"/>
							<line class="st27" x1="582.5" y1="84.4" x2="583.6" y2="94.1"/>
							<polyline class="st27" points="575.8,94.9 573.9,77.8 573.9,77.7 581.7,76.9 							"/>
							<line class="st27" x1="584.4" y1="101.6" x2="576.6" y2="102.5"/>
							<polygon class="st27" points="582.5,84.4 589.9,83.6 589.1,76.1 581.7,76.9 							"/>
							<polygon class="st27" points="584.4,101.6 586.3,118.8 578.5,119.7 576.6,102.5 575.8,94.9 583.6,94.1 							"/>
							<path class="st27" d="M545.8,112.8c0.6,5.7,5.8,9.8,11.5,9.2"/>
							<path class="st27" d="M557.3,122c5.7-0.6,9.8-5.8,9.2-11.5l-2.3-21.3c-0.6-5.7-5.8-9.8-11.5-9.2c-5.3,0.6-9.3,5.1-9.3,10.3
								c0,0.4,0,0.7,0.1,1.1"/>
							<polygon class="st27" points="556.7,88.8 559.3,112.7 553.3,113.3 550.6,89.4 							"/>
							<path class="st27" d="M564.1,89.3l-0.2-1.7c-0.5-4.7-4.1-8.2-7.9-7.8l-3.4,0.4l-3.4,0.4c-3.8,0.4-6.5,4.6-6,9.3l0.2,1.7
								l2.3,21.3l0.2,1.7c0.5,4.7,4.1,8.2,7.9,7.8l3.4-0.4h0l3.3-0.4c3.8-0.4,6.5-4.6,6-9.3L564.1,89.3z"/>
							<line class="st27" x1="523.1" y1="108.4" x2="521.2" y2="108.6"/>
							<polyline class="st27" points="536.6,106.9 534.6,107.1 532.6,107.3 529.3,107.7 528.4,107.8 524.7,108.2 523.1,108.4 
															"/>
							<polyline class="st27" points="526.5,124.2 524.7,108.2 524.7,107.7 523.9,100.7 526.8,100.3 							"/>
							<polyline class="st27" points="529.3,100.1 531.7,99.8 532.5,106.6 532.6,107.3 534.3,122 534.6,124.5 526.9,125.4 							
								"/>
							<polyline class="st27" points="536.5,107.5 534.6,107.1 534.6,107.1 532.5,106.6 532.5,106.6 528.7,105.8 							"/>
							<polyline class="st27" points="529.5,98.3 531.2,82.4 539.4,81.5 537.3,100.1 							"/>
							<polygon class="st27" points="537.3,100.1 536.6,106.9 536.5,107.5 534.6,124.5 534.5,124.5 530.6,123.6 526.8,122.8 
								528.4,107.8 528.7,105.8 528.7,105.8 529.3,100.1 529.5,98.3 							"/>
							<polyline class="st27" points="519,102.1 512.9,84.4 521.1,83.5 526.2,98.7 							"/>
							<polyline class="st27" points="521.2,108.6 521.2,108.6 519.9,105 							"/>
							<polyline class="st27" points="528.7,105.8 524.7,107.7 523.1,108.4 523.1,108.4 521.4,109.2 							"/>
							<polygon class="st27" points="534.2,122 530.6,123.6 526.9,125.4 526.5,124.2 521.4,109.2 521.2,108.6 519.9,105 519,102.1 
								526.2,98.7 526.8,100.3 528.7,105.8 528.7,105.8 529.3,107.7 							"/>
						</g>
					</g>
				</g>
			</g>
		</g>
	</g>
</g>
</svg>
