<?xml version="1.0" encoding="utf-8"?>
<!-- Generator: Adobe Illustrator 21.0.2, SVG Export Plug-In . SVG Version: 6.00 Build 0)  -->
<svg version="1.1" id="Layer_1" xmlns="http://www.w3.org/2000/svg" xmlns:xlink="http://www.w3.org/1999/xlink" x="0px" y="0px"
	 viewBox="0 0 700 200" style="enable-background:new 0 0 700 200;" xml:space="preserve">
<style type="text/css">
	.st0{fill:#A5D388;}
	.st1{opacity:0.8;}
	.st2{fill:#4F6377;}
	.st3{fill:#8C959D;}
	
		.st4{fill:none;stroke:#8C959D;stroke-width:18;stroke-linecap:square;stroke-miterlimit:10;stroke-dasharray:2.128269e-02,28.7103;}
	.st5{fill:#9EA0A4;}
	
		.st6{fill:none;stroke:#9EA0A4;stroke-width:17;stroke-linecap:square;stroke-miterlimit:10;stroke-dasharray:1.926870e-02,25.9935;}
	.st7{fill:#858E8D;}
	
		.st8{fill:none;stroke:#858E8D;stroke-width:18;stroke-linecap:square;stroke-miterlimit:10;stroke-dasharray:2.128269e-02,28.7103;}
	.st9{fill:#80739C;}
	.st10{opacity:0.85;}
	.st11{fill:#FFFFFF;}
	.st12{fill:#603A12;}
	.st13{display:none;fill:#A8A8AD;}
	.st14{fill:#A8A8AD;}
	.st15{display:none;fill:#CCCCCC;}
	.st16{opacity:0.15;fill:#1B1464;enable-background:new    ;}
	.st17{fill:none;stroke:#1B1464;stroke-width:5;stroke-linejoin:round;stroke-miterlimit:10;}
	.st18{fill:#FFFFFF;stroke:#1B1464;stroke-miterlimit:10;}
	.st19{fill:url(#SVGID_1_);}
	.st20{fill:#E9E9EA;}
	.st21{display:none;fill:none;stroke:#000000;stroke-width:0.25;stroke-miterlimit:10;}
	.st22{fill:#1B1464;stroke:#1B1464;stroke-width:3;stroke-linejoin:round;stroke-miterlimit:10;}
</style>
<g id="background">
	<rect x="-0.5" y="-0.5" class="st0" width="700" height="200"/>
</g>
<g id="rouage">
	<g>
		
			<image style="overflow:visible;opacity:0.6;" width="118" height="119" xlink:href="1EB8FE051864E73A.png"  transform="matrix(1 0 0 1 464.3 66.4956)">
		</image>
		<g>
			<g>
				<g class="st1">
					<path class="st2" d="M515.2,104.9c9.3,0,16.8,7.7,16.8,17.2s-7.5,17.2-16.8,17.2s-16.8-7.7-16.8-17.2S506,104.9,515.2,104.9
						L515.2,104.9z M515.2,89.9c-17.6,0-31.8,14.4-31.8,32.2s14.2,32.2,31.8,32.2s31.8-14.4,31.8-32.2S532.8,89.9,515.2,89.9
						L515.2,89.9z"/>
				</g>
				<path class="st3" d="M515.2,99.9c12,0,21.8,10,21.8,22.2c0,12.3-9.8,22.2-21.8,22.2s-21.8-10-21.8-22.2
					C493.4,109.9,503.2,99.9,515.2,99.9L515.2,99.9z M515.2,89.9c-17.6,0-31.8,14.4-31.8,32.2s14.2,32.2,31.8,32.2
					s31.8-14.4,31.8-32.2S532.8,89.9,515.2,89.9L515.2,89.9z"/>
				<ellipse class="st4" cx="515.2" cy="122.1" rx="31.8" ry="32.2"/>
			</g>
		</g>
	</g>
	<g>
		
			<image style="overflow:visible;opacity:0.55;" width="89" height="89" xlink:href="1EB8FE051864E73E.png"  transform="matrix(1 0 0 1 486 -5.5544)">
		</image>
		<g>
			<g>
				<g class="st1">
					<path class="st2" d="M522.9,29.7c4.5-1.4,9.4,1.2,10.8,5.8c1.4,4.6-1,9.5-5.6,11c-4.5,1.4-9.4-1.2-10.8-5.8
						C515.9,36,518.4,31.1,522.9,29.7L522.9,29.7z M519.3,18.2c-10.9,3.4-16.9,15-13.4,26c3.4,11,15,17.1,25.9,13.7
						c10.9-3.4,16.9-15,13.4-26C541.7,20.9,530.1,14.8,519.3,18.2L519.3,18.2z"/>
				</g>
				<path class="st5" d="M522,26.8c6.1-1.9,12.7,1.6,14.6,7.8c1.9,6.2-1.4,12.8-7.5,14.7s-12.7-1.6-14.6-7.8
					C512.5,35.3,516,28.7,522,26.8L522,26.8z M519.3,18.2c-10.9,3.4-16.9,15-13.4,26c3.4,11,15,17.1,25.9,13.7
					c10.9-3.4,16.9-15,13.4-26C541.7,20.9,530.1,14.8,519.3,18.2L519.3,18.2z"/>
				<ellipse transform="matrix(0.954 -0.2997 0.2997 0.954 12.7531 159.241)" class="st6" cx="525.5" cy="38" rx="20.6" ry="20.8"/>
			</g>
		</g>
	</g>
	<g>
		
			<image style="overflow:visible;opacity:0.55;" width="183" height="183" xlink:href="1EB8FE051864E739.png"  transform="matrix(1 0 0 1 535.4357 -10.0044)">
		</image>
		<g>
			<g>
				<g class="st1">
					<path class="st2" d="M615.9,48c16,0,28.9,13.2,28.9,29.6s-12.9,29.6-28.9,29.6S587,94,587,77.6S600.1,48,615.9,48L615.9,48z
						 M615.9,22.2c-30.3,0-54.7,24.8-54.7,55.4s24.4,55.4,54.7,55.4s54.7-24.8,54.7-55.4S646.2,22.2,615.9,22.2L615.9,22.2z"/>
				</g>
				<path class="st7" d="M615.9,39.4c20.6,0,37.5,17.2,37.5,38.2c0,21.1-16.8,38.2-37.5,38.2s-37.5-17.3-37.5-38.2
					C578.4,56.6,595.3,39.4,615.9,39.4L615.9,39.4z M615.9,22.2c-30.3,0-54.7,24.8-54.7,55.4s24.4,55.4,54.7,55.4
					s54.7-24.8,54.7-55.4S646.2,22.2,615.9,22.2L615.9,22.2z"/>
				<ellipse class="st8" cx="615.9" cy="77.6" rx="54.7" ry="55.4"/>
			</g>
		</g>
	</g>
</g>
<g id="lines">
	<g>
		<g>
			<path class="st9" d="M188.3,53.6c0-0.5,0.3-1.2,0.6-1.6c0.4-0.5,0.9-0.9,1.4-1.2c1-0.7,2.1-1.3,3.3-1.8c2.3-1,4.7-1.8,7.2-2.5
				c4.9-1.4,9.8-2.5,14.8-3.5c10-1.9,20.1-3.4,30.1-4.8c20.2-2.7,40.5-4.6,60.8-6.2c40.6-3.3,81.3-5.4,122.1-6.9
				c3.7-0.1,6.7,2.5,6.9,5.8c0.1,3.4-2.7,6.1-6.4,6.3c-0.1,0-0.3,0-0.4,0c-40.6-0.6-81.2-0.5-121.8,0.7c-20.3,0.6-40.6,1.6-60.8,3.2
				c-10.1,0.8-20.2,1.8-30.2,3.2c-5,0.7-10,1.6-14.9,2.7c-2.4,0.5-4.9,1.3-7.2,2.1c-1.2,0.5-2.3,0.9-3.3,1.6c-0.5,0.4-1,0.7-1.4,1.1
				C188.7,52.5,188.4,53,188.3,53.6z"/>
			<g>
				<polygon class="st9" points="422.3,51.9 461,31 421.9,10.8 				"/>
			</g>
		</g>
	</g>
	<g>
		<g>
			<path class="st9" d="M612.1,145.4c0.1,2.6-1.1,5.1-2.8,7c-1.7,2-3.7,3.6-5.8,5.1c-4.3,2.9-9,5.1-13.7,7.1
				c-9.6,3.8-19.5,6.6-29.5,8.9c-20,4.6-40.4,7.3-60.9,9.1l-0.4-9.9c20.2-0.1,40.4-1.2,60.4-4.1c10-1.5,19.9-3.4,29.6-6.4
				c4.8-1.5,9.5-3.3,13.9-5.8c2.2-1.3,4.3-2.7,6-4.5C610.6,150.3,612,148,612.1,145.4z"/>
			<g>
				<polygon class="st9" points="504,159.6 473.3,178.3 504.9,195.4 				"/>
			</g>
		</g>
	</g>
	<g>
		<g>
			<path class="st9" d="M169,148.1c7,3.1,14.7,5.5,22.3,7.7c7.7,2,15.6,3.7,23.5,5.1c15.9,2.8,32,4.5,48.2,5.4
				c-16.2,0.8-32.5,0.9-48.7,0c-8.2-0.5-16.4-1.4-24.4-2.6c-8.2-1.2-16.4-2.8-24.4-5.5L169,148.1z"/>
			<g>
				<polygon class="st9" points="161.8,168.7 149,137.6 181.6,141.6 				"/>
			</g>
		</g>
	</g>
</g>
<g id="analyze">
	<g id="sketch_board" class="st10">
		<path class="st11" d="M127.3,126.8h11.9c0.5,0,0.9-0.4,0.9-1v-0.2c0-0.6-0.4-1-0.9-1h-11.9c-0.5,0-0.9,0.4-0.9,1v0.2
			C126.4,126.3,126.8,126.8,127.3,126.8z"/>
		<path class="st12" d="M168.7,129.8H98.4c-4.3,0-7.8-3.9-7.8-8.7V19.4c0-4.8,3.5-8.7,7.8-8.7h70.3c4.3,0,7.8,3.9,7.8,8.7v101.8
			C176.5,125.9,173,129.8,168.7,129.8z"/>
	</g>
	<g id="paper">
		<ellipse class="st13" cx="356.1" cy="61.9" rx="13.8" ry="13.4"/>
		<rect x="99.5" y="19" class="st11" width="67.9" height="102.7"/>
		<rect x="135.7" y="80.9" class="st11" width="27.4" height="18.9"/>
		<rect x="135.7" y="101.3" class="st11" width="27.4" height="18.9"/>
		<rect x="103.3" y="101.3" class="st11" width="27.4" height="18.9"/>
		<rect x="103.3" y="80.9" class="st11" width="27.4" height="18.9"/>
		<rect x="103.3" y="46.2" class="st14" width="27.4" height="7.2"/>
		<rect x="103.3" y="60.7" class="st11" width="27.4" height="18.9"/>
		<rect x="135.7" y="20.1" class="st14" width="27.4" height="18.9"/>
		<path class="st11" d="M135.7,40.4v18.9h27.4V40.4H135.7z M144,46.3v0.6h19.1v1.8h-19.8C143.5,47.8,143.7,47,144,46.3
			C143.9,46.3,144,46.3,144,46.3z M143.5,53.5c-0.2-0.8-0.3-1.6-0.3-2.4h20v2.4H143.5z"/>
		<rect x="135.7" y="60.7" class="st11" width="27.4" height="18.9"/>
		<rect x="103.3" y="20.1" class="st11" width="27.4" height="18.9"/>
		<path class="st14" d="M143.9,46.3c-0.3,0.8-0.5,1.6-0.6,2.4h-7.6v-2.4H143.9z"/>
		<path class="st14" d="M143.5,53.5h-7.7v-2.4h7.5C143.2,51.9,143.3,52.8,143.5,53.5z"/>
		<rect x="135.7" y="85.8" class="st14" width="27.4" height="2.4"/>
		<rect x="103.2" y="86.3" class="st14" width="27.4" height="11.7"/>
		<rect x="135.7" y="90.6" class="st14" width="27.4" height="2.4"/>
		<rect x="135.7" y="95.5" class="st14" width="27.4" height="2.4"/>
		<rect x="103.3" y="61.6" class="st14" width="27.4" height="2.4"/>
		<rect x="103.3" y="66.4" class="st14" width="27.4" height="2.4"/>
		<rect x="103.3" y="71.3" class="st14" width="27.4" height="2.4"/>
		<rect x="103.3" y="76.1" class="st14" width="27.4" height="2.4"/>
		<rect x="103.4" y="105.1" class="st14" width="59.9" height="2.5"/>
		<rect x="103.3" y="112.2" class="st14" width="27.4" height="2.7"/>
		<rect x="103.3" y="116.7" class="st14" width="27.4" height="2.7"/>
		<rect x="136.1" y="112.2" class="st14" width="27.4" height="7.2"/>
		<rect x="117.5" y="20.2" class="st14" width="13.1" height="8.5"/>
		<rect x="103.4" y="29.9" class="st14" width="13.1" height="9"/>
		<rect x="103.4" y="20.2" class="st14" width="13.1" height="8.5"/>
		<rect x="117.5" y="29.9" class="st14" width="13.1" height="9"/>
		<rect x="149.9" y="60.7" class="st14" width="13.1" height="8.5"/>
		<rect x="135.8" y="70.4" class="st14" width="13.1" height="9"/>
		<rect x="135.8" y="60.7" class="st14" width="13.1" height="8.5"/>
		<rect x="149.9" y="70.4" class="st14" width="13.1" height="9"/>
		<ellipse class="st15" cx="329.7" cy="21.9" rx="2.8" ry="2.7"/>
		<path class="st14" d="M165.3,56.8h-23.7v-3.3h25.6L165.3,56.8z"/>
		<path class="st14" d="M168.8,48.9c-0.6,0.8-1.5,1.4-2.5,1.9c0.2,0.1,0.3,0.1,0.4,0.2l0.3,0.2h-23.7v-3.3H169L168.8,48.9
			L168.8,48.9z"/>
		<g id="Layer_2">
		</g>
		<g id="Layer_3">
		</g>
	</g>
	<path class="st16" d="M168.2,49c0.6,7.9-5.5,14.6-13.2,14.8c-7.3,0.1-13.4-5.7-13.9-13.2c-0.6-7.9,5.5-14.6,13.2-14.8
		C161.6,35.8,167.7,41.7,168.2,49z"/>
	<circle class="st17" cx="154.7" cy="49.9" r="12.3"/>
	<path class="st18" d="M150.5,43c2.5-1.6,5.2-0.8,5.8-0.6c3.2,0.9,5.1,3.5,5.1,4.4c0,0.2,0.1,0.5-0.2,0.8c-0.2,0.3-0.7,0.3-1,0.3
		c-0.5-0.2-0.8-0.7-0.9-0.9c-0.7-1-1.8-1.6-2.6-2.1c-1.9-0.9-4.7-0.4-5.7,0.6c-0.2,0.3-0.5,0.5-1.2,1.1c-0.5,0.4-0.8,0.7-1,0.6
		c-0.4,0-0.8-0.4-0.8-0.8C147.6,45.4,149.1,43.8,150.5,43z"/>
</g>
<g id="laptop">
	<g>
		
			<linearGradient id="SVGID_1_" gradientUnits="userSpaceOnUse" x1="272.8043" y1="116.0658" x2="431.9019" y2="31.8157" gradientTransform="matrix(1 0 0 -1 0 200)">
			<stop  offset="0" style="stop-color:#FFFFFF"/>
			<stop  offset="8.292198e-03" style="stop-color:#F9FCFD"/>
			<stop  offset="7.953721e-02" style="stop-color:#C8E9F0"/>
			<stop  offset="0.1564" style="stop-color:#9BD7E5"/>
			<stop  offset="0.2372" style="stop-color:#75C7DA"/>
			<stop  offset="0.3228" style="stop-color:#55BAD2"/>
			<stop  offset="0.4149" style="stop-color:#3AAFCB"/>
			<stop  offset="0.5157" style="stop-color:#26A7C6"/>
			<stop  offset="0.6298" style="stop-color:#18A1C2"/>
			<stop  offset="0.7684" style="stop-color:#109EC0"/>
			<stop  offset="1" style="stop-color:#0D9DBF"/>
		</linearGradient>
		<path class="st19" d="M425,169.9H288.1V91.5c0-4.5,3.6-8.1,8.1-8.1h120.6c4.5,0,8.1,3.6,8.1,8.1L425,169.9L425,169.9z"/>
		<path class="st20" d="M416.9,88.8c1.5,0,2.8,1.2,2.8,2.8v72.9H293.5v-73c0-1.5,1.2-2.8,2.8-2.8h120.6 M416.9,83.4H296.2
			c-4.5,0-8.1,3.6-8.1,8.1v78.3H425V91.5C425,87,421.4,83.4,416.9,83.4L416.9,83.4z"/>
	</g>
	<g>
		<polygon class="st20" points="279.6,182.1 288.8,174.5 424.3,174.5 433.5,182.1 		"/>
		<path class="st20" d="M423.6,176.5l4.4,3.6H285.2l4.4-3.6H423.6 M425,172.5H288.1L274,184.1h165.1L425,172.5L425,172.5z"/>
	</g>
	<g>
		<path class="st2" d="M304.1,188c-8.2-0.1-15.8-0.8-21.2-1.8l147.3-0.1c-5.1,1-12.3,1.7-20.1,1.8L304.1,188z"/>
		<path class="st2" d="M439.1,184.1L439.1,184.1L274,184.2l0,0l3.4,2.6c5,1.8,15,3,26.7,3.2l105.9-0.1h0.1
			c11.2-0.2,20.7-1.5,25.5-3.2l3.3-2.5L439.1,184.1L439.1,184.1L439.1,184.1z"/>
	</g>
	<path class="st21" d="M277.2,374.6c-0.9,0-1.8,0-2.7,0c-15.2-0.2-28.2-1.8-34.7-4.1c-2.9-1-4.6-2.2-4.6-3.4"/>
	<path class="st21" d="M407.9,374.5c1.5,0,2.9,0,4.3,0h0.1c14.6-0.3,26.9-1.9,33.2-4.1c2.8-1,4.4-2.1,4.4-3.3c0,0,0,0,0-0.1"/>
	<line class="st21" x1="277.2" y1="374.6" x2="407.9" y2="374.5"/>
	<line class="st21" x1="449.9" y1="367.1" x2="235.2" y2="367.1"/>
	<line class="st21" x1="253.5" y1="339.9" x2="235.2" y2="367.1"/>
	<line class="st21" x1="431.5" y1="339.9" x2="449.9" y2="367.1"/>
	<line class="st21" x1="253.5" y1="339.9" x2="431.5" y2="339.9"/>
</g>
<path class="st22" d="M182.4,75.6l-19.2-16c-0.7-0.6-0.8-1.6-0.2-2.3l0,0c0.6-0.7,1.6-0.8,2.3-0.2l19.2,16c0.7,0.6,0.8,1.6,0.2,2.3
	l0,0C184.1,76.1,183.1,76.2,182.4,75.6z"/>
</svg>
