<?xml version="1.0" encoding="utf-8"?>
<!-- Generator: Adobe Illustrator 21.0.2, SVG Export Plug-In . SVG Version: 6.00 Build 0)  -->
<svg version="1.1" id="Layer_1" xmlns="http://www.w3.org/2000/svg" xmlns:xlink="http://www.w3.org/1999/xlink" x="0px" y="0px"
	 viewBox="0 0 700 200" style="enable-background:new 0 0 700 200;" xml:space="preserve">
<style type="text/css">
	.st0{fill:#D8CFA3;}
	.st1{fill:#FFFFFF;stroke:#231F20;stroke-width:0.25;stroke-miterlimit:10;}
	.st2{fill:#B7374D;stroke:#B7374D;stroke-width:0.25;stroke-miterlimit:10;}
	.st3{fill:#C96590;}
	.st4{fill:#D6E91A;}
	.st5{fill:#1B1464;}
	.st6{fill:#5576C6;stroke:#5576C6;stroke-width:0.25;stroke-miterlimit:10;}
	.st7{fill:#C68B55;stroke:#C68B55;stroke-width:0.25;stroke-miterlimit:10;}
	.st8{fill:#80C955;stroke:#80C955;stroke-width:0.25;stroke-miterlimit:10;}
	.st9{opacity:0.15;fill:#DB7FBC;enable-background:new    ;}
	.st10{fill:#59B364;stroke:#59B364;stroke-width:2;stroke-linejoin:round;stroke-miterlimit:10;}
	.st11{fill:none;stroke:#59B364;stroke-width:5;stroke-linejoin:round;stroke-miterlimit:10;}
	.st12{fill:none;stroke:#B5B4B1;stroke-miterlimit:10;}
	.st13{fill:#918E8E;}
	.st14{fill:#D5E7F0;}
	.st15{fill:#A3D6D3;}
	.st16{fill:#FFFFFF;}
	.st17{fill:none;stroke:#231F20;stroke-width:7;stroke-linejoin:round;stroke-miterlimit:10;}
	.st18{fill:none;stroke:#FFFFFF;stroke-miterlimit:10;}
	.st19{fill:none;stroke:#918E8E;stroke-miterlimit:10;}
	.st20{fill:#C96590;stroke:#C96590;stroke-miterlimit:10;}
	.st21{fill:#5576C6;stroke:#5576C6;stroke-miterlimit:10;}
	.st22{fill:#C68B55;stroke:#C68B55;stroke-miterlimit:10;}
</style>
<g id="Layer_1_1_">
	<g id="background">
		<rect x="-0.5" y="-0.5" class="st0" width="700" height="200"/>
	</g>
	<g id="text">
		<path class="st1" d="M604.2,27.5v105.3c0,7.1-5.8,12.9-12.9,12.9H486.1c-7.1,0-12.9-5.8-12.9-12.9V27.5c0-7.1,5.8-12.9,12.9-12.9
			h105.3C598.4,14.6,604.2,20.4,604.2,27.5z"/>
		<path class="st2" d="M604.2,27.5H473.2c0-7.1,5.8-12.9,12.9-12.9h105.3C598.4,14.6,604.2,20.4,604.2,27.5z"/>
		<circle class="st3" cx="491.7" cy="21" r="4.5"/>
		<circle class="st4" cx="506.3" cy="21" r="4.5"/>
		<circle class="st5" cx="521.1" cy="21" r="4.5"/>
		<path class="st1" d="M618.1,44.4v105.3c0,7.1-5.8,12.9-12.9,12.9H500c-7.1,0-12.9-5.8-12.9-12.9V44.4c0-7.1,5.8-12.9,12.9-12.9
			h105.3C612.3,31.5,618.1,37.3,618.1,44.4z"/>
		<path class="st6" d="M618.1,44.4H487.1c0-7.1,5.8-12.9,12.9-12.9h105.3C612.3,31.5,618.1,37.3,618.1,44.4z"/>
		<circle class="st3" cx="505.6" cy="37.8" r="4.5"/>
		<circle class="st4" cx="520.2" cy="37.8" r="4.5"/>
		<circle class="st5" cx="535" cy="37.8" r="4.5"/>
		<path class="st1" d="M632.2,57.8v105.3c0,7.1-5.8,12.9-12.9,12.9H514c-7.1,0-12.9-5.8-12.9-12.9V57.8c0-7.1,5.8-12.9,12.9-12.9
			h105.3C626.4,44.9,632.2,50.6,632.2,57.8z"/>
		<path class="st7" d="M632.2,57.8H501.1c0-7.1,5.8-12.9,12.9-12.9h105.3C626.4,44.9,632.2,50.6,632.2,57.8z"/>
		<circle class="st3" cx="519.7" cy="51.3" r="4.5"/>
		<circle class="st4" cx="534.4" cy="51.3" r="4.5"/>
		<circle class="st5" cx="549.1" cy="51.3" r="4.5"/>
		<rect x="515" y="68.5" class="st3" width="51.6" height="26.2"/>
		<rect x="515" y="102.9" class="st3" width="101.3" height="12.8"/>
		<path class="st1" d="M643.6,69.7V175c0,7.1-5.8,12.9-12.9,12.9H525.5c-7.1,0-12.9-5.8-12.9-12.9V69.7c0-7.1,5.8-12.9,12.9-12.9
			h105.3C637.8,56.8,643.6,62.6,643.6,69.7z"/>
		<path class="st8" d="M643.6,69.7H512.6c0-7.1,5.8-12.9,12.9-12.9h105.3C637.8,56.8,643.6,62.6,643.6,69.7z"/>
		<circle class="st3" cx="531.1" cy="63.4" r="4.5"/>
		<circle class="st4" cx="545.7" cy="63.4" r="4.5"/>
		<circle class="st5" cx="560.5" cy="63.4" r="4.5"/>
		<rect x="526.5" y="80.4" class="st3" width="51.6" height="26.2"/>
		<rect x="526.5" y="114.9" class="st3" width="101.3" height="12.8"/>
		<rect x="526.5" y="140.9" class="st3" width="101.3" height="11.9"/>
		<rect x="526.5" y="166.9" class="st3" width="101.3" height="10.8"/>
	</g>
	<g id="analyze">
		<g>
			<path class="st9" d="M537.7,176.6c-19.8-6.8-29.9-28.6-22.2-47.7c7.4-17.9,27.9-26.8,46.8-20.1c19.8,6.8,29.9,28.6,22.2,47.7
				C576.8,174.3,555.9,182.9,537.7,176.6z"/>
			<path class="st10" d="M454.8,185.3l59.1-30.2c2.1-1.1,4.7-0.3,5.8,2l0,0c1.1,2.1,0.3,4.7-2,5.8l-59.1,30.2
				c-2.1,1.1-4.7,0.3-5.8-2l0,0C451.8,189,452.6,186.5,454.8,185.3z"/>
			
				<ellipse transform="matrix(0.3938 -0.9192 0.9192 0.3938 202.0201 591.6559)" class="st11" cx="549.6" cy="142.7" rx="32.6" ry="32.6"/>
			<path class="st12" d="M570.8,139.6c1.3,7.8-3.5,13.5-4.5,14.7c-5.5,6.8-13.9,8.8-16,7.8c-0.4-0.1-1.3-0.3-1.7-1.3
				c-0.6-0.9,0-2,0.3-2.7c1-1,2.6-1.3,3.1-1.3c3.1-0.7,5.8-2.7,7.8-4.1c4.3-3.7,6-11.1,4.5-14.6c-0.6-0.9-0.7-1.7-1.4-4.1
				c-0.4-1.7-0.9-2.7-0.4-3.1c0.4-1,1.8-1.6,2.8-1.1C568,130.1,570.2,135.3,570.8,139.6z"/>
		</g>
	</g>
</g>
<g id="Layer_2_1_">
</g>
<g>
	<g>
		<g id="XMLID_1_">
			<g>
				<path class="st13" d="M466,160.5c0,0,0,0.1-0.1,0.1H234c0,0,0-0.1-0.1-0.1H466z"/>
				<path class="st13" d="M234,160.6h232c-2.3,5.4-7.7,9.2-13.9,9.2H247.9C241.6,169.8,236.3,166,234,160.6z"/>
				<polygon class="st14" points="452.1,32.9 452.1,151.1 251.7,151.1 251.7,150.2 449,35.7 251,35.7 251,32.9 				"/>
				<polygon class="st15" points="449,35.7 251.7,150.2 251,35.7 				"/>
				<polygon class="st14" points="251.7,150.2 251.7,151.1 251,151.1 247.9,151.1 247.9,32.9 251,32.9 251,35.7 				"/>
				<polygon class="st16" points="251,151.2 452.1,151.2 452.1,157.3 247.9,157.3 247.9,151.2 				"/>
				<path class="st16" d="M467.2,155.4c-0.1,1.8-0.5,3.6-1.1,5.2H466c0,0,0-0.1,0.1-0.1H233.9c-0.6-1.6-1-3.2-1.1-5
					c0-0.3,0-0.5,0-0.8v-3.5h15.1v6.1v0.1h204.2v-0.1v-6.1h15.1v3.5C467.2,154.9,467.2,155.2,467.2,155.4z"/>
				<path class="st16" d="M233.9,160.6c-0.6-1.6-1-3.3-1.1-5.1c0.1,1.8,0.5,3.4,1.1,5C233.9,160.5,233.9,160.5,233.9,160.6
					L233.9,160.6z"/>
			</g>
			<g>
				<polyline class="st17" points="247.9,151.2 247.9,151.1 247.9,32.9 251,32.9 452.1,32.9 452.1,151.1 452.1,151.2 				"/>
				<path class="st18" d="M233.9,160.5c-0.6-1.6-1-3.2-1.1-5c0-0.3,0-0.5,0-0.8v-3.5v-0.1h15.1h3.1h0.7h200.4h15.1v0.1v3.5
					c0,0.2,0,0.5,0,0.8c-0.1,1.8-0.5,3.5-1.1,5.1"/>
				<line class="st19" x1="233.9" y1="160.5" x2="466" y2="160.5"/>
			</g>
		</g>
	</g>
</g>
<g>
	<path class="st20" d="M185.1,101.3l5,17.4l-9.6,2.7c-0.5-6.3-2.2-12.1-4.9-17.4L185.1,101.3z"/>
	<path class="st20" d="M189.7,136.1l-3.4,7.9l-2.5,8.2l-10-3.1c3.2-5.1,5.4-10.9,6.3-17.1L189.7,136.1z"/>
	<path class="st20" d="M180.4,121.5c0.1,1.2,0.1,2.3,0.1,3.5c0,2.4-0.2,4.7-0.5,7l-7-3l-3.7,8.8l-2.8,9.1l7.3,2.2
		c-1.9,3-4.1,5.8-6.6,8.2l-4.6-6.9l-15,10l4.4,6.6c-3.2,1.2-6.6,2.1-10.2,2.6l1.1-7.5l-9.6-1.4h-9.7v7.3c-3.4-1-6.6-2.4-9.6-4.2
		l5.4-5.4l-6.4-6.4l-7.6-6.4l-5,6c-2.1-2.8-3.8-5.9-5.2-9.1l7.5-1.1l-1.4-9.5l-2.5-9.3l-7.3,1.9c0-3.6,0.4-7.1,1.2-10.5l7.4,3.4
		l3.8-8.2l3.7-8.6l-7.2-3.1c2.1-2.9,4.6-5.4,7.3-7.7l4.3,7.3l7.6-4.4l7.8-3.9l-0.1-0.2h17.9v-8.1c3.5,0.7,6.9,1.9,10.1,3.4l-4.9,6.6
		l6.9,5.2l6.4,5.8l5.9-6.6c2.3,2.7,4.3,5.6,6,8.8l-7.8,2.3l5,17.4L180.4,121.5z M136.1,156c16.8,0,30.5-13.9,30.5-31.1
		c0-17.1-13.8-31.1-30.5-31.1c-16.8,0-30.5,14-30.5,31.1S119.3,156,136.1,156z"/>
	<path class="st20" d="M180.4,121.5l-7.8,2.2l-5-17.4l7.8-2.3C178.3,109.3,179.9,115.2,180.4,121.5z"/>
	<path class="st20" d="M173.1,129l7,3c-1,6.2-3.2,12-6.3,17.1l-7.3-2.2l2.8-9.1L173.1,129z"/>
	<path class="st20" d="M175.8,88.3l-6.2,6.9c-4-4.6-8.8-8.3-14.3-11l5.9-7.9l7.9,5.9L175.8,88.3z"/>
	<path class="st20" d="M167.1,157.3l5.5,8.2l-15.1,10l-5.6-8.4C157.7,164.9,162.8,161.6,167.1,157.3z"/>
	<path class="st20" d="M169.6,95.2l-5.9,6.6l-6.4-5.8l-6.9-5.2l4.9-6.6C160.8,86.9,165.6,90.6,169.6,95.2z"/>
	<path class="st20" d="M162.6,150.4l4.6,6.9c-4.3,4.3-9.5,7.6-15.2,9.8l-4.4-6.6L162.6,150.4z"/>
	<path class="st20" d="M166.7,125c0,17.2-13.7,31.1-30.5,31.1S105.7,142,105.7,125c0-17.1,13.7-31.1,30.5-31.1
		C152.9,93.9,166.7,107.9,166.7,125z M159.7,125c0-13.3-10.5-24.1-23.5-24.1c-12.9,0-23.5,10.7-23.5,24.1s10.5,24.1,23.5,24.1
		C149.2,149,159.7,138.3,159.7,125z"/>
	<path class="st20" d="M145.2,80.8v8.1h-17.8l-0.2-0.5v-7.7c2.9-0.6,5.9-0.9,9-0.9C139.2,79.9,142.3,80.2,145.2,80.8z"/>
	<path class="st20" d="M145.2,70.8v10c-2.9-0.6-6-0.9-9.1-0.9s-6.1,0.3-9,0.9v-10C127.1,70.8,145.2,70.8,145.2,70.8z"/>
	<path class="st20" d="M142.8,162.2l-1.1,7.5c-1.8,0.2-3.7,0.4-5.6,0.4c-4.4,0-8.6-0.6-12.6-1.8V161h9.7L142.8,162.2z"/>
	<path class="st20" d="M141.7,169.7l-1.5,10.4l-8.3-1.2h-8.4v-10.7c4,1.2,8.2,1.8,12.6,1.8C137.9,170,139.9,169.9,141.7,169.7z"/>
	<path class="st20" d="M127.4,88.9l0.1,0.2l-7.8,3.9l-7.6,4.4l-4.3-7.3c4.6-3.9,10-6.8,15.9-8.5l3.4,6.8L127.4,88.9z"/>
	<path class="st20" d="M127.1,80.8v7.7l-3.4-6.8C124.8,81.3,125.9,81,127.1,80.8z"/>
	<path class="st20" d="M113.8,75.1l5.2,8.2c-5.7,2.3-10.7,5.9-14.9,10.2l-5.8-7.7l7.7-5.8L113.8,75.1z"/>
	<path class="st20" d="M119.3,158.6l-5.4,5.4c-5.3-3.1-9.9-7.3-13.5-12.2l5-6l7.6,6.4L119.3,158.6z"/>
	<path class="st20" d="M113.9,164l-7.4,7.4l-6.1-6.1l-6.6-5.5l6.6-7.9C103.9,156.8,108.6,161,113.9,164z"/>
	<path class="st20" d="M107.7,101l-3.7,8.6l-3.8,8.2l-7.4-3.4c1.4-6.1,4.1-11.6,7.7-16.4L107.7,101z"/>
	<path class="st20" d="M101.4,132.1l1.4,9.5l-7.5,1.1c-2.3-5.4-3.6-11.4-3.6-17.7c0-0.1,0-0.1,0-0.1l7.3-1.9L101.4,132.1z"/>
	<path class="st20" d="M91.1,93.9l9.4,4c-3.6,4.8-6.2,10.4-7.7,16.4l-9-4.2l3.7-8.1L91.1,93.9z"/>
	<path class="st20" d="M95.2,142.7l-10.4,1.5l-1.2-8.4l-2.2-8.2l10.2-2.7c0,0.1,0,0.1,0,0.1C91.6,131.3,92.9,137.3,95.2,142.7z"/>
</g>
<g>
	<path class="st21" d="M237,70.2l2,6.9l-3.8,1.1c-0.2-2.5-0.9-4.8-2-6.9L237,70.2z"/>
	<path class="st21" d="M238.9,84.1l-1.4,3.1l-1,3.3l-4-1.2c1.3-2,2.2-4.3,2.5-6.8L238.9,84.1z"/>
	<path class="st21" d="M235.2,78.3c0,0.5,0,0.9,0,1.4c0,1-0.1,1.9-0.2,2.8l-2.8-1.2l-1.5,3.5l-1.1,3.6l2.9,0.9
		c-0.8,1.2-1.6,2.3-2.6,3.3l-1.8-2.7l-6,4l1.8,2.6c-1.3,0.5-2.6,0.8-4.1,1l0.4-3l-3.8-0.6h-3.9v2.9c-1.4-0.4-2.6-1-3.8-1.7l2.2-2.2
		l-2.5-2.5l-3-2.5l-2,2.4c-0.8-1.1-1.5-2.4-2.1-3.6l3-0.4l-0.6-3.8l-1-3.7l-2.9,0.8c0-1.4,0.2-2.8,0.5-4.2l2.9,1.4l1.5-3.3l1.5-3.4
		l-2.9-1.2c0.8-1.2,1.8-2.2,2.9-3.1l1.7,2.9l3-1.8l3.1-1.6l0-0.1h7.1v-3.2c1.4,0.3,2.7,0.8,4,1.4l-2,2.6L226,68l2.5,2.3l2.4-2.6
		c0.9,1.1,1.7,2.2,2.4,3.5l-3.1,0.9l2,6.9L235.2,78.3z M217.5,92c6.7,0,12.1-5.5,12.1-12.4c0-6.8-5.5-12.4-12.1-12.4
		c-6.7,0-12.1,5.6-12.1,12.4C205.4,86.4,210.8,92,217.5,92z"/>
	<path class="st21" d="M235.2,78.3l-3.1,0.9l-2-6.9l3.1-0.9C234.3,73.4,235,75.7,235.2,78.3z"/>
	<path class="st21" d="M232.3,81.2l2.8,1.2c-0.4,2.5-1.3,4.8-2.5,6.8l-2.9-0.9l1.1-3.6L232.3,81.2z"/>
	<path class="st21" d="M233.3,65l-2.5,2.7c-1.6-1.8-3.5-3.3-5.7-4.4l2.4-3.1l3.1,2.4L233.3,65z"/>
	<path class="st21" d="M229.9,92.5l2.2,3.3l-6,4l-2.2-3.3C226.1,95.5,228.2,94.2,229.9,92.5z"/>
	<path class="st21" d="M230.9,67.8l-2.4,2.6l-2.5-2.3l-2.7-2.1l2-2.6C227.4,64.5,229.3,65.9,230.9,67.8z"/>
	<path class="st21" d="M228.1,89.8l1.8,2.7c-1.7,1.7-3.8,3-6.1,3.9l-1.8-2.6L228.1,89.8z"/>
	<path class="st21" d="M229.7,79.6c0,6.9-5.5,12.4-12.1,12.4c-6.7,0-12.1-5.6-12.1-12.4c0-6.8,5.5-12.4,12.1-12.4
		C224.2,67.3,229.7,72.8,229.7,79.6z M226.9,79.6c0-5.3-4.2-9.6-9.4-9.6c-5.1,0-9.4,4.3-9.4,9.6c0,5.3,4.2,9.6,9.4,9.6
		C222.7,89.2,226.9,84.9,226.9,79.6z"/>
	<path class="st21" d="M221.2,62v3.2h-7.1l-0.1-0.2V62c1.2-0.2,2.4-0.4,3.6-0.4C218.8,61.7,220,61.8,221.2,62z"/>
	<path class="st21" d="M221.2,58.1v4c-1.2-0.2-2.4-0.4-3.6-0.4c-1.2,0-2.4,0.1-3.6,0.4v-4C213.9,58.1,221.2,58.1,221.2,58.1z"/>
	<path class="st21" d="M220.2,94.5l-0.4,3c-0.7,0.1-1.5,0.2-2.2,0.2c-1.8,0-3.4-0.2-5-0.7V94h3.9L220.2,94.5z"/>
	<path class="st21" d="M219.8,97.5l-0.6,4.1l-3.3-0.5h-3.3v-4.3c1.6,0.5,3.3,0.7,5,0.7C218.3,97.6,219,97.5,219.8,97.5z"/>
	<path class="st21" d="M214.1,65.3L214.1,65.3l-3.1,1.6l-3,1.8l-1.7-2.9c1.8-1.6,4-2.7,6.3-3.4l1.4,2.7L214.1,65.3z"/>
	<path class="st21" d="M213.9,62v3.1l-1.4-2.7C213,62.2,213.5,62.1,213.9,62z"/>
	<path class="st21" d="M208.7,59.8l2.1,3.3c-2.3,0.9-4.3,2.4-5.9,4.1l-2.3-3.1l3.1-2.3L208.7,59.8z"/>
	<path class="st21" d="M210.8,93l-2.2,2.2c-2.1-1.2-3.9-2.9-5.4-4.9l2-2.4l3,2.5L210.8,93z"/>
	<path class="st21" d="M208.7,95.2l-2.9,2.9l-2.4-2.4l-2.6-2.2l2.6-3.1C204.7,92.3,206.6,94,208.7,95.2z"/>
	<path class="st21" d="M206.2,70.1l-1.5,3.4l-1.5,3.3l-2.9-1.4c0.6-2.4,1.6-4.6,3.1-6.5L206.2,70.1z"/>
	<path class="st21" d="M203.7,82.5l0.6,3.8l-3,0.4c-0.9-2.2-1.4-4.5-1.4-7.1c0,0,0,0,0,0l2.9-0.8L203.7,82.5z"/>
	<path class="st21" d="M199.6,67.3l3.7,1.6c-1.4,1.9-2.5,4.1-3.1,6.5l-3.6-1.7l1.5-3.2L199.6,67.3z"/>
	<path class="st21" d="M201.2,86.7l-4.1,0.6l-0.5-3.3l-0.9-3.3l4.1-1.1c0,0,0,0,0,0C199.8,82.2,200.3,84.5,201.2,86.7z"/>
</g>
<g>
	<path class="st22" d="M197.6,25l2.8,9.9l-5.5,1.5c-0.3-3.6-1.3-6.9-2.8-9.9L197.6,25z"/>
	<path class="st22" d="M200.2,44.8l-1.9,4.5l-1.4,4.7l-5.7-1.8c1.8-2.9,3.1-6.2,3.6-9.7L200.2,44.8z"/>
	<path class="st22" d="M195,36.5c0.1,0.7,0.1,1.3,0.1,2c0,1.4-0.1,2.7-0.3,4l-4-1.7l-2.1,5l-1.6,5.2l4.2,1.3
		c-1.1,1.7-2.3,3.3-3.8,4.7l-2.6-3.9l-8.5,5.7l2.5,3.8c-1.8,0.7-3.8,1.2-5.8,1.5l0.6-4.3l-5.5-0.8h-5.5V63c-1.9-0.6-3.8-1.4-5.5-2.4
		l3.1-3.1l-3.6-3.6l-4.3-3.6l-2.8,3.4c-1.2-1.6-2.2-3.4-3-5.2l4.3-0.6l-0.8-5.4l-1.4-5.3l-4.2,1.1c0-2,0.2-4,0.7-6l4.2,1.9l2.2-4.7
		l2.1-4.9l-4.1-1.8c1.2-1.6,2.6-3.1,4.2-4.4l2.4,4.2l4.3-2.5l4.4-2.2l-0.1-0.1H175v-4.6c2,0.4,3.9,1.1,5.7,1.9l-2.8,3.8l3.9,3
		l3.6,3.3l3.4-3.8c1.3,1.5,2.4,3.2,3.4,5l-4.4,1.3l2.8,9.9L195,36.5z M169.7,56.1c9.6,0,17.3-7.9,17.3-17.7
		c0-9.7-7.8-17.7-17.3-17.7c-9.6,0-17.3,8-17.3,17.7S160.2,56.1,169.7,56.1z"/>
	<path class="st22" d="M195,36.5l-4.4,1.3l-2.8-9.9l4.4-1.3C193.7,29.6,194.7,32.9,195,36.5z"/>
	<path class="st22" d="M190.8,40.8l4,1.7c-0.6,3.5-1.8,6.8-3.6,9.7L187,51l1.6-5.2L190.8,40.8z"/>
	<path class="st22" d="M192.3,17.6l-3.5,3.9c-2.3-2.6-5-4.7-8.1-6.3l3.4-4.5l4.5,3.4L192.3,17.6z"/>
	<path class="st22" d="M187.4,56.9l3.1,4.7l-8.6,5.7l-3.2-4.8C182,61.2,184.9,59.3,187.4,56.9z"/>
	<path class="st22" d="M188.8,21.6l-3.4,3.8l-3.6-3.3l-3.9-3l2.8-3.8C183.8,16.8,186.5,18.9,188.8,21.6z"/>
	<path class="st22" d="M184.8,52.9l2.6,3.9c-2.4,2.4-5.4,4.3-8.6,5.6l-2.5-3.8L184.8,52.9z"/>
	<path class="st22" d="M187.2,38.5c0,9.8-7.8,17.7-17.3,17.7c-9.6,0-17.3-8-17.3-17.7c0-9.7,7.8-17.7,17.3-17.7
		C179.3,20.8,187.2,28.8,187.2,38.5z M183.2,38.5c0-7.6-6-13.7-13.4-13.7c-7.3,0-13.4,6.1-13.4,13.7s6,13.7,13.4,13.7
		C177.2,52.2,183.2,46.1,183.2,38.5z"/>
	<path class="st22" d="M174.9,13.4V18h-10.1l-0.1-0.3v-4.4c1.6-0.3,3.4-0.5,5.1-0.5C171.5,12.9,173.3,13,174.9,13.4z"/>
	<path class="st22" d="M174.9,7.7v5.7c-1.6-0.3-3.4-0.5-5.2-0.5c-1.8,0-3.5,0.2-5.1,0.5V7.7C164.6,7.7,174.9,7.7,174.9,7.7z"/>
	<path class="st22" d="M173.6,59.7l-0.6,4.3c-1,0.1-2.1,0.2-3.2,0.2c-2.5,0-4.9-0.3-7.2-1V59h5.5L173.6,59.7z"/>
	<path class="st22" d="M172.9,63.9l-0.9,5.9l-4.7-0.7h-4.8v-6.1c2.3,0.7,4.7,1,7.2,1C170.8,64.1,171.9,64,172.9,63.9z"/>
	<path class="st22" d="M164.8,18l0.1,0.1l-4.4,2.2l-4.3,2.5l-2.4-4.2c2.6-2.2,5.7-3.9,9-4.8l1.9,3.9L164.8,18z"/>
	<path class="st22" d="M164.6,13.4v4.4l-1.9-3.9C163.3,13.7,164,13.5,164.6,13.4z"/>
	<path class="st22" d="M157.1,10.1l3,4.6c-3.2,1.3-6.1,3.4-8.5,5.8l-3.3-4.4l4.4-3.3L157.1,10.1z"/>
	<path class="st22" d="M160.2,57.6l-3.1,3.1c-3-1.8-5.6-4.2-7.7-6.9l2.8-3.4l4.3,3.6L160.2,57.6z"/>
	<path class="st22" d="M157.1,60.7l-4.2,4.2l-3.5-3.5l-3.8-3.1l3.8-4.5C151.5,56.6,154.1,59,157.1,60.7z"/>
	<path class="st22" d="M153.6,24.9l-2.1,4.9l-2.2,4.7l-4.2-1.9c0.8-3.5,2.3-6.6,4.4-9.3L153.6,24.9z"/>
	<path class="st22" d="M150,42.5l0.8,5.4l-4.3,0.6c-1.3-3.1-2-6.5-2-10.1c0-0.1,0-0.1,0-0.1l4.2-1.1L150,42.5z"/>
	<path class="st22" d="M144.2,20.8l5.3,2.3c-2,2.7-3.5,5.9-4.4,9.3L140,30l2.1-4.6L144.2,20.8z"/>
	<path class="st22" d="M146.5,48.6l-5.9,0.9l-0.7-4.8l-1.3-4.7l5.8-1.5c0,0.1,0,0.1,0,0.1C144.4,42.1,145.2,45.5,146.5,48.6z"/>
</g>
</svg>
