<?xml version="1.0" encoding="utf-8"?>
<!-- Generator: Adobe Illustrator 21.0.2, SVG Export Plug-In . SVG Version: 6.00 Build 0)  -->
<svg version="1.1" xmlns="http://www.w3.org/2000/svg" xmlns:xlink="http://www.w3.org/1999/xlink" x="0px" y="0px"
	 viewBox="0 0 4450 1159" style="enable-background:new 0 0 4450 1159;" xml:space="preserve">
<style type="text/css">
	.st0{fill:#9697CB;}
	.st1{display:none;fill:#9090DD;}
	.st2{font-family:'Roboto-Regular';}
	.st3{font-size:200px;}
	.st4{fill:#FFFFFF;}
	.st5{font-size:160px;}
	.st6{display:none;}
	.st7{display:inline;}
	.st8{fill:#919CAA;}
	.st9{fill:none;stroke:#296D5B;stroke-width:28;stroke-linecap:round;stroke-linejoin:bevel;}
	.st10{fill:none;stroke:#296D5B;stroke-width:28;stroke-linecap:round;stroke-linejoin:bevel;stroke-dasharray:16.195,60.1527;}
	.st11{fill:none;stroke:#296D5B;stroke-width:28;stroke-linecap:round;stroke-linejoin:bevel;stroke-dasharray:14.2141,52.7952;}
	.st12{fill:none;stroke:#296D5B;stroke-width:28;stroke-linecap:round;stroke-linejoin:bevel;stroke-dasharray:14.3559,53.322;}
	.st13{fill:none;stroke:#296D5B;stroke-width:28;stroke-linecap:round;stroke-linejoin:bevel;stroke-dasharray:11.2276,41.7025;}
	.st14{fill:none;stroke:#296D5B;stroke-width:28;stroke-linecap:round;stroke-linejoin:bevel;stroke-dasharray:14.5851,54.1734;}
	.st15{fill:none;stroke:#296D5B;stroke-width:28;stroke-linecap:round;stroke-linejoin:bevel;stroke-dasharray:14.9967,55.7022;}
	.st16{fill:none;stroke:#296D5B;stroke-width:28;stroke-linecap:round;stroke-linejoin:bevel;stroke-dasharray:14.4011,53.4897;}
	.st17{opacity:0.7;fill:#EABC4B;}
	.st18{opacity:0.7;fill:#1286C6;}
	.st19{opacity:0.7;fill:#FFD972;}
	.st20{opacity:0.7;fill:#ED8324;}
	.st21{fill:#FEFFFD;}
	.st22{font-family:'MyriadPro-Regular';}
	.st23{font-size:108.2142px;}
	.st24{font-size:107.8217px;}
	.st25{font-size:115.1939px;}
	.st26{font-size:118.1962px;}
	.st27{display:inline;opacity:0.64;}
	.st28{fill:#EFCF8B;}
	.st29{fill:#EFBC4F;}
	.st30{fill:#EFA913;}
	.st31{fill:#C1EFAE;}
	.st32{fill:none;stroke:#F4F4F4;stroke-miterlimit:10;}
	.st33{display:inline;fill:url(#SVGID_1_);stroke:#F4F4F4;stroke-miterlimit:10;}
	.st34{display:inline;fill:#FFEC5F;}
	.st35{fill:#757373;}
	.st36{display:inline;fill:#AAA5A5;}
	.st37{display:inline;fill:#E8E8E8;}
	.st38{display:inline;fill:#AEE0E8;}
	.st39{display:inline;fill:#F4783B;}
	.st40{fill:#AAA5A5;}
	.st41{fill:#E8E8E8;}
	.st42{fill:#AEE0E8;}
	.st43{fill:#FFEC5F;}
	.st44{fill:#F4783B;}
	.st45{display:inline;fill:#757373;}
	.st46{opacity:0.64;}
	.st47{fill:#B3B3B3;}
	.st48{fill:#E6E6E6;}
	.st49{fill:#020202;}
	.st50{fill:#A7A8A3;}
	.st51{fill:#D2D3CF;}
	.st52{fill:#C5C6C2;}
	.st53{fill:#BFE1E8;}
	.st54{fill:#6ACBE5;}
	.st55{fill:none;stroke:#F5F5F7;stroke-width:3;stroke-miterlimit:10;}
	.st56{fill:none;stroke:#000000;stroke-miterlimit:10;}
	.st57{opacity:0.4;clip-path:url(#SVGID_3_);}
	.st58{fill:none;stroke:#FFFFFF;stroke-miterlimit:10;}
	.st59{fill:none;stroke:#B8A1C9;stroke-width:10;stroke-miterlimit:10;}
	.st60{fill:none;stroke:#8C8C93;stroke-width:10;stroke-miterlimit:10;}
	.st61{opacity:0.2;}
	.st62{fill:#C9C5C5;}
	.st63{fill:#9090DD;}
	.st64{stroke:#000000;stroke-width:0.88;stroke-miterlimit:10;}
</style>
<g id="background">
	<g id="XMLID_3_">
		<g>
			<rect x="-0.8" y="-4" class="st0" width="4450" height="1159"/>
		</g>
		<g>
		</g>
	</g>
</g>
<g id="text">
	<text transform="matrix(1 0 0 1 193.8965 622.623)" class="st1 st2 st3">&gt; Hello Shiny !</text>
	<text transform="matrix(1 0 0 1 254.8965 570.623)" class="st4 st2 st5">&gt; Time to shine</text>
</g>
<g id="arows" class="st6">
	<g>
		<g class="st7">
			<path class="st8" d="M1575,177c1.7-5,4.5-9.7,7.8-13.8c3.3-4.2,7.2-7.9,11.3-11.3c8.2-6.8,17.3-12.5,26.7-17.7
				c9.4-5.1,19-9.6,28.9-13.8c9.8-4.2,19.8-8,29.8-11.5c20.1-7.1,40.5-13.3,61-18.9c20.5-5.6,41.2-10.7,62-15.3
				c41.5-9.3,83.3-17.1,125.4-23.8c42-6.7,84.2-12.3,126.7-16.6c10.6-1.1,21.3-2,32-2.9c10.7-1,21.4-1.8,32.1-2.5
				c21.5-1.4,43-2.2,64.5-2.6c43.1-0.6,86.3,0.7,129.8,5c21.7,2.2,43.5,5.1,65.3,9.1c21.8,4,43.7,9.1,65.6,16.1
				c11,3.5,21.9,7.5,32.9,12.1c10.9,4.7,21.9,10.1,32.7,16.5c10.8,6.5,21.5,14,31.6,23.3c10.1,9.3,19.7,20.4,27.3,33.7l-70.5,37.8
				c-2.4-5.4-6-11-11-16.6c-4.9-5.5-11.1-11-18-16c-13.9-10.2-30.7-19-48.5-26.5c-17.8-7.5-36.8-13.8-56.1-19.2
				c-19.4-5.4-39.3-9.9-59.4-13.8c-40.3-7.7-81.5-12.8-123-15.9c-20.7-1.5-41.5-2.6-62.4-3.1c-10.4-0.3-20.8-0.4-31.3-0.4
				c-10.4,0-20.9,0.3-31.4,0.6c-41.9,1.3-83.9,4-125.8,7.7c-41.9,3.8-83.8,8.6-125.4,14.9c-20.8,3.2-41.5,6.8-62.2,10.9
				c-20.6,4.1-41.1,8.8-61.4,14.5c-10.1,2.8-20.2,5.9-30.1,9.3c-9.9,3.4-19.7,7.2-29.2,11.6c-9.5,4.4-18.8,9.3-27.3,15.5
				c-4.2,3.1-8.3,6.5-11.8,10.3C1580.1,167.7,1577,172.1,1575,177z"/>
			<g>
				<polygon class="st8" points="2419.1,184.9 2608.9,302.7 2616,79.4 				"/>
			</g>
		</g>
	</g>
	<g>
		<g class="st7">
			<path class="st8" d="M2506,1012c-1.1,5.1-2.9,10-5.4,14.6c-1.2,2.3-2.7,4.5-4.2,6.6c-1.5,2.1-3.2,4.1-5,6
				c-7.2,7.7-15.9,13.8-25,19c-9.2,5.2-18.8,9.4-28.6,13.1c-9.8,3.6-19.9,6.7-30,9.4c-20.3,5.3-40.8,9.2-61.5,12.2
				c-20.7,3-41.5,5.1-62.3,6.7c-41.6,3.1-83.4,4.1-125.1,3.7c-20.9-0.2-41.7-0.8-62.6-1.8c-20.9-1-41.8-2.3-62.7-4.3
				c-10.5-1-21.1-2-31.5-3.3c-10.5-1.2-20.9-2.6-31.3-4.2c-20.8-3-41.6-6.5-62.2-10.5c-41.4-8-82.5-17.7-123.4-30.1
				c-20.4-6.3-40.8-13.2-61-21.3c-20.2-8.1-40.3-17.2-60.1-28.2c-9.9-5.5-19.7-11.5-29.3-18.3c-9.6-6.7-19.1-14.2-28.2-22.8
				c-4.6-4.3-9-8.9-13.3-13.8c-4.3-4.9-8.4-10.2-12.3-15.9c-7.7-11.3-14.3-24.5-18.5-39.1l77.6-19.6c0.9,5.5,3,11.4,6.3,17.5
				c3.3,6.1,7.8,12.4,13.3,18.6c10.9,12.3,25.1,24,40.5,34.5c15.5,10.6,32.4,20.2,50,29.1c17.6,8.9,35.8,17,54.4,24.5
				c37.2,15.1,75.8,27.9,114.9,39.1c19.6,5.6,39.3,10.7,59.1,15.5c9.9,2.4,19.9,4.6,29.8,6.7c10,2.1,19.9,4.1,29.9,5.7
				c20.1,3.3,40.4,6.1,60.7,8.6c20.4,2.4,40.8,4.5,61.3,6.2c40.9,3.4,82,5.4,123.1,5.3c20.5-0.1,41.1-0.7,61.5-2.1
				c20.5-1.5,40.9-3.7,61-7.5c10.1-1.9,20-4.2,29.9-7c9.8-2.8,19.5-6.3,28.7-10.6c9.2-4.4,18-9.7,25.5-16.6c1.9-1.7,3.7-3.6,5.3-5.5
				c1.7-1.9,3.2-4,4.6-6.1C2502.4,1021.7,2504.6,1017,2506,1012z"/>
			<g>
				<polygon class="st8" points="1725.6,884.6 1558.8,713 1493.5,943.3 				"/>
			</g>
		</g>
	</g>
	<g class="st7">
		<g>
			<line class="st9" x1="1057.1" y1="246" x2="1057.2" y2="239"/>
			<line class="st10" x1="1057.3" y1="178.8" x2="1057.4" y2="132.6"/>
			<polyline class="st9" points="1057.5,102.5 1057.5,95.5 1064.5,95.5 			"/>
			<polyline class="st11" points="1117.3,95.5 1555.5,95.5 2565.1,95.5 			"/>
			<polyline class="st9" points="2591.5,95.5 2598.5,95.5 2598.5,102.5 			"/>
			<line class="st12" x1="2598.5" y1="155.8" x2="2598.5" y2="196.8"/>
			<line class="st9" x1="2598.5" y1="223.5" x2="2598.5" y2="230.5"/>
		</g>
	</g>
	<g class="st7">
		<g>
			<line class="st9" x1="1057.5" y1="664.9" x2="1057.5" y2="671.9"/>
			<line class="st13" x1="1057.5" y1="713.6" x2="1057.5" y2="798.6"/>
			<polyline class="st9" points="1057.5,819.5 1057.5,826.5 1064.5,826.5 			"/>
			<line class="st14" x1="1118.7" y1="826.5" x2="1710.4" y2="826.6"/>
			<polyline class="st9" points="1737.5,826.6 1744.5,826.6 1744.5,819.6 			"/>
			<line class="st15" x1="1744.5" y1="763.9" x2="1744.5" y2="650.4"/>
			<polyline class="st9" points="1744.5,622.5 1744.5,615.5 1751.5,615.4 			"/>
			<line class="st16" x1="1805" y1="614.4" x2="2049.8" y2="610.1"/>
			<line class="st9" x1="2076.5" y1="609.6" x2="2083.5" y2="609.5"/>
		</g>
	</g>
</g>
<g id="words">
	<circle class="st17" cx="3587.1" cy="828.9" r="257.9"/>
	<circle class="st18" cx="3841.2" cy="600.7" r="266.8"/>
	<circle class="st19" cx="3354.3" cy="588.2" r="264.3"/>
	<circle class="st20" cx="3588" cy="334" r="265"/>
	<text transform="matrix(1 0 0 1 3670.0876 632.4794)" class="st21 st22 st23">Rstudio</text>
	<text transform="matrix(1 0 0 1 3429.6133 365.6455)" class="st21 st22 st24">HTML5</text>
	<text transform="matrix(1 0 0 1 3467.3157 862.6795)" class="st21 st22 st25">CSS3</text>
	<text transform="matrix(1 0 0 1 3319.1489 622.9245)" class="st21 st22 st26">js</text>
</g>
<g id="Layer_14" class="st6">
	<g id="XMLID_2_" class="st27">
		<g>
			<polygon class="st28" points="4450.1,782.4 4450.1,1158.5 0.4,1158.5 0.4,1101.1 462.4,1061.5 1458.9,1099.5 3308.5,944.5 
				3893.5,964.5 			"/>
			<polygon class="st29" points="4450.1,599.4 4450.1,782.4 3893.5,964.5 3308.5,944.5 1458.9,1099.5 462.4,1061.5 0.4,1101.1 
				0.4,1072.6 523.9,851.5 1395.9,1035.5 1791.6,964.5 2953.7,669.5 3538.7,781.5 4144.2,669.5 			"/>
			<polygon class="st30" points="4450.1,285.9 4450.1,599.4 4144.2,669.5 3538.7,781.5 2953.7,669.5 1791.6,964.5 1395.9,1035.5 
				523.9,851.5 0.4,1072.6 0.4,871.3 441.9,651.5 1217.7,834.5 2482.3,315.5 4029.1,477.5 			"/>
			<polygon class="st31" points="4450.1,-0.5 4450.1,285.9 4029.1,477.5 2482.3,315.5 1217.7,834.5 441.9,651.5 0.4,871.3 0.4,-0.5 
							"/>
		</g>
		<g>
			<polygon class="st32" points="4450.1,782.4 4450.1,1158.5 0.4,1158.5 0.4,1101.1 0.4,1072.6 0.4,871.3 0.4,-0.5 4450.1,-0.5 
				4450.1,285.9 4450.1,599.4 			"/>
			<polyline class="st32" points="-313.4,1027.5 0.4,871.3 441.9,651.5 1217.7,834.5 2482.3,315.5 4029.1,477.5 4450.1,285.9 
				4648.8,195.5 4860.1,558.5 			"/>
			<polyline class="st32" points="-278.7,1190.5 -84.1,1108.3 0.4,1072.6 523.9,851.5 1395.9,1035.5 1791.6,964.5 2953.7,669.5 
				3538.7,781.5 4144.2,669.5 4450.1,599.4 4484.8,591.5 			"/>
			<polyline class="st32" points="-436.4,1138.5 -84.1,1108.3 0.4,1101.1 462.4,1061.5 1458.9,1099.5 3308.5,944.5 3893.5,964.5 
				4450.1,782.4 4593.6,735.5 			"/>
		</g>
	</g>
	
		<linearGradient id="SVGID_1_" gradientUnits="userSpaceOnUse" x1="-442.2913" y1="-1571.2938" x2="-442.2913" y2="-326.2283" gradientTransform="matrix(0.7313 -0.6821 0.6821 0.7313 179.1108 192.6145)">
		<stop  offset="0" style="stop-color:#000000"/>
		<stop  offset="1" style="stop-color:#FFFFFF"/>
	</linearGradient>
	<polygon class="st33" points="-134,38.6 -462.7,233 -1448.9,-437.6 -1120.3,-632 	"/>
</g>
<g id="Layer_2">
	<g class="st6">
		<path class="st34" d="M1793.5,614.6c-22.8,0-41.3,17.6-41.3,39.2c0,21.7,18.5,39.2,41.3,39.2s41.3-17.6,41.3-39.2
			C1834.8,632.1,1816.3,614.6,1793.5,614.6z M1793.5,675.6c-12.7,0-23-9.8-23-21.8c0-12,10.3-21.8,23-21.8c12.7,0,23,9.8,23,21.8
			C1816.4,665.8,1806.1,675.6,1793.5,675.6z"/>
		<rect x="1530" y="639.8" class="st34" width="224.1" height="21.3"/>
		<rect x="1825.5" y="639.8" class="st34" width="209.3" height="21.3"/>
		
			<rect x="1568.6" y="381.4" transform="matrix(-1.836970e-16 1 -1 -1.836970e-16 2186.1494 -1401.0339)" class="st34" width="450" height="22.2"/>
	</g>
	<g id="server3" class="st6">
		<g class="st7">
			
				<image style="overflow:visible;opacity:0.5;" width="649" height="138" xlink:href="97FA234048227540.png"  transform="matrix(1 0 0 1 739 532)">
			</image>
			<g>
				<path class="st35" d="M1372.4,656.9h-625c-1.5,0-2.6-1.2-2.6-2.6V539.8c0-1.5,1.2-2.6,2.6-2.6h625c1.5,0,2.6,1.2,2.6,2.6v114.5
					C1375,655.8,1373.8,656.9,1372.4,656.9z"/>
			</g>
		</g>
		<path class="st36" d="M1367,654.9h-587c-2.9,0-5.3-2.4-5.3-5.3V540.4c0-2.9,2.4-5.3,5.3-5.3h587c2.9,0,5.3,2.4,5.3,5.3v109.1
			C1372.3,652.5,1369.9,654.9,1367,654.9z"/>
		<rect x="1168.5" y="578.5" class="st37" width="135.8" height="28.9"/>
		<ellipse class="st34" cx="1002.8" cy="592.9" rx="21.7" ry="16.5"/>
		<ellipse class="st38" cx="926.7" cy="592.9" rx="21.7" ry="16.5"/>
		<ellipse class="st39" cx="856.1" cy="592.9" rx="21.7" ry="16.5"/>
	</g>
	<g id="server2" class="st6">
		<g class="st7">
			
				<image style="overflow:visible;opacity:0.5;" width="649" height="139" xlink:href="97FA23404822757C.png"  transform="matrix(1 0 0 1 737 385)">
			</image>
			<g>
				<path class="st35" d="M1369.7,510.3h-625c-1.5,0-2.6-1.2-2.6-2.6V393.2c0-1.5,1.2-2.6,2.6-2.6h625c1.5,0,2.6,1.2,2.6,2.6v114.5
					C1372.3,509.1,1371.1,510.3,1369.7,510.3z"/>
			</g>
		</g>
		<path class="st36" d="M1367,510.3h-587c-2.9,0-5.3-2.4-5.3-5.3V395.9c0-2.9,2.4-5.3,5.3-5.3h587c2.9,0,5.3,2.4,5.3,5.3V505
			C1372.3,507.9,1369.9,510.3,1367,510.3z"/>
		<rect x="1168.5" y="433.9" class="st37" width="135.8" height="28.9"/>
		<ellipse class="st34" cx="1002.8" cy="448.4" rx="21.7" ry="16.5"/>
		<ellipse class="st39" cx="926.7" cy="448.4" rx="21.7" ry="16.5"/>
		<ellipse class="st39" cx="856.1" cy="448.4" rx="21.7" ry="16.5"/>
	</g>
	<g id="server1" class="st6">
		
			<image style="display:inline;overflow:visible;opacity:0.5;" width="649" height="138" xlink:href="97FA23404822757D.png"  transform="matrix(1 0 0 1 737 241)">
		</image>
		<g class="st7">
			<g>
				<path class="st35" d="M1369.7,365.8h-625c-1.5,0-2.6-1.2-2.6-2.6V248.6c0-1.5,1.2-2.6,2.6-2.6h625c1.5,0,2.6,1.2,2.6,2.6v114.5
					C1372.3,364.6,1371.1,365.8,1369.7,365.8z"/>
				<path class="st40" d="M1367,365.8h-587c-2.9,0-5.3-2.4-5.3-5.3V251.3c0-2.9,2.4-5.3,5.3-5.3h587c2.9,0,5.3,2.4,5.3,5.3v109.1
					C1372.3,363.4,1369.9,365.8,1367,365.8z"/>
				<rect x="1168.5" y="289.4" class="st41" width="135.8" height="28.9"/>
				<ellipse class="st42" cx="1002.8" cy="303.8" rx="21.7" ry="16.5"/>
				<ellipse class="st43" cx="926.7" cy="303.8" rx="21.7" ry="16.5"/>
				<ellipse class="st44" cx="856.1" cy="303.8" rx="21.7" ry="16.5"/>
			</g>
		</g>
	</g>
	<g id="servers2" class="st6">
		<path class="st45" d="M3000.2,302.9h-499.6c-1.5,0-2.6-1.2-2.6-2.6V185.9c0-1.5,1.2-2.6,2.6-2.6h499.6c1.5,0,2.6,1.2,2.6,2.6
			v114.4C3002.8,301.8,3001.6,302.9,3000.2,302.9z"/>
		<path class="st36" d="M2997.5,302.9h-468.1c-2.9,0-5.3-2.4-5.3-5.3V188.6c0-2.9,2.4-5.3,5.3-5.3h468.1c2.9,0,5.3,2.4,5.3,5.3
			v109.1C3002.8,300.6,3000.4,302.9,2997.5,302.9z"/>
		<ellipse class="st38" cx="2706.9" cy="241" rx="17.4" ry="16.5"/>
		<ellipse class="st34" cx="2646" cy="241" rx="17.4" ry="16.5"/>
		<ellipse class="st39" cx="2589.4" cy="241" rx="17.4" ry="16.5"/>
		<g class="st7">
			
				<image style="overflow:visible;opacity:0.5;" width="523" height="139" xlink:href="97FA23404822757E.png"  transform="matrix(1 0 0 1 2493 322)">
			</image>
			<g>
				<path class="st35" d="M3000.2,447.4h-499.6c-1.5,0-2.6-1.2-2.6-2.6V330.3c0-1.5,1.2-2.6,2.6-2.6h499.6c1.5,0,2.6,1.2,2.6,2.6
					v114.4C3002.8,446.2,3001.6,447.4,3000.2,447.4z"/>
			</g>
		</g>
		<path class="st36" d="M2997.5,447.4h-468.1c-2.9,0-5.3-2.4-5.3-5.3V333c0-2.9,2.4-5.3,5.3-5.3h468.1c2.9,0,5.3,2.4,5.3,5.3v109.1
			C3002.8,445,3000.4,447.4,2997.5,447.4z"/>
		<ellipse class="st34" cx="2706.9" cy="385.5" rx="17.4" ry="16.5"/>
		<ellipse class="st39" cx="2646" cy="385.5" rx="17.4" ry="16.5"/>
		<ellipse class="st39" cx="2589.4" cy="385.5" rx="17.4" ry="16.5"/>
		<g class="st7">
			
				<image style="overflow:visible;opacity:0.5;" width="523" height="138" xlink:href="97FA23404822757F.png"  transform="matrix(1 0 0 1 2495 469)">
			</image>
			<g>
				<path class="st35" d="M3002.4,593.9h-499.6c-1.5,0-2.6-1.2-2.6-2.6V476.9c0-1.5,1.2-2.6,2.6-2.6h499.6c1.5,0,2.6,1.2,2.6,2.6
					v114.4C3005,592.8,3003.8,593.9,3002.4,593.9z"/>
			</g>
		</g>
		<path class="st36" d="M2997.5,591.9h-468.1c-2.9,0-5.3-2.4-5.3-5.3V477.5c0-2.9,2.4-5.3,5.3-5.3h468.1c2.9,0,5.3,2.4,5.3,5.3
			v109.1C3002.8,589.5,3000.4,591.9,2997.5,591.9z"/>
		<ellipse class="st34" cx="2706.9" cy="530" rx="17.4" ry="16.5"/>
		<ellipse class="st38" cx="2646" cy="530" rx="17.4" ry="16.5"/>
		<ellipse class="st39" cx="2589.4" cy="530" rx="17.4" ry="16.5"/>
	</g>
</g>
<g id="ecran">
	<g id="Layer_1">
	</g>
	<g id="main">
		<g id="grille" class="st46">
		</g>
	</g>
	<g id="sidebar">
		<g id="board">
			<g id="parameters">
			</g>
		</g>
	</g>
	<g>
		<g>
			<rect x="1651.6" y="149.5" class="st4" width="1147.4" height="588"/>
			<path d="M2798.4,150v587H1652.1V150H2798.4 M2799.4,149H1651.1v589h1148.4V149L2799.4,149z"/>
			<path class="st47" d="M2799.4,149v589H1651.1V149H2799.4 M2799.4,116H1651.1c-18.2,0-33,14.8-33,33v589c0,18.2,14.8,33,33,33
				h1148.4c18.2,0,33-14.8,33-33V149C2832.4,130.8,2817.7,116,2799.4,116L2799.4,116z"/>
		</g>
		<g>
			<rect x="1651.1" y="149" class="st48" width="1148.4" height="699.5"/>
			<path class="st48" d="M2799.4,149v699.5H1651.1V149H2799.4 M2799.4,116H1651.1c-18.2,0-33,14.8-33,33v699.5c0,18.2,14.8,33,33,33
				h1148.4c18.2,0,33-14.8,33-33V149C2832.4,130.8,2817.7,116,2799.4,116L2799.4,116z"/>
		</g>
		<g>
			<rect x="1651.6" y="149.5" class="st4" width="1147.4" height="588"/>
			<path d="M2798.4,150v587H1652.1V150H2798.4 M2799.4,149H1651.1v589h1148.4V149L2799.4,149z"/>
			<path class="st49" d="M2799.4,149v589H1651.1V149H2799.4 M2799.4,116H1651.1c-18.2,0-33,14.8-33,33v589c0,18.2,14.8,33,33,33
				h1148.4c18.2,0,33-14.8,33-33V149C2832.4,130.8,2817.7,116,2799.4,116L2799.4,116z"/>
		</g>
		<g>
			<polygon class="st50" points="2036.2,1039 2076.5,884.2 2392,884.2 2432.2,1039 			"/>
			<path class="st50" d="M2391.2,885.2l39.7,152.8h-393.4l39.7-152.8H2391.2 M2392.7,883.2h-317l-40.8,156.8h398.6L2392.7,883.2
				L2392.7,883.2z"/>
		</g>
		<g>
			<polygon class="st51" points="1973.3,1058.7 2036.6,1022.3 2433.9,1022.3 2497.2,1058.7 			"/>
			<path class="st51" d="M2433.6,1023.3l59.8,34.4H1977l59.8-34.4H2433.6 M2434.2,1021.3h-397.8l-66.8,38.4H2501L2434.2,1021.3
				L2434.2,1021.3z"/>
		</g>
		<g>
			<rect x="1970.9" y="1060.7" class="st52" width="528.7" height="23.3"/>
			<path class="st52" d="M2498.6,1061.7v21.3h-526.7v-21.3H2498.6 M2500.6,1059.7h-530.7v25.3h530.7V1059.7L2500.6,1059.7z"/>
		</g>
		<g id="XMLID_4_">
			<g>
				<path class="st53" d="M2743.1,295.9v360.3h-648.9v-60.4c31.4,29.9,50.2-18.4,76.6-45.1c13.7-13.8,23.1-23.4,36.7-25.2
					c29.7-3.9,43.3,34.1,64.2,28.1c4.9-1.4,14.6-6.5,32.7-66.7c20.2-67,14.6-81.5,26.2-88.9c28.2-17.8,66.4,64.7,138.8,65.2
					c37.3,0.2,35.7-21.7,91.7-28.1c55-6.4,56.7,21.4,81.2,1.5c21.1-17.1,21.2-30.9,39.3-66.7
					C2694.1,345.1,2689.9,321.3,2743.1,295.9z"/>
				<path class="st54" d="M2743.1,272.4v23.5c-53.2,25.5-49,49.2-61.6,74.1c-18.1,35.8-18.2,49.5-39.3,66.7
					c-24.5,19.9-26.2-7.8-81.2-1.5c-56,6.5-54.3,28.4-91.7,28.1c-72.4-0.5-110.6-83-138.8-65.2c-11.6,7.3-5.9,21.9-26.2,88.9
					c-18.2,60.2-27.8,65.3-32.7,66.7c-20.8,6-34.5-32.1-64.2-28.1c-13.6,1.8-23,11.4-36.7,25.2c-26.4,26.7-45.2,75-76.6,45.1V272.4
					H2743.1z"/>
			</g>
			<g>
				<path class="st55" d="M2093.5,595.2c0.2,0.2,0.4,0.4,0.7,0.6c31.4,29.9,50.2-18.4,76.6-45.1c13.7-13.8,23.1-23.4,36.7-25.2
					c29.7-3.9,43.3,34.1,64.2,28.1c4.9-1.4,14.6-6.5,32.7-66.7c20.2-67,14.6-81.5,26.2-88.9c28.2-17.8,66.4,64.7,138.8,65.2
					c37.3,0.2,35.7-21.7,91.7-28.1c55-6.4,56.7,21.4,81.2,1.5c21.1-17.1,21.2-30.9,39.3-66.7c12.6-24.9,8.4-48.6,61.6-74.1"/>
				<polygon class="st56" points="2743.1,295.9 2743.1,656.2 2094.1,656.2 2094.1,595.8 2094.1,272.4 2743.1,272.4 				"/>
			</g>
		</g>
		<g>
			<defs>
				<rect id="SVGID_2_" x="2094.1" y="272.4" width="648.9" height="383.9"/>
			</defs>
			<clipPath id="SVGID_3_">
				<use xlink:href="#SVGID_2_"  style="overflow:visible;"/>
			</clipPath>
			<g class="st57">
				<line class="st58" x1="2122.8" y1="248.1" x2="2122.8" y2="680.5"/>
				<line class="st58" x1="2188.7" y1="248.1" x2="2188.7" y2="680.5"/>
				<line class="st58" x1="2254.6" y1="248.1" x2="2254.6" y2="680.5"/>
				<line class="st58" x1="2320.4" y1="248.1" x2="2320.4" y2="680.5"/>
				<line class="st58" x1="2386.3" y1="248.1" x2="2386.3" y2="680.5"/>
				<line class="st58" x1="2452.2" y1="248.1" x2="2452.2" y2="680.5"/>
				<line class="st58" x1="2518.1" y1="248.1" x2="2518.1" y2="680.5"/>
				<line class="st58" x1="2584" y1="248.1" x2="2584" y2="680.5"/>
				<line class="st58" x1="2649.8" y1="248.1" x2="2649.8" y2="680.5"/>
				<line class="st58" x1="2715.7" y1="248.1" x2="2715.7" y2="680.5"/>
			</g>
			<g class="st57">
				<g>
					<line class="st58" x1="2080.5" y1="308.4" x2="2771.1" y2="308.4"/>
				</g>
				<g>
					<line class="st58" x1="2080.5" y1="343.4" x2="2769.9" y2="343.4"/>
				</g>
				<g>
					<line class="st58" x1="2080.5" y1="378.3" x2="2768.8" y2="378.3"/>
				</g>
				<g>
					<line class="st58" x1="2080.5" y1="413.3" x2="2767.6" y2="413.3"/>
				</g>
				<g>
					<line class="st58" x1="2080.5" y1="448.3" x2="2766.5" y2="448.3"/>
				</g>
				<g>
					<line class="st58" x1="2080.5" y1="483.2" x2="2765.3" y2="483.2"/>
				</g>
				<g>
					<line class="st58" x1="2080.5" y1="518.2" x2="2764.1" y2="518.2"/>
				</g>
				<g>
					<line class="st58" x1="2080.5" y1="553.2" x2="2763" y2="553.2"/>
				</g>
				<g>
					<line class="st58" x1="2080.5" y1="588.2" x2="2761.8" y2="588.2"/>
				</g>
				<line class="st58" x1="2080.5" y1="623.1" x2="2760.7" y2="623.1"/>
			</g>
			<use xlink:href="#SVGID_2_"  style="overflow:visible;fill:none;stroke:#FFFFFF;stroke-miterlimit:10;"/>
		</g>
		<line class="st59" x1="1694.6" y1="597.7" x2="1861.6" y2="597.7"/>
		<line class="st60" x1="1694" y1="252.1" x2="1861.6" y2="252.1"/>
		<line class="st59" x1="1694" y1="252.1" x2="1772.1" y2="252.1"/>
		<line class="st60" x1="1694.6" y1="367.3" x2="1860.4" y2="367.3"/>
		<line class="st59" x1="1741.8" y1="367.3" x2="1816.9" y2="367.3"/>
		<line class="st60" x1="1694.6" y1="597.7" x2="1861.6" y2="597.7"/>
		<line class="st59" x1="1743" y1="597.7" x2="1827.8" y2="597.7"/>
		<line class="st60" x1="1694.6" y1="482.5" x2="1861.6" y2="482.5"/>
		<line class="st59" x1="1694.6" y1="482.5" x2="1785.4" y2="482.5"/>
		<g class="st61">
			<rect x="1651.6" y="149.5" class="st62" width="260.4" height="588"/>
			<path d="M1911.5,150v587h-259.4V150H1911.5 M1912.5,149h-261.4v589h261.4V149L1912.5,149z"/>
		</g>
		<g>
			<rect x="2013.7" y="398" class="st63" width="42.3" height="144.9"/>
		</g>
		<g>
			<rect x="2149.7" y="191.7" class="st63" width="537.9" height="20.4"/>
		</g>
		<rect x="1618.5" y="738.2" class="st64" width="1213.5" height="52.6"/>
		<g>
			<rect x="2291.7" y="678.5" class="st63" width="193.4" height="39"/>
		</g>
	</g>
</g>
</svg>
