<?xml version="1.0" encoding="utf-8"?>
<!-- Generator: Adobe Illustrator 21.0.2, SVG Export Plug-In . SVG Version: 6.00 Build 0)  -->
<svg version="1.1" id="Layer_1" xmlns="http://www.w3.org/2000/svg" xmlns:xlink="http://www.w3.org/1999/xlink" x="0px" y="0px"
	 viewBox="0 0 700 200" style="enable-background:new 0 0 700 200;" xml:space="preserve">
<style type="text/css">
	.st0{fill:#8DC5D6;}
	.st1{fill:#3A3939;}
	.st2{display:none;fill:#302D2D;}
	.st3{display:none;fill:#DDD0D0;}
	.st4{fill:#D8EAED;}
	.st5{fill:#2F78CC;}
	.st6{fill:#FDFDFD;}
</style>
<g id="vackground">
	<rect y="0" class="st0" width="700" height="200"/>
</g>
<g id="Layer_3">
</g>
<path class="st1" d="M38.7-127.5"/>
<rect x="320.7" y="298.1" class="st2" width="39.9" height="178"/>
<rect x="320.7" y="337.7" class="st3" width="39.9" height="138.3"/>
<g>
	<g>
		<rect x="364.4" y="22.1" class="st4" width="18.9" height="162.1"/>
		<rect x="364.4" y="132.9" class="st5" width="18.9" height="51.2"/>
	</g>
	<g>
		<rect x="390.5" y="22.1" class="st4" width="18.9" height="162.1"/>
		<rect x="390.5" y="103.1" class="st5" width="18.9" height="81"/>
	</g>
	<g>
		<rect x="442.6" y="22.1" class="st4" width="18.9" height="162.1"/>
		<rect x="442.6" y="69" class="st5" width="18.9" height="115.1"/>
	</g>
	<g>
		<rect x="416.6" y="22.1" class="st4" width="18.9" height="162.1"/>
		<rect x="416.6" y="81.7" class="st5" width="18.9" height="102.4"/>
	</g>
	<g>
		<g>
			<rect x="468.7" y="22.1" class="st4" width="18.9" height="162.1"/>
		</g>
		<rect x="468.7" y="51.6" class="st5" width="18.9" height="132.5"/>
	</g>
	<g>
		<rect x="494.8" y="22.1" class="st4" width="18.9" height="162.1"/>
		<rect x="494.8" y="39.7" class="st5" width="18.9" height="144.4"/>
	</g>
	<g>
		<rect x="573" y="22.1" class="st4" width="18.9" height="162.1"/>
		<rect x="573" y="87" class="st5" width="18.9" height="97.2"/>
	</g>
	<g>
		<rect x="599.1" y="22.1" class="st4" width="18.9" height="162.1"/>
		<rect x="599.1" y="111.9" class="st5" width="18.9" height="72.2"/>
	</g>
	<g>
		<rect x="625.1" y="22.1" class="st4" width="18.9" height="162.1"/>
		<rect x="625.1" y="132.9" class="st5" width="18.9" height="51.2"/>
	</g>
	<g>
		<rect x="520.9" y="22.1" class="st4" width="18.9" height="162.1"/>
		<rect x="520.9" y="51.6" class="st5" width="18.9" height="132.5"/>
	</g>
	<g>
		<rect x="546.9" y="22.1" class="st4" width="18.9" height="162.1"/>
		<rect x="546.9" y="62.8" class="st5" width="18.9" height="121.3"/>
	</g>
</g>
<g>
	<path class="st6" d="M221.2,53.9c1-6.2,4.2-10.6,10-13c1.9-0.8,3.9-1.1,5.9-1.1c8.1,0,16.1,0,24.2,0c1.3,0,1.6-0.3,1.7-1.6
		c0.2-5.4-1.2-7-6.9-6.9c-9.6,0.2-19.2,0-28.9,0.1c-1.3,0-1.8-0.2-1.2-1.6c1.2-2.8,2.2-5.6,3.2-8.4c0.3-1,0.8-1.4,1.9-1.4
		c9.3,0,18.6,0,27.9,0c8.4,0,15.3,6.9,15.3,15.3c0.1,11.9,0,23.8,0,35.7c-13.3,0.1-26.6,0.2-39.9-0.1c-6.3-1.4-10.8-5-12.6-11.4
		c-0.3-1-0.4-2-0.6-3C221.2,55.7,221.2,54.8,221.2,53.9z M232.7,56.3c0.6,2.2,1.9,3.4,3.9,3.4c5.9,0,11.9,0,17.8,0
		c2.5,0,4.9,0,7.4,0.1c0.8,0,1.1-0.3,1-1.1c0-2-0.1-4,0-6c0-1.1-0.2-1.4-1.4-1.4c-8.1,0-16.2,0-24.3,0
		C234.1,51.2,232.5,53.1,232.7,56.3z"/>
	<path class="st6" d="M156.5,31.5c-5.4,0-10.7-0.1-16.1-0.1c-1.8,0-1.8,0-1.2-1.8c1.1-2.8,2.1-5.6,3.1-8.5c0.3-0.9,0.7-1.2,1.7-1.2
		c9.4,0,18.9,0,28.3,0c8,0.1,14.8,6.9,15,14.9c0.1,2.6,0.1,5.3,0.1,7.9c0,0.9,0,1.8,0,2.7c0,8.5-0.1,17-0.1,25.5
		c-13.2,0-26.4,0-39.6,0c-4.2-0.8-7.7-2.8-10.4-6.1c-0.5-0.9-1-1.7-1.5-2.6c-0.1-0.1-0.1-0.2-0.2-0.3c-0.3-1-0.7-2-1-3
		c-0.5-2.6-0.5-5.1,0.2-7.7c0.3-0.9,0.6-1.8,1-2.6c3.4-6.1,8.5-9,15.5-8.9c7.6,0.1,15.3,0,22.9,0c1.4,0.4,2-0.2,1.8-1.7
		c-0.1-0.3,0-0.6,0-1c0.2-3.7-1.2-5.7-4-5.7c-2.9-0.1-5.8,0-8.7,0C160.9,31.5,158.7,31.5,156.5,31.5z M145.7,55.6
		c0.3,2.5,1.8,4,4.2,4c3.6,0,7.2,0,10.9,0c4.8,0,9.6,0.1,14.3,0.1c0.3,0,0.7,0.1,0.8-0.4c0-2.3,0-4.6,0.1-6.9c0-1-0.3-1.2-1.2-1.2
		c-8.2,0-16.5,0-24.7,0c-1.4,0-2.6,0.4-3.4,1.7C145.8,53.7,145.6,54.6,145.7,55.6z"/>
	<path class="st6" d="M83.2,20c1.8,0,3.6,0,5.4,0c4.4,0,8.8,0.1,13.2,0.1c1.2,0,1.4,0.3,0.9,1.4c-0.6,1.3-1,2.7-1.5,4.1
		c-0.6,1.7-1.2,3.3-1.9,5c-0.3,0.6-0.7,1-1.5,1c-0.7-0.1-1.5,0-2.3,0.1c-1.9,0-3.8,0-5.7,0c-4.7,0-9.4,0-14.1,0c-1.3,0-2.7,0-4,0.1
		c-1.1,0-2.2-0.1-3.3-0.1c-2.4,0.1-4.1,1.9-4.1,4.2c0,2.3,1.7,4.2,4.1,4.2c3,0.1,6,0,9,0c2.7,0,5.4,0,8.1,0c2,0.1,4,0,5.9,0.6
		c5.2,1.4,8.6,4.8,10.8,9.6c0.3,1.1,0.5,2.2,0.8,3.4c0.2,2.3,0.1,4.6-0.6,6.9c-0.4,1-0.9,2.1-1.3,3.1c-2.6,4.3-6.4,6.8-11.3,7.8
		c-6.8,0-13.5,0.1-20.3,0.1c-5.5,0-11.1,0-16.6-0.1c1.2-3.3,2.5-6.5,3.6-9.9c0.4-1.1,0.9-1.5,2.1-1.5c7.5,0,14.9,0,22.4,0
		c2.3,0,4.5,0,6.8,0c0.6,0,1.2-0.1,1.7-0.6c0.1,0,0.2-0.1,0.3-0.2c0.1-0.1,0.2-0.2,0.4-0.3c1.5-1.5,2-3.1,1.2-4.8
		c-0.7-1.7-2.1-2.6-3.9-2.6c-6.6,0-13.2,0-19.8,0c-3.3-0.4-6.3-1.5-9-3.4c-2.3-1.6-3.3-4.1-4.7-6.3c-0.5-1.7-1-3.4-1.1-5.2
		c-0.2-6.2,2.6-10.9,7.7-14.3c0.9-0.4,1.8-0.9,2.7-1.3c2.4-0.5,4.9-0.7,7.4-0.7C75,20.1,79.1,20,83.2,20z"/>
	<path class="st6" d="M212.9,54.6c0,5.5,0,10.9-0.1,16.4c-3.8,0-7.6,0-11.4,0c0-6.7-0.1-13.4-0.1-20.1c0-1,0-2,0-3.1
		c0-5.1,0-10.2,0.1-15.3c0-1.1-0.4-1.3-1.4-1.2c-4.2,0-8.4,0-12.8,0c1-2.7,2-5.3,3-7.9c1.3-3.5,1.3-3.5,5.1-3.5c10.5,0,21,0,31.5,0
		c1.3,0,1.7,0.2,1.1,1.5c-1.2,2.8-2.2,5.7-3.2,8.6c-0.4,1-0.9,1.3-1.9,1.3c-2.9-0.1-5.8,0-8.7,0c-0.8,0-1.2,0.1-1.2,1.1
		c0.1,6.5,0.1,13,0.1,19.5C212.9,52.8,212.9,53.7,212.9,54.6z"/>
	<path class="st6" d="M102.4,25.4c0.6-1.5,1.2-3,1.8-4.5c0.2-0.5,0.4-0.9,1.2-0.9c12,0,23.9,0,36,0c-1.1,3.8-2.7,7.3-4,10.9
		c-0.3,0.8-0.9,0.5-1.4,0.5c-2.8,0-5.7,0.1-8.5,0c-1.1,0-1.6,0.2-1.5,1.4c0.1,3.8,0.1,7.6,0.1,11.4c0,1,0,2,0,3.1
		c0,3.5,0,6.9,0,10.4c0,1,0,2,0,3c0,0.4,0,0.9,0,1.3c0,1,0,2,0,3c0,2,0,4-0.1,6c-3.8,0-7.6,0-11.4,0c0-2.2,0-4.4-0.1-6.7
		c0-0.9,0-1.8,0-2.7c0-1.4,0-2.9,0-4.3c0-0.9,0-1.8,0-2.7c0-4.8,0-9.6,0-14.4c0-1.1,0-2.3,0-3.4c0-1.5,0-2.9,0.1-4.4
		c0-0.8-0.2-1.1-1-1.1c-2.5,0.1-4.9,0.1-7.4,0.1c-1.6,0-3.1,0-4.7,0c-0.4-0.1-1,0-1-0.7C101.2,29.1,101.8,27.3,102.4,25.4z"/>
</g>
<g>
	<path class="st6" d="M278.9,113v0.2c0,0.8,0.1,1.7,0.1,2.5c0,0,0,0,0,0v0.5c0,0,0,0,0,0c0.3,2.4,1.5,3.5,4.2,3.8
		c0.7,0.1,1.5,0.1,2.4,0.1c2.7-0.1,5.4-0.1,8.2-0.1h0.1c3.6,0,7.1,0,10.7,0c0.1,0,0.1,0,0.2,0h0.1c2.2,0,4.5,0,6.7,0
		c0.8,0,1.5,0,2.3,0c1.3,0,1.8,0.2,1.2,1.6c-0.5,1.2-1,2.4-1.5,3.7c-0.5,1.3-0.9,2.5-1.4,3.8c-0.1,0.3-0.2,0.5-0.3,0.8
		c-0.3,1-0.8,1.3-1.8,1.3c-4,0-8,0-12,0h-0.9c-4.8,0-9.6,0-14.4,0c-8.2,0-15-6.8-15-14.9c0-2.4,0-4.8,0-7.2c0-0.9,0-1.8,0-2.6
		c0-3.2,0-6.4,0-9.6v-0.6c0-3.4,1.2-6.5,3.1-9c2.4-3.1,6.1-5.3,10.2-5.8c0.6-0.1,1.1-0.1,1.7-0.1c4.8,0,9.6,0,14.4,0h0.9
		c4,0,8,0,12,0c0.8,0,1.2,0.2,1.5,0.7c0.1,0.2,0.2,0.4,0.3,0.7c0.1,0.3,0.2,0.5,0.3,0.8c0.4,1.3,0.9,2.5,1.4,3.8
		c0.5,1.2,0.9,2.5,1.5,3.7c0.6,1.4,0.1,1.6-1.2,1.6c-0.8,0-1.5,0-2.3,0c-2.3,0-4.7,0-7,0c-0.4,0-0.8,0-1.2,0c-3.2,0-6.3,0-9.5,0
		c0,0-0.1,0-0.1,0c-2.7,0-5.4,0-8.2-0.1c-0.9,0-1.7,0-2.4,0.1c-0.8,0.1-1.5,0.3-2.1,0.5c-1.3,0.6-1.9,1.6-2.2,3.3c0,0.1,0,0.2,0,0.2
		c0,0.1,0,0.2,0,0.3c0,0,0,0,0,0c0.4,2.8,2,3.9,6,3.9c0.2,0,0.5,0,0.7,0c6.5-0.1,13-0.1,19.5-0.1c2.9,0,5.8,0,8.7,0
		c1.3,0,1.8,0.2,1.2,1.6c-0.3,0.7-0.6,1.4-0.8,2c-0.3,0.7-0.5,1.4-0.8,2.1c-0.4,1.1-0.9,2.3-1.3,3.4c-0.1,0.3-0.2,0.5-0.3,0.7
		c-0.3,1-0.8,1.3-1.8,1.3c-1.5,0-2.9,0-4.3,0c-0.4,0-0.9,0.1-1.3,0.1c-0.1,0-0.3,0-0.4,0c-7.9,0-15.9,0-23.8,0
		C279.3,111.9,278.9,112.1,278.9,113z"/>
	<path class="st6" d="M126.8,81.3c1.8,0,3.5,0,5.3,0c4.3,0,8.6,0.1,12.9,0.1c1.2,0,1.4,0.3,0.9,1.4c-0.6,1.3-1,2.6-1.5,4
		c-0.6,1.6-1.2,3.3-1.8,4.9c-0.3,0.6-0.6,1-1.4,0.9c-0.7-0.1-1.5,0-2.2,0.1c-1.9,0-3.7,0-5.6,0c-4.6,0-9.2,0-13.8,0
		c-1.3,0-2.6,0-4,0.1c-1.1,0-2.2-0.1-3.3-0.1c-2.3,0.1-4,1.9-4,4.1c0,2.3,1.7,4.1,4,4.1c2.9,0.1,5.9,0,8.8,0c2.6,0,5.3,0,7.9,0
		c1.9,0.1,3.9,0,5.8,0.6c5.1,1.4,8.4,4.7,10.6,9.4c0.3,1.1,0.5,2.2,0.8,3.3c0.2,2.3,0.1,4.5-0.6,6.7c-0.4,1-0.9,2-1.3,3
		c-2.6,4.2-6.3,6.6-11.1,7.6c-6.6,0-13.2,0.1-19.8,0.1c-5.4,0-10.8,0-16.2-0.1c1.2-3.2,2.4-6.4,3.6-9.6c0.4-1.1,0.9-1.5,2.1-1.5
		c7.3,0,14.6,0,21.9,0c2.2,0,4.4,0,6.6,0c0.6,0,1.2-0.1,1.6-0.6c0.1,0,0.2-0.1,0.3-0.2c0.1-0.1,0.2-0.2,0.4-0.3
		c1.5-1.5,1.9-3,1.2-4.7c-0.7-1.7-2-2.5-3.9-2.5c-6.5,0-12.9,0-19.4,0c-3.2-0.4-6.2-1.4-8.8-3.3c-2.2-1.6-3.2-4-4.6-6.2
		c-0.5-1.7-1-3.3-1.1-5.1c-0.1-6.1,2.5-10.7,7.6-14c0.9-0.4,1.8-0.9,2.7-1.3c2.4-0.5,4.8-0.7,7.3-0.7
		C118.8,81.4,122.8,81.3,126.8,81.3z"/>
	<path class="st6" d="M265.5,120.1c-0.9,2.5-1.8,5.4-2.7,7.7c-1.3,3.4-1.3,3.4-5,3.4l-18,0.1l-2.2,0c-3,0-5.9,0-8.9,0
		c0-3.6,0-7.1,0-10.7c0-0.2,0-0.3,0-0.5V97.4c0-1.4,0-2.8,0-4.2c0-3.9,0-7.9,0-11.8c2.6,0,5.6-0.1,8.5-0.1c0.1,0,0.2,0,0.3,0
		c1.2,0,2.4,0,3.4,0v0c0,3.7,0,7.4,0,11.1c0,2.8,0,5.7,0,8.5c0,1,0,2,0,3c0,5,0,10-0.1,14.9c0,1.1,0.4,1.2,1.4,1.2
		c4.1,0,8.2,0,12.6,0C254.8,120.4,265.6,119.9,265.5,120.1z"/>
	<path class="st6" d="M145.6,86.6c0.6-1.5,1.2-2.9,1.8-4.4c0.2-0.5,0.4-0.9,1.1-0.9c11.7,0,23.4,0,35.3,0c-1.1,3.7-2.6,7.1-3.9,10.6
		c-0.3,0.7-0.9,0.5-1.4,0.5c-2.8,0-5.6,0.1-8.4,0c-1.1,0-1.5,0.2-1.5,1.4c0.1,3.7,0.1,7.4,0.1,11.2c0,1,0,2,0,3c0,3.4,0,6.8,0,10.2
		c0,1,0,2,0,3c0,0.4,0,0.9,0,1.3c0,1,0,2,0,3c0,2,0,3.9-0.1,5.9c-3.7,0-7.4,0-11.1,0c0-2.2,0-4.3-0.1-6.5c0-0.9,0-1.8,0-2.7
		c0-1.4,0-2.8,0-4.2c0-0.9,0-1.8,0-2.7c0-4.7,0-9.4,0-14.1c0-1.1,0-2.2,0-3.3c0-1.4,0-2.8,0-4.3c0-0.8-0.2-1.1-1-1
		c-2.4,0.1-4.8,0.1-7.2,0.1c-1.5,0-3.1,0-4.6,0c-0.4-0.1-1,0-1-0.7C144.5,90.2,145.1,88.4,145.6,86.6z"/>
	<path class="st6" d="M225.8,109c0,2.6,0,5.1-0.1,7.7c-0.2,7.8-6.9,14.5-14.7,14.6c-9.2,0.1-18.5,0-27.7,0c-0.9,0-1.3-0.3-1.6-1.1
		c-1-2.8-2-5.5-3.1-8.3c-0.6-1.7-0.6-1.7,1.1-1.7c2.6,0,5.2,0,7.9-0.1c2.6,0,5.3,0,7.9-0.1c1.1,0,2.2,0,3.3,0c1.1,0,2.2,0,3.3,0
		c2.8,0,5.7,0.1,8.5,0c2.8-0.1,4.1-2,3.9-5.6c0-0.3,0-0.6,0.1-0.9c0.2-1-0.1-1.6-0.7-1.7c-0.2,0-0.4,0-0.7,0c0,0,0,0,0,0
		c-1.1,0-2.2,0-3.3,0c-0.7,0-1.4,0-2-0.1c-0.2,0-0.4,0-0.6-0.1h0c-2.2,0-4.4,0-6.6,0c-0.1,0-0.3,0-0.4,0c0,0-0.1,0-0.1,0
		c-0.4,0-0.7,0-1.1-0.1c-0.3,0-0.6-0.1-0.9-0.1c-2.7-0.5-5.2-1.8-7.3-3.6c-2.2-1.9-3.8-4.4-4.6-7.3c0-0.1-0.1-0.3-0.1-0.4v0
		c-0.1-0.2-0.1-0.4-0.1-0.6c0-0.1,0-0.1,0-0.2c0-0.1,0-0.2,0-0.3c0-0.1,0-0.2,0-0.3c-0.1-0.5-0.1-1-0.1-1.5c0-1.5-0.1-3.1-0.1-4.6
		c0,0,0,0,0,0.1c0-0.1,0-0.2,0-0.3v-0.1c0-0.4,0-0.9,0-1.3c0-3.3-0.1-6.5-0.1-9.8h11.2c0.1,3.7,0.1,7.4,0.2,11.1v0.1
		c0,0.7,0,1.5,0,2.2c0,0.3,0,0.6,0,0.9c0,0.4,0,0.7,0,1.1c0,0.9,0.1,1.7,0.3,2.2c0.2,0.5,0.6,0.9,1.2,1.2c0,0,0.1,0,0.1,0.1
		c0.1,0.1,0.1,0.1,0.3,0.1l0.1,0l0.1,0.1c0.5,0.2,0.9,0.3,1.5,0.3c0,0,0.1,0,0.1,0c0,0,0.1,0,0.1,0h3.5c1,0,1.9,0,2.9,0
		c1.5,0,3.1,0,4.6,0c0.6,0,1.2,0,1.8,0c0.1,0,0.2,0,0.3,0h0.1c0.6-0.1,0.8-0.4,0.8-1.2l0.1-7.1v0l-0.3-10.7c0,0,0-0.5,0-0.5l1.5,0h0
		l9.7,0v0c0,8.3,0.1,16.6,0.1,24.9C225.8,107.2,225.8,108.1,225.8,109z"/>
	<path class="st6" d="M194.3,98.9c-0.1-0.5-0.1-1-0.1-1.5C194.2,97.9,194.2,98.4,194.3,98.9z"/>
	<path class="st6" d="M213.9,100.7c0.5,0,1,0,1.5,0c1.5,0,3.1,0,4.6,0c0.6,0,1.2,0,1.8,0c0.1,0,0.2,0,0.3,0H213.9z"/>
</g>
</svg>
