<?xml version="1.0" encoding="utf-8"?>
<!-- Generator: Adobe Illustrator 21.0.2, SVG Export Plug-In . SVG Version: 6.00 Build 0)  -->
<svg version="1.1" xmlns="http://www.w3.org/2000/svg" xmlns:xlink="http://www.w3.org/1999/xlink" x="0px" y="0px"
	 viewBox="0 0 700 200" style="enable-background:new 0 0 700 200;" xml:space="preserve">
<style type="text/css">
	.st0{fill:#7F7F7F;}
	.st1{display:none;fill:#861600;}
	.st2{display:none;}
	.st3{display:inline;fill:#0C3D37;}
	.st4{display:none;fill:#E8F7F5;}
	.st5{display:inline;fill:#C5EAE4;}
	.st6{fill:#EAE2DC;}
	.st7{font-family:'Roboto-Regular';}
	.st8{font-size:30px;}
	.st9{fill:#37840F;}
	.st10{display:inline;}
	.st11{opacity:0.62;fill:#FFFFFF;}
	.st12{opacity:0.63;fill:#23FAE0;}
	.st13{opacity:0.63;fill:#5DA399;}
	.st14{opacity:0.63;fill:#288474;}
	.st15{opacity:0.62;fill:#D3DDDA;}
	.st16{opacity:0.68;}
	.st17{fill:#5DA399;}
	.st18{fill:#288474;}
	.st19{fill:#23FAE0;}
	.st20{font-family:'MyriadPro-Regular';}
	.st21{font-size:45.9999px;}
	.st22{opacity:0.62;fill:#CFE2DE;}
	.st23{font-size:39.9102px;}
	.st24{display:inline;fill:#35352E;}
	.st25{opacity:0.62;fill:#A8AFAE;}
</style>
<g id="Layer_1">
	<g id="illustration">
		<g id="background_1_">
			<g id="background_2_">
				<rect y="0" class="st0" width="700" height="200"/>
			</g>
			<rect y="182.7" class="st1" width="700" height="18.4"/>
		</g>
	</g>
	<g id="URGChC.tif" class="st2">
		
			<image style="display:inline;overflow:visible;" width="225" height="225" id="Layer_0_1_" xlink:href="A9E0BD2D3FB82AA6.png"  transform="matrix(1 0 0 1 133 -234.5533)">
		</image>
	</g>
	<g class="st2">
		<rect x="505" y="-217.8" class="st3" width="136.9" height="197.5"/>
		<polyline class="st3" points="573.5,-295.2 505,-217.8 641.9,-217.8 		"/>
	</g>
	<circle class="st4" cx="573.5" cy="-256.5" r="9"/>
	<g class="st2">
		<rect x="680" y="-217.8" class="st3" width="136.9" height="197.5"/>
		<polyline class="st3" points="748.4,-295.2 680,-217.8 816.8,-217.8 		"/>
	</g>
	<circle class="st4" cx="748.4" cy="-256.5" r="9"/>
	<text transform="matrix(1 0 0 1 528.5251 -72.1076)" class="st7" style="display:none;fill:#C5EAE4; font-size:146px;">R</text>
	<g>
		<text transform="matrix(1 0 0 1 371.4823 80.5519)" class="st6 st7 st8">ggplot2</text>
	</g>
	<g>
		<text transform="matrix(1 0 0 1 527.4575 81.2662)" class="st6 st7 st8">e1071</text>
	</g>
	<g>
		<text transform="matrix(1 0 0 1 372.5504 114.3255)" class="st6 st7 st8">dplyr</text>
	</g>
	<g>
		<text transform="matrix(1 0 0 1 238.0323 116.2135)" class="st6 st7 st8">rpart</text>
	</g>
	<text transform="matrix(1 0 0 1 238.032 82.4403)" class="st6 st7 st8">purr</text>
	<g id="lg9eWe.tif" class="st2">
		
			<image style="display:inline;overflow:visible;" width="553" height="338" id="Layer_0_2_" xlink:href="A9E0BD2D3FB82AAA.png"  transform="matrix(1 0 0 1 800.4122 53.6021)">
		</image>
	</g>
	<g id="F7BUVn.tif" class="st2">
		
			<image style="display:inline;overflow:visible;" width="841" height="349" id="Layer_0_3_" xlink:href="A9E0BD2D3FB82AAD.png"  transform="matrix(1 0 0 1 -40.5877 217.1021)">
		</image>
	</g>
	<g>
		<text transform="matrix(1 0 0 1 30.7382 45.2108)" class="st6 st7 st8">[rdata@lu www] $  ls </text>
	</g>
	<g>
		<g>
			<text transform="matrix(1 0 0 1 30.7381 185.8486)" class="st6 st7 st8">[rdata@lu www] $ </text>
		</g>
		<rect x="285.4" y="159.9" class="st9" width="14.9" height="30.4"/>
	</g>
	<text transform="matrix(1 0 0 1 527.4572 115.0397)" class="st6 st7 st8">rvest</text>
	<g>
		<text transform="matrix(1 0 0 1 370.4132 146.6703)" class="st6 st7 st8">mboost</text>
	</g>
	<g>
		<text transform="matrix(1 0 0 1 238.0323 148.5583)" class="st6 st7 st8">caret</text>
	</g>
	<text transform="matrix(1 0 0 1 527.4567 147.3845)" class="st6 st7 st8">nnet</text>
</g>
<g id="Layer_3">
</g>
<g id="Layer_2_1_" class="st2">
	<g class="st10">
		<path class="st11" d="M636.8,105.5H594c-14.3,0-25.8-11.6-25.8-25.8V36.9c0-14.3,11.6-25.8,25.8-25.8h42.8
			c14.3,0,25.8,11.6,25.8,25.8v42.8C662.7,93.9,651.1,105.5,636.8,105.5z"/>
		<g>
			<rect x="578" y="33.6" class="st12" width="19.8" height="49.3"/>
			<rect x="633.1" y="63.1" class="st13" width="19.8" height="19.8"/>
			<rect x="605.5" y="49.6" class="st14" width="19.8" height="33.3"/>
		</g>
	</g>
	<g class="st10">
		<path class="st15" d="M650,159.7h-30.6c-10.5,0-19-8.5-19-19v-30.6c0-10.5,8.5-19,19-19H650c10.5,0,19,8.5,19,19v30.6
			C669.1,151.2,660.5,159.7,650,159.7z"/>
		<g class="st16">
			<g>
				<g>
					<path class="st17" d="M630.5,125.4l11,22.5c-12.4,6.1-27.4,0.9-33.4-11.5c-6.1-12.4-0.9-27.4,11.5-33.4c3.5-1.7,7-2.5,11-2.5
						V125.4z"/>
				</g>
			</g>
			<g>
				<g>
					<path class="st18" d="M636.1,125.4l19.4-15.7c8.7,10.7,7,26.5-3.7,35.1c-1.5,1.2-3,2.2-4.8,3L636.1,125.4z"/>
				</g>
			</g>
			<g>
				<g>
					<path class="st19" d="M633.3,123.8v-25c7.9,0,14.5,3.1,19.4,9.3L633.3,123.8z"/>
				</g>
			</g>
		</g>
	</g>
	<g class="st10">
		<g>
		</g>
		<g>
		</g>
		<g>
		</g>
	</g>
	<g class="st10">
		<path class="st11" d="M140.1,82.9h-34.9c-7.5,0-13.6-6.1-13.6-13.6V34.4c0-7.5,6.1-13.6,13.6-13.6h34.9c7.5,0,13.6,6.1,13.6,13.6
			v34.9C153.7,76.9,147.6,82.9,140.1,82.9z"/>
		<text transform="matrix(1 0 0 1 110.0482 67.814)" class="st14 st20 st21">€</text>
	</g>
	<g class="st10">
		<path class="st22" d="M84.5,85.2H54.4c-6.6,0-11.9-5.3-11.9-11.9V43.2c0-6.6,5.3-11.9,11.9-11.9h30.1c6.6,0,11.9,5.3,11.9,11.9
			v30.1C96.4,79.9,91.1,85.2,84.5,85.2z"/>
		<text transform="matrix(1 0 0 1 59.8467 72.3718)" class="st17 st20 st23">$</text>
	</g>
	<path class="st24" d="M856.8-43.6"/>
	<g class="st10">
		<path class="st25" d="M78.9,167.6H35.6c-7.6,0-13.7-6.1-13.7-13.7v-39.6c0-7.6,6.1-13.7,13.7-13.7h43.4c7.6,0,13.7,6.1,13.7,13.7
			v39.6C92.6,161.5,86.5,167.6,78.9,167.6z"/>
		<g>
			<path class="st19" d="M84.6,155.2h-12c0,0,0.1-4.1-0.6-7.5c-0.3-1.5-0.6-3.2-2.3-6.6c-3-6.1-5.6-7.2-6.5-7.5
				c-0.1,0-0.3-0.1-0.4-0.1c-0.7-0.2-1.3-0.2-1.3-0.6c0-0.2,0.3-0.3,0.3-0.3c0.1-0.1,0.2-0.1,0.4-0.3c1.2-1,2.7-3.9,3-6.9
				c0.3-2.8-0.5-4.8-0.7-5.3c-0.1-0.2-1.3-3.1-4.1-5.1c0.9-0.7,2-1.2,3.3-1.6c0.7-0.2,1.4-0.3,1.9-0.3c0.3,0,0.5,0,0.8,0
				c0.2,0,0.5,0,0.8,0c0.6,0,1.2,0.1,1.9,0.3c5.2,1.4,7.3,6.4,7.4,6.7c0.2,0.4,0.9,2.5,0.7,5.3c-0.3,3-1.8,5.9-3,6.9
				c-0.1,0.1-0.3,0.2-0.4,0.3c-0.1,0-0.3,0.2-0.3,0.3c0,0.4,0.6,0.4,1.3,0.6c0.1,0,0.2,0.1,0.4,0.1c0.9,0.3,3.5,1.4,6.5,7.5
				c1.7,3.5,2,5.1,2.3,6.6C84.7,151.1,84.6,155.2,84.6,155.2z"/>
			<path class="st19" d="M63.2,113L63.2,113c-0.3,0-0.5,0-0.8,0C62.7,113,63,113,63.2,113z"/>
			<path class="st19" d="M62.4,113c-0.2,0-0.5,0-0.8,0l0,0C61.9,113,62.1,113,62.4,113z"/>
		</g>
		<g>
			<path class="st17" d="M53.8,113.7c0.1,0,0.1,0,0.2,0.1c0,0,0,0,0,0l-2.8-0.7c0.5,0.1,1,0.1,1.6,0.3
				C53.1,113.5,53.5,113.6,53.8,113.7z"/>
			<path class="st17" d="M57.3,132.8c0,0.1,0,0.1-0.1,0.2c-0.1-0.1-0.1-0.1-0.1-0.2c0-0.1,0-0.1,0.1-0.1
				C57.2,132.7,57.3,132.8,57.3,132.8z"/>
			<path class="st17" d="M68.2,155.2H31.9c0,0-0.1-4.1,0.6-7.5c0.3-1.5,0.6-3.2,2.3-6.6c3-6.1,5.6-7.2,6.5-7.5
				c0.1,0,0.3-0.1,0.4-0.1c0.7-0.2,1.3-0.2,1.3-0.6c0-0.2-0.3-0.3-0.3-0.3c-0.1-0.1-0.2-0.1-0.4-0.3c-1.2-1-2.7-3.9-3-6.9
				c-0.2-2.8,0.5-4.8,0.7-5.3c0.1-0.3,2.2-5.2,7.4-6.7c0.7-0.2,1.4-0.3,1.9-0.3c0.3,0,0.5,0,0.8,0c0.2,0,0.5,0,0.8,0
				c0.1,0,0.3,0,0.4,0c0.5,0.1,1,0.1,1.6,0.3c0.4,0.1,0.7,0.2,1.1,0.4c0.1,0,0.1,0,0.2,0.1h0c0,0,0,0,0,0c0.2,0.1,0.3,0.2,0.5,0.2
				c0.1,0,0.2,0.1,0.3,0.2c0.3,0.1,0.5,0.3,0.7,0.4c0.2,0.1,0.4,0.3,0.6,0.4c0.1,0.1,0.3,0.2,0.4,0.3c0.1,0.1,0.2,0.2,0.3,0.3
				c0.1,0.1,0.2,0.2,0.3,0.3c2,1.9,2.8,4,2.9,4.1c0.2,0.4,0.9,2.5,0.7,5.3c-0.3,3-1.8,5.9-3,6.9c-0.1,0.1-0.3,0.2-0.4,0.3
				c-0.1,0-0.2,0.1-0.3,0.2c0,0-0.1,0.1-0.1,0.1c0,0.1,0,0.1,0.1,0.2c0.2,0.2,0.6,0.3,1.2,0.4c0.1,0,0.3,0.1,0.4,0.1
				c0.9,0.3,3.5,1.4,6.5,7.5c1.7,3.5,2,5.1,2.3,6.6C68.3,151.1,68.2,155.2,68.2,155.2z"/>
		</g>
	</g>
	<g class="st10">
		<path class="st22" d="M130.6,191.7H94.4c-6.3,0-11.3-5.1-11.3-11.3V151c0-6.3,5.1-11.3,11.3-11.3h36.2c6.3,0,11.3,5.1,11.3,11.3
			v29.4C142,186.7,136.9,191.7,130.6,191.7z"/>
		<g>
			<path class="st18" d="M118.6,159.6v9.3c0,1-0.2,2-0.6,2.9c-0.3,0.7-0.8,1.4-1.4,2c-1.3,1.3-3.1,2.1-5,2.1h-8.9l-8.2,6.9l-1.6,1.3
				l0.8-8.2c-3.9,0-7-3.1-7-7v-9.3c0-2.6,1.4-4.9,3.6-6.1c1-0.6,2.2-0.9,3.5-0.9h17.8C115.5,152.5,118.6,155.7,118.6,159.6z"/>
		</g>
		<g>
			<path class="st19" d="M137.9,154.1v9.3c0,3.9-3.1,7-7,7h-8.7c0.8-1.1,1.3-2.6,1.3-4.1V157c0-3.9-3.1-7-7-7h-9.1
				c1.3-1.8,3.3-2.9,5.7-2.9h17.8C134.8,147.1,137.9,150.2,137.9,154.1z"/>
			<polygon class="st19" points="131.7,178.7 122.1,170.6 122,170.4 130.9,170.4 			"/>
		</g>
	</g>
</g>
</svg>
