<?xml version="1.0" encoding="utf-8"?>
<!-- Generator: Adobe Illustrator 21.0.2, SVG Export Plug-In . SVG Version: 6.00 Build 0)  -->
<svg version="1.1" id="Layer_1" xmlns="http://www.w3.org/2000/svg" xmlns:xlink="http://www.w3.org/1999/xlink" x="0px" y="0px"
	 viewBox="0 0 700 200" style="enable-background:new 0 0 700 200;" xml:space="preserve">
<style type="text/css">
	.st0{fill:#809FFF;}
	.st1{fill:#3A3939;}
	.st2{font-family:'Roboto-Regular';}
	.st3{font-size:25px;}
	.st4{fill:#EDC88C;}
	.st5{fill:#493117;}
	.st6{fill:#A58960;}
	.st7{fill:#1A3380;}
	.st8{fill:#3366FF;}
	.st9{fill:#456614;}
	.st10{fill:#79B224;}
	.st11{fill:#A5F230;}
	.st12{fill:#662400;}
	.st13{fill:#B33E00;}
	.st14{fill:#F25500;}
</style>
<g id="vackground">
	<rect y="0" class="st0" width="700" height="200"/>
	<text transform="matrix(1 0 0 1 44.0029 58.5158)" class="st1 st2 st3">Maybe here?</text>
</g>
<g id="Layer_1_1_">
	<rect x="339.2" y="36.6" class="st4" width="291.8" height="144"/>
	<rect x="350.8" y="114" class="st5" width="56.7" height="56.7"/>
	<rect x="421.7" y="114" class="st5" width="56.7" height="56.7"/>
	<rect x="492.6" y="114" class="st5" width="56.7" height="56.7"/>
	<rect x="563.4" y="114" class="st5" width="56.7" height="56.7"/>
	<rect x="350.8" y="47" class="st6" width="56.7" height="56.7"/>
	<rect x="421.7" y="47" class="st6" width="56.7" height="56.7"/>
	<rect x="492.6" y="47" class="st6" width="56.7" height="56.7"/>
	<rect x="563.4" y="47" class="st6" width="56.7" height="56.7"/>
	<g>
		<rect x="580.4" y="56.1" class="st7" width="13.1" height="47.6"/>
		<rect x="593.5" y="56.1" class="st8" width="13.1" height="47.6"/>
		<rect x="606.6" y="56.1" class="st0" width="13.1" height="47.6"/>
	</g>
	<g>
		<rect x="509.8" y="56.1" class="st9" width="13.1" height="47.6"/>
		<rect x="522.9" y="56.1" class="st10" width="13.1" height="47.6"/>
		<rect x="536" y="56.1" class="st11" width="13.1" height="47.6"/>
	</g>
	<g>
		
			<rect x="345.3" y="72.5" transform="matrix(0.2499 -0.9683 0.9683 0.2499 200.3175 416.7678)" class="st12" width="47.6" height="13.1"/>
		<rect x="381.4" y="56.1" class="st13" width="13.1" height="47.6"/>
		<rect x="394.5" y="56.1" class="st14" width="13.1" height="47.6"/>
	</g>
	<rect x="438.3" y="123" class="st6" width="23.5" height="9.9"/>
	<rect x="511.1" y="123" class="st6" width="23.5" height="9.9"/>
	<rect x="581.7" y="123" class="st6" width="23.5" height="9.9"/>
	<rect x="367.4" y="123" class="st6" width="23.5" height="9.9"/>
</g>
<g id="Layer_3">
</g>
</svg>
