<?xml version="1.0" encoding="utf-8"?>
<!-- Generator: Adobe Illustrator 21.0.2, SVG Export Plug-In . SVG Version: 6.00 Build 0)  -->
<svg version="1.1" id="illustration" xmlns="http://www.w3.org/2000/svg" xmlns:xlink="http://www.w3.org/1999/xlink" x="0px"
	 y="0px" viewBox="0 0 700 200" style="enable-background:new 0 0 700 200;" xml:space="preserve">
<style type="text/css">
	.st0{fill:none;}
	.st1{fill:#7596AF;}
	.st2{fill:#5D758C;}
	.st3{fill:#F4F3F2;}
	.st4{fill:#CBD5F4;}
	.st5{fill:#818CCC;}
	.st6{fill:#59779B;}
	.st7{display:none;opacity:0.1;}
	.st8{display:inline;fill:#9E9D9D;}
	.st9{opacity:0.51;fill:#484849;enable-background:new    ;}
	.st10{fill:#FFFFFF;}
	.st11{fill:#EFB783;}
	.st12{fill:#C56644;}
	.st13{fill:#0D2542;}
	.st14{fill:#2F4E7C;}
	.st15{fill:#795738;}
	.st16{fill:#795738;stroke:#795738;stroke-width:0.5;stroke-miterlimit:10;}
	.st17{fill:#231F20;stroke:#231F20;stroke-width:0.5;stroke-miterlimit:10;}
	.st18{fill:none;stroke:#231F20;stroke-miterlimit:10;}
</style>
<g id="background_1_">
	<rect x="11.6" class="st0" width="698.2" height="175.1"/>
	<g id="background_2_">
		<rect class="st1" width="700" height="189.4"/>
	</g>
	<rect y="182.7" class="st2" width="700" height="18.4"/>
</g>
<g id="tableau">
	<g id="XMLID_2_">
		<g>
			<rect x="346.1" y="173.7" class="st3" width="0.1" height="6.3"/>
			<rect x="346.1" y="173.7" class="st3" width="0.1" height="6.3"/>
			<path class="st3" d="M374.7,181.6c-49.5,0-49.5,0-49.5,0c-0.4-0.4-1.4-1.5-1.2-2.7c0.2-1.3,1.9-2.1,2.8-2.5
				c4.9-2.2,16.6-2.6,19.3-2.7l0,0V54.3h7.7v119.4l0.1,0c2.4,0.1,14.4,0.5,19.4,2.7c0.7,0.4,2.4,1.1,2.6,2.5
				C376.1,180.1,375.3,181.6,374.7,181.6z"/>
		</g>
	</g>
	<g>
		<path class="st4" d="M277.8,126.2c-2.8,0-5-2.2-5-5V26c0-2.8,2.2-5,5-5h143.1c2.8,0,5,2.2,5,5v95.2c0,2.8-2.2,5-5,5H277.8z"/>
		<path class="st3" d="M420.9,26v95.2H277.8V26H420.9 M420.9,16H277.8c-5.5,0-10,4.5-10,10v95.2c0,5.5,4.5,10,10,10h143.1
			c5.5,0,10-4.5,10-10V26C430.9,20.5,426.4,16,420.9,16L420.9,16z"/>
	</g>
	<rect x="283.9" y="35.5" class="st5" width="26.6" height="12.7"/>
	<rect x="356.7" y="35.5" class="st5" width="55.9" height="10.5"/>
	<rect x="283.9" y="57.9" class="st6" width="14.9" height="3"/>
	<rect x="283.9" y="78.7" class="st6" width="60.4" height="3.8"/>
	<rect x="283.9" y="87.8" class="st6" width="60.4" height="3.8"/>
	<rect x="356.2" y="106.2" class="st6" width="60.4" height="3.8"/>
	<rect x="356.2" y="113.6" class="st6" width="60.4" height="3.8"/>
	<rect x="283.9" y="96.8" class="st6" width="60.4" height="3.8"/>
	<g id="graph">
		<rect x="357.7" y="54.7" class="st5" width="12.2" height="47.9"/>
		<rect x="371.9" y="79.8" class="st6" width="12.2" height="22.9"/>
		<rect x="386.4" y="79.8" class="st6" width="12.2" height="22.9"/>
		<rect x="400.3" y="87.8" class="st6" width="12.2" height="14.9"/>
	</g>
	<g class="st7">
		<rect x="349.3" y="20.1" class="st8" width="77.9" height="161.4"/>
	</g>
</g>
<g id="Layer_8">
	<polygon class="st9" points="470.5,200.6 444.4,204 424.4,183.8 448.8,180.6 	"/>
	<polygon class="st9" points="508.7,201 481.9,201 464.4,181.5 489.4,181.5 	"/>
	<polygon class="st9" points="334.6,201 387.1,201.4 375,181.9 325.4,182.2 	"/>
</g>
<g id="Bruno_1_">
	<g id="Bruno_3_">
		<g>
			<path class="st10" d="M490.8,126.4c-2.5-0.6-4.8-1.1-6.4-1.6l0,0c-1.3-0.4-2.1-0.8-2.1-1.1v-0.1c0.6-0.8,5.3-10.6,0.5-17.9
				c-0.6-0.9-1.6-1.9-3.7-4c-2.9-2.9-3.8-3.4-4.3-3.2c-0.4,0.1-0.5,0.6-0.5,0.9c-2.1,11.1-1.5,17.2-1.5,17.2
				c0.2,2.1,0.4,3.5,0.5,4.6H440c0.1-0.7,0.1-1.7,0.2-3c0.1-1.4,0.1-2.3,0.1-2.7c0.2-3.8,0.6-7.4,0.5-12.4c0-1.8-0.2-4.3-1.6-4.7
				c0,0,0,0-0.1,0c-1.5-0.3-2.7,3.9-6.4,6.9c-1.7,1.4-3.4,2.1-4.3,2.4c-3.5,1.3-7,1.5-11,1.6c-0.8,0-1.6,0-1.6,0
				c-1.9,0-3-0.1-4.3-0.1c-0.6,0-1.7-0.1-3.1-0.1l2.9-7.8c2.4,0,5.2-0.1,8.1-0.8c2.6-0.6,4.5-1.4,5-1.6c1.4-0.6,3.7-1.7,8-5.3
				c5.7-4.7,4.5-5.2,6.6-5.9c3.3-1.1,6.7,0,10.8-1.3c0.3,2.6,3.3,4.6,6.9,4.6c3.7,0,6.7-2.1,6.9-4.7c4.2,1.4,7.7,0.2,11.1,1.4
				c2.5,0.9,1.9,2,6.6,5.9c2.9,2.5,5.6,3.9,7.1,4.9c5.3,3.8,5.2,11.9,5.1,23.4c0,2.1-0.2,3.9-0.3,5.1h-0.1
				C492.5,126.8,491.7,126.6,490.8,126.4z"/>
			<path class="st11" d="M472,37.3c1.1,0.7,1.7,2.2,2.5,5.1c-0.6,0.2-1.4,0.2-2.1,0.2c-2.8,0-5.1-2.1-5.1-4.8c0-0.1,0-0.1,0-0.2
				c0.6-0.4,1.7-1,2.3-1.4C470.7,36.6,471.7,37.2,472,37.3z"/>
			<path class="st11" d="M490.9,128.6c0.2,1.9,0.6,1.9,0.6,3.2c0,2.9-2.4,5.6-2.4,5.6s-0.7,0.2-1.2,0c-0.6-0.2-0.6-0.8-0.9-0.8
				s-0.3,0.6-0.8,0.8c-0.4,0.2-0.9,0.1-1.1-0.2c-0.5-0.4-0.3-1-0.5-1.1c-0.3-0.1-0.7,0.9-1.2,0.9c-0.4,0-0.8-0.6-0.9-0.7
				c-0.3-0.5-0.2-0.7-0.4-0.8c-0.4-0.2-1.1,0.6-1.5,0.5c-0.3-0.1-0.3-0.5-0.4-1.1c-0.1-0.7,0-1-0.2-1.1c-0.3-0.2-1,0.5-1.5,0.3
				c-0.3-0.1-0.4-0.4-0.4-0.7c0,0,0.2-1,0.6-2.3c0.2-0.8,0.6-1.8,1-2.7s0.5-1.2,0.8-1.4c1-0.8,2.1-0.4,3.1-1
				c0.4-0.2,0.8-0.6,1.1-1.3c1.6,0.5,3.9,1.1,6.4,1.6C490.8,127.1,490.8,127.8,490.9,128.6z"/>
			<path class="st10" d="M489.6,181.2c0.3,0.7,0.4,1.5,0.3,2.2c0,0.2-0.2,0.6-0.5,1c-1.8,2.2-6.7,2.1-8.9,1.9
				c-3.8-0.3-12.6-3.3-15.6-4.3c0-0.1,0.5-1.5,0.7-2.5v-0.1c2.7,1.5,5.2,2.3,7,2.9c1.7,0.5,3.2,0.8,6.3,1.3c0.1,0,2.9,0.5,5.9,0.4
				c0.6,0,1.5-0.1,2.4-0.5s1.4-0.9,1.7-1.2C489.2,181.8,489.4,181.5,489.6,181.2z"/>
			<path class="st12" d="M489.6,181.2c-0.2,0.3-0.4,0.6-0.7,0.9c-0.3,0.3-0.8,0.9-1.7,1.2c-1,0.4-1.8,0.5-2.4,0.5
				c-3,0.1-5.8-0.4-5.9-0.4c-3.1-0.5-4.6-0.8-6.3-1.3c-1.8-0.5-4.3-1.4-7-2.9c0.5-2.5,0-3.3,0.9-4.1c0.4-0.3,0.9-0.5,1.2-0.5v2.8
				h8.1v-3.8c0.5-0.1,1.1-0.2,1.6-0.1c0.4,0.1,0.6,0.2,3.3,2.6c1,0.8,1,0.8,1.1,0.9c1.7,1.1,3.2,0.7,4.4,1
				C487.8,178.7,489.1,179.9,489.6,181.2z"/>
			<path class="st11" d="M479.4,54.7c0.4,0.9,0,1.4-0.4,3.2s-0.5,2.6-0.5,3.5c0,0.4,0.1,1-0.3,1.6c-0.1,0.2-0.4,0.6-1,0.8
				c-0.3,0.1-0.5,0.1-0.8,0.1c0.3-4.5,0.6-7.6,0.7-10.7c0.4,0.1,0.9,0.2,1.3,0.5C478.7,53.8,479.2,54.1,479.4,54.7z"/>
			<g>
				<path class="st13" d="M476.3,172.5v-1.6h-9.1v1.6h-0.6c-0.5,0-1-0.5-1-1v-2.1c0-0.5,0.5-1,1-1h11.3c0.5,0,1,0.5,1,1v2.1
					c0,0.5-0.5,1-1,1H476.3z"/>
				<path class="st13" d="M477.9,168.9c0.2,0,0.5,0.3,0.5,0.5v2.1c0,0.2-0.3,0.5-0.5,0.5h-1.1v-0.6v-1h-1h-8.1h-1v1v0.6h-0.1
					c-0.2,0-0.5-0.3-0.5-0.5v-2.1c0-0.2,0.3-0.5,0.5-0.5h0.2h10.3H477.9 M477.9,167.9h-0.8h-10.3h-0.2c-0.8,0-1.5,0.7-1.5,1.5v2.1
					c0,0.8,0.7,1.5,1.5,1.5h1.1v-1.6h8.1v1.6h2.1c0.8,0,1.5-0.7,1.5-1.5v-2.1C479.4,168.6,478.7,167.9,477.9,167.9L477.9,167.9z"/>
			</g>
			<path class="st14" d="M476.9,167.9h-10.2l0,0c-0.7-9.5-1.7-16.7-2.3-20.4c-0.1-0.6-0.3-1.5-0.6-3.1c-0.6-3.2-0.6-3.7-1.1-5.2
				c-0.4-1.2-0.9-2.2-1.3-3.1c-0.5-1.1-1-2.1-1.4-2.8c-0.2-0.3-0.8-1.1-1.9-1.5c-0.3-0.1-0.7-0.1-1-0.1V131h17.5
				C475.3,138.3,476.1,149.9,476.9,167.9z"/>
			<path class="st14" d="M458.4,130l-1.2,1.6c-0.9,0-1.6,0.3-1.9,0.5c-3,1.4-4,6-4.5,8.3c-2,10.3-2.2,24.4-2.3,27.5v0.1
				c-0.1,0-0.3-0.1-0.4-0.1h-10.7c1.7-22.1,2.4-33.4,2.5-37.9h17.2H458.4z"/>
			<path class="st14" d="M474.6,131.1c-5.8,0-11.6,0-17.5,0h-17.3c0-1,0-1.8,0-2.3c0-0.9-0.1-3.5,0.1-6.7c0-0.2,0-0.5,0.1-0.9h33.3
				c0.1,0.5,0.1,1,0.2,1.4c0.1,0.5,0.4,2.5,0.6,4.4C474.3,128.1,474.4,129.5,474.6,131.1z"/>
			<path class="st15" d="M477.4,36.5c0,0.6,0.1,1.4,0.1,2.5c-0.4,1.5-1.5,2.8-3.1,3.4c-0.7-2.9-1.6-4-2.7-4.7c-0.3-0.2-1-0.7-2.2-1
				c1.5-1,2.1-2.2,2.4-3.5h0.5C474.8,33.2,476.8,34.6,477.4,36.5z"/>
			<path class="st12" d="M475.8,173.8v3.8h-8.1v-2.8c0.1,0,0.2,0,0.2,0.1c0.2,0.2-0.2,0.5-0.1,1c0.2,0.7,1.9,1.4,3.3,1
				c1.1-0.3,1.1-0.9,2.5-1.9C474.1,174.6,474.9,174.1,475.8,173.8z"/>
			<path class="st11" d="M475.8,173v0.9c-0.9,0.3-1.7,0.9-2.2,1.2c-1.4,1-1.4,1.7-2.5,2c-1.4,0.3-3.1-0.3-3.3-1.1
				c-0.1-0.4,0.3-0.9,0.1-1.1c0,0-0.1-0.1-0.2-0.1V173H475.8z"/>
			<rect x="467.4" y="170.7" class="st13" width="9.1" height="2.3"/>
			<path class="st11" d="M457.1,69c-0.6,0.1-1.1,0-1.5-0.1s-0.4-0.2-0.8-0.3c-0.7-0.1-1,0.2-1.5,0c-0.5-0.1-0.4-0.7-0.9-0.8
				c-0.2,0-0.5,0-0.8,0.1s-0.6,0.2-0.8,0.3c-0.6,0.3-0.8,0.6-1.5,1s-0.7,0.3-1.1,0.7c-0.6,0.4-0.9,0.9-1.1,1.1
				c-0.9,0.9-2.5,0.9-3.1,0.8c-0.8-0.1-2.2-0.7-3.9-4.2c-0.7-1.5-2-4.9-1.9-13.9c0-0.7,0.1-4.2,0.7-8.9c0.9-6,1.9-7.8,3.4-8.8
				c0.3-0.2,1.7-1.2,3.6-1.3c2-0.1,3,0.9,5.4,1.6c0.9,0.2,2.4,0.6,4.2,0.4c1.6,0.6,3.5,0.8,5.4,0.8c2.5,0,4.9-0.4,6.8-1.3
				c0,0.1,0,0.1,0,0.2c0,2.9,2.3,5.4,5.2,5.4c0.7,0,0.9,0,1.6-0.2c0.2,1,0.8,2,1,3.4c0.7,4.7,0.7,8.3,0.7,8.9
				c0.1,9-1.2,12.5-1.9,13.9c-1.7,3.6-3.1,4.1-3.9,4.2c-0.6,0.1-2.2,0.1-3.1-0.8c-0.3-0.3-0.5-0.7-1.1-1.1c-0.4-0.3-0.4-0.2-1.1-0.7
				c-0.6-0.4-0.9-0.7-1.5-1c-0.2-0.1-0.4-0.2-0.8-0.3c-0.3-0.1-0.5-0.1-0.8-0.1c-0.5,0.1-0.4,0.6-0.9,0.8c-0.5,0.2-0.8-0.2-1.5,0
				c-0.4,0.1-0.4,0.2-0.8,0.3C458.2,69,457.7,69.2,457.1,69z M473.5,51.2c0.6-0.1,1-0.5,0.9-1.1c-0.1-0.2-0.2-0.6-2.5-1.2
				c-1.4-0.4-2.4-0.7-3.9-0.8c-0.9-0.1-1.5-0.1-2.3,0c-0.7,0.1-1,0.3-2,0.4c-0.2,0-0.4,0.1-0.9,0.2s-0.7,0.2-0.8,0.3
				c-0.2,0.2-0.1,0.6-0.1,0.7c0.1,0.7,0.7,1.7,1.5,1.8c0.7,0,0.8-0.7,1.8-1.1c0.6-0.3,1.3-0.3,2.8-0.2c2.3,0.1,3.6,0.1,4.6,0.8
				C472.8,51.5,473.1,51.4,473.5,51.2z M469.8,54.4c0-1.1-1-2.1-2.1-2.1c-1.2,0-2.1,0.9-2.1,2.1c0,1.1,1,2.1,2.1,2.1
				S469.8,55.7,469.8,54.4z M452.5,50.1c0-0.2,0.1-0.4-0.1-0.7c-0.1-0.1-0.3-0.2-0.8-0.3s-0.8-0.2-0.9-0.2c-1-0.2-1.3-0.3-2-0.4
				c-0.8-0.1-1.4-0.1-2.3,0c-1.4,0.1-2.4,0.3-3.9,0.8c-2.3,0.7-2.5,1-2.5,1.2c-0.2,0.6,0.4,1.5,1,1.6c0.4,0.1,0.7-0.2,1.1-0.4
				c1-0.7,2.2-0.8,4.6-0.8c1.4-0.1,2.1-0.1,2.8,0.2c1,0.4,1.1,1.1,1.8,1.1C451.8,51.7,452.4,50.7,452.5,50.1z M448.8,54.4
				c0-1.1-1-2.1-2.1-2.1c-1.2,0-2.1,0.9-2.1,2.1c0,1.1,1,2.1,2.1,2.1S448.8,55.7,448.8,54.4z"/>
			<path class="st15" d="M456.8,72.4c1.4-0.1,2.6-0.3,3.4-0.5c2.3-0.5,2.4-0.9,2.4-1c0-0.3-0.2-0.6-0.6-0.7s-0.6,0.1-1.2,0.3
				c-0.3,0.1-0.8,0.1-1.7,0.2c-0.6,0.1-1.3,0.1-2.2,0.1h-0.1c-0.9,0-1.6-0.1-2.2-0.1c-1-0.1-1.5-0.1-1.7-0.2
				c-0.6-0.2-0.9-0.4-1.2-0.3c-0.3,0.1-0.6,0.4-0.6,0.7c0,0.1,0.1,0.5,2.4,1C454.2,72.1,455.4,72.3,456.8,72.4z M452.9,81.7
				c-0.8,0.4-1.5,1-2,1.7c-1.5-0.4-3.2-1-4.9-2c-1.5-0.8-5.6-3.2-7.6-7.6c-0.9-2-1-3.6-1.1-4.6c-0.1-2-0.3-3.8-0.4-5.5
				c-0.3-4.5-0.6-7.6-0.7-10.7c-0.2-3.8-0.2-7.6,0.1-13.8c0.1-3.7,0.2-4.5,0.8-5.7c3.1-5.9,12.9-8,16.3-8.7c1.3-0.3,2.4-0.5,3.2-0.6
				h0.4c0.7,0.1,1.8,0.3,3.2,0.6c1.1,0.2,2.8,0.6,4.7,1.2c-1.4-0.3-2.9-0.5-4.5-0.5c-6.5,0-11.8,3-11.8,6.8c0,2.6,2.6,4.9,6.5,6
				c-1.8,0-3.2-0.2-4.1-0.4c-2.3-0.6-3.3-1.5-5.3-1.4c-1.8,0.1-3.2,1-3.5,1.2c-1.4,1-2.4,2.5-3.3,7.9c-0.7,4.2-0.7,7.4-0.7,8
				c-0.1,8.1,1.2,11.2,1.9,12.5c1.7,3.2,3.1,3.7,3.8,3.8c0.6,0.1,2.2,0.1,3.1-0.7c0.3-0.3,0.5-0.6,1.1-1c0.4-0.3,0.4-0.2,1.1-0.6
				c0.6-0.4,0.9-0.6,1.5-0.9c0.2-0.1,0.4-0.2,0.8-0.3c0.3-0.1,0.5-0.1,0.8-0.1c0.5,0.1,0.4,0.5,0.9,0.7s0.8-0.2,1.5,0
				c0.3,0.1,0.4,0.2,0.8,0.3s0.9,0.2,1.5,0.1c0.6,0.1,1.1,0,1.5-0.1s0.4-0.2,0.8-0.3c0.7-0.1,1,0.2,1.5,0c0.5-0.1,0.4-0.6,0.9-0.7
				c0.2,0,0.5,0,0.8,0.1s0.6,0.2,0.8,0.3c0.6,0.3,0.8,0.5,1.5,0.9s0.7,0.3,1.1,0.6c0.6,0.4,0.9,0.8,1.1,1c0.9,0.8,2.5,0.8,3.1,0.7
				c0.8-0.1,2.2-0.6,3.8-3.8c0.7-1.3,2-4.4,1.9-12.5c0-0.6-0.1-3.8-0.7-8c-0.2-1.3-0.6-2.7-0.8-3.6c1.6-0.6,2.5-3.9,2.9-5.5
				c0,0.1,0.4,2.6,0.4,2.7c0.2,6.3,0.2,10,0.1,13.8c-0.1,3.1-0.4,6.2-0.7,10.7c-0.1,1.6-0.2,3.4-0.4,5.5c-0.1,1-0.2,2.6-1.1,4.6
				c-2,4.4-6.1,6.8-7.6,7.6c-1.5,0.9-3.1,1.4-4.5,1.9c-0.4-0.5-1-1-1.6-1.4c-1.2-0.7-2.7-1.1-4.4-1.1
				C455.5,80.7,454,81.1,452.9,81.7z"/>
			<path class="st16" d="M474.5,49.8c0.2,0.5-0.4,1.3-1,1.4c-0.4,0.1-0.7-0.2-1.1-0.4c-1-0.6-2.2-0.7-4.5-0.7
				c-1.4-0.1-2.1-0.1-2.8,0.2c-1,0.4-1.1,1-1.8,1c-0.8,0-1.4-1-1.5-1.6c0-0.2-0.1-0.4,0.1-0.6c0.1-0.1,0.3-0.2,0.8-0.3
				s0.8-0.2,0.9-0.2c1-0.2,1.3-0.3,2-0.4c0.8-0.1,1.4-0.1,2.3,0c1.4,0.1,2.4,0.3,3.8,0.7C474.2,49.3,474.4,49.6,474.5,49.8z"/>
			<path class="st15" d="M472.2,32.4c0,0.3,0,0.6-0.1,1c-2.2,0-4.1,1.4-4.7,3.2c-1.6,0.1-2.6,0.9-4.7,1.4c-1.2,0.3-3.2,0.6-5.7,0.3
				c-0.6,0.1-2.6,0.1-3.1,0.1c-3.9-1.1-8.6-3.5-8.6-6.1c0-3.7,5.1-7.4,11.6-7.4c1.6,0,6.8,0.9,8.2,1.2c1,0.3,2.1,0.7,3.2,1.1
				C470.6,28.5,472.2,30.3,472.2,32.4z"/>
			<path class="st15" d="M472.1,33.3c-0.3,1.3-1.2,2.4-2.7,3.4c-0.4-0.1-1-0.1-1.4-0.1c-0.2,0-0.4,0-0.6,0
				C468,34.7,469.9,33.3,472.1,33.3z"/>
			<path class="st11" d="M469.3,36.7c-0.7,0.4-1.4,0.8-2.2,1.1c0-0.5,0.1-0.8,0.3-1.3c0.2,0,0.6,0,0.8,0
				C468.7,36.6,468.9,36.6,469.3,36.7z"/>
			<ellipse class="st17" cx="467.8" cy="54.5" rx="2.1" ry="1.9"/>
			<path class="st11" d="M467.4,36.5c-0.2,0.4-0.2,0.9-0.3,1.4c-1.9,0.7-4.2,1.2-6.7,1.2c-1.9,0-3.7-0.3-5.3-0.7
				c0.6,0,1.2-0.1,1.8-0.1c2.6,0.3,4.5,0,5.7-0.3C464.7,37.4,465.7,36.6,467.4,36.5z"/>
			<path class="st11" d="M463.6,86.3c0.1,0,0.2,0.1,0.2,0.1c-0.3,2.6-3.3,4.4-6.9,4.7c-3.6,0.3-6.9-1.8-7.2-4.7
				c0.2-0.1,0.6-0.1,0.8-0.2c0.5-0.2,1.2-0.5,1.8-1.2c0.3-0.3,0.5-0.7,0.5-1.1c1.6,0.3,2.9,0.3,3.8,0.4c1.1,0,2.7-0.1,4.6-0.5
				c0.1,0.4,0.3,0.9,0.6,1.2C462.5,85.8,463.2,86.2,463.6,86.3z"/>
			<path class="st11" d="M462.1,70.1c0.3,0.1,0.6,0.5,0.6,0.9c0,0.1-0.1,0.6-2.4,1.3c-0.8,0.3-2,0.5-3.4,0.6
				c-1.4-0.1-2.6-0.4-3.4-0.6c-2.3-0.6-2.4-1.1-2.4-1.3c0-0.4,0.2-0.8,0.6-0.9s0.6,0.1,1.2,0.4c0.3,0.1,0.8,0.1,1.7,0.3
				c0.6,0.1,1.3,0.1,2.2,0.1h0.1c0.9,0,1.6-0.1,2.2-0.1c1-0.1,1.5-0.1,1.7-0.3C461.4,70.3,461.7,70,462.1,70.1z"/>
			<path class="st15" d="M462,81.6c0.8,0.5,1.4,1,1.9,1.6c-0.7,0.3-1.3,0.4-1.9,0.6C461.9,83.1,461.9,82.4,462,81.6z"/>
			<path class="st15" d="M462.1,83.9c-2.1,0.5-3.9,0.6-5.2,0.6c-1,0-2.5-0.1-4.3-0.5c0.2-0.9,0.1-1.9-0.1-2.6
				c1.4-0.7,2.9-1.2,4.6-1.2c1.9,0,3.6,0.5,5,1.4C462.1,82.2,462,83,462.1,83.9z"/>
			<path class="st15" d="M452.7,81.4c0.1,0.7,0.2,1.7,0.1,2.6c-0.7-0.1-1.5-0.4-2.3-0.6C451,82.6,451.8,81.9,452.7,81.4z"/>
			<path class="st16" d="M452.6,49.6c0.2,0.2,0.1,0.5,0.1,0.6c-0.1,0.6-0.7,1.5-1.5,1.6c-0.7,0-0.8-0.6-1.8-1
				c-0.6-0.3-1.3-0.3-2.8-0.2c-2.3,0.1-3.5,0.1-4.5,0.7c-0.4,0.2-0.7,0.5-1.1,0.4c-0.6-0.1-1.1-0.9-1-1.4c0.1-0.2,0.3-0.5,2.5-1.1
				c1.4-0.4,2.4-0.6,3.8-0.7c0.9-0.1,1.5-0.1,2.3,0c0.7,0.1,1,0.3,2,0.4c0.2,0,0.4,0.1,0.9,0.2C452.3,49.4,452.5,49.5,452.6,49.6z"
				/>
			<path class="st13" d="M449.6,169.4v2.1c0,0.8-0.7,1.5-1.5,1.5h-1.5v-1.6h-8.1v1.6h-1.6c-0.8,0-1.5-0.7-1.5-1.5v-2.1
				c0-0.8,0.7-1.5,1.5-1.5h0.5h10.7c0.1,0,0.3,0,0.4,0.1C449.2,168.1,449.6,168.7,449.6,169.4z"/>
			<path class="st10" d="M448.7,179.5c0.2,1,0.7,2.4,0.7,2.5c-3,1-11.7,4-15.6,4.3c-2.2,0.2-7.1,0.3-8.9-1.9c-0.4-0.4-0.5-0.8-0.5-1
				c-0.2-0.7-0.1-1.4,0.3-2.2c0.2,0.3,0.4,0.6,0.7,0.9c0.3,0.3,0.8,0.9,1.7,1.2c1,0.4,1.8,0.5,2.4,0.5c3,0.1,5.8-0.4,5.9-0.4
				c3.1-0.5,4.6-0.8,6.3-1.3c1.8-0.5,4.3-1.4,7-2.9C448.7,179.4,448.7,179.4,448.7,179.5z"/>
			<path class="st12" d="M447.8,175.3c0.9,0.7,0.4,1.6,0.9,4.1c-2.7,1.5-5.2,2.3-7,2.9c-1.7,0.5-3.2,0.8-6.3,1.3
				c-0.1,0-2.9,0.5-5.9,0.4c-0.6,0-1.5-0.1-2.4-0.5s-1.4-0.9-1.7-1.2c-0.3-0.3-0.5-0.6-0.7-0.9c0.6-1.3,1.8-2.5,3.3-3
				c1.2-0.3,2.8,0,4.4-1c0.1-0.1,0.1-0.1,1.1-0.9c2.8-2.4,3-2.5,3.3-2.6c0.5-0.1,1.1-0.1,1.6,0.1v3.8h8.1V175
				C446.9,174.8,447.4,175,447.8,175.3z"/>
			<ellipse class="st17" cx="446.6" cy="54.5" rx="2.1" ry="1.9"/>
			<path class="st12" d="M446.7,175.1v3h-8.3V174c0.9,0.3,1.8,0.9,2.3,1.2c1.4,1,1.4,1.7,2.6,2.1c1.4,0.3,3.2-0.3,3.4-1.1
				c0.1-0.4-0.3-0.9-0.1-1.1C446.5,175.1,446.6,175.1,446.7,175.1z"/>
			<path class="st11" d="M446.7,173v2.2c-0.1,0-0.2,0-0.2,0.1c-0.2,0.2,0.2,0.6,0.1,1.2c-0.2,0.8-2,1.7-3.4,1.2
				c-1.1-0.4-1.1-1.1-2.6-2.3c-0.5-0.4-1.3-1.1-2.3-1.3V173H446.7z"/>
			<rect x="438.5" y="171.4" class="st13" width="8.1" height="1.6"/>
			<path class="st11" d="M437,63.9c-0.2,0-0.5,0-0.7-0.1c-0.6-0.2-0.9-0.6-1-0.8c-0.4-0.6-0.3-1.2-0.3-1.6c0.1-0.8-0.1-1.7-0.5-3.5
				s-0.8-2.3-0.4-3.2c0.3-0.6,0.7-1,0.8-1.1c0.4-0.3,0.9-0.4,1.3-0.5C436.4,56.2,436.6,59.4,437,63.9z"/>
			<path class="st10" d="M411.5,101.3l-2.9,7.8c-0.7,0-1.4,0-2.2,0c-2.5,0-3.5,0.2-4,0.2l0.7-1.8c0.2,0,0.4-0.1,0.5-0.2
				c2-0.9,2.4-4.4,1.7-5.7l0.4-1.1l0,0C406.6,100.9,408.7,101.3,411.5,101.3z"/>
			<path class="st10" d="M405.6,100.6l-0.4,1.1c-0.1-0.2-0.3-0.4-0.5-0.5s-0.4,0-0.7,0c0.5-0.4,0.9-0.7,1.4-0.7
				C405.5,100.5,405.6,100.6,405.6,100.6z"/>
			<path class="st10" d="M405.2,101.7c0.7,1.3,0.3,4.8-1.7,5.7c-0.2,0.1-0.4,0.1-0.5,0.2L405.2,101.7z"/>
			<path class="st10" d="M405.2,101.7l-2.2,5.9c-0.6,0.1-1.1,0-1.8,0c0-0.9,0.3-2.1,0.7-3.1c0.5-1.3,1.3-2.5,2.1-3.2
				c0.3,0,0.5-0.1,0.7,0C404.9,101.3,405.1,101.4,405.2,101.7z"/>
			<path class="st11" d="M403.4,101.3c0.3,0,0.5,0,0.7-0.1c-0.8,0.7-1.5,1.9-2.1,3.2c-0.5,1.1-0.7,2.2-0.7,3.1c-0.6,0-1.3,0.1-2,0.5
				s-0.8,0.8-1.8,1.2c-0.5,0.2-1,0.4-2.3,0.6c-4,0.6-6.4-0.2-7.5-0.1c0,0-0.2,0-0.4-0.1c-0.3-0.2-0.5-0.6-0.4-0.8
				c0-0.1,0.1-0.1,0.4-0.3c0.6-0.4,0.7-0.5,0.7-0.6c0,0,0.2-0.3,0-0.6c-0.2-0.4-0.9-0.2-1.3-0.6c-0.2-0.2-0.3-0.6-0.2-0.9
				c0.1-0.3,0.4-0.4,0.5-0.4c0.4-0.2,0.6,0,0.8-0.2c0.1-0.1,0.1-0.3,0-0.4c-0.2-0.2-0.5,0.1-1-0.1s-0.7-0.7-0.7-0.7
				c0-0.1-0.1-0.4,0-0.7c0.3-0.4,1.1-0.2,1.4-0.6c0.1-0.2,0.1-0.5-0.1-0.6c-0.1-0.1-0.3,0-0.4,0c0,0-0.6,0-1.9,0
				c-3.5,0-2.8-0.2-3.8-0.1c-0.2,0-0.7,0.1-1.2-0.1c-0.1-0.1-0.7-0.3-0.7-0.7c0-0.3,0.4-0.6,0.4-0.6c0.3-0.2,0.5-0.2,0.9-0.2
				c0.5,0,1-0.1,1.5-0.1c1.6,0.1,4.1,0.1,5.3,0c0.8,0,1.6-0.1,1.6-0.1c0.6,0,0.7,0,0.8,0c0.7,0,1.1,0,1.9,0c2,0.1,2.1,0,2.2,0
				c0.1-0.1,0-0.4-1.2-1.3c-2-1-2.2-1.4-2.2-1.4c-0.3-0.6,0-1.6,0.6-1.8s1.3,0.4,2.3,1.2c0,0,3.9,2.8,7.1,4
				C401.5,101,402.3,101.3,403.4,101.3z"/>
			<path class="st10" d="M403,107.5l-0.7,1.8c-0.2,0-0.4-0.1-0.5-0.2c-0.4-0.3-0.6-0.9-0.6-1.6C401.9,107.6,402.4,107.7,403,107.5z"
				/>
		</g>
		<g>
			<ellipse class="st18" cx="446.4" cy="54.3" rx="2.1" ry="1.9"/>
			<ellipse class="st18" cx="467.2" cy="54.3" rx="2.1" ry="1.9"/>
		</g>
	</g>
</g>
<path class="st3" d="M393.6,53.8"/>
</svg>
