<?xml version="1.0" encoding="utf-8"?>
<!-- Generator: Adobe Illustrator 21.0.2, SVG Export Plug-In . SVG Version: 6.00 Build 0)  -->
<svg version="1.1" xmlns="http://www.w3.org/2000/svg" xmlns:xlink="http://www.w3.org/1999/xlink" x="0px" y="0px"
	 viewBox="0 0 4451.3 1304.9" style="enable-background:new 0 0 4451.3 1304.9;" xml:space="preserve">
<style type="text/css">
	.st0{fill:none;}
	.st1{fill:#F9C091;}
	.st2{display:none;fill:#861600;}
	.st3{display:none;opacity:0.97;fill:#F76126;enable-background:new    ;}
	.st4{display:none;}
	.st5{fill:#283344;stroke:#000000;stroke-miterlimit:10;}
	.st6{fill:none;stroke:#000000;stroke-miterlimit:10;}
	.st7{fill:#273344;stroke:#000000;stroke-miterlimit:10;}
	.st8{fill:#354359;stroke:#000000;stroke-miterlimit:10;}
	.st9{fill:#FFFFFF;}
	.st10{display:none;fill:none;stroke:#000000;stroke-miterlimit:10;}
	.st11{fill:#0C3D37;}
	.st12{fill:#4DA49B;}
	.st13{opacity:0.22;fill:#E5E3E3;stroke:#E5E3E3;stroke-miterlimit:10;enable-background:new    ;}
	.st14{display:none;fill:#F4D178;stroke:#F4D178;stroke-miterlimit:10;}
	.st15{opacity:0.3;fill:#B6DDF2;stroke:#B6DDF2;stroke-miterlimit:10;enable-background:new    ;}
	.st16{fill:#FDFEFE;}
	.st17{display:inline;fill:#4DA49B;}
	.st18{display:inline;fill:#397C75;}
	.st19{display:inline;fill:#65A39E;}
	.st20{fill:#0C3D37;enable-background:new    ;}
	.st21{font-family:'MyriadPro-Regular';}
	.st22{font-size:182.0829px;}
	.st23{display:inline;}
	.st24{enable-background:new    ;}
	.st25{opacity:0.62;fill:#FFFFFF;enable-background:new    ;}
	.st26{opacity:0.63;fill:#23FAE0;enable-background:new    ;}
	.st27{opacity:0.63;fill:#5DA399;enable-background:new    ;}
	.st28{opacity:0.63;fill:#288474;enable-background:new    ;}
	.st29{opacity:0.62;fill:#D3DDDA;enable-background:new    ;}
	.st30{opacity:0.68;}
	.st31{fill:#5DA399;}
	.st32{fill:#288474;}
	.st33{fill:#23FAE0;}
	.st34{font-size:279.1932px;}
	.st35{opacity:0.62;fill:#CFE2DE;enable-background:new    ;}
	.st36{font-size:242.2321px;}
	.st37{display:inline;fill:#35352E;}
	.st38{opacity:0.62;fill:#A8AFAE;enable-background:new    ;}
</style>
<g id="Layer_2_2_">
</g>
<g id="Layer_1">
	<g id="Layer_1_1_">
		<g id="illustration">
			<g id="background_1_">
				<rect x="74" class="st0" width="4439.4" height="1144"/>
				<g id="background_2_">
					<rect class="st1" width="4451.3" height="1306.8"/>
				</g>
				<rect x="0" y="1193.4" class="st2" width="4451.6" height="120.3"/>
			</g>
			<rect x="0" y="1054.8" class="st3" width="4451.6" height="251.6"/>
		</g>
		<g id="Layer_2">
			<g id="cHtMz0.tif" class="st4">
				
					<image style="display:inline;overflow:visible;enable-background:new    ;" width="299" height="170" id="Layer_0_1_" xlink:href="905DC5FE172816A2.png"  transform="matrix(6.0452 0 0 6.0452 2119.5828 -1134.3489)">
				</image>
			</g>
			<g id="computer">
				<path class="st5" d="M2813.5,1167.8h-359c0.6,0,0.6-0.6,1.2-0.6c68.8-36.5,113.8-88.2,113.2-166.1h130.8
					c-0.6,77.9,43.8,129.6,113.2,166.1C2812.9,1167.2,2812.9,1167.8,2813.5,1167.8z"/>
				<path class="st6" d="M2814.7,1167.8h-1.2h-359c69.4-37.1,115-88.2,114.4-166.7h131.3"/>
				<rect x="2388.7" y="1167.8" class="st7" width="514.3" height="52.3"/>
				<path class="st8" d="M3189.8,263.7v699.9c0,21.2-17.6,38.9-39.4,38.9h-1033c-22.4,0-39.4-17.6-39.4-38.2V264.9
					c0-21.7,17.8-39.5,39.5-39.5h1033C3172.8,226.1,3189.8,243.1,3189.8,263.7z"/>
				<path class="st9" d="M3115.1,880.3h-961.7c-22.5,0-39.5-17.6-39.5-38.2V306.6c0-21.7,17.8-39.5,39.5-39.5h962.3
					c22.5,0,39.5,17.6,39.5,38.2v536.7C3155.2,863.3,3137.6,880.3,3115.1,880.3z"/>
				<ellipse class="st10" cx="2635.8" cy="944.3" rx="27.3" ry="26.1"/>
				<ellipse class="st10" cx="2705.6" cy="944.3" rx="27.3" ry="26.1"/>
				<ellipse class="st10" cx="2566.6" cy="944.3" rx="27.3" ry="26.1"/>
				<g>
					<path class="st11" d="M2194,737.6c300.4,0,602.1,0,902.5,0l-220.9-409.1l-77.7,159.6c-23.1-19.4-45.5-38.2-68-57.7
						C2635.8,575,2635.8,575,2635.8,575l-48.6-27.9l-109.9,104.4l-169.9,3.6L2194,737.6z"/>
					<polygon class="st12" points="2297.8,681.8 2450.7,616.8 2507.8,534.3 2643.1,681.8 2751.2,450.5 2815.5,504 2889.5,354 
						3097.1,737.6 2248.6,737.6 					"/>
					<rect x="2248.1" y="351.9" class="st11" width="262.8" height="49.4"/>
					<rect x="2225.5" y="805.4" class="st11" width="871.7" height="25.4"/>
				</g>
				<path class="st13" d="M3191.2,263.2v700.6c0,21.2-17.6,38.8-39.4,38.8h-451.1c-0.6,77.5,43.6,129,112.6,165.3h89.6v52.3h-268.4
					V225.5h517.2C3174.2,225.5,3191.2,242.5,3191.2,263.2z"/>
			</g>
			<g id="tablet">
				<path class="st8" d="M1919,1224.3h-446.5c-12.1,0-21.8-9.8-21.8-21.8V589.2c0-12.1,9.8-21.8,21.8-21.8H1919
					c12.1,0,21.8,9.8,21.8,21.8v613.3C1940.9,1214.6,1931.1,1224.3,1919,1224.3z"/>
				<rect x="1488.1" y="609.1" class="st9" width="415.4" height="559.5"/>
				<path class="st14" d="M1757,595.3h-122c-1.8,0-3-1.2-3-3V588c0-1.8,1.2-3,3-3h122c1.8,0,3,1.2,3,3v4.2
					C1760.6,593.5,1758.8,595.3,1757,595.3z"/>
				<path class="st15" d="M1702.4,1212c-1.8,0.6-4.2,1.2-6.7,1.2c-9.1,0-16.4-7.3-16.4-16.4s7.3-16.4,16.4-16.4s16.4,7.3,16.4,16.4
					C1712.1,1203.5,1707.8,1209.5,1702.4,1212"/>
				<g>
					<path class="st11" d="M1500.2,1058.3c129.3,0,259.2,0,388.4,0L1794,654.7l-34,157.2c-9.7-18.8-19.4-37.6-29.1-56.4
						c-40.1,141.4-40.1,141.4-40.1,141.4l-20.6-27.9l-47.3,103.2l-73.4,3.6L1500.2,1058.3z"/>
					<polyline class="st12" points="1545.2,1003.1 1610.7,938.8 1635,858 1693.9,1003.1 1740,774.9 1767.9,827.7 1799.5,680.2 
						1888.7,1058.3 1523.4,1058.3 					"/>
					<rect x="1523.4" y="676.9" class="st11" width="113" height="46.6"/>
					<rect x="1513.5" y="1102.1" class="st11" width="374.4" height="24"/>
				</g>
				<path class="st13" d="M1696.4,567.4h245.8v640c0,9.1-7.3,17-17,17h-228.8L1696.4,567.4L1696.4,567.4z"/>
			</g>
			<g id="cellphone">
				<path class="st8" d="M2183.9,905.2v289.4c0,13.4-12.1,25.5-27.9,25.5h-156.2c-15.1,0-27.9-11.6-27.9-25.5V905.2
					c0-14,12.1-25.5,27.9-25.5H2156C2171.8,880.2,2183.9,891.2,2183.9,905.2z"/>
				<rect x="1989.6" y="915.6" class="st16" width="176.6" height="245.8"/>
				<path class="st14" d="M2110.2,902.4h-64.3c-2.4,0-3.6-1.2-3.6-3l0,0c0-1.8,1.2-3,3.6-3h64.3c2.4,0,3.6,1.2,3.6,3l0,0
					C2113.9,901.2,2112,902.4,2110.2,902.4z"/>
				<g>
					<path class="st11" d="M1998.6,1106.4c53.4,0,106.2,0,159.6,0l-38.8-166.3l-14,64.9c-3.6-7.9-7.9-15.2-11.5-23.1
						c-17,58.3-17,58.3-17,58.3l-8.5-11.5l-20,42.5l-29.7,1.2L1998.6,1106.4z"/>
					<polygon class="st12" points="2016.8,1083.3 2044.1,1056.6 2054.4,1023.2 2078.7,1083.3 2097.5,989.2 2109,1010.5 
						2121.8,950.4 2158.8,1106.4 2008.3,1106.4 					"/>
					<rect x="2008" y="951" class="st11" width="46.6" height="22.6"/>
					<rect x="2002.3" y="1126.2" class="st11" width="154" height="12.7"/>
				</g>
				<path class="st13" d="M2183.9,904.5v288.7c0,13.3-9.7,25.5-21.3,25.5h-79V879.6h79C2174.1,879.6,2183.9,890.5,2183.9,904.5z"/>
			</g>
			<g id="laptop">
				<path class="st8" d="M4276.2,1177.5v15.9c0,11-7.9,19.6-17.6,19.6H3176.3c-9.7,0-17.6-8.6-17.6-19.6v-15.9
					c0-11,7.9-19.6,17.6-19.6h1082.3C4268.4,1158.6,4276.2,1167.1,4276.2,1177.5z"/>
				<path class="st8" d="M4163,1159.4h-888.5V609.5c0-22.5,17-40.7,37-40.7h813.2c20.6,0,37,18.2,37,40.7L4163,1159.4z"/>
				<path class="st9" d="M4084.3,1124.7h-730.8c-20,0-35.8-17-35.8-37.7V658c0-21.3,16.4-37.7,35.8-37.7h730.8
					c20,0,35.8,17,35.8,37.7v429C4120.1,1107.7,4103.7,1124.7,4084.3,1124.7z"/>
				<g>
					<path class="st11" d="M3342.3,1016c234.3,0,468,0,701.6,0l-171.2-344.1l-61.3,134.1c-17.6-15.8-35.2-31.6-52.8-47.9
						c-72.8,120.8-72.8,120.8-72.8,120.8l-37.6-24.3l-85.6,88l-132.3,3L3342.3,1016z"/>
					<polyline class="st12" points="3426.1,965.6 3551.7,907.3 3597.8,833.9 3708.3,965.6 3797.5,758 3849.7,805.9 3910.4,671.8 
						4079.8,1016 3385.5,1016 					"/>
					<rect x="3386.9" y="668.4" class="st11" width="219" height="43.8"/>
					<rect x="3368.5" y="1068.2" class="st11" width="724.8" height="22.6"/>
				</g>
				<path class="st13" d="M4276.2,1178.2v15.5c0,10.9-7.9,19.4-17.6,19.4h-517.9V568.8h384.1c20.6,0,36.9,18.2,36.9,40.7l0.6,549.9
					h96.3C4268.4,1159.4,4276.2,1167.8,4276.2,1178.2z"/>
			</g>
		</g>
		<g class="st4">
			<rect x="1697" y="770.6" class="st17" width="121.5" height="21.2"/>
			<rect x="1698.4" y="837" class="st18" width="121.5" height="18.4"/>
			<rect x="1698.4" y="811.5" class="st19" width="121.5" height="18.4"/>
			<rect x="1708.3" y="872.3" class="st18" width="101.7" height="32.5"/>
			<rect x="1697" y="921.7" class="st17" width="121.5" height="29.7"/>
		</g>
	</g>
	<g id="Layer_3" class="st4">
		<text transform="matrix(1 0 0 1 339.0891 197.7266)" class="st20 st21 st22">Web based applications</text>
		<g class="st23">
			<g class="st24">
				<path class="st11" d="M374.3,156h-43l-9.7,26.8h-14.2l39.4-103.1h11.9l39.5,103.1h-14.1L374.3,156z M335.3,144.7h35.2
					l-17.6-48.4L335.3,144.7z"/>
				<path class="st11" d="M440.4,174.1c4.5,0,8.5-1.5,11.9-4.4c3.4-2.9,5.3-6.5,5.6-10.9h12c-0.2,4.5-1.7,8.8-4.4,12.9
					c-2.7,4.1-6.3,7.3-10.8,9.7c-4.5,2.4-9.3,3.6-14.3,3.6c-10.1,0-18.2-3.6-24.2-10.7c-6-7.2-9-16.9-9-29.4v-2.3
					c0-7.7,1.3-14.5,4-20.4s6.5-10.6,11.4-13.9c5-3.3,10.8-4.9,17.6-4.9c8.3,0,15.3,2.6,20.8,7.9s8.5,12.1,8.8,20.6h-12
					c-0.4-5.1-2.2-9.3-5.5-12.5c-3.3-3.3-7.3-4.9-12.1-4.9c-6.5,0-11.5,2.5-15,7.4s-5.3,12-5.3,21.4v2.5c0,9.1,1.8,16.1,5.3,21
					C428.8,171.6,433.8,174.1,440.4,174.1z"/>
				<path class="st11" d="M516.7,174.1c4.5,0,8.5-1.5,11.9-4.4c3.4-2.9,5.3-6.5,5.6-10.9h12c-0.2,4.5-1.7,8.8-4.4,12.9
					c-2.7,4.1-6.3,7.3-10.8,9.7s-9.3,3.6-14.3,3.6c-10.1,0-18.2-3.6-24.2-10.7c-6-7.2-9-16.9-9-29.4v-2.3c0-7.7,1.3-14.5,4-20.4
					c2.7-6,6.5-10.6,11.4-13.9c5-3.3,10.8-4.9,17.6-4.9c8.3,0,15.3,2.6,20.8,7.9s8.5,12.1,8.8,20.6h-12c-0.4-5.1-2.2-9.3-5.5-12.5
					c-3.3-3.3-7.3-4.9-12.1-4.9c-6.5,0-11.5,2.5-15,7.4s-5.3,12-5.3,21.4v2.5c0,9.1,1.8,16.1,5.3,21
					C505.1,171.6,510.1,174.1,516.7,174.1z"/>
				<path class="st11" d="M595,183.6c-10.4,0-18.8-3.4-25.3-10.3c-6.5-6.9-9.8-16-9.8-27.5v-2.4c0-7.6,1.5-14.5,4.4-20.4
					c2.9-6,7-10.7,12.2-14.1c5.2-3.4,10.9-5.1,17-5.1c10,0,17.7,3.3,23.2,9.9c5.5,6.6,8.3,16,8.3,28.3v5.5h-51.9
					c0.2,7.6,2.4,13.7,6.6,18.4c4.2,4.7,9.6,7,16.1,7c4.6,0,8.5-0.9,11.8-2.8s6-4.4,8.4-7.5l8,6.3
					C617.4,178.7,607.8,183.6,595,183.6z M593.6,115.6c-5.3,0-9.8,1.9-13.4,5.8c-3.6,3.9-5.8,9.3-6.7,16.3h38.6v-1
					c-0.4-6.7-2.2-11.9-5.4-15.5C603.5,117.4,599.1,115.6,593.6,115.6z"/>
				<path class="st11" d="M685,162.1c0-3.6-1.4-6.4-4.1-8.4c-2.7-2-7.5-3.7-14.2-5.2c-6.8-1.4-12.1-3.2-16.1-5.2s-6.9-4.4-8.8-7.2
					c-1.9-2.8-2.8-6.1-2.8-10c0-6.4,2.7-11.8,8.1-16.2c5.4-4.4,12.3-6.6,20.7-6.6c8.8,0,16,2.3,21.5,6.9s8.3,10.4,8.3,17.5h-13.4
					c0-3.7-1.6-6.8-4.7-9.4c-3.1-2.6-7-4-11.7-4c-4.9,0-8.7,1.1-11.4,3.2c-2.7,2.1-4.1,4.9-4.1,8.3c0,3.2,1.3,5.6,3.8,7.3
					c2.5,1.6,7.2,3.2,13.8,4.7s12.1,3.3,16.2,5.3c4.1,2.1,7.2,4.6,9.2,7.5c2,2.9,3,6.5,3,10.6c0,7-2.8,12.6-8.4,16.8
					c-5.6,4.2-12.8,6.3-21.7,6.3c-6.3,0-11.8-1.1-16.6-3.3c-4.8-2.2-8.6-5.3-11.3-9.3c-2.7-4-4.1-8.3-4.1-12.9h13.3
					c0.2,4.5,2,8,5.4,10.6c3.3,2.6,7.8,3.9,13.2,3.9c5,0,9.1-1,12.2-3.1C683.5,168.3,685,165.5,685,162.1z"/>
				<path class="st11" d="M760.1,162.1c0-3.6-1.4-6.4-4.1-8.4c-2.7-2-7.5-3.7-14.2-5.2c-6.8-1.4-12.1-3.2-16.1-5.2s-6.9-4.4-8.8-7.2
					c-1.9-2.8-2.8-6.1-2.8-10c0-6.4,2.7-11.8,8.1-16.2s12.3-6.6,20.7-6.6c8.8,0,16,2.3,21.5,6.9c5.5,4.6,8.3,10.4,8.3,17.5h-13.4
					c0-3.7-1.6-6.8-4.7-9.4c-3.1-2.6-7-4-11.7-4c-4.9,0-8.7,1.1-11.4,3.2c-2.7,2.1-4.1,4.9-4.1,8.3c0,3.2,1.3,5.6,3.8,7.3
					c2.5,1.6,7.2,3.2,13.8,4.7s12.1,3.3,16.2,5.3s7.2,4.6,9.2,7.5c2,2.9,3,6.5,3,10.6c0,7-2.8,12.6-8.4,16.8
					c-5.6,4.2-12.8,6.3-21.7,6.3c-6.3,0-11.8-1.1-16.6-3.3c-4.8-2.2-8.6-5.3-11.3-9.3c-2.7-4-4.1-8.3-4.1-12.9h13.3
					c0.2,4.5,2,8,5.4,10.6c3.3,2.6,7.8,3.9,13.2,3.9c5,0,9.1-1,12.2-3.1S760.1,165.5,760.1,162.1z"/>
				<path class="st11" d="M790.3,85.4c0-2.1,0.7-3.9,2-5.4c1.3-1.5,3.2-2.2,5.8-2.2s4.5,0.7,5.8,2.2s2,3.3,2,5.4
					c0,2.1-0.7,3.9-2,5.3s-3.3,2.1-5.8,2.1s-4.5-0.7-5.8-2.1C790.9,89.3,790.3,87.5,790.3,85.4z M804.3,182.8h-12.7v-76.3h12.7
					V182.8z"/>
				<path class="st11" d="M890.4,145.4c0,11.7-2.7,21.1-8.2,28.2c-5.4,7.1-12.7,10.7-21.9,10.7c-9.8,0-17.3-3.4-22.7-10.3l-0.6,8.9
					h-11.6V74h12.7v40.6c5.3-6.6,12.7-9.8,22.1-9.8c9.4,0,16.8,3.5,22.1,10.6c5.4,7,8,16.7,8,28.9V145.4z M877,143.7
					c0-9-1.7-15.9-5.2-20.8s-8.4-7.3-14.9-7.3c-8.7,0-14.9,4-18.7,12.1v33.3c4,8.1,10.3,12.1,18.8,12.1c6.3,0,11.2-2.4,14.7-7.3
					C875.2,160.8,877,153.5,877,143.7z"/>
				<path class="st11" d="M921.5,182.8h-12.7V74h12.7V182.8z"/>
				<path class="st11" d="M975,183.6c-10.4,0-18.8-3.4-25.3-10.3c-6.5-6.9-9.8-16-9.8-27.5v-2.4c0-7.6,1.5-14.5,4.4-20.4
					c2.9-6,7-10.7,12.2-14.1c5.2-3.4,10.9-5.1,17-5.1c10,0,17.7,3.3,23.2,9.9c5.5,6.6,8.3,16,8.3,28.3v5.5H953
					c0.2,7.6,2.4,13.7,6.6,18.4c4.2,4.7,9.6,7,16.1,7c4.6,0,8.5-0.9,11.8-2.8s6-4.4,8.4-7.5l8,6.3
					C997.5,178.7,987.8,183.6,975,183.6z M972.3,115.6c-5.3,0-9.8,1.9-13.4,5.8c-3.6,3.9-5.8,9.3-6.7,16.3h38.6v-1
					c-0.4-6.7-2.2-11.9-5.4-15.5S977.8,115.6,972.3,115.6z"/>
				<path class="st11" d="M1114.9,156h-43l-9.7,26.8h-14.2l39.4-103.1h11.9l39.5,103.1h-14.1L1114.9,156z M1075.8,144.7h35.2
					l-17.6-48.4L1075.8,144.7z"/>
				<path class="st11" d="M1162.9,106.5l0.4,9.6c5.9-7.3,13.6-11,23.1-11c16.3,0,24.6,9.1,24.7,27.3v50.4h-12.7v-50.9
					c0-5.5-1.3-9.6-3.8-12.3s-6.3-4-11.5-4c-4.2,0-7.9,1.1-11.1,3.4c-3.2,2.3-5.7,5.3-7.5,9v54.8h-14.1v-76.3H1162.9z"/>
				<path class="st11" d="M1255.8,162.8l17.9-57.7h14.1l-30.9,88.8c-4.8,12.8-12.4,19.2-22.8,19.2l-2.5-0.2l-4.9-0.9v-10.7l3.6,0.3
					c4.5,0,7.9-0.9,10.4-2.7s4.5-5.1,6.2-9.9l2.9-7.8l-27.5-76.1h14.4L1255.8,162.8z"/>
				<path class="st11" d="M1368.1,164.9l14.7-58.3h13l-22.2,76.3H1363l-18.5-57.8l-18.1,57.8h-10.6l-22.1-76.3h13l15,57.1l17.8-57.1
					h10.5L1368.1,164.9z"/>
				<path class="st11" d="M1477.6,164.9l14.7-58.3h13l-22.2,76.3h-10.6L1454,125l-18.1,57.8h-10.6l-22.1-76.3h13l15,57.1l17.8-57.1
					h10.5L1477.6,164.9z"/>
				<path class="st11" d="M1531.9,115.5c5.9-7.1,13.6-10.7,23.1-10.7c16.5,0,24.8,9.1,25,27.4v50.6h-14.1v-50.9
					c0-5.5-1.3-9.6-3.8-12.3s-6.3-4-11.5-4c-4.2,0-7.9,1.1-11.1,3.4c-3.2,2.3-5.7,5.3-7.5,9v54.8h-12.7V74h12.7V115.5z"/>
				<path class="st11" d="M1632,183.6c-10.4,0-18.8-3.4-25.3-10.3c-6.5-6.9-9.8-16-9.8-27.5v-2.4c0-7.6,1.5-14.5,4.4-20.4
					s7-10.7,12.2-14.1c5.2-3.4,10.9-5.1,17-5.1c10,0,17.7,3.3,23.2,9.9c5.5,6.6,8.3,16,8.3,28.3v5.5h-51.9
					c0.2,7.6,2.4,13.7,6.6,18.4c4.2,4.7,9.6,7,16.1,7c4.6,0,8.5-0.9,11.8-2.8s6-4.4,8.4-7.5l8,6.3
					C1654.4,178.7,1644.8,183.6,1632,183.6z M1629.2,115.6c-5.3,0-9.8,1.9-13.4,5.8c-3.6,3.9-5.8,9.3-6.7,16.3h38.6v-1
					c-0.4-6.7-2.2-11.9-5.4-15.5S1634.7,115.6,1629.2,115.6z"/>
				<path class="st11" d="M1714.1,118.3c-2-0.3-4.1-0.5-6.5-0.5c-8.6,0-14.5,3.7-17.6,11v54h-12.7v-76.3h12.4l0.2,8.9
					c4.3-6.9,10.4-10.3,18.3-10.3c2.6,0,4.5,0.3,5.8,1V118.3z"/>
				<path class="st11" d="M1756.3,183.6c-10.4,0-18.8-3.4-25.3-10.3c-6.5-6.9-9.8-16-9.8-27.5v-2.4c0-7.6,1.5-14.5,4.4-20.4
					c2.9-6,7-10.7,12.2-14.1c5.2-3.4,10.9-5.1,17-5.1c10,0,17.7,3.3,23.2,9.9c5.5,6.6,8.3,16,8.3,28.3v5.5h-51.9
					c0.2,7.6,2.4,13.7,6.6,18.4c4.2,4.7,9.6,7,16.1,7c4.6,0,8.5-0.9,11.8-2.8s6-4.4,8.4-7.5l8,6.3
					C1778.7,178.7,1769.1,183.6,1756.3,183.6z M1755,115.6c-5.3,0-9.8,1.9-13.4,5.8c-3.6,3.9-5.8,9.3-6.7,16.3h38.6v-1
					c-0.4-6.7-2.2-11.9-5.4-15.5S1760.5,115.6,1755,115.6z"/>
			</g>
		</g>
		<g class="st23">
			<g class="st24">
				<path class="st11" d="M374.3,353.8h-43l-9.7,26.8h-14.2l39.4-103.1h11.9l39.5,103.1h-14.1L374.3,353.8z M335.3,342.5h35.2
					L352.8,294L335.3,342.5z"/>
				<path class="st11" d="M427,286v18.4h14.1v9.9H427V362c0,3.1,0.7,5.4,2,6.9c1.4,1.5,3.7,2.3,6.9,2.3c1.6,0,3.8-0.3,6.6-0.9V381
					c-3.5,0.9-6.9,1.4-10.2,1.4c-6,0-10.5-1.8-13.5-5.4c-3-3.6-4.5-8.7-4.5-15.4v-47.4h-14.1v-9.9h14.1V286H427z"/>
				<path class="st11" d="M551.8,353.8h-43l-9.7,26.8H485l39.4-103.1h11.9l39.5,103.1h-14.1L551.8,353.8z M512.7,342.5h35.2
					L530.3,294L512.7,342.5z"/>
				<path class="st11" d="M600.6,304.3l0.4,9.6c5.9-7.3,13.6-11,23.1-11c16.3,0,24.6,9.1,24.7,27.3v50.4h-14.1v-50.9
					c0-5.5-1.3-9.6-3.8-12.3s-6.3-4-11.5-4c-4.2,0-7.9,1.1-11.1,3.4c-3.2,2.3-5.7,5.3-7.5,9v54.8h-12.7v-76.3H600.6z"/>
				<path class="st11" d="M693.5,362l17.9-57.7h14.1l-30.9,88.8c-4.8,12.8-12.4,19.2-22.8,19.2l-2.5-0.2l-4.9-0.9v-10.7l3.6,0.3
					c4.5,0,7.9-0.9,10.4-2.7c2.5-1.8,4.5-5.1,6.2-9.9l2.9-7.8L660,304.3h14.4L693.5,362z"/>
				<path class="st11" d="M754.8,286v18.4h14.1v9.9h-14.1V362c0,3.1,0.6,5.4,1.8,6.9c1.2,1.5,3.3,2.3,6.3,2.3c1.5,0,3.5-0.3,6-0.9
					v10.1c-3.3,0.9-6.6,1.4-9.7,1.4c-5.7,0-9.9-1.7-12.8-5.1c-2.9-3.4-4.3-8.3-4.3-14.6v-48H728v-9.9h14.1V286H754.8z"/>
				<path class="st11" d="M784.7,283.5c0-2.1,0.7-3.9,2-5.4c1.3-1.5,3.2-2.2,5.8-2.2s4.5,0.7,5.8,2.2s2,3.3,2,5.4
					c0,2.1-0.7,3.9-2,5.3s-3.3,2.1-5.8,2.1s-4.5-0.7-5.8-2.1C785.4,287.4,784.7,285.6,784.7,283.5z M798.6,380.6h-12.7v-76.3h12.7
					V380.6z"/>
				<path class="st11" d="M832.2,304.3l0.4,8.5c5.6-6.6,13.2-9.9,22.7-9.9c10.7,0,18,4.1,21.9,12.3c2.5-3.7,5.9-6.6,9.9-8.9
					s8.9-3.4,14.5-3.4c16.8,0,25.3,8.9,25.6,26.6v51.1h-12.7v-50.8c0-5.5-1.2-9.6-3.7-12.3s-6.7-4.1-12.5-4.1
					c-4.8,0-8.9,1.5-12.1,4.4c-3.2,2.9-5.1,6.8-5.6,11.8v51.1h-14.1v-50.4c0-11.2-5.4-16.8-16.3-16.8c-8.6,0-14.4,3.7-17.6,11v56.2
					h-12.7v-76.3H832.2z"/>
				<path class="st11" d="M979.2,382.8c-10.4,0-18.8-3.4-25.3-10.3c-6.5-6.9-9.8-16-9.8-27.5v-2.4c0-7.6,1.5-14.5,4.4-20.4
					c2.9-6,7-10.7,12.2-14.1s10.9-5.1,17-5.1c10,0,17.7,3.3,23.2,9.9c5.5,6.6,8.3,16,8.3,28.3v5.5h-51.9c0.2,7.6,2.4,13.7,6.6,18.4
					c4.2,4.7,9.6,7,16.1,7c4.6,0,8.5-0.9,11.8-2.8s6-4.4,8.4-7.5l8,6.3C1001.7,377.9,992.1,382.8,979.2,382.8z M977.9,313.4
					c-5.3,0-9.8,1.9-13.4,5.8c-3.6,3.9-5.8,9.3-6.7,16.3h38.6v-1c-0.4-6.7-2.2-11.9-5.4-15.5C987.8,315.2,983.4,313.4,977.9,313.4z"
					/>
			</g>
		</g>
	</g>
	<g id="Layer_2_1_" class="st4">
		<g class="st23">
			<path class="st25" d="M3910.9,565.7h-260.1c-86.9,0-156.8-70.5-156.8-156.8V148.9c0-86.9,70.5-156.8,156.8-156.8h260.1
				c86.9,0,156.8,70.5,156.8,156.8v260.1C4068.3,495.2,3997.8,565.7,3910.9,565.7z"/>
			<g>
				<rect x="3553.4" y="129.1" class="st26" width="120.1" height="299.5"/>
				<rect x="3888.2" y="308.6" class="st27" width="120.1" height="120.1"/>
				<rect x="3720.1" y="226.6" class="st28" width="120.1" height="202"/>
			</g>
		</g>
		<g class="st23">
			<path class="st29" d="M3990.4,894.9h-186c-63.7,0-115.3-51.6-115.3-115.3V593.4c0-63.7,51.6-115.3,115.3-115.3h186.1
				c63.7,0,115.3,51.6,115.3,115.3v186C4106.4,843.2,4054.2,894.9,3990.4,894.9z"/>
			<g class="st30">
				<g>
					<g>
						<path class="st31" d="M3872.1,685.8l66.8,136.6c-75.3,37-166.3,5.5-202.7-69.8c-37-75.3-5.5-166.3,69.8-202.7
							c21.2-10.3,42.5-15.2,66.8-15.2v151.1H3872.1z"/>
					</g>
				</g>
				<g>
					<g>
						<path class="st32" d="M3906.2,686.2l117.7-95.3c52.8,64.9,42.5,160.8-22.5,213c-9.1,7.3-18.2,13.4-29.1,18.2L3906.2,686.2z"/>
					</g>
				</g>
				<g>
					<g>
						<path class="st33" d="M3889.7,676.5V524.8c47.9,0,88,18.8,117.7,56.4L3889.7,676.5z"/>
					</g>
				</g>
			</g>
		</g>
		<g class="st23">
			<path class="st25" d="M895.2,428.7H683.2c-45.6,0-82.5-37-82.5-82.5V134c0-45.6,37-82.5,82.5-82.5h212.1
				c45.6,0,82.5,37,82.5,82.5V346C977.9,392.2,940.8,428.7,895.2,428.7z"/>
			<text transform="matrix(1 0 0 1 713.3452 336.6895)" class="st28 st21 st34">€</text>
		</g>
		<g class="st23">
			<path class="st35" d="M558.1,442.8H374.8c-39.9,0-72.2-32.3-72.2-72.2V187.2c0-39.9,32.3-72.2,72.2-72.2h183.3
				c39.9,0,72.2,32.3,72.2,72.2v183.3C630.3,410.5,598,442.8,558.1,442.8z"/>
			<text transform="matrix(1 0 0 1 408.6509 364.3526)" class="st31 st21 st36">$</text>
		</g>
		<path class="st37" d="M5245.7-339.5"/>
		<g class="st23">
			<path class="st38" d="M524,942.9H261.4c-45.9,0-83.2-37.2-83.2-83.2V619.2c0-45.9,37.2-83.2,83.2-83.2h263.2
				c45.9,0,83.2,37.2,83.2,83.2v240.5C607.1,905.9,570.1,942.9,524,942.9z"/>
			<g>
				<path class="st33" d="M558.9,866.6h-72.9c0,0,0.6-24.9-3.6-45.6c-1.8-9.1-3.6-19.4-14-40.1c-18.2-37.1-34-43.7-39.5-45.6
					c-0.6,0-1.8-0.6-2.4-0.6c-4.3-1.2-7.9-1.2-7.9-3.6c0-1.2,1.8-1.8,1.8-1.8c0.6-0.6,1.2-0.6,2.4-1.8c7.3-6.1,16.4-23.7,18.2-41.9
					c1.8-17-3-29.2-4.3-32.2c-0.6-1.2-7.9-18.8-24.9-31c5.5-4.3,12.1-7.3,20-9.7c4.3-1.2,8.5-1.8,11.5-1.8c1.8,0,3,0,4.9,0
					c1.2,0,3,0,4.9,0c3.6,0,7.3,0.6,11.5,1.8c31.6,8.5,44.3,38.9,44.9,40.7c1.2,2.4,5.5,15.2,4.3,32.2
					c-1.8,18.2-10.9,35.8-18.2,41.9c-0.6,0.6-1.8,1.2-2.4,1.8c-0.6,0-1.8,1.2-1.8,1.8c0,2.4,3.6,2.4,7.9,3.6c0.6,0,1.2,0.6,2.4,0.6
					c5.5,1.8,21.3,8.5,39.5,45.6c10.3,21.3,12.1,31,14,40.1C559.6,841.7,558.9,866.6,558.9,866.6z"/>
				<path class="st33" d="M429,610.9L429,610.9c-1.8,0-3,0-4.9,0C426,610.9,427.8,610.9,429,610.9z"/>
				<path class="st33" d="M424.1,610.9c-1.2,0-3,0-4.9,0l0,0C421.1,610.9,422.3,610.9,424.1,610.9z"/>
			</g>
			<g>
				<path class="st31" d="M372,615.2c0.6,0,0.6,0,1.2,0.6l0,0l-17-4.2c3,0.6,6.1,0.6,9.7,1.8C367.7,614,370.1,614.6,372,615.2z"/>
				<path class="st31" d="M393.2,731.1c0,0.6,0,0.6-0.6,1.2c-0.6-0.6-0.6-0.6-0.6-1.2c0-0.6,0-0.6,0.6-0.6L393.2,731.1z"/>
				<path class="st31" d="M459.4,866.6H238.9c0,0-0.6-24.9,3.6-45.6c1.8-9.1,3.6-19.4,14-40.1c18.2-37.1,34-43.7,39.5-45.6
					c0.6,0,1.8-0.6,2.4-0.6c4.3-1.2,7.9-1.2,7.9-3.6c0-1.2-1.8-1.8-1.8-1.8c-0.6-0.6-1.2-0.6-2.4-1.8c-7.3-6.1-16.4-23.7-18.2-41.9
					c-1.2-17,3-29.2,4.3-32.2c0.6-1.8,13.4-31.6,44.9-40.7c4.3-1.2,8.5-1.8,11.5-1.8c1.8,0,3,0,4.9,0c1.2,0,3,0,4.9,0
					c0.6,0,1.8,0,2.4,0c3,0.6,6.1,0.6,9.7,1.8c2.4,0.6,4.3,1.2,6.7,2.4c0.6,0,0.6,0,1.2,0.6l0,0l0,0c1.2,0.6,1.8,1.2,3,1.2
					c0.6,0,1.2,0.6,1.8,1.2c1.8,0.6,3,1.8,4.3,2.4c1.2,0.6,2.4,1.8,3.6,2.4c0.6,0.6,1.8,1.2,2.4,1.8c0.6,0.6,1.2,1.2,1.8,1.8
					s1.2,1.2,1.8,1.8c12.1,11.5,17,24.3,17.6,24.9c1.2,2.4,5.5,15.2,4.3,32.2c-1.8,18.2-10.9,35.8-18.2,41.9
					c-0.6,0.6-1.8,1.2-2.4,1.8c-0.6,0-1.2,0.6-1.8,1.2l-0.6,0.6c0,0.6,0,0.6,0.6,1.2c1.2,1.2,3.6,1.8,7.3,2.4c0.6,0,1.8,0.6,2.4,0.6
					c5.5,1.8,21.3,8.5,39.5,45.6c10.3,21.3,12.1,31,14,40.1C460,841.7,459.4,866.6,459.4,866.6z"/>
			</g>
		</g>
		<g class="st23">
			<path class="st35" d="M838.5,1088.4H618.5c-38.3,0-68.7-30.9-68.7-68.5V841.9c0-38.2,31-68.5,68.7-68.5h220.1
				c38.3,0,68.7,30.9,68.7,68.5V1020C907.8,1058.1,876.8,1088.4,838.5,1088.4z"/>
			<g>
				<path class="st32" d="M764.5,893.5v56.4c0,6.1-1.2,12.1-3.6,17.6c-1.8,4.2-4.9,8.5-8.5,12.1c-7.9,7.9-18.8,12.7-30.3,12.7h-54
					l-49.8,41.8l-9.7,7.9l4.9-49.7c-23.7,0-42.5-18.8-42.5-42.4v-56.4c0-15.8,8.5-29.7,21.8-37c6.1-3.6,13.3-5.5,21.2-5.5h108
					C745.7,850.5,764.5,869.9,764.5,893.5z"/>
			</g>
			<g>
				<path class="st33" d="M883.2,861.1v56.3c0,23.5-19,42.5-42.5,42.5h-53c4.9-6.7,7.9-15.8,7.9-24.9v-57c0-23.5-19-42.5-42.5-42.5
					h-55.4c7.9-10.5,20.1-17,34.7-17h108.4C864.2,818.6,883.2,837.6,883.2,861.1z"/>
				<polygon class="st33" points="844.8,1010.3 786.5,961.1 785.9,959.9 839.9,959.9 				"/>
			</g>
		</g>
	</g>
	<g>
		<path class="st11" d="M411.8,329.3h-47.7L353.5,359H338l43.4-113.8h13.1L438.1,359h-15.4L411.8,329.3z M368.7,317h38.7L388,263.8
			L368.7,317z"/>
		<path class="st11" d="M485,348.8c5.2,0,9.7-1.6,13.5-4.7c3.9-3.1,6-7,6.4-11.7h13.7c-0.3,4.8-1.9,9.5-5,13.8
			c-3.1,4.4-7.2,7.9-12.3,10.5c-5.1,2.6-10.6,3.9-16.3,3.9c-11.5,0-20.7-3.8-27.5-11.5c-6.8-7.7-10.2-18.2-10.2-31.5v-2.4
			c0-8.2,1.5-15.5,4.5-22c3-6.4,7.4-11.4,13-14.9c5.7-3.5,12.3-5.3,20-5.3c9.5,0,17.4,2.8,23.6,8.5c6.3,5.7,9.6,13,10,22.1H505
			c-0.4-5.5-2.5-10-6.2-13.5c-3.7-3.5-8.3-5.3-13.8-5.3c-7.3,0-13,2.6-17.1,7.9c-4,5.3-6.1,12.9-6.1,22.9v2.7c0,9.7,2,17.2,6,22.5
			C471.9,346.2,477.6,348.8,485,348.8z"/>
		<path class="st11" d="M568.8,348.8c5.2,0,9.7-1.6,13.5-4.7c3.9-3.1,6-7,6.4-11.7h13.7c-0.3,4.8-1.9,9.5-5,13.8
			c-3.1,4.4-7.2,7.9-12.3,10.5c-5.1,2.6-10.6,3.9-16.3,3.9c-11.5,0-20.7-3.8-27.5-11.5c-6.8-7.7-10.2-18.2-10.2-31.5v-2.4
			c0-8.2,1.5-15.5,4.5-22c3-6.4,7.4-11.4,13-14.9c5.7-3.5,12.3-5.3,20-5.3c9.5,0,17.4,2.8,23.6,8.5c6.3,5.7,9.6,13,10,22.1h-13.7
			c-0.4-5.5-2.5-10-6.2-13.5c-3.7-3.5-8.3-5.3-13.8-5.3c-7.3,0-13,2.6-17.1,7.9c-4,5.3-6.1,12.9-6.1,22.9v2.7c0,9.7,2,17.2,6,22.5
			C555.6,346.2,561.3,348.8,568.8,348.8z"/>
		<path class="st11" d="M653.7,360.6c-11.5,0-20.8-3.8-28-11.3c-7.2-7.5-10.8-17.6-10.8-30.2v-2.7c0-8.4,1.6-15.9,4.8-22.5
			c3.2-6.6,7.7-11.7,13.4-15.5c5.8-3.7,12-5.6,18.7-5.6c11,0,19.5,3.6,25.6,10.9c6.1,7.2,9.1,17.6,9.1,31.1v6h-57.3
			c0.2,8.3,2.6,15.1,7.3,20.2c4.7,5.1,10.6,7.7,17.8,7.7c5.1,0,9.4-1,13-3.1c3.5-2.1,6.6-4.8,9.3-8.3l8.8,6.9
			C678.5,355.1,667.9,360.6,653.7,360.6z M651.9,284.8c-5.8,0-10.7,2.1-14.7,6.4c-4,4.2-6.4,10.2-7.3,17.9h42.3v-1.1
			c-0.4-7.3-2.4-13-5.9-17.1C662.7,286.8,658,284.8,651.9,284.8z"/>
		<path class="st11" d="M752.6,336.6c0-3.9-1.5-6.9-4.4-9.1c-2.9-2.2-8.1-4-15.4-5.6c-7.3-1.6-13.1-3.4-17.4-5.6s-7.5-4.8-9.5-7.8
			c-2.1-3-3.1-6.6-3.1-10.8c0-6.9,2.9-12.8,8.8-17.6c5.9-4.8,13.3-7.2,22.5-7.2c9.6,0,17.4,2.5,23.3,7.4c6,4.9,8.9,11.3,8.9,19
			h-14.5c0-4-1.7-7.4-5-10.2c-3.4-2.9-7.6-4.3-12.7-4.3c-5.3,0-9.4,1.1-12.3,3.4c-3,2.3-4.5,5.3-4.5,9c0,3.5,1.4,6.1,4.1,7.9
			c2.8,1.8,7.7,3.5,15,5.1c7.2,1.6,13.1,3.5,17.5,5.8c4.5,2.2,7.8,4.9,10,8.1c2.2,3.2,3.2,7,3.2,11.5c0,7.6-3,13.6-9.1,18.2
			c-6,4.6-13.9,6.8-23.5,6.8c-6.8,0-12.8-1.2-18-3.6c-5.2-2.4-9.3-5.7-12.2-10c-2.9-4.3-4.4-8.9-4.4-13.9h14.5
			c0.3,4.8,2.2,8.7,5.8,11.5c3.6,2.8,8.4,4.3,14.3,4.3c5.5,0,9.9-1.1,13.2-3.3C751,343.3,752.6,340.3,752.6,336.6z"/>
		<path class="st11" d="M835.1,336.6c0-3.9-1.5-6.9-4.4-9.1c-2.9-2.2-8.1-4-15.4-5.6c-7.3-1.6-13.1-3.4-17.4-5.6s-7.5-4.8-9.5-7.8
			c-2.1-3-3.1-6.6-3.1-10.8c0-6.9,2.9-12.8,8.8-17.6c5.9-4.8,13.3-7.2,22.5-7.2c9.6,0,17.4,2.5,23.3,7.4c6,4.9,8.9,11.3,8.9,19
			h-14.5c0-4-1.7-7.4-5-10.2c-3.4-2.9-7.6-4.3-12.7-4.3c-5.3,0-9.4,1.1-12.3,3.4c-3,2.3-4.5,5.3-4.5,9c0,3.5,1.4,6.1,4.1,7.9
			c2.8,1.8,7.7,3.5,15,5.1c7.2,1.6,13.1,3.5,17.5,5.8c4.5,2.2,7.8,4.9,10,8.1c2.2,3.2,3.2,7,3.2,11.5c0,7.6-3,13.6-9.1,18.2
			c-6,4.6-13.9,6.8-23.5,6.8c-6.8,0-12.8-1.2-18-3.6c-5.2-2.4-9.3-5.7-12.2-10c-2.9-4.3-4.4-8.9-4.4-13.9h14.5
			c0.3,4.8,2.2,8.7,5.8,11.5c3.6,2.8,8.4,4.3,14.3,4.3c5.5,0,9.9-1.1,13.2-3.3C833.5,343.3,835.1,340.3,835.1,336.6z"/>
		<path class="st11" d="M868.5,252.1c0-2.3,0.7-4.3,2.1-5.9c1.4-1.6,3.6-2.4,6.4-2.4s4.9,0.8,6.4,2.4c1.5,1.6,2.2,3.6,2.2,5.9
			s-0.7,4.3-2.2,5.9c-1.5,1.6-3.6,2.3-6.4,2.3s-4.9-0.8-6.4-2.3C869.2,256.4,868.5,254.4,868.5,252.1z M884.1,359h-14.5v-84.5h14.5
			V359z"/>
		<path class="st11" d="M978.8,317.7c0,12.9-3,23.3-8.9,31.1c-5.9,7.8-13.9,11.8-23.9,11.8c-10.7,0-18.9-3.8-24.8-11.3l-0.7,9.8
			h-13.3V239h14.5v44.8c5.8-7.2,13.9-10.9,24.1-10.9c10.3,0,18.3,3.9,24.2,11.6c5.9,7.8,8.8,18.4,8.8,31.9V317.7z M964.3,316.1
			c0-9.8-1.9-17.4-5.7-22.8c-3.8-5.4-9.3-8-16.4-8c-9.5,0-16.4,4.4-20.5,13.3V335c4.4,8.9,11.3,13.3,20.7,13.3
			c6.9,0,12.3-2.7,16.2-8C962.4,334.9,964.3,326.8,964.3,316.1z"/>
		<path class="st11" d="M1012.7,359h-14.5V239h14.5V359z"/>
		<path class="st11" d="M1070.9,360.6c-11.5,0-20.8-3.8-28-11.3c-7.2-7.5-10.8-17.6-10.8-30.2v-2.7c0-8.4,1.6-15.9,4.8-22.5
			c3.2-6.6,7.7-11.7,13.4-15.5c5.8-3.7,12-5.6,18.7-5.6c11,0,19.5,3.6,25.6,10.9c6.1,7.2,9.1,17.6,9.1,31.1v6h-57.3
			c0.2,8.3,2.6,15.1,7.3,20.2c4.7,5.1,10.6,7.7,17.8,7.7c5.1,0,9.4-1,13-3.1c3.5-2.1,6.6-4.8,9.3-8.3l8.8,6.9
			C1095.7,355.1,1085.1,360.6,1070.9,360.6z M1069.1,284.8c-5.8,0-10.7,2.1-14.7,6.4c-4,4.2-6.4,10.2-7.3,17.9h42.3v-1.1
			c-0.4-7.3-2.4-13-5.9-17.1C1079.9,286.8,1075.1,284.8,1069.1,284.8z"/>
		<path class="st11" d="M1225.3,329.3h-47.7l-10.7,29.8h-15.5l43.4-113.8h13.1l43.5,113.8h-15.4L1225.3,329.3z M1182.1,317h38.7
			l-19.4-53.2L1182.1,317z"/>
		<path class="st11" d="M1278.2,274.5l0.5,10.6c6.5-8.1,14.9-12.2,25.3-12.2c17.9,0,26.9,10.1,27,30.2V359h-14.5v-55.9
			c-0.1-6.1-1.4-10.6-4.2-13.5c-2.7-2.9-7-4.4-12.8-4.4c-4.7,0-8.8,1.2-12.3,3.8c-3.5,2.5-6.3,5.8-8.3,9.8V359h-14.5v-84.5H1278.2z"
			/>
		<path class="st11" d="M1380.5,337.9l19.7-63.4h15.5l-34,97.6c-5.3,14.1-13.6,21.1-25.1,21.1l-2.7-0.2l-5.4-1v-11.7l3.9,0.3
			c4.9,0,8.7-1,11.4-3c2.7-2,5-5.6,6.8-10.9l3.2-8.6l-30.2-83.6h15.8L1380.5,337.9z"/>
		<path class="st11" d="M1503.4,339.1l16.2-64.6h14.5l-24.6,84.5h-11.7l-20.5-64.1l-20,64.1h-11.7l-24.5-84.5h14.4l16.6,63.3
			l19.7-63.3h11.6L1503.4,339.1z"/>
		<path class="st11" d="M1563.2,284.7c6.4-7.9,14.7-11.8,25-11.8c17.9,0,26.9,10.1,27,30.2V359h-14.5v-55.9
			c-0.1-6.1-1.4-10.6-4.2-13.5c-2.7-2.9-7-4.4-12.8-4.4c-4.7,0-8.8,1.2-12.3,3.8c-3.5,2.5-6.3,5.8-8.3,9.8V359h-14.5V239h14.5V284.7
			z"/>
		<path class="st11" d="M1672,360.6c-11.5,0-20.8-3.8-28-11.3c-7.2-7.5-10.8-17.6-10.8-30.2v-2.7c0-8.4,1.6-15.9,4.8-22.5
			c3.2-6.6,7.7-11.7,13.4-15.5c5.8-3.7,12-5.6,18.7-5.6c11,0,19.5,3.6,25.6,10.9c6.1,7.2,9.1,17.6,9.1,31.1v6h-57.3
			c0.2,8.3,2.6,15.1,7.3,20.2c4.7,5.1,10.6,7.7,17.8,7.7c5.1,0,9.4-1,13-3.1c3.5-2.1,6.6-4.8,9.3-8.3l8.8,6.9
			C1696.8,355.1,1686.2,360.6,1672,360.6z M1670.2,284.8c-5.8,0-10.7,2.1-14.7,6.4c-4,4.2-6.4,10.2-7.3,17.9h42.3v-1.1
			c-0.4-7.3-2.4-13-5.9-17.1C1681,286.8,1676.2,284.8,1670.2,284.8z"/>
		<path class="st11" d="M1762.5,287.5c-2.2-0.4-4.6-0.5-7.1-0.5c-9.5,0-15.9,4-19.3,12.1v60h-14.5v-84.5h14.1l0.2,9.8
			c4.7-7.6,11.5-11.3,20.2-11.3c2.8,0,4.9,0.4,6.4,1.1V287.5z"/>
		<path class="st11" d="M1809.4,360.6c-11.5,0-20.8-3.8-28-11.3c-7.2-7.5-10.8-17.6-10.8-30.2v-2.7c0-8.4,1.6-15.9,4.8-22.5
			c3.2-6.6,7.7-11.7,13.4-15.5c5.8-3.7,12-5.6,18.7-5.6c11,0,19.5,3.6,25.6,10.9c6.1,7.2,9.1,17.6,9.1,31.1v6h-57.3
			c0.2,8.3,2.6,15.1,7.3,20.2c4.7,5.1,10.6,7.7,17.8,7.7c5.1,0,9.4-1,13-3.1c3.5-2.1,6.6-4.8,9.3-8.3l8.8,6.9
			C1834.2,355.1,1823.6,360.6,1809.4,360.6z M1807.6,284.8c-5.8,0-10.7,2.1-14.7,6.4c-4,4.2-6.4,10.2-7.3,17.9h42.3v-1.1
			c-0.4-7.3-2.4-13-5.9-17.1C1818.4,286.8,1813.7,284.8,1807.6,284.8z"/>
		<path class="st11" d="M411.8,522.3h-47.7L353.5,552H338l43.4-113.8h13.1L438.1,552h-15.4L411.8,522.3z M368.7,510h38.7L388,456.8
			L368.7,510z"/>
		<path class="st11" d="M469.4,447v20.5h15.8v11.2h-15.8v52.5c0,3.4,0.7,5.9,2.1,7.6c1.4,1.7,3.8,2.5,7.2,2.5c1.7,0,4-0.3,6.9-0.9
			V552c-3.8,1-7.5,1.6-11.1,1.6c-6.5,0-11.3-2-14.6-5.9s-4.9-9.5-4.9-16.6v-52.4h-15.4v-11.2H455V447H469.4z"/>
		<path class="st11" d="M606.8,522.3h-47.7L548.4,552h-15.5l43.4-113.8h13.1L633,552h-15.4L606.8,522.3z M563.6,510h38.7l-19.4-53.2
			L563.6,510z"/>
		<path class="st11" d="M659.7,467.5l0.5,10.6c6.5-8.1,14.9-12.2,25.3-12.2c17.9,0,26.9,10.1,27,30.2V552h-14.5v-55.9
			c-0.1-6.1-1.4-10.6-4.2-13.5c-2.7-2.9-7-4.4-12.8-4.4c-4.7,0-8.8,1.2-12.3,3.8c-3.5,2.5-6.3,5.8-8.3,9.8V552h-14.5v-84.5H659.7z"
			/>
		<path class="st11" d="M762,530.9l19.7-63.4h15.5l-34,97.6c-5.3,14.1-13.6,21.1-25.1,21.1l-2.7-0.2l-5.4-1v-11.7l3.9,0.3
			c4.9,0,8.7-1,11.4-3c2.7-2,5-5.6,6.8-10.9l3.2-8.6l-30.2-83.6h15.8L762,530.9z"/>
		<path class="st11" d="M829.6,447v20.5h15.8v11.2h-15.8v52.5c0,3.4,0.7,5.9,2.1,7.6c1.4,1.7,3.8,2.5,7.2,2.5c1.7,0,4-0.3,6.9-0.9
			V552c-3.8,1-7.5,1.6-11.1,1.6c-6.5,0-11.3-2-14.6-5.9s-4.9-9.5-4.9-16.6v-52.4h-15.4v-11.2h15.4V447H829.6z"/>
		<path class="st11" d="M862.4,445.1c0-2.3,0.7-4.3,2.1-5.9c1.4-1.6,3.6-2.4,6.4-2.4s4.9,0.8,6.4,2.4c1.5,1.6,2.2,3.6,2.2,5.9
			s-0.7,4.3-2.2,5.9c-1.5,1.6-3.6,2.3-6.4,2.3s-4.9-0.8-6.4-2.3C863.1,449.4,862.4,447.4,862.4,445.1z M878,552h-14.5v-84.5H878V552
			z"/>
		<path class="st11" d="M914.7,467.5l0.4,9.4c6.2-7.3,14.6-10.9,25.1-10.9c11.8,0,19.9,4.5,24.1,13.6c2.8-4.1,6.5-7.3,11-9.8
			c4.5-2.5,9.8-3.8,16-3.8c18.5,0,28,9.8,28.3,29.5V552h-14.5v-55.8c0-6-1.4-10.6-4.1-13.6c-2.8-3-7.4-4.5-13.9-4.5
			c-5.4,0-9.8,1.6-13.4,4.8c-3.5,3.2-5.6,7.5-6.2,12.9V552H953v-55.4c0-12.3-6-18.4-18-18.4c-9.5,0-16,4-19.5,12.1V552h-14.5v-84.5
			H914.7z"/>
		<path class="st11" d="M1076.4,553.6c-11.5,0-20.8-3.8-28-11.3c-7.2-7.5-10.8-17.6-10.8-30.2v-2.7c0-8.4,1.6-15.9,4.8-22.5
			c3.2-6.6,7.7-11.7,13.4-15.5c5.8-3.7,12-5.6,18.7-5.6c11,0,19.5,3.6,25.6,10.9c6.1,7.2,9.1,17.6,9.1,31.1v6h-57.3
			c0.2,8.3,2.6,15.1,7.3,20.2c4.7,5.1,10.6,7.7,17.8,7.7c5.1,0,9.4-1,13-3.1c3.5-2.1,6.6-4.8,9.3-8.3l8.8,6.9
			C1101.2,548.1,1090.6,553.6,1076.4,553.6z M1074.6,477.8c-5.8,0-10.7,2.1-14.7,6.4c-4,4.2-6.4,10.2-7.3,17.9h42.3v-1.1
			c-0.4-7.3-2.4-13-5.9-17.1C1085.5,479.8,1080.7,477.8,1074.6,477.8z"/>
	</g>
</g>
</svg>
