<?xml version="1.0" encoding="utf-8"?>
<!-- Generator: Adobe Illustrator 21.0.2, SVG Export Plug-In . SVG Version: 6.00 Build 0)  -->
<svg version="1.1" id="Layer_1" xmlns="http://www.w3.org/2000/svg" xmlns:xlink="http://www.w3.org/1999/xlink" x="0px" y="0px"
	 viewBox="0 0 4451.3 1748.5" style="enable-background:new 0 0 4451.3 1748.5;" xml:space="preserve">
<style type="text/css">
	.st0{fill:none;}
	.st1{fill:#F9C091;}
	.st2{display:none;fill:#861600;}
	.st3{display:none;opacity:0.97;fill:#F76126;enable-background:new    ;}
	.st4{display:none;}
	.st5{fill:#283344;stroke:#000000;stroke-miterlimit:10;}
	.st6{fill:none;stroke:#000000;stroke-miterlimit:10;}
	.st7{fill:#273344;stroke:#000000;stroke-miterlimit:10;}
	.st8{fill:#354359;stroke:#000000;stroke-miterlimit:10;}
	.st9{fill:#FFFFFF;}
	.st10{display:none;fill:none;stroke:#000000;stroke-miterlimit:10;}
	.st11{fill:#0C3D37;}
	.st12{fill:#4DA49B;}
	.st13{opacity:0.22;fill:#E5E3E3;stroke:#E5E3E3;stroke-miterlimit:10;enable-background:new    ;}
	.st14{display:none;fill:#F4D178;stroke:#F4D178;stroke-miterlimit:10;}
	.st15{opacity:0.3;fill:#B6DDF2;stroke:#B6DDF2;stroke-miterlimit:10;enable-background:new    ;}
	.st16{fill:#FDFEFE;}
	.st17{display:inline;fill:#4DA49B;}
	.st18{display:inline;fill:#397C75;}
	.st19{display:inline;fill:#65A39E;}
	.st20{display:inline;fill:#0C3D37;}
	.st21{font-family:'MyriadPro-Regular';}
	.st22{font-size:182.0829px;}
	.st23{display:inline;}
	.st24{enable-background:new    ;}
	.st25{opacity:0.62;fill:#FFFFFF;enable-background:new    ;}
	.st26{opacity:0.63;fill:#23FAE0;enable-background:new    ;}
	.st27{opacity:0.63;fill:#5DA399;enable-background:new    ;}
	.st28{opacity:0.63;fill:#288474;enable-background:new    ;}
	.st29{opacity:0.62;fill:#D3DDDA;enable-background:new    ;}
	.st30{opacity:0.68;}
	.st31{fill:#5DA399;}
	.st32{fill:#288474;}
	.st33{fill:#23FAE0;}
	.st34{font-size:279.1932px;}
	.st35{opacity:0.62;fill:#CFE2DE;enable-background:new    ;}
	.st36{font-size:242.2321px;}
	.st37{display:inline;fill:#35352E;}
	.st38{opacity:0.62;fill:#A8AFAE;enable-background:new    ;}
</style>
<g id="Layer_2_2_">
</g>
<g id="Layer_1_2_">
	<g id="Layer_1_1_">
		<g id="illustration">
			<g id="background_1_">
				<rect x="74" y="0" class="st0" width="4439.4" height="1530.3"/>
				<g id="background_2_">
					<rect y="0" class="st1" width="4451.3" height="1748"/>
				</g>
				<rect y="1596.3" class="st2" width="4451.6" height="160.9"/>
			</g>
			<rect y="1411" class="st3" width="4451.6" height="336.6"/>
		</g>
		<g id="Layer_2">
			<g id="cHtMz0.tif" class="st4">
				
					<image style="display:inline;overflow:visible;enable-background:new    ;" width="299" height="170" id="Layer_0_1_" xlink:href="905DC5FE172816A2.png"  transform="matrix(6.0452 0 0 6.0452 2119.5828 -912.5513)">
				</image>
			</g>
			<g id="computer">
				<path class="st5" d="M2813.5,1389.6h-359c0.6,0,0.6-0.6,1.2-0.6c68.8-36.5,113.8-88.2,113.2-166.1h130.8
					c-0.6,77.9,43.8,129.6,113.2,166.1C2812.9,1389,2812.9,1389.6,2813.5,1389.6z"/>
				<path class="st6" d="M2814.7,1389.6h-1.2h-359c69.4-37.1,115-88.2,114.4-166.7h131.3"/>
				<rect x="2388.7" y="1389.6" class="st7" width="514.3" height="52.3"/>
				<path class="st8" d="M3189.8,485.5v699.9c0,21.2-17.6,38.9-39.4,38.9h-1033c-22.4,0-39.4-17.6-39.4-38.2V486.7
					c0-21.7,17.8-39.5,39.5-39.5h1033C3172.8,447.9,3189.8,464.9,3189.8,485.5z"/>
				<path class="st9" d="M3115.1,1102.1h-961.7c-22.5,0-39.5-17.6-39.5-38.2V528.4c0-21.7,17.8-39.5,39.5-39.5h962.3
					c22.5,0,39.5,17.6,39.5,38.2v536.7C3155.2,1085.1,3137.6,1102.1,3115.1,1102.1z"/>
				<ellipse class="st10" cx="2635.8" cy="1166.1" rx="27.3" ry="26.1"/>
				<ellipse class="st10" cx="2705.6" cy="1166.1" rx="27.3" ry="26.1"/>
				<ellipse class="st10" cx="2566.6" cy="1166.1" rx="27.3" ry="26.1"/>
				<g>
					<path class="st11" d="M2194,959.4c300.4,0,602.1,0,902.5,0l-220.9-409.1L2797.9,710c-23.1-19.4-45.5-38.2-68-57.7
						c-94.1,144.5-94.1,144.5-94.1,144.5l-48.6-27.9l-109.9,104.4l-169.9,3.6L2194,959.4z"/>
					<polygon class="st12" points="2297.8,903.6 2450.7,838.6 2507.8,756.1 2643.1,903.6 2751.2,672.3 2815.5,725.8 2889.5,575.8 
						3097.1,959.4 2248.6,959.4 					"/>
					<rect x="2248.1" y="573.7" class="st11" width="262.8" height="49.4"/>
					<rect x="2225.5" y="1027.2" class="st11" width="871.7" height="25.4"/>
				</g>
				<path class="st13" d="M3191.2,485v700.6c0,21.2-17.6,38.8-39.4,38.8h-451.1c-0.6,77.5,43.6,129,112.6,165.3h89.6v52.3h-268.4
					V447.3h517.2C3174.2,447.3,3191.2,464.3,3191.2,485z"/>
			</g>
			<g id="tablet">
				<path class="st8" d="M1919,1446.1h-446.5c-12.1,0-21.8-9.8-21.8-21.8V811c0-12.1,9.8-21.8,21.8-21.8H1919
					c12.1,0,21.8,9.8,21.8,21.8v613.3C1940.9,1436.4,1931.1,1446.1,1919,1446.1z"/>
				<rect x="1488.1" y="830.9" class="st9" width="415.4" height="559.5"/>
				<path class="st14" d="M1757,817.1h-122c-1.8,0-3-1.2-3-3v-4.2c0-1.8,1.2-3,3-3h122c1.8,0,3,1.2,3,3v4.2
					C1760.6,815.3,1758.8,817.1,1757,817.1z"/>
				<path class="st15" d="M1702.4,1433.8c-1.8,0.6-4.2,1.2-6.7,1.2c-9.1,0-16.4-7.3-16.4-16.4s7.3-16.4,16.4-16.4
					s16.4,7.3,16.4,16.4C1712.1,1425.3,1707.8,1431.3,1702.4,1433.8"/>
				<g>
					<path class="st11" d="M1500.2,1280.1c129.3,0,259.2,0,388.4,0L1794,876.5l-34,157.2c-9.7-18.8-19.4-37.6-29.1-56.4
						c-40.1,141.4-40.1,141.4-40.1,141.4l-20.6-27.9l-47.3,103.2l-73.4,3.6L1500.2,1280.1z"/>
					<polyline class="st12" points="1545.2,1224.9 1610.7,1160.6 1635,1079.8 1693.9,1224.9 1740,996.7 1767.9,1049.5 1799.5,902 
						1888.7,1280.1 1523.4,1280.1 					"/>
					<rect x="1523.4" y="898.7" class="st11" width="113" height="46.6"/>
					<rect x="1513.5" y="1323.9" class="st11" width="374.4" height="24"/>
				</g>
				<path class="st13" d="M1696.4,789.2h245.8v640c0,9.1-7.3,17-17,17h-228.8V789.2L1696.4,789.2z"/>
			</g>
			<g id="cellphone">
				<path class="st8" d="M2183.9,1126.9v289.4c0,13.4-12.1,25.5-27.9,25.5h-156.2c-15.1,0-27.9-11.6-27.9-25.5v-289.4
					c0-14,12.1-25.5,27.9-25.5H2156C2171.8,1102,2183.9,1113,2183.9,1126.9z"/>
				<rect x="1989.6" y="1137.4" class="st16" width="176.6" height="245.8"/>
				<path class="st14" d="M2110.2,1124.2h-64.3c-2.4,0-3.6-1.2-3.6-3l0,0c0-1.8,1.2-3,3.6-3h64.3c2.4,0,3.6,1.2,3.6,3l0,0
					C2113.9,1123,2112,1124.2,2110.2,1124.2z"/>
				<g>
					<path class="st11" d="M1998.6,1328.2c53.4,0,106.2,0,159.6,0l-38.8-166.3l-14,64.9c-3.6-7.9-7.9-15.2-11.5-23.1
						c-17,58.3-17,58.3-17,58.3l-8.5-11.5l-20,42.5l-29.7,1.2L1998.6,1328.2z"/>
					<polygon class="st12" points="2016.8,1305.1 2044.1,1278.4 2054.4,1245 2078.7,1305.1 2097.5,1211 2109,1232.3 2121.8,1172.2 
						2158.8,1328.2 2008.3,1328.2 					"/>
					<rect x="2008" y="1172.8" class="st11" width="46.6" height="22.6"/>
					<rect x="2002.3" y="1347.9" class="st11" width="154" height="12.7"/>
				</g>
				<path class="st13" d="M2183.9,1126.3V1415c0,13.3-9.7,25.5-21.3,25.5h-79v-339.1h79C2174.1,1101.4,2183.9,1112.3,2183.9,1126.3z
					"/>
			</g>
			<g id="laptop">
				<path class="st8" d="M4276.2,1399.3v15.9c0,11-7.9,19.6-17.6,19.6H3176.3c-9.7,0-17.6-8.6-17.6-19.6v-15.9
					c0-11,7.9-19.6,17.6-19.6h1082.3C4268.4,1380.3,4276.2,1388.9,4276.2,1399.3z"/>
				<path class="st8" d="M4163,1381.1h-888.5V831.3c0-22.5,17-40.7,37-40.7h813.2c20.6,0,37,18.2,37,40.7L4163,1381.1z"/>
				<path class="st9" d="M4084.3,1346.5h-730.8c-20,0-35.8-17-35.8-37.7v-429c0-21.3,16.4-37.7,35.8-37.7h730.8
					c20,0,35.8,17,35.8,37.7v429C4120.1,1329.5,4103.7,1346.5,4084.3,1346.5z"/>
				<g>
					<path class="st11" d="M3342.3,1237.7c234.3,0,468,0,701.6,0l-171.2-344.1l-61.3,134.1c-17.6-15.8-35.2-31.6-52.8-47.9
						c-72.8,120.8-72.8,120.8-72.8,120.8l-37.6-24.3l-85.6,88l-132.3,3L3342.3,1237.7z"/>
					<polyline class="st12" points="3426.1,1187.4 3551.7,1129.1 3597.8,1055.7 3708.3,1187.4 3797.5,979.8 3849.7,1027.7 
						3910.4,893.6 4079.8,1237.7 3385.5,1237.7 					"/>
					<rect x="3386.9" y="890.2" class="st11" width="219" height="43.8"/>
					<rect x="3368.5" y="1290" class="st11" width="724.8" height="22.6"/>
				</g>
				<path class="st13" d="M4276.2,1400v15.5c0,10.9-7.9,19.4-17.6,19.4h-517.9V790.6h384.1c20.6,0,36.9,18.2,36.9,40.7l0.6,549.9
					h96.3C4268.4,1381.1,4276.2,1389.6,4276.2,1400z"/>
			</g>
		</g>
		<g class="st4">
			<rect x="1697" y="992.4" class="st17" width="121.5" height="21.2"/>
			<rect x="1698.4" y="1058.8" class="st18" width="121.5" height="18.4"/>
			<rect x="1698.4" y="1033.3" class="st19" width="121.5" height="18.4"/>
			<rect x="1708.3" y="1094.1" class="st18" width="101.7" height="32.5"/>
			<rect x="1697" y="1143.5" class="st17" width="121.5" height="29.7"/>
		</g>
	</g>
	<g id="Layer_3" class="st4">
		<text transform="matrix(1 0 0 1 339.0891 419.5243)" class="st20 st21 st22">Web based applications</text>
		<g class="st23">
			<g class="st24">
				<path class="st11" d="M374.3,377.8h-43l-9.7,26.8h-14.2l39.4-103.1h11.9l39.5,103.1h-14.1L374.3,377.8z M335.3,366.5h35.2
					L352.9,318L335.3,366.5z"/>
				<path class="st11" d="M440.4,395.9c4.5,0,8.5-1.5,11.9-4.4s5.3-6.5,5.6-10.9h12c-0.2,4.5-1.7,8.8-4.4,12.9
					c-2.7,4.1-6.3,7.3-10.8,9.7c-4.5,2.4-9.3,3.6-14.3,3.6c-10.1,0-18.2-3.6-24.2-10.7c-6-7.2-9-16.9-9-29.4v-2.3
					c0-7.7,1.3-14.5,4-20.4s6.5-10.6,11.4-13.9c5-3.3,10.8-4.9,17.6-4.9c8.3,0,15.3,2.6,20.8,7.9s8.5,12.1,8.8,20.6h-12
					c-0.4-5.1-2.2-9.3-5.5-12.5c-3.3-3.3-7.3-4.9-12.1-4.9c-6.5,0-11.5,2.5-15,7.4s-5.3,12-5.3,21.4v2.5c0,9.1,1.8,16.1,5.3,21
					C428.8,393.4,433.8,395.9,440.4,395.9z"/>
				<path class="st11" d="M516.7,395.9c4.5,0,8.5-1.5,11.9-4.4s5.3-6.5,5.6-10.9h12c-0.2,4.5-1.7,8.8-4.4,12.9s-6.3,7.3-10.8,9.7
					c-4.5,2.4-9.3,3.6-14.3,3.6c-10.1,0-18.2-3.6-24.2-10.7c-6-7.2-9-16.9-9-29.4v-2.3c0-7.7,1.3-14.5,4-20.4
					c2.7-6,6.5-10.6,11.4-13.9c5-3.3,10.8-4.9,17.6-4.9c8.3,0,15.3,2.6,20.8,7.9s8.5,12.1,8.8,20.6h-12c-0.4-5.1-2.2-9.3-5.5-12.5
					c-3.3-3.3-7.3-4.9-12.1-4.9c-6.5,0-11.5,2.5-15,7.4s-5.3,12-5.3,21.4v2.5c0,9.1,1.8,16.1,5.3,21
					C505.1,393.4,510.1,395.9,516.7,395.9z"/>
				<path class="st11" d="M595,405.4c-10.4,0-18.8-3.4-25.3-10.3s-9.8-16-9.8-27.5v-2.4c0-7.6,1.5-14.5,4.4-20.4
					c2.9-6,7-10.7,12.2-14.1s10.9-5.1,17-5.1c10,0,17.7,3.3,23.2,9.9s8.3,16,8.3,28.3v5.5h-51.9c0.2,7.6,2.4,13.7,6.6,18.4
					c4.2,4.7,9.6,7,16.1,7c4.6,0,8.5-0.9,11.8-2.8s6-4.4,8.4-7.5l8,6.3C617.4,400.5,607.8,405.4,595,405.4z M593.6,337.4
					c-5.3,0-9.8,1.9-13.4,5.8c-3.6,3.9-5.8,9.3-6.7,16.3h38.6v-1c-0.4-6.7-2.2-11.9-5.4-15.5C603.5,339.2,599.1,337.4,593.6,337.4z"
					/>
				<path class="st11" d="M685,383.9c0-3.6-1.4-6.4-4.1-8.4c-2.7-2-7.5-3.7-14.2-5.2c-6.8-1.4-12.1-3.2-16.1-5.2s-6.9-4.4-8.8-7.2
					c-1.9-2.8-2.8-6.1-2.8-10c0-6.4,2.7-11.8,8.1-16.2c5.4-4.4,12.3-6.6,20.7-6.6c8.8,0,16,2.3,21.5,6.9s8.3,10.4,8.3,17.5h-13.4
					c0-3.7-1.6-6.8-4.7-9.4c-3.1-2.6-7-4-11.7-4c-4.9,0-8.7,1.1-11.4,3.2s-4.1,4.9-4.1,8.3c0,3.2,1.3,5.6,3.8,7.3
					c2.5,1.6,7.2,3.2,13.8,4.7s12.1,3.3,16.2,5.3c4.1,2.1,7.2,4.6,9.2,7.5s3,6.5,3,10.6c0,7-2.8,12.6-8.4,16.8
					c-5.6,4.2-12.8,6.3-21.7,6.3c-6.3,0-11.8-1.1-16.6-3.3c-4.8-2.2-8.6-5.3-11.3-9.3s-4.1-8.3-4.1-12.9h13.3c0.2,4.5,2,8,5.4,10.6
					c3.3,2.6,7.8,3.9,13.2,3.9c5,0,9.1-1,12.2-3.1C683.5,390.1,685,387.3,685,383.9z"/>
				<path class="st11" d="M760.1,383.9c0-3.6-1.4-6.4-4.1-8.4s-7.5-3.7-14.2-5.2c-6.8-1.4-12.1-3.2-16.1-5.2s-6.9-4.4-8.8-7.2
					c-1.9-2.8-2.8-6.1-2.8-10c0-6.4,2.7-11.8,8.1-16.2s12.3-6.6,20.7-6.6c8.8,0,16,2.3,21.5,6.9s8.3,10.4,8.3,17.5h-13.4
					c0-3.7-1.6-6.8-4.7-9.4c-3.1-2.6-7-4-11.7-4c-4.9,0-8.7,1.1-11.4,3.2s-4.1,4.9-4.1,8.3c0,3.2,1.3,5.6,3.8,7.3
					c2.5,1.6,7.2,3.2,13.8,4.7s12.1,3.3,16.2,5.3s7.2,4.6,9.2,7.5s3,6.5,3,10.6c0,7-2.8,12.6-8.4,16.8c-5.6,4.2-12.8,6.3-21.7,6.3
					c-6.3,0-11.8-1.1-16.6-3.3c-4.8-2.2-8.6-5.3-11.3-9.3s-4.1-8.3-4.1-12.9h13.3c0.2,4.5,2,8,5.4,10.6c3.3,2.6,7.8,3.9,13.2,3.9
					c5,0,9.1-1,12.2-3.1S760.1,387.3,760.1,383.9z"/>
				<path class="st11" d="M790.3,307.2c0-2.1,0.7-3.9,2-5.4s3.2-2.2,5.8-2.2s4.5,0.7,5.8,2.2s2,3.3,2,5.4s-0.7,3.9-2,5.3
					s-3.3,2.1-5.8,2.1s-4.5-0.7-5.8-2.1C790.9,311.1,790.3,309.3,790.3,307.2z M804.3,404.6h-12.7v-76.3h12.7V404.6z"/>
				<path class="st11" d="M890.4,367.2c0,11.7-2.7,21.1-8.2,28.2c-5.4,7.1-12.7,10.7-21.9,10.7c-9.8,0-17.3-3.4-22.7-10.3l-0.6,8.9
					h-11.6V295.8h12.7v40.6c5.3-6.6,12.7-9.8,22.1-9.8c9.4,0,16.8,3.5,22.1,10.6c5.4,7,8,16.7,8,28.9v1.1H890.4z M877,365.4
					c0-9-1.7-15.9-5.2-20.8s-8.4-7.3-14.9-7.3c-8.7,0-14.9,4-18.7,12.1v33.3c4,8.1,10.3,12.1,18.8,12.1c6.3,0,11.2-2.4,14.7-7.3
					C875.2,382.6,877,375.3,877,365.4z"/>
				<path class="st11" d="M921.5,404.6h-12.7V295.8h12.7V404.6z"/>
				<path class="st11" d="M975,405.4c-10.4,0-18.8-3.4-25.3-10.3s-9.8-16-9.8-27.5v-2.4c0-7.6,1.5-14.5,4.4-20.4
					c2.9-6,7-10.7,12.2-14.1s10.9-5.1,17-5.1c10,0,17.7,3.3,23.2,9.9s8.3,16,8.3,28.3v5.5h-52c0.2,7.6,2.4,13.7,6.6,18.4
					c4.2,4.7,9.6,7,16.1,7c4.6,0,8.5-0.9,11.8-2.8s6-4.4,8.4-7.5l8,6.3C997.5,400.5,987.8,405.4,975,405.4z M972.3,337.4
					c-5.3,0-9.8,1.9-13.4,5.8c-3.6,3.9-5.8,9.3-6.7,16.3h38.6v-1c-0.4-6.7-2.2-11.9-5.4-15.5C982.1,339.2,977.8,337.4,972.3,337.4z"
					/>
				<path class="st11" d="M1114.9,377.8h-43l-9.7,26.8H1048l39.4-103.1h11.9l39.5,103.1h-14.1L1114.9,377.8z M1075.8,366.5h35.2
					l-17.6-48.4L1075.8,366.5z"/>
				<path class="st11" d="M1162.9,328.3l0.4,9.6c5.9-7.3,13.6-11,23.1-11c16.3,0,24.6,9.1,24.7,27.3v50.4h-12.7v-50.9
					c0-5.5-1.3-9.6-3.8-12.3c-2.5-2.7-6.3-4-11.5-4c-4.2,0-7.9,1.1-11.1,3.4s-5.7,5.3-7.5,9v54.8h-14.1v-76.3H1162.9z"/>
				<path class="st11" d="M1255.8,384.6l17.9-57.7h14.1l-30.9,88.8c-4.8,12.8-12.4,19.2-22.8,19.2l-2.5-0.2l-4.9-0.9v-10.7l3.6,0.3
					c4.5,0,7.9-0.9,10.4-2.7c2.5-1.8,4.5-5.1,6.2-9.9l2.9-7.8l-27.5-76.1h14.4L1255.8,384.6z"/>
				<path class="st11" d="M1368.1,386.6l14.7-58.3h13l-22.2,76.3H1363l-18.5-57.8l-18.1,57.8h-10.6l-22.1-76.3h13l15,57.1l17.8-57.1
					h10.5L1368.1,386.6z"/>
				<path class="st11" d="M1477.6,386.6l14.7-58.3h13l-22.2,76.3h-10.6l-18.5-57.8l-18.1,57.8h-10.6l-22.1-76.3h13l15,57.1
					l17.8-57.1h10.5L1477.6,386.6z"/>
				<path class="st11" d="M1531.9,337.3c5.9-7.1,13.6-10.7,23.1-10.7c16.5,0,24.8,9.1,25,27.4v50.6h-14.1v-50.9
					c0-5.5-1.3-9.6-3.8-12.3c-2.5-2.7-6.3-4-11.5-4c-4.2,0-7.9,1.1-11.1,3.4s-5.7,5.3-7.5,9v54.8h-12.7V295.8h12.7L1531.9,337.3
					L1531.9,337.3z"/>
				<path class="st11" d="M1632,405.4c-10.4,0-18.8-3.4-25.3-10.3s-9.8-16-9.8-27.5v-2.4c0-7.6,1.5-14.5,4.4-20.4
					c2.9-6,7-10.7,12.2-14.1s10.9-5.1,17-5.1c10,0,17.7,3.3,23.2,9.9s8.3,16,8.3,28.3v5.5h-51.9c0.2,7.6,2.4,13.7,6.6,18.4
					c4.2,4.7,9.6,7,16.1,7c4.6,0,8.5-0.9,11.8-2.8s6-4.4,8.4-7.5l8,6.3C1654.4,400.5,1644.8,405.4,1632,405.4z M1629.2,337.4
					c-5.3,0-9.8,1.9-13.4,5.8s-5.8,9.3-6.7,16.3h38.6v-1c-0.4-6.7-2.2-11.9-5.4-15.5C1639.1,339.2,1634.7,337.4,1629.2,337.4z"/>
				<path class="st11" d="M1714.1,340.1c-2-0.3-4.1-0.5-6.5-0.5c-8.6,0-14.5,3.7-17.6,11v54h-12.7v-76.3h12.4l0.2,8.9
					c4.3-6.9,10.4-10.3,18.3-10.3c2.6,0,4.5,0.3,5.8,1L1714.1,340.1L1714.1,340.1z"/>
				<path class="st11" d="M1756.3,405.4c-10.4,0-18.8-3.4-25.3-10.3s-9.8-16-9.8-27.5v-2.4c0-7.6,1.5-14.5,4.4-20.4
					c2.9-6,7-10.7,12.2-14.1s10.9-5.1,17-5.1c10,0,17.7,3.3,23.2,9.9s8.3,16,8.3,28.3v5.5h-51.9c0.2,7.6,2.4,13.7,6.6,18.4
					c4.2,4.7,9.6,7,16.1,7c4.6,0,8.5-0.9,11.8-2.8s6-4.4,8.4-7.5l8,6.3C1778.7,400.5,1769.1,405.4,1756.3,405.4z M1755,337.4
					c-5.3,0-9.8,1.9-13.4,5.8s-5.8,9.3-6.7,16.3h38.6v-1c-0.4-6.7-2.2-11.9-5.4-15.5C1764.8,339.2,1760.5,337.4,1755,337.4z"/>
			</g>
		</g>
		<g class="st23">
			<g class="st24">
				<path class="st11" d="M374.3,575.6h-43l-9.7,26.8h-14.2l39.4-103.1h11.9l39.5,103.1h-14.1L374.3,575.6z M335.3,564.3h35.2
					l-17.6-48.4L335.3,564.3z"/>
				<path class="st11" d="M427,507.8v18.4h14.1v9.9H427v47.8c0,3.1,0.7,5.4,2,6.9c1.4,1.5,3.7,2.3,6.9,2.3c1.6,0,3.8-0.3,6.6-0.9
					v10.6c-3.5,0.9-6.9,1.4-10.2,1.4c-6,0-10.5-1.8-13.5-5.4c-3-3.6-4.5-8.7-4.5-15.4V536h-14.1v-9.9h14.1v-18.4H427V507.8z"/>
				<path class="st11" d="M551.8,575.6h-43l-9.7,26.8H485l39.4-103.1h11.9l39.5,103.1h-14.1L551.8,575.6z M512.7,564.3h35.2
					l-17.6-48.4L512.7,564.3z"/>
				<path class="st11" d="M600.6,526.1l0.4,9.6c5.9-7.3,13.6-11,23.1-11c16.3,0,24.6,9.1,24.7,27.3v50.4h-14.1v-50.9
					c0-5.5-1.3-9.6-3.8-12.3s-6.3-4-11.5-4c-4.2,0-7.9,1.1-11.1,3.4c-3.2,2.3-5.7,5.3-7.5,9v54.8h-12.7v-76.3H600.6z"/>
				<path class="st11" d="M693.5,583.8l17.9-57.7h14.1L694.6,615c-4.8,12.8-12.4,19.2-22.8,19.2l-2.5-0.2l-4.9-0.9v-10.7l3.6,0.3
					c4.5,0,7.9-0.9,10.4-2.7s4.5-5.1,6.2-9.9l2.9-7.8L660,526.1h14.4L693.5,583.8z"/>
				<path class="st11" d="M754.8,507.8v18.4h14.1v9.9h-14.1v47.8c0,3.1,0.6,5.4,1.8,6.9s3.3,2.3,6.3,2.3c1.5,0,3.5-0.3,6-0.9v10.1
					c-3.3,0.9-6.6,1.4-9.7,1.4c-5.7,0-9.9-1.7-12.8-5.1c-2.9-3.4-4.3-8.3-4.3-14.6v-48H728v-9.9h14.1v-18.4L754.8,507.8L754.8,507.8
					z"/>
				<path class="st11" d="M784.7,505.3c0-2.1,0.7-3.9,2-5.4s3.2-2.2,5.8-2.2s4.5,0.7,5.8,2.2s2,3.3,2,5.4s-0.7,3.9-2,5.3
					s-3.3,2.1-5.8,2.1s-4.5-0.7-5.8-2.1C785.4,509.2,784.7,507.4,784.7,505.3z M798.6,602.4h-12.7v-76.3h12.7V602.4z"/>
				<path class="st11" d="M832.2,526.1l0.4,8.5c5.6-6.6,13.2-9.9,22.7-9.9c10.7,0,18,4.1,21.9,12.3c2.5-3.7,5.9-6.6,9.9-8.9
					c4.1-2.3,8.9-3.4,14.5-3.4c16.8,0,25.3,8.9,25.6,26.6v51.1h-12.7v-50.8c0-5.5-1.2-9.6-3.7-12.3s-6.7-4.1-12.5-4.1
					c-4.8,0-8.9,1.5-12.1,4.4c-3.2,2.9-5.1,6.8-5.6,11.8v51.1h-14.1V552c0-11.2-5.4-16.8-16.3-16.8c-8.6,0-14.4,3.7-17.6,11v56.2
					h-12.7v-76.3L832.2,526.1L832.2,526.1z"/>
				<path class="st11" d="M979.2,604.6c-10.4,0-18.8-3.4-25.3-10.3c-6.5-6.9-9.8-16-9.8-27.5v-2.4c0-7.6,1.5-14.5,4.4-20.4
					s7-10.7,12.2-14.1c5.2-3.4,10.9-5.1,17-5.1c10,0,17.7,3.3,23.2,9.9c5.5,6.6,8.3,16,8.3,28.3v5.5h-51.9
					c0.2,7.6,2.4,13.7,6.6,18.4c4.2,4.7,9.6,7,16.1,7c4.6,0,8.5-0.9,11.8-2.8c3.2-1.9,6-4.4,8.4-7.5l8,6.3
					C1001.7,599.7,992.1,604.6,979.2,604.6z M977.9,535.2c-5.3,0-9.8,1.9-13.4,5.8c-3.6,3.9-5.8,9.3-6.7,16.3h38.6v-1
					c-0.4-6.7-2.2-11.9-5.4-15.5C987.8,537,983.4,535.2,977.9,535.2z"/>
			</g>
		</g>
	</g>
	<g id="Layer_2_1_" class="st4">
		<g class="st23">
			<path class="st25" d="M3910.9,787.5h-260.1c-86.9,0-156.8-70.5-156.8-156.8v-260c0-86.9,70.5-156.8,156.8-156.8h260.1
				c86.9,0,156.8,70.5,156.8,156.8v260.1C4068.3,717,3997.8,787.5,3910.9,787.5z"/>
			<g>
				<rect x="3553.4" y="350.9" class="st26" width="120.1" height="299.5"/>
				<rect x="3888.2" y="530.4" class="st27" width="120.1" height="120.1"/>
				<rect x="3720.1" y="448.4" class="st28" width="120.1" height="202"/>
			</g>
		</g>
		<g class="st23">
			<path class="st29" d="M3990.4,1116.7h-186c-63.7,0-115.3-51.6-115.3-115.3V815.2c0-63.7,51.6-115.3,115.3-115.3h186.1
				c63.7,0,115.3,51.6,115.3,115.3v186C4106.4,1065,4054.2,1116.7,3990.4,1116.7z"/>
			<g class="st30">
				<g>
					<g>
						<path class="st31" d="M3872.1,907.6l66.8,136.6c-75.3,37-166.3,5.5-202.7-69.8c-37-75.3-5.5-166.3,69.8-202.7
							c21.2-10.3,42.5-15.2,66.8-15.2v151.1H3872.1z"/>
					</g>
				</g>
				<g>
					<g>
						<path class="st32" d="M3906.2,908l117.7-95.3c52.8,64.9,42.5,160.8-22.5,213c-9.1,7.3-18.2,13.4-29.1,18.2L3906.2,908z"/>
					</g>
				</g>
				<g>
					<g>
						<path class="st33" d="M3889.7,898.3V746.6c47.9,0,88,18.8,117.7,56.4L3889.7,898.3z"/>
					</g>
				</g>
			</g>
		</g>
		<g class="st23">
			<path class="st25" d="M895.2,650.5h-212c-45.6,0-82.5-37-82.5-82.5V355.8c0-45.6,37-82.5,82.5-82.5h212.1
				c45.6,0,82.5,37,82.5,82.5v212.1C977.9,614,940.8,650.5,895.2,650.5z"/>
			<text transform="matrix(1 0 0 1 713.3452 558.4872)" class="st28 st21 st34">€</text>
		</g>
		<g class="st23">
			<path class="st35" d="M558.1,664.6H374.8c-39.9,0-72.2-32.3-72.2-72.2V409c0-39.9,32.3-72.2,72.2-72.2h183.3
				c39.9,0,72.2,32.3,72.2,72.2v183.3C630.3,632.2,598,664.6,558.1,664.6z"/>
			<text transform="matrix(1 0 0 1 408.6509 586.1503)" class="st31 st21 st36">$</text>
		</g>
		<path class="st37" d="M5245.7-117.7"/>
		<g class="st23">
			<path class="st38" d="M524,1164.7H261.4c-45.9,0-83.2-37.2-83.2-83.2V841c0-45.9,37.2-83.2,83.2-83.2h263.2
				c45.9,0,83.2,37.2,83.2,83.2v240.5C607.1,1127.7,570.1,1164.7,524,1164.7z"/>
			<g>
				<path class="st33" d="M558.9,1088.4H486c0,0,0.6-24.9-3.6-45.6c-1.8-9.1-3.6-19.4-14-40.1c-18.2-37.1-34-43.7-39.5-45.6
					c-0.6,0-1.8-0.6-2.4-0.6c-4.3-1.2-7.9-1.2-7.9-3.6c0-1.2,1.8-1.8,1.8-1.8c0.6-0.6,1.2-0.6,2.4-1.8c7.3-6.1,16.4-23.7,18.2-41.9
					c1.8-17-3-29.2-4.3-32.2c-0.6-1.2-7.9-18.8-24.9-31c5.5-4.3,12.1-7.3,20-9.7c4.3-1.2,8.5-1.8,11.5-1.8c1.8,0,3,0,4.9,0
					c1.2,0,3,0,4.9,0c3.6,0,7.3,0.6,11.5,1.8c31.6,8.5,44.3,38.9,44.9,40.7c1.2,2.4,5.5,15.2,4.3,32.2
					c-1.8,18.2-10.9,35.8-18.2,41.9c-0.6,0.6-1.8,1.2-2.4,1.8c-0.6,0-1.8,1.2-1.8,1.8c0,2.4,3.6,2.4,7.9,3.6c0.6,0,1.2,0.6,2.4,0.6
					c5.5,1.8,21.3,8.5,39.5,45.6c10.3,21.3,12.1,31,14,40.1C559.6,1063.5,558.9,1088.4,558.9,1088.4z"/>
				<path class="st33" d="M429,832.7L429,832.7c-1.8,0-3,0-4.9,0C426,832.7,427.8,832.7,429,832.7z"/>
				<path class="st33" d="M424.1,832.7c-1.2,0-3,0-4.9,0l0,0C421.1,832.7,422.3,832.7,424.1,832.7z"/>
			</g>
			<g>
				<path class="st31" d="M372,837c0.6,0,0.6,0,1.2,0.6l0,0l-17-4.2c3,0.6,6.1,0.6,9.7,1.8C367.7,835.8,370.1,836.4,372,837z"/>
				<path class="st31" d="M393.2,952.9c0,0.6,0,0.6-0.6,1.2c-0.6-0.6-0.6-0.6-0.6-1.2c0-0.6,0-0.6,0.6-0.6L393.2,952.9z"/>
				<path class="st31" d="M459.4,1088.4H238.9c0,0-0.6-24.9,3.6-45.6c1.8-9.1,3.6-19.4,14-40.1c18.2-37.1,34-43.7,39.5-45.6
					c0.6,0,1.8-0.6,2.4-0.6c4.3-1.2,7.9-1.2,7.9-3.6c0-1.2-1.8-1.8-1.8-1.8c-0.6-0.6-1.2-0.6-2.4-1.8c-7.3-6.1-16.4-23.7-18.2-41.9
					c-1.2-17,3-29.2,4.3-32.2c0.6-1.8,13.4-31.6,44.9-40.7c4.3-1.2,8.5-1.8,11.5-1.8c1.8,0,3,0,4.9,0c1.2,0,3,0,4.9,0
					c0.6,0,1.8,0,2.4,0c3,0.6,6.1,0.6,9.7,1.8c2.4,0.6,4.3,1.2,6.7,2.4c0.6,0,0.6,0,1.2,0.6l0,0l0,0c1.2,0.6,1.8,1.2,3,1.2
					c0.6,0,1.2,0.6,1.8,1.2c1.8,0.6,3,1.8,4.3,2.4c1.2,0.6,2.4,1.8,3.6,2.4c0.6,0.6,1.8,1.2,2.4,1.8s1.2,1.2,1.8,1.8
					s1.2,1.2,1.8,1.8c12.1,11.5,17,24.3,17.6,24.9c1.2,2.4,5.5,15.2,4.3,32.2c-1.8,18.2-10.9,35.8-18.2,41.9
					c-0.6,0.6-1.8,1.2-2.4,1.8c-0.6,0-1.2,0.6-1.8,1.2L392,953c0,0.6,0,0.6,0.6,1.2c1.2,1.2,3.6,1.8,7.3,2.4c0.6,0,1.8,0.6,2.4,0.6
					c5.5,1.8,21.3,8.5,39.5,45.6c10.3,21.3,12.1,31,14,40.1C460,1063.5,459.4,1088.4,459.4,1088.4z"/>
			</g>
		</g>
		<g class="st23">
			<path class="st35" d="M838.5,1310.2h-220c-38.3,0-68.7-30.9-68.7-68.5v-178.1c0-38.2,31-68.5,68.7-68.5h220.1
				c38.3,0,68.7,30.9,68.7,68.5v178.1C907.8,1279.9,876.8,1310.2,838.5,1310.2z"/>
			<g>
				<path class="st32" d="M764.5,1115.3v56.4c0,6.1-1.2,12.1-3.6,17.6c-1.8,4.2-4.9,8.5-8.5,12.1c-7.9,7.9-18.8,12.7-30.3,12.7h-54
					l-49.8,41.8l-9.7,7.9l4.9-49.7c-23.7,0-42.5-18.8-42.5-42.4v-56.4c0-15.8,8.5-29.7,21.8-37c6.1-3.6,13.3-5.5,21.2-5.5h108
					C745.7,1072.3,764.5,1091.7,764.5,1115.3z"/>
			</g>
			<g>
				<path class="st33" d="M883.2,1082.9v56.3c0,23.5-19,42.5-42.5,42.5h-53c4.9-6.7,7.9-15.8,7.9-24.9v-57c0-23.5-19-42.5-42.5-42.5
					h-55.4c7.9-10.5,20.1-17,34.7-17h108.4C864.2,1040.4,883.2,1059.4,883.2,1082.9z"/>
				<polygon class="st33" points="844.8,1232.1 786.5,1182.9 785.9,1181.7 839.9,1181.7 				"/>
			</g>
		</g>
	</g>
	<g>
		<path class="st11" d="M399.7,358.1h-73.9l-16.6,46.2h-23.9l67.2-176.3h20.3l67.4,176.3h-23.9L399.7,358.1z M333,339h60l-30.1-82.4
			L333,339z"/>
		<path class="st11" d="M513.2,388.3c8.1,0,15-2.5,20.9-7.3c6-4.8,9.3-10.8,9.9-18.1h21.2c-0.5,7.4-2.9,14.7-7.7,21.4
			c-4.8,6.8-11.2,12.2-19.1,16.3c-7.9,4-16.4,6-25.3,6c-17.8,0-32.1-5.9-42.6-17.8c-10.5-11.9-15.8-28.2-15.8-48.8v-3.7
			c0-12.7,2.3-24,7-34.1c4.6-9.9,11.5-17.7,20.1-23.1c8.8-5.4,19.1-8.2,31-8.2c14.7,0,27,4.3,36.6,13.2c9.8,8.8,14.9,20.1,15.5,34.2
			h-20.8c-0.6-8.5-3.9-15.5-9.6-20.9c-5.7-5.4-12.9-8.2-21.4-8.2c-11.3,0-20.1,4-26.5,12.2c-6.2,8.2-9.5,20-9.5,35.5v4.2
			c0,15,3.1,26.6,9.3,34.9C492.9,384.2,501.7,388.3,513.2,388.3z"/>
		<path class="st11" d="M643,388.3c8.1,0,15-2.5,20.9-7.3c6-4.8,9.3-10.8,9.9-18.1h21.2c-0.5,7.4-2.9,14.7-7.7,21.4
			c-4.8,6.8-11.2,12.2-19.1,16.3c-7.9,4-16.4,6-25.3,6c-17.8,0-32.1-5.9-42.6-17.8c-10.5-11.9-15.8-28.2-15.8-48.8v-3.7
			c0-12.7,2.3-24,7-34.1c4.6-9.9,11.5-17.7,20.1-23.1c8.8-5.4,19.1-8.2,31-8.2c14.7,0,27,4.3,36.6,13.2c9.8,8.8,14.9,20.1,15.5,34.2
			h-21.2c-0.6-8.5-3.9-15.5-9.6-20.9c-5.7-5.4-12.9-8.2-21.4-8.2c-11.3,0-20.1,4-26.5,12.2c-6.2,8.2-9.5,20-9.5,35.5v4.2
			c0,15,3.1,26.6,9.3,34.9C622.6,384.2,631.4,388.3,643,388.3z"/>
		<path class="st11" d="M774.5,406.6c-17.8,0-32.2-5.9-43.4-17.5c-11.2-11.6-16.7-27.3-16.7-46.8v-4.2c0-13,2.5-24.6,7.4-34.9
			c5-10.2,11.9-18.1,20.8-24c9-5.7,18.6-8.7,29-8.7c17,0,30.2,5.6,39.7,16.9c9.5,11.2,14.1,27.3,14.1,48.2v9.3h-88.8
			c0.3,12.9,4,23.4,11.3,31.3c7.3,7.9,16.4,11.9,27.6,11.9c7.9,0,14.6-1.5,20.1-4.8c5.4-3.3,10.2-7.4,14.4-12.9l13.6,10.7
			C813,398,796.5,406.6,774.5,406.6z M771.8,289.1c-9,0-16.6,3.3-22.8,9.9c-6.2,6.5-9.9,15.8-11.3,27.7h65.5v-1.7
			c-0.6-11.3-3.7-20.1-9.1-26.5C788.5,292.2,781.2,289.1,771.8,289.1z"/>
		<path class="st11" d="M927.8,369.4c0-6-2.3-10.7-6.8-14.1c-4.5-3.4-12.5-6.2-23.9-8.7c-11.3-2.5-20.3-5.3-27-8.7
			c-6.7-3.4-11.6-7.4-14.7-12.1c-3.3-4.6-4.8-10.2-4.8-16.7c0-10.7,4.5-19.8,13.6-27.3c9.1-7.4,20.6-11.2,34.9-11.2
			c14.9,0,27,3.9,36.1,11.5c9.3,7.6,13.8,17.5,13.8,29.4h-22.5c0-6.2-2.6-11.5-7.7-15.8c-5.3-4.5-11.8-6.7-19.7-6.7
			c-8.2,0-14.6,1.7-19.1,5.3c-4.6,3.6-7,8.2-7,13.9c0,5.4,2.2,9.5,6.4,12.2c4.3,2.8,11.9,5.4,23.2,7.9c11.2,2.5,20.3,5.4,27.1,9
			c7,3.4,12.1,7.6,15.5,12.6c3.4,5,5,10.8,5,17.8c0,11.8-4.6,21.1-14.1,28.2c-9.3,7.1-21.5,10.5-36.4,10.5
			c-10.5,0-19.8-1.9-27.9-5.6c-8.1-3.7-14.4-8.8-18.9-15.5s-6.8-13.8-6.8-21.5h22.5c0.5,7.4,3.4,13.5,9,17.8s13,6.7,22.2,6.7
			c8.5,0,15.3-1.7,20.5-5.1C925.3,379.7,927.8,375.1,927.8,369.4z"/>
		<path class="st11" d="M1055.6,369.4c0-6-2.3-10.7-6.8-14.1c-4.5-3.4-12.6-6.2-23.9-8.7c-11.3-2.5-20.3-5.3-27-8.7
			c-6.7-3.4-11.6-7.4-14.7-12.1c-3.3-4.6-4.8-10.2-4.8-16.7c0-10.7,4.5-19.8,13.6-27.3c9.1-7.4,20.6-11.2,34.9-11.2
			c14.9,0,27,3.9,36.1,11.5c9.3,7.6,13.8,17.5,13.8,29.4h-22.5c0-6.2-2.6-11.5-7.7-15.8c-5.3-4.5-11.8-6.7-19.7-6.7
			c-8.2,0-14.6,1.7-19.1,5.3c-4.6,3.6-7,8.2-7,13.9c0,5.4,2.2,9.5,6.4,12.2c4.3,2.8,11.9,5.4,23.2,7.9c11.2,2.5,20.3,5.4,27.1,9
			c7,3.4,12.1,7.6,15.5,12.6c3.4,5,5,10.8,5,17.8c0,11.8-4.6,21.1-14.1,28.2c-9.3,7.1-21.5,10.5-36.4,10.5
			c-10.5,0-19.8-1.9-27.9-5.6c-8.1-3.7-14.4-8.8-18.9-15.5s-6.8-13.8-6.8-21.5h22.5c0.5,7.4,3.4,13.5,9,17.8s13,6.7,22.2,6.7
			c8.5,0,15.3-1.7,20.5-5.1C1053.1,379.7,1055.6,375.1,1055.6,369.4z"/>
		<path class="st11" d="M1107.4,238.4c0-3.6,1.1-6.7,3.3-9.1c2.2-2.5,5.6-3.7,9.9-3.7s7.6,1.2,9.9,3.7s3.4,5.6,3.4,9.1
			s-1.1,6.7-3.4,9.1s-5.6,3.6-9.9,3.6s-7.6-1.2-9.9-3.6C1108.4,245.1,1107.4,242,1107.4,238.4z M1131.5,404.1h-22.5V273.1h22.5
			V404.1z"/>
		<path class="st11" d="M1278.3,340.1c0,20-4.6,36.1-13.8,48.2c-9.1,12.1-21.5,18.3-37,18.3c-16.6,0-29.3-5.9-38.4-17.5l-1.1,15.2
			h-20.6V218.3h22.5v69.4c9-11.2,21.5-16.9,37.3-16.9c16,0,28.4,6,37.5,18c9.1,12.1,13.6,28.5,13.6,49.4L1278.3,340.1L1278.3,340.1z
			 M1255.8,337.6c0-15.2-2.9-27-8.8-35.3c-5.9-8.4-14.4-12.4-25.4-12.4c-14.7,0-25.4,6.8-31.8,20.6v56.7
			c6.8,13.8,17.5,20.6,32.1,20.6c10.7,0,19.1-4.2,25.1-12.4C1252.8,366.7,1255.8,354.2,1255.8,337.6z"/>
		<path class="st11" d="M1330.8,404.1h-22.5V218.1h22.5V404.1z"/>
		<path class="st11" d="M1421,406.6c-17.8,0-32.2-5.9-43.4-17.5c-11.2-11.6-16.7-27.3-16.7-46.8v-4.2c0-13,2.5-24.6,7.4-34.9
			c5-10.2,11.9-18.1,20.8-24c9-5.7,18.6-8.7,29-8.7c17,0,30.2,5.6,39.7,16.9c9.5,11.2,14.1,27.3,14.1,48.2v9.3H1383
			c0.3,12.9,4,23.4,11.3,31.3c7.3,7.9,16.4,11.9,27.6,11.9c7.9,0,14.6-1.5,20.1-4.8c5.4-3.3,10.2-7.4,14.4-12.9l13.6,10.7
			C1459.4,398,1443,406.6,1421,406.6z M1418.2,289.1c-9,0-16.6,3.3-22.8,9.9c-6.2,6.5-9.9,15.8-11.3,27.7h65.5v-1.7
			c-0.6-11.3-3.7-20.1-9.1-26.5C1434.9,292.2,1427.5,289.1,1418.2,289.1z"/>
		<path class="st11" d="M1660.2,358.1h-73.9l-16.6,46.2h-24l67.2-176.3h20.3l67.4,176.3h-23.9L1660.2,358.1z M1593.2,339h60
			l-30.1-82.4L1593.2,339z"/>
		<path class="st11" d="M1742.1,273.1l0.8,16.4c10.1-12.6,23.1-18.9,39.2-18.9c27.7,0,41.7,15.6,41.8,46.8v86.6h-22.5v-86.6
			c-0.2-9.5-2.2-16.4-6.5-20.9c-4.2-4.5-10.8-6.8-19.8-6.8c-7.3,0-13.6,1.9-19.1,5.9c-5.4,3.9-9.8,9-12.9,15.2v93.3h-22.5V273.1
			H1742.1z"/>
		<path class="st11" d="M1900.6,371.4l30.5-98.2h24l-52.7,151.2c-8.2,21.8-21.1,32.7-38.9,32.7l-4.2-0.3l-8.4-1.5v-18.3l6,0.5
			c7.6,0,13.5-1.5,17.7-4.6c4.2-3.1,7.7-8.7,10.5-16.9l5-13.3L1843.5,273h24.5L1900.6,371.4z"/>
		<path class="st11" d="M2091.1,373.2l25.1-100.1h22.5l-38.1,130.9h-18.1l-31.8-99.3l-31,99.3h-18.1l-38-130.9h22.3l25.7,98.1
			l30.5-98.1h18L2091.1,373.2z"/>
		<path class="st11" d="M2183.7,289c9.9-12.2,22.8-18.3,38.7-18.3c27.7,0,41.7,15.6,41.8,46.8v86.6h-22.5v-86.6
			c-0.2-9.5-2.2-16.4-6.5-20.9c-4.2-4.5-10.8-6.8-19.8-6.8c-7.3,0-13.6,1.9-19.1,5.9c-5.4,3.9-9.8,9-12.9,15.2v93.3h-22.5V218.1
			h22.5V289H2183.7z"/>
		<path class="st11" d="M2352.3,406.6c-17.8,0-32.2-5.9-43.4-17.5c-11.2-11.6-16.7-27.3-16.7-46.8v-4.2c0-13,2.5-24.6,7.4-34.9
			c5-10.2,11.9-18.1,20.8-24c9-5.7,18.6-8.7,29-8.7c17,0,30.2,5.6,39.7,16.9c9.5,11.2,14.1,27.3,14.1,48.2v9.3h-88.8
			c0.3,12.9,4,23.4,11.3,31.3c7.3,7.9,16.4,11.9,27.6,11.9c7.9,0,14.6-1.5,20.1-4.8c5.4-3.3,10.2-7.4,14.4-12.9l13.6,10.7
			C2390.7,398,2374.3,406.6,2352.3,406.6z M2349.5,289.1c-9,0-16.6,3.3-22.8,9.9c-6.2,6.5-9.9,15.8-11.3,27.7h65.5v-1.7
			c-0.6-11.3-3.7-20.1-9.1-26.5C2366.2,292.2,2358.8,289.1,2349.5,289.1z"/>
		<path class="st11" d="M2492.5,293.3c-3.4-0.6-7.1-0.8-11-0.8c-14.7,0-24.6,6.2-29.9,18.7v93h-22.5V273.3h21.8l0.3,15.2
			c7.3-11.8,17.8-17.5,31.3-17.5c4.3,0,7.6,0.6,9.9,1.7L2492.5,293.3L2492.5,293.3z"/>
		<path class="st11" d="M2565.2,406.6c-17.8,0-32.2-5.9-43.4-17.5c-11.2-11.6-16.7-27.3-16.7-46.8v-4.2c0-13,2.5-24.6,7.4-34.9
			c5-10.2,11.9-18.1,20.8-24c9-5.7,18.6-8.7,29-8.7c17,0,30.2,5.6,39.7,16.9c9.5,11.2,14.1,27.3,14.1,48.2v9.3h-88.8
			c0.3,12.9,4,23.4,11.3,31.3c7.3,7.9,16.4,11.9,27.6,11.9c7.9,0,14.6-1.5,20.1-4.8c5.4-3.3,10.2-7.4,14.4-12.9l13.6,10.7
			C2603.6,398,2587.2,406.6,2565.2,406.6z M2562.4,289.1c-9,0-16.6,3.3-22.8,9.9c-6.2,6.5-9.9,15.8-11.3,27.7h65.5v-1.7
			c-0.6-11.3-3.7-20.1-9.1-26.5C2579.1,292.2,2571.8,289.1,2562.4,289.1z"/>
		<path class="st11" d="M399.7,657.1h-73.9l-16.6,46.2h-23.9l67.2-176.3h20.3l67.4,176.3h-23.9L399.7,657.1z M333,638h60l-30.1-82.4
			L333,638z"/>
		<path class="st11" d="M489,540.4v31.8h24.5v17.4H489v81.3c0,5.3,1.1,9.1,3.3,11.8c2.2,2.6,5.9,3.9,11.2,3.9
			c2.6,0,6.2-0.5,10.7-1.4v18.1c-5.9,1.5-11.6,2.5-17.2,2.5c-10.1,0-17.5-3.1-22.6-9.1s-7.6-14.7-7.6-25.7v-81.2h-23.9v-17.4h23.9
			v-31.8H489V540.4z"/>
		<path class="st11" d="M701.9,657.1H628l-16.6,46.2h-24l67.2-176.3h20.3l67.6,176.2h-23.9L701.9,657.1z M634.9,638h60l-30.1-82.4
			L634.9,638z"/>
		<path class="st11" d="M783.8,572.2l0.8,16.4c10.1-12.5,23.1-18.9,39.2-18.9c27.7,0,41.7,15.6,41.8,46.8v86.6h-22.5v-86.6
			c-0.2-9.5-2.2-16.4-6.5-20.9c-4.2-4.5-10.8-6.8-19.8-6.8c-7.3,0-13.6,1.9-19.1,5.9c-5.4,3.9-9.8,9-12.9,15.2v93.3h-22.5V572.2
			L783.8,572.2L783.8,572.2z"/>
		<path class="st11" d="M942.3,670.4l30.5-98.2h24l-52.7,151.2c-8.2,21.8-21.1,32.7-38.9,32.7l-4.2-0.3l-8.4-1.5V736l6,0.5
			c7.6,0,13.5-1.5,17.7-4.6c4.2-3.1,7.7-8.7,10.5-16.9l5-13.3L885.2,572h24.5L942.3,670.4z"/>
		<path class="st11" d="M1047.1,540.4v31.8h24.5v17.4h-24.5v81.3c0,5.3,1.1,9.1,3.3,11.8c2.2,2.6,5.9,3.9,11.2,3.9
			c2.6,0,6.2-0.5,10.7-1.4v18.1c-5.9,1.5-11.6,2.5-17.2,2.5c-10.1,0-17.5-3.1-22.6-9.1c-5.1-6-7.6-14.7-7.6-25.7v-81.2h-23.9v-17.4
			h23.9v-31.8h22.3V540.4z"/>
		<path class="st11" d="M1097.9,537.5c0-3.6,1.1-6.7,3.3-9.1c2.2-2.5,5.6-3.7,9.9-3.7s7.6,1.2,9.9,3.7c2.3,2.5,3.4,5.6,3.4,9.1
			c0,3.6-1.1,6.7-3.4,9.1c-2.3,2.5-5.6,3.6-9.9,3.6s-7.6-1.2-9.9-3.6C1099,544.1,1097.9,541,1097.9,537.5z M1122.1,703.1h-22.5
			V572.2h22.5V703.1z"/>
		<path class="st11" d="M1178.9,572.2l0.6,14.6c9.6-11.3,22.6-16.9,38.9-16.9c18.3,0,30.8,7,37.3,21.1c4.3-6.4,10.1-11.3,17-15.2
			s15.2-5.9,24.8-5.9c28.7,0,43.4,15.2,43.8,45.7v87.7H1319v-86.6c0-9.3-2.2-16.4-6.4-21.1c-4.3-4.6-11.5-7-21.5-7
			c-8.4,0-15.2,2.5-20.8,7.4c-5.4,5-8.7,11.6-9.6,20v86.9h-22.5v-85.8c0-19.1-9.3-28.5-27.9-28.5c-14.7,0-24.8,6.2-30.2,18.7v95.6
			h-22.5V572h21.2V572.2z"/>
		<path class="st11" d="M1429.5,705.6c-17.8,0-32.2-5.9-43.4-17.5s-16.7-27.3-16.7-46.8v-4.2c0-13,2.5-24.6,7.4-34.9
			c5-10.2,11.9-18.1,20.8-24c9-5.7,18.6-8.7,29-8.7c17,0,30.2,5.6,39.7,16.9c9.5,11.2,14.1,27.3,14.1,48.2v9.3h-88.8
			c0.3,12.9,4,23.4,11.3,31.3c7.3,7.9,16.4,11.9,27.6,11.9c7.9,0,14.6-1.5,20.1-4.8c5.4-3.3,10.2-7.4,14.4-12.9l13.6,10.7
			C1467.9,697.1,1451.5,705.6,1429.5,705.6z M1426.7,588.1c-9,0-16.6,3.3-22.8,9.9c-6.2,6.5-9.9,15.8-11.3,27.7h65.5v-1.7
			c-0.6-11.3-3.7-20.1-9.1-26.5C1443.6,591.2,1436.1,588.1,1426.7,588.1z"/>
	</g>
</g>
</svg>
